<?xml version="1.0" encoding="utf-8"?>
<!-- Generator: Adobe Illustrator 18.1.1, SVG Export Plug-In . SVG Version: 6.00 Build 0)  -->
<!DOCTYPE svg PUBLIC "-//W3C//DTD SVG 1.1//EN" "http://www.w3.org/Graphics/SVG/1.1/DTD/svg11.dtd">
<svg version="1.1" id="Layer_1" xmlns="http://www.w3.org/2000/svg" xmlns:xlink="http://www.w3.org/1999/xlink" x="0px" y="0px"
	 viewBox="0 0 72 72" enable-background="new 0 0 72 72" xml:space="preserve">
<path fill="none" stroke="#FFFFFF" stroke-width="1.25" stroke-miterlimit="10" d="M51,54v15 M51,18V3 M21,54v15 M21,18V3 M54,51h15
	 M18,51H3 M54,21h15 M18,21H3"/>
<path fill="none" stroke="#000000" stroke-width="0.25" stroke-miterlimit="10" d="M51,54v15 M51,18V3 M21,54v15 M21,18V3 M54,51h15
	 M18,51H3 M54,21h15 M18,21H3"/>
<path fill="none" stroke="#FFFFFF" stroke-width="1.25" stroke-miterlimit="10" d="M51,54v18 M51,18V0 M21,54v18 M21,18V0 M54,51h18
	 M18,51H0 M54,21h18 M18,21H0"/>
<line fill="none" stroke="#000000" stroke-width="0.25" stroke-miterlimit="10" x1="51" y1="54" x2="51" y2="72"/>
<line fill="none" stroke="#000000" stroke-width="0.25" stroke-miterlimit="10" x1="51" y1="18" x2="51" y2="0"/>
<line fill="none" stroke="#000000" stroke-width="0.25" stroke-miterlimit="10" x1="21" y1="54" x2="21" y2="72"/>
<line fill="none" stroke="#000000" stroke-width="0.25" stroke-miterlimit="10" x1="21" y1="18" x2="21" y2="0"/>
<line fill="none" stroke="#000000" stroke-width="0.25" stroke-miterlimit="10" x1="54" y1="51" x2="72" y2="51"/>
<line fill="none" stroke="#000000" stroke-width="0.25" stroke-miterlimit="10" x1="18" y1="51" x2="0" y2="51"/>
<line fill="none" stroke="#000000" stroke-width="0.25" stroke-miterlimit="10" x1="54" y1="21" x2="72" y2="21"/>
<line fill="none" stroke="#000000" stroke-width="0.25" stroke-miterlimit="10" x1="18" y1="21" x2="0" y2="21"/>
<g>
	<circle fill="none" stroke="#FFFFFF" stroke-width="1.25" stroke-miterlimit="10" cx="10.5" cy="10.5" r="5"/>
	<line fill="none" stroke="#FFFFFF" stroke-width="1.25" stroke-miterlimit="10" x1="4.5" y1="10.5" x2="16.5" y2="10.5"/>
	<line fill="none" stroke="#FFFFFF" stroke-width="1.25" stroke-miterlimit="10" x1="10.5" y1="4.5" x2="10.5" y2="16.5"/>
	<circle fill="none" stroke="#FFFFFF" stroke-width="1.25" stroke-miterlimit="10" cx="10.5" cy="10.5" r="3"/>
	<circle fill="none" stroke="#000000" stroke-width="0.25" stroke-miterlimit="10" cx="10.5" cy="10.5" r="5"/>
	<line fill="none" stroke="#000000" stroke-width="0.25" stroke-miterlimit="10" x1="4.5" y1="10.5" x2="16.5" y2="10.5"/>
	<line fill="none" stroke="#000000" stroke-width="0.25" stroke-miterlimit="10" x1="10.5" y1="4.5" x2="10.5" y2="16.5"/>
	<path d="M13.5,10.5c0,1.7-1.3,3-3,3s-3-1.3-3-3c0-1.7,1.3-3,3-3S13.5,8.8,13.5,10.5"/>
	<line fill="none" stroke="#FFFFFF" stroke-width="0.25" stroke-miterlimit="10" x1="7.5" y1="10.5" x2="13.5" y2="10.5"/>
	<line fill="none" stroke="#FFFFFF" stroke-width="0.25" stroke-miterlimit="10" x1="10.5" y1="7.5" x2="10.5" y2="13.5"/>
	<circle fill="none" stroke="#FFFFFF" stroke-width="1.25" stroke-miterlimit="10" cx="61.5" cy="10.5" r="5"/>
	<line fill="none" stroke="#FFFFFF" stroke-width="1.25" stroke-miterlimit="10" x1="55.5" y1="10.5" x2="67.5" y2="10.5"/>
	<line fill="none" stroke="#FFFFFF" stroke-width="1.25" stroke-miterlimit="10" x1="61.5" y1="4.5" x2="61.5" y2="16.5"/>
	<circle fill="none" stroke="#FFFFFF" stroke-width="1.25" stroke-miterlimit="10" cx="61.5" cy="10.5" r="3"/>
	<circle fill="none" stroke="#000000" stroke-width="0.25" stroke-miterlimit="10" cx="61.5" cy="10.5" r="5"/>
	<line fill="none" stroke="#000000" stroke-width="0.25" stroke-miterlimit="10" x1="55.5" y1="10.5" x2="67.5" y2="10.5"/>
	<line fill="none" stroke="#000000" stroke-width="0.25" stroke-miterlimit="10" x1="61.5" y1="4.5" x2="61.5" y2="16.5"/>
	<path d="M64.5,10.5c0,1.7-1.3,3-3,3c-1.7,0-3-1.3-3-3c0-1.7,1.3-3,3-3C63.2,7.5,64.5,8.8,64.5,10.5"/>
	<line fill="none" stroke="#FFFFFF" stroke-width="0.25" stroke-miterlimit="10" x1="58.5" y1="10.5" x2="64.5" y2="10.5"/>
	<line fill="none" stroke="#FFFFFF" stroke-width="0.25" stroke-miterlimit="10" x1="61.5" y1="7.5" x2="61.5" y2="13.5"/>
</g>
<g>
	<circle fill="none" stroke="#FFFFFF" stroke-width="1.25" stroke-miterlimit="10" cx="10.5" cy="61.5" r="5"/>
	<line fill="none" stroke="#FFFFFF" stroke-width="1.25" stroke-miterlimit="10" x1="4.5" y1="61.5" x2="16.5" y2="61.5"/>
	<line fill="none" stroke="#FFFFFF" stroke-width="1.25" stroke-miterlimit="10" x1="10.5" y1="55.5" x2="10.5" y2="67.5"/>
	<circle fill="none" stroke="#FFFFFF" stroke-width="1.25" stroke-miterlimit="10" cx="10.5" cy="61.5" r="3"/>
	<circle fill="none" stroke="#000000" stroke-width="0.25" stroke-miterlimit="10" cx="10.5" cy="61.5" r="5"/>
	<line fill="none" stroke="#000000" stroke-width="0.25" stroke-miterlimit="10" x1="4.5" y1="61.5" x2="16.5" y2="61.5"/>
	<line fill="none" stroke="#000000" stroke-width="0.25" stroke-miterlimit="10" x1="10.5" y1="55.5" x2="10.5" y2="67.5"/>
	<path d="M13.5,61.5c0,1.7-1.3,3-3,3s-3-1.3-3-3c0-1.7,1.3-3,3-3S13.5,59.8,13.5,61.5"/>
	<line fill="none" stroke="#FFFFFF" stroke-width="0.25" stroke-miterlimit="10" x1="7.5" y1="61.5" x2="13.5" y2="61.5"/>
	<line fill="none" stroke="#FFFFFF" stroke-width="0.25" stroke-miterlimit="10" x1="10.5" y1="58.5" x2="10.5" y2="64.5"/>
	<circle fill="none" stroke="#FFFFFF" stroke-width="1.25" stroke-miterlimit="10" cx="61.5" cy="61.5" r="5"/>
	<line fill="none" stroke="#FFFFFF" stroke-width="1.25" stroke-miterlimit="10" x1="55.5" y1="61.5" x2="67.5" y2="61.5"/>
	<line fill="none" stroke="#FFFFFF" stroke-width="1.25" stroke-miterlimit="10" x1="61.5" y1="55.5" x2="61.5" y2="67.5"/>
	<circle fill="none" stroke="#FFFFFF" stroke-width="1.25" stroke-miterlimit="10" cx="61.5" cy="61.5" r="3"/>
	<circle fill="none" stroke="#000000" stroke-width="0.25" stroke-miterlimit="10" cx="61.5" cy="61.5" r="5"/>
	<line fill="none" stroke="#000000" stroke-width="0.25" stroke-miterlimit="10" x1="55.5" y1="61.5" x2="67.5" y2="61.5"/>
	<line fill="none" stroke="#000000" stroke-width="0.25" stroke-miterlimit="10" x1="61.5" y1="55.5" x2="61.5" y2="67.5"/>
	<path d="M64.5,61.5c0,1.7-1.3,3-3,3c-1.7,0-3-1.3-3-3c0-1.7,1.3-3,3-3C63.2,58.5,64.5,59.8,64.5,61.5"/>
	<line fill="none" stroke="#FFFFFF" stroke-width="0.25" stroke-miterlimit="10" x1="58.5" y1="61.5" x2="64.5" y2="61.5"/>
	<line fill="none" stroke="#FFFFFF" stroke-width="0.25" stroke-miterlimit="10" x1="61.5" y1="58.5" x2="61.5" y2="64.5"/>
</g>
</svg>
