<?xml version="1.0" encoding="utf-8"?>
<!-- Generator: Adobe Illustrator 18.1.1, SVG Export Plug-In . SVG Version: 6.00 Build 0)  -->
<!DOCTYPE svg PUBLIC "-//W3C//DTD SVG 1.1//EN" "http://www.w3.org/Graphics/SVG/1.1/DTD/svg11.dtd">
<svg version="1.1" id="Layer_1" xmlns="http://www.w3.org/2000/svg" xmlns:xlink="http://www.w3.org/1999/xlink" x="0px" y="0px"
	 viewBox="0 0 430.6 399.9" enable-background="new 0 0 430.6 399.9" xml:space="preserve">
<path d="M241.1,0.2c3.1,43.4,6.2,86.9,9.4,131.3c24.1-18.5,47.3-36.3,71.8-55c-11.5,33.3-22.5,65.2-33.9,98.2
	c44.4-7.3,87.8-14.5,132.7-21.9c-30.8,28-60.4,54.9-91.1,82.8c33.9,5.3,66.6,10.4,100.8,15.7C400.8,268.5,372,285,342.5,302
	c25.2,24.9,49.9,49.3,74.5,73.7c-0.4,0.5-0.7,0.9-1.1,1.4c-37.5-18.2-74.9-36.5-113.6-55.3c3.6,20.2,7,39.3,10.6,59.6
	c-24.4-17.2-47.9-33.8-71.7-50.6c-6.2,14.3-12.1,27.9-18.4,42.3c-16-17.6-31.6-34.7-47.7-52.3c-17.7,26.6-35.1,52.9-52.5,79.2
	c-0.4,0-0.8-0.1-1.2-0.1c-1.1-28.1-2.2-56.1-3.3-84.8c-37.8,2.7-75,5.3-112.2,7.9c-0.1-0.4-0.2-0.7-0.3-1.1
	c32-19.2,64-38.4,97.2-58.3c-27-9.2-52.7-18-79.5-27.1C43.6,225.5,63,215.1,83,204.3c-28-26.8-55.5-53.1-83-79.5
	c0.2-0.3,0.4-0.7,0.6-1c39.1,14.4,78.3,28.9,117.8,43.4c0-33,0-65.4,0-99c21.2,22.8,41.9,45.1,63,67.9C201.2,90.3,220.6,45.2,240,0
	C240.4,0.1,240.7,0.1,241.1,0.2z"/>
</svg>
