<?xml version="1.0" encoding="utf-8"?>
<!-- Generator: Adobe Illustrator 18.0.0, SVG Export Plug-In . SVG Version: 6.00 Build 0)  -->
<?xml-stylesheet type="text/css" href="css/pricesvg.css" ?>
<svg version="1.2" baseProfile="tiny" id="Layer_1" xmlns="http://www.w3.org/2000/svg" xmlns:xlink="http://www.w3.org/1999/xlink"
	 x="0px" y="0px" viewBox="0 0 712 768" xml:space="preserve">
<path fill-rule="evenodd" fill="#FFFFFF" stroke="#FFFFFF" stroke-miterlimit="10" d="M-2,0.2V770h714V0.2H-2z M670.5,61.3
	c16.5,0,29.8,13.2,29.8,29.5c0,16.3-13.3,29.5-29.8,29.5s-29.8-13.2-29.8-29.5C640.7,74.5,654,61.3,670.5,61.3z M703.7,363
	c0,10.7-8.8,19.3-19.7,19.3c-10.9,0-19.7-8.7-19.7-19.3s8.8-19.3,19.7-19.3C694.9,343.7,703.7,352.3,703.7,363z M521.4,64.3
	c16.1,0,29.2,12.9,29.2,28.8c0,15.9-13.1,28.8-29.2,28.8s-29.2-12.9-29.2-28.8C492.2,77.2,505.3,64.3,521.4,64.3z M521.4,193
	c16.1,0,29.2,12.9,29.2,28.8c0,15.9-13.1,28.8-29.2,28.8s-29.2-12.9-29.2-28.8C492.2,205.9,505.3,193,521.4,193z M414.3,469
	c-10.9,0-19.7-8.7-19.7-19.3c0-10.7,8.8-19.3,19.7-19.3c10.9,0,19.7,8.7,19.7,19.3C434,460.3,425.2,469,414.3,469z M420,486.5v40.9
	h-77.9v-40.9H420z M433,363.7c0,10.7-8.8,19.3-19.7,19.3c-10.9,0-19.7-8.7-19.7-19.3c0-10.7,8.8-19.3,19.7-19.3
	C424.2,344.3,433,353,433,363.7z M371.4,65c16,0,29,12.8,29,28.7s-13,28.7-29,28.7s-29-12.8-29-28.7S355.3,65,371.4,65z
	 M371.4,193.7c16,0,29,12.8,29,28.7s-13,28.7-29,28.7s-29-12.8-29-28.7S355.3,193.7,371.4,193.7z M187.3,73.3
	c23.6,0,42.7,17.5,42.7,39c0,21.5-19.1,39-42.7,39s-42.7-17.5-42.7-39C144.7,90.8,163.8,73.3,187.3,73.3z M188.7,232.7
	c23.6,0,42.7,17.5,42.7,39c0,21.5-19.1,39-42.7,39s-42.7-17.5-42.7-39C146,250.1,165.1,232.7,188.7,232.7z M147,431.7
	c0-21.5,19.1-39,42.7-39s42.7,17.5,42.7,39c0,21.5-19.1,39-42.7,39S147,453.2,147,431.7z M224.2,543.3c16.8,0,30.5,13.4,30.5,30
	s-13.7,30-30.5,30c-16.8,0-30.5-13.4-30.5-30S207.3,543.3,224.2,543.3z M224.8,621.3c16.8,0,30.5,13.4,30.5,30s-13.7,30-30.5,30
	c-16.8,0-30.5-13.4-30.5-30S208,621.3,224.8,621.3z M225.8,758c-16.7,0-30.2-13.3-30.2-29.7c0-16.4,13.5-29.7,30.2-29.7
	s30.2,13.3,30.2,29.7C256,744.7,242.5,758,225.8,758z M324.7,345.3c10.9,0,19.7,8.7,19.7,19.3c0,10.7-8.8,19.3-19.7,19.3
	c-10.9,0-19.7-8.7-19.7-19.3C305,354,313.8,345.3,324.7,345.3z M325.7,431.3c10.9,0,19.7,8.7,19.7,19.3c0,10.7-8.8,19.3-19.7,19.3
	c-10.9,0-19.7-8.7-19.7-19.3C306,440,314.8,431.3,325.7,431.3z M333,594.3c13.8,0,25,11,25,24.7s-11.2,24.7-25,24.7s-25-11-25-24.7
	S319.2,594.3,333,594.3z M333.7,764c-13.8,0-25-11-25-24.7c0-13.6,11.2-24.7,25-24.7s25,11,25,24.7C358.7,753,347.5,764,333.7,764z
	 M438.3,594.3c13.8,0,25,11,25,24.7s-11.2,24.7-25,24.7c-13.8,0-25-11-25-24.7S424.5,594.3,438.3,594.3z M439,764
	c-13.8,0-25-11-25-24.7c0-13.6,11.2-24.7,25-24.7s25,11,25,24.7C464,753,452.8,764,439,764z M504,344.3c10.9,0,19.7,8.7,19.7,19.3
	c0,10.7-8.8,19.3-19.7,19.3c-10.9,0-19.7-8.7-19.7-19.3C484.3,353,493.1,344.3,504,344.3z M505,469c-10.9,0-19.7-8.7-19.7-19.3
	c0-10.7,8.8-19.3,19.7-19.3c10.9,0,19.7,8.7,19.7,19.3C524.7,460.3,515.9,469,505,469z M545.7,594.3c13.8,0,25,11,25,24.7
	s-11.2,24.7-25,24.7s-25-11-25-24.7S531.9,594.3,545.7,594.3z M546.3,764c-13.8,0-25-11-25-24.7c0-13.6,11.2-24.7,25-24.7
	c13.8,0,25,11,25,24.7C571.3,753,560.1,764,546.3,764z M594,344.3c10.9,0,19.7,8.7,19.7,19.3c0,10.7-8.8,19.3-19.7,19.3
	c-10.9,0-19.7-8.7-19.7-19.3C574.3,353,583.1,344.3,594,344.3z M595,469c-10.9,0-19.7-8.7-19.7-19.3c0-10.7,8.8-19.3,19.7-19.3
	c10.9,0,19.7,8.7,19.7,19.3C614.7,460.3,605.9,469,595,469z M640.7,219.5c0-16.3,13.3-29.5,29.8-29.5s29.8,13.2,29.8,29.5
	S686.9,249,670.5,249S640.7,235.8,640.7,219.5z M704,560v46.7h-45.3V560H704z M704.7,709.3V762h-53.3v-52.7V658v-48.7H704V658h0.7
	V709.3z M685,468.3c-10.9,0-19.7-8.7-19.7-19.3s8.8-19.3,19.7-19.3c10.9,0,19.7,8.7,19.7,19.3S695.9,468.3,685,468.3z"/>
</svg>
