<?xml version="1.0" encoding="utf-8"?>
<!-- Generator: Adobe Illustrator 18.1.1, SVG Export Plug-In . SVG Version: 6.00 Build 0)  -->
<!DOCTYPE svg PUBLIC "-//W3C//DTD SVG 1.1//EN" "http://www.w3.org/Graphics/SVG/1.1/DTD/svg11.dtd">
<svg version="1.1" id="Layer_1" xmlns="http://www.w3.org/2000/svg" xmlns:xlink="http://www.w3.org/1999/xlink" x="0px" y="0px"
	 viewBox="0 0 582 771" enable-background="new 0 0 582 771" xml:space="preserve">
<polygon points="72,642.5 99.5,671.5 364.5,671.5 364.5,282 72,282 "/>
<path d="M0,420.9l151.4-160l30-1v-28l52-52v13c0,0,125-2,140,1s-11-24-11-24s8-18,6-52l9-47l-4-10c0,0-4-1-29,7l71-67.9H0V420.9z"/>
<path d="M549.4,524.9v66l-66-1l-182,182h283.3L583,489.6L549.4,524.9z M551.4,745.9h-158v-59h158V745.9z"/>
<rect x="17.4" y="699.9" width="92" height="39"/>
<rect x="76.7" y="659.6" width="9.3" height="9.3"/>
<rect x="48.1" y="750.9" width="42" height="8"/>
<rect x="18.1" y="750.9" width="25.3" height="7.3"/>
<rect x="3.5" y="576.9" width="5.6" height="94.7"/>
<rect x="401.4" y="61.3" width="10.7" height="9.5"/>
<rect x="416.7" y="61.2" width="54.7" height="9.6"/>
<rect x="401.4" y="93.6" width="10.7" height="9.5"/>
<rect x="416.7" y="93.6" width="59.9" height="9.6"/>
<polygon points="541.1,147.2 541.1,135.6 538.9,135.6 538.9,125.2 529.9,125.2 529.9,115.9 537.5,115.9 537.5,104.2 402.7,104.2 
	402.7,114.6 402.7,115.9 402.7,125.2 402.7,126.2 402.7,135.6 402.7,136.9 402.7,146.9 402.7,147.2 402.7,157.2 402.7,158.5 
	402.7,168.2 402.7,168.9 402.7,178.6 402.7,179.9 402.7,189.2 402.7,190.2 402.7,199.6 402.7,200.9 402.7,209.9 402.7,211.2 
	402.7,221.5 479.5,221.5 479.5,211.2 523.8,211.2 523.8,200.9 527.9,200.9 527.9,189.2 526.4,189.2 526.4,179.9 531,179.9 
	531,168.9 535,168.9 535,157.2 525.5,157.2 525.5,147.2 "/>
<rect x="401.4" y="231.6" width="10.7" height="9.5"/>
<rect x="416.7" y="231.6" width="45" height="9.6"/>
<rect x="402.4" y="331.3" width="10.7" height="9.5"/>
<rect x="416.7" y="331.2" width="25.3" height="9.6"/>
<polygon points="537.5,341.9 402.7,341.9 402.7,352.2 402.7,353.5 402.7,362.9 402.7,363.9 402.7,372.5 402.7,374.5 402.7,379.5 
	402.7,380.9 402.7,391.2 458.3,391.2 458.3,379.5 430,379.5 430,374.5 488.2,374.5 488.2,363.9 529.9,363.9 529.9,353.5 
	537.5,353.5 "/>
<rect x="402.4" y="401.7" width="10.7" height="9.5"/>
<rect x="416.7" y="401.6" width="41.6" height="9.6"/>
<polygon points="535.9,434.3 535.9,422.6 534.2,422.6 534.2,412.3 402.7,412.3 402.7,422.6 402.7,423.9 402.7,432.9 402.7,434.3 
	402.7,439.9 402.7,441.3 402.7,451.6 444.3,451.6 444.3,439.9 430,439.9 430,434.3 "/>
<rect x="402.4" y="462" width="10.7" height="9.5"/>
<rect x="416.7" y="462" width="41.3" height="9.6"/>
<rect x="402.4" y="519.7" width="12.2" height="9.5"/>
<rect x="416.7" y="519.6" width="41.3" height="9.6"/>
<rect x="402.7" y="530.3" width="115.2" height="11.6"/>
<rect x="402.4" y="549.3" width="14.1" height="9.5"/>
<rect x="418.4" y="549.3" width="65.5" height="9.6"/>
<polygon points="523.8,559.9 402.7,559.9 402.7,570.3 402.7,571.6 402.7,581.9 514.9,581.9 514.9,571.6 523.8,571.6 "/>
<polygon points="538.1,494.6 538.1,483 523.8,483 523.8,472.7 402.7,472.7 402.7,483 402.7,484.3 402.7,493.3 402.7,494.6 
	402.7,500.3 402.7,501.7 402.7,511.9 466.1,511.9 466.1,500.3 438.7,500.3 438.7,494.6 "/>
<polygon points="539.9,252.6 537.5,252.6 537.5,242.2 402.7,242.2 402.7,252.6 402.7,253.9 402.7,263.2 402.7,264.2 402.7,273.6 
	402.7,274.9 402.7,283.2 402.7,285.2 402.7,290.2 402.7,291.6 402.7,300.6 402.7,301.9 402.7,307.2 402.7,308.7 402.7,318.9 
	447.3,318.9 447.3,307.2 440.2,307.2 440.2,301.9 451.3,301.9 451.3,290.2 430.1,290.2 430.1,285.2 487.2,285.2 487.2,274.9 
	538.9,274.9 538.9,264.2 539.9,264.2 "/>
<rect x="401.4" y="72.5" width="10.7" height="7.7"/>
<rect x="416.7" y="72.5" width="54.7" height="7.7"/>
<polygon points="334.7,245.4 334.7,236.1 331.7,236.1 331.7,227.4 325.7,227.4 325.7,219.6 332.4,219.6 332.4,210.4 317.4,210.4 
	317.4,202.1 242.7,202.1 242.7,210.4 242.7,211.4 242.7,219.1 242.7,219.6 242.7,227.4 242.7,228.4 242.7,236.1 242.7,236.6 
	242.7,244.4 242.7,245.4 242.7,253.1 242.7,253.6 242.7,261.4 242.7,262.4 242.7,270.6 307,270.6 307,262.4 330.1,262.4 
	330.1,253.1 317.4,253.1 317.4,245.4 "/>
<polygon points="529.9,717.8 529.9,706.6 498.3,706.6 498.3,696.6 402.2,696.6 402.2,706.6 402.2,707.8 402.2,717.2 402.2,717.8 
	402.2,727.2 402.2,728.4 402.2,738.4 518.4,738.4 518.4,727.2 512.8,727.2 512.8,717.8 "/>
</svg>
