<?xml version="1.0" encoding="utf-8"?>
<!-- Generator: Adobe Illustrator 18.1.1, SVG Export Plug-In . SVG Version: 6.00 Build 0)  -->
<!DOCTYPE svg PUBLIC "-//W3C//DTD SVG 1.1//EN" "http://www.w3.org/Graphics/SVG/1.1/DTD/svg11.dtd">
<svg version="1.1" id="Layer_0_xA0_Image_1_" xmlns="http://www.w3.org/2000/svg" xmlns:xlink="http://www.w3.org/1999/xlink"
	 x="0px" y="0px" viewBox="0 0 570.2 775.4" enable-background="new 0 0 570.2 775.4" xml:space="preserve">
<g>
	<path d="M220.3,79c1.7,3.6,8,6,11.8,7.7c8.7,3.8,17.2,8.6,27.6,11c0.5,0.8,0.6,0.8,0.7,2.2c-3.5,2.3-8,3.5-11.3,6
		c-7.5,5.8-10.8,16.1-16.6,23.8c-3.1,4.1-10.4,12-10.3,18.5c5.2,5.8,15.3,7.3,21.8,11.8c0.8,3.8-1.1,5.7-2.2,8.6
		c-0.2,1.7-0.5,3.4-0.7,5c-1.7,2.2-3.4,4.3-5,6.5c-1.3,2.6-2.6,5.1-3.8,7.7c-2.5,3.3-5,5.1-6.7,9.6c0.3,6.8,18.1,14.5,24.2,17
		c12.4,5.2,31.2,5.6,48.7,4.6c35.9-2.2,69-1.1,90.5-16.8c1.5-6-4.3-9.5-7-13c-4.2-5.1-8.5-10.2-12.7-15.4c-1-2.3-2.1-4.6-3.1-7
		c-1.5-2.3-3.7-3.6-5-6.2c0.3-5,5.4-5.4,8.6-7.4c3.3-2,18.2-12.4,19.4-15.1c-0.2-6-8.5-10.3-12.2-13.2c-3-2.5-5.9-5-8.9-7.4
		c-1.7-2.4-2-5.7-4.3-7.4c-2.8-2.2-5.9-4.9-8.9-6.7c-2.8-1.7-6-2.1-8.2-4.3c0.1-0.3,0.2-0.6,0.2-1c1.6-3.2,8.8-4.3,12.2-5.8
		c6.1-2.6,22.9-15.4,24.2-21.4c1.2-5.6-12.1-14.8-15.4-17.3c-4.1-3.7-8.2-7.4-12.2-11c-11.4-8.1-27.9-9.6-48-9.4
		c-3.5,0.2-7,0.3-10.6,0.5c-6.8,1.2-16.2,0.2-23.8,1.7c-18,3.5-31.5,11.9-41,23.8C230.2,62.1,218.4,75,220.3,79z"/>
	<path d="M172.5,226.8c-5-3.5-16.8-2.2-25-2.2c-17.1,0-31.6-1.6-49.7-1.4c-5,0.2-10.1,0.3-15.1,0.5c-6.4,1-13.7-0.2-20.9,1
		c-3.2,0.5-5.3,2.1-8.2,2.6c-3.7,0.7-6.4-0.4-9.1,1c-1.2,3.4-0.5,7.5-0.5,12.2v62.6c0,6.4-0.4,13.6,0.5,19.2
		c1.3,8.4-0.7,18.1,0.5,25.9c1.3,8.4-0.6,17.4,1.4,24.2c5.7,3.7,23.6,0,32.4,0c18.1-0.5,36.2-1,54.2-1.4c6,0.9,13.6-0.5,20.2,0.5
		c5.3,0.8,13.7,0.9,18.2-0.5c3.7-6.1,1.7-27.8,1.7-37.4v-72C173.3,251.4,175,235.5,172.5,226.8z"/>
	<path d="M405.8,0v21c-1.3-1-2.8-1.8-5-1.8c-1.9,1.5-3.4,2.5-4.6,4.8c0.1,5.2,4.3,6.4,6.7,9.4c0.9,0.9,1.9,1.9,2.8,2.8v281.2
		c-2.6-0.6-5.7-0.8-7.9-1.3c-10.4-2-20.8-4-31.2-6c-31-6.2-61.9-12.3-92.9-18.5c-10.4-2.1-20.8-4.2-31.2-6.2
		c-6.1-1.5-12.9-3.7-19.9-3.6c-5.1,3-4.8,12.4-6.2,19c-2.9,15-5.8,30.1-8.6,45.1c-10.5,45.1-16.5,92.4-26.9,137.3
		c-2.6,13.2-5.1,26.4-7.7,39.6c-1.4,5.6-1.4,12-4.1,16.1c-5.1,1.2-10.7-0.8-15.4-1.7c-10.1-0.3-20.2-0.6-30.2-1
		c-8.5,0.4-17,0.8-25.4,1.2c-14.9,2.7-29.9,6.9-42.2,12.5c-12.7,5.7-28.6,36.4-24.7,59c0.8,4.5,3.5,6.1,4.6,9.8
		c0.8,4.2,1.6,8.5,2.4,12.7c1.3,2.2,2.6,4.3,3.8,6.5c5.3,9.1,8.7,18.6,17.5,24c4.4,2.7,9.8,3.8,14.9,5.8c12.2,4.8,25.2,9,39.8,11.5
		c6.9,1.2,14.6-0.5,20.4-1.4c15.5-2.5,31.2-2,45.1-6.2c15.3-4.7,27.1-14.7,39.1-23c3.1-2.2,8.7-13.9,9.6-18.5
		c0.9-4.9-0.7-16.4,3.6-17.8c3.7-1.2,23.2,3.6,27.4,4.6c20.1,4,40.2,8,60.2,12c6.1,1.5,18,2,22.6,5c5.8,3.9,1.3,19.9,2.6,28.3
		c0.9,5.7-1.8,10.8-0.7,16.3c1.8,9.4,4.6,21.7,2.6,33.6c-1.1,6.9-3.8,19.2-0.2,24c3.9,0.9,8.7-0.1,12.7-0.7
		c9.2-0.2,18.4-0.3,27.6-0.5c8.1,0,15.5,0.3,22.8,1.4c16.2,0.2,32.5,0.5,48.7,0.7c9.5,0.1,19,0.2,28.6,0.2c3.3,0,8.7,1.2,11.3-0.2
		c2.3-1.3,1.2-6.1,1.2-9.4c0-6.4,0.8-12.5-0.2-18.2c-0.5-2.3-1-4.6-1.4-7c1.1-5,2.2-10.1,3.4-15.1V667c0-15.1,0.8-31.6-1.4-44.6
		v-15.8c-1-6.6,1.5-25-1-28.6c-3.1-4.5-26.8-1.5-35-1.4c-24.2,0.4-48.5,0.8-72.7,1.2c-8.9-1.4-19,1.5-26.4-0.7
		c-2.5-3.7-0.6-10,0.5-14.9c2.6-11.5,4.3-24.1,7.2-36c9.2-38.5,14.1-79,23-117.1c1.7-9.9,3.4-19.8,5-29.8c2.1-8.6,3.8-17.8,5.5-27
		v155.5h164.5V0H405.8z"/>
	<rect x="30.6" y="15.4" width="66.9" height="11"/>
	<rect x="114.2" y="15.4" width="40.2" height="11"/>
	<rect x="94.3" y="19.4" transform="matrix(0.7239 0.6899 -0.6899 0.7239 43.2913 -67.3973)" width="23.2" height="2"/>
	<rect x="30.6" y="53.1" width="80.5" height="26.7"/>
	<rect x="30.6" y="87.7" width="76.6" height="24"/>
	<polygon points="153.5,184.4 171.8,184.4 171.8,166.9 156.5,166.9 156.5,152.6 190,152.6 190,135.1 183.1,135.1 183.1,119.7 
		30.6,119.7 30.6,135.1 30.6,137.2 30.6,150.9 30.6,152.6 30.6,166.9 30.6,168.4 30.6,182.5 30.6,184.4 30.6,200.1 153.5,200.1 	"/>
	<rect x="220.1" y="33.1" width="5" height="6.8"/>
	<rect x="28.1" y="232.5" width="6" height="7"/>
	<polygon points="178.6,395.2 32.4,395.2 32.4,403.7 32.4,404.2 32.4,411.7 32.4,412.7 32.4,420.7 32.4,428.7 32.4,429.7 
		32.4,437.7 164.7,437.7 164.7,429.7 174.9,429.7 174.9,420.7 166.8,420.7 166.8,412.7 176.3,412.7 176.3,404.2 178.6,404.2 	"/>
	<polygon points="377.4,239.9 377.4,230.9 232.6,230.9 232.6,239.4 232.6,239.9 232.6,247.4 232.6,248.4 232.6,256.4 232.6,264.4 
		232.6,265.4 232.6,273.4 270.9,273.4 270.9,265.4 382.4,265.4 382.4,256.4 380.9,256.4 380.9,247.4 370.1,247.4 370.1,239.9 	"/>
	<polygon points="32.4,449.7 32.4,458.2 32.4,458.7 32.4,466.2 32.4,467.2 32.4,475.2 32.4,483.2 32.4,484.2 32.4,492.2 
		165.7,492.2 165.7,484.2 174.9,484.2 174.9,475.2 178.6,475.2 178.6,466.2 173.5,466.2 173.5,458.2 162.2,458.2 162.2,449.7 	"/>
	<polygon points="32.4,701.7 32.4,702.2 32.4,709.7 32.4,710.7 32.4,718.7 32.4,726.7 32.4,727.7 32.4,735.7 156.7,735.7 
		156.7,727.7 177.1,727.7 177.1,718.7 166.8,718.7 166.8,710.7 177.1,710.7 177.1,702.2 178.6,702.2 178.6,693.2 32.4,693.2 	"/>
	<polygon points="404.4,522.2 404.4,530.7 404.4,531.2 404.4,538.7 404.4,539.7 404.4,547.7 404.4,556.7 523.7,556.7 523.7,547.7 
		540.8,547.7 540.8,538.7 538.8,538.7 538.8,530.7 534.7,530.7 534.7,522.2 	"/>
	<rect x="43.6" y="665.2" width="7.5" height="9.5"/>
	<rect x="34.6" y="747.7" width="11" height="9.5"/>
	<rect x="484.4" y="749.2" width="73" height="8.8"/>
	<rect x="504.9" y="577.7" width="6.5" height="7.2"/>
</g>
</svg>
