<?xml version="1.0" encoding="utf-8"?>
<!-- Generator: Adobe Illustrator 18.1.1, SVG Export Plug-In . SVG Version: 6.00 Build 0)  -->
<!DOCTYPE svg PUBLIC "-//W3C//DTD SVG 1.1//EN" "http://www.w3.org/Graphics/SVG/1.1/DTD/svg11.dtd">
<svg version="1.1" id="Layer_1" xmlns="http://www.w3.org/2000/svg" xmlns:xlink="http://www.w3.org/1999/xlink" x="0px" y="0px"
	 viewBox="0 0 2404 3236" enable-background="new 0 0 2404 3236" xml:space="preserve">
<g>
	<rect x="796" y="212" width="792" height="228"/>
	<polygon points="997.2,536 997.2,580 1386.8,580 1386.8,536 1332.3,536 1332.3,496 1524,496 1524,452 860,452 860,496 1051.7,496 
		1051.7,536 	"/>
	<polygon points="1174.8,670 1174.8,665.1 1174.8,626 1041.6,626 1041.6,665.1 789.4,665.1 789.4,722 1174.8,722 	"/>
	<polygon points="1249.5,626 1213.4,626 1213.4,665.1 1213.4,670 1213.4,722 1931.2,722 1931.2,665.1 1249.5,665.1 	"/>
	<polygon points="1174.8,772 1174.8,767.1 1174.8,728 967,728 967,767.1 789.4,767.1 789.4,824 1174.8,824 	"/>
	<polygon points="1213.4,728 1213.4,767.1 1213.4,772 1213.4,824 1452.4,824 1452.4,767.1 1249.5,767.1 1249.5,728 	"/>
	<rect x="899.3" y="830" width="275.5" height="44"/>
	<rect x="1213.4" y="830" width="36.1" height="44"/>
	<polygon points="1044.3,1009.1 929.7,1009.1 929.7,1053.1 860.1,1053.1 860.1,1110 1031.3,1110 1031.3,1150 1174.8,1150 
		1174.8,1110 1174.8,1093.1 1174.8,1066 1174.8,1053.1 1174.8,1032 1174.8,1009.1 1174.8,982 1174.8,975.1 1174.8,930 1174.8,925.1 
		1174.8,886 1004.2,886 1004.2,925.1 671.9,925.1 671.9,982 1044.3,982 	"/>
	<polygon points="1213.4,1204 1213.4,1243.1 1213.4,1248 1213.4,1300 1558.8,1300 1558.8,1243.1 1263.3,1243.1 1263.3,1204 	"/>
	<polygon points="1174.8,1390 1174.8,1385.1 1174.8,1346 851,1346 851,1390 985.7,1390 985.7,1442 1174.8,1442 	"/>
	<polygon points="1213.4,1346 1213.4,1385.1 1213.4,1390 1213.4,1442 1456.3,1442 1456.3,1385.1 1263.3,1385.1 1263.3,1346 	"/>
	<polygon points="1174.8,1544 1174.8,1524.1 1174.8,1492 1174.8,1487.1 1174.8,1448 1038.3,1448 1038.3,1487.1 795.3,1487.1 
		795.3,1524.1 630,1524.1 630,1581 1174.8,1581 	"/>
	<polygon points="1213.4,1487.1 1213.4,1492 1213.4,1544 1456.3,1544 1456.3,1487.1 1263.3,1487.1 1263.3,1448 1213.4,1448 	"/>
	<polygon points="1174.8,1785 1174.8,1765.1 1174.8,1733 1174.8,1728.1 1174.8,1689 827.9,1689 827.9,1728.1 732.9,1728.1 
		732.9,1765.1 340.1,1765.1 340.1,1822 1174.8,1822 	"/>
	<polygon points="1213.4,1728.1 1213.4,1733 1213.4,1785 1456.3,1785 1456.3,1728.1 1263.3,1728.1 1263.3,1689 1213.4,1689 	"/>
	<polygon points="1174.8,1927 1174.8,1907.1 1174.8,1875 1174.8,1870.1 1174.8,1831 1021.9,1831 1021.9,1870.1 286.7,1870.1 
		286.7,1927 487.1,1927 487.1,1964 1174.8,1964 	"/>
	<polygon points="1213.4,1870.1 1213.4,1875 1213.4,1927 1400.3,1927 1400.3,1870.1 1263.3,1870.1 1263.3,1831 1213.4,1831 	"/>
	<polygon points="1174.8,2070 1174.8,2050.1 1174.8,2018 1174.8,2013.1 1174.8,1974 971.3,1974 971.3,2013.1 689.9,2013.1 
		689.9,2070 738.7,2070 738.7,2107 1174.8,2107 	"/>
	<polygon points="1207.4,2013.1 1207.4,2018 1207.4,2070 1401.4,2070 1401.4,2013.1 1257.3,2013.1 1257.3,1974 1207.4,1974 	"/>
	<polygon points="1174.8,2430 1174.8,2410.1 1174.8,2373.1 475,2373.1 475,2410.1 386.8,2410.1 386.8,2467 1174.8,2467 	"/>
	<rect x="1207.4" y="2373.1" width="285" height="56.9"/>
	<polygon points="1174.8,2532 1174.8,2512.1 1174.8,2475.1 538.7,2475.1 538.7,2532 684.8,2532 684.8,2569 1174.8,2569 	"/>
	<polygon points="2232.1,2718.1 142.8,2718.1 142.8,2750.1 142.8,3136.1 142.8,3168.1 1834,3168.1 1834,3136.1 2232.1,3136.1 	"/>
	<rect x="1207.4" y="2475.1" width="285" height="56.9"/>
	<polygon points="1174.8,2160 1174.8,2155.1 1174.8,2116 1063.8,2116 1063.8,2155.1 922.2,2155.1 922.2,2207 1174.8,2207 	"/>
	<polygon points="1510.8,2155.1 1257.3,2155.1 1257.3,2116 1207.4,2116 1207.4,2155.1 1207.4,2160 1207.4,2207 1510.8,2207 	"/>
	<polygon points="1174.8,2262 1174.8,2257.1 1174.8,2218 1012,2218 1012,2257.1 906.9,2257.1 906.9,2309 1174.8,2309 	"/>
	<polygon points="1207.4,2218 1207.4,2257.1 1207.4,2262 1207.4,2309 1436.2,2309 1436.2,2257.1 1257.3,2257.1 1257.3,2218 	"/>
	<rect x="1012" y="2634" width="162.8" height="44"/>
	<rect x="1207.4" y="2634" width="49.9" height="44"/>
	<rect x="1012" y="2577" width="162.8" height="44"/>
	<rect x="1207.4" y="2577" width="413.4" height="44"/>
	<rect x="965.5" y="2315" width="209.4" height="44"/>
	<rect x="1207.4" y="2315" width="211.1" height="44"/>
	<polygon points="1174.8,1633 1174.8,1628.1 1174.8,1589 947.1,1589 947.1,1628.1 441.4,1628.1 441.4,1677 1174.8,1677 	"/>
	<polygon points="1213.4,1628.1 1213.4,1633 1213.4,1677 1435.7,1677 1435.7,1628.1 1263.3,1628.1 1263.3,1589 1213.4,1589 	"/>
	<polygon points="1174.8,1300 1174.8,1283.1 1174.8,1248 1174.8,1243.1 1174.8,1204 816.5,1204 816.5,1243.1 397.9,1243.1 
		397.9,1283.1 174.5,1283.1 174.5,1340 1174.8,1340 	"/>
	<polygon points="1935.5,1066 1935.5,1009.1 1576.7,1009.1 1576.7,975.1 1452.4,975.1 1452.4,925.1 1263.3,925.1 1263.3,886 
		1213.4,886 1213.4,925.1 1213.4,930 1213.4,975.1 1213.4,982 1213.4,1009.1 1213.4,1032 1213.4,1053.1 1213.4,1066 1213.4,1093.1 
		1213.4,1110 1213.4,1137.1 1213.4,1150 1213.4,1194 2012.7,1194 2012.7,1137.1 1862.7,1137.1 1862.7,1093.1 1824,1093.1 1824,1066 
			"/>
	<rect x="1872" y="1866" width="350" height="598"/>
	<rect x="1868" y="2476" width="356" height="212"/>
</g>
</svg>
