<?xml version="1.0" encoding="utf-8"?>
<!-- Generator: Adobe Illustrator 18.1.1, SVG Export Plug-In . SVG Version: 6.00 Build 0)  -->
<!DOCTYPE svg PUBLIC "-//W3C//DTD SVG 1.1//EN" "http://www.w3.org/Graphics/SVG/1.1/DTD/svg11.dtd">
<svg version="1.1" id="Layer_1" xmlns="http://www.w3.org/2000/svg" xmlns:xlink="http://www.w3.org/1999/xlink" x="0px" y="0px"
	 viewBox="0 0 564.5 752.2" enable-background="new 0 0 564.5 752.2" xml:space="preserve">
<g>
	<g>
		<path d="M38.5,138.5c3.6,9.9,12.3,20.3,15,33c0.7,0.3,1.3,0.7,2,1c0.3-10.7,0.7-21.3,1-32h44v-66h-62V138.5z M525.5,148.5
			c-10.6-7.7-42.4-10.3-59-10l-5,5c-1,1.3-2,2.7-3,4v31c-4.5,5.3-21.6,12.2-13,30c3.7,3.3,7.3,6.7,11,10c7.1,16.8-8.1,35.5,8,43
			c8.7,3.6,23.7-0.3,32-2c10.5-2.2,23.2,0.7,29-6C533.2,244.7,528.6,161,525.5,148.5z M264.5,256.5c-6.6-26.4-1.8-67.5-1-96
			c-11.3-7.3-35.9-5-51-8c-1.3,0.7-2.7,1.3-4,2c-5.2,24.9-6.5,73.1-3,99C226.7,266.8,241.5,260.4,264.5,256.5z M392.5,255.5
			c0.3,0.3,0.7,0.7,1,1h9c-2.2-9.4-19.9-26.4-17-35c3.9-11.4,24.2-28.8,20-43c-4.2-6.8-58.8-16.4-73-16c-15.8,14.3-33.6,34-44,53v1
			h20c-1.7,11.5-16.8,28.7-4,35c14,5.4,53.3-7.1,70-9c0.2-6.2,0-5.4,4-5C385.5,241.8,385.1,251.5,392.5,255.5z M352.5,273.5
			c-1,0.3-2,0.7-3,1v104c7,4.5,17.1,6.4,29,6c0.5-32.4,2.1-70.6,2-106c-2-1.7-4-3.3-6-5H352.5z M507.5,277.5c-3.1-3.8-5.9-5-13-5
			c-10,9-48.3,45.1-44,64c10,17,20,34,30,51c-3,1.7-6,3.3-9,5v3c6,6.1,18.6,7.5,31,7c0.7-2.3,1.3-4.7,2-7c-2.4-4.3-3.3-5.8-9-7v-3
			c6.7-9.7,13.3-19.3,20-29C521.4,343.5,513.3,281.5,507.5,277.5z M421.5,278.5c-0.3-1-0.7-2-1-3c-10-0.3-20-0.7-30-1
			c-1.7,1.3-3.3,2.7-5,4c-3.3,16.4-4.6,99.7,2,110c4.4,6.9,23.8,8.2,35,8c0.1-22.8-9-55.7-4-74C420.8,313.9,426.5,291.2,421.5,278.5
			z M250.5,296.5c-15.5,9.3-65.8,30.4-73,44c-0.3,2.7-0.7,5.3-1,8c11.9,11.4,44,14.8,45,36c12.9-2.7,19.3-1.4,32,4
			c23-13,49.2-33.1,67-52v-3C310,315.9,276.3,297.5,250.5,296.5z"/>
	</g>
	<g>
		<path fill="none" stroke="#000000" stroke-width="7" stroke-miterlimit="10" d="M38.5,138.5c3.6,9.9,12.3,20.3,15,33
			c0.7,0.3,1.3,0.7,2,1c0.3-10.7,0.7-21.3,1-32h44v-66h-62V138.5z M525.5,148.5c-10.6-7.7-42.4-10.3-59-10l-5,5c-1,1.3-2,2.7-3,4v31
			c-4.5,5.3-21.6,12.2-13,30c3.7,3.3,7.3,6.7,11,10c7.1,16.8-8.1,35.5,8,43c8.7,3.6,23.7-0.3,32-2c10.5-2.2,23.2,0.7,29-6
			C533.2,244.7,528.6,161,525.5,148.5z M264.5,256.5c-6.6-26.4-1.8-67.5-1-96c-11.3-7.3-35.9-5-51-8c-1.3,0.7-2.7,1.3-4,2
			c-5.2,24.9-6.5,73.1-3,99C226.7,266.8,241.5,260.4,264.5,256.5z M392.5,255.5c0.3,0.3,0.7,0.7,1,1h9c-2.2-9.4-19.9-26.4-17-35
			c3.9-11.4,24.2-28.8,20-43c-4.2-6.8-58.8-16.4-73-16c-15.8,14.3-33.6,34-44,53v1h20c-1.7,11.5-16.8,28.7-4,35
			c14,5.4,53.3-7.1,70-9c0.2-6.2,0-5.4,4-5C385.5,241.8,385.1,251.5,392.5,255.5z M352.5,273.5c-1,0.3-2,0.7-3,1v104
			c7,4.5,17.1,6.4,29,6c0.5-32.4,2.1-70.6,2-106c-2-1.7-4-3.3-6-5H352.5z M507.5,277.5c-3.1-3.8-5.9-5-13-5c-10,9-48.3,45.1-44,64
			c10,17,20,34,30,51c-3,1.7-6,3.3-9,5v3c6,6.1,18.6,7.5,31,7c0.7-2.3,1.3-4.7,2-7c-2.4-4.3-3.3-5.8-9-7v-3c6.7-9.7,13.3-19.3,20-29
			C521.4,343.5,513.3,281.5,507.5,277.5z M421.5,278.5c-0.3-1-0.7-2-1-3c-10-0.3-20-0.7-30-1c-1.7,1.3-3.3,2.7-5,4
			c-3.3,16.4-4.6,99.7,2,110c4.4,6.9,23.8,8.2,35,8c0.1-22.8-9-55.7-4-74C420.8,313.9,426.5,291.2,421.5,278.5z M250.5,296.5
			c-15.5,9.3-65.8,30.4-73,44c-0.3,2.7-0.7,5.3-1,8c11.9,11.4,44,14.8,45,36c12.9-2.7,19.3-1.4,32,4c23-13,49.2-33.1,67-52v-3
			C310,315.9,276.3,297.5,250.5,296.5z"/>
	</g>
</g>
<path stroke="#000000" stroke-width="7" stroke-miterlimit="10" d="M403.2,250.8"/>
<polygon stroke="#000000" stroke-width="7" stroke-miterlimit="10" points="443.7,256.3 403.2,250.8 402.5,256.5 441.2,262.3 "/>
<rect x="201.7" y="402.8" width="325.5" height="123.5"/>
<rect x="171.2" y="557.8" width="150.5" height="154"/>
<rect x="327.2" y="557.3" width="37.5" height="12"/>
<rect x="327.2" y="570.6" width="145.1" height="26.8"/>
<rect x="327.2" y="601.3" width="193.1" height="112.3"/>
<rect x="539.4" y="664.8" width="5.8" height="47.5"/>
<rect x="33.9" y="659.1" width="115.5" height="53.2"/>
<rect x="33.9" y="726.6" width="95.8" height="9.8"/>
<rect x="34.7" y="643.6" width="30.5" height="1.8"/>
<rect x="33.2" y="193.8" width="118" height="440"/>
<rect x="61.5" y="146.2" width="90.7" height="35"/>
<rect x="36.8" y="63" width="54.1" height="9.9"/>
<rect x="36.8" y="19.3" width="57.1" height="9.9"/>
<rect x="204.5" y="63.5" width="314.6" height="40.7"/>
<rect x="204.5" y="107.5" width="322.1" height="24.3"/>
<circle cx="196.8" cy="159.8" r="6"/>
<circle cx="306.5" cy="177.8" r="6"/>
<circle cx="446.8" cy="154.8" r="6"/>
<circle cx="458.5" cy="298.5" r="6"/>
<circle cx="336.8" cy="286.8" r="6"/>
<circle cx="194.8" cy="314.2" r="6"/>
</svg>
