<?xml version="1.0" encoding="utf-8"?>
<!-- Generator: Adobe Illustrator 18.1.1, SVG Export Plug-In . SVG Version: 6.00 Build 0)  -->
<!DOCTYPE svg PUBLIC "-//W3C//DTD SVG 1.1//EN" "http://www.w3.org/Graphics/SVG/1.1/DTD/svg11.dtd">
<svg version="1.1" id="Layer_1" xmlns="http://www.w3.org/2000/svg" xmlns:xlink="http://www.w3.org/1999/xlink" x="0px" y="0px"
	 viewBox="0 0 550.6 756.7" enable-background="new 0 0 550.6 756.7" xml:space="preserve">
<rect x="208.9" y="-0.9" width="342.1" height="609.9"/>
<polygon points="-1.1,18.3 -1.1,103.1 223.9,93.9 212.9,7.1 "/>
<rect x="29.6" y="104.7" width="162" height="9.3"/>
<rect x="36.3" y="132.1" width="151.3" height="20"/>
<rect x="58.9" y="154.1" width="106" height="16.7"/>
<path fill="none" stroke="#000000" stroke-width="3" stroke-miterlimit="10" d="M31.6,175.4v-40.7c0,0-0.7-8,9.3-8.7
	c10-0.7,150.7-1.3,150.7-1.3l0.7,38.7c0,0,0.7,10.7-8.7,11.3C174.3,175.4,31.6,175.4,31.6,175.4z"/>
<rect x="30.3" y="184.7" width="75.3" height="16.7"/>
<rect x="30.3" y="203.4" width="73.4" height="38.6"/>
<rect x="96.3" y="215.1" width="92.6" height="26.9"/>
<rect x="30.3" y="526.4" width="97" height="38.6"/>
<rect x="96.3" y="538.1" width="94.5" height="26.9"/>
<rect x="30.3" y="568.4" width="97" height="38.6"/>
<rect x="96.3" y="580.1" width="103.7" height="26.9"/>
<rect x="30.3" y="245.4" width="154.6" height="38.6"/>
<rect x="30.3" y="271.1" width="67.2" height="26.9"/>
<rect x="30.3" y="300.1" width="164.7" height="38.6"/>
<rect x="30.3" y="325.8" width="77" height="26.9"/>
<rect x="30.3" y="355.4" width="164.7" height="38.6"/>
<rect x="30.3" y="381.1" width="77" height="26.9"/>
<rect x="30.3" y="410.4" width="164.7" height="38.6"/>
<rect x="30.3" y="451.7" width="164.7" height="52.1"/>
<rect x="30.3" y="507.8" width="112" height="17.4"/>
<path d="M33.1,737.9V625.2c0,0-0.7-8,9.3-8.7c10-0.7,156.7-1.3,156.7-1.3l0.7,110.7c0,0,0.7,10.7-8.7,11.3
	C181.8,737.9,33.1,737.9,33.1,737.9z"/>
<path d="M210.6,712.4l0.5-49.2c0,0-0.7-8,9.3-8.7c10-0.7,303.7-1.8,303.7-1.8l0.2,47.2c0,0,0.7,10.7-8.7,11.3
	C506.3,711.9,210.6,712.4,210.6,712.4z"/>
<rect x="10.4" y="604.4" width="6.5" height="133.5"/>
<rect x="208.9" y="613.6" width="309.5" height="37"/>
<rect x="209.9" y="716.6" width="144.5" height="18.5"/>
<rect x="374.4" y="716.6" width="144.5" height="18.5"/>
</svg>
