<?xml version="1.0" encoding="utf-8"?>
<!-- Generator: Adobe Illustrator 18.1.1, SVG Export Plug-In . SVG Version: 6.00 Build 0)  -->
<!DOCTYPE svg PUBLIC "-//W3C//DTD SVG 1.1//EN" "http://www.w3.org/Graphics/SVG/1.1/DTD/svg11.dtd">
<svg version="1.1" xmlns="http://www.w3.org/2000/svg" xmlns:xlink="http://www.w3.org/1999/xlink" x="0px" y="0px"
	 viewBox="0 0 633.1 779" enable-background="new 0 0 633.1 779" xml:space="preserve">
<g id="Layer_2">
</g>
<g id="Layer_1">
	<g>
		<polygon points="23,134.2 24,134.2 24,49.2 297.7,49.2 297.7,15.1 429,15.1 429,14.1 297.7,14.1 297.7,14.5 23.5,14.5 4.5,-0.5 
			0,-0.5 0,30.5 23,48.7 		"/>
		<rect x="440" y="13.7" width="72.8" height="1"/>
		<polygon points="601.4,13.6 601.2,13.5 523.8,13.5 523.8,14.5 600.3,14.5 599,754.5 544,754.5 544,755.5 599,755.5 599,756 
			626.9,732.3 627,732.2 627,35.5 		"/>
		<rect x="550.3" y="748.1" width="45" height="5.6"/>
		<rect x="360.2" y="32" width="216.8" height="249.5"/>
		<polygon points="104.4,66 104.4,63.2 104.4,57.3 32,57.3 32,63.2 32,66 32,74.3 104.4,74.3 		"/>
		<polygon points="34.6,75.1 34.6,77.2 32.3,77.2 32.3,79.7 34.6,79.7 34.6,81.8 37.1,81.8 37.1,79.7 39.4,79.7 39.4,77.2 
			37.1,77.2 37.1,75.1 		"/>
		<rect x="32.9" y="90.5" width="11.6" height="1"/>
		<polygon points="32,106.2 32,109 32,117.3 67.7,117.3 67.7,109 106.9,109 106.9,100.3 32,100.3 		"/>
		<rect x="23.3" y="193.3" width="119.1" height="8.7"/>
		<rect x="23.3" y="226.8" width="6.7" height="8.7"/>
		<rect x="23.3" y="217.3" width="102.4" height="6.7"/>
		<polygon points="33.5,125.3 34.6,124.7 34.6,125.8 37.1,125.8 37.1,124.7 38.2,125.3 39.5,123.2 38.3,122.4 39.5,121.7 
			38.2,119.6 37.1,120.2 37.1,119.1 34.6,119.1 34.6,120.2 33.5,119.6 32.2,121.7 33.4,122.4 32.2,123.2 		"/>
		<rect x="32.9" y="133.5" width="11.6" height="1"/>
		<rect x="23.3" y="208.7" width="13" height="3.8"/>
		<rect x="23.3" y="305" width="56.6" height="8.7"/>
		<rect x="23.3" y="327.5" width="11.6" height="8.7"/>
		<rect x="59.3" y="383.9" width="11.6" height="8.7"/>
		<rect x="167.8" y="372.9" width="11.6" height="8.7"/>
		<rect x="275.6" y="406.9" width="11.6" height="8.7"/>
		<rect x="23.3" y="320.5" width="13" height="3.8"/>
		<polygon points="134.8,371.2 136.5,371.2 136.5,359.4 124.2,359.4 124.2,350.4 134.7,350.4 134.7,338.7 59.3,338.7 59.3,348.7 
			59.3,350.4 59.3,359.4 59.3,360.4 59.3,369.4 59.3,371.2 59.3,381.2 134.8,381.2 		"/>
		<rect x="59.3" y="327.8" width="102.4" height="9.1"/>
		<rect x="59.3" y="320.5" width="13" height="3.8"/>
		<polygon points="245,359.4 232.7,359.4 232.7,350.4 243.2,350.4 243.2,338.7 167.8,338.7 167.8,348.7 167.8,350.4 167.8,359.4 
			167.8,360.4 167.8,371.2 245,371.2 		"/>
		<rect x="167.8" y="327.8" width="102.4" height="9.1"/>
		<rect x="167.8" y="320.5" width="13" height="3.8"/>
		<polygon points="336.3,381.2 323.8,381.2 323.8,371.5 327.4,371.5 327.4,360.4 333.6,360.4 333.6,350.4 335.7,350.4 335.7,338.7 
			275.6,338.7 275.6,348.7 275.6,350.4 275.6,359.4 275.6,360.4 275.6,371.2 275.6,371.5 275.6,381.2 275.6,382.9 275.6,391.9 
			275.6,392.9 275.6,403.7 323.8,403.7 323.8,392.9 336.3,392.9 		"/>
		<rect x="275.6" y="327.8" width="58.5" height="9.1"/>
		<rect x="275.6" y="320.5" width="13" height="3.8"/>
		<rect x="384.6" y="405.9" width="27" height="8.7"/>
		<polygon points="384.6,348.7 384.6,350.4 384.6,359.4 384.6,360.4 384.6,371.2 384.6,371.5 384.6,381.2 384.6,382.9 384.6,391.9 
			384.6,392.9 384.6,403.7 440.8,403.7 440.8,391.9 438,391.9 438,381.2 435.9,381.2 435.9,371.5 438.2,371.5 438.2,359.4 
			422.9,359.4 422.9,350.4 427.2,350.4 427.2,338.7 384.6,338.7 		"/>
		<rect x="384.6" y="326.8" width="58" height="9.1"/>
		<rect x="384.6" y="319.5" width="13" height="3.8"/>
		<rect x="492" y="406.9" width="27" height="8.7"/>
		<polygon points="492,349.7 492,351.4 492,360.4 492,361.4 492,372.2 492,372.5 492,382.2 492,383.9 492,392.9 492,393.9 
			492,404.7 536.4,404.7 536.4,392.9 530.8,392.9 530.8,383.9 543.3,383.9 543.3,372.5 545.1,372.5 545.1,360.4 545,360.4 
			545,351.4 550.9,351.4 550.9,339.7 492,339.7 		"/>
		<rect x="492" y="327.8" width="66.4" height="9.1"/>
		<rect x="492" y="320.5" width="13" height="3.8"/>
		<rect x="275.5" y="193.3" width="53.4" height="8.7"/>
		<rect x="275.5" y="226.8" width="10.5" height="8.7"/>
		<rect x="275.5" y="217.3" width="53.8" height="6.7"/>
		<rect x="275.5" y="208.7" width="13" height="3.8"/>
		<polygon points="235.7,194.9 235.7,193.3 235.7,181.8 167.3,181.8 167.3,193.3 167.3,194.9 167.3,202 235.7,202 		"/>
		<rect x="167.3" y="270.8" width="10.4" height="8.7"/>
		<polygon points="167.3,226.5 167.3,228.6 167.3,237 167.3,238.3 167.3,246.7 167.3,248.8 167.3,257 167.3,258.6 167.3,268.8 
			218.1,268.8 218.1,258.6 246.9,258.6 246.9,248.8 252.3,248.8 252.3,237 250.2,237 250.2,226.5 240.5,226.5 240.5,216.7 
			167.3,216.7 		"/>
		<rect x="167.3" y="208.7" width="13" height="3.8"/>
		<polygon points="332,462 326.6,462 326.6,450.5 281.3,450.5 281.3,462 281.3,463.5 281.3,470.6 332,470.6 		"/>
		<rect x="281.5" y="551.5" width="27.5" height="8.7"/>
		<polygon points="281.3,495.1 281.3,497.2 281.3,505.6 281.3,507 281.3,515.4 281.3,517.5 281.3,525.4 281.3,525.6 281.3,527.2 
			281.3,535.6 281.3,537.2 281.3,537.5 281.3,547.5 328.6,547.5 328.6,537.2 350.2,537.2 350.2,525.4 345.4,525.4 345.4,515.4 
			339.3,515.4 339.3,507 344.2,507 344.2,497.2 351.5,497.2 351.5,485.4 281.3,485.4 		"/>
		<rect x="281.3" y="477.4" width="13" height="3.8"/>
		<polygon points="454,460.6 396.3,460.6 396.3,450.5 384.6,450.5 384.6,460.6 384.6,463.5 384.6,470.6 454,470.6 		"/>
		<rect x="384.6" y="540.5" width="11.7" height="8.7"/>
		<polygon points="442.6,507 452.6,507 452.6,497.2 454.8,497.2 454.8,485.4 384.6,485.4 384.6,495.1 384.6,497.2 384.6,505.6 
			384.6,507 384.6,515.4 384.6,517.5 384.6,525.4 384.6,527.2 384.6,537.2 444.2,537.2 444.2,527.2 455,527.2 455,515.4 
			442.6,515.4 		"/>
		<rect x="384.6" y="477.4" width="13" height="3.8"/>
		<rect x="493.3" y="459.7" width="60.6" height="10.9"/>
		<rect x="493.3" y="529.5" width="11.7" height="8.7"/>
		<polygon points="541.1,517.5 551.3,517.5 551.3,505.6 545.4,505.6 545.4,497.2 558.3,497.2 558.3,485.4 493.3,485.4 493.3,495.1 
			493.3,497.2 493.3,505.6 493.3,507 493.3,515.4 493.3,517.5 493.3,527.2 541.1,527.2 		"/>
		<rect x="493.3" y="477.4" width="13" height="3.8"/>
		<rect x="384" y="607.3" width="60.6" height="8.7"/>
		<rect x="384" y="674.8" width="11.7" height="8.7"/>
		<polygon points="384,640.5 384,642.6 384,651 384,652.3 384,660.7 384,662.8 384,672.6 442.5,672.6 442.5,662.8 448.1,662.8 
			448.1,651 444.9,651 444.9,642.6 449,642.6 449,630.7 384,630.7 		"/>
		<rect x="384" y="622.7" width="13" height="3.8"/>
		<rect x="40" y="607.3" width="93.6" height="8.7"/>
		<rect x="40" y="663.8" width="11.7" height="8.7"/>
		<polygon points="125.9,652.3 127.4,652.3 127.4,642.6 130.3,642.6 130.3,630.7 40,630.7 40,640.5 40,642.6 40,651 40,652.3 
			40,661.7 125.9,661.7 		"/>
		<rect x="40" y="622.7" width="32.9" height="3.8"/>
		<rect x="240" y="607.3" width="80" height="8.7"/>
		<polygon points="240,640.5 240,642.6 240,650.2 303.7,650.2 303.7,642.6 316.3,642.6 316.3,630.7 240,630.7 		"/>
		<rect x="240" y="652.6" width="12.4" height="9.2"/>
		<rect x="240" y="622.7" width="13" height="3.8"/>
		<polygon points="492.5,616 543.6,616 543.6,605.2 515.1,605.2 515.1,595.2 492.2,595.2 492.2,608.6 492.5,608.6 		"/>
		<rect x="492.5" y="640.8" width="11.7" height="8.7"/>
		<rect x="492.5" y="630.7" width="55.7" height="9.2"/>
		<rect x="492.5" y="622.7" width="13" height="3.8"/>
		<path d="M223,621.5c-1-12.5-7.5-16.5-7.5-16.5L187,587.5c0,0-6,3-20,10.5c-16.2,8.7-17,18-17,18s-3,12-2.5,33s8,25.5,8,25.5l11,17
			l6-0.2v38.6c-7.2,3.7-13.3,2.1-13.4,2c-30.2-4-66.3,3.4-66.6,3.5c-2.5,0.1-10.8,0.5-11.5,2.8c-0.2,0.7,0.2,1.4,1.2,2.1
			c1,0.7,1.6,1.4,1.5,1.8c-0.2,0.7-2.4,1.2-3.8,1.3l-47.5,6l0.1,1l47.5-6c0.7,0,4.2-0.4,4.6-2c0.2-0.9-0.4-1.8-1.9-2.9
			c-0.6-0.4-0.9-0.8-0.8-1c0.3-1.1,5.7-2,10.6-2.1c0.4-0.1,36.3-7.4,66.3-3.5c0.3,0.1,6.3,1.8,13.6-1.9v4.9H197v-45.3l8-0.2
			c23-23.5,18-32,18-32S224,634,223,621.5z"/>
		<rect x="200" y="708" width="11" height="9.5"/>
		<rect x="105.5" y="748" width="75.5" height="7"/>
		<rect x="19.3" y="432.6" width="256.2" height="127.3"/>
	</g>
</g>
</svg>
