<?xml version="1.0" encoding="utf-8"?>
<!-- Generator: Adobe Illustrator 18.0.0, SVG Export Plug-In . SVG Version: 6.00 Build 0)  -->
<?xml-stylesheet type="text/css" href="css/svg.css" ?>
<svg version="1.2" baseProfile="tiny" id="NYT_x5F_contents_x5F_1_xA0_Image_1_"
	 xmlns="http://www.w3.org/2000/svg" xmlns:xlink="http://www.w3.org/1999/xlink" x="0px" y="0px" viewBox="0 0 643.7 778.5"
	 xml:space="preserve">
<rect x="37.8" y="47.5" fill="#221F20" width="127.5" height="14"/>
<rect x="167.6" y="50.5" fill="#221F20" width="50.7" height="9.5"/>
<rect x="370.3" y="51.3" fill="#221F20" width="101.1" height="25.2"/>
<rect x="40.3" y="69.5" fill="#221F20" width="296" height="18.5"/>
<rect x="504.8" y="69.5" fill="#221F20" width="103.5" height="18.5"/>
<g>
	<path fill-rule="evenodd" fill="#221F20" d="M279,77c2.4,0,2.9,0.6,4.3,1.4c2.8-0.1,2.8-0.6,6-0.5c0.3-7.9,3.7-17.7,1.2-24
		c1.6-3.7-9-3.5-9.4-10.1c1-0.9,2.1-1.8,3.1-2.6c2.5-2.2,1.1-9,0.5-12.2c-3-2-6.3-3.2-11.3-2.6c-1.2,1.5-2.4,3-3.6,4.6
		c-1.8,4.7,1.7,13.2,3.6,15.6c-0.3,0.5-0.6,1-1,1.4h-7.2c-3.4,1.5-10,23.6-9.4,27.4c2,1.1,4.9,1.2,7.2,2.2c1.2,6.6-4.5,6.2-5.3,11
		c0.1,5.1,0.2,10.2,0.2,15.4c0.9,3.9,1.8,7.8,2.6,11.8c-0.9,2.9-2.8,5.4-3.6,9.4c-0.7,3.6-3,17-2.4,18.7c0.4,1,1.7,1.5,2.6,1.9
		c0.1,0.2,0.2,0.5,0.2,0.7c-1.8,3-3,5-2.9,10.3c3,3,9.2,6.4,16.3,4.8c1.8-0.4,2.7-1.3,5.3-1.4c-3.5-4-2.2-5.8-8.2-7.9
		c-0.4-0.9-0.4-1.3-0.2-2.6c-1.4-0.6-2.9-1.1-4.3-1.7c-0.2-0.5-0.3-1-0.5-1.4c1.4-0.8,4-1.1,4.8-2.6c0.6-2.5-1.8-4.5-1.2-7.7
		c0.7-3.4,0.6-8.9,1.4-13c0.9-4.3,2.9-6.1,2.9-11.5c1,0.1,1.9,0.2,2.9,0.2c1.9,3.2,0.2,7-0.5,10.1c0.2,2.9,0.3,5.8,0.5,8.6
		c-0.1,1.3-0.8,2.7-0.2,4.1c3.3,5.5,5.7-0.7,5.5,10.1c1.9,2,3.7,5.3,6.2,6.5c1.2,0.2,2.4,0.3,3.6,0.5c1.1-0.5,1.4-0.6,1.9-1.7
		c1.7-4.8-5.8-9.2-6.7-13c0.2-1.4,0.5-2.9,0.7-4.3c-0.5-1.4-1-2.9-1.4-4.3c-0.7-4.1,1-9,0-13.9c-0.6-3.1-0.1-8.3-1-12.5
		c-0.8-4.1-2.4-8.2-2.4-13.4c-0.5,0.5-0.3,0.1-0.5,1c-1-0.5-1.8-1.8-2.4-2.6c0.9-1.6,2-2.4,2.9-4.3c-0.2-0.7-0.5-1.4-0.7-2.2
		c-0.6-0.9-1.1-1-2.6-1v-0.2C277.6,78.4,278.3,77.7,279,77z M335,70.3c0.4,0.3,0.8,0.6,1.2,1v0.5h0.2v-1.4H335z"/>
</g>
<circle fill="#221F20" cx="130.3" cy="120.3" r="11"/>
<circle fill="#221F20" cx="324" cy="121.3" r="11"/>
<circle fill="#221F20" cx="517.3" cy="121.3" r="11"/>
<polygon fill="#221F20" points="204.4,159.5 184.1,159.5 184.1,148.5 191.2,148.5 191.2,135.2 72.2,135.2 72.2,148.5 77.9,148.5 
	77.9,159.5 57.6,159.5 57.6,172.8 69.8,172.8 69.8,184.8 191.6,184.8 191.6,172.8 204.4,172.8 "/>
<polygon fill="#221F20" points="358.4,148.5 358.4,136.5 291,136.5 291,148.5 273.6,148.5 273.6,161.8 375.8,161.8 375.8,148.5 "/>
<polygon fill="#221F20" points="561.9,137.5 473.4,137.5 473.4,150.8 486.6,150.8 486.6,162.2 548.7,162.2 548.7,150.8 561.9,150.8 
	"/>
<polygon fill="#221F20" points="557.5,164.8 477.5,164.8 477.5,175.5 485.5,175.5 485.5,183.5 549.5,183.5 549.5,175.5 557.5,175.5 
	"/>
<polygon fill="#221F20" points="361,172.8 361,164.8 286,164.8 286,172.8 284.9,172.8 284.9,183.5 362.1,183.5 362.1,172.8 "/>
<polygon fill="#221F20" points="184.5,187.5 77.2,187.5 77.2,198.2 92.9,198.2 92.9,206.8 170.1,206.8 170.1,198.2 184.5,198.2 "/>
<rect x="226.5" y="105.5" fill="#221F20" width="1.3" height="149.3"/>
<rect x="419.8" y="105.5" fill="#221F20" width="1.3" height="149.3"/>
<g>
	<path fill="#221F20" d="M493.7,88.7H347.3V39h146.3V88.7z M348.3,87.7h144.3V40H348.3V87.7z"/>
</g>
<polygon fill="#221F20" points="214.5,219.8 214.5,210.2 47.8,210.2 47.8,219.8 38.6,219.8 38.6,232.2 223.7,232.2 223.7,219.8 "/>
<polygon fill="#221F20" points="386.2,196.5 386.2,187.2 263.5,187.2 263.5,196.5 249.9,196.5 249.9,208.5 249.9,208.9 249.9,220.9 
	275.5,220.9 275.5,232.2 374.2,232.2 374.2,220.9 399.8,220.9 399.8,208.9 399.8,208.5 399.8,196.5 "/>
<polygon fill="#221F20" points="596.4,208.9 596.4,196.5 587,196.5 587,187.2 448,187.2 448,196.5 438.6,196.5 438.6,208.9 
	462.4,208.9 462.4,219.8 444.8,219.8 444.8,232.2 590.2,232.2 590.2,219.8 572.6,219.8 572.6,208.9 "/>
<polygon fill="#221F20" points="170.8,243.5 170.8,235.5 90.8,235.5 90.8,243.5 81.1,243.5 81.1,251 179.6,251 179.6,243.5 "/>
<polygon fill="#221F20" points="362.5,235.5 288.1,235.5 288.1,244.3 290.3,244.3 290.3,251 357.3,251 357.3,244.3 362.5,244.3 "/>
<polygon fill="#221F20" points="547.3,243.5 547.3,235.5 486.7,235.5 486.7,243.5 478.9,243.5 478.9,251 555.8,251 555.8,243.5 "/>
<rect x="38.8" y="266.5" width="571" height="363"/>
<rect x="38.8" y="645.5" fill="#221F20" width="69" height="19"/>
<rect x="339.8" y="690.5" fill="#221F20" width="69" height="19"/>
<polygon fill="#221F20" points="585.8,646.5 339.8,646.5 339.8,656 339.8,666.5 339.8,676 461,676 461,666.5 585.8,666.5 "/>
<g>
	<line fill="#221F20" x1="325.8" y1="649" x2="325.8" y2="732"/>
	<rect x="325.3" y="649" fill="#221F20" width="1" height="83"/>
</g>
<g>
	<line fill="#221F20" x1="340.8" y1="681.5" x2="608.3" y2="681.5"/>
	<rect x="340.8" y="681" fill="#221F20" width="267.5" height="1"/>
</g>
<polygon fill="#221F20" points="122.1,696 102.3,696 102.3,689 108.4,689 108.4,680.5 64.8,680.5 64.8,673.5 38.8,673.5 38.8,680.5 
	38.8,681 38.8,687.5 38.8,688 38.8,696 38.8,697 38.8,704.8 38.8,707.5 38.8,716.2 77.8,716.2 77.8,707.5 122.1,707.5 "/>
<polygon fill="#221F20" points="137.1,703.8 137.1,696 137.1,695 137.1,687 137.1,686.5 137.1,680 137.1,679.5 137.1,672.5 
	193.1,672.5 193.1,679.5 207.6,679.5 207.6,689 200.5,689 200.5,697 210.3,697 210.3,707.5 137.1,707.5 "/>
<polygon fill="#221F20" points="306.6,707 306.6,697 288.8,697 288.8,689 298.9,689 298.9,679.5 288.3,679.5 288.3,672.5 
	225.3,672.5 225.3,679.5 225.3,680 225.3,686.5 225.3,687 225.3,690.5 225.3,695 225.3,696 225.3,697.5 225.3,698 225.3,703.8 
	225.3,704.5 225.3,705 225.3,707.5 225.3,713 225.3,714 225.3,721.8 225.3,725.5 298.6,725.5 298.6,717 308.8,717 308.8,707 "/>
<polygon fill="#221F20" points="433.2,724.5 433.2,715.5 339.8,715.5 339.8,724.5 339.8,725.5 339.8,734.5 580.9,734.5 580.9,724.5 
	"/>
<rect x="290.8" y="754.5" fill="#221F20" width="66" height="10.5"/>
<rect x="39.3" y="756" fill="#221F20" width="6.5" height="7"/>
</svg>
