<?xml version="1.0" encoding="utf-8"?>
<!-- Generator: Adobe Illustrator 18.0.0, SVG Export Plug-In . SVG Version: 6.00 Build 0)  -->
<!DOCTYPE svg PUBLIC "-//W3C//DTD SVG 1.0//EN" "http://www.w3.org/TR/2001/REC-SVG-20010904/DTD/svg10.dtd">
<?xml-stylesheet type="text/css" href="css/svg.css" ?>

<svg version="1.0" id="NYT_x5F_contents_x5F_2_xA0_Image_1_"
	 xmlns="http://www.w3.org/2000/svg" xmlns:xlink="http://www.w3.org/1999/xlink" x="0px" y="0px" viewBox="0 0 643.7 778.5"
	 enable-background="new 0 0 643.7 778.5" xml:space="preserve">
<g>
	<circle cx="54.3" cy="295.3" r="11"/>
	<path fill="#221F20" d="M54.3,306.8c-6.3,0-11.5-5.2-11.5-11.5s5.2-11.5,11.5-11.5s11.5,5.2,11.5,11.5S60.7,306.8,54.3,306.8z
		 M54.3,284.8c-5.8,0-10.5,4.7-10.5,10.5s4.7,10.5,10.5,10.5s10.5-4.7,10.5-10.5S60.1,284.8,54.3,284.8z"/>
</g>
<g>
	<circle cx="247.3" cy="306.8" r="11"/>
	<path fill="#221F20" d="M247.3,318.3c-6.3,0-11.5-5.2-11.5-11.5s5.2-11.5,11.5-11.5s11.5,5.2,11.5,11.5S253.7,318.3,247.3,318.3z
		 M247.3,296.3c-5.8,0-10.5,4.7-10.5,10.5s4.7,10.5,10.5,10.5s10.5-4.7,10.5-10.5S253.1,296.3,247.3,296.3z"/>
</g>
<g>
	<circle cx="343.3" cy="206.8" r="11"/>
	<path fill="#221F20" d="M343.3,218.3c-6.3,0-11.5-5.2-11.5-11.5s5.2-11.5,11.5-11.5s11.5,5.2,11.5,11.5S349.7,218.3,343.3,218.3z
		 M343.3,196.3c-5.8,0-10.5,4.7-10.5,10.5s4.7,10.5,10.5,10.5s10.5-4.7,10.5-10.5S349.1,196.3,343.3,196.3z"/>
</g>
<g>
	<circle cx="440.3" cy="363.8" r="11"/>
	<path fill="#221F20" d="M440.3,375.3c-6.3,0-11.5-5.2-11.5-11.5s5.2-11.5,11.5-11.5s11.5,5.2,11.5,11.5S446.7,375.3,440.3,375.3z
		 M440.3,353.3c-5.8,0-10.5,4.7-10.5,10.5s4.7,10.5,10.5,10.5s10.5-4.7,10.5-10.5S446.1,353.3,440.3,353.3z"/>
</g>
<g>
	<circle cx="537.3" cy="442.8" r="11"/>
	<path fill="#221F20" d="M537.3,454.3c-6.3,0-11.5-5.2-11.5-11.5s5.2-11.5,11.5-11.5s11.5,5.2,11.5,11.5S543.7,454.3,537.3,454.3z
		 M537.3,432.3c-5.8,0-10.5,4.7-10.5,10.5s4.7,10.5,10.5,10.5s10.5-4.7,10.5-10.5S543.1,432.3,537.3,432.3z"/>
</g>
<g>
	<circle cx="536.8" cy="486.8" r="11"/>
	<path fill="#221F20" d="M536.8,498.3c-6.3,0-11.5-5.2-11.5-11.5s5.2-11.5,11.5-11.5s11.5,5.2,11.5,11.5S543.2,498.3,536.8,498.3z
		 M536.8,476.3c-5.8,0-10.5,4.7-10.5,10.5s4.7,10.5,10.5,10.5s10.5-4.7,10.5-10.5S542.6,476.3,536.8,476.3z"/>
</g>
<g>
	<circle cx="536.8" cy="543.3" r="11"/>
	<path fill="#221F20" d="M536.8,554.8c-6.3,0-11.5-5.2-11.5-11.5s5.2-11.5,11.5-11.5s11.5,5.2,11.5,11.5S543.2,554.8,536.8,554.8z
		 M536.8,532.8c-5.8,0-10.5,4.7-10.5,10.5s4.7,10.5,10.5,10.5s10.5-4.7,10.5-10.5S542.6,532.8,536.8,532.8z"/>
</g>
<g>
	<circle cx="246.8" cy="475.8" r="11"/>
	<path fill="#221F20" d="M246.8,487.3c-6.3,0-11.5-5.2-11.5-11.5s5.2-11.5,11.5-11.5s11.5,5.2,11.5,11.5S253.2,487.3,246.8,487.3z
		 M246.8,465.3c-5.8,0-10.5,4.7-10.5,10.5s4.7,10.5,10.5,10.5s10.5-4.7,10.5-10.5S252.6,465.3,246.8,465.3z"/>
</g>
<g>
	<circle cx="150.8" cy="441.3" r="11"/>
	<path fill="#221F20" d="M150.8,452.8c-6.3,0-11.5-5.2-11.5-11.5s5.2-11.5,11.5-11.5s11.5,5.2,11.5,11.5S157.2,452.8,150.8,452.8z
		 M150.8,430.8c-5.8,0-10.5,4.7-10.5,10.5s4.7,10.5,10.5,10.5s10.5-4.7,10.5-10.5S156.6,430.8,150.8,430.8z"/>
</g>
<g>
	<circle cx="559.3" cy="486.8" r="11"/>
	<path fill="#221F20" d="M559.3,498.3c-6.3,0-11.5-5.2-11.5-11.5s5.2-11.5,11.5-11.5s11.5,5.2,11.5,11.5S565.7,498.3,559.3,498.3z
		 M559.3,476.3c-5.8,0-10.5,4.7-10.5,10.5s4.7,10.5,10.5,10.5s10.5-4.7,10.5-10.5S565.1,476.3,559.3,476.3z"/>
</g>
<g>
	<rect x="42.8" y="51.8" width="376" height="19"/>
	<path fill="#221F20" d="M419.3,71.2h-377v-20h377V71.2z M43.3,70.2h375v-18h-375V70.2z"/>
</g>
<g>
	<rect x="429.3" y="51.8" width="183" height="19"/>
	<path fill="#221F20" d="M612.9,71.2h-184v-20h184V71.2z M429.8,70.2h182v-18h-182V70.2z"/>
</g>
<g>
	<line x1="423.8" y1="53.2" x2="423.8" y2="642.6"/>
	<rect x="423.3" y="53.2" fill="#221F20" width="1" height="589.3"/>
</g>
<g>
	<line x1="520.5" y1="183.2" x2="520.5" y2="642.6"/>
	<rect x="520" y="183.2" fill="#221F20" width="1" height="459.3"/>
</g>
<g>
	<line x1="231.2" y1="181.9" x2="231.2" y2="642.6"/>
	<rect x="230.7" y="181.9" fill="#221F20" width="1" height="460.7"/>
</g>
<g>
	<line x1="327.8" y1="181.9" x2="327.8" y2="453.2"/>
	<rect x="327.3" y="181.9" fill="#221F20" width="1" height="271.3"/>
</g>
<g>
	<line x1="133.8" y1="182.6" x2="133.8" y2="642.6"/>
	<rect x="133.3" y="182.6" fill="#221F20" width="1" height="460"/>
</g>
<g>
	<g>
		<path fill-rule="evenodd" clip-rule="evenodd" d="M221.7,226c-0.7-2.9-0.5-6-2.2-7.9c-5.1-6.1-14.1-6-22.3-9.1
			c-1.6-1.4-3.2-2.7-4.8-4.1c0-2.5-0.4-7,0-8.6c0.3-1.5,1.4-2.4,1.4-4.8c-3.6-0.5-3.4-9.9-8.2-11.8c-11.5-4.5-23.9,3.8-18.2,16.8
			v1.7c-1-0.3-1.9-0.6-2.9-1c0.2,4.2,2.9,8.6,6,10.1c0.2,0.9,0.3,1.8,0.5,2.6c-5.7,2.9-18.3,4.2-21.1,9.4
			c-2.6,4.7-1.9,10.7-3.1,16.8c-1.1,3.5-2.2,7-3.4,10.6c-0.1,1.8-0.2,3.7-0.2,5.5c-1.5,3.7-6.1,7-3.8,12.2
			c2.8,6.5,10.5,8.5,16.8,11.5c0.8,4.6-0.9,9.6-1.7,13.9c-0.8,4.3,1.5,10.3,0.5,15.4c-0.9,4.6-1.7,13.9-0.5,19.2
			c0.5,2.3,2.7,3,3.4,4.8v10.3c0.5,3.4,1,6.9,1.4,10.3v14.4c2.8,14.5,3.2,32.7,5.5,46.8c0.7,0.2,1.4,0.3,2.2,0.5
			c0.2,0.5,0.5,1,0.7,1.4c0,0.1-0.1,0.1-0.1,0.2c0,0.1,0,0.2,0,0.4c-0.5,0-1.3,0.8-1.8,0.8c0.1,1.8-4.2,2.5-5,4.2
			c-2.6,0.4-2.9,3.4-5.4,3.8c-0.6,1.1-1.1,2.2-1.7,3.4c3.3,3.7,14.1,2.7,18,0.2c1.9-1.5,3.8-3,5.8-4.6h4.3c1.6-0.6,3.2-1.1,4.8-1.7
			c0,0,0.1-14.7,0-15.1c-0.5-1.5-2.5-3-1.9-5.5c1.9-8.2,1.4-22.8-0.5-31.7c-0.5-2.6,0.6-4.6,1-6c0.7-2.8,0.2-12-0.5-13.9v-4.3
			c1.8,0.9,0.5,2.3,1.4,4.1c0.6,1.1,2.4,1.1,2.9,2.6c0.1,4.2,0.2,8.3,0.2,12.5c3.9,17.2-2.2,43.1,2.2,58.1
			c1.9,6.6-4.3,17.7,0.2,20.9c3.3,3,12.2-0.4,13.4-2.4c3.6-3.2-1.6-13.6-0.2-18c1.3-1.4,2.6-2.9,3.8-4.3c0.2-3.4,0.3-6.7,0.5-10.1
			c2.3-8.2,2.5-20.1,2.9-30v-15.6c1.4-7.3,0.6-16.4,1.9-23.5v-12c0.6-0.6,1.1-1.3,1.7-1.9c1.1-2.3,0.8-7.5,1.2-9.6
			c-0.2-6.9-0.3-13.8-0.5-20.6c0.5-0.6,1-1.3,1.4-1.9c0.4-2.4-2.3-5.3-2.9-7.2c-0.2-2.6-0.3-5.1-0.5-7.7c4-3.9,10.7-4,13.2-9.6
			c-0.1-4.5-0.2-9-0.2-13.4C225.6,243.9,223.7,234.5,221.7,226z M167.6,413.1C167.5,411.7,167,414,167.6,413.1L167.6,413.1z
			 M395.4,526.9c0.3-1,1.9-1.5,1.4-3.4c-1.8-7.4-1.4-18.5-1.4-28.1V375.3c-1.2-1.3-2.5-2.7-4.3-3.4c-6.8-2.5-32.2-3-35.8,2.2
			c-2,2.3-0.7,11.5-0.7,15.4v33.4c-0.8,3.7-1.2,10.6,0.5,13.7v66.2c0,6.5-1.8,20.1,1.7,23.5c-0.2,0.6-0.3,1.3-0.5,1.9
			c-2.5,1.5-8.9,0.8-12.7,0.7v3.8c-14.3,0-26.9-0.8-40.8,1.7c-0.8,1.1-1.4,1.6-1.4,3.6c-3.1-0.2-6-0.2-9.1,0c-3,4.3,0,10.2,0,15.4
			c0.1,12.9-0.2,26.8-0.5,38.9c-1.9,0.2-3.8,0.3-5.8,0.5v6.7c-3.4,0-6,0.5-8.4,1.7c-2.5,2.2,0.2,10.9-0.7,14.6
			c-1.4,5.5-5.5,11.1-5.8,17.3c0.1,0.2,0.2,0.3,0.2,0.5c0.6,0.3,1.3,0.6,1.9,1c3.5-3,3.9-15.2,6.7-19.4c1.1-1.6,3.5-4.6,4.1-6.5
			c-0.8-0.7-2-2.1-2.4-3.1c0.9-1.6,1.9-2.4,3.6-3.1h0.7v36.5h-2.4c0,3,0.9,3.7,1.4,5.3c1.3,4-0.9,7.3-1,11c4.6-0.1,9.3-0.2,13.9-0.2
			c1.7-2.8-0.9-16.2-1-21.8c4.2-0.1,7.3-2.2,10.3-3.6c4.9-1.8,9.8-3.5,14.6-5.3c6.6-2.8,12.3-7.1,21.6-7c0,3.4-0.4,6.5-1,8.6
			c0.3,2.2,0.6,4.5,1,6.7h12c0.1,7.4,0.2,14.7,0.2,22.1c3.7,2.3,32.4,1,39.6,1v-22.8c0.1-2.7,2.4-3.4,1.4-6.5
			c-0.5-0.6-1-1.1-1.4-1.7v-63.4c0-4.7-1.2-19.1,1.7-20.4c0.1-1,0.2-1.9,0.2-2.9C395.8,536.3,394.2,531,395.4,526.9z M343.3,598.7
			c-4.7,0.9-11.6-0.8-15.8-0.2c-6.3,2.3-12.6,4.6-19,7c-1.3,0.6-9.9,3.4-10.8,2.9c-1.9-1.2,0.1-11.9-0.7-14.9
			c-3.4-13.1-1.6-35.7-1.4-51.1c1.6-0.2,3.2-0.3,4.8-0.5c0.8,1.2,1.6,2.4,2.4,3.6c2.7,1.4,9.1,0.2,13,0.2c9.7,0,18.1,0.1,27.6,0
			c-0.1,14.3-0.2,28.6-0.2,43c-3.1,0.7-9.6,2.6-14.2,1.2c-3.1-0.9-5.1-4.5-8.6-2.4v0.7c2.1,2.7,7.3,4.9,10.3,6.5
			c1.5-0.3,1.6-1.1,2.6-1.4c2.5-0.7,6.7,0.9,10.1,1c0.1,1.3,0.2,2.6,0.2,3.8C343.5,598.2,343.4,598.5,343.3,598.7z M520,473.7
			c-0.8-1.2-0.8-0.3-2.2-1c-1.2-0.6-9.5-9.2-9.8-10.6c-1.7-0.3-2.9,1.1-4.6,1.7c-13.5,4.5-9.3,7-15.8,17c-4.2-1.2-5.4-6-8.6-7.9
			c-1.9-1.1-4.7-1.6-6.5-2.6c-0.9,0.7-1.1,1.2-2.6,1.4c-0.2-3.2-5.7-5.1-9.1-3.8c-3.4,1.3-9.3,7.5-9.8,11.5c-4.3-0.2-9-8-11.8-10.3
			c-3-2.6-10.1-2.7-15.8-2.6v43.7c2.9,1.9,5.3-0.6,7.4-2.2c0.8,0.3,1.6,0.6,2.4,1c2.8-2,5.9-1.6,9.4-3.4c3.3-1.6,3.6-6.2,6-7.7
			c0.7-0.6,1.5-0.5,2.2,0.2c3,1.1,3.6,7.6,5.3,10.3c5,1,9.2,1.5,13.9-0.5c1-0.7,1.9-1.4,2.9-2.2c3.4-0.9,6.7-1.8,10.1-2.6
			c0.5-0.6,1-1.1,1.4-1.7c0.6,0.1,1.3,0.2,1.9,0.2c1.7-0.7,2.2-4,4.1-5c2.2,1.4,4.3,3.4,6.7,4.8c0.1,0.6,0.2,1.3,0.2,1.9
			c2.2-0.1,4.5-0.2,6.7-0.2c0.8,0.8,1.6,1.6,2.4,2.4c2.9,1.8,8.7,0.6,9.1-2.2c1.6,0.2,3.2,0.3,4.8,0.5
			C520.1,493.8,520.1,483.7,520,473.7z"/>
	</g>
</g>
<g>
	<rect x="527.8" y="400.2" width="84" height="19"/>
</g>
<g>
	<rect x="428.8" y="190.2" width="87" height="151"/>
</g>
<g>
	<rect x="527.8" y="191.2" width="84" height="203"/>
</g>
<g>
	<rect x="41.2" y="28.6" width="128" height="16"/>
</g>
<g>
	<rect x="171.2" y="31.2" width="52" height="12"/>
</g>
<g>
	<rect x="41.8" y="74.6" width="64.7" height="12"/>
</g>
<g>
	<rect x="429.3" y="74.6" width="58.6" height="12"/>
</g>
<g>
	<rect x="41.2" y="753.9" width="11.3" height="11.3"/>
</g>
<g>
	<rect x="58.5" y="753.9" width="124.9" height="11.3"/>
</g>
<g>
	<g>
		<path d="M611.3,732.8h-569v-79h569V732.8z M43.3,731.8h567v-77h-567V731.8z"/>
	</g>
</g>
<g>
	<line x1="194.3" y1="672.2" x2="194.3" y2="715.2"/>
	<rect x="193.8" y="672.2" width="1" height="43"/>
</g>
<g>
	<polygon points="172.5,673.9 67.8,673.9 67.8,693.9 77.9,693.9 77.9,711.9 162.4,711.9 162.4,693.9 172.5,693.9 	"/>
</g>
<g>
	<polygon points="579.8,685.9 579.8,673.9 224.5,673.9 224.5,685.9 265.4,685.9 265.4,692.6 235.5,692.6 235.5,704.6 342.1,704.6 
		342.1,713.9 462.2,713.9 462.2,704.6 568.8,704.6 568.8,692.6 538.9,692.6 538.9,685.9 	"/>
	<path d="M462.7,714.4H341.6v-9.3H235v-13h29.9v-5.7H224v-13h356.3v13h-40.9v5.7h29.9v13H462.7V714.4z M342.6,713.4h119.2v-9.3
		h106.6v-11h-29.9v-7.7h40.9v-11H225v11h40.9v7.7H236v11h106.6V713.4z"/>
</g>
<g>
	<rect x="523.2" y="455.6" width="84" height="12"/>
	<path d="M607.7,468.1h-85v-13h85V468.1z M523.7,467.1h83v-11h-83V467.1z"/>
</g>
<g>
	<polygon points="607.2,500.2 523.2,500.2 523.2,510.6 523.2,512.2 523.2,521.2 585.2,521.2 585.2,512.2 607.2,512.2 	"/>
	<path d="M585.7,521.8h-63v-22h85v13h-22V521.8z M523.7,520.8h61v-9h22v-11h-83V520.8z"/>
</g>
<g>
	<g>
		<polygon points="585.2,577.9 607.2,577.9 607.2,565.9 544.5,565.9 544.5,557.9 523.2,557.9 523.2,565.9 523.2,566.6 523.2,577.9 
			523.2,588.6 585.2,588.6 		"/>
		<path d="M585.7,589.1h-63v-31.7H545v8h62.7v13h-22V589.1z M523.7,588.1h61v-10.7h22v-11H544v-8h-20.3V588.1z"/>
	</g>
	<g>
		<polygon points="598.8,623.9 598.8,612.6 603.3,612.6 603.3,600.6 586.1,600.6 586.1,590.6 523.2,590.6 523.2,600.6 523.2,602.6 
			523.2,612.6 523.2,623.9 523.2,624.6 523.2,635.9 607.3,635.9 607.3,623.9 		"/>
		<path d="M607.8,636.4h-85.1v-46.3h64v10h17.1v13h-4.4v10.3h8.5V636.4z M523.7,635.4h83.1v-11h-8.5v-12.3h4.4v-11h-17.1v-10h-62
			V635.4z"/>
	</g>
</g>
<g>
	<polygon points="478.8,430.6 478.8,420.6 490.2,420.6 490.2,409.9 497.2,409.9 497.2,397.9 485.2,397.9 485.2,386.9 447.8,386.9 
		447.8,378.9 426.5,378.9 426.5,386.9 426.5,387.6 426.5,397.9 426.5,398.9 426.5,408.6 426.5,409.9 426.5,419.9 426.5,420.6 
		426.5,430.6 426.5,439.2 426.5,441.2 426.5,449.9 491.5,449.9 491.5,439.2 476,439.2 476,430.6 	"/>
	<path d="M492,450.4h-66v-72h22.3v8h37.3v11h12v13h-7v10.7h-11.3v10h-2.8v7.7H492V450.4z M427,449.4h64v-9.7h-15.5v-9.7h2.8v-10
		h11.3v-10.7h7v-11h-12v-11h-37.3v-8H427V449.4z"/>
</g>
<g>
	<g>
		<polygon points="193.8,508.1 179.1,508.1 179.1,498.1 204.3,498.1 204.3,486.1 188.2,486.1 188.2,476.4 198.6,476.4 198.6,464.4 
			158.3,464.4 158.3,456.4 137,456.4 137,464.4 137,465.1 137,475.4 137,476.4 137,486.1 137,487.4 137,497.4 137,498.1 137,508.1 
			137,518.8 193.8,518.8 		"/>
		<path d="M194.3,519.2h-57.8v-63.3h22.3v8h40.3v13h-10.4v8.7h16v13h-25.2v9h14.7V519.2z M137.5,518.2h55.8v-9.7h-14.7v-11h25.2v-11
			h-16v-10.7h10.4v-11h-40.3v-8h-20.3V518.2z"/>
	</g>
	<g>
		<polygon points="217.7,534.5 217.7,522.8 137,522.8 137,532.5 137,534.5 137,544.8 137,545.4 137,554.5 137,556.5 137,567.4 
			202,567.4 202,556.5 217.7,556.5 217.7,544.8 202,544.8 202,534.5 		"/>
		<path d="M202.5,567.9h-66v-45.7h81.7V535h-15.8v9.3h15.8V557h-15.8V567.9z M137.5,566.9h64v-11h15.8v-10.7h-15.8V534h15.8v-10.7
			h-79.7V566.9z"/>
	</g>
</g>
<g>
	<g>
		<circle cx="440.3" cy="531.8" r="11"/>
		<path d="M440.3,543.3c-6.3,0-11.5-5.2-11.5-11.5s5.2-11.5,11.5-11.5s11.5,5.2,11.5,11.5S446.7,543.3,440.3,543.3z M440.3,521.3
			c-5.8,0-10.5,4.7-10.5,10.5s4.7,10.5,10.5,10.5s10.5-4.7,10.5-10.5S446.1,521.3,440.3,521.3z"/>
	</g>
	<g>
		<polygon points="483.6,577.9 490.6,577.9 490.6,566.9 495.5,566.9 495.5,554.9 443.1,554.9 443.1,546.9 426.5,546.9 426.5,554.9 
			426.5,555.6 426.5,565.9 426.5,566.9 426.5,577.9 426.5,588.6 483.6,588.6 		"/>
		<path d="M484.1,589.1H426v-42.7h17.6v8H496v13h-4.9v11h-7V589.1z M427,588.1h56.1v-10.7h7v-11h4.9v-11h-52.4v-8H427V588.1z"/>
	</g>
	<g>
		<polygon points="497.8,623.9 497.8,612.6 498.6,612.6 498.6,600.6 491.8,600.6 491.8,590.6 426.5,590.6 426.5,600.6 426.5,602.6 
			426.5,612.6 426.5,623.9 426.5,624.6 426.5,633.9 426.5,635.9 426.5,645.9 501.8,645.9 501.8,635.9 501.8,633.9 501.8,623.9 		"/>
		<path d="M502.3,646.4H426v-56.3h66.3v10h6.8v13h-0.8v10.3h4V646.4z M427,645.4h74.3v-21h-4v-12.3h0.8v-11h-6.8v-10H427V645.4z"/>
	</g>
</g>
<g>
	<g>
		<polygon points="314.7,498.9 272.5,498.9 272.5,490.9 235.2,490.9 235.2,498.9 235.2,499.6 235.2,509.9 235.2,510.9 235.2,521.9 
			235.2,532.6 292.3,532.6 292.3,521.9 317.3,521.9 317.3,509.9 314.7,509.9 		"/>
		<path d="M292.8,533.1h-58.1v-42.7H273v8h42.2v11h2.6v13h-25V533.1z M235.7,532.1h56.1v-10.7h25v-11h-2.6v-11H272v-8h-36.3V532.1z"
			/>
	</g>
	<g>
		<polygon points="295.8,352.9 278.6,352.9 278.6,341.9 293.8,341.9 293.8,329.9 291.3,329.9 291.3,321.9 235.2,321.9 235.2,329.9 
			235.2,330.6 235.2,340.9 235.2,341.9 235.2,352.9 235.2,363.6 295.8,363.6 		"/>
		<path d="M296.3,364.1h-61.6v-42.7h57.1v8h2.5v13h-15.1v10h17.1V364.1z M235.7,363.1h59.6v-9.7h-17.1v-12h15.1v-11h-2.5v-8h-55.1
			V363.1z"/>
	</g>
	<g>
		<polygon points="283,432.4 311.3,432.4 311.3,420.9 322.3,420.9 322.3,408.9 296.6,408.9 296.6,399.6 304.6,399.6 304.6,387.6 
			310.5,387.6 310.5,375.6 293.9,375.6 293.9,365.6 235.2,365.6 235.2,375.6 235.2,377.6 235.2,387.6 235.2,398.9 235.2,399.6 
			235.2,408.9 235.2,410.9 235.2,420.4 235.2,420.9 235.2,430.4 235.2,432.4 235.2,442.4 283,442.4 		"/>
		<path d="M283.5,442.9h-48.9v-77.8h59.7v10H311v13h-5.9v12h-8v8.3h25.7v13h-11v11.5h-28.3V442.9z M235.7,441.9h46.9v-10h28.3v-11.5
			h11v-11h-25.7v-10.3h8v-12h5.9v-11h-16.6v-10h-57.7V441.9z"/>
	</g>
</g>
<g>
	<polygon points="105.6,340.9 105.6,329.9 112.3,329.9 112.3,318.6 123.1,318.6 123.1,309.9 41.5,309.9 41.5,317.9 41.5,318.6 
		41.5,328.9 41.5,329.9 41.5,340.9 41.5,352.6 41.5,353.6 41.5,363.6 41.5,364.6 41.5,376.8 107,376.8 107,364.6 121.2,364.6 
		121.2,352.6 98.6,352.6 98.6,340.9 	"/>
	<path d="M107.5,377.3H41v-67.9h82.5v9.7h-10.7v11.3h-6.7v11h-7v10.7h22.6v13h-14.2V377.3z M42,376.3h64.5v-12.2h14.2v-11H98.1
		v-12.7h7v-11h6.7v-11.3h10.7v-7.7H42V376.3z"/>
</g>
<g>
	<polygon points="399.5,264.1 399.5,252.4 362.2,252.4 362.2,241.4 395.7,241.4 395.7,229.4 373.2,229.4 373.2,221.4 332.5,221.4 
		332.5,229.4 332.5,230.1 332.5,240.4 332.5,241.4 332.5,252.4 332.5,264.1 332.5,265.1 332.5,276.1 412.2,276.1 412.2,264.1 	"/>
	<path d="M412.7,276.6H332v-55.7h41.7v8h22.5v13h-33.5v10H400v11.7h12.7V276.6z M333,275.6h78.7v-11H399v-11.7h-37.3v-12h33.5v-11
		h-22.5v-8H333V275.6z"/>
</g>
<g>
	<polygon points="321.3,164 321.3,155.2 38.3,155.2 38.3,174.2 320.5,174.2 321.3,174.2 345.8,174.2 345.8,164 	"/>
	<path d="M346.3,174.8H37.8v-20h284v8.8h24.4V174.8z M38.8,173.8h306.4v-9.2h-24.4v-8.8h-282V173.8z"/>
</g>
<g>
	<polygon points="608.8,164 585,164 585,158.8 593.9,158.8 593.9,139.8 587.1,139.8 587.1,123.2 426.3,123.2 426.3,139.8 
		426.3,142.2 426.3,155.8 426.3,158.8 426.3,174.8 585,174.8 585,174.2 608.8,174.2 	"/>
	<path d="M585.5,175.2H425.8v-52.5h161.7v16.5h6.8v20h-8.8v4.3h23.8v11.2h-23.8V175.2z M426.8,174.2h157.7v-0.5h23.8v-9.2h-23.8
		v-6.3h8.8v-18h-6.8v-16.5H426.8V174.2z"/>
</g>
<g>
	<rect x="42.8" y="190.2" width="86" height="86"/>
	<path d="M129.3,276.8h-87v-87h87V276.8z M43.3,275.8h85v-85h-85V275.8z"/>
</g>
<g>
	<rect x="235.8" y="190.2" width="86" height="97.8"/>
	<path d="M322.3,288.5h-87v-98.8h87V288.5z M236.3,287.5h85v-96.8h-85V287.5z"/>
</g>
</svg>
