<?xml version="1.0" encoding="utf-8"?>
<!-- Generator: Adobe Illustrator 18.0.0, SVG Export Plug-In . SVG Version: 6.00 Build 0)  -->
<?xml-stylesheet type="text/css" href="css/svg.css" ?>
<svg version="1.2" baseProfile="tiny" id="scan_1_xA0_Image_1_"
	 xmlns="http://www.w3.org/2000/svg" xmlns:xlink="http://www.w3.org/1999/xlink" x="0px" y="0px" viewBox="0 0 626.6 791.8"
	 xml:space="preserve">
<g>
	<path d="M230.1,102.2l0,0.2l1.4,12.2c-0.1,0.7-0.3,1.4-0.4,2.1c-0.8,4.1-1.9,9.3,1.7,12.1c1.4,1.1,3.8,1.6,7.9,1.6c0,0,0,0,0,0
		c1.8,0,3.7-0.1,5.4-0.2c1.1-0.1,2.2-0.1,3.1-0.1l0.4,0l-0.7,2.4l0,0.2c-0.7,3.8-0.1,7.1,0.4,10c0.2,1.1,0.4,2.1,0.5,3.1
		c0.2,1.3-0.2,2.3-0.7,3.3c-0.6,1.4-1.4,3.2-0.1,5.6l0.1,0.2c0.2,0.3,1,1.3,7.9,1.3c3.8,0,4.6-0.5,4.9-0.7l2.4-2.4l-8.4-4.5
		c-0.7-3.4,0.1-7.5,0.9-11.5c1.3-6.7,2.8-14.4-4.1-17.8c-2.3-1.2-5.8-2.7-9.4-2.7c0,0,0,0-0.1,0l0.1-4.3l1.5,0.6l0.6-0.3
		c1.1-0.5,2.1-1,3-2.1l0.3-0.3l0.4-3.1l-0.6-0.5c-0.4-0.3-0.8-0.7-1.2-1c-3.3-2.8-6.4-5.4-6.5-10.5l1.2-0.2l0.4-0.7
		c1.2-2.3,1.3-5,1.3-7.1c0-0.6,0-1.2,0.1-1.6l0.1-0.8l-2-1.7c-1.2-1-2.7-1.1-4-1.1c-0.4,0-0.7,0-1.1,0l-0.3,0l-3.2,1.6l-0.2,0.5
		c-1.2,2.8-1.1,6.6,1,8.5c-0.3,1.7-0.9,2.9-1.7,4.3C231.4,98.4,230.5,100,230.1,102.2z"/>
	<path d="M246.2,291.6c0,0.6-0.1,1-0.2,1.5c-0.3,1.3-0.5,2.7,0.7,4.6c1.4,2.2,4.8,3.5,8.9,3.5c0,0,0,0,0,0c2.7,0,5.2-0.6,7-1.6
		c0.2-0.1,0.4-0.2,0.5-0.3c-1.2,3.9-3,9.3-3.8,10.7l-0.2,0.1l-0.3,0.6c-0.9,1.7-0.8,3.1-0.7,5l0.1,1.2l0.8,0.4
		c1.3,0.6,3.1,0.9,5.6,0.9c2.6,0,5.2-0.3,6.5-0.5l0.9-0.1l1.4-3.5l-2.1-0.7c-0.9-0.4-1.6-0.8-2.2-1c-1.1-0.5-1.9-0.8-2.9-1.6
		l-0.2-0.2c0-2.4,2.1-5.4,4.3-8.4c3-4.1,6.1-8.3,4.9-12.8l-0.1-0.3c-1.2-2.4-5.1-3.1-9.1-3.2l1.9-1.4l0.2-0.2c0.6-0.7,1-1.4,1.2-2
		c0.3-0.6,0.4-1,0.7-1.2c5.1-1.4,10.8-1.6,16.2-1.8c4.6-0.2,8.9-0.4,13-1.2l0.7-0.1l1.6-3.2l-26.2-1.8c0.6-1.5,1.2-3.3,1.4-5
		l0.6,0.2l-0.2-2.3c-0.2-1.7-0.6-2.3-1.3-3.1c-0.1-0.1-0.3-0.3-0.4-0.5l-0.4-0.4l-0.5-0.1c-1-0.3-2.3-0.7-3.6-0.7
		c-0.9,0-1.8,0.2-2.4,0.5c-4,1.9-3,5.3-2.5,7.4c0.2,0.8,0.4,1.5,0.4,2.1l0,0.1C256.9,274.7,246.6,278.9,246.2,291.6z"/>
	<path d="M58,453.2c-0.8,0.6-1.7,1.3-2.3,2.2L50,469.8c-0.2,0.5-0.6,0.9-1.1,1.4c-0.7,0.7-1.5,1.5-2,2.7l-0.1,0.3v2.7l11.9,5.1
		l2.7-2.7l-0.9-1.1c-0.6-0.7-1.2-1.3-1.8-1.9c-1.2-1.2-2.2-2.2-3-4c1.2-2,2.7-4.1,4.3-6.2c2.2-3,4.6-6.3,6.4-9.9l-1.4,7.6
		c-1.5,0.6-2.2,1.7-2.7,2.6c-0.2,0.3-0.3,0.6-0.6,0.9l-0.3,0.4v2.5l0.6,0.4c0.4,0.3,0.9,0.7,1.4,1c2.6,1.9,5.9,4.3,9.1,4.8l1.7,0
		l0.6-3.1l-0.5-0.6c-0.4-0.5-0.9-1-1.3-1.4c-1.2-1.2-2.1-2.2-2.4-4l1.6-5.2c0.6-2.1,1.4-4,2.1-5.9c2.9-7.7,5.4-14.3-3.9-20.8
		c-0.4-0.3-0.9-0.7-1.3-1.1c-0.8-0.7-1.7-1.4-2.8-2c-0.8-1.5-0.9-3-0.9-5l4,1.7l0.7-0.7c2.5-2.6,4.6-5.7,6.5-8.8
		c1.4-2.1,2.8-4.3,4.4-6.2l0.6-0.7l-0.4-0.9c-0.1-0.2-0.2-0.4-0.2-0.6c-0.2-0.6-0.5-1.2-1-1.6v-1.5l-1.5,0.8c0,0-0.1,0-0.1,0l-1-0.2
		l-0.4,0.6l-0.3-0.1l-1.1,2.1l-1.8-2.9l-0.4,6.4l-0.1,0.2l0.1-0.1l-0.1,1.4c-0.6,1.2-1.7,2.2-2.9,3.3c-0.5,0.5-1.1,1-1.6,1.5
		c-1.8-1.8-5.8-6.5-6-13.4l1.6-0.4l0.3-0.8c1.3-3.6,1.4-7.2,0.2-10.2l-0.2-0.6l-0.6-0.2c-1.6-0.7-3.3-0.9-5.7-0.8l-0.4,0l-0.9,0.6
		c-0.9,0.6-1.7,1.1-2.5,2.2l-0.2,0.3l-0.1,0.3c-0.6,2.5-0.3,5.6,1.6,7.3c-0.4,3.8-2.3,6.1-4.3,8.6c-1.5,1.9-3.1,3.9-4,6.5
		c-1.1,3.2-1,6.3-0.9,9.2c0.1,2.7,0.2,5.2-0.5,7.8l-1.2,2.8l-1.8-0.5l0.9,2.4l-0.5,1.1h1c0,0,0,0.1,0,0.1c0,0.1,0.1,0.2,0.1,0.2
		c0,0,0,0.1-0.1,0.5l-0.3,1.2l1.1,0.5c0.1,0,0.1,0.1,0.2,0.1c0,0,0,0,0,0l0.7,0.8l1-0.5c1.8-0.8,2.4-2.4,2.6-3.7h2l-0.4-1.8
		c-0.8-3.8-0.3-10.7,1.1-16.2c0.1-0.2,0.2-0.3,0.3-0.4l0.6,5.8l-1.4,6.7l0,0.2c0.5,5.7,5.4,12.3,7.4,14.7
		C59.3,452.2,58.7,452.7,58,453.2z M68.7,447.1c0.3,0,0.6,0.1,0.9,0.1l-1.1,1.8C68.6,448.4,68.7,447.7,68.7,447.1z"/>
	<path d="M95.8,146.7c-0.3,0.7-0.7,1.2-1.1,1.7c-0.9,1.2-2.1,2.7-2.1,5.7l0,1.5h6.9l0.8-6.9l2.8-3.5l0.1-0.2c0.6-0.9,1.2-2.3,2-3.9
		c2-4,6.1-12.3,9.1-12.3c0.1,0,0.2,0,0.3,0l1.1,0.2l1.3-2.6l0.9,1.6l0.5,0.2c0.6,0.2,1.2,0.3,1.7,0.3c0.4,0,0.7,0,0.9,0.1
		c1.8,1.7,11.5,17.2,12.7,19.9l-0.2,5.4l0.3,0.4c1,1.5,2.8,1.5,3.5,1.5c0.4,0,0.9,0,1.4-0.1l1.4-0.1l0.5-2.1
		c0.5-2.3-0.9-5.4-2.2-8.4c-0.6-1.4-1.1-2.6-1.4-3.5c-1-3.6-2.6-6.3-4.1-8.8c-1-1.6-1.9-3.1-2.6-4.8l-0.5-4.1l-0.1-0.3
		c-0.7-2.4-1.7-5-2.6-7.5c-0.7-1.9-1.4-3.6-1.9-5.3c-2.3-6.7,0.7-12.1,3.5-17.2c1.5-2.7,2.9-5.2,3.5-7.9c1.3-5.6-1.8-10.2-4.5-14.3
		c-1.6-2.4-3.1-4.7-3.7-7l-0.4-1.8l-1.4,0.6c0,0-0.1-0.1-0.2-0.1l-0.9-0.8l-1,0.8c-0.4,0.3-0.4,0.3-0.9,0.4l-2.3,0.3l0.2,0.3
		l-0.9-0.5c0,0,0,0,0,0c0,0,0,0,0,0l-0.4-0.8h-4.1l-0.4,1c-1,2.6-2.4,4.7-3.9,7c-2.1,3.3-4.4,6.7-5.1,11.3
		c-0.8,5.1,1.9,9.4,4.1,12.8c0.9,1.5,1.8,2.8,2.3,4.1c0.7,1.9,0.3,10-0.3,12.7l-5,14.7l0.6,1.3l-6.4,11L95.8,146.7z M117.5,64.7
		l1.5,2.6l0.5,0.4h-3.5L117.5,64.7z M118.7,70.3l3.5,1.6l4.3,9l-3.1,8.5c-0.9,0.1-1.4-0.1-2.3-0.6c0.1-0.6,0.3-1.1,0.4-1.6
		c0.6-2.4,1.3-4.9-0.8-7.9l-0.3-0.4l-0.5-0.1c-3.3-0.9-5.4-0.6-6.6,1c-1.6,2-0.7,5.2,0.1,8.1c0.1,0.4,0.2,0.7,0.3,1.1
		c-0.8,0.5-1.6,0.9-2.3,0.7c-0.8-1.5-3.1-7.2-3.3-8.5c0.9-3.7,4.5-9.6,7.6-10.2L118.7,70.3z"/>
	<path d="M212.9,286l0.1,0.3l0.2,0.2c0.6,0.6,1.3,0.8,1.9,0.9c0.2,1.1-0.2,2.2-0.8,3.8c-0.6,1.4-1.2,3-1.2,4.8l0,0.1l1,8.7l0.2,5.9
		c-0.1,0.1-0.1,0.2-0.2,0.2c-0.8,1-1.9,2.5-0.6,5.2l0.1,0.2c0.6,0.8,1.8,1.6,6.4,1.6c0,0,0,0,0,0c2.2,0,4.9-0.2,6.2-0.5l1.7-0.8v-3
		l-1.1-0.3c-2-0.6-3.1-1.2-4.4-1.9c-0.4-0.2-0.9-0.5-1.4-0.7c-1.8-3.8-0.2-11.5,0.9-17.2c0.5-2.3,0.9-4.3,1.1-5.9l2.5-0.2l0.2-1.1
		c1-5.7,1.4-13.3-0.2-17.8l0.2-12.8l0-0.1c-0.3-2-0.9-3.5-1.4-4.9c-0.6-1.6-1.2-3.2-1.4-5.4l2.1-0.5l0-1.2c0-0.8,0.2-1.6,0.4-2.5
		c0.4-1.9,0.9-4.1-0.1-6.1l-0.1-0.2l-1.4-1.4l-0.1-0.1c-0.9-0.8-2-1.2-3.3-1.2c-2,0-4.1,1.1-5.4,2.1l-0.4,0.3l-0.1,0.5
		c-0.8,2.8-0.6,6.1,1.3,7.9c-0.2,1.8-1,3.2-1.8,4.6c-0.9,1.6-1.8,3.3-2,5.6l0,0.2l2,13.7c-0.2,0.2-0.4,0.5-0.6,0.9
		C211.6,271.1,211.3,282.1,212.9,286z"/>
	<path d="M312,341.9c11.3,0,14.1,0.7,14.8,1l0.7,1.6l4.2-3.8v-2.4l-5.4-4.3v2.6l-28.1,0.2v5.2l3.5-0.1
		C304.4,342,308.2,341.9,312,341.9z"/>
	<path d="M44.7,300.2c-0.9,2.2-1.8,4.5-3.2,6.7c-0.3,0.5-0.8,1-1.2,1.4c-0.8,0.8-1.7,1.7-2.3,3.4l-0.2,0.6l0.3,0.6
		c1.4,2.7,6.1,4.5,9.6,4.5c1.2,0,2.3-0.2,3.1-0.6l1.6-0.5v-2.9l-4.7-1.5c-0.5-5.6,3.7-10.7,8-16.1c3.6-4.5,7.4-9.2,8.7-14.5l7.5-2.7
		l0.3-2.1l2.1-1.3l1,12.3c-0.8,1.4-1.2,2.3-1.1,4.1h-1l-1.3,25.6l5,0.6l0.8-5.8c0.4-0.1,1.2-0.2,3-0.2c1.4,0,3,0.1,4.6,0.2
		c2.5,0.1,4.9,0.2,6.4,0.1c0.5,0.9,0.6,2.6,0.5,4.1l-0.1,1.6h5.5l0-1.5c0-3-0.3-6.6-0.5-10c-0.3-4-0.6-7.9-0.4-10.7l3.8-23.6
		l-5.7-0.5l-0.4,1.1c-1.7,5-2.9,12.1-3.2,19.2h-2l0.1-0.5l-1-0.5c-1.5-0.7-3.1-1.5-4.5-2.2c-0.6-0.3-1.1-0.5-1.6-0.8
		c-1.4-2.6-0.8-7-0.1-11.3c0.5-3.3,1-6.8,0.6-9.6l-0.1-0.7l-0.6-0.4c-1.5-0.9-3.5-1.3-5.8-1.3c-3.7,0-7.8,1.1-10.3,1.8l1.1-12l0-0.2
		c-0.2-1.2-0.5-2.2-0.8-3.2c-0.5-1.8-1-3.5-1.1-5.7c0.1,0,0.4,0,0.7,0l1.1,0l0.3-1.1c0.1-0.5,0.3-1,0.5-1.6c0.7-2.3,1.6-5.3,0.7-7.3
		c-0.8-1.9-2.7-3.1-4.5-2.9c-0.4-0.1-0.8-0.1-1.2-0.1c-1,0-2,0.3-2.8,0.5c-0.2,0.1-0.5,0.1-0.7,0.2l-0.6,0.1l-0.3,0.5
		c-1.7,2.7-1,5-0.4,7.2c0.2,0.7,0.4,1.4,0.6,2.1l-0.4,0.8c-3,5.9-6.6,13.2-3.5,22.1c-0.3,1-0.9,2-1.6,3c-0.9,1.3-1.9,2.8-2.4,4.8
		c-0.4,1.8-0.3,3.6-0.2,5.4c0.1,2,0.3,3.8-0.3,5.5l-0.5,1.5l2.3,0.6v3.5C47.8,292.4,46.2,296.4,44.7,300.2z M78.5,297.9l12.5-0.2
		c0.7,1.6,1.2,7.3,0.9,9.6c-0.6,0.1-2.1,0.3-5.5,0.3c-2.5,0-5.2-0.1-7.4-0.2c-0.4,0-0.7,0-1,0L78.5,297.9z"/>
	<path d="M297.3,504.8l28.4,0.2l1.5,1.9l3.3-2.9l0.8-1.6l-3.3-4.1l-1.1,0.5c-2.2,1-5.9,1.6-11.3,1.6c-3,0-6-0.1-8.9-0.3
		c-2.9-0.1-5.7-0.3-7.9-0.2l-1.5,0V504.8z"/>
	<path d="M356.7,97c-3.2,0.8-5.8,2.5-8.4,4.2c-1.6,1-3,1.9-4.5,2.6c-0.6,0.3-1.3,0.3-2.1,0.3c-1.2,0-2.6,0.1-3.9,1l-0.2,0.2
		l-1.8,2.9l0.4,0.8c1.1,2.2,4.2,5.5,6.3,6.8l0.1,0.1c1.3,0.7,3.5,0.4,4.6-0.3l2.2-1.5l-1.2-1.3c-0.4-0.5-0.9-0.8-1.2-1.2
		c-0.7-0.6-1.1-1-1.4-1.8c6-3.1,14-5.5,21-6.2l1,2.2l1.2-0.2c3-0.5,20.7-7.4,26.7-10.9c-0.1,1.8-0.4,4-0.8,6.2
		c-0.9,5.3-1.7,10.9,0.5,13.8c1.3,1.8,5.8,1.9,6,1.9c1.1,0,1.9-0.1,2.6-0.4l3.6-1.8l-8.4-3c-0.3-3.4,1.5-8,2.9-11.8
		c0.7-1.8,1.4-3.5,1.7-5c0.2-0.9,0.3-1.9,0.4-3c0.1-1.2,0.2-3.3,0.6-3.7c0.4-0.4,0.6-0.4,0.6-0.4c0.1,0,0.3,0.1,0.9,0.8l0.5,0.6
		l0.7-0.1c1.6-0.1,3.1-0.7,4.3-1.1c0.9-0.4,1.9-0.7,2.2-0.6l0.7,0.2l0.6-0.5c1.1-0.9,1.5-1.7,1.7-3.3c0.6-2.4-1.2-4.6-2.3-5.8
		c-0.1-0.2-0.3-0.3-0.4-0.4l-0.4-0.4l-4-0.7l-0.5,0.3c-1.3,0.8-2.2,1.6-3,2.4c-0.5,0.5-0.9,0.9-1.4,1.3l-12,1l-8.3,5.9
		c-0.6,0.2-1.2,0.3-2,0.3c-0.6,0-1.1,0-1.6-0.1c-0.6,0-1.1-0.1-1.7-0.1c-0.8,0-1.4,0.1-2,0.2l-14.5,7.2l0.8,1.8
		c-0.8,0.2-1.7,0.3-2.7,0.3C359.5,96.5,358.2,96.6,356.7,97z"/>
	<path d="M182.9,505.4l1.2,0.9l0.9-1.2c0.2-0.2,0.4-0.4,0.6-0.6c0.5-0.5,1.2-1.1,1.6-2.3l0.3-0.9l-5.6-5.1v3
		c-1.9,0.4-6.4,0.7-12.6,0.7c-6.2,0-11.8-0.3-13.4-0.7l-1.7-0.5l-0.6,5.2l1.3,0.3c1.4,0.4,3.2,0.5,5.5,0.5c2.3,0,5-0.2,7.6-0.3
		c2.6-0.2,5.3-0.3,7.7-0.3C179.4,504.1,181.9,504.6,182.9,505.4z"/>
	<path d="M134.3,465.3l0.3,0.1h2.9l0.8-3.1l-4-2.9c-2.4-3.1-1.2-7.6,0.1-12.4c1.2-4.3,2.3-8.7,1.3-12.8l-0.1-0.3
		c-1.7-3.4-5.3-3.4-8.3-3.4c-1.5,0-2.9,0-3.9-0.4c-1.1-0.7-1.1-1.3-1.1-1.5c-0.2-2,3.5-5.2,5.9-7.3c1.7-1.5,3.2-2.8,3.9-4
		c2.1-1.6,2.1-2.7,1.5-4.6c-0.1-0.3-0.2-0.5-0.3-0.9l-0.2-0.9l-3-0.8l-0.5,1.2c-0.1,0.2-0.3,0.6-0.5,0.9V405l-3.1,8.6
		c-1.3,3.6-2,5.6-4.6,6.8l0-2.8c0-1.9-0.8-3.5-1.4-5.1c-0.6-1.4-1.2-2.7-1.4-4.3l1.5-0.2l0.3-0.9c0.4-1.5,0.6-3,0.7-4.2
		c0.1-1.1,0.2-2.2,0.5-3.2l0.2-0.6l-1.2-2.3l-0.3-0.2c-0.5-0.4-2.4-1.6-4.7-1.6c-0.8,0-1.6,0.2-2.3,0.5c-1.5,0.5-2.3,1.2-2.9,2.5
		c-1.4,1.9-1,4.8,1.1,7.9c-0.3,1.7-1,3-1.7,4.3c-0.8,1.5-1.6,3-2,5.1c-0.6,3.1,0.2,5.8,0.9,8c0.2,0.8,0.5,1.5,0.6,2.2
		c0.5,2.5-0.1,4.7-0.6,6.8c-0.5,1.9-1,3.9-0.6,5.9c0.5,2.8,2.4,5.8,4.3,8.6c1.4,2.1,2.8,4.2,3.2,5.9c-2.7,3.8-3.2,7.4-3.8,11.3
		c-0.4,2.5-0.8,5.1-1.8,8c-0.1,0.4-0.4,0.8-0.7,1.3c-0.7,1-1.7,2.4-1.3,4.6v1.2l0.8,0.4c2.1,1.1,6.9,2.3,10.1,2.3
		c0.9,0,1.6-0.1,2.2-0.3l0.8-0.2l0.9-2.8l-3.8-1.6l-2.9-3.3c0.7-4.2,2.5-8.1,4.3-11.9c1.3-2.7,2.6-5.5,3.5-8.3
		c0.8-2.7,0.7-5.1,0.4-7.6c0.3,0,0.5,0,0.7,0c0.5,0.1,1,0.1,2.1,0l0.1,0c-0.3,2.7-0.5,5.6-0.5,8.6c-1.5,0.9-2,2.3-2.5,3.7l-0.2,0.5
		l0.4,3l0.9,0.3c2.6,0.7,4.8,1.7,7.1,2.7C133.1,464.8,133.7,465.1,134.3,465.3z"/>
	<path d="M154.5,341.3l1.1,0.3c1.7,0.4,3.7,0.6,6.1,0.6c2.5,0,5.2-0.2,7.7-0.4c2.5-0.2,5.1-0.4,7.4-0.4c3.3,0,5.6,0.4,7.2,1.3l1,0.5
		l3.6-4.1l-3.2-3.2l-1.1-1.1l-1.1,1.1c-0.2,0.2-1.9,1.1-12.1,1.1c-3.9,0-8-0.1-11-0.2c-1.9-0.1-3.3-0.1-4.2-0.1l-1.7,0V341.3z"/>
	<path d="M207.7,413.9c-2.2,1.5-4.6,3.3-6,6.4l-0.2,0.4l0,0.4c0.4,4.3,3.3,6.6,5.9,8.6c1,0.8,2.1,1.6,2.8,2.4
		c-1.8,3.4-1.5,7.8-1.1,12.4c0.1,1.7,0.2,3.4,0.3,5l0,1.2l2.6,0.6c-0.1,1.4-0.5,2.4-0.9,3.7c-0.3,1-0.7,2.1-0.9,3.4l0,0.2l1.2,15.1
		c-0.1,0.4-0.3,0.8-0.5,1.2c-0.5,1.2-1.2,2.7-0.7,5.1l0.1,0.8l0.7,0.3c1.3,0.6,6.5,0.7,6.7,0.7c4.3,0,5.1-0.5,5.5-0.7l0.1-0.1
		c0.1-0.1,0.2-0.1,0.3-0.2c0.6-0.4,1.1-0.9,0.9-2.1c0-0.1,0-0.2-0.1-0.4l-0.2-1l-1-0.2c-1.9-0.4-2.7-1-3.8-1.8
		c-0.5-0.4-1.1-0.8-1.8-1.2c-1.4-3.8-0.2-10,0.9-15.4c0.5-2.6,1-5.1,1.2-7.3l2.9-0.2l0.8-14.7l-0.2-1.3c-0.4-2.3-0.7-4.2-0.7-7
		v-10.6l-0.1-0.2c-0.3-1-0.7-1.9-1.1-2.8c-0.7-1.6-1.3-3-1.4-5l1.7-0.2l0.2-1c0.6-3,0.9-4.8,1-8.2l0-0.6l-2.1-2.5l-0.5-0.1
		c-2.6-0.7-4.3-0.4-6.6,0.3l-0.5,0.1l-0.3,0.4c-2.9,3.9-1.5,7.2,0.1,9.4C212.3,410.6,210.2,412.2,207.7,413.9z M210.3,424.6
		c-0.1-0.1-0.1-0.2-0.2-0.3c-0.4-0.5-0.8-1-1.2-1.5l0.9-0.7C210,422.8,210.1,423.7,210.3,424.6z"/>
	<path d="M54.9,85.6c-1.5,2.1-1.6,5-1.7,7.9c-0.1,1.9-0.2,3.9-0.7,5.5c-2.1,6.6-3.3,14.7-3.2,21.6l3,0.2l0.5-3.3l1.1,0
		c-0.2,0.9-0.3,1.9-0.5,2.8c-0.4,2.3,0.4,3.7,0.8,4.6c0.1,0.2,0.2,0.4,0.3,0.6l-1.2,10.4l1,9.6c0.2,1.2-0.4,2.2-1,3.3
		c-0.8,1.5-1.7,3.3-0.9,5.6l0.1,0.3l0.2,0.2c0.9,0.9,2.3,1,3.4,1c0.5,0,1.1,0,1.6-0.1l1.1-0.1l0.2-1.1c0.9-4.2,1.1-8.6,1.3-12.9
		c0.2-4.6,0.5-9.4,1.5-13.9c0.3-1.3,0.8-2,1.4-2.9c0.1-0.2,0.3-0.4,0.4-0.6l0.2,0.4l1.9,1.1l0.6,5.5l0,0.1c1.6,8,1.8,16,1.6,22.7
		l0,1.4l6.8,0.4l0.3-1.2c0.4-1.8-0.1-3.4-0.5-4.9c-0.3-1.1-0.6-2.1-0.6-3.2l1.2-8L74.1,126l0.8-0.1l0.3-1c0.6-2.1,0.6-4.4,0.3-6.7
		l0.8,0.4l0.4,7.4l2.5-5.4c1.9-4-2.8-27-3.5-29.2c-0.2-0.6-0.3-1.4-0.3-2.1c-0.1-1.2-0.2-2.6-1.1-3.8L74,85.3L68.3,82
		c0.1-0.7,0.4-1.5,0.7-2.3c0.7-2.1,1.7-4.8-0.3-7.3c-1.1-1.9-3.1-2.1-4.7-2.1c-0.4,0-0.8,0-1.2,0l-0.6,0L60,72.5L60,72.9
		c-0.5,2.8,0,4.5,0.5,6.2c0.3,0.9,0.5,1.7,0.6,2.8l-6,3.3L54.9,85.6z M54.3,115.6c-0.1,0.3-0.1,0.7-0.2,1l0.2-5.1
		c0.4-1.3,0.8-2.8,1.3-4.3C55.3,110,54.8,112.8,54.3,115.6z M73.1,108.9c-0.4-1.3-0.8-2.6-1.1-3.6c-0.4-1.7-0.4-3.4-0.2-5.3
		c1,3.8,2.1,9.2,2.5,13.1C73.9,111.6,73.5,110.2,73.1,108.9z"/>
	<path d="M332.2,416.8c2.8-1.7,9.1-2.8,15.7-2.8c2.5,0,4.8,0.2,6.6,0.5c0.1,0.3,0.2,0.5,0.2,1.1l0,1l0.9,0.4
		c1.3,0.5,2.9,0.8,4.9,0.8c4.3,0,9.5-1.3,14-2.5c1.8-0.5,3.6-0.9,5-1.2c0,0.1,0.1,0.1,0.1,0.2c1.1,2.6,2.5,5.9,4.7,7.1l0.3,0.2
		l11.7,0.4l-3.9-2.9c-1.4-1.1-2.8-1.5-3.9-1.9c-1.9-0.7-2.8-1-2.9-3.9c1.5-0.6,2.7-1.2,3.7-1.8c1.8-1,3.2-1.8,5.2-1.9v1.3l0.7,0.4
		c1.7,1,3.1,1.3,4.4,1.6c0.8,0.2,1.6,0.3,2.6,0.7l0.3,0.1l0.3,0c2.2-0.1,3.4-1.1,4-2c1.4-2.1,1.1-5.2,0.3-7.4l-0.2-0.5l-0.4-0.3
		c-1.4-0.9-2.6-1.3-3.9-1.3c-0.9,0-1.6,0.2-2.2,0.4c-0.9,0.2-1.6,0.4-2.6,0.2c-0.8-0.1-2.2-0.7-3.7-1.3c-3.2-1.3-7.3-2.9-10.9-2.9
		c-2.8,0-4.9,0.9-6.3,2.8l-0.3,0.3l-0.1,1c-1.5-0.1-2.7-0.3-3.9-0.6c-0.8-0.2-1.7-0.4-2.7-0.5l-0.3,0l-14.5,3l-0.3,0.2
		c-0.9,0.7-1.1,1.3-1.1,2c-1,0-2-0.2-3.1-0.4c-1.2-0.2-2.4-0.4-3.8-0.4c-0.6,0-1.3,0-1.9,0.1l-11,2.9c-0.4,0-1-0.2-1.6-0.4
		c-0.9-0.3-1.9-0.7-3.2-0.7c-0.4,0-0.8,0-1.2,0.1l-0.2,0l-1.5,0.7l0,0.9c0,0.6-0.1,1.3-0.1,2c-0.3,4-0.7,9.6,4,10.4l1.9,0
		L332.2,416.8z"/>
	<path d="M169.5,178.6c2.7-0.2,5.5-0.4,8-0.4c4.6,0,6.4,0.7,7,1.3l1.1,1l4.2-4.7l-6.3-5.2v2.6h-28.1v3.9l0.5,0.4
		c1.1,0.9,3,1.3,6.3,1.3C164.4,178.9,166.9,178.7,169.5,178.6z"/>
	<path d="M143.1,272.9l-1-0.6c-0.9-0.6-2.2-0.9-3.9-0.9l-1.3,0l-3.2,20.3c-0.4,0.1-1,0.2-1.5,0.2c-0.2,0-0.4,0-0.6,0
		c0-0.5-0.3-1.2-1-1.7l-0.3-0.2l-3.1-0.5l-2.7-2.2c-1.6-4.1,0.3-13,1.5-19c0.3-1.5,0.6-2.8,0.8-3.9l2.1-0.2l0.4-0.8
		c2.2-4.8,1.2-14.3,0.1-18.1l0.2-13.9l0-0.2c-0.3-1.5-0.8-2.7-1.3-3.9c-0.7-1.6-1.3-3.1-1.5-5.3l2-0.2l0.1-1.5
		c0.3-4.4,0.5-8.5-1.4-10.5c-0.7-0.8-1.7-1.2-2.8-1.2c-1.6,0-3.4,0.8-5.6,2.6l-0.4,0.3l-0.1,0.5c-0.8,2.8-0.6,6.1,1.3,7.9
		c-0.2,2-1.1,3.6-1.9,5.3c-0.7,1.3-1.3,2.6-1.8,4.1c-0.3,1.1-0.1,3.7,1.8,13.2l0.1,0.3c0.2,0.7-0.4,1.7-1,2.7
		c-0.5,0.9-1,1.7-1.2,2.7l0,0.2l0.8,15.5l2.5,0.5c0,1.3-0.4,2.4-0.9,3.6c-0.4,0.9-0.7,1.9-0.9,3c-0.7,3.8,0.2,8.4,0.8,11.1l0.2,0.9
		c0.4,2.3,0,3.7-0.4,5.3c-0.3,0.9-0.6,2-0.7,3.2l-1.2-0.2l-1.4,26.3l5.7,0l-0.2-1.7c-0.1-0.6,0.1-2.6,0.4-3.6l14.1-0.2
		c0.2,1.2,0.1,3,0.1,4l-0.1,1.6h5.7l0-1.5c0-2.1-0.1-4.4-0.1-6.6c-0.3-11.6-0.5-24.7,2.7-35.4L143.1,272.9z M134.3,307.4l-13.4,0.2
		l0.4-9.7h12.5L134.3,307.4z"/>
	<path d="M443.5,140l-0.4-0.4c-1.8-1.9-3.1-2.8-4.6-2.8c-0.8,0-1.4,0.2-2,0.4c-0.8,0.3-1.5,0.5-2.6,0.4l-3.3-2l-0.1-0.1
		c-2.4-1.2-5.7-1.8-9.3-1.8c-2.6,0-5.2,0.4-7.2,1l-0.7,0.2l-0.7,2.4c-1.3,0.3-2.7-0.1-4-0.5l-2.3-9.1v8.6
		c-3.4-0.2-12.9,1.8-15.4,2.9l-0.2,0.1l-0.2,0.2c-0.6,0.6-0.7,1.2-0.8,2c-0.9,0-1.9-0.1-2.9-0.3c-1.4-0.3-3-0.6-4.9-0.4
		c-2.6,0.3-4.9,1-7.1,1.7c-1.6,0.5-3.1,1-4.5,1.2c-0.8,0.1-1.5-0.1-2.3-0.4c-1.1-0.4-2.5-0.8-4.3-0.6l-1,0.1l-0.3,1
		c-1.2,4.3-0.5,9.5,1.7,12.4l0.5,0.6h3.4v-5.2l1.1-1.3l21.7-0.7c0,0.2,0.1,0.6,0.1,1.2l0.1,1.5l1.5,0c3-0.1,6-0.5,9-1
		c1.9-0.3,3.6-0.6,5.4-0.8v3.3l0.2-0.7v2.4l1.7-5.1c0,0,0.1,0,0.1,0l1.4-0.1v-0.6c1.8-0.2,3-0.4,4-0.4c1.9,0,2.1,0.2,3.7,4.2
		c0.2,0.5,0.4,1.1,0.7,1.7l0.3,0.8l9.7,1v-2.6l-0.6-0.5c-1.2-0.9-3.3-1.7-5.7-2.5c-0.1,0-0.3-0.1-0.4-0.1l-0.4-3.4
		c1-0.5,2.1-1.1,3.1-1.6c1.7-1,3.4-2,4.7-2c0.1,0,0.2,0,0.4,0l0.6,0l0.2,1.6l0.7,0.4c2.7,1.5,5.6,2.2,8.6,2.3l0.6,0l0.5-0.4
		c2.4-2.3,2.8-4.4,2.6-7.7L443.5,140z"/>
	<path d="M330.4,260.6l-5.3-2.6l-0.9,3.6l8.9,8.9l0.8-0.2c3-0.7,3.6-2.6,4-4c0.2-0.7,0.5-1.4,1-2c1.3-1.3,2.8-2.1,4.5-3
		c3.1-1.6,6.5-3.4,7.5-8.2l4.3-1.4c0,0,0.1,0.1,0.1,0.1c0.5,0.5,1,1.1,2.1,1.5l0.6,0.2l0.6-0.3c0.8-0.4,1.7-0.9,2.8-1.4
		c4.3-2.1,9.6-4.6,11.5-8.1l0.1-0.2l1.4-6.5l1.7-3.5c3,7.2,2.5,16.1,2,25.5c-0.2,3.3-0.4,6.8-0.4,10.2l0,1.5h5.3l0.2-5.5h14.2
		c0.2,1.2,0.1,3,0.1,3.7l0,1.4l5.1,0.5l0.3-1.2c0.9-3.5,0.4-7.7-0.1-11.8c-0.3-2.5-0.6-4.8-0.5-6.7l3.7-24.8l-0.4-0.5
		c-0.8-0.9-1.8-1.1-2.6-1.3c-0.2,0-0.4-0.1-0.6-0.1l-2.4,0l-3.1,20.2l-13.4,0.2c-0.7-3.1-0.8-6.3-0.9-9.4c-0.1-2.8-0.2-5.5-0.7-8
		c-0.4-2-1.1-3.8-1.9-5.6c-0.7-1.8-1.4-3.4-1.7-5.2c-0.2-1,0.1-1.5,0.6-2.4c0.6-1,1.4-2.4,0.9-4.4c0.2-1.5-0.8-2.4-1.4-3
		c-0.1-0.2-0.3-0.3-0.4-0.5l-0.3-0.4l-0.5-0.1c-1.3-0.4-2.5-0.5-3.5-0.5c-1.3,0-2.6,0.3-3.8,0.9l-0.6,0.3l-0.2,0.6
		c-0.9,2.5-0.5,4.5-0.2,6.6c0.1,0.9,0.3,1.8,0.4,2.9l0.1,1.2l1.7,0.2c-0.6,0.8-1.3,1.5-2.1,2.3c-1.2,1.2-2.5,2.4-3.2,4l-3.5,10.7
		l-11,7L334.7,261L330.4,260.6z M397.7,260.6l-13.8,0.2c-0.6-1.8-0.3-6.8,0.3-9.9l13.1,0.2C397.8,252.3,397.9,255.5,397.7,260.6z"/>
	<path d="M578.5,483l2.7-10.3l-0.6-0.6c-0.8-0.8-1.8-1.3-3-1.3c-0.6,0-1.2,0.1-1.7,0.2c-0.8,0.1-1.6,0.3-2.2,0l-6.6-4.4l-11.8-3.1
		c-0.5-0.3-0.6-0.6-0.8-1.3c-0.2-0.6-0.4-1.4-1.1-2.1c-0.3-0.3-0.3-0.3-6-3c-0.5-0.2-0.9-0.4-0.9-0.4l-0.2-0.1l-5.6-1
		c-0.8-0.3-1.7-0.6-2.5-0.9c-4.1-1.4-8.7-3-12.9-3.9c-1.3-0.3-2.4-0.3-3.3-0.3c-1,0-1.7,0-2.5-0.3l-0.3-0.1l-3,0.3l-0.4,0.3
		c-0.7,0.7-1.5,1.5-2.2,2.2c-0.9,0.9-1.7,1.8-2.5,2.6c-0.9-0.2-1.7-0.7-2.5-1.2c-1.3-0.8-2.7-1.7-4.8-1.7c-0.8,0-1.6,0.1-2.4,0.3
		l-0.2,0.1l-2.1,1.4l-0.1,0.6c-0.5,2.1-0.4,3.6,0.3,5.6l0.2,0.5l0.5,0.3c2,1.1,3.7,1.2,5.2,1.2c0.4,0,0.8,0,1.2,0c1,0,2,0,2.9,0.1
		c1.7,3.5,0.9,6.3,0,9.3c-0.7,2.4-1.4,4.9-0.7,7.6l0.1,0.4l1.3,1.3l0.1,0.1c1.1,1,2.7,1.1,3.9,1.1c0.3,0,0.6,0,1,0l1.3-0.1l0.4-6.8
		l-1.5-0.2c0.1-0.3,0.3-0.6,0.5-1c0.6-1.2,1.3-2.5,1.5-4.4l0.4-0.2c0.1,0,0.4-0.1,1.2-0.1c1.6,0,4.2,0.5,7.5,1.4l10.9,5.5l11.8,3.1
		l0.9-1.8c0.4,0,0.8-0.1,1.2-0.1c2.3,0,4.5,0.5,6.9,1.1c2.4,0.6,4.8,1.2,7.4,1.2c1.3,0,2.6-0.2,3.8-0.5c2.3,0,3.1,0.6,4.1,1.3
		c0.9,0.6,1.9,1.4,3.8,1.7L578.5,483z"/>
	<path d="M558.9,131.5l3.8-1l7.4-8.1h-4.3l-23.3,13.1c-0.6,0.3-1.2,0.6-1.9,1c-1.3,0.7-2.7,1.6-3.9,1.7c0.1-0.1,0.1-0.2,0.2-0.2
		l0.5-0.7l-0.4-0.8c-0.3-0.7-0.7-1.4-1.1-2.1c-0.7-1.3-1.4-2.5-1.7-3.9l-0.1-0.6l-0.5-0.3c-1.4-0.8-2.5-1.3-4.9-1.2l-0.6,0l-0.4,0.4
		c-0.4,0.4-0.8,0.7-1.2,1c-0.8,0.6-1.7,1.4-2.4,2.6l-0.2,0.3l0,0.4c-0.2,4.1,1.6,6.7,5.1,7.6l1.7,5.8l0.1,0.2
		c2.9,4.4,14.5,11.1,23.7,11.1c2,0,3.8-0.3,5.4-0.9c5.1-1.9,8.7-7.1,10.4-10l0.4-0.6l-0.9-2.3l1.5-1.9c0.8,0.7,1.5,1.4,2.3,2.2
		c2.4,2.4,5,4.8,8.2,6.4c0,0.2-0.1,0.4-0.1,0.6c-0.3,1.2-0.7,2.7,0.1,4.4l0.1,0.2c0.8,1.1,3.3,1.6,7.5,1.6c1.7,0,3.9-0.1,5.1-0.7
		l0.2-0.1c0.1-0.1,0.2-0.1,0.3-0.1c0.6-0.3,0.8-0.7,1-1.2c0-0.1,0.1-0.2,0.1-0.4l0.1-0.2v-1.6l-1.1-0.3c-5.8-1.6-9.8-6.4-13.6-11
		c-1.4-1.7-2.8-3.3-4.2-4.7c-0.4-0.4-0.7-0.8-1.1-1.3c-0.9-1.2-1.9-2.5-3.9-3.2c-0.8-0.3-1.6-0.4-2.4-0.4c-4.5,0-8.4,3.8-11.8,7.1
		c-1.8,1.7-3.4,3.3-4.6,3.8c-0.3,0.1-0.7,0.2-1.2,0.2c-2,0-4.1-1.1-5-2C550.3,138.4,555.5,133.7,558.9,131.5z"/>
	<path d="M523.6,85.3c3.5-2.7,7.1-5.6,8.5-10l0.6-2h-3.1l-10.7,8.2c-1.3,1-3,2.6-4.8,4.3c-3.9,3.6-9.2,8.5-12.6,9.7l-0.3-0.1
		l-0.3-2.4l-0.8-0.4c-0.6-0.3-1.2-0.6-1.8-1c-1.7-1-3.5-2-6-2c-0.6,0-1.3,0.1-2,0.2l-0.7,0.1l-2.8,5.3l0.9,2.8l0.1,0.2
		c0.9,1.9,2.3,2.9,4.4,2.9c0.6,0,1.2-0.1,1.8-0.2c1.2-0.2,2.2-0.2,2.9,0.1c0.8,0.4,1.6,1.1,2.3,1.9c1.2,1.1,2.5,2.4,4.3,3l0.2,0.1
		h11.1c1.8,0,3.4,0,4.9,0c0.8,0,1.6,0,2.3,0c9.1,0,11.8-0.9,17.4-10.1l0.6-0.9l-1.3-1.6c0.3-0.6,0.7-1.1,1.3-1.6
		c0.1-0.1,0.3-0.3,0.4-0.4c0.9,0.8,1.8,1.7,2.8,2.6c2.2,2.2,4.7,4.7,7.8,6c0,0.1-0.1,0.3-0.1,0.4c-0.2,1.2-0.5,2.5-0.2,4.3l0.1,0.8
		l0.7,0.3c1.6,0.8,4.2,0.9,6,0.9c2.2,0,4.5-0.2,6.2-0.6l0.6-0.1l1.3-2l-1-1.9l-0.7-0.1c-4.3-0.9-8.9-6.3-12.9-11.2
		c-4.2-5-7.8-9.3-11.4-9.3c-5.2,0-8.5,3.4-11.4,6.4c-1.9,1.9-3.6,3.7-5.7,4.5c-0.7,0.3-1.6,0.4-2.8,0.4c-0.9,0-1.9-0.1-2.8-0.1
		c-0.1,0-0.3,0-0.4,0C517.8,89.9,520.6,87.7,523.6,85.3z"/>
	<path d="M327.9,171l-0.5,2.7H299v5.2l1.5,0c0.8,0,2,0,3.5-0.1c3-0.1,7.1-0.2,11.2-0.2c10.3,0,12.4,0.7,12.8,1l1.1,1.3l2.5-3
		l1.8-1.8l-3.1-2.7L327.9,171z"/>
	<path d="M275.9,479.5l0,0.9l1.2,0.6c1.5,1,5.5,1.1,6.8,1.1c0,0,0,0,0,0c2.6,0,4.3-0.3,5.4-0.9l1.4-0.9v-2.8l-1.3-0.2
		c-2.5-0.3-3.5-1.2-5-2.3c-0.3-0.2-0.6-0.5-0.9-0.7c0.1-2.1,0.5-5,0.9-8.1c1.1-8.9,1.8-15.4,0.1-18.4c-2.2-3.6-6.5-4.3-10.6-5
		c-0.9-0.1-1.8-0.3-2.6-0.5v-12l0-0.2c-0.2-2-0.9-3.4-1.5-4.9c-0.6-1.4-1.2-2.8-1.3-4.7l1.5-0.2l0.3-0.9c0.5-1.5,1.5-5.5,0.7-8.7
		l-0.1-0.3c-1.2-2.6-3.6-3-5.4-3c-0.8,0-1.6,0.1-2.4,0.1l-0.6,0.1l-3.3,3.6l0.1,0.7c0.3,1.5,0.8,2.8,1.3,4.1
		c0.3,0.7,0.5,1.3,0.7,1.9c0.9,2.8-1.2,4.2-4.5,6c-0.8,0.4-1.6,0.8-2.2,1.3c-1.4,1-2.3,2.4-3.1,3.7c-0.4,0.6-0.8,1.3-1.2,1.8
		l-0.4,0.5l0,0.6c0.4,4.6,4,7.6,6.9,9.9c0.6,0.5,1.2,1,1.8,1.5c-2,4.1-0.8,9.4,0.5,14.5c0.8,3.3,1.5,6.5,1.2,8.8
		c-1.3,0.4-5.5,0.5-8.3,0.6c-3.9,0.1-7.3,0.2-9,0.8l-0.2,0.1l-1.8,1.4l0.1,0.8c0.1,1.6,1,9.4,4.2,11l0.3,0.1l4.4,0.3l1.9-1.9
		l-0.3-0.9c-0.4-1-0.8-1.7-1.2-2.3c-0.4-0.7-0.8-1.2-0.9-2.4c1.9,0.1,3.7,0.2,5.5,0.3c2.7,0.2,5.4,0.4,8.4,0.4c1,0,2,0,2.9-0.1
		l0.8,0l0.4-0.6c3.4-5.2,5-11.3,5.1-18.6c0.1,0,0.3,0,0.4,0l0.8,0c1.2,0,2.5-0.1,3.6-0.6h0c-0.8,5.6-1.6,11.9,0,18.1
		c-0.1,0.9-0.3,1.3-0.5,2C276.4,476.1,275.9,477.3,275.9,479.5z M258.6,435.6c-0.5-0.6-1-1.2-1.3-1.7l0.8-0.6
		c0.1,0.4,0.2,0.8,0.2,1.1C258.4,434.8,258.5,435.2,258.6,435.6z"/>
	<path d="M423.5,460.2c2.5-2.1,4.5-3.8,8.9-3.9c0.4,3.1,0.8,6.2,1.2,9.3c0.6,4.9,1.2,9.9,2,14.7l0.1,0.7l0.6,0.4
		c1.8,1.1,4.8,1.3,7.1,1.4c0.4,0,0.7,0,1,0.1l0.7,0l2.9-2.9l-3.5-0.7c-1.9-0.4-3.8-0.7-4.4-1.9c-1.2-3-0.7-7-0.2-10.8
		c0.4-3,0.7-5.8,0.4-8.4c-0.3-2.1-0.8-4-1.2-5.9c-0.5-1.9-1-3.8-1.1-5.4c1.1-0.4,2.3-0.7,3.5-1c0.8-0.2,1.6-0.4,2.3-0.7l0.5-0.2
		l0.3-0.4c1-1.4,1.5-2.3,1.5-5l0-0.4l-1.4-2.5l-0.5-0.2c-1.1-0.4-2.1-0.5-3.1-0.5c-2.8,0-5.2,1.5-6.4,4.1l-1.9-1.2l-1.8-6.9
		l-5.3-15.4c-0.3-1,0.1-1.8,0.5-2.7c0.2-0.4,0.3-0.8,0.5-1.2l0.7-2.3l-2.3,0.3c0-0.2,0-0.5,0-1.1l0.5-10.9l-2.7,8.2l-1.3,0.3l-0.2,0
		c-0.1,0-0.3,0.1-0.4,0.2H419l0.5,1l-0.7,0.2l0.1,1.2c0.2,2,0.9,3.3,1.5,4.5c0.4,0.8,0.7,1.5,0.9,2.4c0.7,2.8,0.9,5.3,1.1,7.8
		c0.2,2.5,0.4,5,1.1,8l1.6,5.3c-1.2,4.7-7,6.7-12.7,8.7c-2.9,1-5.6,1.9-7.7,3.2l-7.9,6.5l0.7,2.7c-11.5,6.4-19.6,12.3-24.8,18
		l-0.3,0.3l-0.5,2.7l1.6,0.8c2.2,1.1,4.2,2.2,8.1,2l0.9,0l0.4-0.8c0.7-1.4,0.6-3.1,0.5-4.8c7.5-0.6,15.3-4.1,19.6-7.4
		c0,0,0,0,0.1,0.1c0.1,0.2,0.3,0.3,0.6,0.6l0.8,0.7l14.7-7.2C420.9,462.5,422.3,461.3,423.5,460.2z"/>
	<path d="M581.9,309.6l-0.7-0.5c-0.8-0.5-1.6-0.8-2.4-0.8c-1.4,0-2.4,0.7-3.2,1.3c-0.4,0.3-0.9,0.6-1.1,0.7
		c-1.4,0.1-3.2-0.1-5.1-0.4c-1.4-0.2-2.9-0.4-4.4-0.5c0.3-3.9,1.2-7.8,1.9-8.6h0.2l0.2,1.8l0.9,0.3c2.6,1,5,1.5,7.8,1.8l0.6,0.1
		l3-2.7l0.1-0.5c0.5-2.1,0.9-4.8-0.7-6.6c-0.9-1.5-2.1-2.2-3.6-2.2c-1,0-1.9,0.3-2.8,0.7c-1,0.4-2,0.7-2.8,0.5c-1-0.2-2-0.7-3.1-1.2
		c-1.9-0.9-4.1-1.8-6.7-1.8c-0.5,0-1,0-1.5,0.1c-2.5,0.3-4.3,1.4-6,2.4c-1.2,0.7-2.3,1.4-3.6,1.7c-1.2,0.3-2.6,0.1-3.8-0.3l-2.3-9.2
		v8.6c-0.5-0.1-1-0.1-1.5-0.1c-2.6,0.2-4.7,0.9-6.6,1.7c-2.1,0.8-4,1.5-6.8,1.7l-1.4,0.1v2.5c-0.9,0.3-2,0.1-3.2-0.1
		c-0.9-0.1-1.9-0.3-3-0.3c-0.7,0-1.4,0.1-2.1,0.2l-12,3.6c-0.5,0-1.1-0.2-1.8-0.4c-1-0.3-2.2-0.6-3.4-0.6l-0.9,0l-0.4,0.9
		c-1.4,3.1-0.8,7.8-0.1,11l0.1,0.6l0.8,0.5c0.9,0.6,1.5,0.9,3.1,1l0.7,0l1.2-1.2l-0.5-3.9l1.3-1.6c3-0.1,6-0.7,8.9-1.2
		c3.3-0.6,6.4-1.1,9.4-1.1c1.1,0,2.1,0.1,3.1,0.2l1.1,3.2l1.2-0.1c5.3-0.7,9.6-1.7,13.7-2.7v3.8l0.5-1.5v3.7l2.3-6.8
		c3.6-0.9,7.1-1.8,11.1-2.4c0,4.5,0.8,7.6,2.6,9.5c2,2.1,4.7,2.3,6.6,2.3c1.8,0,3.9-0.3,6.1-0.5c2.4-0.3,5-0.6,7.6-0.7l1.4,0
		L581.9,309.6z"/>
	<path d="M453.1,505.9c2.5,0,5.2-0.2,7.7-0.4c2.5-0.2,5.1-0.4,7.4-0.4c3.3,0,5.6,0.4,7.2,1.3l1.1,0.6l2.2-2.6l0.2-0.3
		c0.5-0.9,0.8-2.7-2.2-4.6l-1-0.6l-0.8,0.8c-0.2,0.2-1.9,1.1-12.3,1.1c-4,0-8.1-0.1-11.2-0.2c-1.7-0.1-3.1-0.1-4.1-0.1l-1.5,0v4.6
		l1.1,0.3C448.7,505.7,450.7,505.9,453.1,505.9z"/>
	<path d="M479.7,341.6c0.1-0.1,0.3-0.3,0.4-0.4l0.4-0.4v-1.5l-3-3l-0.7,0c-0.8,0-1.2,0.4-1.6,0.7c-0.3,0.3-0.5,0.4-0.8,0.5h-27.7
		v3.7l0,1.5l1.5,0c1.7,0,6.1-0.1,11-0.1c11.8,0,15.1,0.4,15.9,0.7l0.4,0.7l1.1-0.3C478.3,343.1,479,342.3,479.7,341.6z"/>
	<path d="M441.9,293.4c-1.1,0.3-2.8,0.5-4.9,0.5c-1.9,0-3.8-0.1-5.8-0.2c-1-0.1-2-0.1-2.8-0.2c-0.3-2.3,1.1-4,3.4-6.4
		c1.2-1.3,2.5-2.6,3.2-4.2l0.2-0.4l-0.1-0.5c-0.6-3.7-3.7-5.3-6.3-6.7c-2.2-1.1-4.2-2.2-5.3-4.3c0.2-0.4,0.4-0.9,0.6-1.4
		c0.8-1.6,2-3.9,0.5-6.6l-1.6-2.3l-0.5-0.1c-2.5-0.7-5-0.5-7.4,0.5l-0.7,0.3l-0.2,0.7c-0.6,2.3-0.4,4.3-0.1,6.3
		c0.1,0.9,0.2,1.8,0.3,2.8l0,1.1l2.1,0.5c0.1,1.5-0.7,2.5-1.9,4c-0.7,0.8-1.5,1.7-2,2.8l-1.9,11.4c-1.5,0.3-3.1,0.4-5,0.4
		c-1.1,0-2.2,0-3.3-0.1c-1,0-2.1-0.1-3.1-0.1c-2.6,0-5.6,0.3-8.2,2.2c-3.2,2.4-4.6,6-5.8,9.3c-1.4,4-2.4,6.3-5.2,6.3
		c-1.4,0-3.2-0.5-5.5-1.6l-0.3-0.1h-2.7l0.2,1.7c0.4,3.6,6.5,9,9.5,9.7l0.8,0.2l0.6-0.6c1.5-1.4,1.8-2.4,2.2-3.5
		c0.1-0.5,0.3-0.9,0.6-1.5c0.7-1.5,2.1-2.5,3.6-3.6c2.4-1.7,5.4-3.8,6-8.7l2.1,0.3l0.5,2.3l0.9,0.3c3.7,1.1,8.1,1.7,11.7,1.7
		c7.5,0,10.2-2.7,11.2-5l0.1-0.3c0.3-1.5,0.7-3.2,1.1-4.8l0.8,4.7l-1,18.9h5.4l0.5-5.5h14.1c0.2,0.9,0.2,2.1,0.3,3.1
		c0,0.4,0,0.7,0,1l0.1,1.4h5.3l0-1.5c0-3-0.1-6.1-0.1-9c-0.2-11.6-0.5-22.6,2.9-33l0.5-1.5l-3.4-1h-3.2L441.9,293.4z M429.7,309.4
		c-0.3,0-0.6,0-0.9,0l0.4-9.7l12.9,0.2c0.5,2,0.6,7.6,0.3,9.4c-0.6,0.1-2,0.4-5.5,0.4C434.3,309.6,431.7,309.5,429.7,309.4z
		 M425.5,283l1.5,0.2l-3.2,7.8C424.5,287.7,425.2,284.7,425.5,283z"/>
	<path d="M476.7,171.9l-0.7,2.2c-1.1,0.3-3.5,0.6-9.1,0.6c-4,0-8.4-0.2-12-0.3c-2.3-0.1-4.2-0.1-5.5-0.2l-1.3,0l-0.5,4.3l1.8,0.9
		l0.4,0c1,0,2.5-0.1,4.3-0.1c3.1-0.1,7-0.2,10.8-0.2c10,0,11.7,0.9,11.9,1.1l1.1,1.1l4.2-4.7L476.7,171.9z"/>
	<rect x="31.2" y="28" width="68.3" height="11"/>
	<rect x="30.7" y="42" width="568" height="1"/>
	<rect x="66.2" y="168.5" width="53" height="10.5"/>
	<rect x="223.1" y="168.5" width="37.3" height="10.5"/>
	<rect x="370.1" y="168.5" width="37.3" height="10.5"/>
	<rect x="508.2" y="168.5" width="67.3" height="10.5"/>
	<rect x="56.8" y="331.7" width="72" height="10.5"/>
	<rect x="223.1" y="331.7" width="37.3" height="10.5"/>
	<rect x="370.1" y="333.4" width="37.3" height="17"/>
	<rect x="508.2" y="331.7" width="67.3" height="10.5"/>
	<rect x="56.8" y="497.4" width="72" height="17.2"/>
	<rect x="223.1" y="495.6" width="37.3" height="10.5"/>
	<rect x="363.3" y="496.6" width="54.3" height="15.5"/>
	<rect x="508.2" y="495.6" width="67.3" height="10.5"/>
	<polygon points="74.8,539.9 27.3,539.9 27.3,564.9 27.3,567.4 27.3,589.9 27.3,592.4 27.3,615.9 27.3,617.4 27.3,643.4 
		136.7,643.4 136.7,615.9 128.1,615.9 128.1,592.4 145,592.4 145,564.9 74.8,564.9 	"/>
	<polygon points="28.5,650.9 28.5,662.4 28.5,664.4 28.5,679.7 118,679.7 118,662.4 96.3,662.4 96.3,650.9 	"/>
	<rect x="28.9" y="692.9" width="101" height="10.5"/>
	<rect x="28.8" y="687.4" width="108.5" height="1"/>
	<rect x="168.1" y="542.6" width="1" height="200.8"/>
	<rect x="28.8" y="706.4" width="108.5" height="1"/>
	<rect x="473.8" y="760.4" width="124.5" height="10"/>
	<rect x="173.3" y="540.9" width="424" height="207"/>
	<rect x="25.3" y="764.9" width="14" height="13"/>
</g>
</svg>
