<?xml version="1.0" encoding="utf-8"?>
<!-- Generator: Adobe Illustrator 18.1.1, SVG Export Plug-In . SVG Version: 6.00 Build 0)  -->
<!DOCTYPE svg PUBLIC "-//W3C//DTD SVG 1.1//EN" "http://www.w3.org/Graphics/SVG/1.1/DTD/svg11.dtd">
<svg version="1.1" id="NYTTOC_1_xA0_Image_1_" xmlns="http://www.w3.org/2000/svg" xmlns:xlink="http://www.w3.org/1999/xlink"
	 x="0px" y="0px" viewBox="0 0 634.3 777.6" enable-background="new 0 0 634.3 777.6" xml:space="preserve">
<g>
	<rect x="34.2" y="108.3" transform="matrix(1 5.295605e-03 -5.295605e-03 1 0.5806 -1.6794)" width="566.5" height="1"/>
</g>
<g>
	<rect x="33.2" y="153.3" transform="matrix(1 5.295605e-03 -5.295605e-03 1 0.8189 -1.6734)" width="566.5" height="1"/>
</g>
<g>
	<rect x="33.2" y="198.1" transform="matrix(1 2.647826e-03 -2.647826e-03 1 0.5268 -0.8371)" width="566.5" height="1"/>
</g>
<g>
	<rect x="33.2" y="243.1" transform="matrix(1 2.647826e-03 -2.647826e-03 1 0.646 -0.8369)" width="566.5" height="1"/>
</g>
<g>
	<rect x="32.7" y="290" transform="matrix(1 2.643165e-03 -2.643165e-03 1 0.7704 -0.8353)" width="567.5" height="2"/>
</g>
<g>
	<rect x="186.7" y="28.8" width="259.5" height="24"/>
	<rect x="32.7" y="91.3" width="48.5" height="9"/>
	<rect x="32.7" y="113.3" width="20.5" height="21.5"/>
	<rect x="80.2" y="113.3" width="67.5" height="11.5"/>
	<rect x="466.7" y="114.3" width="61.6" height="11.5"/>
	<polygon points="384.9,126.3 398.7,126.3 398.7,112.8 177.2,112.8 177.2,122.8 177.2,126.3 177.2,136.3 384.9,136.3 	"/>
	<rect x="32.7" y="158.6" width="20.5" height="21.5"/>
	<rect x="80.2" y="158.6" width="35.9" height="11.5"/>
	<rect x="466.7" y="159.6" width="61.6" height="11.5"/>
	<polygon points="404.6,158.1 177.2,158.1 177.2,168.1 177.2,171.6 177.2,181.6 409.5,181.6 409.5,168.1 404.6,168.1 	"/>
	<rect x="32.7" y="202.6" width="20.5" height="21.5"/>
	<rect x="80.2" y="202.6" width="73.6" height="11.5"/>
	<rect x="466.7" y="203.6" width="58.9" height="11.5"/>
	<polygon points="251,215.6 392.3,215.6 392.3,202.1 177.2,202.1 177.2,212.1 177.2,215.6 177.2,225.6 251,225.6 	"/>
	<rect x="32.7" y="247.6" width="20.5" height="21.5"/>
	<rect x="80.2" y="247.6" width="73.6" height="11.5"/>
	<rect x="466.7" y="248.6" width="56.7" height="11.5"/>
	<polygon points="177.2,257.1 177.2,260.6 177.2,270.6 342.1,270.6 342.1,260.6 406.7,260.6 406.7,247.1 177.2,247.1 	"/>
</g>
<rect x="94.4" y="345.4" width="197.4" height="246.7"/>
<rect x="337" y="346.4" width="197.4" height="246.7"/>
<g>
	<rect x="28.2" y="737.2" transform="matrix(1 2.647826e-03 -2.647826e-03 1 1.9545 -0.822)" width="566.5" height="1"/>
</g>
<rect x="185.2" y="608.1" width="16.7" height="18"/>
<rect x="426.8" y="608.1" width="16.7" height="18"/>
<rect x="89.2" y="627.5" width="207.3" height="14.7"/>
<rect x="100.5" y="638.3" width="185.1" height="15.2"/>
<rect x="349.5" y="629.5" width="174.5" height="14.7"/>
<rect x="399.7" y="640.3" width="72.1" height="15.2"/>
<rect x="609.2" y="490.8" width="13" height="238"/>
<rect x="490.2" y="751.8" width="110" height="11"/>
<rect x="26.2" y="750.8" width="14" height="10"/>
</svg>
