<?xml version="1.0" encoding="utf-8"?>
<!-- Generator: Adobe Illustrator 18.0.0, SVG Export Plug-In . SVG Version: 6.00 Build 0)  -->
<!DOCTYPE svg PUBLIC "-//W3C//DTD SVG 1.0//EN" "http://www.w3.org/TR/2001/REC-SVG-20010904/DTD/svg10.dtd">
<?xml-stylesheet type="text/css" href="css/svg.css" ?>
<svg version="1.0" id="People_x5F_contents_x5F_2_xA0_Image_1_"
	 xmlns="http://www.w3.org/2000/svg" xmlns:xlink="http://www.w3.org/1999/xlink" x="0px" y="0px" viewBox="0 0 555.8 747.4"
	 enable-background="new 0 0 555.8 747.4" xml:space="preserve">
<rect x="35.9" y="16.7" width="78" height="17"/>
<rect x="205.6" y="43.7" width="347.3" height="328"/>
<g>
	<polygon points="184.9,60.7 184.9,49.7 55.9,49.7 55.9,43.7 36.9,43.7 36.9,60.7 36.9,61.8 36.9,71.8 36.9,72.7 36.9,84.7 
		173.2,84.7 173.2,72.7 196.4,72.7 196.4,60.7 	"/>
	<polygon points="182.9,108.7 175.6,108.7 175.6,97.7 57.9,97.7 57.9,91.7 36.9,91.7 36.9,108.7 36.9,109.8 36.9,119.8 36.9,120.7 
		36.9,132.7 191.4,132.7 191.4,119.8 182.9,119.8 	"/>
	<polygon points="162.1,145.7 57.9,145.7 57.9,139.7 36.9,139.7 36.9,156.7 36.9,157.8 36.9,168.7 188.6,168.7 188.6,156.7 
		162.1,156.7 	"/>
</g>
<rect x="36.9" y="167.8" width="124.8" height="12.9"/>
<g>
	<path d="M192.6,197v170h-150V197H192.6 M197.6,192h-5h-150h-5v5v170v5h5h150h5v-5V197V192L197.6,192z"/>
</g>
<polygon points="113.3,223.7 113.3,208.3 51.9,208.3 51.9,223.7 51.9,239 132.4,239 132.4,223.7 "/>
<rect x="51.9" y="241.7" width="130.7" height="116.7"/>
<g>
	<rect x="39.9" y="381.8" width="490.7" height="1"/>
</g>
<g>
	<rect x="530.1" y="367.7" width="1" height="339.3"/>
</g>
<rect x="39.9" y="382.3" width="177.3" height="25"/>
<rect x="187.3" y="415.7" width="177.3" height="21.8"/>
<rect x="187.9" y="436.3" width="177.3" height="121.2"/>
<rect x="379.9" y="393" width="141.3" height="13.3"/>
<rect x="37.9" y="417.7" width="145.3" height="293.3"/>
<rect x="187.3" y="551" width="103.3" height="90.9"/>
<rect x="360.6" y="436.3" width="28" height="12.7"/>
<rect x="360.6" y="447.7" width="28" height="12.7"/>
<rect x="360.6" y="459.3" width="30.1" height="12.7"/>
<rect x="360.6" y="471" width="51.3" height="13.4"/>
<rect x="360.6" y="483.3" width="30.1" height="13.4"/>
<rect x="360.6" y="495.7" width="49" height="12.7"/>
<rect x="360.6" y="507.3" width="48.8" height="13.4"/>
<rect x="360.6" y="519.7" width="24.3" height="13.4"/>
<rect x="360.6" y="531.7" width="35.8" height="13.4"/>
<rect x="360.6" y="544" width="37.5" height="13.4"/>
<rect x="274.3" y="556.3" width="30.1" height="12.7"/>
<rect x="274.3" y="568" width="33" height="13.4"/>
<rect x="274.3" y="580.3" width="31.3" height="13.4"/>
<rect x="274.3" y="592.7" width="23.2" height="12.7"/>
<rect x="274.3" y="604.3" width="33.2" height="13.4"/>
<rect x="274.3" y="616.7" width="39.5" height="13.4"/>
<rect x="274.3" y="628.7" width="35.8" height="13.4"/>
<rect x="187.4" y="641" width="88.7" height="13.4"/>
<circle cx="379.9" cy="691" r="21"/>
<rect x="190.9" y="701.7" width="119" height="8"/>
<g>
	<path d="M219.6,698.4l-28-6.8l22-12.4l-5.2-20l1-0.2l5.1,19.7l6-3.4c0.2-0.5,0.4-0.9,0.7-1.4c4.9-9.5,15.1-12.6,18.1-12.6
		c0.6,0,0.8,0.3,0.9,0.5c0.4,1.2-2.8,4.3-5.6,6.7l-13.3,7.5c-0.6,1.5-0.6,2.7,0,3.4c1.3,1.6,5.6,0.7,7.1,0.3l0.3,1
		c-0.3,0.1-6.2,1.9-8.2-0.6c-0.7-0.8-0.8-1.9-0.5-3.3l-5.3,3L219.6,698.4z M194.3,691.2l24,5.8l-4.4-16.9L194.3,691.2z M239.2,662.2
		c-2.2,0.1-12.2,2.5-17.1,12c0,0,0,0.1-0.1,0.1l12-6.8C236.3,665.6,238.8,663.1,239.2,662.2z"/>
</g>
<g>
	<path d="M242.3,677.9c-1.7,0-3.2-0.7-3.6-2.2l1-0.3c0.4,1.5,2.6,1.6,4.1,1.2c1.4-0.4,2.8-0.9,4-1.7l0-1c-1.1-0.2-2.2-0.8-3.1-1.6
		c-1.3-1.2-2-3.1-1.8-4.9c0.2-1.6,1-3,2.2-3.8l0.2-0.1l1.6-0.2l0.1,1l-1.5,0.2c-0.9,0.6-1.5,1.7-1.6,3c-0.1,1.6,0.4,3.1,1.5,4.1
		c0.8,0.7,1.9,1.2,3,1.4l0.4,0.1l0,2.4l-0.2,0.1c-1.4,0.9-2.9,1.6-4.5,2C243.5,677.9,242.9,677.9,242.3,677.9z"/>
</g>
<g>
	<path d="M256.7,677.9l-0.2-1c1.2-0.3,2.6-0.6,3.6-1.4c0.8-0.6,1.4-1.7,1.2-2.7c-2.1,0-4.2-0.5-5.9-1.5c-0.4-0.2-0.9-0.5-1.1-1.1
		c-0.1-0.3-0.2-0.6-0.2-0.9c0-2.2,1.1-4.4,2.9-6c1.9-1.6,4.2-2.3,6.4-2l-0.2,1c-1.9-0.3-3.9,0.3-5.6,1.7c-1.6,1.4-2.6,3.3-2.6,5.2
		c0,0.2,0,0.4,0.1,0.5c0.1,0.2,0.4,0.4,0.7,0.6c1.7,1,3.8,1.4,5.8,1.3l0.4,0l0.1,0.3c0.6,1.5-0.2,3.2-1.4,4.2
		C259.4,677.2,258,677.6,256.7,677.9z"/>
</g>
<polygon points="319.3,567.3 418.6,562 422.9,629.7 421.9,572.7 521.9,573.3 523.6,707 423.9,707.7 422.3,694 325.6,699.7 "/>
<polygon points="421.9,566 522.9,566.7 525.3,566.3 525.3,556 521.9,556 520.9,430.3 420.3,431.7 "/>
<rect x="40.6" y="725" width="84" height="10"/>
<rect x="29.9" y="723.7" width="8.6" height="11.3"/>
<g>
	<rect x="35.9" y="33.2" width="493.3" height="1"/>
</g>
<g>
	<rect x="528.8" y="33.7" width="1" height="27.3"/>
</g>
</svg>
