<?xml version="1.0" encoding="utf-8"?>
<!-- Generator: Adobe Illustrator 18.0.0, SVG Export Plug-In . SVG Version: 6.00 Build 0)  -->
<!DOCTYPE svg PUBLIC "-//W3C//DTD SVG 1.1//EN" "http://www.w3.org/Graphics/SVG/1.1/DTD/svg11.dtd">

<?xml-stylesheet type="text/css" href="css/svg.css" ?>

<svg version="1.1" id="Layer_1" xmlns="http://www.w3.org/2000/svg" xmlns:xlink="http://www.w3.org/1999/xlink" x="0px" y="0px"
	 viewBox="0 0 627 784" enable-background="new 0 0 627 784" xml:space="preserve">
<g>
	<path fill="#231F20" d="M592.7,74.5l0.8,0.8h2.9l0.9-1.3c1.5-2.3,3.3-7.3,1.5-10.8c-0.6-1.1-2.1-3-5.5-3.1l-1.7,0l-0.8,1.5
		C588.2,66.1,589,71,592.7,74.5z"/>
	<path fill="#231F20" d="M533.9,69.4v-4.3l-3.3-2.2l-3.5-0.4l-7.1,3.7l-0.2,1.5c-0.2,1.2-0.2,2.2,0.6,3.7l0,0
		c1.1,1.9,2.8,2.9,4.8,2.9c3.1,0,5.8-2.4,7.3-3.7c0.1-0.1,0.3-0.2,0.4-0.3L533.9,69.4z"/>
	<path fill="#231F20" d="M472.4,85.5l1.3,0.9l1.5-0.6c2.4-0.9,3.4-2.5,3.8-3.7c1.1-3.3-1.1-7-2.5-9.3c-0.1-0.2-0.2-0.3-0.3-0.5
		l-0.7-1.2l-4.9-0.7l-1.8,3l-0.1,0.2c-1,2.2-0.9,4.8,0.3,7.4C469.7,82.8,471,84.6,472.4,85.5z"/>
	<path fill="#231F20" d="M535,81.1l0.6,0.8l1,0.2c1.2,0.3,2.4,0.5,3.5,0.5c1.2,0,2.3-0.2,3.3-0.5l1.5-0.6l0.8-4.1l-0.9-1.1
		c-2.1-2.5-4-3.8-7.1-4.8l-0.7-0.2l-3.8,0.8l-0.3,1.9c-0.6,3.4,0.9,5.3,2,6.8L535,81.1z"/>
	<path fill="#231F20" d="M507.2,73.9l0.1-0.8l-0.9-2.6l-1.1-0.5c-1.1-0.6-2.2-0.8-3.7-0.8c-0.1,0-0.2,0-0.3,0l-0.6,0l-5.8,2.5
		l-1.1,5.6l-0.8-0.1l-0.9,0.6c-0.1,0.1-0.2,0.1-0.4,0.2c-0.6,0.3-1.4,0.7-2.2,1.9l-0.2,0.3l-0.1,0.3c-0.7,1.8-1,4.7,1.5,8
		c1.4,1.9,3.3,3.4,5,4.7c1,0.8,2,1.6,2.4,2.1l0.9,1.1h4.8l0.8-1.4c1.3-2.2,1.6-4.9,1-7.6c-0.5-2.3-1.8-4.5-3.5-6.1l-1.2-1.1
		c0.7-0.1,1.3-0.3,2-0.7C505.1,78.5,506.7,76.4,507.2,73.9z M499.2,80.7c-0.1-0.2-0.3-0.4-0.4-0.6c0.4,0.1,0.9,0.1,1.3,0.1
		c0.1,0,0.3,0,0.4,0L499.2,80.7z"/>
	<path fill="#231F20" d="M428.6,91l3.9,1.3l1-2.5c0.7-1.9,1-4.9-0.1-7.2l-0.2-0.4l-0.3-0.3l-0.1-0.1c-0.7-0.7-1.3-1-2.4-1.2
		c-0.1,0-0.2,0-0.4,0l-2.3-0.3l-0.8,2.1c-0.7,1.9-0.8,4-0.1,6.4l0.2,0.7L428.6,91z"/>
	<path fill="#231F20" d="M464.7,94.2c1-4.2,0.2-6.9-0.7-10l-0.4-1.5l-4-2.3l-3.7,1.8l-0.2,1.5c-0.4,3.1-0.2,7,0.6,9.6l0.3,0.8
		l3.1,2.6l4.6-0.8L464.7,94.2z"/>
	<path fill="#231F20" d="M603.3,99.6l3.3,1.7l1.5-1.3c1.7-1.5,3-2.9,4-5.2l0.6-1.3l-3.7-6.9h-4l-0.9,1.3c-2.1,3-2.5,6.9-1.3,10.7
		L603.3,99.6z"/>
	<path fill="#231F20" d="M465.3,94l0.5,3.1l2.3,2.9h4.7c0.2,0.2,0.3,0.5,0.6,0.8c0.6,1,1.5,2.3,3.1,3.2l0.8,0.5l4.6-0.7l0.5-1.9
		c1.1-4.5-0.7-7.1-2-9c-0.7-1-1.3-1.8-1.6-2.9l-0.3-1.2l-1-0.6l-0.2-0.1c-1.1-0.7-2-1.2-4.1-1.3l-0.9,0l-0.8,0.5
		c-2.4,1.5-4.3,3-5.8,5.9L465.3,94z"/>
	<path fill="#231F20" d="M458.1,112l1.4-0.1l0.8-1.2l0.1-0.2c0.7-1.1,1-1.9,1.1-3.7l0-1.2l-0.8-0.9c-1.2-1.3-2.4-2.4-4-3.4
		c0,0,0-0.1,0-0.1c0.1-0.8,0.2-1.8-0.1-3.3l-0.3-1.4l-2.6-1.3l-3.6-0.5l-1,1c-0.4,0.4-0.9,0.7-1.5,1c-1.1,0.6-2.4,1.4-3.4,3
		l-0.5,0.7v2.8l0.6,0.8c0.4,0.5,0.8,1,1.1,1.5c2.2,3,4.7,6.4,10.8,6.4C456.8,112.1,457.4,112.1,458.1,112z"/>
	<path fill="#231F20" d="M590.2,116.5l3.6,1.8l1.4-1.1c2.5-2,3.9-6,3.7-10.8l-0.1-1.8l-4.8-2.1l-4.4,2.9l-0.3,1
		c-0.9,3.3-0.8,6.2,0.3,9.1L590.2,116.5z"/>
	<path fill="#231F20" d="M451.3,117.9c0.7-1.7,0.7-3.4,0-4.9l-0.1-0.2l-0.1-0.2c-0.8-1.3-1.7-1.7-2.5-2c-0.1,0-0.2-0.1-0.3-0.1
		l-1.4-0.5l-1.2,0.8c-0.3,0.2-0.7,0.5-1.1,0.7c-1.5,1-3.2,2-4.5,3.9l-0.5,0.7v3.9l3.1,2.5h4l0.5-0.2
		C448.9,121.6,450.6,119.8,451.3,117.9z"/>
	<path fill="#231F20" d="M189.6,127.6l0-1.4l-4.8-3.8l-0.6-4.1l-4.6-0.8l-0.9,0.6c-0.8,0.5-1.8,0.9-3,1.4c-2.8,1.2-5.9,2.5-7.4,5.5
		l-0.1,0.2l-0.1,0.2c-0.6,1.8-0.1,3.1,0.4,4.1l0.1,0.2l0.1,0.1c0.6,0.8,1.4,1.2,2,1.5l0.2,1.6l0.3,0.6c1.7,2.9,4.9,4.7,8.2,4.7
		c2.4,0,4.7-0.9,6.4-2.7C187.3,134,189.6,131.7,189.6,127.6z"/>
	<path fill="#231F20" d="M421.8,119l-2.8,0.9l-0.3,1.8c-0.4,2.5,0.7,5.8,2.7,8.1c1.6,1.9,3.6,2.9,5.6,2.9c0.8,0,1.6-0.1,2.3-0.4
		l0.3-0.1l0.2-0.2c0.1,0,0.1-0.1,0.2-0.1c0.9-0.5,1.4-1.1,1.7-2.1c0-0.1,0-0.1,0.1-0.3c0.6-1.8,0.2-3.9-1.1-5.8
		c-1.7-2.3-5.1-4.7-8.3-4.7L421.8,119z"/>
	<polygon fill="#231F20" points="350.4,123.7 347.8,118.5 342.9,128.3 352.7,128.3 	"/>
	<polygon fill="#231F20" points="375.9,128 375.9,136.7 389.1,136.7 	"/>
	<path fill="#231F20" d="M447.2,143l1.3-0.6l0.3-1.4c1.1-5-2.3-7.8-3.6-8.9l-0.7-0.5l-5-0.5l-1.9,2.9l0,0.8c0,0.5,0.1,1.1,0.2,1.7
		l-3-1.9l-1.5,0.9c-0.9,0.6-1.7,1.3-2.2,2.1c-1.6-1.1-3.6-1.8-6.5-1.8c-0.2,0-0.5,0-0.7,0l-0.9,0l-0.7,0.5c-3,2.1-2.6,4.4-2.3,5.3
		c0.6,1.8,2.2,3.1,5.1,4c1.8,0.6,3.9,0.9,5.4,0.9c0.2,0,0.4,0,0.6,0l0.7-0.1c1.3,1.7,2.9,3.1,4.5,3.7l1.2,0.5l3.4-1.7l0.3-1.4
		c0.5-2.4,0.1-4.4-0.4-6.1c1.3,1.3,2.8,1.9,4.3,1.9C445.8,143.4,446.5,143.3,447.2,143z"/>
	<polygon fill="#231F20" points="357.2,146.2 362.4,143.6 362.2,143.1 357,145.7 	"/>
	<path fill="#231F20" d="M407,155.2l0.3-1.5c0-0.1,0-0.2,0.1-0.3l0.4,0.2h2.3l2.7-0.9l0.3-1.6c0.9-4.1-1.1-8.5-4.4-10.2l-0.4-0.2
		l-3.9-0.6l-1.6,2.4l-0.1,0.2c-0.4,1-0.6,2.1-0.6,3.2l-0.9-0.2l-2.4,3.3v5.5l1.5,0.8c0.8,0.5,1.8,0.9,3,0.9c0.9,0,1.7-0.3,2.3-0.5
		L407,155.2z"/>
	<path fill="#231F20" d="M335.1,155.2l-2.9,2.9v5.2l1.5,0.9c0.7,0.4,1.7,1,3.1,1c0.6,0,1.2-0.1,1.8-0.3l1.6-0.5l0.3-1.7
		c0.4-2.1,0.1-3.8-0.3-5l-0.5-1.7L335.1,155.2z"/>
	<path fill="#231F20" d="M349.4,169.6h4.4l0.8-0.8c0,0,0.1-0.1,0.1-0.1c0.6-0.5,1-1.1,1.1-2c0-0.1,0-0.1,0.1-0.3l0.1-0.5l-0.6-4.5
		l-5.6-1.1l-1,0.7c-0.1,0.1-0.3,0.2-0.4,0.2c-1.6,1-2.4,2-2.3,4.8l0,1.6L349.4,169.6z"/>
	<path fill="#231F20" d="M416.6,163c-2,2-3.1,5.9-2.5,8.8c0.4,2.1,1.6,3.7,3.4,4.5l0.4,0.2l4,0.6l1-1.6c0.7-1.1,1.2-2.5,1.5-4
		c1.8,1.3,4,2.1,5.8,2.8l0.6,0.2l0.6,0c3.3-0.1,6.7-2,9.3-5.2c2.4-2.9,3.7-6.5,3.7-9.7c-0.1-4.3-2.9-8.9-10.6-8.9
		c-0.2,0-0.4,0-0.7,0l-0.7,0l-0.6,0.3c-2.1,1.1-5.1,3.1-7.4,5.5c-2.2,2.2-3.2,4.3-3.7,6.1c-0.5-0.2-1.1-0.3-1.7-0.3l-1.4-0.1
		L416.6,163z"/>
	<polygon fill="#231F20" points="160,175.9 162.4,175.9 165.1,174.5 165.1,170.2 159.2,167.3 157.9,173.7 	"/>
	<path fill="#231F20" d="M391.9,187.1l0.9,0.4l2.3-0.5l2.5-0.8l0.3-1.6c1.1-5.4-2.2-8.3-4.3-10.2l-0.9-0.8l-4.2-0.5l-3.1,3.1
		l0.1,1.3C385.7,181.6,388.2,185.3,391.9,187.1z"/>
	<path fill="#231F20" d="M368,181.2v4.4l3.8,1.4l0.1,0c0.5,0.2,1.1,0.3,1.7,0.3c2.5,0,4.7-1.9,5.8-3.7l0.5-0.9l-0.8-4.6l-4.8-0.7
		L368,181.2z"/>
	<path fill="#231F20" d="M621.4,186.8c-1.3,2.4-1.1,5.6,0.6,8.4c1.5,2.5,3.8,4.1,6.1,4.1c1.8,0,3.4-0.9,4.5-2.6l0.5-0.7l0-0.8
		c0.1-5.5-3.2-10.2-7.6-11.1l-1.7-0.3l-2.2,2.8L621.4,186.8z"/>
	<polygon fill="#231F20" points="404.7,194.1 405.3,187 400.1,183.1 397.2,190.3 399.5,194.1 	"/>
	<path fill="#231F20" d="M212.3,190.2c-0.1,0.1-0.1,0.2-0.2,0.2c-0.6,1-0.9,1.7-1,3.3l-0.1,1.7l3.2,1.9l4.1,0.5l2.7-3.1l1.1-1.3
		l-1.2-3.5l1.5-0.2v-5.6l-0.5-0.7c-1.2-1.8-2.5-2-4-2l-0.3,0l-1.5,0l-2.3,3l0.1,1.1c0.1,1.4,0.4,2.2,1,3l-2,0.4L212.3,190.2z"/>
	<path fill="#231F20" d="M191.7,199.2h3.8l2-3.9l-0.6-3.2l-0.9-0.7c-0.2-0.1-0.3-0.3-0.5-0.4c-1.1-1-2.3-1.8-4.8-1.9l-2.2-0.1
		l-0.6,2.2c-0.9,3,0.3,5.9,3.2,7.6L191.7,199.2z"/>
	<path fill="#231F20" d="M626.8,199.4c-0.2,0-0.4,0-0.6,0h-1.8l-0.8,1.4l-0.1,0.2c-0.7,1.1-1,1.9-1.1,3.7l0,1.1l0.7,0.8
		c0.2,0.2,0.3,0.4,0.5,0.6c1.1,1.3,2.4,2.9,4.7,3.8l0.2,0.1l4.9,1V202l-1.2-0.9C630.9,200.1,629.6,199.4,626.8,199.4z"/>
	<polygon fill="#231F20" points="188.1,206.9 189.5,201.2 183,199.9 180,201.9 180,207.1 185,210 	"/>
	<polygon fill="#231F20" points="148.3,241.2 150.7,243.6 153.5,243.6 156.1,242.3 156.7,235.3 151.2,234.6 148.3,236.5 	"/>
	<path fill="#231F20" d="M616.4,281.6l0.6-0.8V277l-2.4-3.4l-4.5-0.8l-5.2,1.7l-0.5,0.8c-0.1,0.1-0.1,0.2-0.2,0.3
		c-0.9,1.2-1.3,2.1-1.3,4.3l0,1.4l1.1,0.9c1.8,1.4,4.3,2.2,6.5,2.2C613,284.3,615.1,283.3,616.4,281.6z"/>
	<rect x="150" y="316.8" fill="#231F20" width="0.5" height="5.8"/>
	<polygon fill="#231F20" points="177.6,329.1 180,326.7 180,321.4 174,321.4 172.2,327.4 175.5,329.1 	"/>
	<path fill="#231F20" d="M603.7,334.1l-4.4,2.4l-0.3,1.2c-0.5,2-0.5,3.4,0,5.3l0.3,1.1l1,0.6c1.3,0.8,2.6,1.6,5.4,1.6
		c0.1,0,0.2,0,0.3,0l1.7,0l0.8-1.5c1-2,1.2-4.4,0.3-6.4c-0.7-1.8-2.1-3.2-3.9-3.9L603.7,334.1z"/>
	<path fill="#231F20" d="M608.9,378.7l1.2-0.3l0.7-1.1c0.8-1.3,1.3-2.4,1.4-4.6l0-1.5l-1.2-0.9c-0.2-0.2-0.4-0.3-0.7-0.5
		c-1.1-0.9-2.7-2.2-5.4-2.4l-1.9-0.2l-1.7,3.4l0.4,6.1l1.3,0.8c1,0.6,2.3,1.3,4.2,1.3C607.7,378.9,608.3,378.8,608.9,378.7z"/>
	
		<rect x="284" y="373.1" transform="matrix(-0.7072 -0.707 0.707 -0.7072 219.912 843.0717)" fill="#231F20" width="1" height="5.8"/>
	<path fill="#231F20" d="M578.3,378.4l-0.2-0.2c-1.7-2.7-4.9-2.7-6-2.7l-1,0l-0.8,0.6c-1.9,1.5-2.4,2.7-2.3,5.5l0,1l0.6,0.7
		c0.7,0.9,2.3,2.8,4.8,2.8c1.2,0,2.4-0.4,3.7-1.4l0.8-0.6l0.3-1c0-0.1,0.1-0.2,0.1-0.3c0.3-1,0.7-2.4,0-4.2L578.3,378.4z"/>
	<path fill="#231F20" d="M249.8,383.8l0.7,0l2.3-3.4l-1.6-3.3l-3.6-0.6l-3.9,1.3l0,0.2l-0.9-0.1c-0.2-2.3-1.2-4.4-2.9-5.7l-0.8-0.6
		h-3.8l-1.8,5.4l3.7,6.1h2.8l2.3-1.2l0.1-0.4v3.8l7.9,1.3L249.8,383.8z"/>
	<path fill="#231F20" d="M592.2,386l3.3,3.8h3.8l0.9-1.3c0.7-1,2.2-3.3,0.6-6.2l0-0.1c-1.1-1.8-2.2-2.1-3.6-2.3l-1.2-0.2l-0.9,0.6
		c-0.1,0.1-0.2,0.1-0.4,0.2c0,0,0,0,0,0c0.1-0.4,0.2-0.8,0.2-1.2l0.1-0.4l-0.4-2.8l-0.4-0.6c-1.6-2.2-4-2.2-4.9-2.2
		c-0.3,0-0.7,0-1.2,0l-1.4,0.1l-2.5,3.8l1.5,5.1l5.3,1.9l1.3-0.7c0.1-0.1,0.2-0.1,0.3-0.2c-0.1,0.4-0.1,0.9-0.2,1.4L592.2,386z"/>
	<path fill="#231F20" d="M612.5,390.6c0.9,1.3,1.8,1.7,3,1.8c0.1,0,0.3,0,0.4,0l1.9,0.2l0.9-1.7c0.4-0.8,1.3-2.3,0.8-4.2v-3h-5
		l-2.7,1.3v4.6l0.5,0.7C612.5,390.5,612.5,390.6,612.5,390.6z"/>
	<path fill="#231F20" d="M623.7,387.6l-0.2,0.8c-0.5,2.3-0.1,4.3,1.2,6c-0.4,1.2-0.8,2.6-0.2,4.9l0.3,1.1"/>
	<path fill="#231F20" d="M260.5,390.3l-0.5,0l-3.4,1.1l0.4,3.9l-0.2-0.2c-1.2-1.4-2.8-2.1-4.9-2.4l-2.5-0.3l-1.5,5.9l5.6,2.2l4.1-1
		v-2l0.9,0.6c0.9,0.6,2.4,1.6,4.4,1.6c0.6,0,1.1-0.1,1.7-0.2h2.9v-6.7l-1.4-0.8C264.7,391.1,263,390.3,260.5,390.3z"/>
	<path fill="#231F20" d="M581.9,407.6l-4.8-2.1l-3,0.7l-0.6,0.9c-1,1.4-2,3.2-1.4,6.1l0.2,1.2l1,0.7l-0.5,0.5l0,1.2c0,0.3,0,0.6,0,1
		c-0.1,2.4-0.1,4.9,0.8,6.8l0.2,0.4l2.4,2.4h3.9l0.7-0.4c2.1-1.3,3.1-3.2,2.8-5.5c-0.2-1.5-1-2.9-1.6-4.1c-0.3-0.5-0.7-1.3-0.8-1.6
		l-0.3-1.9c0.7-1,1.1-2.3,1.1-4.4L581.9,407.6z"/>
	<path fill="#231F20" d="M603.3,431.3c0-0.2,0.1-0.3,0.1-0.4c0.5-2.3-0.6-3.4-1.8-4.1l-2.4-1.6l-3.1,4.6v4h6.8L603.3,431.3z"/>
	<path fill="#231F20" d="M583,447.7c0-0.1,0.1-0.2,0.1-0.3c0.2-0.6,0.4-1.5,0.5-2.4l5.3,0.7l1.8-3.5l0-0.8c-0.2-2.5-0.9-3.6-1.8-4.9
		l-0.8-1.1l-4.8-1l-1,0.8c-1.4,0.7-1.7,1.7-2,2.7l0,0.1l0,0.1c-0.2,0.7-0.2,1.4-0.1,2l-0.4,0l-0.5-3.5l-1.1-0.7
		c-1.2-0.8-2.5-1.7-5-1.9l-1.1-0.1l-0.9,0.7c-1.9,1.4-2.7,2.5-2.6,5.8l0,1l0.7,0.9c0.9,1,1.9,2.3,3.8,2.7c-0.1,1.3,0.3,2.5,0.5,3.3
		l0.1,0.2l0.5,1.7l2.4,0.5l-1.5,1.5L573,448l-5.4-0.5l-4.1,2.3l0.2,1.9c0.2,1.7,0.5,2.4,1.2,3.4c0.1,0.1,0.1,0.2,0.2,0.3l0,0
		l-0.3,0.4l0,0.9c0.1,5.2,4,5.6,5.2,5.6c0.6,0,1.1-0.1,1.8-0.2l1.2-0.2l0.7-1.1c0.2-0.4,0.5-0.8,0.7-1.3c1.3,0.7,2.8,1.4,5.2,1.4
		l1.5,0l0.9-1.3c1-1.5,1.3-2.9,1.7-4.4c0-0.2,0.1-0.4,0.1-0.6l0.2-0.9l-1.3-3.2l-1.8-0.8l1.7-1.4L583,447.7z"/>
	<path fill="#231F20" d="M598.3,453.2l0.8,0.7l1.1,0c2.9-0.1,4.7-1.2,5.7-3.7l0.2-0.4l0.5-3.9l-3.1-2.4l-3.3-0.5l-0.9,0.6
		c-1.9,1.2-3.1,3-3.2,4.9C596,450.3,596.8,451.9,598.3,453.2z"/>
	<path fill="#231F20" d="M554.7,468.1c-0.4-1.2-1.5-2.6-4.2-3.2l-1.1-0.2l-0.9,0.5c-0.2,0.1-0.4,0.2-0.5,0.3
		c-1.1,0.6-2.4,1.3-3.3,3.5l-0.3,0.7l0.5,4.2l2.8,1.9l4.6-0.9l0.7-0.8C555.2,471.5,555.2,469.4,554.7,468.1z"/>
	<path fill="#231F20" d="M564.9,464.6l-5.5,1.1l-0.6,0.6c-1.4,1.3-1.4,2.7-1.3,3.9l0,3.4l7.4-1.1V464.6z"/>
	<path fill="#231F20" d="M626.9,489.5"/>
	<path fill="#231F20" d="M626.8,472.6l-1.2,0.7c-1.4,0.8-2.4,1.8-3,2.9c-0.9,1.6-0.9,3.5-0.1,5.3c0.9,1.9,2.1,3,4.1,3.4v2.8"/>
	<path fill="#231F20" d="M621.1,509.5l-4.5-0.8l-4.4,4v5.1l3.6,2.1l4.8-1l0.7-1.1c1.2-2.1,1.5-4.3,0.7-6.1L621.1,509.5z"/>
	<path fill="#231F20" d="M552.3,522.4c0.7,0.4,1.7,1.1,3.2,1.1c0.6,0,1.1-0.1,1.8-0.3l1.8-0.5l0.7-5.1l-3.3-2.7l-3.1-0.5l-3.3,1.6
		l1.2,5.8L552.3,522.4z"/>
	<line fill="#231F20" x1="626.6" y1="533.9" x2="626.6" y2="534.8"/>
	<polygon fill="#231F20" points="179.6,551.2 174,552.1 174,555.7 181.1,555.7 	"/>
	<path fill="#231F20" d="M201.9,556.1l0.2-0.1c0.7-0.5,1.1-1,1.4-1.8c0-0.1,0.1-0.1,0.1-0.2l1.7-4h-6.4l-0.4,0.5l-1.5-2.9l-0.6,1.2
		l-0.8-2.3l-4.7,9.3l1.5,0.8l-0.4,0.8h1.8l-2.4,3.6l5-2.5l3.9,1.9l-1-3.1h2.7l-0.7-1.3l0.3-0.2L201.9,556.1z"/>
	<line fill="#231F20" x1="626.8" y1="556.9" x2="626.8" y2="558.1"/>
	<path fill="#231F20" d="M614.8,608.5l-5.5-1.6l-2.7,3.1l1.3-1.9l-1.2-5.3l-2-0.3c-0.4-0.1-0.8-0.1-1.2-0.1c-1.3,0-2.3,0.3-3.1,0.6
		c-0.2,0.1-0.4,0.1-0.5,0.2l-2.2-2l-1.1,0c-1.3,0-2.2,0.2-3,0.5c-0.4-0.4-1-0.9-1.9-1.2c0.6-1.2,0.8-2.4,0.6-3.5
		c-0.2-1.3-0.9-2.4-1.9-3.2l-0.6-0.4l-1-0.2c0-0.1,0-0.3,0-0.4c0.9,0.4,1.7,0.5,2.3,0.5c2.3,0,4.5-1.5,5.9-4l0.4-0.8l-0.6-5.3
		l-4.9-0.7l-4.4,2.7c-0.3-0.8-0.6-1.5-0.8-2.2c-0.9-2.3-1.8-4.5-1.4-5.9c0.8-3.1,0.1-11.4-4-12.8c-0.4-0.1-0.8-0.2-1.3-0.2
		c-0.2,0-0.4,0-0.6,0l0.1-0.5c0.1-0.3,0.1-0.5,0.2-0.8c0.3-1.2,0.7-2.8,0.8-4.3c0.1-3.4-1.7-4.8-2.7-5.4l-0.4-0.2l-3.2-0.5l-3.1,2.5
		l-0.2,1.1c-0.3,2,0.1,3.7,0.5,5.2c0.2,0.8,0.4,1.6,0.5,2.5l0.3,3.3l1.8-0.5c-0.2,0.1-0.4,0.3-0.7,0.4c-1,0.6-2.5,1.6-3.1,1.8
		c-0.4,0.1-1,0.1-1.6,0.1c-0.4,0-0.8,0-1.2,0c-0.3-0.4-0.6-1.2-0.8-2.7c0.8-1.2,1.7-2.6,2.7-4.5l0.4-0.7l0-0.7
		c-0.1-7-6.4-12.5-12.9-14.2l-0.8-3.8l0.2-1.8c0.3-2.6-0.2-4.5-0.7-6.1c-0.2-0.7-0.4-1.3-0.5-2l-0.3-1.4l-4.4-2.2l-2.6,1.2
		c-0.2-0.4-0.4-0.9-0.7-1.3c1.2-0.6,2.3-1.4,2.9-2.8c0.8-1.7,0.5-3.7-0.7-5.9l0,0c-0.9-1.6-2.3-2.2-3.5-2.4l-1.7-4.6l-6.2-0.6
		l-1,1.4c-0.6,0.8-0.9,1.7-1.3,2.5c-0.3,0.6-0.5,1-0.6,1.3c-1.3-1-3.1-2.2-5.5-2.2c-0.8,0-1.5,0.1-2.3,0.3l-0.3,0.1l-0.3,0.1
		c-0.7,0.4-1.6,0.9-2.6,1.6c3-4.6,5.7-10.4,8.1-17.3l2.3,1.9l1.1,1.1l1.3-0.1c2.3-0.1,4.5-1.7,6-4.3c1.6-2.7,2.6-6.7,1.2-9.7l0,0
		c-1.2-2.6-3.3-3-4.7-3.3l-0.6-0.1l-2.5,0.6c0.9-3.9,1.8-8.1,2.5-12.4l1.1-0.2l0.7-1.1c1.4-2.2,0.9-4.1,0.4-5.4l0.6-1.3
		c1.6-3.2,0-6.2-0.5-7.2l-0.3-0.5c0.1-1.3,0.3-2.6,0.4-4c0.6-0.7,1-1.5,1.2-2.3c0.5,0,1.1,0,1.6,0c2.1,0,3.1,0.1,3.7,0.9l0.9,1.2
		l1.5,0c1.8,0,2.7-0.4,3.6-0.7c0.2-0.1,0.4-0.1,0.6-0.2l0.9-0.3l0.6-0.8c0.1-0.1,0.1-0.2,0.2-0.3c0.3-0.4,0.6-0.8,0.8-1.3
		c0.1,0,0.2,0,0.3,0l1.6,0.2l2.4-3l0.2-0.6c0.5-1.9-0.2-3.7-0.9-5.1c-0.3-0.8-0.7-1.5-0.8-2.1l0-0.3h0.7l0.9-4.1
		c0.8,0.4,1.6,0.5,2.3,0.5c0.1,0,3.3,0,3.3,0l0-2.9c0-3.5-1.3-6.3-3.7-7.9l-1.8-1.2l-1.6,1.3c-1.2,1-1.9,2.4-2,4.1
		c0,0.6,0.1,1.2,0.2,1.8l-2.4-0.5l-3.8,3.8l1.7,2.3l-0.5,0.4c-0.3,0.2-0.8,0.5-1.3,0.7c-0.7,0.4-1.7,0.8-2.6,1.6c0,0,0,0,0,0
		c0.5-0.7,1-1.6,1.5-2.7l0.6-1.5l-0.9-1.3l-0.3-0.4c-0.6-0.8-1-1.4-1.2-2c0.3-0.1,0.6-0.2,0.9-0.3l0.2-0.1l1.6-0.6l0.5-3.2l2.5-1
		l0.5-5.5l-0.6-0.9c-1.4-2-4-3.4-6.8-4.3c0.4-1.3,0.8-3.2-0.1-5l-0.1-0.2l-0.1-0.2c-0.1-0.1-0.1-0.2-0.1-0.2
		c-0.5-0.9-1.2-1.3-1.8-1.6c0.1,0,0.2,0,0.3,0c0.3,0,0.6,0,1,0l1.3-0.1l0.8-1c1.2-1.6,1.6-2.6,1.3-5l-0.3-2l-4.7-1
		c-0.1-0.2-0.3-0.4-0.4-0.6c-0.4-0.7-1-1.6-2.1-2.4c0.1,0,0.3,0.1,0.4,0.1l1.4,0.3l6.2-5.6l0.2-0.3c3-4.8,3.4-10.4,1.1-14.7
		c-2.1-3.8-6-5.9-11-5.9c-0.2,0-0.4,0-0.6,0l-0.9,0l-0.7,0.6c-0.3,0.2-0.6,0.5-1,0.7c-0.2,0.1-0.3,0.2-0.5,0.3l-0.3-0.1
		c-0.3-0.1-0.6-0.3-0.9-0.4c-4.7-18.7-11.5-32.5-19.5-38l2.4-0.8l0-0.2c0.1,0.8,0.3,1.7,0.9,2.5c1,1.5,4.7,4.1,6.8,5.5
		c5.8,3.9,7.5,4.1,8,4.2l0.2,0h1c0.3,1.1,0.6,2.1,1.1,3.1c1,1.8,2.7,2.8,4.8,2.8c1.5,0,3.2-0.5,5.4-1.6l1.3-0.6l0-0.1
		c1.9,2.1,4.5,3.4,7.4,3.7l0.1,0h2.2l0.8-1.6c0.9-1.8,0.9-3.4,0.8-4.8c2.7,0.3,5.6,0.5,8.6,0.5c3.2,0,5.9-0.3,8.2-0.9l0.5-0.1l7.1-5
		c0.4-0.2,0.8-0.5,1.2-0.7c7.4-4.3,14.7-9,18.1-14.2l0.2-0.1l-0.1-0.1c0.7-1.1,1.2-2.2,1.5-3.4l0.1-0.4l-0.2-8.5
		c0.8-4.9,1.3-11.9-0.9-17.4c-2.5-6-7.5-10.2-12.5-13.7c-0.8-0.6-1.4-1.4-2.2-2.4c-1.3-1.7-2.8-3.8-5.7-4.9l-0.5-0.2l-7.9-0.2
		c-0.3-0.1-0.6-0.2-0.9-0.3c-1-0.3-2.2-0.7-3.6-0.7c-0.8,0-1.6,0.1-2.3,0.4l-0.5,0.2l-7.6,6.1c-1.1,0.5-2.3,0.9-3.6,1.4
		c-3.2,1.1-6.9,2.3-9,5.5l-0.2,0.3l-4.5,13.1c-1.6-3.6-2.9-7.7-2.3-10.1c0.1-0.3,0.9-1.1,1.4-1.6c1.7-1.8,4.2-4.4,3.2-8.4
		c-0.4-1.6-1.8-2.7-3.4-3.8c0.4-0.4,0.7-0.9,1-1.5l0.2-0.4l0.7-5.8c0.6-0.4,1.2-1,1.8-2c0.1,0,0.2,0,0.4,0c1.9-0.2,4.4-0.6,6.4-1.7
		c0.4,1.4,1.4,2.6,2.9,3.4l0.3,0.1l2.5,0.6l1.1-0.7c1-0.6,2.4-2.4,3.3-3.6h4.4l-0.5-1.4h0.5l-1.5-4.5l-0.2,0c0-0.5,0-1.1-0.2-1.5
		c-0.2-0.7-0.7-1.5-1.5-2c0.2,0,0.4,0.1,0.6,0.1l0.2,0h2.2l0.7-1.3c0.4,0.8,0.8,1.5,1.1,2.1c2.1,3.9,3.5,6.1,4.6,7.4l-0.2,0.2
		c-0.1,0.1-0.2,0.2-0.2,0.3c-0.8,1.1-1.2,2-1.3,3.9l0,1.2l0.8,0.9c1.5,1.6,3.7,2.5,6,2.5c3.2,0,5.8-1.7,7-4.3l0.2-0.5v-3.2l-1-3
		l-2.8-0.2c-0.2-3-1.3-5.4-2.5-7.5c2.3,0.9,4.7,1.6,7.5,1.6c1,0,2-0.1,3-0.3c1.4-0.3,2.6-0.8,3.6-1.5c0.5,1.7,1.3,3.2,2.5,4.4
		c1.8,1.8,4.1,2.8,6.6,2.8c0.3,0,0.6,0,0.9,0l2.1-0.2l0.4-2.1c0.5-2.5-0.1-5-1.7-7c-0.6-0.8-1.4-1.5-2.2-2c2.9-1.5,3.2-4.1,3.4-5.7
		c0.1-0.7,0.2-1.3,0.4-1.9l2.2-2l0.2-0.7c0.8-2.1,0.2-3.6-0.4-4.5c-1.2-1.8-3.4-2.2-5.1-2.4c0.9,0,1.8,0,2.6,0c1,0,2,0,3,0
		c2.8,0,4.6-0.1,6.1-0.4l7.7-1.4l5-7.9l-0.1-1c-0.2-3-1.5-4.4-2.3-5.4c-0.4-0.4-0.6-0.7-0.8-1.1c-0.4-0.8-0.5-1.9-0.6-3.2
		c-0.1-1.3-0.2-2.9-0.7-4.5l-0.1-0.2l-1.5-3.2c0.1,0,0.2-0.1,0.3-0.1l0.3-0.1l0.2-0.2c0.1,0,0.1-0.1,0.2-0.1
		c0.9-0.5,1.4-1.1,1.7-2.1c0-0.1,0-0.1,0.1-0.3l0-0.1l0-0.1c1.4-4.8-4.5-10.3-7.5-11.4l-1.3-0.5l-1.2,0.6c-0.8,0.4-1.4,0.9-1.9,1.5
		c-0.2-0.3-0.4-0.7-0.7-1.2c-1.2-1.5-2.7-1.8-3.5-2c-0.1,0-0.2,0-0.2,0l-0.3-0.5l0,0l0.8-0.7c0.1-0.1,0.3-0.2,0.4-0.3
		c1.5-1.3,4.8-4.2,3-8.2l-0.8-2.4l-5.7-0.5l-0.9,0.7c-1.7,1.3-3.7,3-3.7,7.3l0,0.2c-1.4,0-2.9,0.3-4.3,0.8c-0.5-0.3-1.1-0.8-1.6-1.4
		c1.4-1.2,2.8-3,2.4-6.4c0.6,0.1,1.3,0.2,2.1,0.3l1.5,0l2.7-3.6l-0.9-1.7c-1.2-2.4-2-3.9-2.4-4.9l2.7-3.6l-0.4-1.9c0,0,0,0,0,0
		c0.5,0,0.9-0.1,1.2-0.2l4.1,3c0.4,0.7,0.6,1.4,0.9,2.1c1.1,3.1,2.3,5.3,7.4,6.5c0.4,0.1,0.8,0.2,1.2,0.2c0.8,0,1.4-0.3,1.8-0.4
		c0.1,0,0.2-0.1,0.2-0.1l1.4-0.6l0.3-1.5c0.7-2.9,0.2-5.4-1.2-7.3l0.6-0.1l2.5-0.8l0.3-1.7c0.3-2.2-1.1-5.5-4.2-10
		c-4.1-5.7-6.6-7.1-7.5-7.4l-1.4-0.5l-1.2,0.9c-0.1,0.1-0.2,0.2-0.3,0.2c-0.9,0.6-1.5,1.1-2.2,2.4l-0.4,0.7l0,0.8
		c0,1.7,0.8,3.5,1.8,5.2c-0.3-0.1-0.7-0.2-1-0.2l-1.5-5.4l-4.7-2.4l-3.4,2.7l-0.2,0.9c-0.7,2.6-0.8,5.6,0,8c-0.3,0-0.5-0.1-0.7-0.1
		l-0.8-0.1l-0.8,0.3c-0.3,0.2-0.7,0.3-1,0.4c-1.5,0.6-3.3,1.3-4.3,4c-0.5,1.1-0.9,7.6-0.9,7.7l0,0.2c0-0.1,0-0.2-0.1-0.3l-0.5-1.7
		l-5.3-1.2l-0.9,0.8l-0.1-0.2l-0.4-0.4c-1-1.1-2.2-1.7-3.2-2.1c-0.6-0.3-1.2-0.6-1.3-0.8c-0.3-0.7-0.6-2.1-0.8-3.2
		c-0.2-1.2-0.4-2.4-0.8-3.3c0.4,0.2,0.9,0.5,1.5,0.7l0.4,0.1h0.9c1,2.5,3,4.9,5.5,6.8l0.8,0.6h3.8l0.8-1.6c1.3-2.7,0.3-5.9-0.3-7.6
		c-0.4-0.9-1.8-3.9-4-5.2c-0.4-0.3-0.8-0.5-1.2-0.6c0.1-1.7,0-3.3-0.2-4.4l-0.1-0.6l-1.3-2c0.2,0,0.3,0,0.5-0.1l1.4-0.2l0.7-1.3
		c0.3-0.6,1.1-2,1.2-3.7c0.1,0,0.3,0,0.4,0c0,0,0,0,0,0c2.3,0,4.5-0.6,6.3-1.6c0.2,0.5,0.5,1,0.8,1.4l-1.5,0.6l-0.5,0.6
		c-0.1,0.1-0.2,0.2-0.3,0.4c-0.9,1-1.4,1.9-1.5,3.8l-0.1,1.3l0.9,0.9c1.4,1.5,3,2.2,4.7,2.2c2.1,0,3.7-1.1,5.1-2.1
		c0.5-0.3,0.9-0.6,1.4-0.9l1.3-0.7l0.6-5.6l-3.2-1.6l-0.2,0c0.5-0.9,0.7-1.9,0.9-2.9c0,0,2,0,2,0l0.8-1.7c1.6-3.7-0.6-7.1-2.1-9.4
		c-0.3-0.4-0.5-0.8-0.7-1.1l-0.6-1l-4.6-1.4l-2.4,1.2l-0.4,0.9c-0.6,1.3-0.8,2.9-1,4.3c0,0.3-0.1,0.6-0.1,0.9
		c-0.4,0.1-0.8,0.3-1.2,0.4c-0.8,0.3-1.7,0.6-2.7,1.1c-0.4-0.2-0.8-0.4-1.3-0.7c-1.4-0.8-3-1.9-5.4-1.9c-0.3,0-0.6,0-0.9,0.1l0-0.1
		c1.2-2.1,1.1-3.7,0.5-5.7l-0.3-1l-0.9-0.6c-1.8-1.2-3.8-2.5-7.1-2.8c0.7-0.8,1.3-1.8,1.9-2.8c0.6-1,1.3-2.3,1.8-2.7l1-0.8l0-1.3
		c0.1-3.7-1.8-5.1-3.5-5.8c-0.1-0.6-0.2-1.2-0.3-1.8c-0.3-1.7-0.5-3.4-1.3-4.8l-0.7-1.3l-4.5-0.6l-1,1c-0.1,0.1-0.3,0.3-0.4,0.4
		c-0.7-3.7-3.2-7.9-7.1-8.4l-1.1-0.1l-2.6,1.7l-0.3,1.1c-1.3,5.6,0.9,10.8,5.1,12.5l0.1,0l0.1,0c0.5,0.2,1,0.3,1.5,0.3
		c0.5,0,1.1-0.1,1.6-0.3c0,1.4,0.2,2.9,0.6,4.4c-1.2,0.6-2.3,1.3-3.2,2.1l-1,0.9l0.1,1.4c0.1,1.1,0.4,2.2,1,3.1
		c-2.5,3.7-3.2,7.5-2.1,11.3l0.2,0.8c-0.3,1.1-0.4,2.4,0.4,4c0.3,0.6,0.7,1.3,1.3,2c-0.1,0.2-0.2,0.4-0.3,0.6
		c-0.6-1-1.3-1.6-2.1-2.3l-1.1-0.8c0-0.1,0-0.1-0.1-0.2l-0.2-0.6l-2.1-2.6l-4.6-0.5l-0.8,0.5c-0.1,0.1-0.2,0.1-0.3,0.2
		c0.7-1.1,1.2-2.7,0.9-4.9c-0.2-2-1-4-1.7-5.5l-0.4-0.9l-2-1.2c0,0,0.1,0,0.1,0l2-0.6l0.1-2.1c0-0.3,0-0.5,0-0.8l0.2,0.1l1.2-0.2
		c1.9-0.3,3.4-1.4,4.5-3.2c1.4-2.5,1.7-6,0.6-8.6l-0.4-1l-5.6-2.8l-1.2,2.7c-0.2,0.4-0.4,0.9-0.7,1.3c-0.7,1.3-1.4,2.9-1.7,4.7
		c-1.7-1.4-4-2.2-6.8-2.2c-0.1,0-0.2,0-0.3,0l-1.1,0l-0.8,0.8c-0.2,0.2-0.4,0.4-0.6,0.6c0.3-1.6,0.4-3.3,0.2-5
		c0.3,0.1,0.7,0.3,1.1,0.4c0.7,0.2,1.5,0.3,2.2,0.3c2.5,0,4.7-1.1,5.9-2.8c1-1.4,1.2-3.1,0.6-4.7l-0.1-0.3l-0.2-0.3
		c-1.5-2.3-3.9-2.5-5.3-2.6c-0.2,0-0.6,0-0.8-0.1l-0.9-1.7l-0.2-0.2c-1.8-2.2-4.9-3-7.6-3.6l-1.8-4.1l-4.8-1.8l-3.4,3.4l-0.2,0.9
		c-0.8,4,0.4,6.9,1.3,9.3l0.6,1.4l5.1,1.4c-0.4,0.8-0.8,1.6-1,2.3c-1.3-0.8-2.8-1.2-4.4-1.3l-1,0l-0.8,0.6c-0.2,0.1-0.3,0.2-0.4,0.3
		c-1.3,0.9-2.6,1.9-2.7,4.8l-0.1,1.5l1.3,1c2,1.5,4.5,3.4,8.7,3.4l1,0l0.7,0.6c-0.2,0-0.5,0-0.8,0c-0.6,0-1.1,0-1.7,0.1
		c-0.5,0-1,0.1-1.5,0.1c-0.2,0-0.3,0-0.5,0l-1.2-0.1l-0.9,0.8c-0.2,0.2-0.4,0.3-0.6,0.5c-1.6,1.3-3.4,2.8-4.2,5.7
		c-0.3-0.9-0.7-1.8-1.2-2.7l-0.6-1l-1.7-0.5c-0.1-0.9-0.3-1.8-0.6-2.8l-0.3-1l-0.9-0.6c-0.1-0.1-0.2-0.1-0.2-0.2
		c-0.7-0.5-1.2-0.7-2.5-1l-1.7-0.3l-1.1,1.3c-0.1,0.1-0.2,0.3-0.4,0.5c-1.6,1.9-4.9,6-3.1,10.1l0.1,0.2l0.1,0.2
		c0.6,1,1.1,1.5,2.1,1.9c0.1,0,0.2,0.1,0.3,0.1l1.1,0.5l1.1-0.4c0.4,1.9,1.3,3.4,2.5,4.4l-0.7,0.2l-0.6,1l-0.1,0.2
		c-0.1,0.2-0.2,0.3-0.4,0.6c-1-0.2-2.1-0.4-3.3-0.4c-0.2,0-0.4,0-0.7,0l-0.5,0l-3,1.3l-0.5,0.7c-1.1,1.6-2.1,3.9-0.9,6.1
		c0.5,1,1.9,2.6,5.4,2.6c0.1,0,0.3,0,0.4,0c-0.1,2.3,0,5.9,3.4,7.5l0.4,0.2l4.3,0.6l0.9-2c0.9-1.9,1.4-3.8,1.5-5.6
		c0.8,0.2,1.5,0.3,2.3,0.3l0.4,0c0.2,0.7,0.4,1.3,0.5,1.9c0.1,0.2,0.1,0.4,0.2,0.6l0.3,0.9l0.1,0.1c-1.8,0.8-2.9,2.1-3.5,4l-0.4,1.3
		l0.7,1.1c1.2,1.9,3,2.6,4.4,3.1c0.2,0.1,0.4,0.1,0.6,0.2l0.1,2.4c-0.4-0.1-0.8-0.1-1.2-0.1c-0.8,0-1.5,0.2-2.2,0.5
		c-1.3-2.1-3.2-3.8-6.4-3.8c-0.3,0-0.5,0-0.8,0l-2.5-3l-4.3,1.2c-0.7-0.6-1.5-1.1-2.3-1.5l-0.3-0.1l-2.7-0.5l-4.1,2.9l0.2,1.7
		c0.2,1.6,0.8,3,1.9,4.3c-0.7-0.5-1.4-0.9-2.1-1.4l-1.1-0.6l-4.9,1.3l-0.6,0.9c-2.4,3.6-2.2,6.7-1.5,8.7l0.1,0.3l0.1,0.3
		c1.2,2.2,3,2.6,3.9,2.6c1.5,0,2.6-0.8,3.4-1.5l1.4,1.1c0.6,1.4,1.5,5.2,1.6,6.7l-2.5,4.5l-0.1,0.4c-0.2,1-0.2,1.8-0.2,2.5l-3.5,0.2
		l-1.5,2.5c-0.2-0.2-0.3-0.4-0.4-0.6c-0.1-0.1-0.1-0.6-0.1-0.9c-0.1-1.4-0.3-4-3.3-5.5l-0.1,0l-0.1,0c-1.1-0.5-2.2-0.7-3.4-0.7
		c-1,0-1.9,0.2-2.8,0.5c0-0.7-0.1-1.4-0.2-1.8l-0.1-0.4l-1.1-2.2l-4.3-0.5l-2.2,1.1l-2.7,2.7l0.8,1.8c0.1,0.3,0.3,0.6,0.4,0.8
		c-0.8-0.7-1.7-1.2-2.6-1.6V169l-0.4-0.5l1.3,0.1l1.6-2.4l0.1-0.3c1.9-5-2.7-10-4.4-11.9l-0.9-0.9h-0.7c0.7-1.4,1.1-2.9,1.2-4.4
		c1.7,3,4.8,4.9,8.8,4.9c0.1,0,0.2,0,0.3,0l0.6,0l2.5-1.2l0.1-1.6c3.1,0,4.2-2.8,4.6-3.8c0.1-0.1,0.1-0.3,0.2-0.5c0.1,0,0.1,0,0.2,0
		c0.4,0,0.9,0,1.3,0.1c0.6,0.1,1.3,0.1,1.9,0.1c1.2,0,2.1-0.2,3-0.6l0.3-0.1l2.3-1.8l0.2-1c0.6-2.8-0.3-5.1-2.6-6.7l-0.5-0.4
		l-0.5-0.1c1.1-2.6,1.1-5.6-0.1-9.2l-0.1-0.3c0.4,0.2,0.8,0.4,1.2,0.5l0.6,0.2l3.1-0.4l0.4-0.2c2.3-1.1,3.5-3.5,4.4-5.2l0.4-0.9
		l-0.1-0.8c-0.3-3-1.4-6.5-2.9-8.6l-0.6-0.9l-1.1-0.2c-0.5-0.1-1-0.2-1.6-0.2c-0.7,0-1.3,0.1-1.9,0.2c-0.4,0.1-0.9,0.1-1.2,0.1
		c-0.2,0-0.3,0-0.4,0c-0.1,0-0.2-0.1-0.5-0.2c-1-0.5-2.1-1.1-4.2-1.1l-0.7,0l-1.1,0.5c-2.7,1.3-5.2,2.6-6.5,6.8l-0.2,0.7l-0.5-0.8
		h-4.4l-0.8,0.8c-2.6,2.4-3.1,4.4-3.9,7.7l-0.1,0.5v3.7l4.7,0.9l1-0.6c4.2-2.7,6.1-6.1,5.4-9.3c1.3,1.4,3.7,2,8.7,2.7
		c0.2,0.8,0.4,1.7,0.9,2.4l-0.6-0.4h-3l-0.9,1.1c-1.4,1.7-2.2,3.2-2.6,5.1l-2-1.2l-1.5,1c-6.2,4-4.6,8.3-3.5,11.4
		c0.1,0.2,0.1,0.4,0.2,0.6c-1.4-0.7-2.9-1.2-4.3-1.4c0.6-2.5-0.6-5.2-1.4-7.2c-0.1-0.2-0.2-0.5-0.3-0.7l-0.3-0.8l-0.6-0.5
		c-0.2-0.1-0.3-0.3-0.5-0.4c-0.8-0.7-1.8-1.5-4-1.9l-1.5-0.2l-2.4,2.4l-0.2,0.8c-0.6,2.8-0.3,5.5,0.7,7.7l0,0l-2.6,1.7l-0.3,1.1
		c-0.7,2.8,0.2,5.5,0.9,7.9c0.3,1,0.6,1.9,0.7,2.7c-1.8-1.4-4-2.3-6.1-2.3c-0.1,0-0.2,0-0.2,0l-1.4,0l-2.1,2.9l0,1
		c0.1,5.4,4.2,9.5,9.6,9.6l1.6,0l1.4-2.1c0.3,0.7,0.7,1.3,1.1,1.9c0.4,0.6,0.9,1.1,1.5,1.6l-0.8,0.8c-2.9,2.7-4,5.9-3.3,10l0.3,1.8
		l1.8,0.5c0.6,0.2,1.2,0.2,1.7,0.2c0.3,0,0.7,0,1-0.1c2.1,2.1,4.2,4,6.6,4c0,0,0,0,0,0c1.6,0,2.9-0.8,3.7-2.2c0.8-1.6,0.9-3.3,0.1-5
		c-0.1-0.3-0.3-0.6-0.5-0.9c0.3,0.2,0.7,0.4,1.1,0.6l0.8,0.4c-1,2-1.3,4.3-1,6.6c1.1,7.2,5.8,9,11.3,10.8c0.1,0.7,0.2,1.3,0.2,1.8
		l-0.4,0.8L482,195l-6-1.2l-1.1,1.5c-1,1.3-1.5,2.3-1.9,3.3c-0.4-0.4-0.9-0.7-1.5-1l-1.1-0.5l-1.3,0.4c-0.9,0.3-1.8,0.6-2.6,0.9
		c0.3-0.8,0.4-1.6,0.3-2.5c-0.3-3.3-2.8-7.3-5.3-8.4l-0.3-0.1l-3.9-0.7l-0.9,1.9c-2,4.2-0.2,8.9,4.7,12.1c-1.6,0.9-3,1.8-4,3.1
		c-1.3,1.6-2.1,3.5-2.2,5.9l-0.8,0.4c-0.2-0.1-0.4-0.2-0.5-0.2l0.1-0.1l0.5-1.1c0.7-1.4,2-4.1,1.4-6.9l-0.2-0.8l-0.6-0.6
		c-9.3-14.8-9.8-15.5-10.1-15.9l-0.3-0.3l-0.2-0.1c-2-1.5-4.9-2.3-8.8-2.3c-0.2,0-0.3,0-0.5,0l-0.6,0l-0.5,0.2
		c-1.2,0.5-2.4,0.8-3.5,1.1c-1.9,0.5-3.9,1.1-5.9,2.5l-0.9,0.6l-0.2,1c-1.9,8.1,2.6,10.9,5.5,12.8c1.1,0.7,2.1,1.3,2.6,2.1l0.5,4.1
		l0.2,0.4c1.9,4.5,8.4,6.6,11.9,7l1,0.1l0.9-0.5c0.1,0,0.2-0.1,0.2-0.1c0.1,0.1,0.1,0.1,0.2,0.2c0,0.5,0,0.9,0,1.4l0,1.1l0.7,0.8
		c0.2,0.3,0.5,0.5,0.7,0.8c1.4,1.7,3.2,3.8,6.6,4.5c0,0.1-0.1,0.2-0.1,0.3c-1.1-0.6-2.6-1.2-4.5-1.2c-0.7,0-1.4,0.1-2,0.2l-1.2,0.3
		l-0.6,1.1c-0.9,1.6-3,5.7-2.3,9.7l0,0.1l0.6,2.1c-2-0.4-4.1-1.7-6.1-2.9c-1.5-0.9-3.1-1.9-4.8-2.5c-6.6-2.7-14.1-3.7-21.3-4.7
		c-1.3-0.2-2.5-0.4-3.8-0.5l0.3-0.4l-0.8-1.6c-0.4-0.8-0.7-2.4-0.9-3.9c-0.5-3.3-1.1-7.1-4.1-9c-2-1.6-4.6-1.8-7-1.8
		c-0.8,0-1.7,0-2.5,0.1l-1.1,0l-0.7,0.5c-0.4,0.3-0.8,0.5-1.2,0.8c-1.7,1.2-3.7,2.5-5,4.5l-0.3,0.5l-0.1,0.6c-0.5,2.8,0.1,5.4,2,7.6
		c0.4,0.5,0.9,1,1.4,1.4c-6.7,0.6-13.3,1.9-17.4,3.5c-1.3,0.5-2.6,1.1-3.9,1.7c-2.3,1.1-4.6,2.2-6.9,2.6c-0.4-2.2-0.2-5.3,0-8.1
		c0.3-4,0.6-7.8-0.6-10.4c-0.9-2-3.2-5.2-6.7-9.8c-1.8-2.4-4.2-5.6-4.8-6.8l0-0.9l-1-0.8c-1.1-0.9-2.4-1.6-3.6-2.2l0.7-0.4l0,0.3
		l2.5,1.6h3.7l0.3-2.6c0.4-3.6-0.5-6.7-2.6-9c-2.1-2.4-5.3-3.6-9.3-3.6c-0.2,0-0.5,0-0.7,0l-0.8,0l-5.1,3.5l0,1.6c0,0.2,0,0.3,0,0.3
		c0,0.4,0,0.8,0.2,1.2c-0.3,0.1-0.6,0.1-0.9,0.2c0,0,0,0,0,0c-0.2-0.4-0.5-0.9-0.9-1.4c0.8-11.2-0.1-21.3-2.7-30
		c-2.9-9.9-7.9-17.6-14.8-23.1l-0.1-0.1l-9.9-6.7l-3.9-1.6c-2.3-2-3.9-5.1-5.5-8.4c-1.4-2.8-2.8-5.6-4.9-8c2.3-1.1,6.4-2,11.4-2
		c5.6,0,9.5,1.2,10.7,2.2l2,1.8l4-4l1.1-0.6l-0.2-0.5l-0.4,0.2l-1.8-1.9c-4.3-4.5-13.9-9.1-22.6-9.1c-1.3,0-2.6,0.1-3.8,0.3l-0.1,0
		l-8.9,2.1c-6.8-5.9-17.2-9.5-27.6-9.5c-4.4,0-8.6,0.6-12.6,1.9c-0.9-3.4-1.7-5.5-3.1-7.3c-1.9-2.4-4.4-3.7-8.3-5.7
		c-0.8-0.4-1.4-0.8-2.2-1.3c-2.1-1.3-4.4-2.8-8.7-3.1l-0.5,0l-4.2,1l-1.2,5.9l9.2,7.2c0.9,5.2-2,7.1-7.5,10
		c-3.3,1.7-6.6,3.5-8.6,6.7c-0.9,1.4-1.6,3.4-2.5,5.7c-0.6,1.7-1.7,4.6-2.6,6c-0.2-0.1-0.4-0.2-0.5-0.3l0,0l0-0.1l-0.1,0l-0.7-0.5
		h-3.7l-0.2,1.2l-1.5,0.2v3.6h0.5h0.3l4.1,4.4l0.8,10.4l-1.2,6.6l0.1,0.5c0.3,1.7,0.5,3.5,0.8,5.3c0.7,5.1,1.4,10.5,3.5,15.2
		c1.9,4.3,5.7,10.1,10.1,13.2c2,1.4,4.2,2.5,6.3,3.5c5.2,2.6,8.6,4.5,9.6,8.8c-0.1,0.1-0.3,0.2-0.4,0.2c-1.1,0.6-2.2,1.3-3.2,2.2
		l-1,0.9v2.5l0.6,0.8c0.9,1.2,1.5,1.9,3.2,2.8l0.7,0.4l0.8-0.1c0.6-0.1,1.2-0.2,1.8-0.3c0.3,1.9,0.9,3.1,1.4,4.1
		c0.2,0.4,0.4,0.8,0.6,1.2l0.4,0.9l3,1.8l1.2-0.3c0.9-0.2,1.6-0.6,2.1-1c0,0.3,0,0.6,0,0.9l-0.2,0l-0.5,1.1
		c-0.7-0.3-1.5-0.6-2.5-0.6c-0.5,0-1,0.1-1.5,0.2l-0.3,0.1l-0.2,0.1c-1.8,0.8-2.6,2-3,3.3c-1,0.3-1.9,0.7-2.9,1.3l0.8-3.8l-5.3-2.6
		l-3.5,3.5l0.5,3.6l1.2,2.5h2.2c-0.1,0.1-0.2,0.2-0.4,0.4l-0.8,0.8v2.3c-0.2,0-0.4,0-0.6,0c-0.1,0-0.2,0-0.4,0v-1.4l-0.6-0.8
		c-1.6-2.1-4.1-3.2-7-3.3l-1.2,0l0,0v-2.9l-1.9-0.3l0.7-1l-0.7-2.7l-0.3-0.4c-1.2-1.8-2.8-2-3.9-2c-0.3,0-0.6,0-0.9,0l-1,0l-4.1,3.3
		l-0.1,0.8l-1.8-0.6l-0.8,2.9l-0.1,0.2c-0.3,1-0.8,2.7-0.3,4.4v2.9h3.1l-2.1,0.1l-0.5,4.2l-0.8-0.1l-2.3,1.1l-1.6,3.9v0.8l0,1.5
		l3.6,2.7l1.7-1c1.7-1,2.4-1.9,3.1-3.4l0.5-0.9l-0.1-0.5c0.2,0,0.3,0,0.5,0c2.2,0,3.8-0.9,5.1-1.6c0.1-0.1,0.3-0.1,0.4-0.2l1.3-0.7
		l0.4-4c0.2-0.1,0.3-0.3,0.4-0.4v0.3l1.3,0.9c1.4,1,2.9,2,5.8,2.1c-0.1,0.4-0.1,0.8-0.1,1.2l-0.8,0.3l-0.5,0.8
		c-1.3,2.2-1.8,4.5-1.4,7.3l0.1,0.5l-0.1,0.1c-0.5-0.3-1-0.5-1.6-0.7l-0.1,0l-0.1,0c-0.4-0.1-0.7-0.1-1.1-0.1
		c-1.3,0-2.2,0.5-2.9,0.9c-0.1,0.1-0.2,0.1-0.3,0.2c-0.6-0.1-1.3-0.4-2-0.8c-1.3-0.6-2.9-1.3-5-1.4l-1.7-0.1l-0.9,1.4
		c-1.7,2.6-1.9,6.4-0.6,9.2c0.1,0.3,0.3,0.5,0.4,0.8c-0.8,0.2-1.5,0.5-2.2,0.8c-0.5,0.2-0.9,0.4-1.4,0.5l0,0c-0.5-1-1.3-1.7-2.7-2.3
		l-0.4-0.2l-1.8-0.2l0.4-0.6l0.1-0.2c1-2,0.5-4.7-0.5-6.1l-0.1-0.2l-0.3-0.3v-4l-5.4-0.7l-0.9,0.5c-0.4,0.2-0.8,0.4-1.3,0.6
		c-0.2,0.1-0.3,0.1-0.5,0.2c-0.1-0.4-0.1-0.9-0.1-1.3l0-2.1l-5.2-1.7l-2.4,1.2l-0.4,0.9c-0.7,1.4-0.9,3.2-0.6,4.9h-0.8
		c-0.2-1.2-0.5-2.3-0.8-3.3l-0.3-1l-0.9-0.6c-0.1-0.1-0.2-0.1-0.2-0.2c-0.7-0.5-1.2-0.7-2.5-1l-1.9-0.3l-1,1.6
		c-0.5,0.7-0.8,1.5-1,2.3l-4-0.5l-1,1.5c-1.3,2-1.8,7.1-0.8,9.5l0.2,0.4l0.3,0.3c0.8,0.9,1.5,1.2,2,1.4c0,0,0.1,0,0.1,0.1v0.1l4,2.7
		l1.8-1.8c0,0.2,0,0.4,0,0.7l0,1.9l1.7,0.8c0.8,0.4,1.7,0.6,2.5,0.6c1.8,0,3.2-0.8,4.3-1.4c0.4-0.2,0.7-0.4,1.1-0.6l1.4-0.6l0.2-1.6
		c0.3-1.8,0.1-3.7-0.3-5.2c0.4,0.2,0.7,0.3,1.1,0.4l0.3,0.1h2.8c-0.1,1-0.1,2.2,0.4,3.3l0.1,0.2l1.5,2.2h2c0,1.8,0.6,2.9,1,3.6
		c0.3,0.5,0.4,0.8,0.4,1.7l0,1.6l1.6,0.9c0.9,0.5,1.7,0.9,3.4,1l-1.9,3.9c-0.8,0.6-1.9,1-3,1.5c-1,0.4-2.1,0.9-3.2,1.6l0.1-0.4
		l-2.5-1.7l2.1,0l0.6-2.1c0.6-2.3,0-4-0.4-5.2c0-0.1-0.1-0.2-0.1-0.4l-0.4-1.1l-3.8-1.9l-3.5,1.7l-0.3,1.3c-0.5,2.2-0.3,4,0.7,5.4
		l0,0c0.5,0.8,1.1,1.3,1.8,1.6l-0.3,0l-2.7,1.8l-0.2,1.2c-0.1,0.7-0.2,1.2-0.2,1.8c-2.3,0.2-7.1,1.1-9.2,1.5l0-0.8l-1.2-0.9
		c-0.2-0.1-0.3-0.2-0.4-0.3c-1-0.8-2.2-1.7-4.7-1.9l-1-0.1l-1.9,1.3l0.7-1.3c1.1-2,1.1-4.5,1.1-6.5l-0.1-2.4l-5.2-0.7l-2.6,1.8
		l-0.2,1.2c-0.4,1.8-0.3,3.6,0.3,5.5l0.2,0.8l-1.2-0.3c0-0.2,0-0.5-0.1-0.7v-3h-6.3l-1,1.3c-0.8,1.1-1.1,1.8-1.2,3.7l-0.1,1.9
		l4.2,2.1l0,0.7l1.1,2.2l5,1.7l1.2-2.4c0.6-1.2,1-2.1,1-4l0-1.2l0.4,0.2h2.5l-0.3,0.2l-1,7.4l0.4,1c0.8,1.9,1.9,3,4.7,3.2l-1,1
		l-0.2,0.8c-0.1,0.6-0.2,1.2-0.2,1.8c0,0,0,0,0,0l-1.7,0l-1.8,2.4l-1.2-1.5l-5.3,2.6l0.8,2.4c0,0.1,0.1,0.2,0.1,0.3
		c0.3,1.5,1.4,2.4,3,2.6c0.1,0,0.2,0,0.4,0l1.5,0.2l1.1-1.1l0.6-0.6c0.6,1.1,1.4,1.9,2,2.7c0.5,0.6,1,1.1,1.3,1.6
		c0,0.2-0.2,0.8-0.3,1.1c-0.2,0.5-0.3,1.1-0.4,1.8l-1.8-0.2l-0.9,0.6c-1.6,1.1-2.5,2-3.6,3.2c0.3-0.5,0.5-1.2,0.6-2l0.4-2.3
		l-4.6-1.8l-4,2l3.1,8.2l3.1-2.6c0.1-0.1,0.1-0.1,0.2-0.1c0.1-0.1,0.2-0.2,0.3-0.3l-0.6,0.7l0.1,0.6l-0.3,0l-0.9,0.8
		c-1.9,1.7-3.5,3.8-2.8,7.9l0.3,2.2l4,0.5c0.1,0.2,0.2,0.4,0.2,0.6c0.3,0.8,0.6,1.6,0.7,2.5l0.3,1.5l1.4,0.6c0.7,0.3,1.3,0.4,2,0.4
		c3.2,0,5.5-3.2,5.8-6.4c0.4-1.6,0-2.7-0.6-3.7l-0.1-0.1l-0.1-0.1c-0.6-0.9-1.6-1.7-2.6-2.3c2.3-1.2,3.3-3.3,3.8-4.4l0.3-0.6
		c0.2,0,0.4,0,0.6,0l0.2,0.5l1,0.5c0.6,0.3,1.4,0.7,2.6,0.7c0.1,0,0.2,0,0.3,0l-1.9,1.1l1.1,3.8l-0.7,0.5c-3.7,2.9-2.2,6.2-1.3,8.1
		l0.2,0.4l0.1,0.2c-0.2,0.3-0.4,0.6-0.6,0.9c-1,1.3-1.3,2.8-0.8,4.3l0.1,0.4l1.6,2.4l1.6,0c3,0,4.7-1.2,5.9-2.4h2.3l0.4,4.6h6.7
		l1.2-5.8l0.7,0.1c-0.4,1.6-0.3,3.5,0.4,5.9l0.3,0.9l3.9,2.9l1.8-2.1c0.7-0.8,1.1-1.7,1.4-2.6c0.4,0.4,0.9,0.7,1.4,1l-1.1,0.9
		l-0.3,0.6c-0.9,1.8-0.8,3.2-0.5,4.5l0.3,1.5l1.4,0.6c0.8,0.3,1.5,0.5,2.3,0.5c1.1,0,1.9-0.3,2.5-0.5c0.4-0.1,0.6-0.2,0.7-0.2
		c0,0,0,0,0.1,0c4.9,0.6,5.8,3,7.4,8.7c0,0.1,0.1,0.3,0.1,0.4l-2.2,1.1l-0.4,0.6c-0.1,0.1-0.2,0.2-0.2,0.3c-0.7,0.9-1.1,1.7-1.2,3
		l-0.7,0l-0.9,0.9c-0.9,0.9-1.5,2-1.9,3.2c-0.7-0.3-1.3-0.4-2.4-0.5l-2.7-0.1l-0.7,6.9l2.9,1.9h5.1c0.6,0.6,1.3,1.1,2,1.4l1.3,0.6
		l2.4-1.2c0.1,0.6,0.3,1.1,0.5,1.4c0.7,1.1,2.1,2.5,5.5,2.5c0.4,0,0.9,0,1.4-0.1l1.7-0.2l0.7-1.5c0.3-0.7,0.5-1.4,0.4-2.1l0.5,0.4
		l0,0.5c0.1,0.7,0.2,1.3,0.3,1.8l-1.1,0.9l0.3,1.7c0.4,2.1,1.4,3.5,2.3,4.7c0.3,0.4,0.5,0.7,0.7,1.1l1.2,2l3.2-1.1l0.2-0.1
		c0.4,0.5,1.1,1,1.9,1.5l1,0.5l0.6-0.1l-0.1,0.2c-0.5,0.9-1,2-1,3.3l-4.7-3.5l-1.2,3.1c-0.2-0.3-0.4-0.6-0.7-1
		c-2-2.7-4.4-4.3-6.7-5.8c-0.8-0.6-1.7-1.1-2.5-1.7c-0.7-0.5-1.4-1.2-2.2-1.9c-1.3-1.2-2.8-2.6-4.7-3.6c-4.4-2.3-10.7-2.6-16.3-2.6
		c-1.8,0-3.5,0-5.2,0.1c-1,0-1.9,0-2.9,0l-0.5,0l-0.5,0.2c-1.1,0.4-2.4,0.5-3.8,0.6c-1.9,0.1-4,0.2-6,1.3
		c-5.2,2.9-10.3,9.4-13.6,17.3c-3.6,8.6-4.6,17.5-2.7,24.8l0.1,0.3l10.5,21.1c0.5,2.6-0.4,5.6-1.3,8.4c-0.8,2.4-1.5,4.8-1.5,7.3
		c0,3.1,1.4,5.6,4.1,7.5c2,1.4,3.9,2.1,5.8,2.1c5.7,0,8.4-5.8,10-9.8c1.3,0.3,2.6,1.1,4.1,2c1.5,0.9,3.1,1.9,4.9,2.5
		c1.8,0.5,3.7,0.8,5.8,0.8c5.8,0,12.5-2.1,17.1-5c-2.8,5.9-4.6,11.6-5.7,15.9c-1.5,6.1-0.5,12.6,0.7,17.9l-4.6-2.5l-10-2
		c-1.3-0.3-2.8-0.4-4.3-0.4c-4.4,0-8.5,1.1-11.8,1.9c-0.5,0.1-1.1,0.3-1.6,0.4c-0.9,0.2-1.8,0.4-2.7,0.6c-3.7,0.9-7.6,1.8-10.9,3.8
		c-4.7,2.9-10.5,10.2-14.8,18.4c-2.9,5.6-7.5,16.6-5.7,26.4c0.9,5.2,3.4,13.1,5.7,18.4c1.2,2.8,3.8,4.1,5.9,5.2
		c0.8,0.4,1.7,0.8,2.2,1.3c1.2,0.9,2.2,2,3.3,3.2c2,2.2,4.2,4.6,7.9,6c3.6,1.4,6.9,2.1,10.3,2.1c2.7,0,5.2-0.4,7.5-1.1v1.6h0.5v-1.8
		c0.5-0.1,1-0.3,1.4-0.5v2.2h0.5v-2.4c2.5-0.9,4.8-2,7.2-3.1c3.6-1.7,7.4-3.5,11.5-4.4c0.1,0,0.2,0,0.3,0c0.5,0,1,0.3,1.8,0.9
		c0.8,0.6,1.8,1.2,3.1,1.5c1,0.3,2.1,0.4,3.3,0.4c4.3,0,10-1.9,12-5c3.8-5.8-0.9-13.3-3.6-17.7c-0.1-0.2-0.3-0.5-0.4-0.7
		c0.1-0.1,0.2-0.2,0.3-0.3c0.4-0.4,0.9-1,1.4-1.8c2.6-4.5,1.9-9.2,1.1-12.6c3.5-5.1,3.2-7.7,2.2-12.3c-0.1-0.3-0.1-0.5-0.2-0.8
		c6.9,1.4,20.4,3.9,24.8,3.9c0.8,0,1.4-0.1,2-0.3l0.5-0.2l7-5.7h6.9c6.4,0,11.4-1.3,15.9-4c2.2-1.4,4.8-4.3,7.6-7.4
		c1.2-1.3,2.9-3.2,4.3-4.6l2.9,11l0.1,0.3c4.5,9.2,8.5,20.7,12,30.8c-17,5.4-30.7,16-38.8,30.1l-0.2,0.4c-1.8,3.1-3.7,6.7-3.2,9.9
		c0.4,2.5,1.7,4.6,3,6.5c2.2,3.4,3.1,5,0.7,8.2c-0.8,1-1,1-1.2,1c-0.1,0-0.2,0-0.3,0c-0.3-0.9-0.6-2.1-0.8-3.2
		c-0.2-1.2-0.5-2.4-0.9-3.6c-4.8-14.6,1.1-20.6,9.2-28.9c1-1,2.1-2.1,3.1-3.2c0.9-1,1.9-2.3,2.8-3.6c0.9-1.2,2.4-3.3,3.1-3.7
		l1.2-0.6l0.3-1.4c0.4-1.9,0.6-4.5-2.6-6.3l-0.7-0.4l-0.8,0c-4.9,0.2-8.1,3.7-10.4,6.3c-0.5,0.6-1,1.1-1.4,1.5l-0.4,0.4
		c-5.5,5.5-12.2,12.2-15.7,21.8c-1.6-0.8-3.1-2.1-4.7-3.4c-2.3-1.9-4.6-3.9-7.6-4.9c-1.5-0.5-3.1-0.8-4.8-0.8
		c-6.8,0-13.4,4.2-16.7,6.7c-0.7,0.5-1.3,1-1.9,1.5v-1.4h-0.5v1.8c-3.6,3.1-6.6,6.7-7.9,9.5l-0.3,0.7l0,0.7c0.1,2.4,0.8,3.4,1.7,4.5
		c0.1,0.1,0.2,0.3,0.3,0.4l0.7,1l1.8,0.2c0,1.3,0.6,3,2.3,5.1c1.5,1.9,3.4,3.4,3.6,3.6l0.2,0.2l0.3,0.1c1,0.5,2,0.8,3,0.8
		c0.6,0,1.1-0.1,1.5-0.2c0.3,0,0.5-0.1,0.6-0.1c0.1,0,0.1,0,0.2,0c0.8,0.6,3,2.5,4.3,3.6c-0.1,0.2-0.1,0.5-0.2,0.7
		c-0.3,1.1-0.6,2.3-0.6,4.1l0,0.8c-3.9,1.6-6.6,5.7-8.8,9.1c-1,1.6-2.1,3.3-3.1,4.3c-1.9-0.5-3.6-1.7-5.6-3.1
		c-3.4-2.5-7.7-5.6-14.5-5.6c-0.1,0-0.2,0-0.3,0l-1,0l-2.8,2.2l-0.2,1c-1.3,6,2.3,8.8,4.7,10.6c0.8,0.6,1.5,1.1,2,1.7
		c1.1,1.1,2.4,2.1,3.7,3h-2.6l-0.9,1.2c-2.6,3.7-1.8,8-1.1,11.7c0.5,2.5,0.9,4.8,0.4,6.7l-2.5,3.9l-0.9,4.5c-2.8,3.9-9.2,6.1-18,6.1
		c-6.4,0-13.7-1.1-20.2-3.1c-1.1-0.3-2.2-0.8-3.4-1.2c-3.2-1.2-6.8-2.5-11.3-2.5l-1.2,0l-2.5,2.5l0.1,0.9h-20.9v-5.8H133v-11.8h-5.3
		V609H95.2v-8.9h-40v8.9v2.8v7.3v1.6v7v3.1v5.8v2.8v6.8v2.1v9.6h33.2v-9.6h55.4v-4.1c3.5,4.2,9.8,7.1,18.5,8.5
		c-0.8,1.2-2.1,2.6-3.4,3.9c-3.1,3.2-6.7,6.9-6.8,11.8l0,1.2l3.1,3.1l1.1,0.1c0.3,0,0.6,0,0.8,0c5.1,0,7-3.4,8.4-5.9
		c1-1.8,1.7-2.9,3.1-3.5c7.8-3.2,13.1-3.7,19.1-4.4c2.6-0.3,5.2-0.6,8.2-1l8.2,5.5c0.1,0.1,0.3,0.4,0.4,0.7c0.5,1.1,1.4,2.9,4,3.6
		c0.8,0.2,1.6,0.4,2.4,0.4c1.7,0,2.9-0.6,3.8-1.1c0.3-0.1,0.5-0.3,0.7-0.3l0.9-0.4l0.5-0.8c1.9-3,3.1-7.8-1.6-13.4
		c-2.6-3.1-6.1-5.5-8.9-7.4c0.8-1.7,2.6-2.5,6-3.6c0.5-0.2,1.1-0.4,1.6-0.5c0.2,0.2,0.3,0.4,0.5,0.6c1,1.3,2.2,2.9,4.4,2.9
		c1.5,0,2.7-0.7,4.6-2.1l2.1,2.3l1.2,0c0.2,0,0.3,0,0.5,0c3.5,0,5.7-1.4,6.8-4.2c0.5-0.2,1-0.3,1.6-0.3c1.8,0,3.8,1,5.9,2.1
		c1.8,0.9,3.7,1.9,5.8,2.3l0.3,0.1h8.8c1.2,0.6,3,2.1,3.6,2.9c-0.1,0.4-0.6,1.1-0.9,1.5c-0.3,0.5-0.6,1-0.9,1.5
		c-2.1,4.5-4.3,4.9-6.6,4.9c-1.1,0-2.3-0.1-3.6-0.2c-1.5-0.1-3.2-0.3-5-0.3c-2,0-3.7,0.2-5.4,0.6l-1.2,0.3l-0.6,1.1
		c-0.7,1.2-1.1,2.4-1.4,3.5c-0.3,1-0.6,1.9-1,2.4l-0.7,0.9l0.1,1.2c0.6,6.5,5.3,6.9,7.8,7.1c1,0.1,2,0.1,2.5,0.5
		c3.3,1.9,4.8,6.3,4.6,13.5c-2.7,1.7-6,3-9.3,4.3c-3.4,1.4-7,2.8-10,4.7c-2.4,1.5-3.8,3.5-4.9,5.2c-0.7,1-1.4,2-2.2,2.8
		c-3.9,3.7-8.4,12.2-4.4,19.5c1.3,2.6,4.4,4.4,7.6,4.4c1.1,0,2.2-0.2,3.3-0.6c3.6-1.5,6-4.5,8.4-7.5c1.5-1.9,3-3.8,4.6-4.9l0.6,6.3
		l0.1,0.3c2.6,7.1,8.9,12.3,16.8,13.9l0.2,0l6,0.2c0.8,0.5,1.7,1.4,2.7,2.4c2.3,2.3,5.1,5.2,9.7,5.2c1,0,2.1-0.2,3.2-0.5l0.2,0
		l0.1-0.1c2.4-1,3.8-3.1,4.1-5.8c0.3-3.6-1.6-8.3-3.8-10.9c0.2-0.4,0.5-0.8,1-1.4c0.3-0.4,0.7-0.9,1.1-1.4c0.9-1.3,1.9-2.6,2.9-4
		c4-5.3,8.5-11.3,8.4-20.4l0-1.1l-0.8-0.8c-3.1-3.2-7.2-3.8-11.2-4.4c-1.5-0.2-3.1-0.4-4.6-0.8l-2.2-7.3l-4.9-3.7
		c-0.8-2.2-2.9-9.5-3.7-12.1c2.6-5.5,7-13.9,9.2-16.6c0.5,0.1,1.1,0.2,1.8,0.4c1.3,0.3,2.7,0.7,4.3,0.7c0.7,0,1.3-0.1,2-0.2
		c-1.1,3.9-0.9,8.2,0.7,13.2c0.1,0.3,0.2,0.6,0.3,0.9c0.8,2.6,1.7,5.5,4.1,7.3c3.7,2.8,9.7,6,17.2,6c3.4,0,6.9-0.7,10.2-2.1l0.3-0.1
		l3.5-2.3c1.2-0.3,2.3-0.3,3.5-0.3c1.8,0,3.9,0,6-1.2c0.5-0.3,1.4-0.9,2.7-1.7c2.3-1.4,8.9-5.7,11.1-6.3c0.4,0.2,0.7,0.5,1.2,1.2
		c0.4,0.5,0.8,1.1,1.5,1.7l0.4,0.3l3.7,1.5c1,0.7,1.8,1.7,2.5,2.6c0.6,0.7,1,1.3,1.6,1.8l0.5,0.4l1.3,0.3c0.2,0.2,0.4,0.4,0.6,0.6
		c0.6,0.7,1.2,1.5,1.8,2.4c1.2,1.7,2.6,3.7,4.7,5.3l1.1,0.8l5.2-1.4l0.6-1.1c1.8-3.2,0.9-6.9-2.7-10.8c-2.6-2.8-6.1-5.4-9.6-8
		c-2.8-2.1-6.2-4.6-7.5-6.2c3-3.2,7.5-8.9,5.1-15.2l-0.1-0.2l-3.1-5.6c0.1-0.2,0.3-0.5,0.8-1.1c0.6-0.8,1.4-1.8,1.8-3.2
		c1.1-4.3-1.2-7.6-2.7-9.8c-0.1-0.2-0.3-0.4-0.4-0.6l0.1-0.7c0.5,0.1,1,0.2,1.5,0.3c0.2,0.1,0.5,0.1,0.7,0.2
		c6.5,1.5,7.1,5.1,8.2,11.2c0.6,3.4,1.3,7.2,3.3,10.9l0.2,0.4l2.6,2.6l1.5-0.3c0.1,0,0.2,0,0.3-0.1c1.2-0.2,3.8-0.6,5.2-3.5l0-0.1
		l0-0.1c1.2-3.2,0.1-7.3-1.1-11.7c-0.5-1.9-1.1-3.9-1.3-5.6c0.8-0.6,1.8-1.1,2.8-1.6c2.4-1.3,5.2-2.8,6.7-5.3
		c1.3-2.1,2.2-4.7,1.9-7.7c11.5,11.5,27.9,23,49.6,26.9c0.1,0,0.2,0,0.2,0c-0.6,1.2-1.2,2.4-1.7,3.6c-0.4,0.9-1.1,2.7-1.7,4.9
		c-0.4-0.2-0.8-0.4-1.1-0.5c-0.8-0.3-1.3-0.5-1.5-0.9c-0.2-0.3-0.4-1.3-0.5-1.8c-0.2-1.2-0.5-2.5-1.2-3.6l-0.6-1l-4.9-1.1l-3.1,3.1
		l-0.1,0.1c-2,2.3-2.5,5.1-1.3,7.8c1.9,4.2,7.7,7.5,12.3,8c-0.2,2.4-0.1,4.9,0.3,7.4c0.6,3.6,0.8,6.9,0.7,9.4c-0.2,0-0.4,0-0.5,0
		c-1,0.1-2.3,0.1-3.6,0.6c-3.2,1.2-5.7,3.8-7.1,7.3c-1.7,4.3-1.4,9.5,0.7,13.8l0.5,1l1,0.4c1.9,0.8,3.9,1.1,5.9,1.1
		c1.7,0,3.3-0.3,4.8-0.6c0,0.4,0,0.9,0.1,1.3c0.2,5.8,0.5,11.8,4.1,13.7l0.1,0c0.8,0.4,1.7,0.6,2.7,0.6c2.1,0,4.2-1,5.3-2.5l0.1-0.1
		c1.4-2.1,1-5.7,0.5-7.7c1.1,0.4,2.3,0.7,3.6,0.7c1.4,0,2.8-0.4,4-1c0.6,4.5,2.8,9.8,7.6,15.9c-0.4,0.4-0.8,0.8-1.1,1.3
		c0-0.1-0.1-0.1-0.1-0.2l-0.1-0.1l-0.1-0.1c0-0.1-0.1-0.1-0.1-0.2c-0.9-1.3-1.8-1.7-3-1.8c-0.1,0-0.3,0-0.4,0l-1.4-0.2l-1,1.1
		c-1,1-1.7,1.9-1.9,3.8l-3.5,1.6l-0.4,1.1c-0.5,1.1-1.3,3-0.3,5.3l0.7,2.2l1.6,0.3c0.5,0.1,1,0.2,1.5,0.2c0.7,0,1.3-0.1,1.9-0.3
		c-0.4,2-0.5,6.7-0.5,13.8c0.1,8.2,0.4,13.1,0.9,14.4c0.8,2,2.1,3.1,3.2,4.1c0.5,0.4,0.9,0.8,1.3,1.2l1.2,1.5l5.2-1.5l0.4-1.7
		c0.3-1.4,0.8-2.6,1.2-3.7c0.3-0.7,0.6-1.5,0.9-2.3l0.4-1.2l-0.6-1.1c-0.6-1.1-2.3-4.8-3.6-8.6c-1.8-5.2-1.9-7.4-1.9-8.1l4.7-7.5
		l2.1-5.7c0.5-0.4,1.7-0.8,2.5-1c1.1-0.4,2.3-0.7,3.4-1.4c10.7-6.3,19.4-10.6,26.7-13.2l5.2-1.1c-1,9.5-1.9,26.6,3.6,26.6
		c7.7,0,12.5-16.4,29.9-20.2c17.3-3.9,34.7,0,41.4-10.6c5.7-9,9.4-33.4-11.1-41.1c0,0,0-0.1,0-0.1c0.1-1.2,0.2-2.4,0.4-3.4l2.4-3.1
		l0.1-0.1c1.6-2.5,1.7-6.4,1.3-9.7c0.3,0.1,0.7,0.1,1,0.1c1.5,0,2.9-0.6,3.8-1.8c0.6,0.8,1.5,1.4,2.5,1.7c0.8,0.3,1.6,0.5,2.5,0.5
		c2.1,0,3.7-1,4.8-1.7c0.1-0.1,0.3-0.2,0.4-0.2l1.1-0.6l0.3-1.2c0-0.2,0.1-0.3,0.1-0.5c0.2,0,0.3,0,0.5,0c0,0,0,0,0,0
		c1.7,0,3.2-0.9,4-2.4c1.9-3.8-1.3-7.2-2.6-8.5c-0.1-0.1-0.2-0.2-0.2-0.3l-0.7-0.8l-4.8-0.9l-3,2v3.2l-4.2,1.1l-0.1,0.1
		c0.3-0.9,0.8-1.8,1.3-2.5c0.2-0.3,0.4-0.6,0.5-0.9l0-0.1l0-0.1c0.7-1.6,0.7-3.6-0.1-5.4c-0.8-2.1-2.4-3.9-4.1-4.6l0,0
		c-0.7-0.3-1.4-0.4-2.1-0.4c-1.7,0-2.8,0.8-3.6,1.5c-1.2-0.2-1.5-0.7-2.1-2.2c-0.4-0.9-0.9-2.1-1.8-3.4l-0.5-0.7l-6.6-2.9
		c0.3-0.2,0.6-0.4,0.9-0.6c1.6-1,3.7-2.3,4.6-4.7c0.9-2.4,0-4.6-0.7-6.3c-0.3-0.7-0.5-1.3-0.7-1.9c0.7-0.1,1.4-0.1,2.2-0.1
		c2.9,0,5.8,0.6,7.8,1.7l0.6,0.3l0.8,0c0.4,0,0.7,0,1.1-0.1c0.1,0.7,0.2,1.5,0.4,2.2l0.3,1l0.8,0.6c0.6,0.5,1.3,0.8,2,1.1
		c-0.1,0.1-0.1,0.2-0.2,0.2l-0.3-0.2l-0.2,0.4c-1.3-0.7-2.8-1.3-4.6-1.8l-0.9-0.3l-3.8,1.4l-2,3.5l0.5,2.8l0.2,0.4
		c0.6,1.3,2.3,2.7,5,4.2c1.8,1,4.5,2.3,6.6,2.3c0.3,0,0.7,0,1-0.1l1.2-0.2l1.4-2.2l0.1-0.5c0.5,0.2,0.9,0.4,1.4,0.6l-1.3,4.5l0.5,1
		c0.1,0.3,0.3,0.6,0.4,0.8c1,2,2.2,4.4,5.8,5.2l0.3,0.1h3.5l2.7-4.8l-0.4-1.2c-0.5-1.5-0.4-2.7,0.1-5.2c0-0.1,0-0.2,0-0.3
		c0.7,3,2.3,6,4.6,7.6l-0.1,0.6c-0.1,0.3-0.6,2.8-0.2,5l-3.3,2.6l0.6,3.5l0.1,0.3c0.6,1.3,1.6,2.4,2.9,3.1c-0.6,1.2-1,2.6-1.1,4.2
		l-0.1,0c-1.4,0-4.1,0-5.5,2.2c-1.6,2.5-0.7,5-0.2,6.4c0.1,0.2,0.2,0.4,0.2,0.6v4.5l0.2,0.5c1.6,3.8,8.8,5.7,11.1,5.9l0.7,0.1
		l0.6-0.3c5.5-2.2,4.5-6.2,3.8-8.7c0.2-0.2,0.5-0.4,0.8-0.7c0.5-0.4,1.2-1,1.9-1.8l0.5-0.6l0.1-0.8c0.1-0.6,0.3-1.7-2-7.2
		c-0.9-2.2-1.6-3.6-2.2-4.6l0.1,0v-5.5l-0.2-0.5c-0.1-0.2-0.2-0.5-0.3-0.7c1.2-1.9,2.1-5-0.2-9.3l-0.1-0.2l1.7,0.6l2.4-2.4l0.2-0.5
		c0.7-1.8,0.3-3.8-0.4-5.1l1.2-0.4l0.5-1.3c0.4-1.1,0.8-2.4,0.4-4V608.5z M542.3,408.6c0,0,0.1,0,0.1,0.1c0.1,0.1,0.3,0.1,0.4,0.2
		l0,0l-1.4,1c0-0.3,0-0.7-0.1-1L542.3,408.6z M598.9,232.2l-0.4,0.2c-0.2,0.1-0.5,0.2-0.7,0.3c-1.4,0.7-2.4,1.3-3.4,3.3l-0.3,0.7
		l0,0.8c0.1,1.5,0.4,2.5,0.8,3.3l-1,1.9c-0.2-0.2-0.4-0.5-0.6-0.7l0.5-2.2l-0.1-0.6c-0.2-0.9-0.6-1.7-1.1-2.6
		c-0.3-0.6-0.9-1.8-1-2.3C592.5,232.7,596.1,232.3,598.9,232.2z M588.1,170.5c0.2,0.2,0.4,0.4,0.5,0.6c0.4,0.5,0.9,1.1,1.4,1.6
		c-0.9,0-1.7,0.2-2.4,0.5c0.1-1,0.2-2.1,0-3.3L588.1,170.5z M576,142.1c-0.1,0-0.2,0.1-0.3,0.1l-0.1-0.3
		C575.7,142,575.8,142,576,142.1z M568.1,153.9c-0.1,0-0.1,0-0.2,0c-0.4-0.7-0.8-1.5-1.3-2.1c0.1,0,0.2,0,0.3,0
		c0.1,0.2,0.2,0.4,0.3,0.5c0.2,0.5,0.6,1.1,1.1,1.7C568.2,154,568.2,153.9,568.1,153.9z M572.2,136c-0.2,0.9-0.2,1.9,0.2,3.2
		l0.2,0.7c-0.5-0.2-1.1-0.3-1.9-0.3c0-0.2,0-0.4-0.1-0.6l-0.2-1.4l-1.2-0.7c-0.7-0.4-1.3-0.8-2.1-1l-0.5-1.8c0.1,0,0.2,0,0.3-0.1
		h2.2C570.2,134.9,571.2,135.5,572.2,136z M566.6,122.1c0.6,0.9,1.4,1.7,2.3,2.4l-0.9,0.9c-0.6-0.7-1.2-1.4-2-1.9
		C566.2,123.2,566.4,122.7,566.6,122.1z M560.5,254.4c0-0.1,0-0.1,0.1-0.2c0.2,0.1,0.3,0.2,0.5,0.3c-0.1,0-0.3,0-0.5,0
		C560.6,254.5,560.5,254.5,560.5,254.4C560.5,254.5,560.5,254.4,560.5,254.4z M531.5,325c-0.3-0.2-0.6-0.4-0.9-0.7
		c-0.7-0.5-1.3-1.1-1.7-2c0.3,0.1,0.6,0.2,0.9,0.2c1.3,0.3,2,0.5,2.4,0.9l0.3,2.2C532.2,325.5,531.8,325.2,531.5,325z M548.9,142.5
		l-0.3-3.1c1.1,0.3,2.4,0.5,3.7,0.5c1.4,0,2.8-0.2,4.1-0.7l0.5-0.2c-0.1,1.8,0,3.6,0.2,5.2c0.3,1.5,0.7,2.8,1.2,3.9c0,0,0,0,0,0
		l-1.1,0l-0.8,0.8c-1.1,1-1.9,2-2.3,3.4l-1.3,0.2c-0.2-1.1-0.4-2.2-0.7-3.2l-0.3-1l-0.9-0.5c-0.1-0.1-0.2-0.1-0.2-0.2
		c-0.7-0.5-1.2-0.7-2.5-1l-2.1-0.4l-0.9,2c-0.1,0.1-0.1,0.2-0.2,0.4c0,0.1,0,0.1-0.1,0.2h-3.8c-0.6-1.6-1.4-3.2-2.4-4.6
		c0.1,0,0.1,0,0.2,0c0,0,0,0,0,0c1,0,2-0.2,3-0.6l0.4-0.2l0.3-0.3c0.3-0.3,0.6-0.5,0.8-0.8H548.9z M531.2,105
		c-0.1,0.3-0.2,0.6-0.3,0.9c-0.4-0.2-0.8-0.5-1.2-0.7L531.2,105z M522.5,117.9c0.4-0.2,0.5-0.2,0.7-0.2c0.1,0,0.2,0,0.3,0
		c0.9,0.2,1.9,0.5,3.1,0.9c2.1,0.7,4.4,1.4,6.9,1.4c0,0,0,0,0,0c1.4,0,2.7-0.2,3.9-0.7c-0.1,2.1,0.2,4.4,1.8,6.2l0.1,0.1l2.3,2.3
		l2.7-0.5c-0.8,0.9-1.3,1.9-2,3.4l-0.1,0.3c-1.1-0.3-2.2-0.5-3.4-0.6l-1.4,0l-1,1.2h-4.4l-0.5-0.7l-3.3-1.1l-1.3,1.2
		c-0.1,0.1-0.2,0.2-0.3,0.3c-0.3-1.5-0.8-2.9-1.3-4.1l-0.4-1l-2.6-1.3l0,0c0.5-2,0.5-4.5-0.1-6.8C522.3,118.1,522.4,118,522.5,117.9
		z M172,303.9c0-0.2,0-0.3,0-0.5h0.6L172,303.9z M178.9,292.4c-0.3,0.9-0.6,2-0.7,3.3c-0.6,0.4-1.2,1-1.7,1.8l-0.1,0l-0.4-1.1
		c0.3-0.8,0.5-1.8,0.2-3.1v-2.9h-6.2l0.1-0.4c0.3-0.8,0.4-1.7,0.5-2.5c0.3,0.5,0.7,0.9,1.2,1.3l0.8,0.6h5l0.1-0.3
		c0.6,0.5,1.2,1,1.8,1.3C179.3,291,179.1,291.6,178.9,292.4z M183.8,309.3v-2.8c0.3,0.3,0.6,0.7,1,1.1
		C184.4,308.1,184.1,308.6,183.8,309.3z M212.8,339.2l-0.7-0.1c0-0.4,0-0.9-0.1-1.4c0.1,0,0.3-0.1,0.4-0.1c0.2,0.2,0.4,0.3,0.5,0.5
		L212.8,339.2z M289.2,333.9v2.3c0,0,0-0.1,0-0.1l-0.3-2l-0.7-0.1H289.2z M286.3,332.2c0.4,0,0.7,0,1-0.1v1.6l-3.3-0.6l-1,0.9
		c0-0.2,0-0.4,0-0.6c0-0.6-0.1-1.4-0.1-2.2C283.8,331.9,285.1,332.2,286.3,332.2z M235.1,357.4L235.1,357.4l0.5-0.9
		c0.1,0.1,0.3,0.2,0.5,0.4c0.1,0.5,0.2,1,0.4,1.5l-1.3,1.3C235.2,358.9,235.2,358.1,235.1,357.4z M230.6,364.1l1.2,0l0,0v0.9
		l-1.2-0.4L230.6,364.1z M292.6,363.3l-1.9,40.1c-0.5,3.5-0.2,7.5,0,11.3c0.3,4.3,0.6,8.8-0.4,11.7c-1.9-1.1-4.1-4.1-5.5-6
		c-0.5-0.7-1-1.4-1.5-2c-3.5-4.3-9.7-7.9-16.4-9.6c-2.8-0.7-6.1-1.1-9.8-1.1c-4.1,0-8.5,0.5-12.4,1.3c-1.6,0.3-3.2,0.5-4.8,0.7
		c-2.7,0.3-5.4,0.6-8,1.7c-3.3,1.4-6.4,3.5-9.3,6.2c1.2-2.8,2.1-5.7,2.8-8.7c1.7-7.8,1.6-15.9-0.3-24.9l-0.2-1.1
		c0-0.2-0.1-0.3-0.1-0.5l4,2v-8.5h-5.4l-0.1,0.2c-0.2-0.5-0.3-1.1-0.5-1.6h1.2l2.2-2.2v0.1l1.6,0.8c0.6,0.3,1.5,0.7,2.7,0.7
		c0.6,0,1.1-0.1,1.8-0.3l1.8-0.5l0.3-1.9c0.2-1.2,0.1-2-0.1-2.8l1.6,0.5h2.6l0.8-1.7c0-0.1,0.1-0.2,0.1-0.2c0-0.1,0.1-0.1,0.1-0.2
		l1.2-0.8c0.1-0.1,0.2-0.1,0.3-0.2c0.8,0.5,1.7,0.8,2.6,0.8c1.3,0,2.6-0.5,3.5-1.5c0.3-0.3,0.5-0.6,0.8-1.1l2,1.6l1.3-0.2
		c0.2,0,0.3,0,0.4,0c1-0.1,1.6-0.4,2.3-1.1v4.2l5.5,0.7l0.9-0.6c0.1,0,0.1-0.1,0.2-0.1c1.3-0.9,1.7-1.8,1.8-3c0-0.1,0-0.3,0-0.4
		l0.3-2.8l-1.2-0.1l0.6-4.5l-2.1-1l2.4-0.4c0.4,1.2,0.9,2.5,2.1,3.7l0.9,0.9h0.3l-3.3,5l1.8,0.9v5.7l7.7-7.7l-3.8-3.8h1.2l0.8-1.5
		c0.3-0.6,0.6-1.1,0.7-1.6h2.2l1.6-1.1l-0.5,0.9c-0.1,0.1-0.1,0.3-0.2,0.4c-0.6,1-1,1.9-1.1,3.8l-0.1,1.8l1.6,0.9
		c1,0.5,2,0.8,2.9,0.8c2.4,0,4.1-1.6,4.5-4.1l0-0.2v-4.8h-6.4l0.9-2.8l0,0l0.6-1.2c0.6-1.2,0.7-2.4,0.4-3.7l2.4-0.5l0.3-3.4
		c0.9-0.3,1.9-0.8,2.6-1.8c0.4,0.6,0.5,1,0.7,2.1l0,0.1l-1.8,0.5l-0.6,1.2c-1.4,2.9-0.1,4.6,0.7,5.8l0.6,0.8l1,0.3
		c1.1,0.3,2.5,0.6,4,0.6c0.6,0,1.2-0.1,1.8-0.2l-0.1,0.8h5.6L292.6,363.3z M295.6,345.4c-0.3,1-0.5,2-0.7,2.9l0,0.1l-0.1,0.6
		c-0.1-0.3-0.3-0.6-0.6-0.9l-3.3-4.2l0.8-4.9l-1.2-1.1c-0.8-0.8-1.1-1-1.2-1.7l3.8,0.8h2.8l0.4-1.5c0.3,0,0.7,0.1,1,0.1
		C297.3,338.9,296.4,342.3,295.6,345.4z M212,616c-0.3-0.7-0.6-1.5-0.8-2.4c-0.5-1.5-1-3.3-2.1-4.9c1,0.8,1.8,1.5,2.4,2.3l1.5,4.5
		C212.6,615.7,212.3,615.8,212,616z M241.8,593.8c-0.2,1.9-0.5,4.1-0.3,6.2c-0.8-0.4-1.6-0.8-2.3-1.1c-2-0.8-2.9-1.2-3.3-3
		c0.3-0.4,0.6-0.7,0.9-1.1c1.4-1.8,3.2-4.1,3.7-7.3c0.5,0.1,1,0.3,1.5,0.4C242.3,589.4,242,591.6,241.8,593.8z M323.3,627.4
		c-0.7,0-1.5-0.1-2.3-0.2c-1-0.1-2-0.2-3-0.2c-1.8,0-3.4,0.3-4.9,0.9l0,0l-7.6,3.5c-0.2,0-0.4,0-0.6,0c-1.5,0-4.3,0.4-5.7,1.2
		l-0.4,0.2l-4.9,5.7c-0.2,0.2-0.5,0.4-0.7,0.6c0.1-0.1,0.1-0.3,0.2-0.4c0.5-1.1,1-2.2,1.4-3.1l4.3-3.2c7.7-5.9,13.3-9.6,24.6-9.9
		l0.9,4.8C324.1,627.4,323.7,627.4,323.3,627.4z M341,191c-2.7-1.2-4.4-1.9-5.1-3.7c1.1-0.3,2.1-0.4,3-0.4c2.8,0,4.1,1.1,4.6,3.7
		l0.1,0.4l-1.2,0.6C341.9,191.4,341.4,191.2,341,191z M454.7,210.3c0,0-0.1-0.1-0.1-0.1l0.1-0.1
		C454.7,210.2,454.7,210.3,454.7,210.3z M498.6,153.3c-0.1-0.1-0.2-0.2-0.3-0.3c0.1,0.1,0.3,0.1,0.4,0.2
		C498.7,153.2,498.7,153.3,498.6,153.3z"/>
	<path fill="#231F20" d="M221,685.3c1.8-2.1,2.3-5,1.6-8.6l-0.2-1.1l-0.9-0.7c-0.7-0.5-2.7-2-12.3-4.8c-5.1-1.5-10.4-2.8-13.1-3.4
		l-0.3-0.1l-12.9-0.3l-0.6,0.3c-0.7,0.3-1.4,0.5-2.2,0.7c-1.9,0.5-4.3,1.2-5.9,4.2l-0.4,0.7l0,0.8c0.2,3.7,2,5.3,3.3,6.4
		c0.3,0.3,0.6,0.5,0.9,0.8l2.8,4.1l0.4,0.3c4.1,3,13.4,3.8,22.6,4.3c0.5,0,1,0.1,1.5,0.1c1.4,0.1,2.6,0.1,3.7,0.1
		C217,689.1,219.7,686.9,221,685.3z"/>
	<rect x="86.7" y="44.7" fill="#231F20" width="0.2" height="16.4"/>
	<rect x="205.9" y="44.7" fill="#231F20" width="0.2" height="16.4"/>
	<path fill="#231F20" d="M91.6,63v4.8h107v-5.2l240.3-0.9c-1.1,1.5-2.1,3.5-1.7,6.5l0.4,3.6l3.4-1.3c3.2-1.2,4-5.2,4.2-6.5l0.3-1.5
		l-0.8-0.8l85.6-0.3l3.3,3.3l3.2-0.6l0.4-0.2c1.4-0.8,2-1.7,2.3-2.5l18.4-0.1c-0.9,1.1-1.7,2.4-2.1,3.8c-0.4,1.7-0.1,3.3,0.8,4.8
		l0.2,0.3l1.3,1.3l3.5,0.7l1.1-1c0.1-0.1,0.3-0.3,0.4-0.4c1.9-1.7,5.4-4.8,4.3-9.5l1.7,0v0.6l1.1,0.9c0.1,0.1,0.2,0.2,0.3,0.2
		c-1,0.7-1.8,1.9-2.2,3.9l-0.3,1.3l0.9,1c0.7,0.9,1.5,1.5,2.1,2c0.9,0.7,1.2,1,1.5,1.8l0.6,1.4l1.4,0.3c0.7,0.2,1.3,0.2,2,0.2
		c3.4,0,6.2-2,8.6-5.9l0.4-0.7v-3.3l-0.9-0.9c-0.2-0.2-0.4-0.3-0.6-0.5l3.1-1.6l-0.2-0.5l-3.4,1.7c-0.2-0.1-0.4-0.3-0.6-0.4
		c0.4-0.4,0.8-1,1.2-1.7l0.1-0.3l0.4-1.6v-2.3l-1.5-0.8c-1.5-0.8-3.5-1.2-6.7-1.2c-1,0-2,0-2.9,0.1c-0.3,0-0.7,0-1,0l-0.4,0l-3.1,1
		V61l-1.7,0c0-0.1,0-0.1-0.1-0.2l0-0.1l-0.8-2.4l-3.9-0.8l-0.9,0.6c-1,0.6-2.3,1.6-3.5,2.9l-18.6,0.1c0.1-0.2,0.1-0.4,0.1-0.6l3-3h0
		l0.9-1l-11.1-0.9l-3.2,4.8l0.6,0.6l-85.6,0.3l-2.9-2.9l-2,2.3c-0.2,0.2-0.3,0.4-0.5,0.6l-240.4,0.9V36h-107v26.7L55,62.9l0,0.2
		L91.6,63z"/>
	<circle fill="#231F20" cx="69.7" cy="46.8" r="12.5"/>
	<rect x="211.1" y="41.8" fill="#231F20" width="73.3" height="17.3"/>
	<rect x="14" y="757.7" fill="#231F20" width="19.7" height="10.8"/>
	<rect x="35.3" y="759.8" fill="#231F20" width="95.3" height="8.6"/>
	<rect x="55.2" y="156.5" fill="#231F20" width="47.2" height="15.4"/>
	<polygon fill="#231F20" points="55.2,185.4 55.2,190.2 55.2,196 55.2,200.8 55.2,205.2 55.2,211.4 55.2,211.9 55.2,220.6 
		55.2,227.3 87,227.3 87,220.6 142.1,220.6 142.1,205.2 122.7,205.2 122.7,200.8 144.6,200.8 144.6,185.4 134.2,185.4 134.2,174.8 
		55.2,174.8 	"/>
	<polygon fill="#231F20" points="147.3,229.8 55.2,229.8 55.2,237.1 55.2,237.8 55.2,244.8 55.2,246.2 55.2,253.9 86.8,253.9 
		86.8,246.2 133.9,246.2 133.9,237.8 147.3,237.8 	"/>
	<polygon fill="#231F20" points="131.8,270.9 131.8,261.3 55.2,261.3 55.2,270.9 55.2,271.9 55.2,281.1 55.2,281.5 55.2,291.7 
		55.2,292.8 55.2,301.8 55.2,303.4 55.2,311.9 55.2,313.5 55.2,322.5 55.2,323.6 55.2,332.1 55.2,334.3 55.2,342.7 55.2,343.9 
		55.2,352.9 55.2,354.5 55.2,362.5 55.2,364.6 55.2,374.2 123.4,374.2 123.4,364.6 136.3,364.6 136.3,354.5 145.5,354.5 
		145.5,342.7 131.8,342.7 131.8,334.3 145.6,334.3 145.6,322.5 126.4,322.5 126.4,313.5 131.8,313.5 131.8,303.4 134.7,303.4 
		134.7,292.8 141.4,292.8 141.4,281.1 137,281.1 137,270.9 	"/>
	<polygon fill="#231F20" points="138,460.5 138,450.9 139.1,450.9 139.1,440.3 139.2,440.3 139.2,430.2 147.4,430.2 147.4,418.4 
		134.7,418.4 134.7,409.4 144.2,409.4 144.2,397.7 123.8,397.7 123.8,388.5 142.9,388.5 142.9,377.9 55.2,377.9 55.2,387.6 
		55.2,388.5 55.2,397.7 55.2,398.2 55.2,408.3 55.2,409.4 55.2,418.4 55.2,420 55.2,428.5 55.2,430.2 55.2,439.1 55.2,440.3 
		55.2,448.8 55.2,450.9 55.2,459.4 55.2,460.5 55.2,469.5 55.2,471.1 55.2,479.1 55.2,481.2 55.2,489.2 55.2,490.9 55.2,498.9 
		55.2,499.8 55.2,509 55.2,509.5 55.2,519.6 55.2,520.7 55.2,529.7 55.2,531.4 55.2,541.5 136.7,541.5 136.7,529.7 129.5,529.7 
		129.5,519.6 127.4,519.6 127.4,509.5 134.3,509.5 134.3,498.9 124,498.9 124,490.9 134.8,490.9 134.8,481.2 149,481.2 149,469.5 
		120.7,469.5 120.7,460.5 	"/>
	<rect x="55.2" y="586.8" fill="#231F20" width="52.9" height="10.6"/>
	<polygon fill="#231F20" points="132.1,687.1 121.4,687.1 121.4,680 136.7,680 136.7,668.3 95.2,668.3 95.2,659.3 55.2,659.3 
		55.2,668.3 55.2,671.1 55.2,678.4 55.2,680 55.2,687.1 55.2,690.1 55.2,696 55.2,698.8 55.2,705.6 55.2,707.7 55.2,715 55.2,717.4 
		55.2,726.8 88.4,726.8 88.4,717.4 140.5,717.4 140.5,707.7 147.8,707.7 147.8,696 132.1,696 	"/>
	<polygon fill="#231F20" points="55.2,544.7 55.2,554.8 55.2,556.4 55.2,566.5 146.4,566.5 146.4,554.8 143.2,554.8 143.2,544.7 	
		"/>
</g>
</svg>
