<?xml version="1.0" encoding="utf-8"?>
<!-- Generator: Adobe Illustrator 18.1.1, SVG Export Plug-In . SVG Version: 6.00 Build 0)  -->
<!DOCTYPE svg PUBLIC "-//W3C//DTD SVG 1.1//EN" "http://www.w3.org/Graphics/SVG/1.1/DTD/svg11.dtd">
<svg version="1.1" id="Layer_1" xmlns="http://www.w3.org/2000/svg" xmlns:xlink="http://www.w3.org/1999/xlink" x="0px" y="0px"
	 viewBox="0 0 552.7 792.5" enable-background="new 0 0 552.7 792.5" xml:space="preserve">
<g>
	<path d="M52.8,250.2c4.5-0.2,9-0.3,13.4-0.5c1.8-0.5,4.5-2,6.5-2.9c0.1-25.2,0.2-50.4,0.2-75.6c0-11.2,1.5-26.4-1.9-34.6
		c2.7-4.7,1-31.2,0.2-39.1c-1-0.9-2.1-1.8-3.1-2.6c-4.3-1.6-21.8-1.4-23.8,1.4c-1.8,1.6-3.1,26.8-2.2,31.9c0.3,3,0.6,6.1,1,9.1
		c-0.5,0.8-1,1.6-1.4,2.4V220c-1.5-0.2-3-0.3-4.6-0.5c-2.3,1.3-11.7,13-12.5,15.6c-3.4,1.9-6.8,1.2-8.6,4.6
		c-2.2,4.1,0.1,11.1-1.9,15.1c3.3-0.8,7.8-2.4,10.8-3.1h16.8C45.9,251.7,49.1,250.9,52.8,250.2z"/>
	<path d="M533.1,480.4v-49h-90V269.2l7,6.2l9.5-9l-28-22l-8,7.5l3.4,3H302.6l1.1-1l-8.5-6l-18,12.5l9,10l3-2.8v118.2
		c-0.4,0-0.7-0.1-1.1-0.2c-1.1-0.3-1.4-1.7-3.4-1.2c-2.7,0.7-7.8,4.5-11.5,8.7v-61.3l2,2l8-7l-17-18.5l-11.5,4.5l10.7,11H55
		l12.7-9.5l-9.5-7.5l-20.5,17l6,8.5l3.5-2.6v257.9l-1-1.2l-9.5,4l14,18.5l7.5-7.5l-1.2-1.5h107.3c-0.3,0.3-0.7,0.5-1,0.8
		c-2.4,4.6-1.4,8.3-2.9,13.9c-0.6,1.4-1.3,2.9-1.9,4.3c-1.2,5.8,3.6,14,6,16.6c3.5,3.8,8,4.2,13,6.7c2.9,1.4,2.5,3.1,4.3,5.5
		c2.8,3.8,10.7,1,13.9-0.5c0.3,0.2,0.6,0.3,1,0.5c3.2,16.4,0.3,39.2,3.1,54.7c0.4,2.1-0.3,4.3-0.8,6.5H72.6v41.5h128v-30.8
		c0.4,0.9,0.8,1.8,1,2.5c-0.2,1.8-0.5,3.5-0.7,5.3c0.7,2.7,2.9,5.3,3.6,8.6c0.8,3.8-0.4,7.9-1,10.6v8.2c-0.8,3-1.6,6.1-2.4,9.1
		c-0.3,3.8-0.6,7.7-1,11.5c-0.4,1.9-1.9,5.6-1.2,7.7c0.1,0.2,0.2,0.5,0.2,0.7c46.2,0.2,92.5,0.5,138.7,0.7c0.1-11.1,1-24.8,2.9-35
		c0.6-3-0.1-6.1,0.4-8.6h132.4l-4,4.5l10,11.5l20.5-26l-7-12l-6,6.8V508.4l9.5,11l5.5-19l-30.5-6.5l0.4,11h-31.2l11.3-10.5l-8.5-8.5
		l-0.5,0.2v-5.7H533.1z M371,497.9h7.9C376.4,497.9,373.8,497.9,371,497.9C371,497.9,371,497.9,371,497.9z M429.3,497.9l6.5,7h-43.2
		c0-2.4,0.1-4.7,0.1-7c-1.1,0-2.2,0-3.3,0H429.3z"/>
	<rect x="419.9" y="136.8" width="105" height="38.1"/>
	<rect x="438.5" y="179.3" width="63" height="12.2"/>
	<rect x="428.6" y="193.9" width="82.8" height="12.2"/>
	<polygon points="345.6,116.8 312.4,116.8 312.4,106 197.1,106 197.1,116.8 164,116.8 164,129 345.6,129 	"/>
	<rect x="118.1" y="145.9" width="275.2" height="18.5"/>
	<rect x="185.7" y="167.4" width="140.2" height="18.5"/>
	<rect x="198.4" y="212.9" width="112.7" height="13.6"/>
	<rect x="144.7" y="188.4" width="220.1" height="18.5"/>
</g>
</svg>
