<?xml version="1.0" encoding="utf-8"?>
<!-- Generator: Adobe Illustrator 18.1.1, SVG Export Plug-In . SVG Version: 6.00 Build 0)  -->
<!DOCTYPE svg PUBLIC "-//W3C//DTD SVG 1.1//EN" "http://www.w3.org/Graphics/SVG/1.1/DTD/svg11.dtd">
<svg version="1.1" id="Layer_1" xmlns="http://www.w3.org/2000/svg" xmlns:xlink="http://www.w3.org/1999/xlink" x="0px" y="0px"
	 viewBox="0 0 531 762" enable-background="new 0 0 531 762" xml:space="preserve">
<g>
	<rect x="12.4" y="12.4" width="505" height="12"/>
	<rect x="17.4" y="35.5" width="491.3" height="77.7"/>
	<rect x="17.4" y="116.5" width="165" height="50.1"/>
	<rect x="21.7" y="179.9" width="151.9" height="3.8"/>
	<rect x="21.7" y="201.2" width="151.9" height="1.9"/>
	<rect x="20.7" y="186.8" width="70.8" height="11.2"/>
	<rect x="21.7" y="381.6" width="151.9" height="3.8"/>
	<rect x="21.7" y="402.9" width="151.9" height="1.9"/>
	<rect x="20.7" y="388.4" width="94.3" height="11.2"/>
	<polygon points="176.1,232 152.1,232 152.1,221.8 156.5,221.8 156.5,209.4 20.7,209.4 20.7,221.8 37.6,221.8 37.6,232 37.6,243.4 
		37.6,263.1 176.1,263.1 	"/>
	<polygon points="175.3,291.3 157.1,291.3 157.1,281.1 171.5,281.1 171.5,268.8 20.7,268.8 20.7,281.1 37.6,281.1 37.6,291 
		37.6,291.3 37.6,302.7 37.6,312.2 37.6,322.1 147.5,322.1 147.5,312.2 175.3,312.2 	"/>
	<polygon points="20.7,463.1 37.6,463.1 37.6,475.9 37.6,477.2 37.6,486 37.6,487.7 37.6,488.1 37.6,506.9 37.6,518.7 87.5,518.7 
		87.5,506.9 162.7,506.9 162.7,486 141.1,486 141.1,477.2 151.7,477.2 151.7,461.7 144,461.7 144,450.8 20.7,450.8 	"/>
	<polygon points="20.7,328.1 20.7,340.4 37.6,340.4 37.6,350.3 37.6,350.7 37.6,353 37.6,362.1 37.6,372.6 118.1,372.6 118.1,362.1 
		153,362.1 153,353 169.6,353 169.6,339.4 145.7,339.4 145.7,328.1 	"/>
	<polygon points="20.7,423.4 37.6,423.4 37.6,433.7 37.6,436 37.6,445.1 86.8,445.1 86.8,436 140.6,436 140.6,423.4 158.6,423.4 
		158.6,411.1 20.7,411.1 	"/>
	<rect x="20.7" y="527.6" width="153.9" height="3.8"/>
	<rect x="20.7" y="548.9" width="153.9" height="1.9"/>
	<rect x="19.7" y="534.4" width="152.6" height="11.2"/>
	<polygon points="169.7,568.4 142.6,568.4 142.6,557.1 19.7,557.1 19.7,569.4 36.6,569.4 36.6,582 169.7,582 	"/>
	<polygon points="19.7,587.4 19.7,599.8 36.6,599.8 36.6,608.7 36.6,612.3 36.6,616 36.6,622.3 36.6,629.7 133.1,629.7 133.1,622.3 
		164.3,622.3 164.3,608.7 144.1,608.7 144.1,598.7 128.1,598.7 128.1,587.4 	"/>
	<polygon points="166.9,646.7 148.4,646.7 148.4,635.4 19.7,635.4 19.7,647.8 36.6,647.8 36.6,656.7 36.6,660.3 36.6,670.3 
		97.1,670.3 97.1,660.3 166.9,660.3 	"/>
	<polygon points="36.6,700.3 36.6,710.3 138.3,710.3 138.3,700.3 162.8,700.3 162.8,686.7 145.8,686.7 145.8,675.4 19.7,675.4 
		19.7,687.8 36.6,687.8 36.6,696.7 	"/>
	<rect x="8.3" y="717.9" width="513.1" height="2.4"/>
	<rect x="18" y="732.2" width="146.3" height="8.2"/>
	<rect x="381.8" y="730.8" width="128.2" height="8.2"/>
	<rect x="185.3" y="688.4" width="324.6" height="19.3"/>
	<path d="M502.7,673.2V123.1H188.9v550.1H502.7z M191.9,126.1h307.8v544.1H191.9V126.1z"/>
	<rect x="212.1" y="146.7" width="132" height="176.7"/>
	<rect x="346.7" y="146.7" width="132" height="176.7"/>
	<rect x="212.1" y="326.1" width="132" height="176.7"/>
	<rect x="276.9" y="516.1" width="141.3" height="21.3"/>
	<polygon points="443.9,570.2 488.3,570.2 488.3,541 206.8,541 206.8,570.2 248.5,570.2 248.5,596.8 202,596.8 202,654.5 
		490.4,654.5 490.4,596.8 443.9,596.8 	"/>
	<rect x="346.7" y="326.1" width="132" height="176.7"/>
</g>
</svg>
