<?xml version="1.0" encoding="utf-8"?>
<!-- Generator: Adobe Illustrator 18.0.0, SVG Export Plug-In . SVG Version: 6.00 Build 0)  -->
<?xml-stylesheet type="text/css" href="css/pricesvg.css" ?>
<svg version="1.2" baseProfile="tiny" id="Layer_1" xmlns="http://www.w3.org/2000/svg" xmlns:xlink="http://www.w3.org/1999/xlink"
	 x="0px" y="0px" viewBox="0 0 733 643" xml:space="preserve">
<path fill="#FFFFFF" d="M0,0v643h733V0H0z M128,112h57v38h-57V112z M177,556h-49v-37h49V556z M177,455h-47v-38h47V455z M128,353v-38
	h48v38H128z M188,251h-61v-38h61V251z M322,621h-52v-39h52V621z M322,490h-65v-39h65V490z M323,361h-51v-43h51V361z M378,157h-69
	v-54h69V157z M395.6,319H452v41h-56.4V319z M451,621h-54v-42h54V621z M452,492h-54v-44h54V492z M500,103h75v53h-75V103z M582,316v44
	h-54v-44H582z M583,624h-58v-44h58V624z M584,491h-66v-43h66V491z"/>
</svg>
