<?xml version="1.0" encoding="utf-8"?>
<!-- Generator: Adobe Illustrator 18.1.1, SVG Export Plug-In . SVG Version: 6.00 Build 0)  -->
<svg version="1.1" id="Time_x5F_TOC_xA0_Image_1_" xmlns="http://www.w3.org/2000/svg" xmlns:xlink="http://www.w3.org/1999/xlink"
	 x="0px" y="0px" viewBox="0 0 547.9 751.9" enable-background="new 0 0 547.9 751.9" xml:space="preserve">
<path d="M472.9,649.4l0-0.1c-1.3-6.1-3.7-11.8-5.9-17.4c-0.4-0.9-0.7-1.7-1.1-2.6c0.3-0.3,0.6-0.6,1-0.8c1.1-0.9,2.3-1.8,2.7-4.5
	l0.1-0.3l-0.2-0.3c-1.5-2.6-2.3-5.6-3.2-8.8c-0.8-2.7-1.5-5.5-2.8-8.2l-2.1-3.3l-3.1-16.1l0-0.2c-1.6-4.2-3.8-10.5-5-17.1
	c-0.3-1.7,0.5-3.7,1.3-5.6c0.5-1.1,0.9-2.2,1.1-3.2c0.8-3.6,0.5-8.9-0.9-16.1v-6.6l0-0.2c-1.7-8.5-5-17.3-16.9-18.9l-0.3-2.6
	l2.2-2.7l0.1-0.2c1.4-4.1,0.7-8.3-1.8-11.9c-2.7-3.7-7.1-6.2-11-6.2l-0.4,0l-0.2,0.1c-0.7,0.4-2,0.6-3.2,0.7
	c-1.8,0.3-3.7,0.5-4.9,1.6c-4.3,3.9-2.8,11.7-1.5,18.6c0.5,2.5,0.9,4.8,1.1,6.9c-1,0.7-1.9,1.5-2.6,2.9c-0.3,0-0.5-0.1-1-0.5
	c-0.2-0.1-0.4-0.3-0.6-0.4l-0.2-0.1h-2.1l-0.1,0.8c-1.3,7-0.3,17.6,0.7,22.9c0.4,2,0,3.6-0.5,5.3c-0.4,1.6-0.9,3.3-0.5,5.2
	c0.2,0.8,0.3,1.7,0.5,2.6c0.8,3.6,1.6,7.6,0.9,11.4c-0.1,0.7-0.6,1.6-1,2.4c-0.4,0.9-0.8,1.7-0.9,2.4c-0.1,0.8,0,1.7,0.2,2.7
	c0.2,1.2,0.4,2.4,0.1,3.3c-0.4,1.1-0.9,2.1-1.4,3.2c-0.9,1.7-1.8,3.5-2.2,5.6l0,0.1l0.5,8.7c-0.5,2.7-0.7,5.8-0.8,9.1
	c-0.2,3.6-0.4,7.3-1.1,10.4c-0.7,3.2-0.9,6.5-1.2,9.6c-0.4,4.8-0.9,9.4-2.5,13.6l-3,2.7l-0.1,0.2c-2.8,4.1-4,8.8-3.2,12.5
	c-1.1,1.1-2.6,1.6-4.9,1.6c-1.1,0-2.3-0.1-3.5-0.2c-1.7-0.2-3.5-0.3-5.2-0.2l-0.5,0l-2.1,2.8l0.3,0.6c2.2,3.8,17.4,8,26,8
	c2.3,0,4.1-0.3,5.4-0.8l1.3-0.4l0.1-0.6c0.7-3.5,1.2-7,1.7-10.3c0.7-4.4,1.3-9,2.4-13.6l2.7-10.3c2.4-0.2,3.1-1.3,3.8-2.7
	c5.6-1,11.5-1.1,17.1-1.1c1.8,0,3.6,0,5.4,0l0.9,0c2.6,2.6,5.1,9.2,7.1,14.5c1,2.6,1.9,5,2.7,6.7l0.2,0.4c0.7,1.5,1.9,4,1.4,5.9
	c-0.3,1.3-1.1,2-2,2.9c-1.2,1.2-2.6,2.5-2.9,5.5l0,0.5l2.1,1.7l5.4,0.3c7.9,0,9.7-4.1,11.6-8.5c0.5-1.1,1-2.2,1.5-3.3l0.1-0.3
	L472.9,649.4z"/>
<line fill="none" stroke="#000000" stroke-width="2" stroke-miterlimit="10" x1="7" y1="25" x2="518" y2="24.5"/>
<line fill="none" stroke="#000000" stroke-width="2" stroke-miterlimit="10" x1="7" y1="25" x2="7" y2="721.5"/>
<line fill="none" stroke="#000000" stroke-width="2" stroke-miterlimit="10" x1="101" y1="106" x2="101" y2="623"/>
<line fill="none" stroke="#000000" stroke-width="2" stroke-miterlimit="10" x1="430" y1="106" x2="430" y2="490"/>
<line fill="none" stroke="#000000" stroke-width="2" stroke-miterlimit="10" x1="7" y1="721.5" x2="517.5" y2="721.5"/>
<line fill="none" stroke="#000000" stroke-width="2" stroke-miterlimit="10" x1="517.5" y1="670.5" x2="15" y2="671.7"/>
<rect x="119" y="106" width="293" height="212"/>
<rect x="221.5" y="29" width="87" height="28"/>
<rect x="215.5" y="61" width="99.5" height="10.5"/>
<rect x="11.5" y="106" width="62.5" height="10"/>
<rect x="11.5" y="134" width="48.1" height="10"/>
<rect x="11.5" y="153.5" width="48.1" height="10"/>
<rect x="11.5" y="163.5" width="78" height="10"/>
<rect x="11.5" y="173.5" width="62.5" height="10"/>
<rect x="11.5" y="314" width="38.2" height="12.2"/>
<rect x="11.5" y="324" width="70.1" height="12.2"/>
<rect x="11.5" y="334" width="82.9" height="12"/>
<rect x="11.5" y="354" width="44.1" height="12.2"/>
<rect x="11.5" y="364" width="72.1" height="12.2"/>
<rect x="11.5" y="374" width="76.3" height="12"/>
<rect x="11.5" y="382.5" width="36" height="12"/>
<rect x="11.5" y="404.5" width="62.5" height="12.2"/>
<rect x="11.5" y="414.5" width="48.1" height="12.2"/>
<rect x="11.5" y="424.5" width="65.3" height="12"/>
<rect x="11.5" y="433" width="72.1" height="12"/>
<rect x="11.5" y="472.7" width="38.2" height="12.2"/>
<rect x="11.5" y="482.7" width="60.3" height="12.2"/>
<rect x="11.5" y="492.7" width="78" height="12"/>
<rect x="11.5" y="502.2" width="58.1" height="12"/>
<rect x="11.5" y="513.2" width="55.4" height="12"/>
<rect x="11.5" y="521.7" width="67.1" height="12"/>
<rect x="11.5" y="183.5" width="62.5" height="10"/>
<rect x="11.5" y="203.5" width="36.5" height="10"/>
<rect x="11.5" y="213.5" width="82.9" height="12.4"/>
<rect x="11.5" y="223.5" width="78" height="10"/>
<rect x="11.5" y="233.5" width="82.9" height="11"/>
<rect x="11.5" y="242" width="41.4" height="11"/>
<rect x="435.5" y="115.2" width="56.4" height="11.9"/>
<rect x="435.5" y="125.2" width="75.3" height="12.4"/>
<rect x="435.5" y="137.2" width="60.2" height="10"/>
<rect x="435.5" y="145.2" width="64.4" height="11"/>
<rect x="435.5" y="154.7" width="77.6" height="11"/>
<rect x="435.5" y="183" width="47.8" height="11.9"/>
<rect x="435.5" y="193" width="67.9" height="12.4"/>
<rect x="435.5" y="205" width="67.9" height="10"/>
<rect x="435.5" y="214" width="61.7" height="11"/>
<rect x="435.5" y="233.5" width="47.8" height="11.9"/>
<rect x="435.5" y="243.5" width="64.4" height="12.4"/>
<rect x="435.5" y="255.5" width="75.3" height="10"/>
<rect x="435.5" y="264.5" width="81.1" height="11"/>
<rect x="435.5" y="365" width="47.8" height="11.9"/>
<rect x="435.5" y="375" width="83.9" height="12.4"/>
<rect x="435.5" y="387" width="75.3" height="10"/>
<rect x="435.5" y="396" width="81.1" height="11"/>
<rect x="435.5" y="164.7" width="50.4" height="11"/>
<rect x="435.5" y="285.5" width="56.4" height="11.9"/>
<rect x="435.5" y="295.5" width="60.2" height="12.4"/>
<rect x="435.5" y="307.5" width="61.7" height="10"/>
<rect x="435.5" y="315.5" width="56.4" height="11"/>
<rect x="435.5" y="325" width="67.9" height="11"/>
<rect x="435.5" y="335" width="79.9" height="11"/>
<rect x="11.5" y="264" width="44.1" height="10"/>
<rect x="11.5" y="274" width="76.3" height="12.4"/>
<rect x="11.5" y="284" width="72.1" height="10"/>
<rect x="11.5" y="294" width="22.1" height="11"/>
<rect x="11.5" y="124.5" width="34" height="7"/>
<rect x="435.5" y="106" width="46" height="7"/>
<rect x="11.5" y="463.5" width="65.3" height="10"/>
<rect x="11.5" y="454" width="52.1" height="7"/>
<rect x="11.5" y="595.5" width="60.3" height="8.5"/>
<rect x="11.5" y="604" width="72.1" height="22.4"/>
<rect x="11.5" y="674.5" width="509" height="43.5"/>
<rect x="513" y="724.5" width="7.5" height="11"/>
<rect x="11.5" y="724.5" width="82.9" height="14"/>
<rect x="141" y="320.1" width="249.5" height="10"/>
<rect x="137" y="330.1" width="258.2" height="11.1"/>
<line fill="none" stroke="#000000" stroke-miterlimit="10" x1="435.5" y1="358" x2="516.5" y2="358"/>
<polyline fill="none" stroke="#000000" stroke-miterlimit="10" points="466,554.6 462.6,557.6 466,562.3 "/>
<path fill="none" stroke="#000000" stroke-miterlimit="10" d="M483.3,535.6c0,0,6.3,26-20.7,22"/>
<rect x="462.6" y="511.3" width="42.3" height="12.1"/>
<rect x="468.7" y="521.2" width="30.5" height="12.1"/>
<rect x="244.6" y="365" width="41.7" height="11.9"/>
<rect x="187.6" y="381.2" width="155.3" height="13.3"/>
<rect x="151.1" y="392" width="228.3" height="16.1"/>
<rect x="166" y="406.4" width="198.6" height="16.1"/>
<rect x="206.2" y="418.6" width="118.2" height="16.1"/>
<rect x="221.4" y="442.7" width="87.8" height="13.3"/>
<rect x="160.9" y="453.5" width="208.9" height="16.1"/>
<rect x="153.7" y="467.9" width="223.2" height="16.1"/>
<rect x="151.1" y="480.1" width="228.3" height="16.1"/>
<rect x="202.5" y="564.7" width="125.6" height="13.3"/>
<rect x="158.2" y="575.5" width="214.3" height="16.1"/>
<rect x="169.8" y="589.9" width="190.9" height="16.1"/>
<rect x="187.6" y="603.1" width="155.3" height="16.1"/>
<rect x="197.1" y="504.2" width="136.4" height="13.3"/>
<rect x="156.7" y="515" width="217.2" height="16.1"/>
<rect x="158.2" y="529.4" width="214.3" height="16.1"/>
<rect x="153.7" y="541.6" width="223.2" height="16.1"/>
</svg>
