<?xml version="1.0" encoding="utf-8"?>
<!-- Generator: Adobe Illustrator 18.1.1, SVG Export Plug-In . SVG Version: 6.00 Build 0)  -->
<!DOCTYPE svg PUBLIC "-//W3C//DTD SVG 1.1//EN" "http://www.w3.org/Graphics/SVG/1.1/DTD/svg11.dtd">
<svg version="1.1" id="Layer_1" xmlns="http://www.w3.org/2000/svg" xmlns:xlink="http://www.w3.org/1999/xlink" x="0px" y="0px"
	 viewBox="0 0 4623 3103" enable-background="new 0 0 4623 3103" xml:space="preserve">
<g>
	<path d="M3415.3,2142.2c1.9,2.2,3.9,4.3,5.8,6.4c6.8,7.3,13.6,14.2,20.2,20.5c1.9,1.8,3.8,3.5,5.7,5.2c0.9,0.8,1.9,1.6,2.8,2.4
		c2.8,2.4,5.6,4.6,8.4,6.7c0.9,0.7,1.8,1.4,2.7,2c3.6,2.6,7.2,4.9,10.7,6.7c0.9,0.5,1.7,0.9,2.6,1.3c1.7,0.8,3.4,1.6,5.1,2.2
		c1.7,0.6,3.3,1.2,4.9,1.6c3.2,0.8,6.3,1.2,9.3,1.1c0.7,0,1.5-0.1,2.2-0.2c4.5-0.6,9.5-3.1,14.6-6.7c3.2-2.3,6.5-5,9.7-8
		c2.6-2.4,5.2-4.9,7.7-7.5c1.3-1.3,2.5-2.6,3.8-3.9c1.9-2,3.7-3.9,5.4-5.9c3.5-3.9,6.8-7.6,9.7-10.9c1-1.1,1.9-2.1,2.8-3.1
		s1.7-1.9,2.5-2.7c1.5-1.6,3-3.1,4.5-4.6c1.4-1.5,2.8-3,4.1-4.4c1.3-1.4,2.5-2.8,3.7-4.2c3.5-4.1,6.4-7.9,8.6-11.7
		c0.7-1.3,1.4-2.5,1.9-3.8c2-4.4,2.9-8.9,2.7-13.7c-0.1-1.4-0.2-2.8-0.5-4.3s-0.7-3-1.1-4.5c-0.5-1.5-1.1-3.1-1.8-4.8
		c-1.8-4.1-4.2-8.6-7.4-13.6c-4.8-7.3-10.3-14.5-16.3-21.6c-1-1.2-2-2.4-3.1-3.5c-4.2-4.7-8.5-9.3-13-13.9
		c-4.5-4.6-9.2-9.1-13.9-13.6c-20.1-19.1-41.6-37.4-58.8-54.9c-30.2-30.6-60.5-61.2-90.8-91.7c-70.7-71.1-141.7-141.8-212.6-212.7
		c-18.8-18.8-37.8-37.3-56.6-56.1c-11.3-11.2-22.5-22.6-33.5-34.1c-2.5-2.6-5.4-6.1-8.6-10.2c-0.3-0.4-0.6-0.8-1-1.2
		c-1-1.3-2-2.6-3-3.9c-1.7-2.2-3.5-4.6-5.4-7c-0.7-1-1.5-1.9-2.3-2.9c-0.4-0.5-0.8-1-1.2-1.5c-0.8-1-1.6-2-2.3-3c-2-2.5-4-5-6.1-7.5
		c-0.8-1-1.7-2-2.5-3c-1.7-2-3.4-3.9-5.1-5.8c-0.9-0.9-1.7-1.9-2.6-2.8c-2.2-2.3-4.3-4.5-6.5-6.5c-0.9-0.8-1.8-1.6-2.6-2.4
		c-8.8-7.7-17.7-12.8-25.9-12.6c-25.2,0.8-70.2,50.8-83.2,69c-1.2,1.7-2.3,3.4-3.3,4.9c0,0,0,0,0,0c-0.1,0.2-0.3,0.4-0.4,0.7
		c-1.1,1.9-2.1,3.7-2.9,5.4c-0.1,0.3-0.2,0.5-0.4,0.8c-0.1,0.2-0.2,0.4-0.3,0.6c-0.1,0.2-0.2,0.4-0.2,0.6c-0.1,0.3-0.2,0.5-0.3,0.8
		c-0.1,0.1-0.1,0.3-0.2,0.4c-0.3,0.8-0.6,1.5-0.8,2.2c0,0.1-0.1,0.3-0.1,0.4c-0.1,0.3-0.2,0.6-0.3,0.9c0,0.1,0,0.1,0,0.2
		c-0.1,0.4-0.2,0.7-0.3,1.1c0,0.1,0,0.2-0.1,0.3c-0.1,0.3-0.1,0.6-0.2,1c0,0.1,0,0.2-0.1,0.3c0,0.3-0.1,0.6-0.1,0.8
		c0,0.1,0,0.1,0,0.2c0,0.3-0.1,0.7-0.1,1c0,0,0,0,0,0.1c0,0.4-0.1,0.7-0.1,1.1c0,0.1,0,0.3,0,0.4c0,0.2,0,0.5,0,0.7c0,0,0,0.1,0,0.1
		c0,0.3,0,0.6,0,1c0,0.1,0,0.2,0,0.3c0,0.2,0,0.5,0.1,0.7c0,0.1,0,0.3,0.1,0.4c0,0.2,0,0.4,0.1,0.6c0,0.1,0,0.2,0.1,0.3
		c0,0.2,0.1,0.5,0.1,0.7c0,0.1,0,0.1,0,0.2c0.1,0.3,0.1,0.5,0.2,0.8c0,0.1,0,0.1,0.1,0.2c0.1,0.3,0.1,0.5,0.2,0.8
		c0,0.1,0.1,0.2,0.1,0.3c0.1,0.2,0.2,0.5,0.2,0.7c0,0.1,0,0.1,0.1,0.2c0.1,0.3,0.2,0.5,0.3,0.8c0,0,0,0,0,0c0.5,1.3,1.2,2.5,1.9,3.7
		c0,0,0,0,0,0c6.4,10.2,20,18.8,31.7,33.6c-0.8-1-1.4-1.8-1.7-2.1c0.1,0.1,0.3,0.3,0.5,0.7c0,0,0,0,0,0c0.3,0.4,0.6,0.8,1.1,1.4
		c56.8,72.6,132.4,136.4,198.1,201c16.6,16.4,33.4,32.6,50.2,48.8c21,20.2,42.1,40.4,63.1,60.7c29.4,28.4,58.6,56.9,87.1,86.1
		c2.6,2.6,5.5,5.8,8.6,9.5c1.3,1.5,2.6,3,3.9,4.6c0.7,0.8,1.4,1.6,2,2.5c1.4,1.7,2.8,3.4,4.3,5.2c0.7,0.9,1.5,1.8,2.2,2.7
		c4.5,5.5,9.2,11.5,14.3,17.8c0.8,1,1.7,2.1,2.5,3.2c6.8,8.5,14,17.5,21.4,26.5c1.9,2.3,3.7,4.5,5.6,6.8c3.8,4.5,7.6,9,11.4,13.4
		C3411.5,2137.9,3413.4,2140,3415.3,2142.2z"/>
	<polygon points="2946.7,1662.2 2946.7,1662.2 2946.7,1662.2 	"/>
	<path d="M2946.7,1662.2C2946.7,1662.2,2946.7,1662.2,2946.7,1662.2C2946.7,1662.2,2946.7,1662.2,2946.7,1662.2
		C2946.7,1662.2,2946.7,1662.2,2946.7,1662.2C2946.7,1662.2,2946.7,1662.2,2946.7,1662.2C2946.7,1662.2,2946.7,1662.2,2946.7,1662.2
		L2946.7,1662.2z"/>
	<path d="M2946.2,1661.6c0.1,0.1,0.2,0.2,0.2,0.3c0,0,0,0,0,0C2946.4,1661.8,2946.3,1661.7,2946.2,1661.6z"/>
	<path d="M2946.6,1662c0.1,0.1,0.1,0.1,0.1,0.2c0,0,0,0,0,0C2946.6,1662.1,2946.6,1662,2946.6,1662z"/>
	<path d="M2613.5,1500.9c-0.3-1-0.7-2-1-3C2611.5,1500.2,2611.8,1501.2,2613.5,1500.9z"/>
	<path d="M992.3,1351.1C992.3,1351.1,992.3,1351.1,992.3,1351.1c0,0.4,0,1.1,0,1.8c0,0,0,0.1,0,0.1c0,0.4,0,0.7,0,1.1
		c0,0,0,0.1,0,0.1c0,0.2,0,0.4,0,0.6c0,0,0,0,0,0c0,0.2,0,0.4,0,0.7c0,0,0,0,0,0.1c0,0.2,0,0.5,0,0.7c0,0,0,0,0,0
		c0,3.1-0.1,6.9-0.1,10.6c0,0.2,0,0.4,0,0.7c0,0.1,0,0.2,0,0.2c0,0.1,0,0.2,0,0.3c0,0.6,0,1.1,0,1.6c0,0,0,0,0,0.1
		c0,0.6,0,1.1,0,1.6c0,0.1,0,0.1,0,0.2c0,0.6,0,1.1,0,1.6c0,0,0,0,0,0.1c0,0.2,0,0.4,0,0.5c0,0.2,0,0.4,0,0.5c0,0.3,0,0.7,0,1
		c0,0.1,0,0.3,0,0.4c0,0.6,0,1.2,0,1.8c0,0,0,0.1,0,0.1c0,0.2,0,0.3,0,0.5c0,0.1,0,0.1,0,0.2c0,0.1,0,0.2,0,0.3c0,0,0,0.1,0,0.1
		c0,0.2,0,0.3,0,0.4c0,0,0,0,0,0c0,0.1,0,0.2,0,0.4c0,0,0,0,0,0.1c0,0.1,0,0.2,0,0.3c0,0,0,0.1,0,0.1c0,0.1,0,0.1,0,0.2
		c0,0,0,0,0,0.1c0,0.1,0,0.1,0,0.2c0,0,0,0,0,0.1c0,0,0,0.1,0,0.1c0,0,0,0,0,0c0,0,0,0,0,0.1c0,0,0,0,0,0c0,0,0,0,0,0c0,0,0,0,0,0
		c0,0,0,0,0-0.1c0,0,0,0,0,0c0,0,0-0.1,0-0.1c0,0,0,0,0,0c0-0.1,0-0.1,0-0.2c0,0,0,0,0-0.1c0-0.1,0-0.2,0-0.3c0,0,0,0,0-0.1
		c0-0.2,0-0.5,0-0.9c0,0,0-0.1,0-0.1c0-0.3,0-0.7,0-1.2c0-0.1,0-0.1,0-0.2c0-0.5,0-1,0-1.6c0,0,0-0.1,0-0.1c0-0.3,0-0.6,0-0.9
		c0-0.1,0-0.2,0-0.3c0-0.3,0-0.6,0-0.8c0-0.1,0-0.1,0-0.2c0-0.4,0-0.7,0-1.1c0-0.2,0-0.4,0-0.6c0-0.1,0-0.3,0-0.4c0-0.2,0-0.5,0-0.7
		c0-1.4,0-3,0.1-4.8c0,0,0,0,0-0.1c0-1.9,0-3.9,0.1-6.2C992.4,1356.9,992.4,1354,992.3,1351.1
		C992.3,1351.1,992.3,1351.1,992.3,1351.1z"/>
	<path d="M3927.6,503.1c-0.4-6.5-1.5-12.2-3.4-16.5c-0.9-2-2.1-4-3.6-5.9c-1.1-1.5-2.4-3-3.9-4.4c-0.7-0.7-1.5-1.4-2.2-2.1
		c-0.6-0.5-1.2-1.1-1.8-1.6c-0.4-0.3-0.7-0.6-1.1-0.9c-2.8-2.2-5.8-4.2-9-6.2c-0.5-0.3-1-0.6-1.5-0.9c-1-0.6-2-1.1-3.1-1.7
		c-2.1-1.1-4.2-2.2-6.4-3.2s-4.4-2-6.7-3c-0.7-0.3-1.5-0.6-2.2-0.9c-3.1-1.3-6.2-2.5-9.4-3.6c-0.7-0.3-1.5-0.5-2.2-0.8
		c-0.6-0.2-1.1-0.4-1.7-0.6c-1.1-0.4-2.3-0.8-3.4-1.2c-4.5-1.5-9-2.8-13.2-4.1c-1-0.3-2.1-0.6-3.1-0.9c-0.5-0.1-1-0.3-1.5-0.4
		c-1-0.3-2-0.5-2.9-0.8c-0.5-0.1-0.9-0.3-1.4-0.4c-3.7-1-7.1-1.9-10-2.7c-2-0.5-3.9-0.9-6-1.2c-1.3-0.2-2.7-0.3-4-0.4
		c-0.7-0.1-1.4-0.1-2-0.1c-6.8-0.4-13.8-0.5-20.5-2.3c-6.4-1.7-11.9-3-16.9-3.9c-0.7-0.1-1.4-0.3-2.1-0.4c-2.8-0.5-5.4-0.9-7.9-1.2
		c-0.7-0.1-1.4-0.2-2.1-0.2c-1.1-0.1-2.3-0.2-3.4-0.3c-0.1,0-0.2,0-0.3,0c-1.8-0.2-3.6-0.3-5.4-0.4c-0.6,0-1.2-0.1-1.9-0.1
		c-2.5-0.1-5-0.3-7.6-0.4c-0.7,0-1.4-0.1-2.1-0.1c-2.7-0.1-5.5-0.2-8.6-0.4c-0.8,0-1.6-0.1-2.5-0.1c-2.4-0.1-4.9-0.3-7.6-0.4
		c-3.7-0.2-7.3-0.5-10.8-0.9c-2.4-0.3-4.8-0.6-7.1-0.9c-1.2-0.2-2.4-0.3-3.5-0.5c-2.3-0.3-4.7-0.7-7-1.1
		c-12.8-2.1-25.4-4.8-38.2-6.8c-3.5-0.6-7-1.1-10.5-1.5c-2.4-0.3-4.7-0.5-7.1-0.8c-2.4-0.2-4.8-0.4-7.2-0.5
		c-7.2-0.4-14.6-0.4-22.1,0.1c-5.5,0.4-11,0.7-16.5,0.8c-6.9,0.2-13.9,0.2-20.9,0.1c-1.4,0-2.8,0-4.2-0.1
		c-22.4-0.4-45.1-1.5-67.1-0.4c-2.8,0.1-5.5,0.3-8.2,0.5c-4.1,0.3-8.2,0.7-12.2,1.3c-1.3,0.2-2.7,0.4-4,0.6
		c-2.2,0.3-4.4,0.9-6.5,1.6s-4.3,1.6-6.3,2.5c-0.7,0.3-1.4,0.6-2,1c-3.3,1.6-6.5,3.3-9.4,4.7c-2.3,1.1-4.4,2-6.3,2.5
		c-0.8,0.2-1.6,0.4-2.4,0.6c-1.6,0.3-3.3,0.6-5,0.9c-2.5,0.4-5,0.7-7.5,0.8c-1.7,0.1-3.4,0.2-5.1,0.3s-3.4,0.1-5.1,0.1
		c-4.3,0-8.6-0.1-12.9-0.3c-10.4-0.5-20.8-1.4-30.9-1.4c-4.2,0-8.4,0.2-12.5,0.5c-14,1.4-29.2,2.5-44.8,3.9
		c-3.1,0.3-6.3,0.6-9.5,0.9c-1.9,0.2-3.8,0.4-5.7,0.6c-5.2,0.6-10.5,1.2-15.7,1.8c-5.2,0.7-10.5,1.4-15.7,2.2
		c-8.7,1.4-17.2,3-25.5,4.9c-1.7,0.4-3.3,0.8-5,1.2c-5.3,1.3-10.6,2.8-15.6,4.5c-2.7,0.9-5.4,1.8-8.1,2.8c-1.5,0.6-3,1.1-4.5,1.7
		c-3,1.2-5.8,2.5-8.7,3.8c-10.4,4.9-18.3,10.4-24.3,16.4c-0.9,0.9-1.8,1.9-2.6,2.8c-0.7,0.8-1.4,1.7-2.1,2.5c-0.4,0.5-0.7,0.9-1,1.4
		c-0.7,0.9-1.3,1.8-1.9,2.8c-0.3,0.5-0.6,0.9-0.9,1.4c-0.9,1.4-1.6,2.9-2.4,4.4c-0.3,0.7-0.7,1.4-1,2.1c-1.9,4.3-3.2,8.8-4.2,13.6
		c-0.6,2.8-1,5.6-1.3,8.6c-0.1,1.2-0.2,2.4-0.3,3.6c-1,13.2-0.1,28,0.5,44.6c0.1,2,0.1,3.9,0.2,5.9c0.3,5.8,0.6,11.5,0.9,17.2
		c0.1,2.2,0.3,4.3,0.4,6.5c0.5,7.5,1,15,1.4,22.5c0,0.2,0,0.4,0,0.7c0.5,7.6,0.9,15.3,1.1,23c0.2,5.8,0.3,11.7,0.3,17.6
		c0,3.5,0,7,0.1,10.5h-312.6v550.9h315.2v-501c2.3,30.9,5.5,61.8,6.7,92.5c0.2,4.6,0.3,9.2,0.4,13.8c0.2,10.8,0.1,21.9,0,32.9
		c0,3.2-0.1,6.3-0.1,9.5c-0.2,11.1-0.4,22.3-0.4,33.4c0,3.2,0,6.3,0,9.5c0,3.2,0.1,6.3,0.1,9.5c0.1,4.7,0.2,9.4,0.4,14.1
		c0.4,9.3,1.1,18.5,2.1,27.6c0.7,6.4,2.2,12.4,4.2,17.9c0.8,2.2,1.7,4.3,2.8,6.4s2.1,4.1,3.3,6c3.6,5.8,8,11.1,13.1,15.8
		c0.8,0.8,1.7,1.6,2.6,2.3c3.5,3.1,7.3,5.9,11.4,8.5c6.1,4,12.6,7.5,19.6,10.6c2.3,1,4.7,2,7.1,3c9.6,3.8,19.8,7.1,30.3,9.8
		c2.6,0.7,5.3,1.3,7.9,2c10.6,2.5,21.3,4.6,31.9,6.4c7.9,1.4,15.7,2.6,23.3,3.7c1.3,0.2,2.5,0.4,3.8,0.6c3.7,0.5,7.4,1.1,11,1.6
		c9.5,1.4,18.4,2.7,26.4,4.1c36.7,6.5,76.6,11.5,117.8,14.2c10.3,0.7,20.7,1.2,31.2,1.6c7.8,0.3,15.7,0.5,23.6,0.6
		c5.3,0.1,10.5,0.1,15.8,0.1c5.3,0,10.6-0.1,15.9-0.2c5.3-0.1,10.6-0.2,15.9-0.4c7.9-0.3,15.9-0.7,23.8-1.2
		c10.6-0.7,21.1-1.5,31.6-2.6c10.5-1.1,20.9-2.3,31.3-3.8c25.9-3.7,51.4-8.8,75.9-15.5c12.3-3.3,24.3-7.1,36-11.2
		c4.7-1.7,9.3-3.4,13.9-5.2c2.3-0.9,4.6-1.8,6.9-2.7c4.6-1.9,9.1-3.8,13.5-5.8c8.9-4,17.6-8.3,26-12.8c1.1-0.6,2.1-1.2,3.2-1.8
		c5.2-3,9.8-5.9,13.9-9c1.6-1.2,3.2-2.5,4.6-3.8c8-7,13.5-14.7,17.1-23.9c0.6-1.7,1.2-3.4,1.7-5.1c0.5-1.8,1-3.6,1.4-5.4
		c0.4-1.9,0.7-3.8,1-5.8c1-7,1.3-14.7,1-23.3c-0.9-30.9-0.4-61.3,0-91.8c0.1-9.2,0.2-18.3,0.3-27.5c0-6.1,0-12.3,0-18.4
		c0-3.1,0-6.2-0.1-9.3c0-1.4,0-2.9,0-4.3c0-2.9,0-5.7,0.1-8.5c0.3-12.8,1.3-25.6,2.6-38.3c2.8-28.3,7-56.6,7.9-85.1
		c0.3-9.4,0.5-18.9,0.5-28.3c0-3.1,0-6.3,0.1-9.4c0-3.1,0-6.3,0-9.4c0-3.1,0-6.3,0-9.4c0-6.3,0-12.6,0-18.9c0-1.4,0-2.9,0.1-4.5
		c0.6-12.7,3.3-31.4,4.4-48.8c0.1-1.1,0.1-2.2,0.2-3.3c0.1-2.2,0.2-4.3,0.2-6.4c0-2.1,0.1-4.1,0-6.1
		C3927.8,506.9,3927.7,505,3927.6,503.1z"/>
	<polygon points="2944.6,1659.5 2944.6,1659.5 2944.6,1659.5 	"/>
	<path d="M2942.5,1656.8c0.1,0.1,0.2,0.3,0.3,0.4c0.2,0.3,0.5,0.6,0.7,0.9c0.1,0.1,0.2,0.2,0.3,0.3c0.3,0.4,0.6,0.7,0.8,1.1
		c-1-1.3-2.5-3.2-4.4-5.7c-1.5-1.9-3.2-4.1-5.3-6.7c0,0,0,0,0,0C2936.8,1649.5,2939.9,1653.5,2942.5,1656.8z"/>
	<path d="M2945.5,1660.6c0,0.1,0.1,0.1,0.1,0.2c0.1,0.1,0.1,0.2,0.2,0.3c-0.3-0.4-0.7-0.9-1.3-1.6c0.2,0.2,0.3,0.4,0.5,0.6
		C2945.2,1660.3,2945.3,1660.4,2945.5,1660.6z"/>
	<path d="M3243.2,1279.6c-1.3-1-2.5-1.9-3.8-2.8c-0.8-0.6-1.7-1.1-2.5-1.7c-4.6-2.9-9.1-4.9-13.3-5.5c-1.5-0.2-3.1-0.3-4.5-0.1
		c-3.4,0.3-6.9,1.8-10.5,3.9c-1.2,0.7-2.4,1.5-3.6,2.4c-3.6,2.6-7.3,5.9-10.9,9.5c-1.2,1.2-2.4,2.4-3.5,3.6
		c-2.9,3.1-5.8,6.3-8.4,9.5c-4.8,5.7-9.1,11.1-12.5,15.1c-0.8,0.9-1.5,1.7-2.1,2.4c-3.1,3.4-6.1,6.6-9,9.7c-1.8,1.8-3.5,3.7-5.1,5.4
		c-3.3,3.6-6.2,7-8.7,10.5c-0.8,1.2-1.6,2.3-2.3,3.5c-1.1,1.8-2,3.6-2.8,5.4c-0.5,1.2-1,2.5-1.3,3.7c-1.4,5.1-1.6,10.5,0,16.7
		c0.6,2.3,1.4,4.7,2.6,7.3c1.9,4.3,4.3,8.5,7,12.7c2.8,4.2,5.9,8.3,9.4,12.4c1.7,2,3.5,4.1,5.4,6.1c1.9,2,3.8,4,5.7,6s4,4,6,5.9
		c1,1,2.1,2,3.1,2.9c4.2,3.9,8.4,7.8,12.7,11.6c6.4,5.7,12.9,11.3,19,16.7c2,1.8,4,3.6,6,5.4c1,0.9,1.9,1.8,2.9,2.7
		c1.9,1.8,3.8,3.5,5.5,5.2c1.8,1.7,3.5,3.4,5.1,5.1c42.6,44.3,84.9,88.8,127.2,133.2c14.1,14.8,28.2,29.6,42.4,44.5
		c5.3,5.5,69,54.4,37.2,60.5c-3.6,0.7-11-4.6-20.1-13.1c-1.1-1-2.2-2-3.3-3.1c-0.6-0.5-1.1-1.1-1.7-1.6c-2.8-2.8-5.8-5.8-8.9-9
		c-1.8-1.9-3.7-3.9-5.5-5.9c-1.2-1.3-2.5-2.7-3.8-4.1c-2.5-2.7-5-5.5-7.6-8.3c-1.3-1.4-2.5-2.8-3.8-4.2c-0.6-0.7-1.2-1.4-1.9-2.1
		c-1.2-1.4-2.5-2.8-3.7-4.2s-2.4-2.8-3.6-4.1c-1.2-1.4-2.4-2.7-3.6-4.1c-7-8-13.4-15.5-18.5-21.2c-3.8-4.3-6.9-7.8-9-9.8
		c-6.7-6.7-13.3-13.3-20-19.9c-13.4-13.3-26.7-26.5-40.1-39.8c-33.4-33.2-66.7-66.5-99.2-100.6c-3.1-3.3-6.3-6.8-9.4-10.4
		c-0.9-1-1.8-2.1-2.7-3.1c-0.4-0.5-0.9-1-1.3-1.6c-0.9-1.1-1.8-2.1-2.7-3.2c-1.8-2.1-3.6-4.2-5.4-6.3c-1.8-2.1-3.6-4.2-5.4-6.2
		c-1.8-2-3.7-4-5.5-6c-0.9-1-1.9-1.9-2.8-2.8c-1.4-1.4-2.8-2.8-4.3-4.1c-1-0.9-1.9-1.7-2.9-2.5c-3.9-3.3-7.8-6.2-12-8.4
		c-3.1-1.7-6.3-3.1-9.5-4c-0.5-0.2-1.1-0.3-1.6-0.4c-2.7-0.7-5.6-1.1-8.5-1.1c-4.6-0.1-9.5,0.7-14.5,2.5c-3.2,1.1-6.4,2.7-9.8,4.7
		c-21.1,12.6-47.2,40.7-59.6,61.7c-15.9,27-6.8,36.1,13.6,56.5c6,6.2,12.1,12.5,18.2,18.7c72.7,74.7,146.3,148.4,217.9,224
		c17.9,18.9,35.7,37.9,53.3,57.1c14.4,15.7,29.3,31.1,44.3,46.4c21.1,21.3,42.6,42.3,63.9,63.4c3,3,6.1,6,9.1,9
		c9.1,9,18.2,18.1,27.2,27.2c5,5.1,11.8,12.9,19.7,22.1c0.7,0.8,1.3,1.5,2,2.3c2.7,3.2,5.5,6.5,8.5,9.8c1.5,1.7,3,3.4,4.5,5.2
		c8.4,9.6,17.4,19.7,26.8,29.4c0.9,0.9,1.7,1.8,2.6,2.6c24.8,25.3,51.4,46.9,71.8,46.4c2.8-0.1,5.5-0.6,8.1-1.5
		c1.2-0.4,2.4-1.3,3.6-2.4c1.7-1.6,3.4-3.6,5.2-5.8c0.5-0.6,1-1.3,1.5-1.9c4.5-5.8,9.1-11.7,13.6-11.3c1.4,0.1,2.5,0.5,3.5,1.1
		c0.7,0.4,1.2,0.9,1.7,1.5c1.3,1.4,2.1,3.4,2.6,5.7c0.2,0.9,0.4,1.9,0.5,2.9c1.2,10-1.7,23.8-0.4,28.9c0.3,1.3,0.7,2.6,1.1,3.9
		s0.9,2.6,1.4,3.9c0.3,0.6,0.5,1.3,0.8,1.9c1.6,3.8,3.6,7.6,5.8,11.3c0.4,0.6,0.7,1.2,1.1,1.8c0.8,1.2,1.5,2.4,2.3,3.6
		c7.2,10.8,16.2,20.7,24.5,29.1c2.4,2.4,4.7,4.5,7,6.4c1.2,1,2.3,1.9,3.5,2.7c1.7,1.3,3.5,2.5,5.2,3.6c1.2,0.7,2.3,1.4,3.5,2.1
		c7,4.1,13.9,7.1,21.2,10.6c1.8,0.9,3.6,1.8,5.5,2.7c1.2,0.6,2.5,1.3,3.7,2c1.2,0.7,2.5,1.4,3.8,2.1c1.3,0.7,2.5,1.5,3.8,2.3
		c0.3,5.3,0.7,10.7,1,16c11,1.2,22,1.9,33,2c1,0.1,1.9,0.3,2.8,0.4c2.8,0.5,5.3,1.2,7.8,1.9c0.8,0.2,1.6,0.5,2.5,0.7
		c2.4,0.8,4.8,1.5,7.2,2.3c6.4,1.9,13.1,3.4,21.7,2.7c1.3-0.1,2.6-0.3,3.9-0.5c1.2-0.2,2.4-0.5,3.6-0.8c0.6-0.1,1.2-0.3,1.7-0.5
		c2.3-0.7,4.4-1.5,6.4-2.4c0.5-0.2,1-0.5,1.5-0.7c1-0.5,1.9-1,2.9-1.5c4.7-2.7,8.9-5.8,13-9c0.8-0.6,1.7-1.3,2.5-1.9
		c1.3-0.9,2.5-1.9,3.8-2.8c1.3-0.9,2.6-1.8,3.9-2.6c0.9-0.6,1.8-1.1,2.7-1.6c3-1.7,6-3.4,8.9-5.1c11.6-6.9,21.9-14.1,31.6-22.8
		c1.2-1.1,2.4-2.2,3.6-3.3c2.4-2.3,4.7-4.6,7-7.1c1.1-1.2,2.3-2.5,3.4-3.8c2.3-2.6,4.5-5.3,6.7-8.1c8.2-10.6,15.2-21.7,20.9-33.2
		c0.4-0.9,0.9-1.8,1.3-2.7c2.5-5.3,4.7-10.7,6.6-16.2c0.6-1.8,1.2-3.7,1.8-5.5c1.4-4.6,2.7-9.2,3.7-13.9c1.6-7.5,2.7-15,3.2-22.6
		c0.1-1.9,0.2-3.8,0.3-5.7c0.1-3.8,0.1-7.6-0.1-11.5c-0.1-1.9-0.2-3.8-0.4-5.7c-1.6-20.1-7.3-40.3-17.3-59.9
		c-2.4-4.7-4.9-9.4-7.6-14s-5.4-9.1-8.3-13.4c-0.7-1.1-1.5-2.2-2.2-3.3c-2.2-3.2-4.5-6.4-6.9-9.4c-0.8-1-1.6-2-2.4-3
		c-2.5-3-5-5.9-7.7-8.7c-0.9-0.9-1.8-1.8-2.7-2.8c-1.8-1.8-3.7-3.6-5.5-5.3c-0.9-0.9-1.9-1.7-2.9-2.5c-2.9-2.5-5.9-4.8-9-7
		c-2.1-1.5-4.2-2.8-6.4-4.2c-2.2-1.3-4.4-2.6-6.7-3.7c-1.1-0.6-2.3-1.1-3.5-1.7c-4.7-2.2-9.6-4-14.7-5.6c-6.9-2-13.5-4.6-19.9-7.6
		c-20.1-9.6-38.3-23.8-55.3-40.1c-2.3-2.2-4.6-4.5-6.9-6.8c-2.3-2.3-4.5-4.6-6.8-6.9c-3.7-3.9-7.5-7.9-11.1-11.9
		c-8.1-8.8-16-17.8-23.9-26.6c-1.4-1.6-2.9-3.2-4.3-4.8c-7.9-8.8-15.8-17.3-23.7-25.3c-28.2-28.3-56.4-56.7-84.5-85
		c-56.3-56.7-112.6-113.5-168.8-170.4c-28.1-28.4-56.2-56.9-84.2-85.3c-12.8-13-25.5-26-38.2-39c-12.7-13-25.5-26-38.3-39
		c-0.2-0.2-0.5-0.5-0.7-0.8c-0.5-0.5-1-1.1-1.6-1.6c-0.3-0.3-0.5-0.6-0.8-0.9c-2.2-2.4-4.7-5.3-7.3-8.4c-0.3-0.4-0.7-0.8-1-1.2
		c-10.1-12-23-27.4-35.7-37.8C3244.1,1280.3,3243.7,1279.9,3243.2,1279.6z M3608.5,1866.5c1.7,1.8,3.4,3.6,5.1,5.3
		c0.9,0.9,1.7,1.8,2.6,2.7c5.1,5.4,10.2,10.7,15,16c0.8,0.9,1.6,1.7,2.4,2.6c3.2,3.4,6.2,6.8,9.1,10.1c2.2,2.4,4.2,4.8,6.2,7.1
		c1.3,1.5,2.6,3,3.7,4.4c1.8,2.2,3.5,4.2,5,6.1c1,1.3,2,2.5,2.8,3.7c0.4,0.6,0.9,1.2,1.2,1.7c0.8,1.1,1.5,2.2,2.2,3.1
		c1.6,2.5,2.7,4.5,3.1,6c0.2,0.6,0.3,1.1,0.3,1.6s-0.1,0.8-0.4,1.1l-111.5-125.1C3561,1818.5,3584.5,1841.6,3608.5,1866.5z"/>
	<path d="M4626.7,577l-3.6-4.5l-6,4.5c-1.3,1-2.5,1.9-3.6,2.7l-2.1,1.6c-1.5,1.1-2.8,2.1-4,3c-2.3-5.2-6.7-13.7-18.9-24
		c-12.4-10.4-25.6-15.7-39.2-15.7l-0.3,0c-3.1,0-6.4,0.3-9.6,0.9c-4.3,0.8-8.6,2.1-12.9,3.9V17.4h-231.6c2.1-1.5,4.4-2.6,6.9-3.7
		c3.6-1.7,7.6-3.5,11.6-7.1c0.5-0.4,1-0.9,1.5-1.4l10.1-10.1L4310.7-5c-8.7-0.1-18.3-0.7-26.7-1.2l-0.6,0c-3.4-0.2-6.8-0.4-10.2-0.6
		c-4.3-0.2-8-0.4-11.4-0.6c-4.2-0.2-8.1-0.2-11.7-0.2c-10.3,0-19.1,0.6-26.9,2c-3.9,0.7-7.1,1.2-9.7,1.6c-2,0.3-3.6,0.6-5.1,0.8
		l-0.6,0.1c-2.8,0.5-4.5,0.9-6,1.5l-0.4,0.1c-0.9,0.4-1.7,0.8-2.4,1.2c-0.2,0.1-0.3,0.2-0.5,0.3c-0.2,0.2-0.5,0.3-0.7,0.5
		c-0.1,0.1-0.3,0.2-0.4,0.3c-0.2,0.2-0.4,0.3-0.6,0.5c-0.2,0.2-0.5,0.4-0.7,0.7c-0.3,0.3-0.6,0.6-0.9,0.9l-0.3,0.3
		c-0.4,0.4-0.8,0.8-1.2,1.3l-0.5,0.6c-1.9,2.1-4.4,5-8.8,9.3c-1.1,1-2.1,2.1-3.1,3.1H680.9L704.3-6H426.2l-23.4,23.4H102.9v299.9
		l-40.5,40.5l34,34l-70,70l76.5,76.5V1284c-0.2,0.6-0.4,1.1-0.6,1.7l-0.5,1.3c-0.5,1.3-0.9,2.7-1.4,4.1l-0.4,1.4
		c-13.9,43.6-25.2,110.9-11.5,157.5l0,0.1c1.3,4.3,2.8,8.4,4.4,12.2l0.1,0.2c1.3,2.9,2.7,5.7,4.2,8.3c0.1,0.1,0.1,0.2,0.2,0.3
		c1.6,2.8,3.4,5.5,5.3,8v1324.7c-4.3,4.3-8.7,8.4-13.2,12.3c-2.9,2.5-5.9,5.1-8.9,7.6c-3,2.4-6.1,4.9-9.2,7.2
		c-1.5,1.2-3.1,2.4-4.7,3.5c-3.1,2.3-6.3,4.6-9.5,6.8c-1.6,1.1-3.2,2.2-4.9,3.3c-3.2,2.1-6.5,4.3-9.9,6.5c-3.2,2.1-6.7,4.2-10.2,6.3
		c-2.6,1.6-5.6,3.2-8.9,5l-0.2,0.1c-2.1,1.1-4.2,2.3-6.3,3.5c-1.1,0.6-2.2,1.2-3.3,1.9c-0.9,0.5-1.7,1-2.6,1.6
		c-0.4,0.2-0.7,0.4-1.1,0.7c-0.4,0.3-0.9,0.6-1.3,0.8c-0.3,0.2-0.6,0.4-0.9,0.6c-4.3,2.9-7.9,5.7-10.7,8.5c-0.3,0.3-0.7,0.7-1,1
		c-0.5,0.6-1.1,1.1-1.6,1.7l-0.3,0.3c-0.7,0.8-1.4,1.7-2,2.6c-0.2,0.2-0.3,0.5-0.5,0.7c-0.5,0.8-1,1.6-1.5,2.5
		c-0.3,0.6-0.6,1.1-0.9,1.7c-0.3,0.6-0.5,1.1-0.7,1.7c-0.2,0.5-0.4,1.1-0.6,1.6c-0.2,0.7-0.4,1.4-0.6,2c-0.2,0.7-0.3,1.4-0.4,2.2
		l-0.1,0.4c-0.1,0.8-0.2,1.7-0.2,2.5l0,0.2c-0.3,5.2,1,10.7,3.7,16.3c3.4,7,9.5,12,18.1,14.8c0.7,0.2,1.3,0.4,2,0.6
		c1.3,0.4,2.7,0.7,4.1,0.9c1.3,0.3,2.8,0.5,4.2,0.6c1.4,0.2,2.8,0.3,4.3,0.4c1.4,0.1,2.8,0.1,4.3,0.2c0.7,0,1.4,0,2.1,0h0.4
		c3.5,0,7.3-0.1,11.9-0.5c0.7,0,1.3-0.1,1.9-0.1c1.3-0.1,2.5-0.2,3.7-0.3l3.5-0.3c16.6-1.3,33.5-2.1,51.7-2.5v49.2h1437.9
		c-1.1,40.5-2.2,83.3-3.7,126.2l-0.2,6.2h143.4l0-6c-0.2-19.7-0.3-39.5-0.5-59.2c-0.2-22.4-0.4-44.8-0.6-67.1H2028
		c-0.7,1.7-1.3,3.5-1.9,5.2c-0.7,1.9-1.4,3.8-2,5.7c-5.2,14.9-9,28.8-11.3,41.5c-0.6,3-1,6-1.4,8.9c-0.3,2-0.5,4-0.7,5.9
		c-0.4,4-0.7,7.8-0.7,11.5c0,0.9,0,1.9,0,2.8c0,1.9,0.1,3.8,0.1,5.6c0,0.9,0.1,1.8,0.2,2.8c0.9,11.7,3.8,21.9,8.7,30.2
		c3.6,6.1,10.5,10.3,21.1,12.8c2.8,0.7,6,1.2,9.4,1.6c1.9,0.2,3.9,0.4,6,0.6c4.6,0.4,9.8,0.5,15.4,0.5c13.8,0,28.4-1,41.3-1.9
		c10-0.7,18.6-1.3,24.9-1.3h170.6c5.3,0,9.4,0.2,12.7,0.4l1.3,0.1c4.5,0.2,7.1,0.2,9.3-0.3c1-0.2,1.8-0.5,2.7-1
		c3.2-1.6,4.7-4.4,5.5-6.3c0.2-0.4,0.3-0.8,0.5-1.2c0.6-1.6,1.2-3.5,1.7-5.4c0.2-0.8,0.5-1.7,0.7-2.7c0.5-1.9,1.1-4.1,1.8-6.6
		c9-31.4,15.7-70.1,19.2-109.5h19.7c5,43.5-9,99.1-21.7,123.6l-4.5,8.8h765.2c2.3,0,4.6,0,6.7,0l3.6,0c1.8,0,3.5,0,5.2,0l2.7,0
		c2.9,0,5.2,0,7.4-0.1c8.8-0.3,14.9-1.4,21-3.7c8-3,16.2-8.3,29.4-18.9c17.8-14.3,36.4-28.4,54.4-42c5.1-3.9,10.3-7.8,15.4-11.7
		c22.6-17.2,46.6-35.8,69.1-55.4c0.3-0.3,0.6-0.5,0.9-0.8h129.9c3.5,6.2,6.8,11.8,10,16.8c1.6,2.5,3.2,4.9,4.7,7.2
		c0.5,0.7,1,1.5,1.5,2.2c2.5,3.5,5,6.8,7.4,9.8c0.5,0.6,1,1.2,1.5,1.8c7.7,9,15.7,15.7,24.4,20.4c0.5,0.3,1.1,0.6,1.6,0.8
		c5.1,2.6,10.5,4.5,16.5,6c1.7,0.4,3.4,0.8,5.1,1.1c1.2,0.2,2.3,0.4,3.5,0.6c0.6,0.1,1.2,0.2,1.8,0.3c2.3,0.3,4.6,0.6,7.2,0.9
		c0.6,0.1,1.2,0.1,1.9,0.2c1.2,0.1,2.5,0.2,3.8,0.3c1.9,0.1,3.8,0.3,5.8,0.4c1.3,0.1,2.6,0.1,4,0.2c1.3,0.1,2.7,0.1,4.1,0.2l6.3,0.3
		c4.7,0.2,10.2,0.4,15.8,0.8c7.3,0.4,14.6,0.9,21.9,1.3c29.8,1.7,65,3.4,100.3,3.4c10.6,0,21.1-0.2,31-0.5c7.5-0.2,14.9-0.6,22.1-1
		c0.7,0,1.4-0.1,2.1-0.1c2.9-0.1,6.2-0.2,10.6-0.2c2,0,4.1,0,6.2,0l2.6,0c3.5,0,7.1,0,10.8,0c3,0,5.7-0.1,8.3-0.2
		c0.9,0,1.9-0.1,2.8-0.1c2-0.1,3.8-0.2,5.5-0.3c0.9-0.1,1.8-0.1,2.8-0.2c3-0.3,5.9-0.6,8.5-1c1.8-0.3,3.4-0.6,5-0.9
		c0.9-0.2,1.7-0.4,2.6-0.6c1.8-0.4,3.5-0.9,5.1-1.4c1.7-0.5,3.3-1.1,4.9-1.7c1.6-0.7,3.2-1.4,4.7-2.1c2.1-1.1,4.2-2.4,6.2-3.8
		c2.5-1.8,4.9-3.9,7.2-6.2c3.9-4,7.7-8.9,11.4-14.9c3.8-6.2,7.1-12.7,10.3-19l0.5-1c1.1-2.2,2.2-4.3,3.3-6.4c1-1.9,1.8-3.4,2.6-4.7
		c0.3-0.6,0.6-1.1,1-1.7c1.3-2.3,2.7-4.6,4-6.8h628.2v-3h45.2V2026h-45.2V979.3h8.2V729.2h-8.2v-58.8c1.4,0.8,2.8,1.6,4.3,2.2
		c0.4,0.2,0.9,0.4,1.3,0.6c0.9,0.4,1.8,0.7,2.7,1c0.5,0.2,0.9,0.3,1.4,0.4c1.4,0.4,2.9,0.7,4.4,1c0.5,0.1,1,0.2,1.5,0.2
		c1.8,0.2,3.7,0.3,5.5,0.3c0.3,0,0.6,0,0.9,0c0.5,0,1.1,0,1.7-0.1c2.8-0.2,5.8-0.6,8.9-1.2c3.7-0.8,7.7-2,11.8-3.5
		c0.8-0.3,1.8-0.8,2.9-1.4c0.6-0.3,1.3-0.7,1.9-1.1c0.3-0.2,0.7-0.4,1-0.6c2.7-1.7,6-4,9.1-6.2c1-0.7,2.1-1.5,3.1-2.2l1.1-0.8
		c1.7-1.2,3-2,4.1-2.8c0.3-0.2,0.6-0.4,0.9-0.6c1.8-1.2,2.9-1.7,3.4-1.9c0,0,0.1,0,0.1,0c1.4,0.4,3.1,1.8,5.2,4.3l0.2,0.3
		c0.3,0.3,0.6,0.7,0.8,1c0.8,1,1.5,2,2.2,3c2.2,2.9,4.4,5.9,7.1,8.5c0.3,0.3,0.7,0.7,1.1,1c1.2,1,2.4,1.9,3.6,2.6
		c0.9,0.5,1.8,1,2.8,1.4c0.5,0.2,1,0.4,1.5,0.6l7.8,2.5v-8.2c0-5.8,0.6-14,1.3-22.7C4634.8,614.9,4635.9,588.6,4626.7,577z
		 M120.9,35.4h263.9L120.9,299.3V35.4z M1607,2119.6v-0.8c0.8,0,2.1,0.2,4.2,0.8C1609.4,2120,1607.9,2119.9,1607,2119.6z
		 M2103.2,2855.5c-8.7,14-20.8,30-31.4,44.1c-8.9,11.8-16.1,21.5-20,27.9v-89.2c3,0.7,6.3,1,10.1,1c8,0,17-1.4,27.3-3
		c7.6-1.2,16.1-2.5,25-3.4C2113.4,2836.6,2110.8,2843.4,2103.2,2855.5z M2364.1,2962.5c0.5-8.9,0.9-17.5,1-25.8
		c6.2,6.2,10.8,14.9,13.9,25.8H2364.1z M3356.5,2962.5c2.1-2.1,4.4-4.3,6.9-6.8c1.6-1.6,3.2-3.2,4.8-4.8l1.7-1.7
		c6.9-6.9,13.2-13.1,19.6-19.2c0.6-0.6,1.3-1.2,1.9-1.8c1.2-1.2,2.4-2.4,3.7-3.8c2.2-2.4,4.3-4.8,6.1-6.8l1.8-2.1
		c0.6-0.7,1.3-1.4,1.9-2.1c0.5-0.6,1-1.1,1.4-1.6c0.6-0.7,1.3-1.4,1.9-2.1c0.4-0.5,0.8-0.9,1.3-1.3c2.2-2.3,4-3.9,5.7-5.1
		c1-0.7,2-1.2,2.9-1.6c0.6-0.2,1.2-0.4,1.8-0.5c0.3-0.1,0.6-0.1,0.9-0.1c2.7-0.2,5.8,0.8,9.6,3.4c1.5,1,4.7,5.7,10.8,22.1
		c0.4,1.1,0.8,2.2,1.2,3.3l2.3,6.2c1.6,4.3,2.7,6.9,3.7,8.8c3,5.9,6,11.8,9,17.7H3356.5z M4508.5,729.2h-536v250.1h536v535
		c-6.1-14.6-10.4-36.3-12-44.4c-0.5-2.5-1-5.1-1.4-7.6c-0.3-1.7-0.6-3.4-0.9-5c-0.9-5.1-1.8-10.1-2.6-14.8l-1.1-6.5
		c-0.3-1.5-0.5-2.9-0.8-4.3c-1-5.7-1.8-9.7-2.5-12.9c-0.1-0.5-0.2-1.1-0.3-1.6c-0.5-2.2-0.9-4-1.4-5.4c-2.6-8.6-5.4-17.3-8.5-26
		c-2-5.6-4.1-11.4-6.3-17.1c-2.2-5.6-4.5-11.3-6.8-16.9c-1.2-2.8-2.4-5.6-3.6-8.4c-2.4-5.5-4.9-11.1-7.5-16.6
		c-1.3-2.7-2.6-5.5-3.9-8.2c-6.3-13.1-13.4-26.7-20.9-40.4c-9.1-16.5-19.7-32.5-34.5-51.8c-0.9-1.2-1.8-2.4-2.7-3.5
		c-0.9-1.2-1.8-2.4-2.8-3.6c-14.6-18.6-18.8-27.9-20.7-45c-0.2-2.1-0.4-4.3-0.6-6.8c-0.2-3-0.4-6.4-0.6-10.7
		c-0.2-5.7,0-12.8,0.3-20.2l0.2-5.1c0.1-1.7,0.1-3.5,0.2-5.3l0.1-2.7c0.2-6.8,0.4-15.7-0.2-24.1c-0.1-0.9-0.1-1.7-0.2-2.6
		c-0.3-3.6-0.8-6.9-1.4-9.9c-0.7-3.3-1.6-6.4-2.7-9l-0.2-0.5l-0.3-0.5c-4.5-7-10.8-11.5-18.6-13.1c0-1.1,0-2.1,0.2-3.1
		c0.2-1.4,0.5-2.9,1-4.3l0.7-2.2l-0.9-2.1c-1.8-4.1-2.4-7.4-3-10.6c-1.1-5.8-2.2-11.8-9.7-19c-1.7-1.6-3.5-3.1-5.8-4.8
		c-0.9-0.7-1.9-1.3-2.9-1.9c-1.9-1.1-4-2.2-6.2-3.2c-4.8-2-10.4-3.6-17-4.9c-7.7-1.5-15.5-2.2-22.3-2.9c-1.3-0.1-2.5-0.2-3.6-0.4
		c-9.4-0.9-19.2-1.4-29.2-1.5l-1.1,0c-13.7,0-28.1,0.9-42.9,2.5c-4.8,0.5-9.6,1.2-14.5,1.9c-9.3,1.4-18.9,3.1-28.6,5.1l-2.3,0.5
		c-3.5,0.7-8.2,1.7-13.4,2.9c-8.1,1.9-14.9,4-20.8,6.2c-1.4,0.5-2.8,1.1-4.1,1.7c-0.5,0.2-0.9,0.4-1.3,0.6
		c-24.5,11-23.2,24.8-20.3,32.1c1.7,4.3,5,7.7,9.9,10.2c7,3.6,17.3,5.3,31.6,5.3h0.2c1.3,0,2.6,0,3.9,0c0.7,0,1.4,0,2,0
		c1.4,0,2.7-0.1,4.1-0.2c1.4-0.1,2.7-0.1,4.1-0.2c1.4-0.1,2.7-0.2,4.1-0.3c7.2-0.5,14.4-1.3,19.9-1.8c2.1-0.2,4.2-0.5,6.2-0.7l1-0.1
		c3.9-0.4,7.5-0.8,10.6-1.1c-0.8,1.6-1.7,3.1-2.8,4.9c-0.4,0.7-0.9,1.4-1.3,2c-2.6,3.9-5.5,8.4-7.7,14.2c-0.2,0.5-0.4,1-0.5,1.5
		c-0.4,1.1-0.7,2.1-1,3.2c-0.1,0.6-0.3,1.1-0.4,1.7c-0.3,1.3-0.5,2.6-0.7,4c-0.3,2.5-0.5,5.3-0.6,8.2c0,2.6,0.1,5.3,0.3,8.3
		c0,0.7,0.1,1.4,0.2,2.1c0.6,6.2,1.5,12.6,2.5,18.7c0.3,2,0.6,3.9,0.9,5.9c0.3,1.9,0.6,3.9,0.8,5.7c0.5,4.1,0.8,7.5,0.9,10.5
		c0.2,8.1-1.1,15.8-3.9,23.6c-1.5,4.2-3.4,8.2-5.8,12.5c-1.9,3.4-4.1,6.7-6.7,10.3c-0.4,0.6-0.8,1.1-1.2,1.7
		c-6.5,8.9-14.2,17.2-22.3,26.1c-11.7,12.9-23.9,26.2-33,41.6c-9.8,16.6-18.6,33.6-26.5,51.3v-193.7h-460v287.7
		c-6.1-7.1-12.6-14.7-19.4-22.6c-26.4-30.9-56.3-65.8-83.3-93.9l-0.3-0.3l-0.3-0.2c-83.7-67.3-116.7-100.6-136.5-120.5
		c-1.9-1.9-3.6-3.7-5.3-5.4c-3.5-3.5-6.6-6.8-9.4-9.7c-10.5-11-17.4-18.3-27.9-18.3c-7.3,0-15.2,3.5-28.2,12.5
		c-5.8,4-11.5,8.3-16.9,12.5c-3,2.4-6,4.9-8.8,7.3c-3,2.6-6,5.3-8.7,7.9c-1.4,1.4-2.8,2.7-4.2,4.1c-4.4,4.4-8.3,8.7-11.6,13
		c-1.8,2.3-3.5,4.6-5,6.8c-1.1,1.6-2.1,3.1-3,4.6c-1.4,2.4-2.7,4.8-3.8,7.1c-6.5,13.7-4.5,29.7,6,47.6c0.5,0.8,1,1.6,1.5,2.4
		c3.3,5.3,7.5,11,12.4,16.8c1.3,1.5,2.7,3.1,4.1,4.7c3.9,4.4,8.2,8.9,13.2,13.8c9.8,9.7,20.3,19,30.3,27.6c1.8,1.5,3.5,3.1,5.3,4.6
		l5.7,4.9c2.1,1.8,4.1,3.6,6,5.3c0.6,0.6,1.3,1.1,1.9,1.7c4.9,4.4,8.5,7.7,11.3,10.6c3.2,3.3,6.4,6.6,9.6,9.9
		c3.2,3.3,6.4,6.6,9.5,10c12.7,13.4,25.1,26.7,37.7,40.4l4.1,4.4c17.2,18.6,35,37.8,52.8,56.3c14.1,14.6,27,27.4,39.3,39.2
		c53.3,50.8,105.2,104.9,155.3,157.3c25.1,26.1,51,53.2,76.8,79.5c19.6,20,37.4,37.8,54.2,54.2c1.7,1.7,3.5,3.5,5.7,5.8
		c0.6,0.6,1.2,1.3,1.8,1.9l1.8,1.9c0.9,1,1.8,1.9,2.7,2.8l0.9,0.9c0.9,0.9,1.8,1.9,2.7,2.8l0.9,0.9c2,2,3.8,3.6,5.5,5.1
		c0.6,0.5,1.3,1.1,1.9,1.6c8,6.5,15.4,9.5,23.4,9.7l0.5,0c3.3,0,6.8-0.5,10.2-1.6c1.8-0.6,3.7-1.3,5.6-2.1c0.9-0.4,1.9-0.9,2.9-1.4
		c1.4-0.7,2.9-1.6,4.4-2.5c10.1-6.3,24.9-19,39.6-33.9c3.2-3.3,6.4-6.6,9.3-9.9c2.3-2.5,4.4-5,6.4-7.3c5.8-6.8,10.2-12.8,13.3-17.7
		c2.1-3.4,3.6-6.4,4.7-9.4c2.6-6.8,3-13,1.1-18.9c-0.4-1.2-0.9-2.4-1.5-3.6c-0.5-1.1-1.2-2.3-1.9-3.4c-0.7-1-1.4-2.1-2.3-3.2
		c-3-3.9-6.8-7.7-11.2-12.1c-2.8-2.8-5.7-5.7-8.8-9c-13.9-15-28.3-29.6-40.4-41.9c-4.6-4.6-9.2-9.3-13.8-13.9l-6.7-6.7
		c-6-6.1-13.2-13.3-20.3-20.6l-167.1-170.6h383.3c-11.4,57-16.9,115.1-22.3,179.5c-2.8,33.3-5.1,63.3-7.1,91.7
		c-0.7,10.2-1.4,20.5-2,30.4c-0.6,10.2-1.2,20.4-1.7,30.4c-2,37.5-3.3,72.2-3.9,106.1c-0.3,15.3-0.4,30.6-0.5,45.5
		c0,10.2,0,20.4,0.2,30.4c0.6,53.3,3.1,103.2,7.4,152.7c2.6,29.9,5.1,60.3,7.6,89.7c0.8,9.4,1.5,18.8,2.3,28.2
		c1.7,20.8,3.8,45.4,6,70.7c0.7,7.9,1.4,15.7,2.1,23.6c5.9,63.9,11.7,116.2,18.3,164.8c0.5,3.8,1,7.2,1.5,10.3
		c0.3,1.6,0.5,3.3,0.8,4.8c0.3,1.6,0.5,3.1,0.8,4.6c1.7,8.8,3.6,16,5.8,22c0.4,1.2,0.9,2.3,1.4,3.4c0.2,0.6,0.5,1.1,0.7,1.7
		c0.5,1.1,1,2.2,1.6,3.2c0.5,1,1.1,2.1,1.7,3c1.2,2,2.5,3.9,3.9,5.6c1.1,1.3,2.2,2.6,3.4,3.8c0.8,0.8,1.6,1.6,2.5,2.3
		c1.3,1.1,2.6,2.2,4,3.2c2.3,1.6,4.9,3.2,7.6,4.5c1.6,0.8,3.3,1.6,5.1,2.3c3.5,1.4,7.2,2.6,11.5,3.7c0.7,0.2,1.4,0.3,2.1,0.5
		c7.4,1.7,16.1,3.1,26.8,4.3c3.4,0.4,6.8,0.7,10.2,1.1l3.9,0.4c5.5,0.6,11,1.2,16.4,1.7c7.8,0.8,14.3,1.5,20.2,2.1
		c11.2,1.1,21.1,2,30.3,2.7c7,0.5,13.8,1,20.3,1.4c3.4,0.2,6.8,0.4,10.2,0.5c7,0.3,13.9,0.5,20.5,0.7c4.1,0.1,8.1,0.1,12.1,0.1
		c2.9,0,5.7,0,8.6-0.1c3.4,0,6.9-0.1,10.4-0.2c2.9-0.1,6-0.1,9.6-0.1h0.9c1.5,0,3,0,4.6,0l2.4,0c5.4,0.1,11.1,0.2,17.2,0.3
		c5.5,0.1,11.2,0.3,17.1,0.3c5.3,0.1,10,0.1,14.3,0.1h0.8c6,0,11.5-0.1,16.7-0.2c1.9-0.1,3.9-0.1,5.8-0.2c1.9-0.1,3.9-0.2,5.8-0.3
		c1-0.1,1.9-0.1,2.9-0.2c1.9-0.1,3.8-0.3,5.7-0.4c1.9-0.2,3.8-0.3,5.7-0.5c2.9-0.3,5.7-0.6,8.3-1c1.9-0.3,3.7-0.5,5.4-0.8
		c1.8-0.3,3.6-0.6,5.3-0.9c2.6-0.5,5.2-1.1,7.7-1.7c11.9-2.9,21.3-6.8,28.7-12c33.5-23.2,33.5-91.8,33.5-141.8
		c0-12.3,0-22.9,0.5-31.2c1.9-32.8,4.2-66.5,6.9-103.2c0.8-11.5,1.7-23,2.6-34.4c2.1-27.6,4.5-56.7,7.2-89.3v783.4h-599.6l3.5-6
		c2.8-4.8,5.6-9.5,8.4-14.3c2.3-4,4.8-8.2,7.4-12.9c12-21.1,27.4-49.3,39.7-80.7c1.3-3.4,2.6-6.7,3.8-10.1c0.4-1.1,0.8-2.1,1.2-3.3
		c1.5-4,3.5-8.8,6.4-15.7c0.6-1.5,1.3-2.9,1.9-4.5l2.4-5.5c11.3-26.2,25.3-58.7,31-86.5c0.5-2.6,1-5.2,1.4-7.7
		c0.3-1.7,0.5-3.4,0.6-5c0.1-0.8,0.2-1.6,0.2-2.4c0.1-1.6,0.2-3.2,0.3-4.8c0.3-7.6-0.6-14.2-2.4-19.8l-1.3-4l-44.9-0.9
		c0.3-1.1,0.5-2.3,0.8-3.6c0.4-2,0.8-4.1,1.3-6.3c0.3-1.5,0.6-3,0.8-4.5c0.4-2.3,0.8-4.7,1.3-7.2c0.3-1.6,0.5-3.3,0.8-5
		c0.4-2.6,0.8-5.2,1.2-7.8c0.3-1.8,0.5-3.6,0.7-5.4c0.2-1.8,0.5-3.6,0.7-5.5c0.5-3.8,0.9-7.6,1.2-11.2c0.8-7.9,1.4-15.6,1.7-22.9
		c0.2-3.9,0.3-7.7,0.3-11.3c0-1.9,0-3.7,0-5.5c0-2.8-0.1-5.5-0.2-8.1c0-0.9-0.1-1.8-0.1-2.7c-0.1-1.7-0.2-3.5-0.4-5.2
		c-0.2-2.6-0.5-5.2-0.8-7.5c-0.2-1.6-0.5-3.3-0.8-4.8c-1.8-10.2-4.7-18.4-8.7-24.2c-2.2-3.2-5.1-6.2-8.8-8.9
		c-0.8-0.6-1.7-1.2-2.6-1.8c-0.9-0.6-1.8-1.1-2.8-1.7c-1.8-1-3.8-2-6-2.9c-1-0.5-2.1-0.9-3.1-1.3c-1.5-0.6-3.2-1.2-4.9-1.8
		c-0.6-0.2-1.1-0.4-1.7-0.6c-4.7-1.5-9.8-2.9-15.7-4.1c-1.8-0.4-3.6-0.8-5.4-1.1c-1.8-0.3-3.6-0.7-5.4-1l-1.8-0.3
		c-1.2-0.2-2.4-0.4-3.6-0.6l-1.8-0.3c-1.2-0.2-2.3-0.4-3.5-0.5c-3.4-0.5-6.8-1-10-1.5l-6.4-0.9c-4.7-0.7-10.1-1.6-14.3-2.5
		c-32.3-7.3-67.4-8.2-97.5-8.2c-11,0-22.1,0.2-32.9,0.3c-9.8,0.1-19.9,0.3-29.6,0.3c-9.8,0-19.4,0.1-28.5,0.3
		c-3.2,0.1-6.3,0.1-9.4,0.2c-6.4,0.1-12.7,0.3-18.8,0.5c-9.6,0.3-19,0.8-28.1,1.3c-6.3,0.4-12.6,0.8-18.8,1.2
		c-16,1.2-31.9,2.7-47.2,4.5c-6.5,0.8-13.2,1.7-19.9,2.7c-14.1,2.1-28.6,4.7-47,8.4c-8.2,1.6-16.5,3.4-24.6,5
		c-18.9,3.9-38.4,8-58.8,11.4c-3,0.5-5.6,1-7.5,1.4l-2.8,0.5c-2.7,0.5-4.8,0.9-6.2,0.9l-0.2,0c-0.3,0-0.5,0-0.7-0.1
		c-0.1,0-0.3,0-0.4-0.1c-0.6-0.1-1.2-0.3-2.1-0.7c-0.7-0.3-1.5-0.6-2.6-1.1c-0.7-0.3-1.5-0.7-2.3-1.1l-2.4-1.2
		c-2.2-1.1-4.7-2.3-7.9-3.9c-11.5-5.5-23.2-9-34.5-12.3c-6.4-1.9-13.1-3.9-19.6-6.2c-13.7-4.9-27.5-10.9-39.1-16.2
		c-4.6-2.1-9.3-4.3-14-6.4c-15.9-7.3-32.3-14.9-48.8-21.1c-3.2-1.2-6.2-2.3-9.2-3.3c-8.2-2.9-15.8-5.1-23.2-6.9
		c-3.2-0.8-6.3-1.5-9.4-2.1c-1.6-0.3-3.3-0.6-5-0.8c-1.2-0.2-2.5-0.3-3.7-0.4c-2-0.2-4-0.3-5.9-0.3l-0.8,0c-2.6,0-5.1,0.1-7.4,0.4
		c-0.7,0.1-1.4,0.2-2.1,0.3c-1.4,0.2-2.8,0.5-4.1,0.8c-0.7,0.2-1.4,0.4-2,0.6c-1.4,0.4-2.7,0.9-3.9,1.5c-2,0.9-3.9,2-5.5,3.3
		c-1.8,1.4-3.3,3-4.5,4.9c-0.4,0.6-0.8,1.3-1.2,2c-0.7,1.4-1.3,2.9-1.7,4.4c-1,3.9-0.9,8.3,0.1,13c0.6,2.9,2.1,5.6,4.3,8.1
		c2.6,3,6.2,5.7,11.1,8.4c4.9,2.7,11,5.2,18.7,7.9c5.3,1.8,10.6,3.4,15.2,4.8c4.9,1.5,9.2,2.8,11.7,3.8c0.9,0.4,2.2,0.9,4,1.6
		c2.5,1,5.9,2.3,9.8,3.9c5.2,2.1,9.9,4.1,14.4,6c1,0.4,2.1,0.9,3.1,1.3c7.7,3.3,14.3,6.4,19.8,9.1c0.9,0.5,1.9,0.9,2.8,1.4
		c1.3,0.7,2.6,1.4,3.9,2.1c1.7,0.9,3.2,1.8,4.5,2.6c0.7,0.4,1.3,0.8,1.9,1.2c1.5,1,2.7,1.9,3.6,2.7c0.3,0.3,0.6,0.6,0.9,0.8
		c0.1,0.2,0.3,0.3,0.3,0.4c0,0.7-0.2,1.2-0.9,1.8c-0.2,0.2-0.5,0.5-0.8,0.7c-0.6,0.5-1.5,1-2.5,1.6c-0.5,0.3-1.1,0.6-1.6,0.8
		l-0.9,0.4c-0.6,0.3-1.2,0.6-1.9,0.9l-1,0.5c-0.7,0.3-1.4,0.6-2,1c-0.3,0.2-0.7,0.3-1,0.5c-1.6,0.8-3,1.6-4.1,2.4
		c-1.6,1.1-2.9,2.2-4,3.4c-2.7,3-4.6,5.3-6.2,7.2c-0.7,0.9-1.3,1.7-1.8,2.5c-2.2,3.1-3.4,5.8-4,8.6c-0.2,0.8-0.3,1.7-0.3,2.5
		c-0.1,0.8,0,1.7,0,2.5c0.1,0.8,0.1,1.5,0.3,2.4c0.1,0.7,0.3,1.5,0.5,2.3c0.4,1.5,0.8,3.1,1.3,4.8l0.1,0.4c0.7,2.4,1.5,5.2,2.3,8.6
		c0.2,1,0.5,1.9,0.7,2.7c0.2,0.9,0.5,1.7,0.7,2.4c0.9,2.7,1.8,4.9,2.8,6.8c0.1,0.2,0.2,0.3,0.3,0.5c-0.1,0.1-0.2,0.2-0.2,0.3
		c-0.6,0.7-1.1,1.5-1.4,2.4c-0.1,0.2-0.3,0.4-0.5,0.7c-1.1,1.6-3,4.3-4.8,7.2c-1.2,2-2.3,3.9-3.1,5.6c-0.3,0.7-0.6,1.3-0.9,2
		c-0.1,0.3-0.3,0.7-0.4,1c-0.9,2.4-1.4,4.6-1.5,6.5c-0.1,2.6,0.2,5.4,1,8.4c0.2,0.7,0.4,1.4,0.6,2.1c0.4,1.3,0.9,2.7,1.4,4
		c0.3,0.7,0.5,1.3,0.8,2c0.6,1.3,1.2,2.5,1.9,3.8c1,1.8,2,3.6,3.2,5.3c1.1,1.7,2.2,3.2,3.4,4.6c1.8,2.2,5.3,4.4,11.3,8
		c1.3,0.8,2.7,1.6,4,2.4l0.8,0.5c0.5,0.3,1.1,0.7,1.6,1c2.5,1.6,3.4,2.4,3.6,2.7c2.4,4.4,2.6,7.6,2.5,10.2c-0.1,1.7-0.3,3.3-0.6,5.1
		l-0.2,1.2c-0.1,0.4-0.1,0.8-0.2,1.2c-0.5,3.7-0.7,8.1,1.1,12.9c1.2,3.3,3.2,6.4,6.1,9.5c10.8,11.9,24.3,14.4,36.1,16.6
		c15.3,2.9,26.3,4.9,31.7,23.9c1.3,4.6,1.8,9.1,1.4,13.4c-0.3,2.8-1,5.6-2,8.3c-0.6,1.6-1.4,3.2-2.3,4.7c-5,8.7-14.1,16.8-27.8,24.7
		c-2,1.1-4.1,2.3-6.3,3.5c-6.9,3.6-14.8,7.2-24.6,11.3c-1.5,0.6-3,1.2-4.5,1.8c-4,1.6-7.9,3.1-11.6,4.6c-6.9,2.7-13.3,5.2-18.8,7.6
		c-0.9,0.4-1.8,0.8-2.7,1.3c-0.5,0.2-0.9,0.5-1.4,0.7c-3.1,1.5-6.4,3.3-10.2,5.4l-3,1.6c-2,1.1-4.1,2.2-6.1,3.2c-1,0.5-2,1-3.1,1.6
		c-1.6,0.8-3.1,1.5-4.5,2.2c-2.6,1.2-5,2.2-7.2,2.9c-0.8,0.3-1.6,0.5-2.4,0.8c-0.2,0.1-0.4,0.1-0.7,0.2c-1.6,0.5-3.1,0.8-4.4,1
		l-3.3,0.4c-5.3,0.7-9.1,1.2-11.4,1.2c-0.2,0-0.5,0-0.6,0c0-0.1-0.1-0.3-0.1-0.4c-0.2-0.6-0.3-1.5-0.6-2.8c-0.1-0.6-0.2-1.2-0.3-1.9
		c-0.6-3.2-1.3-7.1-2.6-12.2c-3.2-12.5-5.5-26.5-6.9-42.7c-0.3-3.5-0.6-7.3-0.9-11.1c-0.9-14.3-1.3-29.2-1.7-43.6l-0.2-7.6
		c-0.1-5.1-0.3-11.1-0.5-17.2c-0.2-6.3-0.5-11.9-0.8-17.2c-0.4-6.1-0.8-11.7-1.4-17.1c-0.8-8.1-1.8-15.4-3-22.4
		c-1.6-9.5-3.3-19.4-5.1-30.2c-3.5-21.4-6.9-43.2-10.2-64.3l-1-6.5c-4.3-27.5-8.5-54.4-13-81.1c-2.5-14.5-4.8-27.7-7.2-40.5
		c-0.6-3.4-1.3-6.7-1.9-10.1c-4.1-21.6-8.3-41.4-12.6-60.4c-1.5-6.7-3.1-13.5-4.8-20c-0.8-3.3-1.6-6.7-2.5-10
		c-5.2-20.5-13-38.7-23.2-54c-1.4-2.1-2.9-4.3-4.4-6.3c-3-4-6.2-7.9-9.6-11.6c-4.2-4.5-8.6-8.7-13.4-12.6
		c-5.5-4.5-11.6-8.7-17.9-12.4c-9.2-5.4-19.3-9.9-30.1-13.6c-2.3-0.8-4.7-1.5-7.2-2.3c-21.5-6.3-46.5-9.5-74.6-9.5
		c-4.4,0-8.9,0.1-13.5,0.2c-14.7,0.5-29.2,2.2-43.2,3.9c-16.2,1.9-33,3.9-49.6,3.9c-4.7,0-9.3-0.2-13.6-0.5
		c-0.7-0.1-1.7-0.1-2.9-0.2c-29.5-1.7-36.1-5.2-37.6-6.5c0.1-1,1.2-5.1,9.5-14.9c6.3-7.4,14.3-15.2,20.1-20.9c3.4-3.3,6.2-6,7.6-7.7
		c50-57,74.4-119,81.8-207.3c2.2-26.8,10.4-49.9,19.1-74.3c9.5-26.6,19.2-54.2,20.4-86.7l0.1-2.7c1.2-34.3,2.3-66.7-5.3-101.8
		c-6.3-28.9-24-55.3-41.1-80.9c-4.1-6.1-8-11.9-11.7-17.7c-42.5-66.4-123.9-112.7-197.9-112.7c-10.4,0-20.6,0.9-30.4,2.7
		c-15,2.8-26.5,8.6-38.7,14.7c-7.4,3.8-15.2,7.7-24.1,11.1c-15.6,5.9-30.6,10.7-45.1,15.3c-15.5,4.9-31.5,10-48.1,16.5
		c-40.8,15.8-75.9,50.7-87.3,86.9c-2.8,8.8-6.1,17.6-9.2,26.2c-11.7,31.5-23.8,64.1-13.5,101.4c5.7,20.6,16.3,38.2,26.5,55.1
		c4.4,7.3,9,14.8,13,22.4c10.2,19.1,11.9,30.8,14.8,50.2c0.6,4.3,1.3,8.8,2.2,13.8c2.6,15.6,6.5,39.2,18.1,54
		c3.5,4.5,7.3,7,10.7,9.2c2.5,1.7,4.6,3.1,6.6,5.2c2.3,2.5,4.2,4.5,5.8,6.2c4.5,4.7,6.1,6.4,7.1,8.8c1.2,2.8,1.9,7.2,3.2,16
		c0.3,2,0.7,4.3,1.1,6.8c9.9,62.8,11.9,114.3,6,157.3c-8.2,59.8-31.9,103.9-70.5,131.1c-1,0.4-4.2,0.4-6.2,0.4
		c-4.5,0-9.5,0.1-13.5,2.3c-10.6,6.1-22.6,16.5-33.1,25.8c-12.7,11.3-24.3,19.8-41.2,30.4c-1.7,1.1-4.5,3.2-8,6
		c-3.9,3-8.4,6.5-11.6,8.6c-5.8,3.8-11.8,7.1-17.6,10.3c-8.4,4.6-17.1,9.4-25.7,16c-19.3,14.7-37.1,31-56,49.1
		c-4.3-22.6,1.2-55.6,6.2-85.1c2.9-17,5.6-33.1,6.1-45.8c0.8-17.4,2.7-35.3,4.6-52.5c3.2-29.5,6.5-60.1,4.2-90.4
		c-4.4-58.9,2.9-123.6,9.9-186.1c4.7-42,9.6-85.4,11-127.1c2.9-87,6.5-195.2,23.9-293.1c4.9-27.7,8.6-56.3,12.1-83.9
		c5.4-42.2,11-85.9,21.2-127.3c2.9-11.8,8.4-35.5,8.8-39.1c1.1-8.4-5.2-33.9-10.7-40.2c-2.1-2.4-4.4-2.9-5.9-2.9
		c-3.1,0-5.1,1.7-6.3,3.8c-13.9-5.7-32-8.5-55.2-8.5c-22.5,0-46.5,2.5-69.6,4.9c-19.9,2.1-38.7,4.1-53.9,4.1l-0.5,0
		c-15.2,0-30.4,0-45.7,0c-7.6,0-15.2,0-22.8,0c-56.3,0-116.2-0.4-175.5-5c-6.5-0.5-13.4-0.7-20.7-0.8c-14.6-0.4-29.7-0.7-41.9-4
		c-8.5-2.3-15.9-5.5-23.2-8.6c-12.3-5.3-24.9-10.7-42.2-11.4c-2.3-0.1-4.7-0.1-7-0.1c-26.4,0-53.1,6.3-77.1,18.1
		c-24.4,12-45.4,29.5-60.9,50.6c-37.6,51.3-44.7,124.2-17.3,177.1c14.1,27.3,34.6,39.5,54.4,51.3c11.4,6.8,23.3,13.9,33.9,23.9
		l0.2-0.2c4.6,4.3,12,11.6,14,14.6l-1.7,3.5c-0.3-0.2-0.8-0.6-1-1c1.5,2.7,3.6,4.2,8,5.9c5.1,1.9,12.8,2.9,23.4,2.9
		c13.5,0,28.4-1.5,37.3-2.4l0.8-0.1c0.4,0,0.8-0.1,1.3-0.1c1.7,0,3.7,0.2,5.9,0.5c2.5,0.3,5.1,0.6,7.6,0.6c3.2,0,5.8-0.5,8-1.4
		c4.1-1.8,5.7-5.2,5-10.3l0.4-0.2v-6.5c4.9-0.7,9.7-2,14.3-4l0.4-0.2l0.4-0.3c4.6-3,9.3-5.6,13.8-8.2c8.3-4.6,16.7-9.4,24.8-16.4
		c2.1,7.8,5.2,27.9,7.1,79.1c1.6,43.4,1.8,94.4,2,128.2c0.1,19.6,0.1,33.7,0.4,39.2c2.8,54.4,4.6,109.7,6.4,163.2
		c1.3,39.5,2.6,80.4,4.4,120.6c1,23.4,1.4,47.2,1.7,70.3c0.6,35,1.1,71.2,3.9,106.8c3.2,41.8,4.1,84.6,5,126
		c0.2,7.4,0.3,14.9,0.5,22.3c0.1,5.9-0.4,13.8-1,22.1c-0.7,9.8-1.4,20.6-1.2,30.7h-134.2v485.7h328.7c-0.6,1.2-1.1,2.4-1.7,3.7
		c-0.7,1.6-1.4,3.2-2.2,4.9c-0.9,2.1-1.8,4.2-2.7,6.3h-356.2l0-0.6c-0.1-10.9-0.2-21.8-0.3-32.7c-0.1-19.7-0.3-39.5-0.4-59.2
		c-0.1-21,0.4-42.6,1-63.4c1.3-51,2.6-103.7-5.1-154.9c-4.2-94.9-8.5-189.8-12.8-284.7l-5.2-114.9c-1.2-27.1-3-54.8-4.7-81.6
		c-1.3-20.4-2.6-41.6-3.7-62.1c-0.4-6.8,0.1-14.5,0.6-22.5c1-15,2-30.6-2.5-43.3c-5.4-15.4-18-23.8-37.5-25.1l-5.9-0.4l-0.5,5.9
		c-14.2,171.8-29.2,354.9-43.7,539.9c-10.2,130.5-13.7,263.8-17.1,392.6l-0.2,6.9H120.9v-31.4c2.7,0,5.3,0,7.8,0l2.5,0
		c17.7,0,36.6,0.4,59.3,1.2c3.3,0.1,6.6,0.2,9.9,0.4c12.7,0.5,25.6,1,38,1.6c16.7,0.7,34,1.5,51.1,2.1c3.3,0.1,6.7,0.2,10,0.3
		c14.6,0.4,27.8,0.7,40.3,0.8c10.3,0.1,20.8,0.1,30.6-0.1c9-0.1,18.4-0.2,28.2-0.2c18.4,0,38.3,0.2,62.9,0.7c14.6,0.3,29.6,0.7,44,1
		l1.6,0c5.2,0.1,10.5,0.3,15.7,0.4c5.1,0.1,10.3,0.2,15.4,0.4c24.7,0.6,43.7,0.8,61.6,0.9c4.5,0,8.9,0,13.4,0l2.3,0
		c4.3,0,8.6,0.1,13.3,0.2c4.1,0.1,8.2,0.3,12.7,0.6c2.4,0.1,4.7,0.3,7,0.5c2.2,0.2,4.5,0.3,6.7,0.5c6,0.5,12,1,17.9,1.5
		c2.8,0.2,5.6,0.5,8.4,0.7c2.4,0.2,4.9,0.4,7.3,0.6c7.8,0.6,14.3,1.1,20.4,1.4c4.9,0.3,9.4,0.4,13.8,0.5c3.6,0.1,7.4,0.1,11.2,0.1
		c24,0,48.2-1.8,71.5-3.5c12.1-0.9,24.7-1.8,37-2.5c1.7-0.1,3.4-0.2,5.1-0.3c7.4-0.3,14.1-0.6,20.5-0.7c1.7,0,3.4,0,5.1-0.1
		c3.5,0,6.9,0,10.2,0.1c1.7,0,3.4,0.1,5.1,0.1c5.2,0.2,10.7,0.2,16.9,0.2c7.9,0,15.9-0.1,23.6-0.2l5.6-0.1c4.5-0.1,9.9-0.1,15.2-0.2
		l2.6,0c2.5,0,5,0,7.5,0c3.5,0,6.9,0.1,10.1,0.2c5.1,0.2,10.2,0.4,15.1,0.6c3.7,0.2,7.3,0.3,11,0.5c5.8,0.2,10.6,0.3,15,0.4l1.4,0
		c0.8,0,1.6,0,2.4,0c5.5,0,10.5-0.2,15.4-0.6c17.1-1.3,30.1-5.7,42.6-9.9l3.4-1.2c6.5-2.2,13.5-4.4,21.2-5.9
		c5.3-1,10.5-1.6,15.8-1.7l225.7-6.3c1.8,0,3.7-0.1,5.8-0.1c1.5,0,3.1,0,4.8,0c1.3,0,2.5,0,3.8,0.1c2.6,0.1,5.3,0.1,8.1,0.2
		c2.2,0.1,4.4,0.1,6.7,0.2l1.9,0.1c2.9,0.1,5.9,0.2,8.9,0.3c1.5,0,3,0.1,4.6,0.1c3.3,0.1,6.4,0.1,9.3,0.2c1.6,0,3.1,0,4.7,0h0.4
		c3.1,0,6.1,0,9-0.1c16.5-0.4,30.1-1.9,41.5-4.7c11.1-2.7,20.1-6.5,27.5-11.6c6.1-4.2,10.8-9.8,14-16.4c0.3-0.7,0.6-1.4,1-2.2
		c0.9-2.1,1.6-4.4,2.2-6.7c0.2-0.8,0.4-1.5,0.5-2.3c0.3-1.5,0.6-3.1,0.8-4.7c0.3-2.3,0.5-4.8,0.6-7.3c0-0.8,0-1.6,0-2.5
		c0-0.8,0-1.7,0-2.5c-0.1-2.4-0.2-5-0.5-7.6c-0.2-1.7-0.4-3.4-0.6-5.2c-0.2-1.7-0.5-3.5-0.8-5.2c-0.3-1.7-0.6-3.4-1-5.2
		c-1.2-5.6-2.7-11.7-4.6-18.4c-1.3-4.6-2.9-9.7-4.7-15.6c-1.4-4.3-2.8-8.6-4.2-12.7c-1.9-5.7-3.6-11-5.2-16.1
		c-0.5-1.5-0.9-2.9-1.3-4.3c-1.6-5.3-2.7-9.6-3.4-13.3c-12.9-66.6-21.1-132.6-29.3-211.3c-0.6-5.9-1.4-12-2.2-17.9
		c-2.3-17.3-4.6-35.1-3-51.5c0.3-3.1,0.5-5.7,0.7-7.9c0.3-3.3,0.6-6.5,0.9-8.1c0.7-0.1,1.5-0.2,2.3-0.2c2.9-0.3,6.9-0.6,12.4-1.9
		c6.9-1.5,12.9-1.9,18.8-2.3c14.7-1,28.5-1.9,41.1-21.8c0.6-0.9,1.2-1.9,1.7-2.9c0.1-0.2,0.3-0.5,0.4-0.7l0.2-0.5
		c0.3-0.6,0.6-1.1,0.9-1.7c0.1-0.3,0.3-0.6,0.4-0.9l0.2-0.6c0.2-0.5,0.4-1,0.6-1.5c0.1-0.3,0.2-0.6,0.3-0.9l0.2-0.6
		c0.2-0.5,0.3-1,0.5-1.4c0.1-0.3,0.2-0.6,0.3-0.9l0.2-0.6c0.1-0.5,0.3-0.9,0.4-1.4c0.1-0.3,0.1-0.6,0.2-1l0.1-0.6
		c0.1-0.5,0.2-0.9,0.3-1.4c0.1-0.3,0.1-0.6,0.2-1l0.1-0.6c0.1-0.5,0.2-0.9,0.2-1.4c0-0.3,0.1-0.6,0.1-1l0.1-0.6
		c0.1-0.5,0.1-1,0.1-1.5c0-0.3,0-0.6,0-1l0-0.5c0-0.5,0-1,0.1-1.5c0-0.3,0-0.6,0-1l0-0.5c0-0.5,0-1,0-1.6c0-0.3,0-0.6,0-1l0-0.4
		c0-0.5-0.1-1.1-0.1-1.6c0-0.3-0.1-0.6-0.1-0.9l0-0.4c-0.1-0.6-0.1-1.1-0.2-1.7c0-0.3-0.1-0.6-0.1-0.9l0-0.3
		c-0.1-0.6-0.2-1.2-0.3-1.8c0-0.3-0.1-0.6-0.2-0.9l0-0.2c-0.1-0.6-0.2-1.2-0.3-1.8c-0.1-0.3-0.1-0.6-0.2-0.8l-0.1-0.3
		c-0.1-0.6-0.3-1.2-0.4-1.8l-0.3-1c-0.2-0.6-0.3-1.3-0.5-1.9l-0.3-1c-0.2-0.6-0.3-1.3-0.5-1.9l-0.3-0.9c-0.2-0.7-0.4-1.3-0.6-2
		l-0.3-0.9c-0.2-0.7-0.4-1.4-0.7-2l-0.3-0.8c-0.2-0.7-0.5-1.4-0.7-2.1l-0.2-0.6c-0.3-0.8-0.5-1.5-0.8-2.3l-0.2-0.4
		c-0.3-0.8-0.6-1.6-0.9-2.4l-0.1-0.2c-1.6-4.1-3.3-8.3-5-12.2c-1.3-3.1-2.6-6.1-3.7-9c-0.2-1.7-0.9-3.8-1.8-7l-0.1-0.7l-0.4-0.8
		l-1.2-3.7c0,0,0,0,0-0.1l0-1.5l-0.9-0.9l0,0c0,0,0,0,0,0l-0.6-1c-1.4-4.5-2.8-9-4.2-13.4c-7.9-24.7-16-50.3-14.3-73.3
		c0.7-9.6,2.3-18.8,3.8-27.7c3.3-19.5,6.6-39.7,1.3-62.8c-11.6-50-44.1-89.6-91.6-111.6c-24.9-11.5-49.4-17.4-72.9-17.4
		c-32.9,0-65,11.4-95.4,34c-7,5.2-12.2,10-16.8,14.3c-10.2,9.5-15.9,14.8-30.5,14.8c-2.4,0-5.1-0.2-8-0.5
		c-8.2-0.9-17.1-3.4-25.8-5.9c-6.3-1.8-12.8-3.6-19.1-4.9c-23.2-4.5-46.9-7.9-69.9-11.2c-5.9-0.8-11.7-1.7-17.6-2.6
		c-10.8-1.6-25.1-3.8-39.5-6.3c-20.6-3.7-42.6-7.5-67.3-11.7c-5.6-1-11.2-1.9-16.8-2.9c-11.2-1.9-22.5-3.8-33.7-5.7
		c-11.2-1.9-22.5-3.8-33.7-5.7l-14.5-2.4c-122.5-20.6-249.1-41.9-372-68.6c-25.5-5.5-50.6-10.4-76.9-14.8
		c-10.1-1.7-20.5-3.4-30.9-4.9c-5.2-0.8-10.4-1.5-15.6-2.3c-9.7-1.4-21.1-4.4-32.9-7.6l-6.6-1.8c-2.2-0.6-4.5-1.2-6.7-1.8
		c-10.3-2.8-22.4-5.8-33.6-7.4c-2.2-0.3-4.4-0.6-6.5-0.8c-1.1-0.1-2.1-0.2-3.2-0.3c-2.1-0.1-4.2-0.2-6.3-0.2c-2.1,0-4.1,0.1-5.9,0.2
		c-10.6,0.9-20.8,5.4-29.7,13.2c-3.8,3.3-7.2,7.1-10.1,11.3c-1.2,1.7-2.2,3.4-3.2,5.2c-1,1.8-1.9,3.6-2.7,5.5
		c-1.2,2.9-2.2,5.8-3,8.8c-2.4,9.5-2.3,19.3,0.3,28.3c3.6,12.3,8.4,20.3,11.8,26.2l0.6,0.9c0.5,0.8,0.9,1.5,1.3,2.3
		c1.1,1.8,2.3,4,3.4,6.2c2.7,5.4,4.4,10.6,5.4,16.8c0.4,2.3,0.7,4.8,0.9,7.4c-1,0.1-1.9,0.3-2.8,0.5c-3.6,1.1-5.3,3.2-6,4.8
		c-0.2,0.4-0.4,0.9-0.5,1.3c-0.1,0.5-0.2,1-0.3,1.4H141V2582h23.9c-1.5,5.1-2.4,11.2-2.9,18.5c-0.1,1.8-0.2,3.8-0.3,5.8
		c-0.1,2-0.1,4-0.1,6.1c0,2,0,4.1,0,6.3c0,2.1,0.1,4.3,0.1,6.5c0.2,6.7,0.6,14.3,1.2,23.8c0.2,2.3,0.3,4.6,0.5,7
		c0.2,2.3,0.3,4.6,0.5,7l0.1,1.8c0.3,4,0.6,8,0.8,11.9c0.4,5.2,0.6,9.4,0.8,13.3c0.1,1.1,0.1,2.2,0.2,3.2c0.1,2.1,0.2,4.2,0.3,6.3
		c0.2,4.4,0.2,8.2,0.2,11.8c0,3.8-0.1,7.3-0.3,10.4c-0.5,7.3-1.5,12.7-3.1,16.2c-1.3,3-3.5,6.6-6.5,10.6c-1,1.3-2,2.6-3.1,4
		c-0.6,0.7-1.1,1.4-1.7,2.1c-1.1,1.3-2.4,2.8-3.6,4.2c-2.4,2.7-5.1,5.5-8,8.6c-1.4,1.4-2.8,2.9-4.2,4.3c-2.5,2.5-5.2,5.2-8.5,8.4
		c-2.1,2.1-4.2,4.1-6.3,6V1493.5c0.1,0.1,0.3,0.1,0.4,0.2c0.5,0.2,1.1,0.4,1.6,0.7c1.8,0.8,3.5,1.5,5.2,2.3c1.1,0.6,2.1,1.2,3.1,1.8
		c0.7,0.5,1.3,1,1.8,1.4c0.4,0.3,0.7,0.7,1,1c1.2,1.3,2.4,3,3.7,5.1c0.4,0.7,0.9,1.4,1.3,2.2c1.6,2.8,3.2,6,4.6,8.8l1.4,2.7
		c0.5,0.9,0.9,1.9,1.4,2.8c0.5,0.9,1,1.9,1.5,2.8c1.1,2.1,2.2,3.9,3.2,5.6c2.2,3.7,4.4,6.7,6.7,9.2c5.4,6,10.7,12.4,15.8,18.7
		l1.3,1.6c1.1,1.4,2.3,2.8,3.4,4.2c2.7,3.3,4.9,5.9,7,8.3c8,9.2,18.9,21,32.6,30.2c1.3,0.9,2.7,1.7,4.1,2.6
		c7.4,4.5,15.1,7.8,22.6,11.1c4.6,2,9,3.9,13.1,6c0.6,0.3,1.2,0.6,1.7,0.9c2.4,1.3,4.5,2.5,6.4,3.8c1,0.7,2,1.4,2.9,2
		c0.9,0.7,1.8,1.4,2.6,2.2c0.4,0.4,0.8,0.7,1.2,1.1c0.8,0.8,1.6,1.6,2.3,2.4c2.4,2.8,2.8,5,3.3,8.3c0.5,3,1.1,6.7,3.6,10.8
		c0.2,0.4,0.5,0.7,0.7,1.1c1,1.5,2.2,3,3.7,4.4c0.7,0.7,1.5,1.5,2.4,2.2c6.2,5.2,14.8,8.1,27.2,9.2c1.3,0.1,2.6,0.2,3.9,0.3
		c0.6,0,1.3,0.1,1.9,0.1c4,0.2,7.9,0.2,11.7,0.2l2.8,0c1.1,0,2.2,0,3.3,0c1,0,2,0,3,0.1c0.9,0,1.9,0.1,2.7,0.2
		c9,0.7,18.5,1.5,30.1,2.6c6.7,0.6,13.3,1.3,20,2l4.4,0.5c8.4,0.9,17.1,1.7,25.6,2.6c16.6,1.6,38.4,3.5,60.6,4.2
		c6.5,0.2,12.8,0.3,18.9,0.3l1.6,0c35.8-0.1,71.8-3.4,106.6-6.5c22.9-2.1,46.6-4.2,70-5.5c2.7-0.1,6-0.2,9.1-0.2l4.3-0.1
		c5.2-0.1,10.8-0.2,16.5-0.6c2.6-0.2,5.1-0.4,7.4-0.7c1.7-0.2,3.4-0.5,4.9-0.7c4.4-0.7,8.4-1.8,11.8-3c6.8-2.4,12.1-5.9,15.8-10.2
		c2.1-2.5,3.6-5.5,4.4-8.8c0.3-1.5,0.5-3.1,0.6-4.8c0-1,0-2,0-3.3c0-0.9-0.1-1.8-0.1-2.7c-0.1-1-0.1-2-0.1-3c0-0.5,0-1,0-1.5
		c0-0.5,0-0.9,0.1-1.3c0-0.2,0-0.4,0.1-0.6c0.1-0.4,0.1-0.7,0.2-1.1c0.2-0.8,0.5-1.4,1-2c2.2-2.8,5.9-5.3,11.2-7.7
		c2.2-1,4.8-2,8-3.1l1.4-0.5c1.5-0.5,3-1,4.4-1.5l2.7-0.9c1.4-0.5,2.8-0.9,4.2-1.4c2.1-0.7,3.8-1.4,5.4-2.1c0.4-0.2,0.9-0.4,1.3-0.6
		c6.9-3.2,13.6-6.7,20-10.5c3.2-1.9,6.3-3.9,9.4-5.9c1.5-1,3.1-2.1,4.5-3.1c3-2.1,5.9-4.3,8.8-6.5c20.4-15.8,38.7-35.9,54.4-59.7
		c4.9-7.4,9.6-15.3,14.1-23.6c0.9-1.6,1.8-3.3,2.6-4.9c1.7-3.3,3.4-6.6,5-10c28.6-58.6,33.9-116.3,16.8-181.5
		c-0.4-1.5-0.9-3-1.5-4.8c-0.4-1.2-0.9-2.5-1.5-3.8c-0.5-1.3-1.1-2.6-1.7-4c-0.7-1.7-1.6-3.5-2.6-5.6c-0.7-1.4-1.4-2.9-2.1-4.4
		l-1.9-4c-1.5-3.2-3.1-6.5-4.7-9.9l-0.7-1.6c-4.8-10.4-7.8-18.1-9.7-24.9c-0.1-0.5-0.3-1-0.4-1.5c-0.9-3.5-1.5-6.7-1.8-9.5
		c0-0.4-0.1-0.8-0.1-1.2c-0.1-1.2-0.1-2.4,0-3.5c0-0.4,0-0.7,0.1-1.1c0.1-0.7,0.2-1.4,0.3-2c0.3-1.9,0.9-3.6,1.8-5.1
		c2.4-4.2,9.9-8.2,15.3-10.8c3.8-1.8,7.8-3.6,12.1-5.4c13.8-6,28.1-12.1,36.2-21.7c7.8-9.2,13.7-19.5,17.3-30.6
		c0.5-1.4,0.9-2.8,1.3-4.2c0.8-2.8,1.4-5.7,1.9-8.6c1.2-7.2,1.6-14.7,1.1-22.3c-0.2-3.4-1.1-7.4-2.8-12.5c-0.6-1.8-1.3-3.8-2.3-6.4
		c-0.5-1.2-0.9-2.4-1.4-3.7l-0.4-1.1c-0.7-1.9-1.6-4.1-2.3-6.2c-0.2-0.5-0.4-1-0.5-1.5c-0.7-2.1-1.3-3.9-1.7-5.6
		c-0.2-0.9-0.4-1.7-0.6-2.5c-0.2-1.2-0.4-2.2-0.4-3.1c0-0.8,0-1.6,0.1-2.2c0.2-1.2,0.7-2.6,1.5-4.1c0.8-1.6,2-3.4,3.5-5.4
		c0.3-0.4,0.6-0.8,0.9-1.2c2-2.5,4.2-5.1,6.2-7.2l4.5-5c0.8-0.8,1.5-1.7,2.2-2.5c3-3.4,6.3-7.4,8.4-11.3c5.2-9.7,8.9-20,11-30.6
		c0.4-2,0.8-4.1,1.1-6.2c0.4-3.1,0.7-6.2,0.9-9.3c0.3-5.1,0.2-10.3-0.2-15.5c-0.2-2-0.4-4.1-0.6-6.1c-0.4-3-0.9-6.1-1.5-9.1
		c-0.2-1-0.4-2-0.7-3c-1.2-4.9-2.6-9.9-4.4-14.7c-1-2.9-2.2-5.8-3.4-8.6c-0.8-1.9-1.7-3.7-2.6-5.6c-0.5-0.9-0.9-1.8-1.4-2.8
		c-1.4-2.7-3-5.4-4.6-8.1c-0.5-0.9-1.1-1.8-1.6-2.6c-1.7-2.6-3.4-5.2-5.2-7.7c-0.6-0.8-1.2-1.7-1.9-2.5c-1.2-1.6-2.5-3.3-3.9-4.9
		c-0.7-0.8-1.3-1.6-2-2.4c-3.4-3.9-7-7.7-10.7-11.2c-0.8-0.7-1.5-1.4-2.3-2.1c-1.5-1.4-3.1-2.7-4.7-4.1c-1.6-1.3-3.2-2.6-4.9-3.9
		c-1.6-1.2-3.3-2.5-5-3.6c-3.4-2.4-6.9-4.6-10.4-6.6c-3-1.7-6.5-3-9.7-4.1c-0.9-0.3-1.7-0.6-2.6-0.9c-2.7-0.9-5.5-1.8-8-2.9
		c-0.7-0.3-1.4-0.6-2.1-0.9c-0.7-0.3-1.3-0.7-1.9-1c-0.3-0.2-0.6-0.3-0.9-0.5c-0.6-0.4-1.1-0.7-1.7-1.1c-2.1-1.6-3.6-3.4-4.6-5.6
		c-1-2.2,1.7-8.4,3.7-13c3.8-8.8,8.2-18.8,3-27.6c-9.4-15.8-40-19.3-64.6-22.1c-6.6-0.8-12.2-1.4-16-2.2c-1.9-0.4-3.6-0.7-5.1-1
		c-2.1-0.4-3.9-0.7-5.6-1l-1.2-0.2c-0.8-0.1-1.5-0.2-2.1-0.3l-1-0.1c-0.6-0.1-1.2-0.2-1.7-0.2l-0.8-0.1c-0.3,0-0.5-0.1-0.8-0.1
		c-0.5-1.4-1.3-2.9-2.4-4.5c-0.1-0.2-0.3-0.4-0.4-0.6c-0.3-0.4-0.6-0.8-0.9-1.2c-1.4-1.9-3.3-4.1-5.5-6.4c-0.4-0.4-0.8-0.8-1.1-1.2
		c-0.7-0.8-1.5-1.7-2.2-2.7c-2.2-2.9-4.2-6.2-6-9.1l-0.8-1.3c-2.1-3.4-4.3-6.8-6.7-10c-0.5-0.6-0.9-1.2-1.4-1.7
		c-1.9-2.3-3.8-4.5-5.7-6.6c-2-2.2-4-4.3-5.9-6.2l-0.1-0.1c-0.7-0.7-1.3-1.3-2-2c-2.8-2.8-5.7-5.3-8.6-7.6c-2.3-1.8-4.6-3.6-6.8-5.2
		c-0.8-0.5-1.6-1.1-2.4-1.6c-1-0.7-2.1-1.3-3.4-2.1c-3-1.8-6.1-3.4-9.1-4.8c-1.8-0.8-3.6-1.5-5.4-2.2c-8.5-3.1-17.4-4.6-26.5-4.6
		c-1.1,0-2.2,0-3.3,0.1c-2,0.1-4.1,0.4-6.6,1c-0.4,0.1-0.9,0.2-1.3,0.3c-3.6,1-7.4,2.5-11.1,3.9c-3,1.2-5.8,2.2-8.5,3.1
		c-1.1,0.3-2.1,0.6-3,0.8c-1.5,0.3-2.7,0.5-3.8,0.5c-0.3,0-0.6,0-0.9-0.1c-0.4-0.1-0.8-0.1-1.2-0.2c-0.8-0.2-1.5-0.3-2.3-0.6
		c-0.7-0.2-1.4-0.4-2-0.7c-0.6-0.3-1.3-0.5-1.9-0.9c-1.2-0.6-2.3-1.3-3.4-2.1c-0.5-0.4-1.1-0.9-1.7-1.3c-0.3-0.2-0.5-0.5-0.8-0.7
		c-2.1-1.9-4.2-4.2-6.4-6.6c-1.2-1.3-2.4-2.6-3.7-3.9c-0.4-0.4-0.7-0.8-1.1-1.1c-1.7-1.7-3.3-3.3-4.9-4.7c-0.9-0.8-1.9-1.6-2.8-2.4
		c-1.6-1.3-3.3-2.6-4.9-3.9c-18.4-14.1-41.1-25.9-65.6-34.1c-6.5-2.2-13-4.1-19.4-5.7c-9.6-2.4-19.7-3.9-30.1-4.3
		c-1,0-2-0.1-3.1-0.1c-1.6,0-3.2-0.1-4.9-0.1l-1.3,0c-3.1,0-6.2,0.1-9.3,0.3c-3.1,0.2-6.2,0.4-9.3,0.8c-3.1,0.3-6.2,0.8-9.3,1.3
		c-5.1,0.8-10.3,1.9-15.4,3.1c-1,0.2-2,0.5-3.1,0.8c-1.2,0.3-2.5,0.7-3.7,1c-5.8,1.6-11.7,3.5-17.3,5.7c-1,0.4-2,0.7-2.9,1.1
		c-28.1,11-52.8,27.7-71.5,48c-22.7,24.8-38.8,54.2-47.7,87.6c-0.4,1.5-0.8,2.9-1.1,4.4c-1.8,7.3-3.2,14.8-4.3,22.3
		c-0.9,6-1.5,12.1-1.9,18.2c-1,14.7,0,28.5,3,42.3c0.4,1.7,0.8,3.4,1.2,5.1c0.4,1.7,0.9,3.3,1.4,5c0.5,1.6,1,3.3,1.5,4.9
		c0.5,1.6,1.1,3.2,1.6,4.8c1.4,3.8,2.9,7.7,4.6,11.7c1,2.2,2,4.5,3.1,6.8c2.2,4.7,4.8,9.8,7.9,15.5c0.8,1.5,1.6,2.9,2.4,4.4
		c0.8,1.4,1.6,2.9,2.4,4.3c0.8,1.4,1.6,2.9,2.4,4.3l2.6,4.6c2.8,4.9,5.6,9.9,8.4,15c0.4,0.7,0.8,1.5,1.2,2.2
		c4.2,7.7,7.5,14.2,10.5,20.7c0.4,0.8,0.7,1.6,1.1,2.4c1,2.1,1.7,4.3,2.3,6.5c0.4,1.7,0.8,3.4,1,5.2c0.1,0.4,0.1,0.9,0.1,1.3
		c0.1,0.8,0.1,1.7,0.2,2.6c0,0.9,0,1.7,0,2.6c0,0.9,0,1.8-0.1,2.6c0,0.4-0.1,0.9-0.1,1.3c-0.6,7.8-2.9,16-5,23.9l-0.8,3
		c-1.4,5.2-3,11.2-4,17.4c-0.3,1.7-0.5,3.4-0.8,5c-0.1,1.1-0.3,2.3-0.4,3.4c-0.1,1.2-0.2,2.3-0.2,3.5c-0.1,1.2-0.1,2.4-0.1,3.6
		c0,3.7,0.3,7.4,0.8,11c0.2,1.3,0.4,2.5,0.7,3.8c0.9,4.3,2,8.2,3.4,12.2c0.3,0.9,0.6,1.7,0.9,2.5c0.4,1.1,0.9,2.2,1.4,3.4
		c0.6,1.4,1.2,2.6,1.7,3.8l1.1,2.3c0.3,0.7,0.6,1.3,0.9,1.9c0.1,0.2,0.2,0.5,0.3,0.7c-0.1,0.1-0.3,0.1-0.5,0.2
		c-1,0.4-2.4,0.8-4.1,1.2c-0.7,0.2-1.5,0.4-2.3,0.5c-0.4,0.1-0.8,0.2-1.3,0.3c-1.3,0.3-2.8,0.6-4.4,0.9l-1.7,0.3
		c-1.1,0.2-2.4,0.5-3.6,0.7c-2.2,0.4-4.5,0.9-7.1,1.4l-6.6,1.3c-7,1.3-14.2,2.7-21.4,4.1c-4,0.8-8.1,1.6-12.1,2.5
		c-8.9,1.9-16.8,3.7-24.1,5.5c-8.6,2.1-16.4,4.3-24,6.6c-4.1,1.2-8.1,2.5-11.9,3.8c-4.4,1.5-8.8,3.2-13.1,4.9
		c-4.3,1.7-8.5,3.6-12.7,5.5c-4.1,1.9-8.3,4-12.2,6.1c-6,3.2-11.9,6.6-17.5,10.2c-1.9,1.2-3.8,2.4-5.6,3.7
		c-7.4,5-14.5,10.4-21.3,16.1c-8.4,7.1-16.4,14.9-23.8,23.1c-2.9,3.3-5.8,6.7-8.6,10.1c-2.8,3.5-5.5,7-8,10.6
		c-2.6,3.6-5.1,7.4-7.5,11.1c-2.2,3.5-4.3,7-6.3,10.6V556.3l95.1,95.1l112.6-112.6l-84.6-84.6L662.9,35.4h3505
		c-2.3,4.4-4,8.9-5,13.5c-0.2,0.9-0.4,1.7-0.5,2.6c-0.4,2.6-0.7,5.2-0.7,7.9c0,5.2,0.7,10.5,2.3,16.1c1.9,6.9,5.1,14.3,9.6,22.3
		c1,1.9,2,3.6,2.9,5.1l0.5,0.9c0.8,1.4,1.6,2.8,2.2,4l0.6,1.2c0.8,1.4,3,5.4,3.6,7.3c-0.4,0.3-0.8,0.7-1.1,0.9l-2,1.6
		c-1.7,1.4-3.9,3.1-6.3,5.4l-0.1,0.1c-3.6,3.5-7.1,7.5-10.6,12.2c-6.2,8.5-10.3,17.7-12,27.4c-0.2,1.2-0.4,2.4-0.5,3.6
		c-0.3,2.7-0.5,5.4-0.5,8.1l0,0l0,0.2c0.1,6.4,1.1,13,3.1,19.6c0.3,0.9,0.6,1.8,0.9,2.7c3,8.7,7.6,17.3,13.7,25.5
		c3.2,4.4,6.3,7.2,8.6,9.2c0.3,0.3,0.6,0.5,0.9,0.8l0.8,0.7c1.5,1.3,2.7,2.3,3.3,3.2c0.1,0.1,0.2,0.2,0.2,0.4c0.2,0.3,0.3,0.6,0.3,1
		c0.3,2-0.2,5.7-1.8,11.2c-1,3.6-2.5,6.9-4.6,10.5c-0.3,0.5-0.5,0.9-0.8,1.3c-1.2,1.9-2.5,3.8-3.8,5.6c-5.3,7.5-10.7,15.3-11,28.1
		c-0.1,3.2,0.2,6.7,0.8,10.3c0.8,4.9,2.4,10,4.7,15.3c0.3,0.7,0.6,1.4,0.9,2.1c0.8,1.7,1.7,3.4,2.6,5.1c0.5,0.8,0.9,1.6,1.4,2.4
		c3.5,5.7,7.6,10.8,11.9,14.5c5,4.4,12.4,6.8,19.6,9.2c1.7,0.6,3.5,1.1,5.2,1.7c0.5,0.2,0.9,0.3,1.4,0.5c1.5,0.5,2.7,1,3.9,1.5
		c0.4,0.2,0.8,0.4,1.2,0.5c0.6,0.3,1.1,0.6,1.7,0.9c0.4,0.2,0.9,0.5,1.2,0.7c1.1,0.7,2,1.4,2.6,2.2c0.3,0.3,0.5,0.7,0.7,1
		c0.1,0.2,0.2,0.3,0.2,0.5c1,2.3,0.6,5.6-1.4,10.2c-0.3,0.7-0.6,1.5-1,2.2c-0.7,1.5-1.6,3.1-2.3,4.6l-0.8,1.6c-0.4,0.7-0.7,1.3-1,2
		c-0.7,1.4-1.3,2.6-1.8,3.7c-0.6,1.4-1.2,2.7-1.6,3.9c-0.2,0.6-0.4,1.1-0.5,1.6c-0.3,0.9-0.5,1.7-0.6,2.5c-0.1,0.5-0.2,1-0.2,1.4
		c-0.2,1.3-0.2,2.8,0,4.5c0.6,5.8,3.1,14.6,5.6,23c1.8,6.3,3.7,12.9,4.4,17c0.1,0.7,0.2,1.3,0.2,1.8c0,0,0,0,0,0.1
		c-0.3,0.4-0.5,0.7-0.8,1c-0.2,0.2-0.3,0.4-0.5,0.5c-2.5,2.8-4.5,3.2-6,3.2c-3.3,0-7.5-2.3-10.8-4.3l-0.6-0.4
		c-1.2-0.7-2.4-1.5-3.6-2.3l-0.3-0.2c-0.9-0.6-1.8-1.1-2.7-1.7c-1.6-1-2.9-1.8-4.2-2.4c-0.3-0.2-0.6-0.3-0.9-0.5
		c-1.2-0.6-2.4-1.1-3.5-1.6c-1.7-0.7-3.4-1.3-5-1.8c-0.4-0.1-0.8-0.3-1.2-0.4c-0.8-0.3-1.6-0.5-2.3-0.7c-1.4-0.4-2.8-0.8-4.1-1.1
		c-2.4-0.6-4.7-1-6.9-1.2c-1.8-0.2-3.5-0.3-5.2-0.3l-0.6,0c-5.1,0.1-10.1,0.9-15.7,2l-5,0.9c-1.2,0.2-2.4,0.5-3.7,0.7
		c-2.7,0.5-5.5,1.1-8.2,1.8c-4.4,1.1-8.8,2.5-13,4.1c-0.8,0.3-1.7,0.6-2.5,1c-41.8,17-73.9,57.5-88.2,111.2
		c-4.2,15.7-7.6,35-9.3,52.8c-0.3,2.7-0.5,5.4-0.7,8c-0.5,6.9-0.7,13.6-0.7,19.7c0,1.3,0,2.6,0.1,3.8c0.1,5.3,0.5,10.2,1.1,14.7
		c0.3,2.4,0.7,4.7,1.1,6.9c0.7,3.4,1.5,6.7,2.5,9.6c4,11.9,10.2,20.9,19.1,27.4c10.6,7.8,24.2,11.3,38.3,14.6
		c20,4.6,42,7.1,63.5,7.1c3.7,0,7.4-0.1,11-0.2c1.9-0.1,3.7-0.2,5.6-0.3c7.6-0.5,15.1-1.2,22.3-2.3c1.8-0.3,3.7-0.6,5.5-0.9
		c6.8-1.2,13.6-2.8,20-4.6c1-0.3,2.1-0.6,3.1-0.9c9.3-2.8,17.9-6.3,25.8-10.4c1.7-0.9,3.4-1.8,5-2.7c2.5-1.4,4.6-2.7,6.5-3.9
		c0.8-0.5,1.6-1.1,2.5-1.7c3.6-2.5,7.3-5.4,11-8.6c1.3-1.1,2.6-2.3,3.9-3.5c1.3-1.2,2.6-2.4,3.8-3.6c1.3-1.3,2.5-2.5,3.8-3.8
		c1.9-1.9,3.7-3.9,5.5-5.9c0.6-0.7,1.2-1.4,1.8-2c6.6-7.7,15.6-19.5,20.8-31.8c4.5-10.6,5.6-20,3.7-30.7c-0.2-1.1-0.4-2.3-0.7-3.5
		c-0.3-1.1-0.6-2.3-0.9-3.4c-0.5-1.9-1-3.8-1.6-5.7c-0.3-0.9-0.5-1.8-0.8-2.7c-1.2-4.3-2.5-9-3.3-14.2c-1.3-8.7-0.5-14.3,0.5-20.8
		c0.4-2.6,0.8-5.4,1.1-8.5c0.6,0.4,1.2,0.7,1.8,1.2c0.7,0.5,1.4,1,2.2,1.5c1,0.7,2,1.6,3.3,2.6c0.7,0.6,1.5,1.2,2.2,1.8l1,0.8
		c1.6,1.3,3.2,2.7,4.9,4c0.8,0.7,1.7,1.3,2.5,1.9c1.4,1,2.7,1.9,4.1,2.8c1.5,0.9,3,1.7,4.5,2.5c2.2,1.1,4.5,1.9,6.8,2.5
		c1.8,0.5,3.6,0.8,5.5,1.1c1.2,0.2,2.4,0.3,3.6,0.4c1.1,0.1,2.2,0.1,3.3,0.1h0.2c7.6,0,14.9-1.6,22-3.2c3.8-0.8,7.5-1.6,11.1-2.2
		c0.3,3.2,0.6,6.3,1.1,9.4c0.2,1.2,0.4,2.5,0.6,3.7c0.2,1.1,0.4,2.2,0.6,3.3c2.6,13.6,7,25.3,12.9,34.9c1.2,1.9,2.5,3.8,3.8,5.6
		c4.3,5.7,9.3,10.4,14.8,14c1,0.6,2,1.2,3,1.8c1.3,0.8,2.8,1.5,4.6,2.3c4,1.8,8.2,3.1,12.5,3.9c3.8,0.7,7.9,0.6,12.3-0.3
		c1.6-0.3,3.2-0.7,4.9-1.3c0.8-0.3,1.7-0.6,2.5-0.9c1-0.4,2.1-0.8,3.1-1.2c3.4-1.4,6.7-3,9.5-4.4l1.4-0.7c2.3-1.1,4.3-2.1,6.3-3
		c0.4-0.2,0.8-0.4,1.3-0.6c0.5-0.2,1.1-0.5,1.6-0.7c0.6-0.2,1.2-0.5,1.8-0.7c2.6-0.9,4.7-1.2,6-1c0.2,0,0.3,0.1,0.5,0.1
		c0.2,0,0.4,0.1,0.5,0.2c0.2,0.1,0.3,0.1,0.5,0.2c0.2,0.1,0.3,0.1,0.4,0.2c0.2,0.1,0.4,0.3,0.6,0.4c0.4,0.4,0.9,1,1.5,2
		c0.1,0.2,0.3,0.5,0.4,0.7l0.3,0.6c1.4,2.6,3.2,5.8,6.7,8.7c6.4,5.3,11.6,11.1,16.7,16.7c0.9,1,1.9,2.1,2.8,3.1V729.2z
		 M1672.1,1585.6l-1.8,3.7l-0.8,1.7c-0.1-0.9-0.1-2.2,0.8-3.6C1670.7,1586.7,1671.4,1586,1672.1,1585.6z M1495.6,2342.5v-0.2
		l4.5-1.7c0,0,0.1,0.1,0.1,0.1L1495.6,2342.5z M4508.5,560c-0.7,0.5-1.3,1-1.9,1.5c-0.9,0.7-1.8,1.5-2.7,2.2c0-0.1-0.1-0.3-0.1-0.4
		c-0.5-1.6-1.1-3.2-1.6-4.7c-0.6-1.5-1.2-3.1-1.8-4.5c-1.5-3.7-3.2-7.3-4.9-10.6c-0.7-1.3-1.4-2.6-2.2-3.9
		c-11.2-18.7-26.4-29.4-45.3-31.8c-0.7-0.1-1.4-0.2-2.1-0.2c-2-0.2-4-0.3-6.1-0.3c-1.5,0-3,0-4.5,0.1l-0.3,0
		c-3.6,0.2-7.4,0.8-11.2,1.6c-1.5,0.3-3.1,0.7-4.7,1.1c-3.2,0.8-6.4,1.8-9.7,3c-0.5,0.2-1,0.4-1.5,0.6c0-0.2,0-0.5,0-0.7
		c-0.1-3-0.4-6.3-0.8-9.9c-0.4-3.6-0.9-7-1.2-9.7l-0.5-3.9c-0.4-2.6-0.7-5.2-1.1-7.7c-0.3-2.5-0.6-4.6-0.8-6.6
		c-0.1-1.5-0.3-2.9-0.3-4.2c0-0.7-0.1-1.4-0.1-2c-0.1-1.3-0.1-2.6-0.1-3.8l0-0.2c0-1.2,0.1-2.5,0.1-3.6c0.1-1.3,0.2-2.5,0.4-3.6
		c0.1-0.6,0.2-1.1,0.3-1.7c0.2-1.1,0.5-2.2,0.8-3.2c0.9-2.9,3-4.7,5.6-7c3.8-3.3,9-7.9,9.3-16.5c0.1-2.1-0.2-4.4-0.8-6.8
		c-0.5-2.3-1.4-4.6-2.7-6.7c-2.2-3.6-5.4-6.8-9.6-9.6c-0.7-0.4-1.3-0.8-2-1.2c-0.8-0.5-1.6-0.9-2.3-1.3c-0.9-0.5-2-1-3-1.4
		c-7.7-3.4-15.9-5.1-21.4-5.9c-6-0.9-11.5-1.4-16.3-1.4l-0.5,0c-1.4,0-2.8,0-4.2,0.1c-1.9,0.1-3.7,0.3-5.4,0.5
		c-0.4,0.1-0.8,0.1-1.1,0.2c-1,0.2-2.1,0.4-3.1,0.6c-0.3,0.1-0.6,0.2-0.9,0.2c-0.6,0.2-1.1,0.3-1.6,0.5c-0.5,0.1-1,0.3-1.4,0.4
		c-0.3,0.1-0.6,0.2-0.9,0.3c0,0,0,0,0,0c-0.1-0.2-0.2-0.4-0.3-0.6c-0.8-1.4-1.8-3.4-3-5.9c-1.8-3.6-4.3-8.6-7.7-15.1
		c-1.8-3.3-3.7-6.5-5.7-9.4c-1-1.4-2.1-2.8-3.2-4.2c-11.9-14.6-28.1-22.5-49.2-24.1c6.5-13.7,16-37.9,15.4-60.3c0-1.5-0.1-3-0.3-4.4
		c-0.9-9.6-3.8-17.7-8.7-24.2c-0.9-1.2-1.9-2.3-2.9-3.4c-1.6-1.6-3.3-3.2-5.2-4.5c-1.9-1.4-4-2.7-6.2-3.8c-3-1.5-6.2-2.7-9.7-3.7
		c-1.5-0.4-3.1-0.8-4.8-1.1c0.4-1.1,0.8-2.3,1.4-3.4c0.6-1.2,1.2-2.4,1.9-3.7c1-1.7,2.2-3.5,3.6-5.4c0.3-0.4,0.6-0.9,1-1.3
		c0.4-0.5,0.7-0.9,1.1-1.4c1-1.2,1.9-2.4,2.9-3.6l1.5-1.8c3.6-4.4,6.8-8.4,9.5-13c0.2-0.4,0.4-0.7,0.7-1.1c5.6-10,7.1-20.2,4.7-32
		c-1.5-7.1-5.6-12.7-9.2-17.8c-1-1.3-1.9-2.6-2.7-3.8c-0.7-1.1-1.3-2.1-1.8-3c-0.8-1.5-1.4-2.8-1.8-4c-1.3-4.5-2.4-7.5-3.1-9.7
		c-0.3-0.9-0.6-1.8-0.8-2.5c0.2-0.2,0.3-0.4,0.5-0.6c1.6-2.1,4.4-5.6,8.3-12.6c5.7-10.3,9.3-17.7,11.6-24
		c4.4-11.9,4.3-20.2,4.1-33.9c-0.1-5-0.1-10.8,0-17.8c0-0.5,0-1,0-1.5h224.5V560z"/>
	<path d="M1433.4,1596.4c0.7-99.1,6.6-199.4,2.9-298.4c-1.5-40.1-9.5-73.9-38.7-103.2c-22-22.1-70.6-30.9-86.7-52.3
		c11.4-19.3,11.8,1.6,21.5-24.6c4.5-12.1,1.8-29.9,1.9-42.4c0-16,6.7-83.7-3.4-95.2c-15.6-17.8-93.2-8.9-114.5-7.3
		c-27.3,2.1-110.8-10.4-124.5,12.3c-9.8,16.1-0.8,58.7-0.5,75.8c0.2,11.1-4.2,54.7,1.2,64.3c4.4,7.8,17.9,8.6,23,16
		c-30.3,33.3-78.5,38.1-105.3,80.5c-0.8,1.2-1.5,2.5-2.2,3.7c-0.2,0.4-0.5,0.8-0.7,1.3c-0.5,0.8-0.9,1.7-1.4,2.5
		c-0.3,0.5-0.5,1-0.8,1.5c-0.4,0.8-0.8,1.5-1.1,2.3c-0.3,0.5-0.5,1.1-0.7,1.7c-0.3,0.7-0.7,1.5-1,2.2c-0.2,0.6-0.5,1.1-0.7,1.7
		c-0.3,0.7-0.6,1.5-0.9,2.2c-0.2,0.6-0.4,1.2-0.6,1.8c-0.3,0.7-0.5,1.5-0.8,2.2c-0.2,0.6-0.4,1.2-0.6,1.8c-0.2,0.7-0.5,1.5-0.7,2.2
		c-0.2,0.6-0.4,1.2-0.5,1.8c-0.2,0.7-0.4,1.5-0.6,2.2c-0.2,0.6-0.3,1.2-0.5,1.8c-0.2,0.8-0.4,1.5-0.5,2.3c-0.1,0.6-0.3,1.2-0.4,1.9
		c-0.2,0.8-0.3,1.5-0.5,2.3c-0.1,0.6-0.2,1.2-0.4,1.8c-0.1,0.8-0.3,1.6-0.4,2.4c-0.1,0.6-0.2,1.2-0.3,1.8c-0.1,0.8-0.2,1.6-0.4,2.4
		c-0.1,0.6-0.2,1.2-0.3,1.8c-0.1,0.9-0.2,1.7-0.3,2.6c-0.1,0.6-0.1,1.1-0.2,1.7c-0.1,1-0.2,1.9-0.3,2.9c0,0.5-0.1,0.9-0.1,1.4
		c-0.1,1.4-0.2,2.8-0.3,4.2c0,0,0,0.1,0,0.1c-0.1,1.4-0.2,2.9-0.3,4.3c0,0.5,0,0.9-0.1,1.4c0,1-0.1,1.9-0.1,2.9c0,0.6,0,1.1-0.1,1.7
		c0,0.9-0.1,1.7-0.1,2.6c0,0.6,0,1.2,0,1.8c0,0.8,0,1.7,0,2.5c0,0.6,0,1.3,0,1.9c0,0.8,0,1.6,0,2.4c0,0.6,0,1.3,0,1.9
		c0,0.8,0,1.6,0,2.4c0,0.6,0,1.3,0,1.9c0,0.8,0,1.6,0,2.4c0,0.6,0,1.3,0,1.9c0,0.8,0,1.6,0.1,2.5c0,0.6,0,1.3,0,1.9
		c0,0.8,0,1.7,0.1,2.5c0,0.6,0,1.2,0.1,1.9c0,0.9,0.1,1.8,0.1,2.7c0,0.6,0,1.2,0.1,1.7c0,1.2,0.1,2.4,0.1,3.5c0,0.7,0,1.4,0.1,2.1
		c0,0.9,0.1,1.8,0.1,2.7c0,0.7,0,1.5,0.1,2.2c0,0.7,0,1.4,0.1,2.1c0,0.8,0,1.7,0.1,2.5c0,0.6,0,1.2,0,1.7c0,1.1,0,2.3,0.1,3.4
		c0,0.3,0,0.6,0,0.9c0,0,0,0,0,0s0,0,0,0c0-0.3,0-0.5,0-0.6c0,0,0,0,0,0c0-0.3,0-0.3,0,0c0,0,0,0,0,0c0,0.1,0,0.2,0,0.3c0,0,0,0,0,0
		c0,0.1,0,0.2,0,0.4c0,0,0,0,0,0c0,0.5,0,1.1,0,2c0,0,0,0,0,0c0,0.3,0,0.6,0,0.9c0,0,0,0.1,0,0.1c0,0.3,0,0.7,0,1.1c0,0,0,0.1,0,0.1
		c0,0.8,0,1.6,0,2.6c0,0.1,0,0.2,0,0.4c0,0.4,0,0.9,0,1.4c-1.1,105.9-2,211.8-2,317.8c0,86.3-25.9,213,64.7,259.6
		c76,39.1,205.1,31.4,287.2,11.6C1479.1,1915.8,1432.6,1699.4,1433.4,1596.4z"/>
	<path d="M3037,1518.9C3029,1510.9,3068.7,1551.6,3037,1518.9L3037,1518.9z"/>
	<path d="M2770.1,1222.7c6.9,0,41.3,2.4,43.6-0.1c3.9-4.2-0.1-15.2,1.7-19.6c12.9-32.2,4.1-89.7,3.2-123.7
		c-2.8-96.1,0-192.6,0.4-288.8c0-1.8-0.1-4.4-0.3-7.8c-0.1-2.2-0.3-4.8-0.4-7.6c-0.1-1.4-0.2-2.9-0.3-4.4c-0.1-1.5-0.2-3.1-0.3-4.8
		c-0.1-0.8-0.1-1.7-0.2-2.5c-0.3-4.2-0.6-8.8-0.9-13.6c-0.2-2.9-0.4-5.8-0.5-8.8c-0.2-3-0.4-6.1-0.5-9.1c-0.6-10.3-1.1-21-1.4-31.2
		c-0.1-2.1-0.1-4.1-0.1-6.1c-0.1-6-0.2-11.9-0.1-17.3c0-1.8,0.1-3.6,0.1-5.3c0.2-5.2,0.4-9.9,0.9-14c0.1-1.4,0.3-2.7,0.5-3.9
		c0.3-1.8,0.6-3.5,0.9-5c0.2-1,0.5-1.9,0.8-2.7c0.7-2.1,1.5-3.6,2.5-4.4c1.7-1.4,3.8-2.4,6.4-3c1.3-0.3,2.6-0.5,4.1-0.7
		c2.2-0.2,4.5-0.3,6.9-0.2c1.6,0.1,3.3,0.2,5.1,0.3c1.7,0.1,3.5,0.3,5.3,0.6c3.6,0.4,7.3,1,11,1.5c1.8,0.3,3.7,0.5,5.5,0.8
		c10,1.4,19.5,2.5,26.1,0.9c1.2-0.3,2.3-0.7,3.3-1.2c17.6-8.6,12.1-35.3,12.4-59.4c8.2-89.9,5.6-73.7-34.4-112.1
		c-1.5-1.4-3.1-3.1-4.8-4.8c-0.8-0.9-1.7-1.8-2.6-2.7c-0.9-0.9-1.8-1.9-2.7-2.9c-0.9-1-1.8-2-2.8-3c-0.9-1-1.9-2-2.9-3
		c-1-1-1.9-2-2.9-3.1c-2.5-2.5-5-5.1-7.6-7.5c-1-1-2.1-1.9-3.1-2.8c-2.1-1.8-4.1-3.5-6.2-5.1c-1-0.8-2.1-1.5-3.1-2.2
		c-2.6-1.7-5.1-3.1-7.6-4.1c-3.9-1.5-8.3-2.6-12.9-3.4c-1.9-0.3-3.8-0.6-5.7-0.8c-2.9-0.3-5.9-0.5-9-0.6c-2-0.1-4.1-0.1-6.2-0.1
		c-1,0-2.1,0-3.2,0c-5.3,0.1-10.7,0.3-16,0.6c-3.2,0.2-6.4,0.4-9.6,0.6c-2.1,0.2-4.2,0.3-6.3,0.5c-5.2,0.4-10.2,0.7-15,1
		c-2.9,0.1-5.7,0.2-8.3,0.3c-0.9,0-1.8,0-2.6,0c-22.8-0.1-45.7-0.2-68.5-0.2c-22.9,0-45.7-0.1-68.6,0c-22.9,0-45.7,0.1-68.5,0.3
		s-45.7,0.4-68.5,0.6c-19.4,0.2-38.7,0.4-57.9,0.6c-19.2,0.2-38.5,0.3-57.6,0.4c-25.6,0.2-51.2,0.4-76.8,0.7
		c-38.4,0.5-77,1.3-115.9,2.6c-6.4,0.2-12.8,0.4-19.2,0.5c-6.4,0.1-12.8,0.2-19.2,0.3c-12.8,0.1-25.7,0.1-38.6-0.1
		c-16.1-0.2-32.2-0.5-48.4-1c-6.5-0.2-12.9-0.4-19.4-0.6c-12.9-0.4-25.8-0.9-38.8-1.3c-42-1.4-83.9-2.9-125.6-2.9
		c-1.3,0-2.6,0-3.9,0c-5.2-0.1-10.6-0.3-16.2-0.6c-1.4-0.1-2.8-0.1-4.2-0.2c-4.2-0.2-8.4-0.5-12.7-0.8c-1.4-0.1-2.9-0.2-4.3-0.3
		c-8.6-0.6-17.4-1.2-26.1-1.6c-1.5-0.1-2.9-0.1-4.4-0.2c-7.3-0.3-14.5-0.5-21.6-0.4c-14.2,0.1-27.9,1.2-40.4,4.2
		c-28,6.7-85.3,48.9-99.3,74.9c-3.9,7.3-5.1,16.8-5.2,26.7c0,0.7,0,1.3,0,2s0,1.3,0,2c0,0.7,0,1.3,0,2c0,1.3,0.1,2.7,0.1,4
		s0.1,2.7,0.2,4c0.1,2,0.2,4,0.3,5.9c0.2,4.6,0.4,9,0.4,13c-0.2,24.8-8.9,68.8,8.8,77.8c9.5,4.8,22.1,3.2,34.9,1.1
		c6-1,12-2.1,17.8-2.6c1.7-0.2,3.3-0.3,4.9-0.4c3.2-0.1,6.3-0.1,9.3,0.4c3,0.4,5.7,1.2,8.3,2.4c4.3,2,7.2,4.2,9.1,6.7
		c0.5,0.6,0.9,1.3,1.2,1.9c0.4,0.7,0.7,1.3,0.9,2.1c0.2,0.7,0.5,1.4,0.6,2.2c0.1,0.4,0.1,0.8,0.2,1.1c0.2,1.6,0.3,3.2,0.3,5
		c0,1.3-0.1,2.7-0.1,4.2c0,0.5-0.1,1-0.1,1.5c-0.1,2-0.3,4.1-0.4,6.4c-0.2,2.8-0.3,5.9-0.3,9.1c0,125.7,5.5,253.4-2.9,378.5
		c-2.6,38.4-7.9,79.1-7.1,117.5c0.1,6.9,2.2,40.1,6,43.6c7.2,6.7,62.4,2.5,73.4,3c81.4,3.5,162,0.9,243,3c40.3,1.1,73.9-9.4,110.2-5
		c87.4,10.5,181.1,4.6,268.9,3.5c101.6-1.3,203.3-0.9,305-1.1C2719.2,1222.8,2744.7,1222.7,2770.1,1222.7z"/>
	<rect x="226" y="1690.2" width="596.7" height="219"/>
	<rect x="100" y="3005.9" width="491.6" height="69.3"/>
	<rect x="951.9" y="3005.9" width="552.9" height="69.3"/>
	<rect x="4098.2" y="3005.9" width="442" height="69.3"/>
	<rect x="1034" y="752.2" width="596.7" height="199.2"/>
	<rect x="2389.7" y="1244.1" width="619.9" height="239.9"/>
	<polygon points="4143.4,48.2 658,48.2 658,368.2 442,368.2 442,615.8 1513.8,615.8 1513.8,382.7 4143.4,382.7 	"/>
	<rect x="1474" y="1628.2" width="312.7" height="381.5"/>
	<rect x="4047.5" y="2606" width="398.7" height="328.1"/>
	<rect x="3398.6" y="2259.9" width="557.7" height="213.1"/>
	<rect x="2935.3" y="1921.1" width="205.4" height="276.8"/>
</g>
</svg>
