<?xml version="1.0" encoding="utf-8"?>
<!-- Generator: Adobe Illustrator 18.1.1, SVG Export Plug-In . SVG Version: 6.00 Build 0)  -->
<!DOCTYPE svg PUBLIC "-//W3C//DTD SVG 1.1//EN" "http://www.w3.org/Graphics/SVG/1.1/DTD/svg11.dtd">
<svg version="1.1" id="Layer_1" xmlns="http://www.w3.org/2000/svg" xmlns:xlink="http://www.w3.org/1999/xlink" x="0px" y="0px"
	 viewBox="0 0 688.1 940" enable-background="new 0 0 688.1 940" xml:space="preserve">
<g>
	<rect x="0" y="134.1" width="507.7" height="715.5"/>
	<polygon points="96.7,132.6 334.6,132.6 334.6,65 102.7,65 102.7,29.1 29.2,29.1 29.2,116.1 96.7,116.1 	"/>
	<rect x="540.1" y="136.7" width="42" height="16.7"/>
	<rect x="520.8" y="156.3" width="9.7" height="7.7"/>
	<polygon points="540.8,156.3 540.8,165.2 540.8,166.2 540.8,173.5 540.8,175 540.8,183.4 590.7,183.4 590.7,175 648.5,175 
		648.5,165.2 642.7,165.2 642.7,156.3 	"/>
	<rect x="539.1" y="433.5" width="42" height="20"/>
	<rect x="519.8" y="454.8" width="9.7" height="7.7"/>
	<polygon points="657.8,463.7 657.8,454.8 539.8,454.8 539.8,463.7 539.8,464.7 539.8,472 539.8,473.5 539.8,481.9 648.3,481.9 
		648.3,473.5 658.6,473.5 658.6,463.7 	"/>
	<rect x="538.1" y="492.8" width="58.2" height="20"/>
	<rect x="518.8" y="514.2" width="9.7" height="7.7"/>
	<polygon points="632.9,524 642.1,524 642.1,514.2 538.8,514.2 538.8,523 538.8,524 538.8,531.3 538.8,532.9 538.8,541.2 
		658.5,541.2 658.5,531.3 632.9,531.3 	"/>
	<rect x="538.1" y="551.5" width="51.2" height="20"/>
	<rect x="518.8" y="572.8" width="12.8" height="7.7"/>
	<polygon points="648.7,625.5 643.4,625.5 643.4,617.5 647.9,617.5 647.9,608.7 648.9,608.7 648.9,598.8 638.4,598.8 638.4,590 
		635.8,590 635.8,582.7 639.1,582.7 639.1,572.8 538.8,572.8 538.8,581.7 538.8,582.7 538.8,590 538.8,591.5 538.8,598.8 
		538.8,599.9 538.8,607.7 538.8,608.7 538.8,616 538.8,617.5 538.8,625.5 538.8,625.9 538.8,634.3 538.8,635.4 538.8,642.7 
		538.8,644.2 538.8,652.5 647.3,652.5 647.3,644.2 651.6,644.2 651.6,634.3 648.7,634.3 	"/>
	<rect x="520.8" y="189.3" width="9.7" height="7.7"/>
	<polygon points="651.2,208 651.2,198.2 644.3,198.2 644.3,189.3 540.8,189.3 540.8,198.2 540.8,199.2 540.8,206.5 540.8,208 
		540.8,216 540.8,216.4 540.8,224.8 540.8,225.9 540.8,234.7 628.6,234.7 628.6,225.9 654.9,225.9 654.9,216 634,216 634,208 	"/>
	<rect x="520.8" y="240" width="9.7" height="7.7"/>
	<polygon points="540.8,248.8 540.8,249.9 540.8,257.2 540.8,258.7 540.8,267 638.2,267 638.2,258.7 649.7,258.7 649.7,249.9 
		658.4,249.9 658.4,240 540.8,240 	"/>
	<rect x="520.8" y="272.8" width="9.7" height="7.7"/>
	<polygon points="540.8,272.8 540.8,281.7 540.8,282.7 540.8,290 540.8,291.5 540.8,299.9 621.7,299.9 621.7,291.5 656.5,291.5 
		656.5,281.7 650.9,281.7 650.9,272.8 	"/>
	<rect x="520.8" y="305.5" width="9.7" height="7.7"/>
	<polygon points="540.8,314.3 540.8,315.4 540.8,324.2 656.5,324.2 656.5,314.3 650.9,314.3 650.9,305.5 540.8,305.5 	"/>
	<rect x="519.8" y="355" width="9.7" height="7.7"/>
	<polygon points="648.4,364.9 648.4,355 539.8,355 539.8,363.8 539.8,364.9 539.8,373.7 585.3,373.7 585.3,364.9 	"/>
	<rect x="519.8" y="379" width="9.7" height="7.7"/>
	<polygon points="658.5,379 539.8,379 539.8,387.8 539.8,388.9 539.8,397.7 602.6,397.7 602.6,388.9 658.5,388.9 	"/>
	<rect x="519.8" y="403" width="9.7" height="7.7"/>
	<polygon points="618.2,412.9 646.4,412.9 646.4,403 539.8,403 539.8,411.8 539.8,412.9 539.8,421.7 618.2,421.7 	"/>
	<rect x="538.8" y="336" width="47.4" height="16.4"/>
	<rect x="518.1" y="780.8" width="110.1" height="19.7"/>
	<rect x="518.5" y="802.8" width="9.4" height="7.1"/>
	<rect x="537.1" y="802.3" width="71.7" height="7.3"/>
	<rect x="518.5" y="816.1" width="9.4" height="7.1"/>
	<rect x="537.1" y="815.6" width="71.7" height="7.3"/>
	<rect x="518.5" y="829.4" width="9.4" height="7.1"/>
	<rect x="537.1" y="828.9" width="112.2" height="7.3"/>
	<rect x="518.5" y="843.1" width="9.4" height="7.1"/>
	<rect x="537.1" y="842.6" width="104.3" height="7.3"/>
	<rect x="518.5" y="856.1" width="9.4" height="7.1"/>
	<rect x="537.1" y="855.6" width="96.2" height="9.1"/>
	<rect x="518.5" y="869.8" width="12" height="7.1"/>
	<rect x="537.1" y="869.3" width="71.7" height="7.3"/>
	<polygon points="46.5,866.7 46.5,867.6 46.5,875.9 278.8,875.9 278.8,867.6 419,867.6 419,858.4 46.5,858.4 	"/>
	<rect x="19.8" y="899.4" width="57" height="9.3"/>
</g>
</svg>
