<?xml version="1.0" encoding="utf-8"?>
<!-- Generator: Adobe Illustrator 18.1.1, SVG Export Plug-In . SVG Version: 6.00 Build 0)  -->
<!DOCTYPE svg PUBLIC "-//W3C//DTD SVG 1.1//EN" "http://www.w3.org/Graphics/SVG/1.1/DTD/svg11.dtd">
<svg version="1.1" id="Layer_1" xmlns="http://www.w3.org/2000/svg" xmlns:xlink="http://www.w3.org/1999/xlink" x="0px" y="0px"
	 viewBox="0 0 623 850" enable-background="new 0 0 623 850" xml:space="preserve">
<g>
	<rect x="38.5" y="64" width="1" height="714"/>
	<rect x="305.5" y="164" width="1" height="614"/>
	<rect x="566.5" y="65" width="1" height="713"/>
	<rect x="45.5" y="809" width="1" height="41"/>
	<path d="M109,106c-32,0-58,26-58,58c0,25.4,16.3,46.9,39,54.8V415h205V161H166.9C165.4,130.4,140,106,109,106z"/>
	<rect x="178" y="64" width="258" height="40"/>
	<rect x="357" y="412" width="205" height="251"/>
	<rect x="90" y="422" width="11" height="11"/>
	<rect x="90" y="434" width="124" height="42"/>
	<rect x="357.5" y="672.5" width="11" height="11"/>
	<rect x="357.5" y="684.5" width="156" height="97.6"/>
	<rect x="19.7" y="808.2" width="23" height="11.9"/>
	<rect x="51.4" y="808.2" width="39" height="10.3"/>
	<rect x="94.5" y="528.3" width="1" height="36.7"/>
	<rect x="94.5" y="625.8" width="1" height="36.7"/>
	<rect x="94.5" y="682.3" width="1" height="36.7"/>
	<rect x="94.5" y="584" width="1" height="23.5"/>
	<rect x="50" y="524.5" width="32.5" height="20"/>
	<rect x="50" y="581" width="32.5" height="20"/>
	<rect x="50" y="623" width="32.5" height="20"/>
	<rect x="50" y="678" width="32.5" height="20"/>
	<rect x="98.4" y="527.7" width="68" height="12.6"/>
	<rect x="98.4" y="496.2" width="88" height="12.6"/>
	<rect x="358.4" y="163.5" width="49.6" height="12.6"/>
	<rect x="358.4" y="294.9" width="68.1" height="12.6"/>
	<polygon points="98.4,541.7 98.4,554.7 98.4,555.9 98.4,568.9 280.9,568.9 280.9,554.7 273.2,554.7 273.2,541.7 	"/>
	<rect x="98.4" y="625.7" width="68" height="13"/>
	<polygon points="218.8,653.9 262.5,653.9 262.5,639.7 98.4,639.7 98.4,652.7 98.4,653.9 98.4,666.9 218.8,666.9 	"/>
	<rect x="352.5" y="236.8" width="1" height="36.7"/>
	<rect x="309" y="234" width="32.5" height="20"/>
	<rect x="356.4" y="236.7" width="79.3" height="13"/>
	<polygon points="548.7,263.7 524.3,263.7 524.3,250.7 356.4,250.7 356.4,263.7 356.4,264.9 356.4,277.9 548.7,277.9 	"/>
	<rect x="352.5" y="326.2" width="1" height="24.8"/>
	<rect x="309" y="323.3" width="32.5" height="20"/>
	<rect x="356.4" y="326" width="79.3" height="13"/>
	<rect x="356.4" y="340" width="167.8" height="14.1"/>
	<rect x="98.4" y="681.2" width="69.6" height="13"/>
	<polygon points="98.4,708.2 98.4,709.4 98.4,722.4 238.8,722.4 238.8,709.4 264.9,709.4 264.9,695.2 98.4,695.2 	"/>
	<rect x="98.4" y="583.9" width="68" height="12.2"/>
	<rect x="98.4" y="597.4" width="189.3" height="13.9"/>
	<rect x="353.5" y="195" width="1" height="23.5"/>
	<rect x="309" y="192" width="32.5" height="20"/>
	<rect x="357.4" y="194.9" width="121.4" height="12.2"/>
	<rect x="357.4" y="208.4" width="195.1" height="13.9"/>
	<rect x="353.5" y="369.3" width="1" height="23.5"/>
	<rect x="309" y="366.3" width="32.5" height="20"/>
	<rect x="357.4" y="369.2" width="121.4" height="12.2"/>
	<rect x="357.4" y="382.7" width="195.1" height="13.9"/>
</g>
</svg>
