<?xml version="1.0" encoding="utf-8"?>
<!-- Generator: Adobe Illustrator 18.1.1, SVG Export Plug-In . SVG Version: 6.00 Build 0)  -->
<!DOCTYPE svg PUBLIC "-//W3C//DTD SVG 1.1//EN" "http://www.w3.org/Graphics/SVG/1.1/DTD/svg11.dtd">
<svg version="1.1" id="Layer_1" xmlns="http://www.w3.org/2000/svg" xmlns:xlink="http://www.w3.org/1999/xlink" x="0px" y="0px"
	 viewBox="0 0 561.6 786.5" enable-background="new 0 0 561.6 786.5" xml:space="preserve">
<rect x="41.1" y="19.9" width="279" height="35.5"/>
<rect x="42.3" y="62.2" width="479.7" height="8.7"/>
<path d="M42.3,70.9v290.5h45.3v-49h95.5V209.9h48v-43h-46.5v-54.5h46.5v-42C231.1,70.4,41.5,70.1,42.3,70.9z"/>
<polygon points="42.1,366.9 93.1,366.9 93.1,317.9 182.6,317.9 182.6,409.9 135.1,409.9 135.1,464.4 230.6,464.4 230.6,510.4 
	42.1,510.4 "/>
<polygon points="188.8,361.2 230.8,361.2 230.8,311.7 278.6,311.7 278.6,262.9 332.6,262.9 332.6,311.9 374.6,311.9 374.6,208.9 
	422.6,208.9 422.6,166.4 326.6,166.4 326.6,111.2 422.3,111.2 422.3,70.2 236.6,70.2 236.6,118.4 188.8,118.4 188.8,160.7 
	236.6,160.7 236.6,216.2 189.1,216.2 "/>
<polygon points="236.8,458.2 236.8,509.9 326.8,509.9 326.8,464.4 278.8,464.4 278.8,409.9 326.8,409.9 326.8,269.4 285.1,269.4 
	285.1,316.9 236.8,316.9 236.8,366.9 189.1,366.9 189.1,415.9 141.1,415.9 141.1,459.4 "/>
<polygon points="332.6,509.7 422.3,509.7 422.3,366.4 374.8,366.4 374.8,317.4 332.6,317.4 332.6,415.4 284.8,415.4 284.8,458.2 
	332.8,458.2 "/>
<polygon points="428.6,509.9 521.1,509.9 521.1,317.2 470.8,317.2 470.8,268.4 428.6,268.4 428.6,317.4 380.6,317.4 380.6,360.4 
	428.6,360.4 "/>
<polygon points="427.6,70.7 522,70.7 522,310.9 476.3,310.9 476.3,262.4 423.1,262.4 423.1,311.2 380.6,311.2 380.6,215.4 
	428.8,215.4 428.8,161.2 333.1,161.2 333.1,116.9 428.3,116.9 "/>
<rect x="41.6" y="525.9" width="30.5" height="27.5"/>
<rect x="41.6" y="613.9" width="30.5" height="27.5"/>
<rect x="167.6" y="613.9" width="30.5" height="27.5"/>
<rect x="290.1" y="613.9" width="30.5" height="27.5"/>
<rect x="410.1" y="612.9" width="30.5" height="27.5"/>
<rect x="205.6" y="525.9" width="30.5" height="27.5"/>
<rect x="369.6" y="524.9" width="30.5" height="27.5"/>
<rect x="41.6" y="558.4" width="11" height="10"/>
<rect x="41.6" y="567.3" width="152" height="10"/>
<rect x="41.6" y="576.3" width="130" height="10"/>
<rect x="41.6" y="585.1" width="126.2" height="10"/>
<rect x="41.6" y="593.9" width="59.4" height="10"/>
<rect x="41.6" y="646.9" width="13.8" height="10"/>
<rect x="41.6" y="655.8" width="49.4" height="10"/>
<rect x="41.6" y="664.8" width="97.1" height="10"/>
<rect x="41.6" y="673.6" width="93.6" height="10"/>
<rect x="41.6" y="682.4" width="121.1" height="10"/>
<rect x="167.6" y="646.9" width="13.8" height="10"/>
<rect x="167.6" y="655.8" width="51.7" height="10"/>
<rect x="167.6" y="664.8" width="112.1" height="10"/>
<rect x="167.6" y="673.6" width="78.7" height="10"/>
<rect x="167.6" y="682.4" width="66.5" height="10"/>
<rect x="290.6" y="646.9" width="13.8" height="10"/>
<rect x="290.6" y="655.8" width="71.3" height="10"/>
<rect x="290.6" y="664.8" width="108" height="10"/>
<rect x="290.6" y="673.6" width="54.1" height="10"/>
<rect x="290.6" y="682.4" width="75.2" height="10"/>
<rect x="410.1" y="646.9" width="13.8" height="10"/>
<rect x="410.1" y="655.8" width="90.1" height="10"/>
<rect x="410.1" y="664.8" width="108.4" height="10"/>
<rect x="410.1" y="673.6" width="108.6" height="10"/>
<rect x="410.1" y="682.4" width="61.8" height="10"/>
<rect x="205.6" y="558.4" width="11" height="10"/>
<rect x="205.6" y="567.3" width="147.6" height="10"/>
<rect x="205.6" y="576.3" width="131.4" height="10"/>
<rect x="205.6" y="585.1" width="145" height="10"/>
<rect x="205.6" y="593.9" width="70" height="10"/>
<rect x="369.6" y="558.4" width="15.9" height="10"/>
<rect x="369.6" y="567.3" width="48.1" height="10"/>
<rect x="369.6" y="576.3" width="147.6" height="10"/>
<rect x="369.6" y="585.1" width="122.2" height="10"/>
<rect x="369.6" y="593.9" width="75.2" height="10"/>
<rect x="451.6" y="750.8" width="70" height="10.1"/>
<path d="M42.1,744.3c0-12.2,12-11,12-11s445.5-1,455.5-1c9.8,0,11.5-9.5,11.5-9.5v-27.3c0,0-1.8,9.5-11.5,9.5c-10,0-455.5,1-455.5,1
	s-12-1.2-12,11V744.3z"/>
</svg>
