<?xml version="1.0" encoding="utf-8"?>
<!-- Generator: Adobe Illustrator 18.1.1, SVG Export Plug-In . SVG Version: 6.00 Build 0)  -->
<svg version="1.1" id="womansworld_x5F_toc_xA0_Image_1_"
	 xmlns="http://www.w3.org/2000/svg" xmlns:xlink="http://www.w3.org/1999/xlink" x="0px" y="0px" viewBox="0 0 643.2 816.2"
	 enable-background="new 0 0 643.2 816.2" xml:space="preserve">
<g>
	<path d="M156.3,294.2c0.6-0.2,0.9,0,1.6,0.4c0.4,0.3,0.9,0.6,1.6,0.8l1.2,0.4l0.1-1.3c0.2-2.5,2.5-5.1,4.4-7.2
		c0.7-0.8,1.4-1.6,1.9-2.3c1.1-1.6,0.8-2.7,0.6-3.6c-0.1-0.5-0.3-0.9-0.2-1.5l2-4.6l0-0.2c0-0.2,0-0.4,0-0.6c0-0.9-0.2-1.3-0.6-1.6
		l1.3-2.7c3.1-0.7,4.3-0.3,6.7,1.2l0.6,0.4l3.9-3.1h4.9l0.3,0c0.7-0.2,1.3-0.5,1.9-0.8c0.4-0.2,0.8-0.4,1.2-0.6v12.9h-14v10.5h-9.6
		v10.2h-4.3V313h-2.1v10.5h-1.9v13.2h130.5v-10.5H339V313h-28v-12.2h-40.9v-7.5h51.5v-13.2h-46.3v-14.5h-81.3l-0.1-0.2
		c-0.5-1.6-1.3-2.8-2.2-4c-0.7-0.9-1.3-1.8-1.6-2.7l-0.3-2.5l-0.1-0.2c-0.5-0.8-1.2-1.2-1.8-1.5c-0.5-0.3-0.8-0.5-1.1-0.9
		c0.8-1,2-1.6,3.3-2.3c1.5-0.8,3.1-1.5,4.1-3.1l0.4-0.6l-2.4-3c0-0.7,0.6-2.6,1.1-4c0.7-2.2,1.5-4.5,1.6-6.1l0.1-1.1l-5.1,0.3
		c1.1-0.9,1.5-2.2,1.8-3.3c0.2-0.5,0.3-1,0.5-1.5c1.4-0.3,2.5-0.7,3.5-1c1.6-0.6,3-1,5.3-1l1.5,0l-0.4-1.3c-0.5-1.9-1.9-2.9-3.1-3.9
		c-0.8-0.6-1.5-1.2-1.9-1.9v-2.6l-0.1-0.2c-0.3-0.7-1-1-1.7-1.4c-0.2-0.1-0.3-0.2-0.5-0.3c0.9-1.1,2.3-1.8,3.8-2.5
		c1.8-0.9,3.6-1.8,4.8-3.5l0.7-1l-1.1-0.5c-0.4-0.2-0.8-0.4-1.2-0.5c-0.8-0.3-1.4-0.6-2-1.1c0.1-0.6,0.4-1.4,0.7-2.2h4v8.8v2.2v9v2
		v13.2h10.2v8.8h-18.2v15.2h117.3v-15.2h-23.5v-8.8h45.3v-13.2h45.6v-13.2h-45.6v-8.8h24.5v-13.2h-41v-11h0.1v-13.2h-31.3v-10.3
		h89.5v-13.2h-58.2v-9.2h65.2v-13.2H260.2v-10.5h-6.8V95.7h-95.8v14.5h1.9v13.2h1.5c-4.1,1.1-8.6,3.4-12.3,5.5h-0.5
		c-0.3-2.2-0.9-4.2-1.5-6c-0.3-1-0.6-1.9-0.8-2.8l-0.2-22.4l-0.5-1.7l-98.4,0.2l-41,0.2l-1.6,0.5L4,97.5c-0.9,4.9-0.7,10.1-0.4,15.1
		c0.1,2,0.2,3.9,0.2,5.7l-0.5,34.6v16.7c-0.7,4-0.6,9.2-0.5,14.1c0,1.6,0.1,3.2,0.1,4.7v35.3c0,15.5-0.1,31.8-0.2,47.5
		c-0.1,17.5-0.3,35.6-0.2,53.1l0,1h116.6v14.4h-78v23h104v-23v-14.4h0l0-1c0-0.4,0-0.8,0-1.2v-3.4h-0.1c0-0.1,0-0.1,0-0.2
		c-0.3-6.8-0.6-15.2,2.3-18.6l3.9,1.1l0.3-3.1l2,1.8h2.2l-0.1-1.5C155.4,297.1,155.2,294.8,156.3,294.2z M200.5,191.8v4.5l-3.6,0.2
		c-1.5-0.5-5-3.5-6.4-5.3c0.1,0,0.3-0.1,0.4-0.1c0.4-0.1,0.9-0.3,1.6-0.6c1.4-0.8,2.3-1.9,3.1-3c1-1.4,1.9-2.6,3.9-3.1l1-0.3v6.8
		V191.8z M165.9,123.4v10.5H178v10.2h11.5v12.2h7v12h4v10.3h-0.1v4.9l-0.5-0.7c-0.9-1.4-3.1-2.1-5.4-2.9c-1.9-0.7-4.1-1.4-4.8-2.4
		l-0.2-3.6l0.1-0.3l3-3l-3.5-0.4c-0.7-1.5-0.6-3.9,0.3-5.6l0.1-0.2v-1.6l-1.1,0.1c-3.1,0.4-4.8,0-7.4-0.7c-0.3-1.7-0.1-3.8,0.5-4.7
		l0.3-0.5l-0.3-0.5c-1.2-2.2-3.5-3.6-5.6-4.7l0.2-2.7l-0.2-0.3c-0.9-1.6-2.7-1.8-4.2-1.8c-0.2,0-0.5,0-0.7,0
		c0.3-2.2,0.3-5.5-0.5-7.5l-1-1.5l-0.7,0.2c-0.7,0.2-1.1,0.4-1.5,0.6c-0.3,0.2-0.6,0.3-0.9,0.4c-0.1-0.9-0.4-1.5-0.6-2.1
		c-0.2-0.5-0.4-1-0.5-1.8l-0.1-0.5l-0.4-0.2c-0.8-0.4-1.2-0.6-2-0.6c0-0.7,0.1-1.3,0.1-1.9c0.1-2.5,0.1-4.6,1.7-6.5l0.2-0.3v-1.9
		l-0.3-0.1H165.9z"/>
	<rect x="-0.6" y="563" width="150.3" height="223.8"/>
	<rect x="1.1" y="367.2" width="149.6" height="190.4"/>
	<path d="M402,581.7c-1.9-7.5-5.3-14.5-9.6-20.6L395,71.6l-2,0l-2.6,486.8c-11.5-14.5-29.3-23.8-49.2-23.8
		c-34.7,0-62.8,28.1-62.8,62.8c0,34.7,28.1,62.8,62.8,62.8c19.7,0,37.3-9.1,48.8-23.3l-0.8,138.4l2,0l0.8-141
		c6.8-9.4,11.1-20.7,11.9-33h26.7v7.7h178.7v-15.7H430.6v6H404c0-0.7,0-1.3,0-2c0-3.1-0.2-6.1-0.7-9h238.9V71.6H402V581.7z"/>
	<rect x="157.6" y="69.1" width="99.6" height="22.5"/>
	<polygon points="157.6,417.4 360.3,417.4 360.3,404.1 296.1,404.1 296.1,393.6 242.3,393.6 242.3,379.2 159.5,379.2 159.5,393.6 
		159.5,404.1 157.6,404.1 	"/>
	<polygon points="292.9,538.5 292.9,525.2 360.3,525.2 360.3,510.8 275.3,510.8 275.3,494.8 157.6,494.8 157.6,510.8 159.5,510.8 
		159.5,525.2 170.3,525.2 170.3,531.9 157.6,531.9 157.6,540.4 157.6,549 157.6,554 156.1,554 156.1,564 156.1,568 156.1,576.4 
		156.1,578 156.1,586.4 156.1,590.4 156.1,597.5 156.1,600.4 156.1,611.5 263.9,611.5 263.9,600.4 263.9,597.5 263.9,590.4 
		276.8,590.4 276.8,576.4 263.9,576.4 263.9,568 276.8,568 276.8,554 251.8,554 251.8,540.4 248.6,540.4 248.6,538.5 	"/>
	<polygon points="381.3,479.9 384.6,479.9 384.6,466.6 248.6,466.6 248.6,458.4 360.3,458.4 360.3,447.9 368.2,447.9 368.2,434.6 
		360.3,434.6 360.3,420.2 159.5,420.2 159.5,434.6 159.5,445.1 157.6,445.1 157.6,455.8 157.6,458.4 157.6,466.6 157.6,469 
		157.6,478.9 157.6,479.9 157.6,492.1 381.3,492.1 	"/>
	<polygon points="157.6,362.6 157.6,375.9 362.6,375.9 362.6,362.6 357.4,362.6 357.4,352.1 275.3,352.1 275.3,339.7 157.6,339.7 
		157.6,354.1 164.5,354.1 164.5,362.6 	"/>
	<polygon points="149.7,88.9 149.7,80.4 149.7,77.6 149.7,69.1 50.1,69.1 50.1,80.4 75.9,80.4 75.9,88.9 	"/>
	<path d="M185.5,11.8c-37.8,0-75.7,0-113.5,0c-6.7,0-27.9-1.4-32.2,0.7c-2,1-3.1,3.3-3.6,6c0.1,3.4,0.2,6.9,0.2,10.3
		c-0.7,4.7-1.3,24.6,2.2,27.4c4.1,3.3,29.7,1.4,37.7,1.4c34.9,0,69.8,0,104.6,0c153.7-0.2,307.5-0.3,461.3-0.5c0-15.3,0-30.6,0-45.8
		C490,11.5,337.7,11.6,185.5,11.8z"/>
	<polygon points="261,660.3 261,653.7 261,647.1 266.7,647.1 266.7,632.6 275.3,632.6 275.3,616.6 157.6,616.6 157.6,624.6 
		156.7,624.6 156.7,647.1 156.7,653.7 156.7,660.3 156.7,665.3 156.7,666.9 156.7,678.5 292.9,678.5 292.9,665.3 261,665.3 	"/>
	<rect x="31.6" y="789.6" width="111.7" height="7.7"/>
	<polygon points="156.1,792.7 155.9,792.7 155.9,801.8 328.1,801.8 328.1,793.5 611.1,793.5 611.1,785.8 156.1,785.8 	"/>
	<polygon points="157.6,681.9 157.6,697.9 156.7,697.9 156.7,711.2 170.3,711.2 170.3,717.8 157.6,717.8 157.6,728.8 157.6,729.8 
		157.6,744.1 169.7,744.1 169.7,750.8 157.6,750.8 157.6,766.1 169.7,766.1 169.7,777.4 281.7,777.4 281.7,766.1 350.1,766.1 
		350.1,750.8 302.9,750.8 302.9,744.1 374.9,744.1 374.9,728.8 257.1,728.8 257.1,720.8 353.6,720.8 353.6,711.2 357.4,711.2 
		357.4,697.9 302.9,697.9 302.9,681.9 	"/>
	<rect x="611.3" y="599.4" width="28.6" height="2"/>
	<rect x="463.8" y="611.5" width="112.3" height="7.4"/>
	<polygon points="439.8,641.2 439.8,649.2 432.9,649.2 432.9,658.1 611.3,658.1 611.3,649.2 601.9,649.2 601.9,641.2 576.1,641.2 
		576.1,635.8 579.2,635.8 579.2,628.3 579.2,626.9 579.2,620.9 460.7,620.9 460.7,626.9 460.7,628.3 460.7,635.8 463.8,635.8 
		463.8,641.2 	"/>
	<polygon points="400,668.7 400,669.7 400,677.7 462,677.7 462,668.7 440.6,668.7 440.6,660.8 400,660.8 	"/>
	<polygon points="482.7,660.8 482.7,668.7 482.7,669.7 482.7,677.7 530.2,677.7 530.2,668.7 511.5,668.7 511.5,660.8 	"/>
	<polygon points="542.7,687.4 502.7,687.4 502.7,679.5 482.7,679.5 482.7,687.4 482.7,688.4 482.7,694.3 482.7,696.4 482.7,702.3 
		482.7,703.3 482.7,709.7 482.7,711.2 482.7,718.6 534.3,718.6 534.3,709.7 524.1,709.7 524.1,703.3 534.3,703.3 534.3,696.4 
		542.7,696.4 	"/>
	<polygon points="535.6,737 535.6,729.1 539.9,729.1 539.9,720.1 482.7,720.1 482.7,728.1 482.7,729.1 482.7,737 482.7,744.9 
		482.7,745.9 482.7,751.8 482.7,753.8 482.7,759.7 482.7,760.7 482.7,767.2 482.7,768.6 482.7,776.1 534.3,776.1 534.3,767.2 
		530.2,767.2 530.2,760.7 530.2,759.7 530.2,751.8 525.8,751.8 525.8,744.9 512.7,744.9 512.7,737 	"/>
	<polygon points="563.3,750.3 563.3,751.3 563.3,759.2 611.3,759.2 611.3,751.3 639.9,751.3 639.9,742.4 563.3,742.4 	"/>
	<polygon points="563.3,767.5 563.3,768.5 563.3,776.4 609.3,776.4 609.3,768.5 623.3,768.5 623.3,759.5 563.3,759.5 	"/>
	<polygon points="609.3,696.4 609.3,687.4 611.3,687.4 611.3,678.5 606.5,678.5 606.5,670.6 563.3,670.6 563.3,678.5 563.3,679.5 
		563.3,687.4 563.3,695.4 563.3,696.4 563.3,703.3 563.3,704.3 563.3,711.2 563.3,712.2 563.3,720.1 563.3,728.1 563.3,729.1 
		563.3,732 563.3,737 563.3,740.9 600.6,740.9 600.6,737 600.6,732 600.6,729.1 609.3,729.1 609.3,720.1 601.9,720.1 601.9,712.2 
		606.5,712.2 606.5,703.3 603.6,703.3 603.6,696.4 	"/>
	<rect x="563.3" y="660.8" width="45.9" height="8.9"/>
	<polygon points="400,686.4 400,687.4 400,694.3 400,695.4 400,702.3 400,703.3 400,709.7 400,711.2 400,718.6 453.5,718.6 
		453.5,709.7 449,709.7 449,703.3 467.4,703.3 467.4,694.3 449,694.3 449,687.4 463.8,687.4 463.8,678.5 400,678.5 	"/>
	<polygon points="400,726.6 400,728.6 400,735.5 400,743.4 400,744.4 400,752.3 462,752.3 462,743.4 430.6,743.4 430.6,735.5 
		449,735.5 449,726.6 430.6,726.6 430.6,719.6 400,719.6 	"/>
	<polygon points="400.9,753.6 400.9,761.5 400.9,762.5 400.9,768 400.9,770.4 400.9,776.9 456.2,776.9 456.2,768 439.8,768 
		439.8,761.5 431.5,761.5 431.5,753.6 	"/>
</g>
</svg>
