<?xml version="1.0" encoding="utf-8"?>
<!-- Generator: Adobe Illustrator 18.1.1, SVG Export Plug-In . SVG Version: 6.00 Build 0)  -->
<!DOCTYPE svg PUBLIC "-//W3C//DTD SVG 1.1//EN" "http://www.w3.org/Graphics/SVG/1.1/DTD/svg11.dtd">
<svg version="1.1" id="Layer_1" xmlns="http://www.w3.org/2000/svg" xmlns:xlink="http://www.w3.org/1999/xlink" x="0px" y="0px"
	 viewBox="0 0 571.4 759.8" enable-background="new 0 0 571.4 759.8" xml:space="preserve">
<g>
	<polygon points="407.8,-1.8 407.8,49.2 527.7,49.2 527.7,81 410.5,81 410.5,88.2 334.8,88.2 334.8,374.2 410.5,374.2 410.5,396.2 
		334.8,396.2 334.8,527.2 410.5,527.2 410.5,547.2 345.8,547.2 345.8,676.2 410.5,676.2 410.5,696.7 345.8,696.7 345.8,730.2 
		410.5,730.2 410.5,759.2 572.1,759.2 572.1,160.2 572.1,81 572.1,49.2 572.1,0 572.1,-1.8 	"/>
	<polygon points="238.8,25.2 161.8,25.2 161.8,4.2 29.8,4.2 29.8,25.2 29.8,27.2 29.8,41.2 238.8,41.2 	"/>
	<rect x="149.8" y="51.2" width="370" height="25"/>
	<rect x="30.8" y="57.2" width="90" height="17"/>
	<rect x="135.8" y="51.2" width="2" height="36"/>
	<rect x="30.8" y="89.2" width="135" height="16"/>
	<rect x="30.8" y="107.2" width="104.9" height="16"/>
	<polygon points="30.8,141.2 30.8,144.2 30.8,164.5 320.7,164.5 320.7,141.2 107.4,141.2 107.4,128.2 30.8,128.2 	"/>
	<polygon points="323.3,182.2 110.4,182.2 110.4,169.2 30.8,169.2 30.8,182.2 30.8,185.2 30.8,202.2 30.8,205.5 30.8,218.2 
		110.4,218.2 110.4,205.5 323.3,205.5 	"/>
	<polygon points="318.4,300.2 123.7,300.2 123.7,287.2 30.8,287.2 30.8,300.2 30.8,303.2 30.8,323.5 318.4,323.5 	"/>
	<polygon points="30.8,329.2 30.8,342.2 30.8,345.2 30.8,365.5 297,365.5 297,342.2 136.4,342.2 136.4,329.2 	"/>
	<polygon points="136.4,400.2 30.8,400.2 30.8,413.2 30.8,416.2 30.8,436.5 309.6,436.5 309.6,413.2 136.4,413.2 	"/>
	<polygon points="164.3,369.2 30.8,369.2 30.8,382.2 30.8,385.2 30.8,394.1 326,394.1 326,382.2 164.3,382.2 	"/>
	<polygon points="30.8,442.2 30.8,455.2 30.8,458.2 30.8,467.1 277.6,467.1 277.6,455.2 164.3,455.2 164.3,442.2 	"/>
	<polygon points="30.8,472.2 30.8,485.2 30.8,488.2 30.8,497.1 231.6,497.1 231.6,485.2 164.3,485.2 164.3,472.2 	"/>
	<polygon points="30.8,515.2 30.8,518.2 30.8,527.1 220.1,527.1 220.1,518.2 226.3,518.2 226.3,502.2 30.8,502.2 	"/>
	<polygon points="271,546.2 135.8,546.2 135.8,533.2 30.8,533.2 30.8,546.2 30.8,549.2 30.8,558.1 271,558.1 	"/>
	<polygon points="30.8,564.2 30.8,577.2 30.8,580.2 30.8,589.1 195.1,589.1 195.1,577.2 135.8,577.2 135.8,564.2 	"/>
	<polygon points="30.8,608.2 30.8,611.2 30.8,620.1 194.5,620.1 194.5,608.2 91.6,608.2 91.6,595.2 30.8,595.2 	"/>
	<polygon points="30.8,637.2 30.8,640.2 30.8,649.1 163.7,649.1 163.7,637.2 119.7,637.2 119.7,624.2 30.8,624.2 	"/>
	<rect x="30.8" y="685.2" width="159.5" height="16"/>
	<polygon points="257.8,668.2 182.6,668.2 182.6,655.2 30.8,655.2 30.8,668.2 30.8,671.2 30.8,680.1 257.8,680.1 	"/>
	<polygon points="160.3,705.2 30.8,705.2 30.8,718.2 30.8,721.2 30.8,730.1 278.9,730.1 278.9,718.2 160.3,718.2 	"/>
	<polygon points="323.3,234.2 115.2,234.2 115.2,221.2 30.8,221.2 30.8,234.2 30.8,237.2 30.8,281.8 323.3,281.8 	"/>
</g>
</svg>
