<svg xmlns="http://www.w3.org/2000/svg" xmlns:xlink="http://www.w3.org/1999/xlink" preserveAspectRatio="xMidYMid" width="1229" height="1600" viewBox="0 0 1229 1600">
  <defs>
    <style>

      .cls-2 {
        fill: #000000;
      }
    </style>
  </defs>
  <path d="M-0.000,0.000 C409.626,0.000 819.374,0.000 1229.000,0.000 C1229.000,533.280 1229.000,1066.720 1229.000,1600.000 C819.374,1600.000 409.626,1600.000 -0.000,1600.000 C-0.000,1066.720 -0.000,533.280 -0.000,0.000 ZM660.000,1399.000 C660.000,1404.333 660.000,1409.667 660.000,1415.000 C675.332,1415.000 690.668,1415.000 706.000,1415.000 C706.000,1409.667 706.000,1404.333 706.000,1399.000 C690.668,1399.000 675.332,1399.000 660.000,1399.000 ZM289.000,1423.000 C289.000,1429.666 289.000,1436.334 289.000,1443.000 C303.665,1443.000 318.335,1443.000 333.000,1443.000 C333.000,1436.334 333.000,1429.666 333.000,1423.000 C318.335,1423.000 303.665,1423.000 289.000,1423.000 ZM936.000,1426.000 C936.000,1432.333 936.000,1438.667 936.000,1445.000 C950.332,1445.000 964.668,1445.000 979.000,1445.000 C979.000,1438.667 979.000,1432.333 979.000,1426.000 C964.668,1426.000 950.332,1426.000 936.000,1426.000 ZM444.000,1481.000 C444.000,1486.999 444.000,1493.001 444.000,1499.000 C455.332,1499.000 466.668,1499.000 478.000,1499.000 C478.000,1493.001 478.000,1486.999 478.000,1481.000 C466.668,1481.000 455.332,1481.000 444.000,1481.000 ZM841.000,1483.000 C841.000,1488.666 841.000,1494.334 841.000,1500.000 C852.332,1500.000 863.668,1500.000 875.000,1500.000 C875.000,1494.334 875.000,1488.666 875.000,1483.000 C863.668,1483.000 852.332,1483.000 841.000,1483.000 ZM246.000,1509.000 C246.000,1514.999 246.000,1521.001 246.000,1527.000 C257.999,1527.000 270.001,1527.000 282.000,1527.000 C282.000,1521.001 282.000,1514.999 282.000,1509.000 C270.001,1509.000 257.999,1509.000 246.000,1509.000 ZM609.000,1510.000 C609.000,1515.999 609.000,1522.001 609.000,1528.000 C619.999,1528.000 631.001,1528.000 642.000,1528.000 C642.000,1522.001 642.000,1515.999 642.000,1510.000 C631.001,1510.000 619.999,1510.000 609.000,1510.000 ZM993.000,1511.000 C993.000,1517.333 993.000,1523.667 993.000,1530.000 C1004.332,1530.000 1015.668,1530.000 1027.000,1530.000 C1027.000,1523.667 1027.000,1517.333 1027.000,1511.000 C1015.668,1511.000 1004.332,1511.000 993.000,1511.000 Z" id="path-1" class="cls-2" fill-rule="evenodd"/>
</svg>
