<?xml version="1.0" encoding="utf-8"?>
<!-- Generator: Adobe Illustrator 18.1.1, SVG Export Plug-In . SVG Version: 6.00 Build 0)  -->
<!DOCTYPE svg PUBLIC "-//W3C//DTD SVG 1.1//EN" "http://www.w3.org/Graphics/SVG/1.1/DTD/svg11.dtd">
<svg version="1.1" id="GOOD_x5F_TOC_xA0_Image_1_" xmlns="http://www.w3.org/2000/svg" xmlns:xlink="http://www.w3.org/1999/xlink"
	 x="0px" y="0px" viewBox="0 0 570.2 773.9" enable-background="new 0 0 570.2 773.9" xml:space="preserve">
<rect x="84.1" y="30.9" stroke="#FFFFFF" stroke-miterlimit="10" width="460" height="518"/>
<g>
	<rect x="84.6" y="492.9" width="1" height="199"/>
</g>
<g>
	<rect x="239.6" y="571.9" width="1" height="120"/>
</g>
<g>
	<rect x="0" y="710.3" width="544.1" height="1"/>
</g>
<line fill="none" stroke="#000000" stroke-miterlimit="10" x1="14.1" y1="295.9" x2="78.1" y2="295.9"/>
<line fill="none" stroke="#000000" stroke-miterlimit="10" x1="14.1" y1="139.9" x2="78.1" y2="139.9"/>
<rect x="10.1" y="29.9" width="65" height="38"/>
<rect x="12.6" y="73.3" width="36.5" height="10.1"/>
<rect x="12.6" y="85.3" width="44.7" height="10.1"/>
<rect x="12.6" y="110" width="29.5" height="8.1"/>
<rect x="12.6" y="122.3" width="54.2" height="8.1"/>
<rect x="12.6" y="158" width="67.5" height="8.1"/>
<rect x="12.6" y="170.3" width="62" height="8.1"/>
<rect x="12.6" y="182" width="63.1" height="8.1"/>
<rect x="12.6" y="194.3" width="58.9" height="8.1"/>
<rect x="12.6" y="206" width="57.9" height="8.1"/>
<rect x="12.6" y="218.3" width="52.6" height="8.1"/>
<rect x="12.6" y="230.3" width="68" height="8.1"/>
<rect x="12.6" y="242" width="59.3" height="8.1"/>
<rect x="12.6" y="254.3" width="61.4" height="8.1"/>
<rect x="12.6" y="266" width="57.9" height="8.1"/>
<rect x="12.6" y="278.3" width="59.1" height="8.1"/>
<rect x="12.6" y="314" width="40.4" height="8.1"/>
<rect x="12.6" y="326.3" width="40.4" height="8.1"/>
<rect x="12.6" y="350" width="42.3" height="8.1"/>
<rect x="12.6" y="362" width="66.1" height="8.1"/>
<rect x="12.6" y="386.3" width="30" height="8.1"/>
<rect x="12.6" y="398.3" width="53.8" height="8.1"/>
<rect x="14" y="422" width="49" height="8.1"/>
<rect x="14" y="434.3" width="48.7" height="8.1"/>
<rect x="14" y="446" width="46" height="8.1"/>
<rect x="14" y="458.3" width="58.9" height="8.1"/>
<rect x="14" y="470" width="43.4" height="8.1"/>
<rect x="14" y="482.3" width="66.4" height="8.1"/>
<rect x="14" y="506" width="59.3" height="8.1"/>
<rect x="14" y="518.3" width="35" height="8.1"/>
<rect x="14" y="530" width="65" height="8.1"/>
<rect x="14" y="542.3" width="43.9" height="8.1"/>
<rect x="14" y="565.6" width="32.2" height="8.1"/>
<rect x="14" y="578" width="21.1" height="8.1"/>
<rect x="14" y="601.6" width="44.9" height="8.1"/>
<rect x="14" y="614" width="46.3" height="8.1"/>
<rect x="14" y="625.6" width="59.8" height="8.1"/>
<rect x="14" y="638" width="63.3" height="8.1"/>
<rect x="14" y="649.6" width="46" height="8.1"/>
<rect x="72.6" y="721.6" width="97.6" height="8.1"/>
<rect x="72.6" y="734" width="100.7" height="8.1"/>
<rect x="72.6" y="745.6" width="105.8" height="8.1"/>
<rect x="200" y="721.6" width="104.9" height="8.1"/>
<rect x="200" y="734" width="103.9" height="8.1"/>
<rect x="200" y="745.6" width="100.2" height="8.1"/>
<rect x="537.1" y="721.6" width="8.4" height="8.1"/>
<rect x="515.9" y="734" width="29.5" height="8.1"/>
<rect x="511.8" y="745.6" width="33.7" height="8.1"/>
<rect x="90.5" y="576.9" width="33" height="8.3"/>
<rect x="90.5" y="601.2" width="84.1" height="8.3"/>
<rect x="90.5" y="649.2" width="40" height="8.3"/>
<rect x="90.5" y="672.9" width="73" height="8.3"/>
<rect x="90.5" y="625.2" width="106.8" height="9.9"/>
<rect x="245.5" y="576.9" width="26.2" height="8.3"/>
<rect x="245.5" y="601.2" width="143.8" height="8.3"/>
<rect x="245.5" y="649.2" width="136.9" height="8.3"/>
<rect x="245.5" y="625.2" width="102.8" height="9.9"/>
<g>
	<g>
		<path d="M45.1,717.6c-1.6,1.3-1.6,3.6-2.6,5.5c-3,5.5-7.3,9.3-7,18c1.8,0.1,3.7,0.2,5.5,0.2c3.4-7.8,2.9-16.3,9.4-20.9
			C50,718.4,46.9,718,45.1,717.6z M3.8,732c-2.6,3.8-3.9,15.2-3.8,22.8c1.3,1.8,3,3.5,5,4.6c3.3-5.9,10-13.1,11-19
			c-2.9-1.4-5.8-2.7-8.6-4.1C6,735.3,5.3,732.8,3.8,732z M23.5,740.1c-0.2,1-0.3,2.1-0.5,3.1c0.7,0.4,0.8,0.4,1.7,0.2
			c0.1-0.2,0.2-0.5,0.2-0.7C24.6,741.6,24.5,740.8,23.5,740.1z M68.2,745.2c-0.9-0.7-1.8-1.4-2.6-2.2c-2.8,0.2-5.6,0.3-8.4,0.5
			c-0.1,4.2-0.2,8.5-0.2,12.7c2.8,1.8,8.9,2.6,12.7,2.2C69.1,754,68.6,749.6,68.2,745.2z M26.2,743.3c0,1,0.6,2.8,1.4,3.6h1.2
			c0.1-0.5,0.2-1,0.2-1.4C28.4,744.2,27.6,743.7,26.2,743.3z M23,746.9c-0.1,0.6-0.2,1.3-0.2,1.9c1.4-0.2,1.4-0.6,2.2-1v-3.1h-0.2
			C24.2,745.4,23.6,746.2,23,746.9z M43.7,745.2c-1.4,0.6-5.6,1.5-6.7,1.7c0,5,1.8,6.9,3.6,10.3c0.5,0.8,2,1,3.1,0.5
			c0.9-0.5,3.6-9,3.8-10.6c-0.2-0.5-0.5-1-0.7-1.4C45.8,745.5,44.7,745.3,43.7,745.2z"/>
	</g>
	<g>
		<path fill="none" stroke="#000000" stroke-miterlimit="10" d="M45.1,717.6c-1.6,1.3-1.6,3.6-2.6,5.5c-3,5.5-7.3,9.3-7,18
			c1.8,0.1,3.7,0.2,5.5,0.2c3.4-7.8,2.9-16.3,9.4-20.9C50,718.4,46.9,718,45.1,717.6z M3.8,732c-2.6,3.8-3.9,15.2-3.8,22.8
			c1.3,1.8,3,3.5,5,4.6c3.3-5.9,10-13.1,11-19c-2.9-1.4-5.8-2.7-8.6-4.1C6,735.3,5.3,732.8,3.8,732z M23.5,740.1
			c-0.2,1-0.3,2.1-0.5,3.1c0.7,0.4,0.8,0.4,1.7,0.2c0.1-0.2,0.2-0.5,0.2-0.7C24.6,741.6,24.5,740.8,23.5,740.1z M68.2,745.2
			c-0.9-0.7-1.8-1.4-2.6-2.2c-2.8,0.2-5.6,0.3-8.4,0.5c-0.1,4.2-0.2,8.5-0.2,12.7c2.8,1.8,8.9,2.6,12.7,2.2
			C69.1,754,68.6,749.6,68.2,745.2z M26.2,743.3c0,1,0.6,2.8,1.4,3.6h1.2c0.1-0.5,0.2-1,0.2-1.4C28.4,744.2,27.6,743.7,26.2,743.3z
			 M23,746.9c-0.1,0.6-0.2,1.3-0.2,1.9c1.4-0.2,1.4-0.6,2.2-1v-3.1h-0.2C24.2,745.4,23.6,746.2,23,746.9z M43.7,745.2
			c-1.4,0.6-5.6,1.5-6.7,1.7c0,5,1.8,6.9,3.6,10.3c0.5,0.8,2,1,3.1,0.5c0.9-0.5,3.6-9,3.8-10.6c-0.2-0.5-0.5-1-0.7-1.4
			C45.8,745.5,44.7,745.3,43.7,745.2z"/>
	</g>
</g>
</svg>
