<?xml version="1.0" encoding="utf-8"?>
<!-- Generator: Adobe Illustrator 18.1.1, SVG Export Plug-In . SVG Version: 6.00 Build 0)  -->
<!DOCTYPE svg PUBLIC "-//W3C//DTD SVG 1.1//EN" "http://www.w3.org/Graphics/SVG/1.1/DTD/svg11.dtd">
<svg version="1.1" id="Layer_1" xmlns="http://www.w3.org/2000/svg" xmlns:xlink="http://www.w3.org/1999/xlink" x="0px" y="0px"
	 viewBox="0 0 558.7 749.1" enable-background="new 0 0 558.7 749.1" xml:space="preserve">
<g>
	<path d="M335.9,617c-1.2-32.7-1.1-65.1-0.8-98.7h42.3v65.9v26.6l-3-2l-0.6,0.8l3.5,2.4v0.7l0.5-0.4l0.5,0.3v-0.7l3.3-2.4l-0.6-0.8
		l-2.7,1.9v-26.5v-66.9h-43.3c0.1-10,0.2-20.1,0.3-30.3c0.3-23.4,0.6-47.6,0.5-71.6l21.4,0l0.2-116.1H380v-121h26.1l-2.1,3.5
		l0.9,0.5l2.4-4h0.6l-0.3-0.5l0.3-0.5h-0.6l-2.4-3.8l-0.8,0.5l2,3.2h-26.6H379v121h-21.5l0.2-115.4l-180.5-0.3l-0.4,232.5l143.9,0.2
		c-6.2,10.2-7.3,22.5-8.4,35.3c-1,11.4-2,23.1-6.4,35.2l0,0.9c-4.6-5.2-4.7-13.2-4.7-21.6c-0.1-6.5-0.1-13.3-2.3-19.3l-2.5-3.7
		l-0.4,0.6c-3.9,5.2-2.8,18.5-1.8,30.2c0.3,3.5,0.6,6.9,0.7,9.6h-1l-3-39.9l-3.9-1.3l-0.1,0.6c-0.6,5.5-0.3,11.9,0.1,18.1
		c0.6,9.8,1.1,19-2.1,24.8l-0.2,0.4c-0.3-4-0.2-8.8-0.1-13.8c0.2-11.5,0.4-23.4-3.8-28.7l-0.4-0.5l-0.4,0.5
		c-4.2,5.7-3.2,22.3-2.5,34.4c0.2,2.8,0.3,5.4,0.4,7.6l-2,0.7l-1-39.3l0-0.2l-1.3-1.3H272l-0.1,0.3c-3.3,10.1-7,55.6-3,69.3l12,21
		c4.9,22.2,1.8,50.4-1.3,77.6c-4.1,36.9-8,71.7,7.3,90.5l0.2,0.2h9.5l0.1-0.2c16.1-24.8,1.8-122.9-2.9-152.4
		c-2-12.1,2.2-18.2,6.6-24.7c2.4-3.5,4.9-7.2,6.3-11.9l1.2-0.6c0.7,4.8,1.6,10.3,2.6,16.1c1.7,9.9,3.5,20.1,4.3,29.2
		c1.8,21.9,0,45.5-1.7,68.4c-2.1,27.3-4.1,53.1-0.3,75.6l0,0.2l0.2,0.1c4,2.8,7.2,4.2,14.3,4.2c0.9,0,1.9,0,3-0.1l0.3,0l0.1-0.2
		c10-15.6,8-44.8,6.2-70.5C336.6,629.8,336.1,623.2,335.9,617z"/>
	<polygon points="159,478.3 36.9,478.3 36.9,487.7 36.9,514.2 33.9,512.3 33.3,513.1 36.9,515.4 36.9,516.1 37.4,515.8 37.9,516.1 
		37.9,515.4 41.2,513.1 40.6,512.3 37.9,514.2 37.9,487.7 37.9,479.3 159,479.3 159,503.8 243.2,503.8 243.2,417.8 159,417.8 	"/>
	<path d="M124.2,79.3c-24.2,0-43.8,19.6-43.8,43.8s19.6,43.8,43.8,43.8c7.8,0,15.1-2,21.5-5.6l22.3,12.1l-10.3-22
		c6.4-7.6,10.3-17.5,10.3-28.2C168,98.9,148.4,79.3,124.2,79.3z"/>
	<rect x="34" y="16.3" width="99" height="16.5"/>
	<rect x="144" y="18.8" width="38.5" height="11.5"/>
	<rect x="138" y="18" width="1" height="12.8"/>
	<polygon points="444.3,104.7 307.7,104.7 307.7,86.1 356.5,86.1 356.5,67.7 190.6,67.7 190.6,83.3 190.6,86.1 190.6,104.7 
		190.6,105.8 190.6,134.3 444.3,134.3 	"/>
	<rect x="189.6" y="139.4" width="137.7" height="8.7"/>
	<polygon points="488,172.3 411,172.3 411,195.3 411,196.3 411,204.8 411,227.9 411,237.4 445.9,237.4 445.9,227.9 523.3,227.9 
		523.3,195.3 488,195.3 	"/>
	<polygon points="505.5,290.2 515.3,290.2 515.3,277.5 411,277.5 411,288.5 411,290.2 411,330.2 505.5,330.2 	"/>
	<polygon points="411,250.6 411,251.8 411,260.8 456.7,260.8 456.7,251.8 503.1,251.8 503.1,241.6 411,241.6 	"/>
	<polygon points="411,343.8 411,345.1 411,354.1 456.7,354.1 456.7,345.1 503.1,345.1 503.1,334.8 411,334.8 	"/>
	<polygon points="410.5,460.8 410.5,462.1 410.5,471.1 456.5,471.1 456.5,462.1 503.1,462.1 503.1,451.8 410.5,451.8 	"/>
	<polygon points="410.5,557.8 410.5,566.8 410.5,568.1 410.5,577.1 482.7,577.1 482.7,566.8 466.9,566.8 466.9,557.8 	"/>
	<polygon points="374,671.8 374,673.1 374,682.1 459.2,682.1 459.2,673.1 479.2,673.1 479.2,662.8 374,662.8 	"/>
	<polygon points="469.1,384.7 474.5,384.7 474.5,372 411,372 411,384.3 411,384.7 411,396.3 411,397 411,427 523.3,427 523.3,396.3 
		469.1,396.3 	"/>
	<polygon points="504,499.8 488.6,499.8 488.6,487.5 411,487.5 411,499.8 411,500.2 411,511.8 411,512.5 411,551.6 523.3,551.6 
		523.3,511.8 504,511.8 	"/>
	<polygon points="115.5,698.3 115.5,699.6 115.5,708.6 166.5,708.6 166.5,699.6 225.1,699.6 225.1,689.3 115.5,689.3 	"/>
	<polygon points="151.8,598.6 208,598.6 208,588.3 33,588.3 33,597.3 33,598.6 33,607.6 151.8,607.6 	"/>
	<rect x="32.5" y="724.8" width="94.6" height="10.3"/>
	<polygon points="196.8,642.2 209.3,642.2 209.3,629.5 116,629.5 116,641.8 116,642.2 116,653.8 116,654.5 116,684.9 228.3,684.9 
		228.3,653.8 196.8,653.8 	"/>
	<polygon points="116.2,573.4 210,573.4 210,542.3 138.1,542.3 138.1,530.3 129.5,530.3 129.5,518 33,518 33,530.3 33,530.7 
		33,542.3 33,543 33,571 33,573.4 33,583.7 116.2,583.7 	"/>
	<polygon points="107.3,439.1 135.8,439.1 135.8,428.8 33,428.8 33,437.8 33,439.1 33,448.1 107.3,448.1 	"/>
	<polygon points="101.3,330.6 127.5,330.6 127.5,311.7 33,311.7 33,329.3 33,330.6 33,339.6 101.3,339.6 	"/>
	<polygon points="87.3,413.1 131.1,413.1 131.1,370.8 114.2,370.8 114.2,358.5 33,358.5 33,370.8 33,371.2 33,411.5 33,413.1 
		33,424.2 87.3,424.2 	"/>
	<polygon points="133.5,265.8 99,265.8 99,254.2 120.8,254.2 120.8,241.6 33,241.6 33,253.8 33,254.2 33,265.8 33,266.5 33,306.8 
		133.5,306.8 	"/>
	<polygon points="373.5,626.8 373.5,627.5 373.5,658.5 478.3,658.5 478.3,627.5 483.9,627.5 483.9,614.8 373.5,614.8 	"/>
	<polygon points="509,428.3 411,428.3 411,437.3 411,438.6 411,447.6 493.7,447.6 493.7,438.6 509,438.6 	"/>
	<rect x="537.5" y="562.8" width="5.5" height="147.5"/>
</g>
</svg>
