<?xml version="1.0" encoding="utf-8"?>
<!-- Generator: Adobe Illustrator 18.1.1, SVG Export Plug-In . SVG Version: 6.00 Build 0)  -->
<!DOCTYPE svg PUBLIC "-//W3C//DTD SVG 1.1//EN" "http://www.w3.org/Graphics/SVG/1.1/DTD/svg11.dtd">
<svg version="1.1" id="Layer_1" xmlns="http://www.w3.org/2000/svg" xmlns:xlink="http://www.w3.org/1999/xlink" x="0px" y="0px"
	 viewBox="0 0 590.9 782.2" enable-background="new 0 0 590.9 782.2" xml:space="preserve">
<g>
	<g>
		<path d="M336.7,114.6c3.1-1.2,4.8-2.8,8.2-3.8c0.3,0.2,0.6,0.3,1,0.5c0.7,3.5,1.4,19.3,0.2,24c-0.6,2.6-2.1,9.8-0.7,13.4
			c1.7,3.5,15.9,4.9,17.8,0.5c1.4-3.5-1.8-11.7-0.7-17.3c0.9-5,2.4-35.4,0.2-39.4c-1.5-2.8-4.3-3.4-8.9-3.4
			c-4.3,2.3-16.8,6.9-18.2,11v6.7c0.1,2.2,0.2,4.5,0.2,6.7C336.1,113.9,336.4,114.3,336.7,114.6z M373.2,122.5
			c1.9,2.1,7.4,1,10.3,0.7c6.2-0.6,13.3,1.7,15.1,5.8c2,4.7-4.9,11.3-10.3,9.6c-3.2-1-4.2-5.6-7.2-6.7c-1.8-0.7-3.8-0.4-5.8-0.2
			c-7.6,9.4-3.3,16.7,7.2,19.9c1.7,0.5,3.8,2,6.7,1.4c9-1.8,20.2-5.2,23.8-12c6-11.7-2.8-26.6-11.3-29.8c-4-1.5-10.5-1-15.8-1
			c0.2-2.1,0.3-4.2,0.5-6.2c8,0.5,17.3,1.8,24.2-1c0.7-3.5,0.4-9.2-0.5-12c-1-0.7-2.2-1.6-3.6-1.9c-1.9-0.4-2.5,0.7-3.6,1
			c-9.2,1.9-18.4-2.2-26.6,0.5c-1,1-1.9,1.9-2.9,2.9C371.3,98.5,369,119.9,373.2,122.5z M533.3,128.7c0.2,4.7-2.4,7.8-5.3,9.1
			c-8,3.1-9-6.8-17.3-7c-4.1,3.6-6.3,5.4-4.1,12c0.8,2.3,0.3,3.7,1.9,5c2.5,1,5,1.9,7.4,2.9c2.2,0.8,4.8,2.4,8.6,1.7
			c9.9-1.9,15.9-4.2,21.4-10.3c3.7-4.2,3.1-10.7,1.7-16.6c-3-13-11-16.1-27.4-15.8c0.2-1.9,0.3-3.8,0.5-5.8c8,0,17.6,1,23.5-0.7
			c0.2-0.1,0.5-0.2,0.7-0.2c0.7-3.6,0.8-11.2-1.4-12.7c-2.1-2.3-12.4-0.9-16.1-0.2c-5.6,1-12.3-1.2-17.3,0.5
			c-5.7,1.9-3,13.4-4.3,20.2c-0.4,1.9-1.6,4.7-1,7.7C507.3,128.7,527,118.1,533.3,128.7z M255.4,117.2l2.6-2.6
			c0.8-2.6,1.6-5.3,2.4-7.9c1-0.9,4.2-1.6,5.3-2.2c1.9,0.2,4,1.4,4.8,2.6c3.6,4.1-1.1,8.7-2.4,11.3c-4,8.1-9.9,13.9-16.3,19.4
			c-2.5,2.1-5.8,3.3-7.2,6.5v4.3c1.3,1,2.1,2.5,4.1,2.9c3.5,0.8,4.6-1.5,7.7-1c8.9,1.6,25,2,34.6,0.2c2.7-3.8,0.7-8.9-0.2-12.7
			c-2.4-1.8-9.5-1.4-13.4,0h-5c1-5,10.6-8.7,12.7-13c9.4-19-0.6-35.8-22.3-35.5c-8.4,4.2-18.2,10.4-18.2,22.6
			C247.5,115.8,248.2,118,255.4,117.2z M219.4,113.1c2.6,4.2,1.4,32.1,1,37.4c0.3,0.4,0.6,0.8,1,1.2c3.4,0.7,15.1,2.3,17-0.7
			c1.1-1.7-0.9-8.1-0.2-11c0.8-3.9-0.3-7.8-1-10.6c-1.1-4.4,0.2-10.6-0.5-14.4c-0.6-3.6,0.9-5.8,1.4-7.7c0.2-0.7-0.6-11.8-1-13
			c-1-3.5-4.3-4.4-9.1-4.3c-4.8,2.6-18.7,8.9-20.4,13.4c-0.1,3.8-0.2,7.7-0.2,11.5C210.5,117.2,214.4,113.6,219.4,113.1z
			 M464.2,115.1c4.1-3.9,5.8-9.2,13.9-9.1c0.9,0.8,1.6,1.2,2.2,2.4c0.6,1.5,0.3,6.8-0.5,8.4c-2.2,4.8-7.7,8-10.6,12.2
			c-1.8,3.3-3.5,6.6-5.3,9.8c-1.8,2.1-7.8,6.7-6.2,10.8c0.1,0.2,0.2,0.5,0.2,0.7c9.9,2,24.4,2,34.1,0.2c2.4-0.1,4.8-0.2,7.2-0.2
			c1.8-1.2,3.5-10,2.2-13.2c-0.1-0.2-0.2-0.5-0.2-0.7c-4.5-0.8-8.9,0.2-13.4,0.2c-0.5-0.5-1-1-1.4-1.4c0.6-2.8,2.8-3.3,4.1-5.3
			c1.4-2.9,2.9-5.8,4.3-8.6c5.5-14.2,1.8-28.3-11.3-31.2h-11c-5.8,3-12.2,3.8-15.1,9.6C453.7,106.8,452.7,115.4,464.2,115.1z
			 M99.4,152.5c11.3-2.1,18.1-8.3,21.4-18.2c0.2-2.2,0.5-4.5,0.7-6.7c1.3-5.2,3.1-13,0.7-19.2c-1.7-4.5-5.3-7.1-8.2-10.3
			c-2-2.3-2.9-5-6-6.2c-2.8-1.1-7.3-0.8-11-0.7c-1.5,0.7-3.8-0.1-5.8,0.5c-8.3,2.3-14.5,16.1-16.3,25.4
			C71.9,131.8,85.3,155.1,99.4,152.5z M96.7,105.9c1.4-0.3,2.9-0.6,4.3-1c1.4,0.1,2.7,0.2,4.1,0.2c4.3,2.2,0.2,28.5-1.9,32.6
			c-2.8,0.4-6.4,0.1-8.9-0.2c-0.1-1.2-0.2-2.4-0.2-3.6c-0.8-1.5-1.6-3-2.4-4.6C90.1,123.5,93.5,108.7,96.7,105.9z M152.6,115.5
			c-2.6,1-5.3,1.9-7.9,2.9c-1-0.5-1.5-0.8-1.9-1.9c-1.7-3.9,2.3-10.3,4.6-11.3c1.3-0.1,2.6-0.2,3.8-0.2c1.8,1.5,3.5,3,5.3,4.6
			c3.7,1.7,14.1,0.4,14.9-2.2c0.5-1.6-0.9-2.5-1.2-3.4c-3.3-8.5-10.1-13.3-22.3-13c-1.8,0.4-3.5,0.8-5.3,1.2
			c-4.9,2.4-9.3,7.5-11.8,12.2c-1.5,2.9-1.4,5.8-2.2,9.6c-5,23.3,5.5,35.8,26.9,37.7c12.6,1.1,24.2-14.8,16.6-27.6
			C169.1,119.1,160.9,113.8,152.6,115.5z M158.2,138.6c-2.4-0.9-7.6-1.7-9.6-1c-1.4-0.8-2.1-2.2-3.1-3.4c0.5-4.5,4.2-4.5,7-6.7
			c1.9,0.2,3.8,0.5,5.8,0.7c1.2,1.7,2.4,3.4,3.6,5C161.5,135.9,160,137.6,158.2,138.6z M483.4,269.6c-3.7,0.9-11.5,1-13.7-2.4
			c-1.3-2.1-1.3-4.2-3.4-5.5c-4-4.8-13.4,4.9-14.6,7.7c0.4,3.5,3.5,6.6,5.5,8.6c2.9,2.9,6,7.1,10.3,8.4c17,5.2,37.6-4,33.6-24
			c-0.9-4.4-5-5.3-6.7-8.9c0.4-3.2,2.6-4.7,3.4-7.4c0.8-2.8,0-8-0.5-10.1c-2.6-11.8-12.1-13.2-26.9-13c-1.6,0.4-3.2,0.8-4.8,1.2
			c-5.7,2.6-13.1,10.8-13,19.4c2.1,2.3,2.2,2.1,6.2,2.9c8.2,1.5,8.9-5.7,13.9-8.4c2.7-1,6.1,1.4,8.4,1.9c0.2,0.3,0.5,0.6,0.7,1
			c-0.7,4.9-18.7,14.3-6.2,20.6c2.6,0.3,5.1,0.6,7.7,1c1.5,0.8,1.4,3.8,0.7,5.8C483.8,268.8,483.6,269.2,483.4,269.6z M548.6,263.4
			c-0.7-3.6-3.7-5.8-5.3-8.9c1-1.4,2.1-2.7,3.1-4.1c5.7-11.7-7.2-24-13.7-26.6c-2.6-1.1-6.6-0.8-10.1-0.7
			c-14.3,8.1-19.8,13.1-8.4,29.5c-1.3,4-6.6,6-8.2,10.3c-2.9,7.9,3.5,19.1,8.4,21.1C531.8,291.2,553.1,285.3,548.6,263.4z
			 M531.6,269.6c-0.7,1.3-2.5,1.8-3.8,2.4c-1.6-0.5-3.2-1-4.8-1.4c-0.2-1.2-0.5-2.4-0.7-3.6c1.6-1.8,2.7-3.4,4.6-5
			c3-0.2,5.1,0.4,5.8,2.6C532.2,266.3,531.9,267.9,531.6,269.6z M533.5,244.7c-0.5,0.9-1.4,1.3-2.2,1.9c-2-0.4-3.5-1-6.5-1
			c-0.5-1.3-1-2.6-1.4-3.8c1.3-1.8,2.9-2.6,4.8-3.8c2.2,0.3,4.5,2.8,5.3,4.6V244.7z M143,288.3c2.7-0.2,5.4-0.3,8.2-0.5
			c6.9-0.2,12.4-1.7,16.1-5c1.3-1.5,2.6-3,3.8-4.6v-14.4c-1.7-2.4-3.4-4.8-5-7.2c1.3-2.4,2.6-4.8,3.8-7.2c3.4-12.3-12-25.1-22.1-25
			c-2.2,0.4-4.5,0.8-6.7,1.2c-7.7,3.8-15.1,12.8-9.4,23.8c1.7,1.8,3.4,3.7,5,5.5C120.6,264.1,126,284.4,143,288.3z M148.8,240.6
			c1.5,0.3,3,0.6,4.6,1c0.6,1,0.8,2.2,0.7,4.1c-1.7,2-3.5,2.1-7.4,1.9c-0.5-1.4-1-2.7-1.4-4.1C146.5,242.2,147.2,241.6,148.8,240.6z
			 M149,264.3c2.3,0,3.7,0.3,5.3,0.7c0.2,0.3,0.3,0.6,0.5,1c-0.3,1.7-0.6,3.4-1,5c-0.7,1.4-2.9,2.2-4.3,2.9
			c-0.7-0.3-4.7-0.8-5.3-1.4C141.4,269.3,147.9,265.1,149,264.3z M417.6,252.6c9.7-16.6,0.6-28.5-19.7-28.1c-2.6,0.5-5.1,1-7.7,1.4
			c-7.2,2.3-13.1,6.4-13,16.3l1.7,1.7c1.8,1.6,8.7,1.8,11.8,1.7c5-4.9,1.1-7.9,12.5-7.7c1.9,1.8,3.8,3.5,5.8,5.3
			c-0.7,4.7-8,3.2-9.8,7.2c-0.1,1.4-0.2,2.9-0.2,4.3c2.8,3.3,5.5,3.9,9.4,6.2c0.3,1.5,1,3.9,0.5,5.3c-2.1,3.9-7.5,2.8-12,4.3
			c-1.6-2.6-2.9-4.7-3.8-8.2c-5.2-3.8-10.6,2.8-14.2,4.6c-7.8,10,14.5,21,26.9,18.5c12.7-2.6,23.2-10.1,17.8-26.4
			C422.4,256.2,419.1,255,417.6,252.6z M284.2,226.2c-2.8-1.4-8.5-0.8-12.5-0.7c-2.3,1.1-5.8,0.5-7.7,1.7
			c-7.1,4.4-11.8,13.8-13.9,23.3c-3.5,16,10.7,39.7,27.8,36c1.9-0.4,3.8-0.8,5.8-1.2c10.1-6.1,20.2-29.7,12.7-44.9
			c-1.5-3-4.2-5-6.2-7.4C288.3,230.6,286.9,227.5,284.2,226.2z M283.2,249.5c-0.5,2.2-1.9,5.9-2.4,8.4c-1.2,5.7,0.1,10.1-2.4,13.9
			c-2.2,0.2-4.3,0.5-6.5,0.7c-6.6-3.9-4.7-25.4-0.5-31c1.5-2,4.9-1.4,7.2-2.6h2.4C281.6,239.9,283.5,248.2,283.2,249.5z M115.4,231
			c-11.7-12.9-38.4-2.2-38.6,14.6c2.5,3,4.4,5.4,10.1,5.3c3.7-3.5,5.8-10.1,13-10.1c1.1,1.3,2.2,2.6,3.4,3.8c-1,6.7-3,11.5-6.5,15.6
			c-1.8,1.7-3.5,3.4-5.3,5c-1.9,3.4-3.8,6.9-5.8,10.3c-2,2.3-5.2,5.3-6,8.6c0.1,0.2,0.2,0.5,0.2,0.7c2.9,2.1,7.1,0.6,11.8,1.4
			c3,0.6,27,1.6,29.3,0.2c2.1-1.2,4.2-10.4,2.6-14.2c-0.1-0.2-0.2-0.5-0.2-0.7c-3.4,0.1-6.7,0.2-10.1,0.2
			C113.5,259.5,125.6,242.2,115.4,231z M218.9,271.1c-1.6-2.4-1.8-6.9-4.3-8.4c-5.2-3.1-12.3,4.4-13.9,7.7
			c0.7,6.3,11,15.2,16.8,16.6c4,1,11-0.7,13.9-1.4c1.9-0.1,3.8-0.2,5.8-0.2c1.1-1.1,2.2-2.2,3.4-3.4c1.5-0.9,3-1.8,4.6-2.6
			c6-8,3.8-21-5-23.8c-0.1-0.4-0.2-0.8-0.2-1.2c5.2-4.3,7.3-16.4,1.9-22.3c-12-13.3-40.5-4.8-40.1,14.2c1.8,2,2.8,2.9,6.7,2.9
			c8.3,0,6.9-5.5,12-7.9c2.8-1.2,6.4,0.4,8.4,1c0.2,0.3,0.5,0.6,0.7,1c-0.8,8-9.2,4.3-9.1,17c3.9,4.4,4.7,2.4,10.6,4.6
			c0.5,0.5,1,1,1.4,1.4c-0.2,1.7-0.3,3.4-0.5,5C226.8,271.3,224.6,270.8,218.9,271.1z M350.9,272c-1.4-0.2-2.2-1.8-4.3-1.4
			c-1.4,0.2-2.3,0.9-4.3,1c-1.4-2.4-0.9-6.3-3.1-7.9c-4.3-5.1-14,4.5-15.1,7.7c3.9,7.3,9.4,13.8,18.7,15.6
			c3.7,0.7,18.6-0.4,21.1-1.7c3.4-1.7,10.5-15.2,7.9-22.3c-1.2-3.4-4.8-4.4-6.7-7c-1-1.9,3-8.2,3.6-10.8c1.7-7.9-3.4-13.6-7-16.6
			c-2.3-1.9-7.3-2.6-11.3-2.6c-14.1,0-25.2,6.3-25,20.2c0.4,0.4,0.8,0.8,1.2,1.2c5.6,6.7,15.3-4.1,17-7.2c3.1,0.6,6.2,1.1,9.4,1.7
			c1.3,8.4-12.9,8.3-8.9,18.2c1.9,4.8,9.6,2,12,6c-0.2,1.7-0.3,3.4-0.5,5C354.1,271.4,352.5,271.7,350.9,272z M98.6,410.7
			c0.2,3.2,0.3,6.4,0.5,9.6c1.5,3.2,7.5,2.6,12.2,2.4c0.4-0.3,0.8-0.6,1.2-1c0.1-3.4,0.2-6.7,0.2-10.1c0.6-0.6,1.3-1.1,1.9-1.7h5.8
			c2.4-3.3,2.8-9.9,1.7-14.6c-2.4-1.9-5.1-1.1-8.9-1c-0.6-11.8-0.8-30.4-9.6-34.3c-3.8-1.6-9.2,2-10.8,3.8
			c-5.5,6.5-9.3,15.4-13.2,23.3c-1.2,1.9-2.4,3.8-3.6,5.8c-1.3,3.3-3.1,7.8-1.4,11.5C78.2,411.7,91.2,407.2,98.6,410.7z M93.8,386
			c0.7-1.5,2-1.6,3.1-2.6h1.2c1.1,3.6,0.9,7.3,0,11.5c-0.3,0.2-0.6,0.3-1,0.5h-5.5C91.5,394.5,93.1,387.7,93.8,386z M478.1,407.4
			c2.1,3.4,0.3,9.4,0,13.4c0.3,0.4,0.6,0.8,1,1.2c4.5,0.1,9,0.2,13.4,0.2c0.4-0.5,0.8-1,1.2-1.4c1.7-4.5-1.8-8.3,0.7-12.2
			c1.9-0.2,3.8-0.3,5.8-0.5c1.3-1.6,5.7-9.8,1.7-12.5c-1.4-1.6-6.6-1.3-8.6-2.2c-0.7-4.2-1.3-8-2.2-11c-2-7.4,4-16.6-2.2-21.8
			c-2-1.7-9.3-0.8-12.7-0.7c-7,6.3-24.5,33.9-24.5,46.1C456.8,411.4,469.3,407.5,478.1,407.4z M477.8,380.7c-0.1,4.3-0.2,8.6-0.2,13
			h-6c-0.2-0.2-0.5-0.5-0.7-0.7C471.2,390.3,475.5,376.6,477.8,380.7z M220.3,407.4c-0.2,4.5-0.3,9-0.5,13.4c0.3,0.4,0.6,0.8,1,1.2
			c4.2,0.1,8.3,0.2,12.5,0.2c0.4-0.5,0.8-1,1.2-1.4c1.7-4.6-1.9-8.3,0.7-12.2c1.6-0.2,3.2-0.3,4.8-0.5c3.2-1.5,4.2-6.9,3.1-11.8
			c-2.2-1.6-6.3-1.3-9.1-2.4V386c-0.7-0.9-1.4-1.8-2.2-2.6c-0.7-2.1,0.2-5.7,0.5-7.2c1-5.1-0.5-10.2-1.2-13.9
			c-2.4-2-11.7-3.4-14.9-0.7c-5.8,4.9-21.8,34.7-22.3,44.4C198.6,410.9,212.3,407.5,220.3,407.4z M217.7,379.5
			c0.3,0.1,0.6,0.2,1,0.2c2.7,1.9,0.3,9.3,0.2,13.9h-6.2C213.3,388.3,214.7,382.7,217.7,379.5z M253.2,408.6c-2.3,2-5.4,3.1-6.7,6
			c-0.1,1.4-0.2,2.9-0.2,4.3l1.7,1.7c3.2,3.6,7.6-0.3,12.7,0.7c9.1,1.9,20.9,0.6,31.2,0.5c0.9-0.8,1.6-1.2,2.2-2.4
			c1.6-3.7-0.9-10.8-3.1-11.8c-2.9-1.1-8.5,0.9-11,1.4c-2.2-0.2-4.5-0.3-6.7-0.5v-0.2c3-5,11.2-8.2,13.7-13
			c9.8-19.2-1.2-35.4-23.3-35c-7.6,4.3-17.7,10.7-17.8,22.1c1,1.4,1.9,2.7,2.9,4.1c3.9,2.8,10.1,1.8,11.8-2.2
			c0.9-2.1,0.1-4.9,1.4-6.5c2.2-1,4.5-2.1,6.7-3.1c1.5,0.8,3.6,2.2,4.3,3.8c2,5.2-2.2,8.6-3.4,11.5
			C266.8,396.7,258.4,404.1,253.2,408.6z M345.6,408.3c-0.2,4.5-0.3,9-0.5,13.4c2.4,2.4,10.8,1.6,14.4,1.2c2.1-3.4-0.8-9.9,1.4-13.4
			c1.8-0.2,3.5-0.3,5.3-0.5c2-1.1,6.1-9.9,2.2-12.5c-1.5-1.7-6.4-1.3-8.6-2.2c-0.1-1.9-0.2-3.8-0.2-5.8c-0.6-1.8-1.3-3.5-1.9-5.3
			c-1.8-7.4,3.5-18.1-2.6-21.8c-3.6-3.2-12.9-0.7-14.9,1.4c-5.8,6.3-21.5,33.5-21.8,43.9C322.8,411.4,337.5,408.4,345.6,408.3z
			 M342,380.7c0.3-0.2,0.6-0.5,1-0.7c0.5,0.1,1,0.2,1.4,0.2c0.2,0.3,0.3,0.6,0.5,1c-0.2,4.1-0.5,8.2-0.7,12.2
			c-0.2,0.2-0.5,0.3-0.7,0.5c-1.8,0.1-3.7,0.2-5.5,0.2C338.1,387.8,341,386.3,342,380.7z M413,393.5c-0.8-4.5-1.5-8-2.2-11.5
			c-0.5-2.6,0.6-4.9,1-6.7c1.2-6.3-1.6-11-3.8-14.2c-3.5-0.1-7-0.2-10.6-0.2c-12.3,7.5-19.2,29.5-25.2,43.9c0.4,1.1,0.5,1.8,1.4,2.4
			c3.3,3,18.9,0.3,24.7,0.2c2,3.2-0.3,9.9,1.2,13.9c0.1,0.2,0.2,0.5,0.2,0.7h13.4c1.5-2.6,0.1-7.5,0-11.3c4.8-5,12-0.6,9.4-13.9
			C420.2,395.1,415.6,395,413,393.5z M397.9,393.7h-6.7c1.3-5.1,2.4-9.2,4.6-13.7c1.7-0.1,2.3,0.1,2.9,1.2
			C399.2,382.7,398.1,392.2,397.9,393.7z M509.8,360.8c-1.8,0.8-4.8-0.1-7.2,0.5c-3.9,0.9-4.1,9.6-3.6,13.9c0.7,0.6,1.4,1.1,2.2,1.7
			c1.8,0.8,5-0.2,6.5-0.7h18.5c-1.6,10.1-6.4,20-10.3,28.3c-2.2,4.7-6.1,7.3-6,14.4c3.1,3.2,9.4,4,15.8,3.8
			c5.8-5.1,5.3-13.8,7.9-22.1c0.9-2.2,1.8-4.5,2.6-6.7c0.1-1.6,0.2-3.2,0.2-4.8c1.7-5.4,4.1-10.4,6.2-14.9c1.1-2.4,0.8-6.7,0.5-9.6
			C536.5,359.4,521.7,360.7,509.8,360.8z M165.4,371.6c-2.2-2.6-3.6-6.8-7-8.2c-3.1-1.3-7.1-1.3-11.5-1.2c-1.5,0.7-3.8-0.1-5.8,0.5
			c-8,2.3-14.8,15.6-16.8,24.5c-1.1,4.8,0.6,10.4,1.4,13.4c3.3,11.5,9.1,26.6,27.4,22.6c8-1.8,13.4-9.4,16.6-16.3
			c0.4-2.9,0.8-5.8,1.2-8.6c0.8-3.5,3.1-7.7,1.9-13C171.5,379.4,168.6,375.4,165.4,371.6z M153.6,408.3c-1.9,1-3.6-0.2-5.5,0.2
			c-1.1,0.3-1.2,1.1-2.9,1.2c-5.7-7.5-5.4-25.3,1.4-31.7h9.1C159.4,385.2,154.4,399.6,153.6,408.3z M103.4,534.1
			c0.1,1.3,0.2,2.6,0.2,3.8c-1.9,1.8-3.8,3.7-5.8,5.5c-7.3,2.9-8.8-6.9-17.3-7c-4.6,4.1-5.2,6.3-3.1,12.5c0.6,1.7,0.3,3,1.4,4.1
			c2.5,1,5,2.1,7.4,3.1c2.2,0.9,5.5,3,9.6,1.9c1.5-0.4,5.6-0.4,7.7-1.2c4.7-1.8,9.5-5.7,12.7-9.1c3.4-3.7,3-12.3,1.2-17.5
			c-4.3-12.3-11.2-15.4-26.9-15.1c-0.1-1.5-0.2-3-0.2-4.6c0.3-0.7,0.3-0.8,1-1.2c3.7-2.6,22.4,3.3,24.2-1.7
			c-0.2-2.1-0.3-4.2-0.5-6.2c-0.1-1.8-0.2-3.5-0.2-5.3c-3.4-2.4-12.1-1.5-18-0.5c-6.1,1.1-11-1.5-16.3,0.5c-2.9,1.1-7,21.7-5.3,27.8
			C78.1,533.7,97.8,523.5,103.4,534.1z M163.7,512.5c-2.1-11.8-5.4-18.5-19.2-18.2c-2.9,0.3-5.8,0.6-8.6,1
			c-8.7,2.2-16.4,9.4-16.3,20.2c2.4,2.8,4.8,5.4,10.1,5.3c4.3-4.1,5.3-10.2,13.9-10.1c1.3,1.2,2.2,2.4,3.4,3.8
			c-1.4,12.9-7.2,13.6-12.7,21.6c-2.5,3.6-3.5,8-6.2,11.3c-1.8,2.2-5.1,5.3-5.8,8.4v1c0.1,0.2,0.2,0.5,0.2,0.7
			c7.4,1.4,24.8,2.1,32.2,0.7c3.8-0.7,10.4,1.4,12.2-1.2c1-1.1,2.9-11.4,1.9-13.7c-0.1-0.2-0.2-0.5-0.2-0.7h-13
			c-0.3-5,6.5-16.6,8.2-22.3C164.4,517.7,163.9,514,163.7,512.5z M350.9,543.7c-11.2-0.1-8.1-7.6-17.8-7.7
			c-12.2,10.8,1.6,25.2,17.3,22.1c9.1-1.8,18.1-6.4,20.9-14.4c4.1-11.7-5.6-24.7-12.2-27.1c-4.6-1.7-17.8,1.4-14.6-6.7l1-1
			c2.2,0.3,2.4,1.5,3.8,1.9c6.5-0.5,13-1,19.4-1.4c0.2-0.1,0.5-0.2,0.7-0.2c0.7-3.5,0.4-9.2-0.5-12c-3.8-2.7-23.8-2-31.4-1.9
			c-1.1,0.2-2.2,0.5-3.4,0.7c-3.7,4.6-9.9,29.7-1.4,32.6c1.8,0.6,4.1,0,5.5-0.2c7.1-1,15.4,1.5,17.8,5.5c0.5,0.6,0.5,1,0.2,1.9
			C356.3,540.5,352.9,541.1,350.9,543.7z M223.2,544.4c-7.4,2.9-8.9-6.8-17.3-7c-11.7,10.3,1.7,25,16.8,21.6
			c7.6-1.7,15.1-5.7,19.4-10.8c2.6-3.1,2.7-8.1,1.7-12.2c-0.1-1.6-0.2-3.2-0.2-4.8c-3.8-11.7-11.5-15.2-27.6-14.9c0-2.4,0.3-4,1-5.5
			c7.1-1.2,17.3,0.7,23-1c0.4-0.2,0.8-0.5,1.2-0.7c-0.1-3.5-0.2-7-0.2-10.6c-1.1-1.2-2-2.5-3.8-2.9c-4.6,0.3-9.3,0.6-13.9,1
			c-5.7,1-12.8,0.2-17.8,0.7c-2.9,3.9-8.3,28.7-1.9,32.2c2.9,1.6,8,0.3,10.6-0.2c5.4-1.2,13.1,2.8,14.6,5.8v4.3
			C226.9,541.1,225,542.7,223.2,544.4z M421.9,517.3c-2-9.5-7.5-18.1-15.8-21.1c-3.3-1.2-9.3-0.5-13.4-0.5
			c-7.8,3.8-14.1,4.7-17.3,13c-8.1,20.8,11.1,30.2,29.3,24.7h0.2c1.3,4.6-3.1,10.3-6,11.5c-2,0.8-5.3-1.1-7.2-1.9
			c-1.3-0.8-1.3-2.5-2.6-3.4c-3.4-3.9-11.9,1.3-14.4,2.6c-0.1,0.8-0.2,1.6-0.2,2.4c3.2,3.6,5.9,9.1,10.6,11c11,4.7,27.1-1.8,31-9.1
			c0.5-1.8,1-3.7,1.4-5.5c1.5-3.1,4.2-5.9,5-9.8c0.5-2.6-0.1-6.3-0.5-8.2V517.3z M403.2,521.6c-2.3,1.4-6.2,1.8-9.8,1.7
			c-1.8-1.7-3.7-4.2-4.8-6.5c-1.6-3.7,3.1-6.6,5-7.9c2.8,0.3,5.2,1.2,7.4,1.9c0.8,4,2.2,6.6,2.2,10.6V521.6z M289.2,530.7
			c-0.1-1.9-0.2-3.8-0.2-5.8c-0.4-1.9-1.5-3.8-1.9-5.3c-1.8-7.3,3.4-18.3-2.4-22.3c-2.1-1.4-7.7-0.8-11-0.7
			c-10.6,5.9-15.5,20.3-21.1,31.2c-1.8,3.6-5.2,9.8-5,14.2c-1.2,7.1,21.5,1.2,26.2,2.9c3.6,2.2-0.2,9.7,1.2,13.7
			c0.1,0.2,0.2,0.5,0.2,0.7c4.5,0.1,9,0.2,13.4,0.2c0.4-0.5,0.8-1,1.2-1.4c1.5-4.1-2.9-9.2,1-11.8c1.1-1,3.5-0.4,5-1
			c2.5-1.1,5-7,3.1-11.3C297.3,531.1,292.2,532.1,289.2,530.7z M273.4,529.8c-1.4,0.8-4,0.8-6.5,0.7c0.2-3.7,3.4-13.1,5.5-14.4
			c0.7,0.7,1.4,1.4,2.2,2.2C273.6,521.5,274,525.9,273.4,529.8z M542.4,542.5c-5.1-0.9-10.6,0.6-13.7-1.7c-0.1-0.4-0.2-0.8-0.2-1.2
			c1.2-1.5,1.8-3.5,4.6-2.6c4.5-20.3,14.7-40.5-18.5-39.8c-9.1,4.5-18.1,7.2-17.3,20.6c2.7,2.1,4.6,4,9.6,3.8
			c4.7-4.4,4.5-6.8,11.8-9.4c1.9,0.2,2.8,1.4,3.4,2.9c0.5,1.4,0.2,6.4-0.5,7.9c-2.2,4.7-7.2,7.9-10.1,12c-1.8,3.3-3.5,6.6-5.3,9.8
			c-1.7,2.4-6.8,5.8-4.8,10.8c0.1,0.2,0.2,0.5,0.2,0.7c7.4,1.4,21.5,1.6,28.8,0.2c3.6-0.6,9.1,1.2,10.8-1.2
			c1.3-1.4,2.5-9.8,1.4-12.2C542.6,543,542.5,542.7,542.4,542.5z M460.8,499.1c-2.8,0.5-5.2-0.7-6.5,1.2c-2,2.2-1.6,10.2-1,12.7
			c3.1,2.2,19.1,0.1,26.2,0c-0.7,8.7-7.3,22.2-10.8,29.3c-2,4.1-5.1,5.9-5,12.5c3,3.3,9.7,4.3,15.8,3.6c7.2-9,9-31.2,14.2-43
			c1.6-3.6,5-9.5,1.9-13.9C492.2,496.6,468.1,497.7,460.8,499.1z M239.8,662.3c-1.1-4,5.8-8.9,3.6-16.8c-2.3-8-12.6-15.5-23.5-15.4
			c-8.8,4.8-18.7,8.5-13.7,23.5c1,3.1,3.9,4.1,4.8,7c-2.4,3.4-6.4,5.2-8.2,9.4c-3.4,8.2,2.4,19.3,8.4,21.8c3,1.3,6.5,1.2,10.8,1.2
			h10.3c6.4-2,15.7-10.8,13.4-21.6C244.9,667.3,241.3,665.7,239.8,662.3z M227.8,677.4c-1,0.7-1.9,1.4-2.9,2.2
			c-1.8-0.5-3.5-1-5.3-1.4c-0.8-0.4-0.8-0.7-1.2-1.4c0.4-3.9,2.3-6.2,4.8-7.9c1.7,0.5,3.4,1,5,1.4C229,672.3,228.5,675,227.8,677.4z
			 M220.8,652.9c-0.2-2.5-2-3.6-1.2-5.8c0.7-1.2,4.1-2.2,5.8-1.7c1.7,0.7,3.6,2.5,4.3,4.1c0.1,0.8,0.2,1.6,0.2,2.4
			C226.9,654.5,225.2,652.6,220.8,652.9z M280.3,677.6c-0.5-0.6-1-1.1-1.4-1.7c2.2-3,4.3-5.9,6.5-8.9c1.8-3.1,3.6-8.8,4.6-12
			c1.1-3.7-0.2-10.1-1-12.5c-3.3-10.2-9.8-12.7-23.5-12.5c-11.3,5.9-18.6,5.8-18,22.1c2.5,2.1,4.5,4,9.4,3.8c2.4-2.2,2.9-5.5,5-7.9
			c1.4-1.6,4.8-2.6,6.7-3.6c4.3,0.2,6,8.8,3.6,13c-2.8,4.9-7.7,8.5-10.8,13c-1.6,3.1-3.2,6.2-4.8,9.4c-2.5,3-7,6.4-6.7,11.3
			c4,2.5,25.1,2.5,31,1.4c3.7-0.2,7.4-0.5,11-0.7c2.5-1.5,3-9.1,2.9-13.2C292,675.9,285.1,677.5,280.3,677.6z M114.2,664.2
			c-1-3.1,5-10.9,3.4-16.8c-2.7-9.9-11.3-16.5-24.5-16.3c-8.1,4.4-19.7,10.8-12.2,25c1,2,3.5,2.6,4.3,5c-3.1,4.3-7.9,6.4-9.4,12.7
			c-0.9,4.1,1.1,7.6,2.2,9.8c5.4,11.2,15.5,11.3,28.6,8.4c2.9-0.7,5.9-0.3,8.2-1.7c2.4-1.4,6.6-14,4.8-19.4
			C117.8,668.7,116,666.4,114.2,664.2z M102,677.4c-0.7,1.3-2.2,1.7-3.1,2.9c-2.5-0.3-3.7-0.9-6.5-0.5c-0.2-0.4-0.5-0.8-0.7-1.2
			c0.3-3.1,2.6-7,4.3-8.9c2.3,0,3.7,0.3,5.3,0.7C102.7,672.3,103.5,674.5,102,677.4z M103.9,652.9c-2.4,1.3-5,0.6-8.6,0.5
			c-2.8-3.8-2-5.4,1.7-7.7h1.9c1.7,1.5,4,2.6,5,4.8V652.9z M365.3,662.3c0.7-3.7,4.9-4.9,5.8-8.6c3.1-12.9-12.5-22.8-23.5-22.6
			c-9.4,5.3-19.6,8.8-13.7,24.5c1,2.5,3.9,3.3,4.8,6c-3.5,3.7-7.4,6.2-9.1,11.8c-3,9.4,6.8,19.2,13.2,20.6h7.2
			c12.9,0,23-4.7,23-17.5c0-2.6,0.2-5.2-0.7-7C369.9,667.1,367.6,664.7,365.3,662.3z M355.4,678.3c-1.3,0.7-2.5,1.1-3.4,2.2
			c-2.1-0.2-3.7-0.8-6.5-0.7c-0.1-4.2,1.5-8.1,4.3-9.4c2.7-1.2,5.1,1.1,6.5,2.2C356.1,674.5,355.8,676.4,355.4,678.3z M357.8,652.4
			c-1,0.8-1.9,1.6-2.9,2.4c-4.9-0.5-10.7-3.2-7-7.9c1.1-0.2,2.2-0.5,3.4-0.7c2.6,0.4,5.6,3,6.7,5C358,651.6,357.9,652,357.8,652.4z
			 M417.1,658.9c0.2-4.3,0.3-8.6,0.5-13c-2.1-7.2-12.7-15.1-22.6-14.9c-10.1,5.1-20.1,8.4-14.2,24.5c0.9,2.5,3.5,3.5,4.3,6
			c-2.8,3.7-7,6.1-8.9,10.8c-4.5,11.1,9.2,20.6,15.8,22.6c3.1,0.9,9.1,0,11.5-0.5c5.1-1,8.6-1.4,11.8-4.1c7.9-6.7,5.1-20.3-0.7-26.6
			C415.1,661.3,416.5,660.6,417.1,658.9z M399.6,680.5c-2.5-0.2-2.8-1.2-5.8-1.2c-0.4-1-0.8-2.1-1.2-3.1c1-2,2.3-3.6,3.8-5
			c2.5,0.1,3.9,0.4,6.2,0.2c0.3,0.4,0.6,0.8,1,1.2C403.2,677.2,401.8,678,399.6,680.5z M402,654.8c-2,0.8-4.7-1.2-6.7-1.9
			c-0.4-1.1-0.7-1.7-0.7-3.4c1-1,2.1-1.6,3.4-2.4c4.4,0,5.5,2.4,6.7,5.5C404.2,653.5,402.9,654.4,402,654.8z M143,632.5
			c-2.4,1.1-6,0.5-8.2,1.7c-7.3,3.9-11.3,13.8-13.9,22.8c-4.2,14.7,10.4,41.9,27.8,37C174.8,686.6,178.6,631.9,143,632.5z
			 M149.5,678.8c-2,0.8-4.5-0.3-6.5,0.7c-4.2-0.5-5.5-11-6.2-14.9c2-3.7,1.3-10.6,3.1-13.7c2.1-3.6,5.6-3.2,9.4-5.3h1.9
			c0.4,0.3,0.8,0.6,1.2,1C154.6,656.9,151.9,669.1,149.5,678.8z"/>
	</g>
	<g>
		<path fill="none" stroke="#000000" stroke-width="3" stroke-miterlimit="10" d="M336.7,114.6c3.1-1.2,4.8-2.8,8.2-3.8
			c0.3,0.2,0.6,0.3,1,0.5c0.7,3.5,1.4,19.3,0.2,24c-0.6,2.6-2.1,9.8-0.7,13.4c1.7,3.5,15.9,4.9,17.8,0.5c1.4-3.5-1.8-11.7-0.7-17.3
			c0.9-5,2.4-35.4,0.2-39.4c-1.5-2.8-4.3-3.4-8.9-3.4c-4.3,2.3-16.8,6.9-18.2,11v6.7c0.1,2.2,0.2,4.5,0.2,6.7
			C336.1,113.9,336.4,114.3,336.7,114.6z M373.2,122.5c1.9,2.1,7.4,1,10.3,0.7c6.2-0.6,13.3,1.7,15.1,5.8c2,4.7-4.9,11.3-10.3,9.6
			c-3.2-1-4.2-5.6-7.2-6.7c-1.8-0.7-3.8-0.4-5.8-0.2c-7.6,9.4-3.3,16.7,7.2,19.9c1.7,0.5,3.8,2,6.7,1.4c9-1.8,20.2-5.2,23.8-12
			c6-11.7-2.8-26.6-11.3-29.8c-4-1.5-10.5-1-15.8-1c0.2-2.1,0.3-4.2,0.5-6.2c8,0.5,17.3,1.8,24.2-1c0.7-3.5,0.4-9.2-0.5-12
			c-1-0.7-2.2-1.6-3.6-1.9c-1.9-0.4-2.5,0.7-3.6,1c-9.2,1.9-18.4-2.2-26.6,0.5c-1,1-1.9,1.9-2.9,2.9
			C371.3,98.5,369,119.9,373.2,122.5z M533.3,128.7c0.2,4.7-2.4,7.8-5.3,9.1c-8,3.1-9-6.8-17.3-7c-4.1,3.6-6.3,5.4-4.1,12
			c0.8,2.3,0.3,3.7,1.9,5c2.5,1,5,1.9,7.4,2.9c2.2,0.8,4.8,2.4,8.6,1.7c9.9-1.9,15.9-4.2,21.4-10.3c3.7-4.2,3.1-10.7,1.7-16.6
			c-3-13-11-16.1-27.4-15.8c0.2-1.9,0.3-3.8,0.5-5.8c8,0,17.6,1,23.5-0.7c0.2-0.1,0.5-0.2,0.7-0.2c0.7-3.6,0.8-11.2-1.4-12.7
			c-2.1-2.3-12.4-0.9-16.1-0.2c-5.6,1-12.3-1.2-17.3,0.5c-5.7,1.9-3,13.4-4.3,20.2c-0.4,1.9-1.6,4.7-1,7.7
			C507.3,128.7,527,118.1,533.3,128.7z M255.4,117.2l2.6-2.6c0.8-2.6,1.6-5.3,2.4-7.9c1-0.9,4.2-1.6,5.3-2.2c1.9,0.2,4,1.4,4.8,2.6
			c3.6,4.1-1.1,8.7-2.4,11.3c-4,8.1-9.9,13.9-16.3,19.4c-2.5,2.1-5.8,3.3-7.2,6.5v4.3c1.3,1,2.1,2.5,4.1,2.9c3.5,0.8,4.6-1.5,7.7-1
			c8.9,1.6,25,2,34.6,0.2c2.7-3.8,0.7-8.9-0.2-12.7c-2.4-1.8-9.5-1.4-13.4,0h-5c1-5,10.6-8.7,12.7-13c9.4-19-0.6-35.8-22.3-35.5
			c-8.4,4.2-18.2,10.4-18.2,22.6C247.5,115.8,248.2,118,255.4,117.2z M219.4,113.1c2.6,4.2,1.4,32.1,1,37.4c0.3,0.4,0.6,0.8,1,1.2
			c3.4,0.7,15.1,2.3,17-0.7c1.1-1.7-0.9-8.1-0.2-11c0.8-3.9-0.3-7.8-1-10.6c-1.1-4.4,0.2-10.6-0.5-14.4c-0.6-3.6,0.9-5.8,1.4-7.7
			c0.2-0.7-0.6-11.8-1-13c-1-3.5-4.3-4.4-9.1-4.3c-4.8,2.6-18.7,8.9-20.4,13.4c-0.1,3.8-0.2,7.7-0.2,11.5
			C210.5,117.2,214.4,113.6,219.4,113.1z M464.2,115.1c4.1-3.9,5.8-9.2,13.9-9.1c0.9,0.8,1.6,1.2,2.2,2.4c0.6,1.5,0.3,6.8-0.5,8.4
			c-2.2,4.8-7.7,8-10.6,12.2c-1.8,3.3-3.5,6.6-5.3,9.8c-1.8,2.1-7.8,6.7-6.2,10.8c0.1,0.2,0.2,0.5,0.2,0.7c9.9,2,24.4,2,34.1,0.2
			c2.4-0.1,4.8-0.2,7.2-0.2c1.8-1.2,3.5-10,2.2-13.2c-0.1-0.2-0.2-0.5-0.2-0.7c-4.5-0.8-8.9,0.2-13.4,0.2c-0.5-0.5-1-1-1.4-1.4
			c0.6-2.8,2.8-3.3,4.1-5.3c1.4-2.9,2.9-5.8,4.3-8.6c5.5-14.2,1.8-28.3-11.3-31.2h-11c-5.8,3-12.2,3.8-15.1,9.6
			C453.7,106.8,452.7,115.4,464.2,115.1z M99.4,152.5c11.3-2.1,18.1-8.3,21.4-18.2c0.2-2.2,0.5-4.5,0.7-6.7c1.3-5.2,3.1-13,0.7-19.2
			c-1.7-4.5-5.3-7.1-8.2-10.3c-2-2.3-2.9-5-6-6.2c-2.8-1.1-7.3-0.8-11-0.7c-1.5,0.7-3.8-0.1-5.8,0.5c-8.3,2.3-14.5,16.1-16.3,25.4
			C71.9,131.8,85.3,155.1,99.4,152.5z M96.7,105.9c1.4-0.3,2.9-0.6,4.3-1c1.4,0.1,2.7,0.2,4.1,0.2c4.3,2.2,0.2,28.5-1.9,32.6
			c-2.8,0.4-6.4,0.1-8.9-0.2c-0.1-1.2-0.2-2.4-0.2-3.6c-0.8-1.5-1.6-3-2.4-4.6C90.1,123.5,93.5,108.7,96.7,105.9z M152.6,115.5
			c-2.6,1-5.3,1.9-7.9,2.9c-1-0.5-1.5-0.8-1.9-1.9c-1.7-3.9,2.3-10.3,4.6-11.3c1.3-0.1,2.6-0.2,3.8-0.2c1.8,1.5,3.5,3,5.3,4.6
			c3.7,1.7,14.1,0.4,14.9-2.2c0.5-1.6-0.9-2.5-1.2-3.4c-3.3-8.5-10.1-13.3-22.3-13c-1.8,0.4-3.5,0.8-5.3,1.2
			c-4.9,2.4-9.3,7.5-11.8,12.2c-1.5,2.9-1.4,5.8-2.2,9.6c-5,23.3,5.5,35.8,26.9,37.7c12.6,1.1,24.2-14.8,16.6-27.6
			C169.1,119.1,160.9,113.8,152.6,115.5z M158.2,138.6c-2.4-0.9-7.6-1.7-9.6-1c-1.4-0.8-2.1-2.2-3.1-3.4c0.5-4.5,4.2-4.5,7-6.7
			c1.9,0.2,3.8,0.5,5.8,0.7c1.2,1.7,2.4,3.4,3.6,5C161.5,135.9,160,137.6,158.2,138.6z M483.4,269.6c-3.7,0.9-11.5,1-13.7-2.4
			c-1.3-2.1-1.3-4.2-3.4-5.5c-4-4.8-13.4,4.9-14.6,7.7c0.4,3.5,3.5,6.6,5.5,8.6c2.9,2.9,6,7.1,10.3,8.4c17,5.2,37.6-4,33.6-24
			c-0.9-4.4-5-5.3-6.7-8.9c0.4-3.2,2.6-4.7,3.4-7.4c0.8-2.8,0-8-0.5-10.1c-2.6-11.8-12.1-13.2-26.9-13c-1.6,0.4-3.2,0.8-4.8,1.2
			c-5.7,2.6-13.1,10.8-13,19.4c2.1,2.3,2.2,2.1,6.2,2.9c8.2,1.5,8.9-5.7,13.9-8.4c2.7-1,6.1,1.4,8.4,1.9c0.2,0.3,0.5,0.6,0.7,1
			c-0.7,4.9-18.7,14.3-6.2,20.6c2.6,0.3,5.1,0.6,7.7,1c1.5,0.8,1.4,3.8,0.7,5.8C483.8,268.8,483.6,269.2,483.4,269.6z M548.6,263.4
			c-0.7-3.6-3.7-5.8-5.3-8.9c1-1.4,2.1-2.7,3.1-4.1c5.7-11.7-7.2-24-13.7-26.6c-2.6-1.1-6.6-0.8-10.1-0.7
			c-14.3,8.1-19.8,13.1-8.4,29.5c-1.3,4-6.6,6-8.2,10.3c-2.9,7.9,3.5,19.1,8.4,21.1C531.8,291.2,553.1,285.3,548.6,263.4z
			 M531.6,269.6c-0.7,1.3-2.5,1.8-3.8,2.4c-1.6-0.5-3.2-1-4.8-1.4c-0.2-1.2-0.5-2.4-0.7-3.6c1.6-1.8,2.7-3.4,4.6-5
			c3-0.2,5.1,0.4,5.8,2.6C532.2,266.3,531.9,267.9,531.6,269.6z M533.5,244.7c-0.5,0.9-1.4,1.3-2.2,1.9c-2-0.4-3.5-1-6.5-1
			c-0.5-1.3-1-2.6-1.4-3.8c1.3-1.8,2.9-2.6,4.8-3.8c2.2,0.3,4.5,2.8,5.3,4.6V244.7z M143,288.3c2.7-0.2,5.4-0.3,8.2-0.5
			c6.9-0.2,12.4-1.7,16.1-5c1.3-1.5,2.6-3,3.8-4.6v-14.4c-1.7-2.4-3.4-4.8-5-7.2c1.3-2.4,2.6-4.8,3.8-7.2c3.4-12.3-12-25.1-22.1-25
			c-2.2,0.4-4.5,0.8-6.7,1.2c-7.7,3.8-15.1,12.8-9.4,23.8c1.7,1.8,3.4,3.7,5,5.5C120.6,264.1,126,284.4,143,288.3z M148.8,240.6
			c1.5,0.3,3,0.6,4.6,1c0.6,1,0.8,2.2,0.7,4.1c-1.7,2-3.5,2.1-7.4,1.9c-0.5-1.4-1-2.7-1.4-4.1C146.5,242.2,147.2,241.6,148.8,240.6z
			 M149,264.3c2.3,0,3.7,0.3,5.3,0.7c0.2,0.3,0.3,0.6,0.5,1c-0.3,1.7-0.6,3.4-1,5c-0.7,1.4-2.9,2.2-4.3,2.9
			c-0.7-0.3-4.7-0.8-5.3-1.4C141.4,269.3,147.9,265.1,149,264.3z M417.6,252.6c9.7-16.6,0.6-28.5-19.7-28.1c-2.6,0.5-5.1,1-7.7,1.4
			c-7.2,2.3-13.1,6.4-13,16.3l1.7,1.7c1.8,1.6,8.7,1.8,11.8,1.7c5-4.9,1.1-7.9,12.5-7.7c1.9,1.8,3.8,3.5,5.8,5.3
			c-0.7,4.7-8,3.2-9.8,7.2c-0.1,1.4-0.2,2.9-0.2,4.3c2.8,3.3,5.5,3.9,9.4,6.2c0.3,1.5,1,3.9,0.5,5.3c-2.1,3.9-7.5,2.8-12,4.3
			c-1.6-2.6-2.9-4.7-3.8-8.2c-5.2-3.8-10.6,2.8-14.2,4.6c-7.8,10,14.5,21,26.9,18.5c12.7-2.6,23.2-10.1,17.8-26.4
			C422.4,256.2,419.1,255,417.6,252.6z M284.2,226.2c-2.8-1.4-8.5-0.8-12.5-0.7c-2.3,1.1-5.8,0.5-7.7,1.7
			c-7.1,4.4-11.8,13.8-13.9,23.3c-3.5,16,10.7,39.7,27.8,36c1.9-0.4,3.8-0.8,5.8-1.2c10.1-6.1,20.2-29.7,12.7-44.9
			c-1.5-3-4.2-5-6.2-7.4C288.3,230.6,286.9,227.5,284.2,226.2z M283.2,249.5c-0.5,2.2-1.9,5.9-2.4,8.4c-1.2,5.7,0.1,10.1-2.4,13.9
			c-2.2,0.2-4.3,0.5-6.5,0.7c-6.6-3.9-4.7-25.4-0.5-31c1.5-2,4.9-1.4,7.2-2.6h2.4C281.6,239.9,283.5,248.2,283.2,249.5z M115.4,231
			c-11.7-12.9-38.4-2.2-38.6,14.6c2.5,3,4.4,5.4,10.1,5.3c3.7-3.5,5.8-10.1,13-10.1c1.1,1.3,2.2,2.6,3.4,3.8c-1,6.7-3,11.5-6.5,15.6
			c-1.8,1.7-3.5,3.4-5.3,5c-1.9,3.4-3.8,6.9-5.8,10.3c-2,2.3-5.2,5.3-6,8.6c0.1,0.2,0.2,0.5,0.2,0.7c2.9,2.1,7.1,0.6,11.8,1.4
			c3,0.6,27,1.6,29.3,0.2c2.1-1.2,4.2-10.4,2.6-14.2c-0.1-0.2-0.2-0.5-0.2-0.7c-3.4,0.1-6.7,0.2-10.1,0.2
			C113.5,259.5,125.6,242.2,115.4,231z M218.9,271.1c-1.6-2.4-1.8-6.9-4.3-8.4c-5.2-3.1-12.3,4.4-13.9,7.7
			c0.7,6.3,11,15.2,16.8,16.6c4,1,11-0.7,13.9-1.4c1.9-0.1,3.8-0.2,5.8-0.2c1.1-1.1,2.2-2.2,3.4-3.4c1.5-0.9,3-1.8,4.6-2.6
			c6-8,3.8-21-5-23.8c-0.1-0.4-0.2-0.8-0.2-1.2c5.2-4.3,7.3-16.4,1.9-22.3c-12-13.3-40.5-4.8-40.1,14.2c1.8,2,2.8,2.9,6.7,2.9
			c8.3,0,6.9-5.5,12-7.9c2.8-1.2,6.4,0.4,8.4,1c0.2,0.3,0.5,0.6,0.7,1c-0.8,8-9.2,4.3-9.1,17c3.9,4.4,4.7,2.4,10.6,4.6
			c0.5,0.5,1,1,1.4,1.4c-0.2,1.7-0.3,3.4-0.5,5C226.8,271.3,224.6,270.8,218.9,271.1z M350.9,272c-1.4-0.2-2.2-1.8-4.3-1.4
			c-1.4,0.2-2.3,0.9-4.3,1c-1.4-2.4-0.9-6.3-3.1-7.9c-4.3-5.1-14,4.5-15.1,7.7c3.9,7.3,9.4,13.8,18.7,15.6
			c3.7,0.7,18.6-0.4,21.1-1.7c3.4-1.7,10.5-15.2,7.9-22.3c-1.2-3.4-4.8-4.4-6.7-7c-1-1.9,3-8.2,3.6-10.8c1.7-7.9-3.4-13.6-7-16.6
			c-2.3-1.9-7.3-2.6-11.3-2.6c-14.1,0-25.2,6.3-25,20.2c0.4,0.4,0.8,0.8,1.2,1.2c5.6,6.7,15.3-4.1,17-7.2c3.1,0.6,6.2,1.1,9.4,1.7
			c1.3,8.4-12.9,8.3-8.9,18.2c1.9,4.8,9.6,2,12,6c-0.2,1.7-0.3,3.4-0.5,5C354.1,271.4,352.5,271.7,350.9,272z M98.6,410.7
			c0.2,3.2,0.3,6.4,0.5,9.6c1.5,3.2,7.5,2.6,12.2,2.4c0.4-0.3,0.8-0.6,1.2-1c0.1-3.4,0.2-6.7,0.2-10.1c0.6-0.6,1.3-1.1,1.9-1.7h5.8
			c2.4-3.3,2.8-9.9,1.7-14.6c-2.4-1.9-5.1-1.1-8.9-1c-0.6-11.8-0.8-30.4-9.6-34.3c-3.8-1.6-9.2,2-10.8,3.8
			c-5.5,6.5-9.3,15.4-13.2,23.3c-1.2,1.9-2.4,3.8-3.6,5.8c-1.3,3.3-3.1,7.8-1.4,11.5C78.2,411.7,91.2,407.2,98.6,410.7z M93.8,386
			c0.7-1.5,2-1.6,3.1-2.6h1.2c1.1,3.6,0.9,7.3,0,11.5c-0.3,0.2-0.6,0.3-1,0.5h-5.5C91.5,394.5,93.1,387.7,93.8,386z M478.1,407.4
			c2.1,3.4,0.3,9.4,0,13.4c0.3,0.4,0.6,0.8,1,1.2c4.5,0.1,9,0.2,13.4,0.2c0.4-0.5,0.8-1,1.2-1.4c1.7-4.5-1.8-8.3,0.7-12.2
			c1.9-0.2,3.8-0.3,5.8-0.5c1.3-1.6,5.7-9.8,1.7-12.5c-1.4-1.6-6.6-1.3-8.6-2.2c-0.7-4.2-1.3-8-2.2-11c-2-7.4,4-16.6-2.2-21.8
			c-2-1.7-9.3-0.8-12.7-0.7c-7,6.3-24.5,33.9-24.5,46.1C456.8,411.4,469.3,407.5,478.1,407.4z M477.8,380.7c-0.1,4.3-0.2,8.6-0.2,13
			h-6c-0.2-0.2-0.5-0.5-0.7-0.7C471.2,390.3,475.5,376.6,477.8,380.7z M220.3,407.4c-0.2,4.5-0.3,9-0.5,13.4c0.3,0.4,0.6,0.8,1,1.2
			c4.2,0.1,8.3,0.2,12.5,0.2c0.4-0.5,0.8-1,1.2-1.4c1.7-4.6-1.9-8.3,0.7-12.2c1.6-0.2,3.2-0.3,4.8-0.5c3.2-1.5,4.2-6.9,3.1-11.8
			c-2.2-1.6-6.3-1.3-9.1-2.4V386c-0.7-0.9-1.4-1.8-2.2-2.6c-0.7-2.1,0.2-5.7,0.5-7.2c1-5.1-0.5-10.2-1.2-13.9
			c-2.4-2-11.7-3.4-14.9-0.7c-5.8,4.9-21.8,34.7-22.3,44.4C198.6,410.9,212.3,407.5,220.3,407.4z M217.7,379.5
			c0.3,0.1,0.6,0.2,1,0.2c2.7,1.9,0.3,9.3,0.2,13.9h-6.2C213.3,388.3,214.7,382.7,217.7,379.5z M253.2,408.6c-2.3,2-5.4,3.1-6.7,6
			c-0.1,1.4-0.2,2.9-0.2,4.3l1.7,1.7c3.2,3.6,7.6-0.3,12.7,0.7c9.1,1.9,20.9,0.6,31.2,0.5c0.9-0.8,1.6-1.2,2.2-2.4
			c1.6-3.7-0.9-10.8-3.1-11.8c-2.9-1.1-8.5,0.9-11,1.4c-2.2-0.2-4.5-0.3-6.7-0.5v-0.2c3-5,11.2-8.2,13.7-13
			c9.8-19.2-1.2-35.4-23.3-35c-7.6,4.3-17.7,10.7-17.8,22.1c1,1.4,1.9,2.7,2.9,4.1c3.9,2.8,10.1,1.8,11.8-2.2
			c0.9-2.1,0.1-4.9,1.4-6.5c2.2-1,4.5-2.1,6.7-3.1c1.5,0.8,3.6,2.2,4.3,3.8c2,5.2-2.2,8.6-3.4,11.5
			C266.8,396.7,258.4,404.1,253.2,408.6z M345.6,408.3c-0.2,4.5-0.3,9-0.5,13.4c2.4,2.4,10.8,1.6,14.4,1.2c2.1-3.4-0.8-9.9,1.4-13.4
			c1.8-0.2,3.5-0.3,5.3-0.5c2-1.1,6.1-9.9,2.2-12.5c-1.5-1.7-6.4-1.3-8.6-2.2c-0.1-1.9-0.2-3.8-0.2-5.8c-0.6-1.8-1.3-3.5-1.9-5.3
			c-1.8-7.4,3.5-18.1-2.6-21.8c-3.6-3.2-12.9-0.7-14.9,1.4c-5.8,6.3-21.5,33.5-21.8,43.9C322.8,411.4,337.5,408.4,345.6,408.3z
			 M342,380.7c0.3-0.2,0.6-0.5,1-0.7c0.5,0.1,1,0.2,1.4,0.2c0.2,0.3,0.3,0.6,0.5,1c-0.2,4.1-0.5,8.2-0.7,12.2
			c-0.2,0.2-0.5,0.3-0.7,0.5c-1.8,0.1-3.7,0.2-5.5,0.2C338.1,387.8,341,386.3,342,380.7z M413,393.5c-0.8-4.5-1.5-8-2.2-11.5
			c-0.5-2.6,0.6-4.9,1-6.7c1.2-6.3-1.6-11-3.8-14.2c-3.5-0.1-7-0.2-10.6-0.2c-12.3,7.5-19.2,29.5-25.2,43.9c0.4,1.1,0.5,1.8,1.4,2.4
			c3.3,3,18.9,0.3,24.7,0.2c2,3.2-0.3,9.9,1.2,13.9c0.1,0.2,0.2,0.5,0.2,0.7h13.4c1.5-2.6,0.1-7.5,0-11.3c4.8-5,12-0.6,9.4-13.9
			C420.2,395.1,415.6,395,413,393.5z M397.9,393.7h-6.7c1.3-5.1,2.4-9.2,4.6-13.7c1.7-0.1,2.3,0.1,2.9,1.2
			C399.2,382.7,398.1,392.2,397.9,393.7z M509.8,360.8c-1.8,0.8-4.8-0.1-7.2,0.5c-3.9,0.9-4.1,9.6-3.6,13.9c0.7,0.6,1.4,1.1,2.2,1.7
			c1.8,0.8,5-0.2,6.5-0.7h18.5c-1.6,10.1-6.4,20-10.3,28.3c-2.2,4.7-6.1,7.3-6,14.4c3.1,3.2,9.4,4,15.8,3.8
			c5.8-5.1,5.3-13.8,7.9-22.1c0.9-2.2,1.8-4.5,2.6-6.7c0.1-1.6,0.2-3.2,0.2-4.8c1.7-5.4,4.1-10.4,6.2-14.9c1.1-2.4,0.8-6.7,0.5-9.6
			C536.5,359.4,521.7,360.7,509.8,360.8z M165.4,371.6c-2.2-2.6-3.6-6.8-7-8.2c-3.1-1.3-7.1-1.3-11.5-1.2c-1.5,0.7-3.8-0.1-5.8,0.5
			c-8,2.3-14.8,15.6-16.8,24.5c-1.1,4.8,0.6,10.4,1.4,13.4c3.3,11.5,9.1,26.6,27.4,22.6c8-1.8,13.4-9.4,16.6-16.3
			c0.4-2.9,0.8-5.8,1.2-8.6c0.8-3.5,3.1-7.7,1.9-13C171.5,379.4,168.6,375.4,165.4,371.6z M153.6,408.3c-1.9,1-3.6-0.2-5.5,0.2
			c-1.1,0.3-1.2,1.1-2.9,1.2c-5.7-7.5-5.4-25.3,1.4-31.7h9.1C159.4,385.2,154.4,399.6,153.6,408.3z M103.4,534.1
			c0.1,1.3,0.2,2.6,0.2,3.8c-1.9,1.8-3.8,3.7-5.8,5.5c-7.3,2.9-8.8-6.9-17.3-7c-4.6,4.1-5.2,6.3-3.1,12.5c0.6,1.7,0.3,3,1.4,4.1
			c2.5,1,5,2.1,7.4,3.1c2.2,0.9,5.5,3,9.6,1.9c1.5-0.4,5.6-0.4,7.7-1.2c4.7-1.8,9.5-5.7,12.7-9.1c3.4-3.7,3-12.3,1.2-17.5
			c-4.3-12.3-11.2-15.4-26.9-15.1c-0.1-1.5-0.2-3-0.2-4.6c0.3-0.7,0.3-0.8,1-1.2c3.7-2.6,22.4,3.3,24.2-1.7
			c-0.2-2.1-0.3-4.2-0.5-6.2c-0.1-1.8-0.2-3.5-0.2-5.3c-3.4-2.4-12.1-1.5-18-0.5c-6.1,1.1-11-1.5-16.3,0.5c-2.9,1.1-7,21.7-5.3,27.8
			C78.1,533.7,97.8,523.5,103.4,534.1z M163.7,512.5c-2.1-11.8-5.4-18.5-19.2-18.2c-2.9,0.3-5.8,0.6-8.6,1
			c-8.7,2.2-16.4,9.4-16.3,20.2c2.4,2.8,4.8,5.4,10.1,5.3c4.3-4.1,5.3-10.2,13.9-10.1c1.3,1.2,2.2,2.4,3.4,3.8
			c-1.4,12.9-7.2,13.6-12.7,21.6c-2.5,3.6-3.5,8-6.2,11.3c-1.8,2.2-5.1,5.3-5.8,8.4v1c0.1,0.2,0.2,0.5,0.2,0.7
			c7.4,1.4,24.8,2.1,32.2,0.7c3.8-0.7,10.4,1.4,12.2-1.2c1-1.1,2.9-11.4,1.9-13.7c-0.1-0.2-0.2-0.5-0.2-0.7h-13
			c-0.3-5,6.5-16.6,8.2-22.3C164.4,517.7,163.9,514,163.7,512.5z M350.9,543.7c-11.2-0.1-8.1-7.6-17.8-7.7
			c-12.2,10.8,1.6,25.2,17.3,22.1c9.1-1.8,18.1-6.4,20.9-14.4c4.1-11.7-5.6-24.7-12.2-27.1c-4.6-1.7-17.8,1.4-14.6-6.7l1-1
			c2.2,0.3,2.4,1.5,3.8,1.9c6.5-0.5,13-1,19.4-1.4c0.2-0.1,0.5-0.2,0.7-0.2c0.7-3.5,0.4-9.2-0.5-12c-3.8-2.7-23.8-2-31.4-1.9
			c-1.1,0.2-2.2,0.5-3.4,0.7c-3.7,4.6-9.9,29.7-1.4,32.6c1.8,0.6,4.1,0,5.5-0.2c7.1-1,15.4,1.5,17.8,5.5c0.5,0.6,0.5,1,0.2,1.9
			C356.3,540.5,352.9,541.1,350.9,543.7z M223.2,544.4c-7.4,2.9-8.9-6.8-17.3-7c-11.7,10.3,1.7,25,16.8,21.6
			c7.6-1.7,15.1-5.7,19.4-10.8c2.6-3.1,2.7-8.1,1.7-12.2c-0.1-1.6-0.2-3.2-0.2-4.8c-3.8-11.7-11.5-15.2-27.6-14.9c0-2.4,0.3-4,1-5.5
			c7.1-1.2,17.3,0.7,23-1c0.4-0.2,0.8-0.5,1.2-0.7c-0.1-3.5-0.2-7-0.2-10.6c-1.1-1.2-2-2.5-3.8-2.9c-4.6,0.3-9.3,0.6-13.9,1
			c-5.7,1-12.8,0.2-17.8,0.7c-2.9,3.9-8.3,28.7-1.9,32.2c2.9,1.6,8,0.3,10.6-0.2c5.4-1.2,13.1,2.8,14.6,5.8v4.3
			C226.9,541.1,225,542.7,223.2,544.4z M421.9,517.3c-2-9.5-7.5-18.1-15.8-21.1c-3.3-1.2-9.3-0.5-13.4-0.5
			c-7.8,3.8-14.1,4.7-17.3,13c-8.1,20.8,11.1,30.2,29.3,24.7h0.2c1.3,4.6-3.1,10.3-6,11.5c-2,0.8-5.3-1.1-7.2-1.9
			c-1.3-0.8-1.3-2.5-2.6-3.4c-3.4-3.9-11.9,1.3-14.4,2.6c-0.1,0.8-0.2,1.6-0.2,2.4c3.2,3.6,5.9,9.1,10.6,11c11,4.7,27.1-1.8,31-9.1
			c0.5-1.8,1-3.7,1.4-5.5c1.5-3.1,4.2-5.9,5-9.8c0.5-2.6-0.1-6.3-0.5-8.2V517.3z M403.2,521.6c-2.3,1.4-6.2,1.8-9.8,1.7
			c-1.8-1.7-3.7-4.2-4.8-6.5c-1.6-3.7,3.1-6.6,5-7.9c2.8,0.3,5.2,1.2,7.4,1.9c0.8,4,2.2,6.6,2.2,10.6V521.6z M289.2,530.7
			c-0.1-1.9-0.2-3.8-0.2-5.8c-0.4-1.9-1.5-3.8-1.9-5.3c-1.8-7.3,3.4-18.3-2.4-22.3c-2.1-1.4-7.7-0.8-11-0.7
			c-10.6,5.9-15.5,20.3-21.1,31.2c-1.8,3.6-5.2,9.8-5,14.2c-1.2,7.1,21.5,1.2,26.2,2.9c3.6,2.2-0.2,9.7,1.2,13.7
			c0.1,0.2,0.2,0.5,0.2,0.7c4.5,0.1,9,0.2,13.4,0.2c0.4-0.5,0.8-1,1.2-1.4c1.5-4.1-2.9-9.2,1-11.8c1.1-1,3.5-0.4,5-1
			c2.5-1.1,5-7,3.1-11.3C297.3,531.1,292.2,532.1,289.2,530.7z M273.4,529.8c-1.4,0.8-4,0.8-6.5,0.7c0.2-3.7,3.4-13.1,5.5-14.4
			c0.7,0.7,1.4,1.4,2.2,2.2C273.6,521.5,274,525.9,273.4,529.8z M542.4,542.5c-5.1-0.9-10.6,0.6-13.7-1.7c-0.1-0.4-0.2-0.8-0.2-1.2
			c1.2-1.5,1.8-3.5,4.6-2.6c4.5-20.3,14.7-40.5-18.5-39.8c-9.1,4.5-18.1,7.2-17.3,20.6c2.7,2.1,4.6,4,9.6,3.8
			c4.7-4.4,4.5-6.8,11.8-9.4c1.9,0.2,2.8,1.4,3.4,2.9c0.5,1.4,0.2,6.4-0.5,7.9c-2.2,4.7-7.2,7.9-10.1,12c-1.8,3.3-3.5,6.6-5.3,9.8
			c-1.7,2.4-6.8,5.8-4.8,10.8c0.1,0.2,0.2,0.5,0.2,0.7c7.4,1.4,21.5,1.6,28.8,0.2c3.6-0.6,9.1,1.2,10.8-1.2
			c1.3-1.4,2.5-9.8,1.4-12.2C542.6,543,542.5,542.7,542.4,542.5z M460.8,499.1c-2.8,0.5-5.2-0.7-6.5,1.2c-2,2.2-1.6,10.2-1,12.7
			c3.1,2.2,19.1,0.1,26.2,0c-0.7,8.7-7.3,22.2-10.8,29.3c-2,4.1-5.1,5.9-5,12.5c3,3.3,9.7,4.3,15.8,3.6c7.2-9,9-31.2,14.2-43
			c1.6-3.6,5-9.5,1.9-13.9C492.2,496.6,468.1,497.7,460.8,499.1z M239.8,662.3c-1.1-4,5.8-8.9,3.6-16.8c-2.3-8-12.6-15.5-23.5-15.4
			c-8.8,4.8-18.7,8.5-13.7,23.5c1,3.1,3.9,4.1,4.8,7c-2.4,3.4-6.4,5.2-8.2,9.4c-3.4,8.2,2.4,19.3,8.4,21.8c3,1.3,6.5,1.2,10.8,1.2
			h10.3c6.4-2,15.7-10.8,13.4-21.6C244.9,667.3,241.3,665.7,239.8,662.3z M227.8,677.4c-1,0.7-1.9,1.4-2.9,2.2
			c-1.8-0.5-3.5-1-5.3-1.4c-0.8-0.4-0.8-0.7-1.2-1.4c0.4-3.9,2.3-6.2,4.8-7.9c1.7,0.5,3.4,1,5,1.4C229,672.3,228.5,675,227.8,677.4z
			 M220.8,652.9c-0.2-2.5-2-3.6-1.2-5.8c0.7-1.2,4.1-2.2,5.8-1.7c1.7,0.7,3.6,2.5,4.3,4.1c0.1,0.8,0.2,1.6,0.2,2.4
			C226.9,654.5,225.2,652.6,220.8,652.9z M280.3,677.6c-0.5-0.6-1-1.1-1.4-1.7c2.2-3,4.3-5.9,6.5-8.9c1.8-3.1,3.6-8.8,4.6-12
			c1.1-3.7-0.2-10.1-1-12.5c-3.3-10.2-9.8-12.7-23.5-12.5c-11.3,5.9-18.6,5.8-18,22.1c2.5,2.1,4.5,4,9.4,3.8c2.4-2.2,2.9-5.5,5-7.9
			c1.4-1.6,4.8-2.6,6.7-3.6c4.3,0.2,6,8.8,3.6,13c-2.8,4.9-7.7,8.5-10.8,13c-1.6,3.1-3.2,6.2-4.8,9.4c-2.5,3-7,6.4-6.7,11.3
			c4,2.5,25.1,2.5,31,1.4c3.7-0.2,7.4-0.5,11-0.7c2.5-1.5,3-9.1,2.9-13.2C292,675.9,285.1,677.5,280.3,677.6z M114.2,664.2
			c-1-3.1,5-10.9,3.4-16.8c-2.7-9.9-11.3-16.5-24.5-16.3c-8.1,4.4-19.7,10.8-12.2,25c1,2,3.5,2.6,4.3,5c-3.1,4.3-7.9,6.4-9.4,12.7
			c-0.9,4.1,1.1,7.6,2.2,9.8c5.4,11.2,15.5,11.3,28.6,8.4c2.9-0.7,5.9-0.3,8.2-1.7c2.4-1.4,6.6-14,4.8-19.4
			C117.8,668.7,116,666.4,114.2,664.2z M102,677.4c-0.7,1.3-2.2,1.7-3.1,2.9c-2.5-0.3-3.7-0.9-6.5-0.5c-0.2-0.4-0.5-0.8-0.7-1.2
			c0.3-3.1,2.6-7,4.3-8.9c2.3,0,3.7,0.3,5.3,0.7C102.7,672.3,103.5,674.5,102,677.4z M103.9,652.9c-2.4,1.3-5,0.6-8.6,0.5
			c-2.8-3.8-2-5.4,1.7-7.7h1.9c1.7,1.5,4,2.6,5,4.8V652.9z M365.3,662.3c0.7-3.7,4.9-4.9,5.8-8.6c3.1-12.9-12.5-22.8-23.5-22.6
			c-9.4,5.3-19.6,8.8-13.7,24.5c1,2.5,3.9,3.3,4.8,6c-3.5,3.7-7.4,6.2-9.1,11.8c-3,9.4,6.8,19.2,13.2,20.6h7.2
			c12.9,0,23-4.7,23-17.5c0-2.6,0.2-5.2-0.7-7C369.9,667.1,367.6,664.7,365.3,662.3z M355.4,678.3c-1.3,0.7-2.5,1.1-3.4,2.2
			c-2.1-0.2-3.7-0.8-6.5-0.7c-0.1-4.2,1.5-8.1,4.3-9.4c2.7-1.2,5.1,1.1,6.5,2.2C356.1,674.5,355.8,676.4,355.4,678.3z M357.8,652.4
			c-1,0.8-1.9,1.6-2.9,2.4c-4.9-0.5-10.7-3.2-7-7.9c1.1-0.2,2.2-0.5,3.4-0.7c2.6,0.4,5.6,3,6.7,5C358,651.6,357.9,652,357.8,652.4z
			 M417.1,658.9c0.2-4.3,0.3-8.6,0.5-13c-2.1-7.2-12.7-15.1-22.6-14.9c-10.1,5.1-20.1,8.4-14.2,24.5c0.9,2.5,3.5,3.5,4.3,6
			c-2.8,3.7-7,6.1-8.9,10.8c-4.5,11.1,9.2,20.6,15.8,22.6c3.1,0.9,9.1,0,11.5-0.5c5.1-1,8.6-1.4,11.8-4.1c7.9-6.7,5.1-20.3-0.7-26.6
			C415.1,661.3,416.5,660.6,417.1,658.9z M399.6,680.5c-2.5-0.2-2.8-1.2-5.8-1.2c-0.4-1-0.8-2.1-1.2-3.1c1-2,2.3-3.6,3.8-5
			c2.5,0.1,3.9,0.4,6.2,0.2c0.3,0.4,0.6,0.8,1,1.2C403.2,677.2,401.8,678,399.6,680.5z M402,654.8c-2,0.8-4.7-1.2-6.7-1.9
			c-0.4-1.1-0.7-1.7-0.7-3.4c1-1,2.1-1.6,3.4-2.4c4.4,0,5.5,2.4,6.7,5.5C404.2,653.5,402.9,654.4,402,654.8z M143,632.5
			c-2.4,1.1-6,0.5-8.2,1.7c-7.3,3.9-11.3,13.8-13.9,22.8c-4.2,14.7,10.4,41.9,27.8,37C174.8,686.6,178.6,631.9,143,632.5z
			 M149.5,678.8c-2,0.8-4.5-0.3-6.5,0.7c-4.2-0.5-5.5-11-6.2-14.9c2-3.7,1.3-10.6,3.1-13.7c2.1-3.6,5.6-3.2,9.4-5.3h1.9
			c0.4,0.3,0.8,0.6,1.2,1C154.6,656.9,151.9,669.1,149.5,678.8z"/>
	</g>
</g>
<rect x="454.4" y="629.6" stroke="#000000" stroke-width="3" stroke-miterlimit="10" width="91" height="17"/>
<rect x="441.4" y="645.6" stroke="#000000" stroke-width="3" stroke-miterlimit="10" width="118" height="40"/>
<rect x="344.4" y="697.6" width="60" height="45"/>
<rect x="333.2" y="706" width="82.3" height="14.1"/>
<rect x="213.2" y="697.6" width="72.3" height="45"/>
<rect x="81.9" y="697.6" width="81.8" height="45"/>
<rect x="203.2" y="697.6" width="92.4" height="20.6"/>
<rect x="337.2" y="563.1" width="74.3" height="48.4"/>
<rect x="319.9" y="583.6" width="108.9" height="28"/>
<rect x="226.5" y="563.1" width="43.7" height="29.4"/>
<rect x="198.8" y="573.7" width="99" height="26"/>
<rect x="348.2" y="428.1" width="54.3" height="29.4"/>
<rect x="320.4" y="438.7" width="109.8" height="26"/>
<rect x="103.7" y="292.6" width="44.3" height="29.4"/>
<rect x="74.4" y="303.2" width="102.9" height="26"/>
<rect x="90.8" y="157.1" width="70.2" height="39.3"/>
<rect x="74.4" y="167.7" width="102.9" height="18.9"/>
<rect x="222.1" y="157.1" width="60.1" height="48.4"/>
<rect x="200.2" y="167.7" width="102" height="27.5"/>
<rect x="355.5" y="157.1" width="42.9" height="15.4"/>
<rect x="332.9" y="167.7" width="89.7" height="19.5"/>
<rect x="198.4" y="292.7" width="102.9" height="39"/>
<rect x="329.7" y="292.7" width="94.3" height="48.6"/>
<rect x="450.6" y="292.7" width="103.4" height="48.6"/>
<rect x="457.7" y="156.7" width="89.4" height="39.3"/>
<rect x="457.4" y="427.5" width="87.9" height="49.4"/>
<rect x="446.4" y="447.5" width="109.8" height="17.1"/>
<rect x="90.7" y="563.1" width="66.3" height="29.4"/>
<rect x="74.8" y="427.1" width="98" height="49.8"/>
<rect x="206.6" y="427.1" width="87.5" height="31"/>
<rect x="74.3" y="582.5" width="99" height="29.7"/>
<rect x="458.2" y="563.1" width="86.3" height="48.4"/>
<rect x="448.4" y="563.1" width="106" height="28"/>
<rect x="100.4" y="15.6" width="173.5" height="55"/>
<rect x="359.9" y="47.1" width="159.5" height="14.5"/>
</svg>
