<?xml version="1.0" encoding="utf-8"?>
<!-- Generator: Adobe Illustrator 18.1.1, SVG Export Plug-In . SVG Version: 6.00 Build 0)  -->
<!DOCTYPE svg PUBLIC "-//W3C//DTD SVG 1.1//EN" "http://www.w3.org/Graphics/SVG/1.1/DTD/svg11.dtd">
<svg version="1.1" id="Layer_1" xmlns="http://www.w3.org/2000/svg" xmlns:xlink="http://www.w3.org/1999/xlink" x="0px" y="0px"
	 viewBox="0 0 557.5 748.8" enable-background="new 0 0 557.5 748.8" xml:space="preserve">
<path d="M380.4,611.6h23.9v-14h-88v14h11.3c-11.2,6.2-6.5,23.4,5.9,17.9c9.5-4.2,6-15.3-2.1-17.6c-2,0.2-4.4,0.2-3.8-0.3h2.3
	c0.5,0.1,1,0.2,1.5,0.3c1-0.1,1.9-0.2,2.3-0.3h17.2c-10.3,6.7-6.6,23.3,6.2,17.9c9.9-4.2,6.1-14.9-2-17.5c-2.2,0.2-5.1,0.3-4.2-0.4
	h2.3c0.7,0.1,1.3,0.2,1.9,0.4c1.2-0.1,2.1-0.3,2.2-0.4h17.6c-13.6,7.8-2.7,25.5,8,17.3c7.2-5.5,3.3-14.7-4-16.9
	c-2,0.3-5.1,0.4-4-0.4h2.3c0.6,0.1,1.1,0.2,1.7,0.4C379.8,611.9,380.4,611.8,380.4,611.6z"/>
<rect x="317.4" y="547.6" width="90" height="35"/>
<rect x="317.4" y="508.1" width="103.3" height="35"/>
<polygon points="315.9,401.1 315.9,409.1 315.9,425.1 315.9,431.6 315.9,453.9 315.9,455.6 315.9,476.4 315.9,477.6 315.9,500.1 
	419.2,500.1 419.2,477.6 456.6,477.6 456.6,453.9 420.6,453.9 420.6,431.6 420.6,425.1 420.6,401.1 358.3,401.1 358.3,378.6 
	315.9,378.6 "/>
<polygon points="452.6,293.7 452.6,260.7 321.4,260.7 321.4,291.4 321.4,293.7 321.4,322.7 321.4,324.4 321.4,346.4 429.4,346.4 
	429.4,322.7 394,322.7 394,293.7 "/>
<path d="M557.4-0.5v139.3c-6.4-0.1-12.7,0.6-18.9,2c-32.6,7-54,25.6-78.9,45.6c-13.7,11-13,11.4,1.2,23.1
	c13.3,11,28.6,21.1,40.4,32.8c7.9,7.8,17.5,24.8,25.7,28.1c8.1-8.6,22.1-85.4,30.6-86.4v255.9c-3.5,26.9-18,55.4-26.5,81.3
	c-8.2,24.9-16.3,50-24.7,74.9c-2.2,6.6-11.8,23.3-10.5,29.4c1.6,7,9.9,7.9,17.5,10.3c7.8,2.5,38.2,4.7,44.1,10.4v92.1
	c-1.7,9.6,3.1,6.3-5.4,10.5c-5.4,2.7-16.2,0-22.4,0c-10.8,0-23.2,1.8-34.2,0.7v0.1h-192v-0.8H0.1V-0.5h306.3v677.2h134.8
	c-3-4.8-6-9.8-9.2-15.4c-5.5-9.7-16.4-24.5-18.3-34.6c-3.1-16.6,14.6-48.8,19.7-63.7c18.4-53.8,35.4-108,52.2-162.3
	c7.1-22.9,12.5-44,20.9-65.6c3.3-8.6,10.3-22.6,10.9-32c0.9-13.8-13-20.6-23.4-30c-17.6-15.8-34.5-34.4-53-49.1
	c-4.7-3.7-9.8-5.3-12-7.5c-1-1-3.7,1.6-5.2-1.2c-1.5-2.8,1.3-4.6-0.1-6.5c-4.1,3.3-5.8,3.5-5.8-2.2c-7.6,0-8.8-10.6-15.8-8.9
	c1.4-6.1-30.9-30.7-38.2-18.5c-3.7-0.4,0-2.9-1.7-5c-1.1,2.4-2.7,3.5-4.8,3.4c0.9-5.7-3.5-2.7-6.2-1.4c-0.1-3.4,1.2-6.4,4.1-9.1
	c-4.2-2.1-6.2,5.8-9.8,5.8c0.3-5.2-0.4-9.6-5.8-6.7c0.2-1.7,2.8-7.2,2.4-8.9c-2.9-0.2-5.3,1.2-7.2,4.1c0.1-3-4.4-11.6-4.8-11.5
	c1.4-3.5,1.4-4,1.4-7.7c-1.5,0-1.8,0.6-3.4,0c0-8.7,1.8-17.1,2.2-29.3c0.5-16.5,7-27.3,11.3-43c1.1-3.8,19.6-22,24.3-30.2h-54.7V-1
	L557.4-0.5z"/>
</svg>
