<?xml version="1.0" encoding="utf-8"?>
<!-- Generator: Adobe Illustrator 18.1.1, SVG Export Plug-In . SVG Version: 6.00 Build 0)  -->
<!DOCTYPE svg PUBLIC "-//W3C//DTD SVG 1.1//EN" "http://www.w3.org/Graphics/SVG/1.1/DTD/svg11.dtd">
<svg version="1.1" id="Layer_1" xmlns="http://www.w3.org/2000/svg" xmlns:xlink="http://www.w3.org/1999/xlink" x="0px" y="0px"
	 viewBox="0 0 541 742.6" enable-background="new 0 0 541 742.6" xml:space="preserve">
<circle stroke="#000000" stroke-width="3" stroke-miterlimit="10" cx="434.5" cy="93.1" r="68.5"/>
<circle stroke="#000000" stroke-width="3" stroke-miterlimit="10" cx="434.5" cy="264.1" r="68.5"/>
<circle stroke="#000000" stroke-width="3" stroke-miterlimit="10" cx="434.5" cy="436.1" r="68.5"/>
<circle stroke="#000000" stroke-width="3" stroke-miterlimit="10" cx="434.5" cy="605.1" r="68.5"/>
<circle stroke="#000000" stroke-miterlimit="10" cx="96.6" cy="129.6" r="13.9"/>
<circle stroke="#000000" stroke-miterlimit="10" cx="95.6" cy="278.6" r="13.9"/>
<circle stroke="#000000" stroke-miterlimit="10" cx="95.6" cy="491.1" r="13.9"/>
<rect x="38.5" y="150.1" width="282.8" height="9.5"/>
<rect x="81" y="159.1" width="246.3" height="9.5"/>
<rect x="414.3" y="169.8" width="38.4" height="9.5"/>
<rect x="414.3" y="342.3" width="38.4" height="9.5"/>
<rect x="413.3" y="511.6" width="38.4" height="9.5"/>
<rect x="413.3" y="684.5" width="38.4" height="9.5"/>
<rect x="38.5" y="699.5" width="59.1" height="9.5"/>
<rect x="38.5" y="170.9" width="296.6" height="9.5"/>
<rect x="81" y="179.9" width="165.7" height="9.5"/>
<rect x="38.5" y="192.1" width="309.2" height="9.5"/>
<rect x="81" y="201.1" width="207.6" height="9.5"/>
<rect x="38.5" y="212.9" width="296.7" height="9.5"/>
<rect x="81" y="221.9" width="213.3" height="9.5"/>
<rect x="38.5" y="233.4" width="302" height="9.5"/>
<rect x="81" y="242.4" width="154.4" height="9.5"/>
<rect x="38.5" y="297.1" width="307.1" height="9.5"/>
<rect x="81" y="306.1" width="205.6" height="9.5"/>
<rect x="38.5" y="317.9" width="302.4" height="9.5"/>
<rect x="81" y="326.9" width="230.7" height="9.5"/>
<rect x="38.5" y="339.1" width="309.2" height="9.5"/>
<rect x="81" y="348.1" width="188.7" height="9.5"/>
<rect x="38.5" y="359.9" width="311.1" height="9.5"/>
<rect x="81" y="368.9" width="238.2" height="9.5"/>
<rect x="38.5" y="391.1" width="305" height="9.5"/>
<rect x="81" y="400.1" width="257.9" height="9.5"/>
<rect x="38.5" y="411.9" width="303.2" height="9.5"/>
<rect x="81" y="420.9" width="88.3" height="9.5"/>
<rect x="38.5" y="433.1" width="294.9" height="9.5"/>
<rect x="81" y="442.1" width="250.3" height="9.5"/>
<rect x="38.5" y="453.9" width="283.6" height="9.5"/>
<rect x="38.5" y="380.4" width="285.4" height="9.5"/>
<rect x="38.5" y="511.5" width="287.8" height="9.5"/>
<rect x="81" y="520.5" width="183.3" height="9.5"/>
<rect x="38.5" y="532.2" width="291.8" height="9.5"/>
<rect x="81" y="541.2" width="218" height="9.5"/>
<rect x="38.5" y="552.5" width="301.2" height="9.5"/>
<rect x="38.5" y="564.2" width="301.4" height="9.5"/>
<rect x="81" y="573.2" width="225.5" height="9.5"/>
<rect x="38.5" y="584.5" width="287.1" height="9.5"/>
<rect x="81" y="593.5" width="263.1" height="9.5"/>
<rect x="38.5" y="605.2" width="300.8" height="9.5"/>
<rect x="81" y="614.2" width="209.3" height="9.5"/>
<rect x="38.5" y="626.5" width="304.4" height="9.5"/>
<rect x="81" y="635.5" width="132.6" height="9.5"/>
<rect x="38.5" y="646.9" width="302.3" height="9.5"/>
<rect x="81" y="655.9" width="237.5" height="9.5"/>
<rect x="38.5" y="668.1" width="274.4" height="9.5"/>
</svg>
