<?xml version="1.0" encoding="utf-8"?>
<!-- Generator: Adobe Illustrator 18.1.1, SVG Export Plug-In . SVG Version: 6.00 Build 0)  -->
<!DOCTYPE svg PUBLIC "-//W3C//DTD SVG 1.1//EN" "http://www.w3.org/Graphics/SVG/1.1/DTD/svg11.dtd">
<svg version="1.1" id="Layer_1" xmlns="http://www.w3.org/2000/svg" xmlns:xlink="http://www.w3.org/1999/xlink" x="0px" y="0px"
	 viewBox="0 0 2332 3212" enable-background="new 0 0 2332 3212" xml:space="preserve">
<g>
	<polygon points="1636,218 1254,218 1254,142 1086,142 1086,218 702,218 702,378 1636,378 	"/>
	<rect x="960" y="428" width="424" height="44"/>
	<rect x="1074" y="682" width="32" height="44"/>
	<rect x="1164" y="670.1" width="520" height="55.9"/>
	<rect x="1061.6" y="803.6" width="44" height="44.9"/>
	<rect x="1056.4" y="1053.1" width="49.1" height="44.9"/>
	<polygon points="1164,1667 1164,1670 1164,1711 1397.7,1711 1397.7,1667 1347.8,1667 1347.8,1614.1 1164,1614.1 	"/>
	<polygon points="1684,838.1 1684,792.1 1164,792.1 1164,838.1 1164,848 1164,880.1 1164,894 1164,922.1 1164,936 1164,978 
		1775,978 1775,936 1852,936 1852,880.1 1762,880.1 1762,838.1 	"/>
	<rect x="634" y="1054" width="366" height="44"/>
	<polygon points="1164,1054 1164,1090 1164,1098 1164,1143 1507.6,1143 1507.6,1090 1458.1,1090 1458.1,1054 	"/>
	<rect x="1056.4" y="1166.1" width="49.1" height="44.9"/>
	<rect x="809.8" y="1167" width="190.2" height="44"/>
	<rect x="1164" y="1167" width="269.8" height="44"/>
	<rect x="1056.4" y="1666.1" width="49.1" height="44.9"/>
	<rect x="741.7" y="1667" width="258.3" height="44"/>
	<rect x="1056.4" y="1876.1" width="49.1" height="44.9"/>
	<rect x="741.7" y="1877" width="258.3" height="44"/>
	<polygon points="1795.5,1877 1302.9,1877 1302.9,1838 1422.2,1838 1422.2,1782.1 1164,1782.1 1164,1835 1164,1838 1164,1877 
		1164,1879 1164,1916.2 1164,1921 1164,1973 1392.2,1973 1392.2,1921 1795.5,1921 	"/>
	<rect x="1056.4" y="2040.1" width="49.1" height="44.9"/>
	<rect x="691.3" y="2041" width="308.7" height="44"/>
	<polygon points="1672,2041 1443.6,2041 1443.6,1999 1164,1999 1164,2041 1164,2043 1164,2085 1672,2085 	"/>
	<polygon points="1846.1,2456 1340.7,2456 1340.7,2402.1 1169,2402.1 1169,2456 1169,2458 1169,2496 1169,2500 1169,2540 
		1330.9,2540 1330.9,2500 1846.1,2500 	"/>
	<rect x="747.3" y="2622" width="257.7" height="44"/>
	<polygon points="1515.7,2662 1340.7,2662 1340.7,2608.1 1169,2608.1 1169,2662 1169,2664 1169,2706 1515.7,2706 	"/>
	<rect x="2194.1" y="3114" width="31.6" height="44"/>
	<rect x="1545.6" y="3114" width="539" height="44"/>
	<polygon points="1795.9,3037.9 1795.9,3000.4 1795.9,2985 1795.9,2947.5 494.2,2947.5 494.2,2985 494.2,3000.4 494.2,3025.5 
		494.2,3037.9 494.2,3078.4 1246.5,3078.4 1246.5,3037.9 	"/>
	<polygon points="1110.6,2499 1110.6,2495.1 1110.6,2454.1 1061.4,2454.1 1061.4,2495.1 1061.4,2499 1061.4,2540 1110.6,2540 	"/>
	<polygon points="1005,2500 1005,2496 1005,2456 756.8,2456 756.8,2496 746.5,2496 746.5,2540 1005,2540 	"/>
	<polygon points="1164,2113 1164,2155 1164,2157 1164,2199 1546.9,2199 1546.9,2155 1399.8,2155 1399.8,2113 	"/>
	<rect x="1058.4" y="2154.1" width="49.1" height="44.9"/>
	<rect x="813.2" y="2155" width="186.8" height="44"/>
	<rect x="1058.4" y="2266.1" width="49.1" height="44.9"/>
	<rect x="826.3" y="2267" width="173.7" height="44"/>
	<polygon points="1837.1,2267 1453.3,2267 1453.3,2225 1164,2225 1164,2267 1164,2269 1164,2311 1837.1,2311 	"/>
	<rect x="1056.4" y="1928.1" width="49.1" height="44.9"/>
	<rect x="1054" y="1233.1" width="51.6" height="44.9"/>
	<rect x="745.7" y="1234" width="254.3" height="44"/>
	<polygon points="1363.3,1234 1164,1234 1164,1270 1164,1278 1164,1323 1757.2,1323 1757.2,1270 1363.3,1270 	"/>
	<rect x="1054" y="1346.1" width="51.6" height="44.9"/>
	<rect x="720.9" y="1347" width="279.1" height="44"/>
	<polygon points="1164,1347 1164,1383 1164,1391 1164,1436 1724.8,1436 1724.8,1383 1514.5,1383 1514.5,1347 	"/>
	<rect x="1054" y="1458.1" width="51.6" height="44.9"/>
	<rect x="750" y="1459" width="250" height="44"/>
	<polygon points="1164,1495 1164,1503 1164,1548 1747.5,1548 1747.5,1495 1617.1,1495 1617.1,1459 1164,1459 	"/>
</g>
</svg>
