<?xml version="1.0" encoding="utf-8"?>
<!-- Generator: Adobe Illustrator 18.0.0, SVG Export Plug-In . SVG Version: 6.00 Build 0)  -->
<?xml-stylesheet type="text/css" href="css/svg.css" ?>
<svg version="1.2" baseProfile="tiny" id="scan_1_xA0_Image_1_"
	 xmlns="http://www.w3.org/2000/svg" xmlns:xlink="http://www.w3.org/1999/xlink" x="0px" y="0px" viewBox="0 0 1024 768"
	 xml:space="preserve">
<g>
	<path d="M414.7,277.3l0.1,0.3l0.2,0.2c0.6,0.6,1.2,0.8,1.8,0.9c0.2,1-0.2,2.1-0.8,3.6c-0.6,1.4-1.2,2.9-1.2,4.7l0,0.1l0,0.1
		c0.3,2.8,0.6,5.6,1,8.3l0,0.2c0.1,1.9,0.2,3.6,0.2,5.5c-0.1,0.1-0.1,0.2-0.2,0.3c-0.7,1-1.9,2.4-0.6,5l0.1,0.2
		c0.6,0.8,1.7,1.6,6.3,1.6c0,0,0,0,0,0c2.2,0,4.7-0.2,5.9-0.5l0.3-0.1c0,0,0,0,0.1,0h1.2V304l-1.1-0.3c-2.1-0.6-3.2-1.2-4.6-1.9
		c-0.3-0.2-0.7-0.4-1.1-0.6c-1.7-3.6-0.2-11.1,0.9-16.7c0.4-2.2,0.8-4.1,1-5.7c0.4,0,0.8-0.1,1.1-0.1h1.2l0.2-1.2
		c1-5.5,1.4-12.9-0.2-17.3c0.1-4,0.2-8.2,0.2-12.4l0-0.2c-0.3-1.9-0.8-3.4-1.4-4.8c-0.6-1.6-1.2-3.1-1.4-5.3c0.3-0.1,0.6-0.1,1-0.2
		l1.1-0.3l0-1.1c0-0.7,0.2-1.6,0.4-2.5c0.4-1.9,0.9-4-0.1-6l-0.1-0.2l-1.3-1.3l-0.1-0.1c-0.9-0.7-1.9-1.1-3.1-1.1
		c-2.5,0-4.7,1.6-5.3,2.1l-0.4,0.3l-0.1,0.5c-0.7,2.5-0.7,5.8,1.3,7.6c-0.2,1.7-0.9,3-1.7,4.4c-0.8,1.5-1.7,3.1-2,5.4l0,0.2l0,0.2
		c0.6,4.3,1.3,8.7,2,13.1c-0.2,0.2-0.4,0.6-0.6,0.9C413.3,263.2,413,273.7,414.7,277.3z"/>
	<path d="M409.6,401.5c-2.1,1.5-4.5,3.2-5.9,6.3l-0.2,0.4l0,0.4c0.4,4.2,3.3,6.4,5.8,8.4c1,0.8,1.9,1.5,2.7,2.3
		c-1.7,3.3-1.4,7.5-1.1,12c0.1,1.6,0.2,3.3,0.3,4.9l0,1.1l1.1,0.3c0.4,0.1,0.8,0.2,1.3,0.3c0.1,0,0.2,0,0.2,0
		c-0.1,1.3-0.5,2.3-0.9,3.5c-0.3,1-0.7,2-0.9,3.3l0,0.2l1.2,14.6c-0.1,0.4-0.3,0.8-0.4,1.2c-0.5,1.2-1.1,2.6-0.7,5l0.2,0.8l0.7,0.3
		c1.3,0.6,6.3,0.6,6.5,0.6c0,0,0,0,0,0c4.1,0,5-0.5,5.3-0.7l0.2-0.1c0.1-0.1,0.2-0.2,0.3-0.2c0.7-0.5,1-1.1,0.8-1.9
		c0-0.1,0-0.2-0.1-0.4l-0.1-1.1l-1.1-0.2c-1.9-0.4-2.8-1-3.8-1.7c-0.5-0.4-1-0.8-1.7-1.1c-1.3-3.6-0.2-9.5,0.9-14.7
		c0.5-2.6,1-5.1,1.2-7.3c0.5,0,0.9-0.1,1.4-0.1h1.4l0.1-1.4c0.1-2.1,0.2-4.2,0.3-6.4c0.1-2.1,0.2-4.3,0.3-6.4l0-0.2l-0.2-1.2
		c-0.4-2.2-0.8-4.1-0.8-6.8v-10.2l-0.1-0.2c-0.3-1-0.7-1.8-1.1-2.7c-0.7-1.5-1.3-2.9-1.4-4.9c0.1,0,0.2,0,0.3,0h1.2l0.2-1.2
		c0.6-3,0.8-4.6,1-7.9l0-0.6l-0.4-0.5c-0.2-0.2-0.3-0.4-0.5-0.6c-0.3-0.3-0.6-0.6-0.8-1l-0.3-0.5l-0.6-0.1c-2.5-0.6-4.2-0.4-6.4,0.2
		l-0.5,0.1l-0.3,0.4c-2.8,3.9-1.4,7.1,0.1,9.2C414.1,398.3,412,399.8,409.6,401.5z M412,411.6c0,0-0.1-0.1-0.1-0.1
		c-0.4-0.5-0.7-1-1.1-1.5c0.1-0.1,0.3-0.2,0.4-0.3c0.1-0.1,0.2-0.2,0.3-0.2C411.7,410.1,411.9,410.9,412,411.6z"/>
	<path d="M264.4,439.5c-0.8,0.6-1.6,1.2-2.3,2.1l-0.1,0.2l-0.1,0.2c-0.7,1.9-1.5,3.8-2.2,5.7c-1,2.7-2.1,5.3-3.1,8
		c-0.2,0.4-0.6,0.9-1.1,1.3c-0.7,0.7-1.4,1.5-1.9,2.6l-0.1,0.3v2.7l0.9,0.4c1.6,0.7,3.3,1.4,4.9,2.1c1.6,0.7,3.3,1.4,4.9,2.1
		l0.9,0.4l2.7-2.7l-0.9-1.1c-0.6-0.7-1.2-1.3-1.7-1.8c-1.2-1.2-2.2-2.1-2.9-3.9c1.1-1.9,2.6-3.9,4.1-5.9c2.1-2.8,4.3-5.9,6-9.2
		c-0.4,2.3-0.8,4.5-1.2,6.8c-1.4,0.6-2,1.6-2.6,2.4c-0.2,0.3-0.4,0.6-0.6,0.9l-0.3,0.4v2.5l0.6,0.4c0.4,0.3,0.9,0.6,1.4,1
		c2.6,1.9,5.8,4.2,8.8,4.6l1.7,0l0.3-1.1c0.1-0.4,0.2-1,0.2-1.5v-0.5l-0.3-0.4c-0.4-0.5-0.9-1-1.3-1.5c-1.1-1.1-2-2.1-2.3-3.8
		c0.3-0.8,0.5-1.6,0.7-2.4c0.3-0.9,0.5-1.8,0.8-2.7c0.6-2,1.3-3.9,2-5.7c2.8-7.4,5.3-13.8-3.8-20.2c-0.4-0.3-0.8-0.6-1.2-1
		c-0.8-0.7-1.7-1.4-2.8-2c-0.7-1.4-0.8-2.7-0.8-4.5c0.7,0.3,1.3,0.6,1.9,0.9l1.8,0.9l0.7-0.8c2.5-2.6,4.5-5.6,6.4-8.6
		c1.3-2,2.7-4.1,4.2-6l0.6-0.7l-0.4-0.9c-0.1-0.2-0.2-0.4-0.3-0.6c-0.2-0.6-0.5-1.1-0.9-1.5v-1.6l-1.6,0.8c0,0,0,0,0,0l-0.8-0.2
		l-0.6,0.6l-0.3-0.1l-0.7,1.2c-0.1,0.3-0.3,0.5-0.4,0.8l-1.7-2.4l-0.3,4.1c-0.1,1.1-0.2,2.2-0.2,3.3c-0.6,1.2-1.7,2.2-2.9,3.3
		c-0.5,0.4-0.9,0.8-1.4,1.3c-1.8-1.7-5.5-6.2-5.8-12.9c0.3-0.1,0.5-0.1,0.8-0.2l0.7-0.2l0.2-0.7c1.3-3.5,1.3-7,0.2-9.9l-0.2-0.6
		l-0.6-0.2c-1.6-0.7-3.2-0.9-5.5-0.8l-0.4,0l-0.7,0.5c-0.9,0.6-1.8,1.1-2.6,2.4l-0.1,0.2l-0.1,0.2c-0.6,2.5-0.2,5.5,1.5,7.1
		c-0.4,3.6-2.2,5.9-4.1,8.3c-1.5,1.9-3,3.8-3.9,6.4c-1.1,3.1-1,6.1-0.9,9c0.1,2.5,0.2,4.9-0.5,7.4c-0.2,0.5-0.4,1-0.6,1.5
		c-0.2,0.4-0.3,0.8-0.5,1.1l-1.9-0.6l0.9,2.5l-0.6,1.2h1.1c0,0,0,0.1,0.1,0.1c0,0.1,0.1,0.1,0.1,0.2c0,0,0,0.1-0.1,0.4l-0.3,1.2
		l1.2,0.5c0,0,0.1,0,0.1,0c0,0,0,0,0,0l0.8,0.9l1.1-0.5c1.6-0.8,2.2-2.2,2.5-3.5h1.9l-0.4-1.8c-0.8-3.8-0.3-10.5,1.1-15.7
		c0.1-0.1,0.1-0.2,0.2-0.3c0.2,1.9,0.4,3.7,0.7,5.5c-0.6,2.6-1,4.5-1.3,6.3l0,0.2l0,0.2c0.4,5.6,5.3,12,7.2,14.3
		C265.6,438.6,265,439,264.4,439.5z M274.8,435.1c0.1-0.5,0.1-1,0.1-1.6c0.3,0,0.5,0.1,0.8,0.1C275.4,434.1,275.1,434.6,274.8,435.1
		z"/>
	<path d="M302.9,134.6l-0.1,0.2l-0.1,0.2c-0.3,1.3-0.6,2.5-0.9,3.8c-0.3,1.2-0.6,2.5-0.9,3.7c-0.3,0.6-0.6,1.1-1.1,1.7
		c-0.9,1.2-2,2.6-2,5.6v1.5h6.8l0.1-1.4c0.1-1,0.2-1.9,0.3-2.9c0.1-0.8,0.2-1.7,0.3-2.5c0.7-0.9,1.5-1.9,2.3-2.8l0.4-0.5l0.1-0.2
		c0.5-0.9,1.1-2.1,1.8-3.5c1.9-4,6-12.4,9-12.4c0.1,0,0.2,0,0.3,0l1.2,0.2l0.5-1.1c0.2-0.4,0.4-0.9,0.6-1.3c0.2,0.3,0.4,0.7,0.5,1
		l0.3,0.5l0.6,0.2c0.6,0.2,1.1,0.2,1.6,0.2c0.4,0,0.7,0,0.9,0.1c1.7,1.6,11.1,16.7,12.3,19.3c-0.1,1.7-0.2,3.2-0.2,4.9v0.4l0.2,0.4
		c0.9,1.5,2.7,1.5,3.3,1.5c0.4,0,0.9,0,1.4-0.1l1.4-0.1l0.3-1c0.1-0.3,0.2-0.7,0.3-1.3c0.4-2.2-0.9-5.2-2.2-8
		c-0.6-1.3-1.1-2.6-1.4-3.5c-1-3.4-2.5-6-3.9-8.4c-1-1.6-1.9-3.1-2.6-4.8c-0.1-0.6-0.1-1.2-0.2-1.8c-0.1-0.7-0.1-1.4-0.2-2.1l0-0.2
		c-0.8-2.6-1.9-5.5-3-8.3c-0.5-1.4-1.1-2.8-1.5-4.1c-2.2-6.5,0.7-11.7,3.4-16.6c1.4-2.6,2.8-5.1,3.4-7.7c1.2-5.5-1.8-9.9-4.4-13.9
		c-1.6-2.3-3-4.6-3.6-6.8l-0.4-1.8l-1.3,0.6c0,0-0.1-0.1-0.1-0.1l-1-0.9l-1,0.9c-0.2,0.2-0.3,0.2-0.3,0.3c-0.1,0-0.3,0-0.4,0.1
		l-2.2,0.3l0.2,0.4L321,62c0,0,0,0,0,0c0,0,0,0,0,0l-0.4-0.8h-4.1l-0.4,1c-0.9,2.5-2.3,4.7-3.8,6.9c-2.1,3.1-4.2,6.4-4.9,10.8
		c-0.8,5,1.8,9.1,3.9,12.4c0.9,1.4,1.7,2.8,2.2,4c0.7,1.9,0.3,9.4-0.3,12.3l0,0.1c-1.5,4.5-3.1,9-4.6,13.6l-0.2,0.5l0.2,0.5
		c0.1,0.3,0.2,0.5,0.4,0.8c-0.9,1.6-1.9,3.2-2.8,4.9C305.1,130.9,304,132.7,302.9,134.6z M321.1,65.2c0.2-0.4,0.4-0.8,0.6-1.2l0.5-1
		l0.4,0.9c0.1,0.2,0.3,0.5,0.4,0.7c0.1,0.2,0.2,0.3,0.3,0.5l0.2,0.3l0.4,0.3h-3C320.9,65.5,321,65.4,321.1,65.2z M323.4,68.5
		l0.1,0.1c0.6,0.3,1.2,0.6,1.8,0.8c0.4,0.2,0.8,0.4,1.2,0.6c0.7,1.5,1.4,2.9,2.1,4.4c0.7,1.4,1.4,2.9,2.1,4.4c-1,2.7-2,5.5-3,8.1
		c-0.8,0.1-1.3-0.1-2.1-0.6c0.1-0.5,0.2-1,0.4-1.4c0.6-2.3,1.3-4.8-0.8-7.8l-0.3-0.5l-0.5-0.1c-3.2-0.9-5.3-0.5-6.4,1
		c-1.5,2-0.7,5.1,0.1,7.9c0.1,0.3,0.2,0.7,0.3,1c-0.8,0.5-1.5,0.8-2.1,0.7c-0.8-1.5-2.9-6.9-3.2-8.2c0.9-3.6,4.4-9.3,7.4-9.8
		L323.4,68.5z"/>
	<path d="M262,82.5l-0.3,0.2l-0.2,0.3c-1.4,2-1.5,4.9-1.7,7.7c-0.1,1.9-0.2,3.8-0.7,5.3c-2,6.4-3.2,14.2-3.1,20.9l3,0.1
		c0.1-0.9,0.2-1.7,0.3-2.7c0-0.2,0.1-0.3,0.1-0.5l0.9,0c-0.2,0.9-0.3,1.9-0.5,2.8c-0.3,2.3,0.4,3.6,0.8,4.5c0.1,0.2,0.2,0.4,0.3,0.6
		l0,0.1c-0.4,3.3-0.7,6.5-1.1,9.9l0,0.2l0,0.2c0.3,3,0.6,6,1,9.2c0.2,1.1-0.3,2-0.9,3.2c-0.8,1.5-1.7,3.3-0.8,5.5l0.1,0.3l0.2,0.2
		c0.9,0.9,2.3,1,3.3,1c0.5,0,1.1,0,1.6-0.1l1.1-0.1l0.2-1.1c0.9-4,1.1-8.3,1.3-12.5c0.2-4.5,0.5-9.2,1.5-13.6c0.3-1.2,0.8-2,1.3-2.8
		c0.1-0.2,0.2-0.3,0.3-0.5l0.2,0.4l0.4,0.2c0.5,0.3,0.9,0.5,1.5,0.8c0.1,0.8,0.2,1.6,0.3,2.5c0.1,0.9,0.2,1.8,0.3,2.7l0,0.1
		c1.6,7.7,1.7,15.5,1.6,22l0,1.4l1.7,0.1c1.3,0.1,2.5,0.2,3.8,0.2h1.2l0.3-1.2c0.4-1.8-0.1-3.3-0.5-4.9c-0.3-1-0.6-2-0.6-3
		c0.2-1.2,0.4-2.5,0.6-3.7c0.2-1.3,0.4-2.6,0.6-3.8l0-0.2l0-0.2c-0.4-3.9-0.9-7.9-1.3-11.9l0.8-0.1l0.3-1c0.5-2.1,0.5-4.3,0.3-6.5
		l0,0c0.1,0.1,0.4,0.2,0.7,0.3c0,0.5,0,0.9,0,1.3v6.5l2.8-5.9c1.9-3.9-2.7-26.3-3.4-28.4c-0.2-0.6-0.3-1.3-0.3-2
		c-0.1-1.3-0.2-2.6-1-3.7l-0.2-0.3l-0.3-0.2c-1.7-1-3.5-2-5.2-3c0.1-0.7,0.4-1.5,0.7-2.2c0.7-2.1,1.6-4.7-0.4-7.1
		c-1.1-1.8-3-2.1-4.4-2.1c-0.4,0-0.9,0-1.4,0.1l-0.5,0l-2.1,2.1l-0.1,0.5c-0.5,2.8,0,4.4,0.5,6c0.3,0.9,0.5,1.7,0.6,2.7
		c-0.8,0.4-1.6,0.9-2.3,1.3C264.1,81.3,263.1,81.9,262,82.5z M260.7,111.8c0.1-1.2,0.1-2.5,0.1-3.7c0.3-1,0.7-2.2,1.1-3.4
		C261.6,107.1,261.2,109.4,260.7,111.8z M279.2,105.8c-0.4-1.4-0.8-2.7-1.1-3.8c-0.4-1.5-0.4-3-0.3-4.7c0.9,3.4,1.8,8,2.3,11.5
		C279.9,107.9,279.5,106.8,279.2,105.8z"/>
	<path d="M552.9,404.2c1.3,0.6,2.9,0.8,4.8,0.8c4.2,0,9.2-1.3,13.6-2.4c1.7-0.4,3.4-0.9,4.7-1.1c0.1,0.1,0.1,0.3,0.2,0.5
		c1.1,2.5,2.5,5.7,4.5,6.8l0.3,0.2l0.6,0c2.1,0.1,4,0.2,6.1,0.2h4.5l-3.6-2.7c-1.4-1-2.7-1.5-3.8-1.9c-1.8-0.7-2.6-1-2.8-3.8
		c1.4-0.5,2.6-1.2,3.7-1.8c1.7-0.9,3.1-1.7,5-1.8v1.2l0.7,0.4c1.6,1,3,1.3,4.3,1.6c0.8,0.2,1.6,0.3,2.5,0.7l0.3,0.1l0.3,0
		c2.1-0.1,3.3-1.1,3.9-1.9c1.4-2,1.1-5,0.3-7.2l-0.2-0.5l-0.4-0.3c-1.4-0.9-2.6-1.3-3.8-1.3c-0.8,0-1.5,0.2-2.2,0.4
		c-0.8,0.2-1.5,0.4-2.5,0.2c-0.7-0.1-2.1-0.7-3.5-1.2c-3.2-1.2-7.1-2.8-10.6-2.8c-2.7,0-4.8,0.9-6.2,2.7l-0.2,0.3l-0.1,0.4
		c0,0.2-0.1,0.4-0.1,0.6c-1.4-0.1-2.5-0.3-3.7-0.6c-0.8-0.2-1.7-0.4-2.7-0.5l-0.3,0l-0.3,0.1c-2.2,0.5-4.5,0.9-6.7,1.4
		c-2.3,0.5-4.5,0.9-6.8,1.4l-0.4,0.1l-0.3,0.3c-0.8,0.7-1.1,1.2-1.1,2c-0.9,0-1.9-0.2-2.9-0.4c-1.2-0.2-2.4-0.4-3.7-0.4
		c-0.6,0-1.2,0-1.8,0.1l-0.2,0c-1.6,0.4-3.2,0.8-4.8,1.2c-1.9,0.5-3.9,1-5.7,1.5c-0.4,0-0.9-0.2-1.5-0.4c-0.9-0.3-1.9-0.7-3.3-0.7
		c-0.4,0-0.7,0-1.1,0.1l-0.2,0l-0.2,0.1c0,0,0,0-0.1,0h-1.2l-0.1,1.4c0,0.6-0.1,1.2-0.1,1.8c-0.3,4-0.7,9.4,3.9,10.2l1.9,0l0.1-1.4
		c0.1-1.2,0.2-2.4,0.2-3.8c2.7-1.6,8.8-2.7,15.2-2.7c2.4,0,4.6,0.2,6.3,0.5c0.1,0.2,0.1,0.4,0.1,1v1L552.9,404.2z"/>
	<path d="M553.9,94c-3,0.8-5.5,2.4-8,4c-1.6,1-3,1.9-4.6,2.6c-0.6,0.3-1.3,0.3-2,0.3c-1.1,0-2.5,0.1-3.8,1l-0.2,0.2l-0.2,0.2
		c-0.2,0.3-0.4,0.6-0.6,1c-0.2,0.3-0.4,0.6-0.6,0.9l-0.5,0.8l0.5,0.8c1.3,2.2,4.3,5.2,6.3,6.6l0.1,0.1c0.5,0.3,1.2,0.4,1.9,0.4
		c0,0,0,0,0,0c0.9,0,1.9-0.2,2.6-0.6l0.4-0.3c0.2-0.1,0.4-0.2,0.6-0.5l1-1l-0.9-1.1c-0.4-0.5-0.9-0.9-1.2-1.2
		c-0.6-0.6-1-0.9-1.3-1.6c5.8-3,13.5-5.3,20.2-6c0.2,0.4,0.4,0.8,0.6,1.2l0.5,1l1.1-0.2c3.4-0.6,20-7.2,25.8-10.6
		c-0.1,1.7-0.4,3.8-0.8,5.8c-0.8,5.2-1.7,10.6,0.5,13.5c1.3,1.8,5.7,1.8,5.9,1.8c1,0,1.8-0.1,2.5-0.4c0,0,0,0,0.1,0h8.6l-8.3-2.9
		c-1.6-0.6-3.3-1.2-5-1.8c-0.3-3.4,1.5-7.9,2.9-11.6c0.6-1.7,1.3-3.2,1.6-4.6c0.2-0.8,0.3-1.8,0.3-2.9c0.1-1.1,0.2-3.2,0.6-3.6
		c0.3-0.3,0.5-0.4,0.5-0.4c0.2,0.1,0.7,0.6,0.9,0.8l0.5,0.5l0.7,0c1.6-0.1,3-0.7,4.1-1.1c0.8-0.3,1.6-0.6,2.1-0.6c0.1,0,0.1,0,0.1,0
		l0.8,0.2l0.6-0.5c1-0.9,1.5-1.6,1.7-3.2c0.7-2.5-1.4-4.7-2.5-5.9l-0.5-0.6l-0.5-0.1c-0.5-0.1-1-0.2-1.5-0.3
		c-0.4-0.1-0.9-0.1-1.3-0.2l-0.6-0.1l-0.5,0.3c-1.2,0.7-2,1.5-2.7,2.2c-0.5,0.5-0.9,0.9-1.5,1.3c-3.7,0.3-7.5,0.6-11.3,0.9l-0.4,0
		l-0.5,0.3c-2.5,1.8-5,3.5-7.7,5.4c-0.6,0.2-1.3,0.3-2.1,0.3c-0.5,0-1.1,0-1.6-0.1c-1.3-0.1-2.5-0.1-3.5,0.1l-0.3,0.1
		c-2.8,1.4-5.5,2.8-8.3,4.2c-1.4,0.7-2.8,1.4-4.3,2.1l-1.2,0.6l0.4,1.2c0,0.1,0.1,0.2,0.1,0.4c-0.7,0.2-1.5,0.2-2.5,0.3
		C556.7,93.6,555.4,93.6,553.9,94z"/>
	<path d="M446.9,282.8c0,0.5-0.1,1-0.2,1.4c-0.2,1.2-0.6,2.7,0.6,4.6c1.4,2.2,4.6,3.4,8.6,3.4c0,0,0,0,0,0c2.6,0,5.2-0.6,6.9-1.6
		c0.1-0.1,0.2-0.1,0.3-0.2c-1.1,3.8-2.8,8.7-3.6,10.1l-0.2,0.1l-0.3,0.6c-0.8,1.6-0.7,3-0.7,4.9l0.1,1.2l0.8,0.4
		c1.2,0.6,2.9,0.9,5.3,0.9c2.4,0,4.9-0.3,6.5-0.5l0.8-0.1l0.3-0.7c0.1-0.2,0.2-0.5,0.3-0.7c0.1-0.1,0.1-0.3,0.2-0.4l0.7-1.3L472,304
		c-0.1-0.1-0.5-0.2-0.9-0.3c-0.8-0.4-1.5-0.7-2-0.9c-1.1-0.5-1.8-0.8-2.8-1.5c-0.1-0.1-0.2-0.1-0.2-0.2c0-2.4,2.1-5.3,4.1-8.1
		c2.9-3.9,5.8-8,4.7-12.4l-0.1-0.3c-1-2-3.7-3-8.6-3.2c0.5-0.4,1.1-0.8,1.6-1.1l0.3-0.2c0.6-0.7,0.9-1.4,1.2-2
		c0.2-0.6,0.4-0.9,0.7-1.1c5-1.3,10.5-1.6,15.8-1.8c4.4-0.2,8.5-0.4,12.5-1.1l0.8-0.2l0.3-0.7c0.1-0.2,0.3-0.6,0.3-1.1v-1.4
		l-1.4-0.1c-4.5-0.3-8.9-0.6-13.4-0.9c-3.2-0.2-6.5-0.5-9.7-0.7l0,0c0.6-1.6,1.3-3.5,1.4-5.2h0.5l-0.2-1.7c-0.2-1.6-0.6-2.2-1.2-3
		c-0.1-0.1-0.2-0.3-0.4-0.5l-0.3-0.5l-0.9-0.2c-0.9-0.2-2-0.5-3.1-0.5c-0.9,0-1.7,0.2-2.3,0.5c-3.9,1.9-3,5.2-2.5,7.3
		c0.2,0.7,0.4,1.4,0.4,1.9c0,0.1,0,0.1-0.1,0.2C457.2,266.4,447.2,270.6,446.9,282.8z"/>
	<path d="M431.4,99.4l0,0.2l0,0.2c0.5,3.8,1,7.8,1.3,11.6c-0.1,0.7-0.3,1.4-0.4,2.2c-0.8,3.9-1.8,8.8,1.7,11.6
		c1.4,1.1,3.8,1.5,7.7,1.5c1.6,0,3.3-0.1,4.7-0.1c1.3-0.1,2.4-0.1,3.4-0.1h0.4c-0.2,0.7-0.4,1.4-0.6,2.1l0,0.2
		c-0.7,3.7-0.1,7,0.5,9.8c0.2,1,0.4,2,0.5,2.9c0.2,1.3-0.2,2.2-0.7,3.2c-0.6,1.4-1.4,3.1-0.1,5.4l0.2,0.3c0.7,0.8,3.2,1.2,7.6,1.2
		c3.7,0,4.5-0.5,4.9-0.7l2.4-2.3l-8.2-4.3c-0.7-3.3,0.1-7.3,0.9-11.2c1.3-6.5,2.8-14-4-17.3c-2.5-1.2-5.8-2.6-9.1-2.6
		c0-1.3,0.1-2.7,0.1-4.1c0.3,0.1,0.5,0.2,0.8,0.3l0.6,0.2l0.6-0.3c1.2-0.6,2-1,2.9-2.1l0.2-0.3l0.1-0.4c0.1-0.6,0.2-1.4,0.2-2.1V104
		l-0.5-0.4c-0.4-0.3-0.8-0.7-1.2-1c-3.1-2.6-6.1-5.1-6.3-10c0.1,0,0.1,0,0.2,0h0.9l0.4-0.8c1.1-2.2,1.2-4.7,1.2-6.8
		c0-0.6,0-1.2,0.1-1.7l0.1-0.8l-0.6-0.5c-0.4-0.4-0.9-0.7-1.2-1.1l-0.1-0.1c-0.9-0.7-2.1-1-3.9-1c-0.4,0-0.7,0-1.1,0l-0.3,0
		l-3.1,1.5l-0.2,0.5c-1.2,2.7-1.1,6.4,0.9,8.3c-0.2,1.6-0.9,2.8-1.6,4.1C432.6,95.5,431.7,97.1,431.4,99.4z"/>
	<path d="M378.8,489c3.5,0,5.8,0.4,6.8,1.2l1.1,0.9l0.9-1.1c0.2-0.2,0.4-0.4,0.6-0.5c0.5-0.5,1.2-1.1,1.6-2.3l0.3-0.9l-0.7-0.6
		c-0.8-0.7-1.5-1.3-2.3-2.1l-2.6-2.6v3.3c-1.8,0.3-6.1,0.7-12.1,0.7c-6,0-11.5-0.3-13-0.8l-1.7-0.5l-0.2,1.7
		c-0.1,0.7-0.2,1.5-0.2,2.3v1.2l1.1,0.3c1.4,0.4,3.1,0.5,5.5,0.5c2.3,0,4.9-0.2,7.4-0.3C373.9,489.2,376.5,489,378.8,489z"/>
	<path d="M338.2,451.5l0.3,0.1l2.8,0l0.3-1c0.1-0.3,0.3-0.8,0.3-1.4l0-0.8l-0.6-0.4c-1-0.7-2-1.5-3.1-2.2c-2.1-3-0.9-7.3,0.3-11.9
		c1.2-4.2,2.4-8.5,1.3-12.6l-0.1-0.3c-1.7-3.3-5.2-3.3-8.1-3.4c-1.4,0-2.7,0-3.8-0.3c-1-0.7-1.1-1.2-1.1-1.4c-0.2-1.9,3.4-5,5.7-7.1
		c1.6-1.4,3-2.7,3.8-3.8c2-1.5,2.1-2.6,1.6-4.4c-0.1-0.3-0.2-0.6-0.2-0.9l-0.2-0.8l-0.8-0.3c-0.3-0.1-0.8-0.3-1.4-0.3h-1l-0.4,0.9
		c-0.1,0.2-0.2,0.5-0.4,0.8v-7.2l-3.1,8.6c-1.2,3.4-2,5.4-4.3,6.5v-2.7c-0.1-1.9-0.7-3.5-1.4-5c-0.6-1.3-1.1-2.6-1.3-4.1
		c0.1,0,0.2,0,0.3,0h1.1l0.3-1.1c0.4-1.5,0.6-2.9,0.7-4.1c0.1-1.1,0.2-2.1,0.5-3l0.2-0.5l-0.2-0.5c-0.2-0.4-0.4-0.8-0.5-1.1
		c-0.1-0.1-0.1-0.2-0.2-0.4L325,385l-0.3-0.2c-1.1-0.8-2.8-1.6-4.6-1.6c-0.8,0-1.5,0.1-2.1,0.4c-1.5,0.5-2.2,1.2-2.9,2.4
		c-1.7,2.2-0.6,5.3,1.1,7.7c-0.3,1.6-1,2.8-1.6,4.1c-0.8,1.5-1.6,3-1.9,5c-0.6,3,0.2,5.6,0.8,7.7c0.2,0.8,0.4,1.5,0.6,2.2
		c0.5,2.4-0.1,4.5-0.6,6.5c-0.5,1.9-1,3.8-0.6,5.8c0.5,2.8,2.4,5.7,4.2,8.5c1.3,2,2.7,4,3.1,5.6c-2.6,3.7-3.1,7.2-3.7,10.9
		c-0.4,2.4-0.8,4.9-1.7,7.8c-0.1,0.4-0.4,0.8-0.7,1.2c-0.7,1-1.7,2.4-1.2,4.6v1.2l0.8,0.4c2,1.1,6.5,2.2,9.8,2.2
		c0.9,0,1.7-0.1,2.3-0.3l0.6-0.2l0.3-0.6c0.1-0.2,0.4-0.8,0.4-1.4v-1l-0.9-0.4c-0.5-0.2-0.9-0.4-1.4-0.6c-0.4-0.1-0.7-0.3-1.1-0.4
		c-0.5-0.6-1-1.2-1.5-1.7c-0.4-0.5-0.9-1-1.3-1.5c0.7-4.1,2.4-7.9,4.2-11.5c1.2-2.6,2.5-5.3,3.3-8c0.8-2.6,0.6-5.1,0.4-7.4
		c0.3,0,0.5,0,0.7,0c0.5,0.1,1,0.1,2,0c-0.3,2.6-0.5,5.3-0.5,8.2c-1.4,0.9-1.9,2.1-2.3,3.5l-0.2,0.6l0.1,0.6
		c0.1,0.4,0.1,0.8,0.1,1.2v1.2l1.1,0.3c2.4,0.6,4.5,1.6,6.7,2.6C336.9,451,337.5,451.2,338.2,451.5z"/>
	<path d="M346.9,265.1l-0.7-0.6c-0.9-0.8-2.3-1.2-4-1.2h-1.3l-0.2,1.3c-0.5,3.2-1,6.4-1.5,9.7c-0.5,2.9-0.9,5.8-1.4,8.7
		c-0.4,0.1-0.8,0.1-1.3,0.1c-0.3,0-0.5,0-0.7,0c-0.1-0.7-0.4-1.2-1-1.6l-0.2-0.2l-0.3-0.1c-0.5-0.1-1-0.2-1.6-0.3
		c-0.4-0.1-0.7-0.1-1.1-0.2c-0.9-0.7-1.8-1.4-2.7-2.1c-1.5-4,0.3-12.7,1.5-18.5c0.3-1.3,0.5-2.5,0.7-3.5c0.4,0,0.7-0.1,1-0.1h1
		l0.4-0.9c2-4.5,1.2-13.7,0.1-17.6c0.1-4.1,0.2-8.8,0.2-13.3l0-0.4c-0.3-1.4-0.8-2.5-1.3-3.6c-0.6-1.6-1.3-3.1-1.4-5.1
		c0.2,0,0.4,0,0.6,0l1.4-0.1l0.1-1.4c0.3-4.1,0.5-8.4-1.4-10.5c-0.7-0.8-1.7-1.2-2.7-1.2c-1.5,0-3.3,0.8-5.5,2.5l-0.4,0.3l-0.1,0.5
		c-0.7,2.5-0.7,5.8,1.2,7.6c-0.2,1.9-1,3.4-1.8,5c-0.7,1.3-1.3,2.6-1.7,4.2c-0.3,1-0.1,3.5,1.7,12.5l0.1,0.5
		c0.1,0.7-0.4,1.6-0.9,2.6c-0.5,0.8-1,1.7-1.2,2.7l0,0.2l0,0.2c0.1,2.2,0.2,4.5,0.3,6.7c0.1,2.3,0.2,4.7,0.3,7.1l0,1.1l1.1,0.3
		c0.4,0.1,0.8,0.2,1.3,0.3c0,0,0,0,0.1,0c0,1.2-0.4,2.3-0.8,3.5c-0.3,0.9-0.7,1.8-0.9,2.9c-0.7,3.7,0.2,8.1,0.8,10.8
		c0.1,0.4,0.1,0.7,0.2,1c0.4,2.2,0.1,3.5-0.4,5.1c-0.3,0.9-0.6,2-0.7,3.2h-1.2l-0.1,1.6c-0.4,7.4-0.8,14.8-1.2,22.1l-0.1,1.6h3.9
		l1.7,0l-0.2-1.7c-0.1-0.6,0.1-2.5,0.4-3.5c4.6-0.1,9.1-0.2,13.6-0.2c0.1,0.9,0.1,2.1,0.1,3.1l0,2.2h5.5l0-1.5
		c0-2.2-0.1-4.5-0.1-6.8c-0.2-11.1-0.5-23.7,2.6-34L346.9,265.1z M338.4,298.1c-4.4,0.1-8.7,0.1-13,0.2c0.1-1.5,0.1-3.1,0.2-4.6
		c0.1-1.6,0.1-3.1,0.2-4.7h12.1c0.1,1.6,0.2,3.1,0.3,4.7C338.2,295.1,338.3,296.6,338.4,298.1z"/>
	<path d="M365.5,173.5c2.1,0,4.5-0.2,7-0.3c2.6-0.2,5.4-0.3,7.8-0.3c4.5,0,6.2,0.7,6.8,1.2l1.1,1l1-1.1c0.6-0.7,1.3-1.5,2.1-2.3
		l1.2-1.2l-1.3-1c-0.9-0.7-1.7-1.3-2.4-2l-2.6-2.6v3.1h-27.4v3.8l0.5,0.4C360.5,173.1,362.3,173.5,365.5,173.5z"/>
	<path d="M251.4,291.1c-0.9,2.2-1.8,4.4-3.2,6.6c-0.3,0.5-0.7,0.9-1.2,1.4c-0.8,0.8-1.6,1.7-2.3,3.4l-0.2,0.6l0.3,0.6
		c1.3,2.6,5.9,4.3,9.3,4.3c1.3,0,2.4-0.2,3.1-0.7c0,0,0.1,0,0.1,0h1.4v-3.3l-1-0.3c-1.2-0.4-2.3-0.8-3.6-1.1
		c-0.4-5.4,3.6-10.3,7.8-15.6c3.5-4.4,7.2-8.9,8.4-14c2.1-0.8,4.3-1.5,6.4-2.2l0.9-0.3l0.1-0.9c0.1-0.4,0.1-0.8,0.2-1.2
		c0.6-0.4,1.2-0.8,1.9-1.2c0.3,4,0.6,7.9,1,11.8c-0.8,1.5-1.1,2.3-1.1,4h-1l-1.3,24.9l1.4,0.2c0.7,0.1,1.5,0.2,2.3,0.2h1.3l0.2-1.3
		c0.1-0.9,0.2-1.8,0.4-2.6c0.1-0.5,0.1-1,0.2-1.5c0.4-0.1,1.2-0.2,2.8-0.2c1.3,0,2.9,0.1,4.4,0.2c2.5,0.1,4.8,0.2,6.2,0.1
		c0.5,0.8,0.5,2.4,0.4,4l-0.1,1.6h5.8v-1.5c0-3-0.3-6.6-0.5-10c-0.3-3.8-0.5-7.4-0.5-10.1c1.2-7.3,2.3-14.5,3.5-21.6l0.3-1.6
		l-1.8-0.2c-0.9-0.1-1.8-0.2-2.7-0.2h-1.1l-0.3,1c-1.6,4.8-2.8,11.6-3.1,18.5h-2v-0.6l-0.8-0.4c-1.6-0.8-3.2-1.6-4.8-2.3l-1.2-0.6
		c-1.4-2.5-0.7-6.8-0.1-11c0.5-3.2,1-6.5,0.5-9.3l-0.1-0.7l-0.6-0.4c-1.5-0.8-3.4-1.2-5.6-1.2c-3.3,0-6.9,0.8-10,1.7l1-11.6l0-0.2
		c-0.2-1.1-0.5-2.1-0.8-3c-0.5-1.7-1-3.4-1-5.6c0.1,0,0.3,0,0.7,0h1.1l0.3-1.1c0.1-0.4,0.2-0.8,0.4-1.3c0.7-2.4,1.6-5.3,0.7-7.3
		c-0.7-1.9-2.6-3.1-4.4-2.8c-0.4-0.1-0.8-0.1-1.1-0.1c-1.1,0-2.1,0.3-3,0.6l-1,0.3l-0.3,0.5c-1.7,2.7-1,4.9-0.4,7
		c0.2,0.6,0.4,1.3,0.5,1.9l-0.3,0.6c-2.9,5.8-6.5,12.9-3.4,21.6c-0.3,1-0.9,1.8-1.6,2.9c-0.9,1.3-1.8,2.8-2.3,4.7
		c-0.4,1.7-0.3,3.5-0.2,5.3c0.1,1.9,0.3,3.7-0.3,5.3l-0.5,1.4l1.4,0.5c0.3,0.1,0.5,0.2,0.8,0.2v3.4
		C254.4,283.7,252.9,287.5,251.4,291.1z M284,293.6c0.1-1.6,0.2-3.1,0.3-4.7c4-0.1,8.1-0.2,12.1-0.2c0.8,1.5,1.2,7.1,0.8,9.2
		c-0.6,0.1-2.1,0.3-5.6,0.3c-2.6,0-5.4-0.1-7.4-0.2c-0.2,0-0.3,0-0.5,0C283.8,296.6,283.9,295.1,284,293.6z"/>
	<path d="M357.9,331l1.1,0.3c1.6,0.4,3.6,0.6,5.9,0.6c2.4,0,5-0.2,7.5-0.4c2.4-0.2,4.9-0.4,7.2-0.4c3.2,0,5.4,0.4,7.1,1.2l1.1,0.5
		l0.8-0.9c0.2-0.2,0.4-0.4,0.6-0.7c0.4-0.5,0.9-1,1.3-1.5l0.8-1l-4.1-4.2l-1.1,1.1c-0.2,0.2-1.8,1.1-11.8,1.1c-3.5,0-7.1-0.1-10-0.2
		c-2.2-0.1-4-0.1-4.8-0.1l-1.5,0V331z"/>
	<path d="M496.4,489.7l1.8,0c8.4,0.1,17.2,0.2,25.8,0.2c0.2,0.2,0.4,0.5,0.6,0.7l1.1,1.1l1.1-1.1c0.3-0.3,0.5-0.5,0.8-0.7
		c0.3-0.3,0.7-0.6,1-0.9l0.2-0.2l0.1-0.2c0.1-0.2,0.3-0.6,0.3-1.1v-0.5l-0.3-0.4c-0.3-0.4-0.6-0.8-1-1.2c-0.3-0.4-0.6-0.7-0.9-1.1
		l-0.7-1l-1.1,0.5c-2.2,1-5.8,1.5-11.1,1.5c-2.7,0-5.6-0.1-8.3-0.2c-2.9-0.1-5.7-0.3-7.9-0.2l-1.5,0V489.7z"/>
	<path d="M750.2,127.6c1.1-0.3,2.2-0.6,3.4-0.9l0.4-0.1l0.3-0.3c0.8-0.9,1.5-1.7,2.3-2.6c0.8-0.9,1.6-1.7,2.3-2.6l2.2-2.5h-4.2
		l-0.3,0.2c-7.3,4.1-14.9,8.3-22.3,12.6c-0.6,0.3-1.2,0.6-1.8,1c-1.2,0.7-2.5,1.5-3.6,1.6c0.1-0.1,0.1-0.2,0.2-0.3l0.5-0.7l-0.3-0.8
		c-0.4-0.8-0.8-1.6-1.2-2.3c-0.6-1.2-1.2-2.3-1.6-3.5l-0.2-0.6l-0.5-0.3c-1.4-0.9-2.6-1.2-4.8-1.2h-0.6l-0.4,0.4
		c-0.3,0.3-0.7,0.6-1.1,1c-0.8,0.6-1.7,1.4-2.4,2.6l-0.2,0.3l0,0.4c-0.2,4,1.5,6.6,5,7.4c0.2,0.8,0.4,1.5,0.7,2.3
		c0.3,1,0.6,2.1,0.9,3.1l0.1,0.2l0.1,0.2c2.8,4.2,14,10.8,23.1,10.8c1.9,0,3.7-0.3,5.2-0.9c5.2-2,8.8-7.5,10.1-9.8l0.3-0.6l-0.2-0.7
		c-0.2-0.5-0.4-1-0.6-1.6c0.3-0.3,0.6-0.7,0.8-1c0.2-0.3,0.4-0.5,0.6-0.8c0.7,0.6,1.3,1.3,2,1.9c2.4,2.4,4.9,4.8,8.2,6.4
		c0,0.2-0.1,0.4-0.1,0.6c-0.3,1.1-0.6,2.7,0.1,4.3l0.1,0.2c0.3,0.4,1.1,1.6,7.3,1.6c1.3,0,3.7-0.1,5-0.6l0.3-0.2
		c0.1-0.1,0.2-0.1,0.2-0.1c0.6-0.3,0.8-0.8,0.9-1.2c0-0.1,0.1-0.2,0.1-0.4l0.1-0.2v-1.6l-1.1-0.3c-5.5-1.5-9.4-6.1-13.1-10.5
		c-1.4-1.7-2.7-3.2-4.2-4.6c-0.4-0.4-0.7-0.8-1-1.3c-0.9-1.2-1.9-2.5-3.7-3.1c-0.8-0.3-1.5-0.4-2.3-0.4c-4.4,0-8.2,3.7-11.5,7
		c-1.7,1.7-3.3,3.2-4.5,3.7c-0.3,0.1-0.7,0.2-1.2,0.2c-1.9,0-4-1.1-4.8-1.9C742,134.1,747,129.6,750.2,127.6z"/>
	<path d="M638.3,135.9l-0.4-0.4c-1.7-1.9-3-2.7-4.5-2.7c-0.8,0-1.4,0.2-2,0.5c-0.7,0.3-1.4,0.5-2.5,0.4c-1-0.6-2.1-1.2-3.1-1.9
		l-0.2-0.1c-2.4-1.1-5.6-1.7-9.1-1.7c-2.5,0-5,0.4-7,1l-0.8,0.2l-0.2,0.8c-0.1,0.4-0.3,0.9-0.4,1.4c-1.3,0.3-2.7-0.1-4-0.6l-2-6.1
		v5.5c-0.2,0-0.4,0-0.7,0c-3.6,0-11.9,1.8-14.3,2.8l-0.3,0.1l-0.2,0.2c-0.6,0.6-0.7,1.2-0.7,1.9c-0.8,0-1.7-0.1-2.7-0.3
		c-1-0.2-2.2-0.4-3.5-0.4c-0.4,0-0.8,0-1.2,0.1c-2.5,0.2-4.8,1-7,1.6c-1.5,0.5-2.9,0.9-4.3,1.2c-0.8,0.1-1.4-0.1-2.3-0.4
		c-1.1-0.4-2.4-0.8-4.1-0.6l-1,0.1l-0.3,1c-1.2,4.1-0.5,9.2,1.6,12l0.5,0.6h3.4v-5c0.1-0.1,0.2-0.2,0.2-0.3c0.3-0.3,0.6-0.6,0.8-1
		c3.3-0.1,6.7-0.2,10.1-0.3c3.6-0.1,7.3-0.2,10.9-0.3c0,0.2,0.1,0.5,0.1,1v1.5l1.5,0c2.9-0.1,5.8-0.5,8.7-1c1.9-0.3,3.7-0.6,5.4-0.8
		v5.1l1.7-5.3c0,0,0,0,0,0l1.4-0.1v-0.6c1.7-0.2,2.9-0.3,3.8-0.3c1.8,0,2,0.2,3.6,4.1c0.2,0.5,0.4,1,0.6,1.5l0.4,0.8l0.9,0.1
		c1.2,0.1,2.3,0.2,3.5,0.3c1.2,0.1,2.3,0.2,3.5,0.3l1.6,0.1v-2.6l-0.6-0.5c-1.2-1-3.5-1.7-5.9-2.5c-0.1-0.6-0.1-1.2-0.2-1.7
		c-0.1-0.5-0.1-1-0.2-1.5c1-0.4,2-1,3-1.6c1.6-1,3.3-1.9,4.5-1.9c0.1,0,0.2,0,0.4,0l0.6,0c0,0.2,0,0.4,0,0.6v0.9l0.8,0.4
		c2.6,1.4,5.5,2.2,8.3,2.3l0.6,0l0.5-0.4c2.4-2.1,2.7-4.3,2.6-7.5L638.3,135.9z"/>
	<path d="M501.3,331.8c2.7-0.1,6.4-0.1,10.1-0.1c10.3,0,13,0.6,13.7,0.9l0.7,1.6l1.6-1.4c0.2-0.2,0.5-0.4,0.7-0.7
		c0.4-0.4,0.9-0.8,1.3-1.1l0.6-0.5v-2.5l-0.6-0.5c-0.4-0.3-0.7-0.6-1.1-0.9c-0.4-0.3-0.8-0.7-1.2-1l-2.4-1.8v2.5
		c-8.4,0.1-17.1,0.2-25.8,0.2h-1.5v5.2l1.5,0C499.6,331.9,500.4,331.8,501.3,331.8z"/>
	<path d="M530.9,253.1c-0.7-0.1-1.5-0.1-2.2-0.2c-1.2-0.6-2.4-1.3-3.5-1.8l-1.5-0.8l-0.5,1.6c-0.1,0.3-0.3,0.8-0.3,1.4v0.6l8.5,8.5
		l0.8-0.2c2.9-0.7,3.5-2.6,4-3.9c0.2-0.7,0.4-1.3,0.9-1.8c1.2-1.2,2.8-2,4.4-2.9c3-1.5,6.3-3.3,7.3-8c0.7-0.2,1.4-0.4,2-0.7
		c0.7-0.2,1.4-0.5,2.1-0.7c0,0.1,0.1,0.1,0.1,0.2c0.4,0.5,1,1.1,2.1,1.4l0.6,0.2l0.6-0.3c0.8-0.5,1.9-1,3-1.5c4-2,9.1-4.4,10.9-7.7
		l0.1-0.2l0.3-1.2c0.4-1.7,0.8-3.4,1.1-5.1c0.5-1.1,1.1-2.2,1.6-3.3c2.9,6.9,2.4,15.4,1.9,24.5c-0.2,3.3-0.4,6.7-0.4,10.1l0,1.5h5.3
		l0.1-1.4c0.1-1.4,0.1-2.7,0.2-3.9h13.7c0.1,0.8,0.1,2,0.1,2.9l0,2l1.3,0.2c0.8,0.1,1.6,0.2,2.5,0.2h1.2l0.3-1.1
		c0.9-3.3,0.4-7.4-0.1-11.3c-0.3-2.4-0.6-4.7-0.5-6.6l0.2-1.4c1.1-7.4,2.2-14.7,3.3-22l0.1-0.7l-0.4-0.5c-0.8-0.9-1.7-1.1-2.4-1.3
		c-0.2,0-0.4-0.1-0.6-0.2l-0.2-0.1h-2.2l-0.2,1.3c-0.5,3-0.9,6-1.4,9.1c-0.5,3.1-1,6.2-1.4,9.3c-4.2,0.1-8.6,0.2-12.8,0.2
		c-0.6-3-0.8-6.1-0.9-9.1c-0.1-2.7-0.2-5.3-0.7-7.8c-0.4-1.9-1.1-3.7-1.8-5.3c-0.7-1.7-1.4-3.3-1.7-5.1c-0.2-0.9,0.1-1.4,0.6-2.3
		c0.6-1,1.3-2.3,0.8-4.3c0.2-1.5-0.8-2.4-1.4-3c-0.1-0.1-0.3-0.3-0.4-0.4l-0.3-0.3l-0.4-0.1c-1.3-0.3-2.4-0.5-3.4-0.5
		c-1.3,0-2.5,0.3-3.6,0.8l-0.6,0.3l-0.2,0.6c-0.9,2.5-0.6,4.4-0.2,6.5c0.1,0.9,0.3,1.7,0.4,2.7l0.1,1.2l1.2,0.2c0.1,0,0.3,0,0.4,0.1
		c-0.5,0.7-1.2,1.4-2,2.1c-1.2,1.2-2.5,2.4-3.2,4l0,0.1c-1.1,3.4-2.2,6.8-3.3,10.2c-1.7,1.1-3.4,2.1-5,3.2c-1.8,1.2-3.6,2.3-5.5,3.5
		l-0.2,0.1l-16.4,18.7C532.1,253.2,531.5,253.1,530.9,253.1z M580.8,243.4c4,0.1,8.3,0.2,12.6,0.2c0.6,1.7,0.4,6.6,0.4,8.5
		c0,0.2,0,0.4,0,0.6c-4.5,0.1-8.8,0.2-13.3,0.2C580,251.2,580.2,246.5,580.8,243.4z"/>
	<path d="M529.3,168.9c-0.3-0.2-0.6-0.5-0.8-0.7l-2.4-2.4l-0.6,2.6c0,0,0,0,0,0H498v5.2l1.5,0c0.7,0,1.7,0,2.9-0.1
		c3.1-0.1,7.3-0.2,11.4-0.2c10,0,12,0.8,12.3,1l1.1,1.3l1.2-1.4c0.1-0.2,0.3-0.3,0.4-0.5c0.3-0.4,0.6-0.7,0.9-1.1l1.6-1.6l-1.1-1.1
		C530,169.5,529.7,169.2,529.3,168.9z"/>
	<path d="M772.4,305.1c0.1-1.3,0.2-2.6,0.2-3.8v-0.7l-0.6-0.5c-0.8-0.6-1.7-1-2.6-1c-1.3,0-2.3,0.7-3.1,1.3
		c-0.3,0.2-0.8,0.6-0.9,0.6c-1.4,0.1-3.2-0.1-5.1-0.4c-1.4-0.2-2.7-0.4-4.2-0.5c0.3-3.7,1.1-7.4,1.8-8.2h0.2c0,0.2,0,0.4,0,0.6v1
		l1,0.4c2.3,0.9,4.6,1.4,7.6,1.7l0.6,0.1l0.5-0.4c0.2-0.2,0.5-0.4,0.7-0.7c0.4-0.4,0.9-0.8,1.3-1.1l0.4-0.3l0.1-0.5
		c0.8-2.9,0.5-5-0.7-6.4c-0.9-1.4-2.1-2.2-3.5-2.2c-1,0-1.9,0.3-2.7,0.6c-1,0.3-2,0.7-2.8,0.5c-0.9-0.2-1.9-0.6-3-1.1
		c-1.9-0.8-4-1.8-6.6-1.8c-0.5,0-0.9,0-1.4,0.1c-2.4,0.3-4.2,1.4-5.8,2.3c-1.2,0.7-2.2,1.3-3.5,1.7c-1.2,0.3-2.6,0.1-3.8-0.3
		l-2.1-6.3v5.7c-0.4-0.1-0.8-0.1-1.2-0.1c-0.1,0-0.1,0-0.2,0c-2.6,0.2-4.6,0.9-6.5,1.6c-2,0.8-3.9,1.5-6.5,1.7l-1.4,0.1v2.5
		c-0.9,0.2-1.9,0.1-3.1-0.1c-0.9-0.1-1.9-0.3-3-0.3c-0.7,0-1.3,0.1-1.9,0.2l-11.6,3.5c-0.4,0-1.1-0.2-1.7-0.4
		c-1-0.3-2.2-0.6-3.4-0.6h-0.9l-0.4,0.8c-1.4,2.9-0.7,7.5-0.1,10.7l0.1,0.7l0.6,0.3c0.2,0.1,0.3,0.2,0.4,0.3
		c0.6,0.4,1.3,0.8,2.7,0.9l0.7,0l1.2-1.2l-0.1-0.8c-0.1-0.6-0.2-1.2-0.2-1.7c-0.1-0.4-0.1-0.9-0.2-1.3c0.4-0.5,0.8-1,1.2-1.5
		c2.8-0.1,5.7-0.6,8.5-1.2c3.2-0.6,6.3-1.1,9.2-1.1c1.1,0,2.1,0.1,3.1,0.2c0.2,0.7,0.5,1.4,0.7,2.1l0.4,1.1l1.1-0.1
		c5.1-0.6,9.2-1.6,13.2-2.5v3.6l0.5-1.5v5.2l2.3-8.1c3.5-0.9,6.8-1.7,10.7-2.3c0,4.4,0.8,7.3,2.5,9.1c1.9,2,4.6,2.3,6.5,2.3
		c0,0,0,0,0,0c1.8,0,3.8-0.2,5.9-0.5c2.4-0.3,4.9-0.6,7.5-0.6l1.4,0L772.4,305.1z"/>
	<path d="M693.2,89.9c-0.6-0.3-1.2-0.6-1.8-1c-1.6-0.9-3.4-1.9-5.8-1.9c-0.6,0-1.3,0.1-1.9,0.2l-0.7,0.1l-0.3,0.7
		c-0.7,1.3-1.3,2.5-2.1,3.9l-0.3,0.5l0.2,0.6c0.1,0.3,0.2,0.6,0.3,0.9c0.1,0.4,0.3,0.7,0.4,1.1l0.1,0.3c0.9,1.9,2.3,2.8,4.3,2.8
		c0.6,0,1.2-0.1,1.7-0.2c1.1-0.2,2.1-0.2,2.8,0.1c0.8,0.4,1.5,1.1,2.2,1.8c1.1,1.1,2.4,2.3,4.3,3l0.2,0.1h10.7l1.5-0.1v0
		c1.1,0,2.2,0,3.2,0c0.8,0,1.6,0,2.4,0c8.8,0,11.4-0.9,16.8-9.9l0.5-0.9l-0.7-0.8c-0.2-0.2-0.4-0.5-0.6-0.7c0.3-0.5,0.7-0.9,1.1-1.4
		c0.1-0.1,0.3-0.3,0.4-0.5c0.9,0.7,1.7,1.6,2.6,2.5c2.2,2.2,4.6,4.6,7.6,5.8c0,0.2-0.1,0.3-0.1,0.5c-0.2,1.2-0.4,2.4-0.2,4l0.1,0.8
		l0.7,0.3c1.6,0.7,4,0.9,5.8,0.9c2.1,0,4.4-0.2,6.1-0.6l0.4-0.1l0.3-0.3c0.2-0.2,0.4-0.5,0.5-0.6l0.8-0.8l-0.5-1c0,0,0,0,0-0.1v-1
		l-1.2-0.2c-4.1-0.8-8.6-6.1-12.5-10.8c-4.1-4.8-7.6-9-11-9c-5.1,0-8.3,3.3-11.1,6.2c-1.8,1.9-3.5,3.6-5.6,4.4
		c-0.7,0.3-1.6,0.4-2.7,0.4c-0.9,0-1.9-0.1-2.8-0.2c-0.1,0-0.1,0-0.2,0c1.3-2.9,4.1-5.1,6.9-7.3c3.4-2.7,6.9-5.4,8.2-9.7l0.6-2h-3
		l-0.4,0.3c-1.6,1.2-3.3,2.5-5,3.8c-1.7,1.3-3.4,2.6-5,3.9c-1.3,1-3,2.6-4.9,4.3c-3.7,3.4-8.8,8.1-12.1,9.2c-0.1,0-0.2-0.1-0.3-0.1
		c0,0,0,0-0.1,0c0-0.4-0.1-0.9-0.1-1.3v-1L693.2,89.9z"/>
	<path d="M769.1,468.6l0.4-1.4c0.7-2.6,1.3-5.2,2.1-7.9l0.2-0.8l-0.5-0.6c-0.7-0.9-1.7-1.3-2.9-1.3c-0.5,0-1.1,0.1-1.6,0.2
		c-0.8,0.1-1.5,0.2-2.1,0c-1-0.7-2-1.3-3-2c-1.1-0.7-2.1-1.4-3.2-2.1l-0.2-0.1l-0.2-0.1c-1.7-0.4-3.3-0.9-5-1.3
		c-2.1-0.6-4.2-1.1-6.3-1.6c-0.5-0.3-0.5-0.5-0.7-1.2c-0.2-0.6-0.4-1.4-1.1-2.1l0,0c-1.4-1.2-6.8-3.4-6.8-3.4l-1-0.2
		c-1.5-0.2-3.1-0.5-4.5-0.8c-1-0.3-2.1-0.7-3.2-1.1c-3.9-1.3-7.9-2.7-11.7-3.6c-1.3-0.3-2.4-0.3-3.3-0.3c-0.9,0-1.6,0-2.3-0.3
		l-0.4-0.1l-0.4,0.1c-0.6,0.1-1.2,0.2-1.9,0.2h-0.6l-0.4,0.4c-0.7,0.7-1.4,1.4-2.1,2.2c-0.8,0.9-1.6,1.7-2.4,2.5
		c-0.9-0.2-1.6-0.6-2.4-1.1c-1.2-0.8-2.6-1.6-4.6-1.6c-0.8,0-1.6,0.1-2.4,0.4l-0.2,0.1l-0.2,0.1c-0.5,0.3-1.1,0.7-1.6,1.2l-0.3,0.3
		l-0.1,0.4c-0.6,2.4-0.3,3.8,0.2,5.4l0.2,0.6l0.6,0.3c2,1,3.6,1.2,5.1,1.2c0.4,0,0.7,0,1.1,0c0.9,0,2,0,2.8,0.1c1.6,3.4,0.8,6.1,0,9
		c-0.7,2.3-1.3,4.8-0.7,7.4l0.1,0.4l1.3,1.3l0.1,0.1c1.1,1,2.7,1.1,3.7,1.1c0.3,0,0.7,0,1,0l1.3-0.1l0.1-1.6
		c0.1-1.3,0.2-2.5,0.2-3.8v-1.3l-1.3-0.2c0,0,0,0,0,0c0.1-0.3,0.2-0.5,0.4-0.8c0.6-1.2,1.2-2.5,1.5-4.4c0.1-0.1,0.3-0.1,0.4-0.2
		c0.1,0,0.4-0.1,1.1-0.1c2.1,0,5.4,0.9,7.1,1.3l0.1,0c2.4,1.1,4.7,2.3,7,3.5c1.2,0.6,2.3,1.2,3.5,1.8l0.3,0.1c4,1,7.1,1.9,10,2.5
		l1.3,0.3l0.5-1.2c0.1-0.2,0.2-0.4,0.2-0.5c0.4,0,0.8-0.1,1.2-0.1c2.3,0,4.4,0.5,6.7,1.1c2.3,0.6,4.7,1.2,7.2,1.2
		c1.3,0,2.5-0.1,3.7-0.4c2.2,0,3,0.6,4,1.3c0.9,0.6,1.9,1.3,3.6,1.7L769.1,468.6z"/>
	<path d="M475.8,465.3l0.1,1l0.8,0.4c0.1,0.1,0.3,0.2,0.6,0.2c1.6,0.8,5.2,0.9,6.3,0.9c0,0,0,0,0,0c2.5,0,4.3-0.3,5.3-0.8l0.4-0.3
		c0.2-0.1,0.4-0.2,0.6-0.5l0.4-0.4v-2.6l-1.3-0.2c-2.4-0.3-3.3-1.1-4.8-2.2c-0.3-0.2-0.6-0.5-0.9-0.7c0.1-2.2,0.4-5.1,0.8-8.3
		c1.1-8.7,1.6-14.7,0-17.5c-2.1-3.5-6.3-4.2-10.4-4.9c-0.8-0.1-1.6-0.3-2.4-0.4v-11.6l0-0.2c-0.2-1.9-0.8-3.3-1.4-4.7
		c-0.6-1.4-1.2-2.7-1.3-4.5c0.1,0,0.2,0,0.3,0h1.1l0.3-1.1c1-3.4,1.2-6.3,0.7-8.4l-0.1-0.2c-1.3-2.9-4.2-2.9-5.2-2.9
		c-0.8,0-1.6,0.1-2.4,0.2l-0.6,0.1l-0.4,0.4c-0.7,0.8-1.5,1.7-2.3,2.5l-0.6,0.6l0.1,0.8c0.3,1.4,0.8,2.7,1.2,3.9
		c0.3,0.7,0.5,1.3,0.7,1.9c0.8,2.7-1.1,4-4.3,5.7c-0.8,0.4-1.6,0.9-2.2,1.3c-1.4,1-2.3,2.4-3.1,3.7c-0.4,0.6-0.8,1.2-1.2,1.7
		l-0.4,0.5l0,0.6c0.3,4.4,3.8,7.3,6.7,9.6c0.6,0.5,1.2,1,1.8,1.5c-2,3.9-0.7,9.1,0.4,14.1c0.8,3.2,1.5,6.2,1.2,8.4
		c-1.3,0.4-5.2,0.5-7.8,0.6c-3.7,0.1-7.3,0.2-9,0.8l-0.3,0.2c-0.1,0.1-0.3,0.2-0.4,0.3c-0.1,0.1-0.3,0.2-0.4,0.3l-0.9,0.5l0.1,1
		c0.5,4.2,1.6,9.5,4.1,10.7l0.2,0.1l0.3,0c1.1,0.1,2.2,0.2,3.4,0.2h0.6l1.8-1.8l-0.3-0.9c-0.4-1-0.8-1.7-1.2-2.3
		c-0.4-0.7-0.7-1.1-0.8-2.2c1.8,0.1,3.5,0.2,5.2,0.3c2.5,0.2,5.1,0.4,7.9,0.4c1.1,0,2.1,0,3.1-0.1l0.8,0l0.4-0.6
		c3.3-5.2,4.9-10.9,4.9-18c0,0,0.1,0,0.1,0l1.2,0c1.1,0,2.3-0.1,3.4-0.6h0c-0.7,5.2-1.5,11.5,0,17.5c-0.1,0.8-0.2,1.3-0.5,1.9
		C476.2,462,475.8,463.1,475.8,465.3z M458.8,422.3c-0.4-0.5-0.8-1-1.1-1.4c0.2-0.1,0.3-0.3,0.5-0.4c0.1,0,0.1-0.1,0.2-0.1
		c0.1,0.3,0.1,0.6,0.2,0.9C458.7,421.6,458.7,422,458.8,422.3z"/>
	<path d="M673.5,331.4l0.8-0.8v-1.4l-2.9-2.9l-0.6-0.2h-0.2c-0.7,0-1.2,0.4-1.4,0.7c-0.3,0.2-0.4,0.4-0.7,0.4h-26.9v5.2l1.5,0
		c1.8,0,6.1-0.1,10.7-0.1c11.5,0,14.6,0.5,15.4,0.7l0.4,0.7l1.2-0.4C672.1,332.8,672.8,332,673.5,331.4z"/>
	<path d="M675.8,171.2l-1.2-1.1c-0.7-0.6-1.5-1.3-2.3-2.1l-1.3-1.3l-1,1.5c-0.1,0.1-0.2,0.3-0.2,0.4c-1,0.3-3.4,0.6-8.9,0.6
		c-3.7,0-7.8-0.1-11.1-0.2c-2.4-0.1-4.5-0.2-5.9-0.2h-1.3l-0.2,1.3c-0.1,0.6-0.2,1.4-0.2,2.1l0.1,1l0.8,0.4c0.2,0.1,0.6,0.3,1.1,0.3
		c0.8,0,2-0.1,3.4-0.1c3-0.1,7.1-0.2,11-0.2c9.9,0,11.5,0.9,11.8,1.1l1.1,1.1l1.1-1.2c0.7-0.8,1.3-1.5,2-2.2L675.8,171.2z"/>
	<path d="M647.5,490.7c2.4,0,5-0.2,7.5-0.4c2.4-0.2,4.9-0.4,7.2-0.4c3.2,0,5.4,0.4,7.1,1.2l1.1,0.5l0.8-0.9c0.1-0.2,0.3-0.3,0.4-0.5
		c0.3-0.4,0.7-0.8,1.1-1.3c0.6-1.1,0.8-2.7-2-4.6l-1-0.6l-0.8,0.8c-0.2,0.2-1.9,1.1-11.9,1.1c-3.6,0-7.3-0.1-10.3-0.2
		c-2-0.1-3.6-0.1-4.6-0.1h-1.5v4.5l1.1,0.3C643.2,490.5,645.2,490.7,647.5,490.7z"/>
	<path d="M614.8,449.7c1.7-1,3-2.1,4.3-3.2c2.4-2.1,4.3-3.7,8.6-3.8c0.4,2.7,0.7,5.4,1,8.1c0.6,5,1.2,10.2,2.1,15.2l0.1,0.7l0.6,0.3
		c1.9,1.1,4.9,1.3,7.1,1.4l1.4,0.1l2.9-2.9l-3.6-0.8c-2.3-0.5-3.7-0.8-4.3-1.8c-1.1-2.9-0.7-6.7-0.2-10.4c0.3-2.8,0.7-5.7,0.3-8.2
		c-0.3-2-0.7-3.9-1.2-5.7c-0.5-1.8-0.9-3.6-1.1-5.2c1-0.4,2.1-0.7,3.2-1c0.9-0.2,1.7-0.5,2.5-0.7l0.5-0.2l0.4-0.6
		c0.9-1.3,1.4-2.3,1.3-4.7l0-0.3l-0.1-0.3c-0.3-0.6-0.6-1.1-1.1-1.8l-0.3-0.4l-0.5-0.2c-1-0.4-2.1-0.6-3-0.6c-2.8,0-5,1.5-6.2,4
		c-0.3-0.2-0.5-0.3-0.8-0.5c-0.3-0.2-0.7-0.4-1-0.6c-0.3-1.2-0.6-2.4-0.9-3.6c-0.3-1-0.5-2-0.8-3l0-0.1c-1-3-2.1-5.9-3.1-8.9
		c-0.7-2-1.3-3.9-2-5.9c-0.2-1.1,0.1-1.9,0.6-2.8c0.1-0.3,0.3-0.6,0.4-0.9l0.9-2.4l-2.4,0.3c0-0.1,0-0.1,0-0.2l0,0l-0.1-0.2
		c0-0.1,0-0.3,0-0.5l0.4-7.2l-2.2,4.4l-0.5,0.1c-0.3,0.1-0.6,0.1-0.8,0.1H617l-0.2,0.1c-0.1,0-0.2,0.1-0.4,0.1h-2.2l0.6,1.1
		l-0.5,0.2l0.2,1.2c0.3,1.9,0.9,3.2,1.5,4.4c0.4,0.8,0.7,1.5,0.9,2.3c0.6,2.7,0.8,5,1,7.5c0.2,2.4,0.4,4.9,1.1,7.9l0,0.1
		c0.3,0.9,0.5,1.7,0.8,2.6c0.2,0.8,0.5,1.5,0.7,2.3c-1.2,4.5-6.8,6.4-12.3,8.3c-2.8,1-5.4,1.9-7.4,3.1l-0.8,0.7
		c-2,1.7-4,3.3-6.2,5.1l-0.7,0.6l0.2,0.9c0.1,0.5,0.2,1,0.4,1.5c0,0.1,0,0.2,0.1,0.3c-11.2,6.3-19,12-24,17.4l-0.3,0.3l-0.1,0.4
		c-0.1,0.4-0.2,1-0.2,1.5v0.9l1.4,0.7c2.1,1.1,4.1,2.1,7.8,2l0.9,0l0.4-0.8c0.6-1.4,0.6-3,0.5-4.6c7.2-0.6,14.7-4,18.9-7.2
		c0,0,0.1,0.1,0.1,0.1c0.1,0.1,0.2,0.3,0.4,0.4l0.8,0.7l1-0.5c2.2-1.1,4.4-2.2,6.7-3.3C610.3,451.9,612.5,450.8,614.8,449.7
		L614.8,449.7z"/>
	<path d="M639.3,266.3c-0.5,3.2-0.9,6.4-1.4,9.6c-0.4,2.9-0.8,5.8-1.3,8.7c-1.1,0.3-2.7,0.5-4.7,0.5c-1.7,0-3.5-0.1-5.3-0.2
		c-1.1-0.1-2.1-0.1-3.1-0.1c-0.3-2.2,1.1-3.8,3.3-6.1c1.2-1.3,2.4-2.6,3.2-4.1l0.2-0.4l-0.1-0.5c-0.6-3.6-3.6-5.1-6.2-6.5
		c-2.1-1.1-4-2.1-5.1-4c0.2-0.4,0.4-0.9,0.6-1.4c0.8-1.6,1.9-3.7,0.5-6.4l-0.1-0.1c-0.2-0.3-0.4-0.6-0.6-0.9
		c-0.2-0.3-0.4-0.5-0.5-0.8l-0.3-0.5l-0.6-0.1c-2.4-0.6-4.9-0.4-7.3,0.6l-0.7,0.3l-0.2,0.7c-0.6,2.3-0.3,4.2-0.1,6
		c0.1,0.9,0.2,1.8,0.3,2.8l0,1l1,0.3c0.3,0.1,0.7,0.2,1,0.3c0.1,1.5-0.6,2.4-1.8,3.8c-0.7,0.8-1.4,1.6-1.9,2.7l-0.1,0.2l0,0.2
		c-0.3,1.9-0.6,3.9-0.9,5.8c-0.3,1.6-0.5,3.2-0.8,4.9c-1.4,0.3-2.9,0.4-4.8,0.4c-1.1,0-2.1,0-3.2-0.1c-1,0-2-0.1-3-0.1
		c-2.5,0-5.4,0.2-8,2.1c-3.2,2.3-4.4,5.9-5.6,9c-1.4,3.9-2.3,6.1-5.1,6.1c-1.4,0-3.1-0.5-5.3-1.5l-0.3-0.1h-2.7l0.2,1.7
		c0.4,3.5,6.3,8.7,9.3,9.4l0.8,0.2l0.6-0.6c1.5-1.4,1.8-2.3,2.1-3.4c0.1-0.5,0.3-0.9,0.6-1.6c0.7-1.5,2-2.4,3.5-3.5
		c2.4-1.6,5.2-3.7,5.8-8.4c0.2,0,0.5,0.1,0.7,0.1c0.4,0.1,0.9,0.1,1.3,0.2c0,0,0,0.1,0,0.1c0.1,0.4,0.2,0.8,0.3,1.3l0.2,0.8l0.8,0.2
		c3.7,1,8,1.7,11.4,1.7c7.2,0,9.9-2.6,10.8-4.8l0.1-0.3c0.4-1.6,0.7-3.1,1-4.5c0.2,1.5,0.5,3,0.8,4.5l0,0.6
		c-0.3,5.3-0.6,10.8-0.9,16.2l-0.1,1.6h5.3l0.1-1.3c0.1-0.9,0.2-1.8,0.2-2.7c0-0.4,0.1-0.9,0.1-1.3h13.6c0.2,0.8,0.2,1.9,0.2,2.8
		c0,0.4,0,0.8,0,1.1l0.1,1.4h5.2v-1.5c0-2.9-0.1-5.7-0.1-8.5c-0.2-11.4-0.4-22.1,2.8-32.2l0.5-1.4l-1.4-0.5
		c-0.3-0.1-0.6-0.2-0.9-0.3c-0.2-0.1-0.5-0.1-0.7-0.2l-0.2-0.1h-3.2L639.3,266.3z M625.6,300c-0.6,0-1.1,0-1.6-0.1
		c0.1-1.5,0.1-3.1,0.2-4.7c0.1-1.6,0.1-3.1,0.2-4.7c4.1,0.1,8.3,0.2,12.5,0.2c0.4,2,0.5,7.3,0.2,9c-0.6,0.1-1.9,0.3-5.2,0.3
		C629.8,300.2,627.5,300.1,625.6,300z M620.8,274.6c0.3,0,0.6,0.1,0.9,0.1c0.1,0,0.3,0,0.4,0.1c-0.9,2.3-1.9,4.6-2.9,7
		C620.1,278,620.5,275.9,620.8,274.6z"/>
	<rect x="238.4" y="27.1" width="66.3" height="10.7"/>
	<rect x="237.9" y="40.7" width="550.9" height="1"/>
	<rect x="272.3" y="163.4" width="51.4" height="10.2"/>
	<rect x="424.5" y="163.4" width="36.2" height="10.2"/>
	<rect x="567.1" y="163.4" width="36.2" height="10.2"/>
	<rect x="701" y="163.4" width="65.3" height="10.2"/>
	<rect x="263.2" y="321.7" width="69.8" height="10.2"/>
	<rect x="424.5" y="321.7" width="36.2" height="10.2"/>
	<rect x="567.1" y="323.4" width="36.2" height="16.5"/>
	<rect x="701" y="321.7" width="65.3" height="10.2"/>
	<rect x="263.2" y="482.4" width="69.8" height="16.7"/>
	<rect x="424.5" y="480.7" width="36.2" height="10.2"/>
	<rect x="560.5" y="481.7" width="52.7" height="15"/>
	<rect x="701" y="480.7" width="65.3" height="10.2"/>
	<polygon points="280.7,523.7 234.6,523.7 234.6,547.9 234.6,550.3 234.6,572.2 234.6,574.6 234.6,597.4 234.6,598.8 234.6,624.1 
		340.6,624.1 340.6,597.4 332.4,597.4 332.4,574.6 348.8,574.6 348.8,547.9 280.7,547.9 	"/>
	<polygon points="235.8,631.3 235.8,642.5 235.8,644.4 235.8,659.3 322.6,659.3 322.6,642.5 301.5,642.5 301.5,631.3 	"/>
	<rect x="236.1" y="672.1" width="98" height="10.2"/>
	<rect x="236.1" y="666.7" width="105.2" height="1"/>
	<rect x="371.1" y="526.3" width="1" height="194.8"/>
	<rect x="236.1" y="685.2" width="105.2" height="1"/>
	<rect x="667.7" y="737.5" width="120.8" height="9.7"/>
	<rect x="376.2" y="524.6" width="411.3" height="200.8"/>
	<rect x="232.7" y="741.9" width="13.6" height="12.6"/>
</g>
</svg>
