<?xml version="1.0" encoding="utf-8"?>
<!-- Generator: Adobe Illustrator 18.0.0, SVG Export Plug-In . SVG Version: 6.00 Build 0)  -->
<?xml-stylesheet type="text/css" href="css/svg.css" ?>
<svg version="1.2" baseProfile="tiny" id="scan_1_xA0_Image_1_"
	 xmlns="http://www.w3.org/2000/svg" xmlns:xlink="http://www.w3.org/1999/xlink" x="0px" y="0px" viewBox="0 0 626.6 791.8"
	 xml:space="preserve">
<g>
	<g>
		<path fill-rule="evenodd" fill="#1A1818" d="M115,127.5c0.6-1.3,1.3-2.6,1.9-3.8h0.2c0.6,1.1,1.3,2.2,1.9,3.4
			c0.8,0.3,1.9-0.1,2.9,0.5c1.4,0.8,12.7,18.8,13.4,20.9c-0.1,1.8-0.2,3.5-0.2,5.3c0.6,1,2.2,0.8,3.8,0.7c0.1-0.3,0.2-0.6,0.2-1
			c0.6-2.8-2.8-8.3-3.6-11.3c-1.6-5.7-4.8-9-6.7-13.7c-0.2-1.4-0.3-2.9-0.5-4.3c-1.2-4-3.2-8.8-4.6-12.7c-3.7-11,5.3-18.5,7-25.9
			c1.8-8.1-6.6-14-8.2-20.6c-1.1,0.5-0.5,0.3-1.4-0.5c-0.7,0.6-0.9,0.6-1.7,0.7c0.2,0.4,0.5,0.8,0.7,1.2c0.4,0.3,0,0.1,0.5,0
			c0.4,0.5,0.4,1.5,0.5,2.9h-1.4c1.2,0.6,2.4,1.1,3.6,1.7c1.6,3.4,3.2,6.7,4.8,10.1c-1.2,3.3-2.4,6.6-3.6,9.8
			c-2.3,0.6-3.4-0.1-5-1.2c0.5-3.5,2.3-6,0-9.4c-8.6-2.4-4.8,5.7-4.1,9.4c-1.4,0.9-3.1,2.2-5,1.2c-0.5-0.4-4-9-3.8-9.8
			c0.8-3.7,4.7-10.8,8.9-11.5c-0.6-0.2-1.1-0.3-1.7-0.5c0.6-1.3,1.3-2.6,1.9-3.8c-0.8-0.4-0.3,0.1-0.7-0.7h-2.2
			c-2.4,6.6-7.7,10.7-8.9,18c-1,6.6,4.5,11.7,6.2,16.1c1,2.5,0.3,11.1-0.2,13.7c-1.6,4.7-3.2,9.4-4.8,14.2c0.2,0.5,0.5,1,0.7,1.4
			c-2.2,3.8-4.5,7.7-6.7,11.5c-0.6,2.6-1.3,5.3-1.9,7.9c-1,2.5-3.1,3.1-3.1,7h4.1c0.2-2,0.5-4,0.7-6c1-1.3,2.1-2.6,3.1-3.8
			C104.4,140.4,109.7,126.4,115,127.5z M51.6,115.9v-0.5h1v1.9c0.1-2,0.2-4,0.2-6c1.2-4.4,3.8-11,4.3-15.8h0.7
			c0.1,9.4-1.4,16.3-2.9,25c-0.4,2.7,0.9,3.5,1.2,4.8c-0.4,3.5-0.8,7-1.2,10.6c0.3,3.1,0.6,6.2,1,9.4c0.5,3.4-3.1,5.5-1.9,8.6
			c0.7,0.7,2.5,0.6,3.8,0.5c1.8-8.4,0.8-17.9,2.9-26.9c0.9-3.7,3.3-4,3.4-9.1h0.2c0.9,1.3,0.2,3.7,1,5.3c0.7,0.4,1.4,0.8,2.2,1.2
			c0.2,2.1,0.5,4.2,0.7,6.2c1.5,7.4,1.8,14.8,1.7,23c1.4,0.1,2.7,0.2,4.1,0.2c0.6-2.6-1.2-4.9-1.2-7.9c0.4-2.6,0.8-5.3,1.2-7.9
			c-0.5-4.5-1-9-1.4-13.4c0.7-0.5,0.5-0.4,1.2-0.5c1.6-6.1-1.9-14-3.1-19c-0.9-3.7,0.1-7.6,0.2-11.5c2.2,1,5.4,18.4,5.3,22.8
			c0.2,0.1,0.3,0.2,0.5,0.2v-1.4h1c0.1,1.4,0.2,2.9,0.2,4.3c1.6-3.3-2.7-25.5-3.6-28.1c-0.6-1.9-0.2-4.1-1.2-5.5
			c-2.1-1.2-4.2-2.4-6.2-3.6c0.1-3.5,3.2-6.6,0.7-9.6c-0.8-1.4-2.3-1.6-4.6-1.4l-1.4,1.4c-0.8,4.3,1.1,5.5,1.2,9.6
			c-2.2,1.2-4.3,2.4-6.5,3.6c-2.1,3-0.9,8.9-2.2,13c-1.7,5.4-3.2,13.4-3.1,21.1C51.1,119,51.4,117.5,51.6,115.9z M514.8,104.7
			c14.8-0.1,16.7,1.4,23.3-9.4c-0.4-0.5-0.8-1-1.2-1.4c0.5-1.9,1.9-2.7,2.9-4.1h0.7c3.7,2.9,7.1,7.9,12,9.4c-0.2,2-0.8,3.3-0.5,5.5
			c2.3,1.1,8.1,0.9,11.3,0.2c0.2-0.2,0.3-0.5,0.5-0.7c-0.1-0.2-0.2-0.3-0.2-0.5c-9.1-1.8-17.9-20.4-24-20.4
			c-7.7,0-10.7,8.5-16.6,10.8c-2.5,1-5.8,0.3-8.6,0.2c2.1-8.7,13.7-11.2,16.3-19.4h-0.5c-3.4,2.6-6.9,5.3-10.3,7.9
			c-4.4,3.4-13.1,13-18.5,14.4c-0.6-0.2-1.1-0.5-1.7-0.7c-0.1-0.8-0.2-1.6-0.2-2.4c-2.9-1.3-4.9-3.4-8.9-2.6
			c-0.7,1.4-1.4,2.7-2.2,4.1c0.2,0.7,0.5,1.4,0.7,2.2c1.9,4,5.3,0.6,8.4,2.2c2.3,1.2,3.7,3.9,6.5,4.8H514.8z M343.2,114.5
			c0.9,0.5,2.4,0.2,3.1-0.2c0.2-0.2,0.5-0.3,0.7-0.5c-1.4-1.6-2.9-1.9-3.1-4.8c6.2-3.4,15.3-6.3,23.5-7c0.3,0.7,0.6,1.4,1,2.2
			c4.2-0.7,26-9.8,27.6-11.8h0.7c0.9,5.1-3.6,17.3-0.5,21.4c0.8,1.1,5.3,1.6,6.7,1c0.2-0.1,0.3-0.2,0.5-0.2c-2-0.7-4-1.4-6-2.2
			c-1.1-5.5,3.3-13.6,4.6-18.2c0.5-2,0.1-6.1,1.4-7.4c1.6-1.5,2.5-0.7,3.6,0.5c2.9-0.2,5.3-2.1,7-1.7c0.8-0.7,1.1-1.1,1.2-2.4
			c0.6-1.9-1.4-3.9-2.4-5c-1-0.2-1.9-0.3-2.9-0.5c-2,1.2-2.8,2.6-4.6,3.8c-4,0.3-8,0.6-12,1c-2.7,1.9-5.4,3.8-8.2,5.8
			c-2.8,1.1-5.5-0.1-7.7,0.5c-4.3,2.2-8.6,4.3-13,6.5c0.2,0.6,0.5,1.1,0.7,1.7V97c-2.4,1.4-5,0.6-8.2,1.4c-4.8,1.3-8.5,4.8-12.7,6.7
			c-1.9,0.9-4,0-5.8,1.2c-0.4,0.6-0.8,1.3-1.2,1.9C338.5,110.3,341.4,113.3,343.2,114.5z M249.4,127.5c0.2-0.1,0.3-0.2,0.5-0.2h2.2
			c-0.6,1.9-1.1,3.8-1.7,5.8c-0.9,4.8,0.5,8.8,1,12.7c0.5,3.9-2.7,5.2-1,8.4c0.5,0.6,9.4,1.1,10.8,0.2l0.7-0.7l-7.2-3.8
			c-2.7-9.7,7.2-24.2-2.6-29c-2.7-1.3-6.7-3-10.3-2.4c0.1-2.7,0.2-5.4,0.2-8.2c1,0.4,1.9,0.8,2.9,1.2c1.1-0.5,1.7-0.8,2.4-1.7
			c0.1-0.6,0.2-1.3,0.2-1.9c-3.9-3.4-8.6-6.5-8.2-13.9c0.6-0.1,1.1-0.2,1.7-0.2c1.3-2.6,1-5.9,1.2-8.2c-0.5-0.4-1-0.8-1.4-1.2
			c-0.9-0.7-2.4-0.8-4.1-0.7c-0.8,0.4-1.6,0.8-2.4,1.2c-1.1,2.4-1,6,1.2,7.2c-0.3,4.6-3.1,6.2-3.8,10.6c0.5,4.1,1,8.2,1.4,12.2
			c-0.6,4.1-2.8,10.2,0.7,13c2.6,2,11,1,15.4,1C249.2,128.3,249.3,127.9,249.4,127.5z M576.2,138.3c-1.4-1.4-2.2-3.4-4.3-4.1
			c-6.9-2.3-13.5,8.8-17.8,10.6c-2.9,1.2-8.1-1.2-8.6-3.4c2.9-3.4,9-8.9,12.7-11.3c1.2-0.3,2.4-0.6,3.6-1c1.6-1.8,3.2-3.5,4.8-5.3
			h-0.5c-7.7,4.3-15.4,8.6-23,13c-2.5,1.2-5.8,4.1-8.6,2.4c0.3-1.3,0.6-1.3,1.2-2.2c-1-2.2-2.3-4-2.9-6.2c-1.1-0.7-2-1-4.1-1
			c-1.2,1.2-2.4,1.8-3.4,3.4c-0.2,3.9,1.6,5.8,4.8,6.2c0.6,2.2,1.3,4.3,1.9,6.5c3.2,4.8,18.4,13,27.4,9.6c4.1-1.6,7.5-5.7,9.6-9.4
			c-0.3-0.8-0.6-1.6-1-2.4c1-1.2,1.9-2.4,2.9-3.6h0.5c3.8,3.3,7.1,7.5,12,9.6c0.2,1.5-1.1,3.4-0.2,5.3c0.8,1.1,8.9,1.3,10.8,0.5
			c0.7-0.5,0.4,0,0.7-1v-0.2C586.4,152,581.6,143.7,576.2,138.3z M413.8,138.7c-2.7,1-5-0.1-7-0.7c-2.2-0.7-12.9,1.6-15.4,2.6
			c-0.4,0.4-0.3,0.9-0.2,2.2c-3.2,0.8-5.5-0.9-9.1-0.5c-4.2,0.4-7.8,2.2-11.5,2.9c-2.3,0.4-3.9-1.3-6.7-1c-1.1,3.8-0.4,8.6,1.4,11
			h1.2V151c0.6-0.7,1.3-1.4,1.9-2.2c7.5-0.2,15-0.5,22.6-0.7c1.2-0.2,1.4,1.2,1.4,2.6c5.4-0.1,11.2-1.7,16.3-1.9v-1.7
			c0.1,0.4,0.2,0.8,0.2,1.2c8.7-1.1,8-0.9,11,6.2c2.4,0.2,4.8,0.5,7.2,0.7v-0.2c-1.4-1.1-5-2.1-6.5-2.6c-0.2-1.8-0.5-3.7-0.7-5.5
			c3.3-1,7.1-4.7,10.1-4.1h1.7c0.1,0.7,0.2,1.4,0.2,2.2c2.4,1.3,5.1,2.1,7.9,2.2c2-1.8,2.3-3.5,2.2-6.5c-4-4.5-4.2-0.9-8.6-1.4
			c-1.2-0.7-2.4-1.4-3.6-2.2c-4.3-2-11.1-2.1-15.4-0.7C414.2,137.1,414,137.9,413.8,138.7z M407.8,141.1v-1c0.1,0.3,0.2,0.6,0.2,1
			H407.8z M408.2,143.8h0.2c-0.1,0.2-0.2,0.5-0.2,0.7V143.8z M408.5,146.2v-0.7h0.2C408.6,145.7,408.6,145.9,408.5,146.2z
			 M185,174.7H157v1.7c3.4,2.9,24.1-2.1,28.6,1.9c0.7-0.8,1.4-1.6,2.2-2.4c-0.9-0.7-1.8-1.4-2.6-2.2V174.7z M329,178.6
			c0.5-0.6,1-1.1,1.4-1.7c0.2-0.2,0.5-0.5,0.7-0.7c-0.6-0.6-1.3-1.1-1.9-1.7c-0.2-0.2-0.3-0.3-0.5-0.5c-0.1,0.4-0.2,0.8-0.2,1.2
			h-28.1v2.2C305.7,177.3,327.1,176.3,329,178.6z M477.1,175.2c-3.8,1.7-22.1,0.5-27.8,0.5c-0.1,0.6-0.2,1.3-0.2,1.9
			c0.2,0.1,0.3,0.2,0.5,0.2c5.6-0.1,25.7-1.2,28.1,1.2c0.7-0.8,1.4-1.6,2.2-2.4c-0.8-0.7-1.6-1.4-2.4-2.2
			C477.3,174.7,477.2,175,477.1,175.2z M326.2,260.2c-0.1,0.3-0.2,0.6-0.2,1l7.7,7.7c3.6-0.9,2.3-3.4,4.3-5.5
			c4.1-4.1,10.8-3.9,11.8-11.3c2-0.6,4-1.3,6-1.9c1,0.7,1.2,1.5,2.4,1.9c3.8-2.1,11.6-5,13.7-8.9c0.5-2.2,1-4.3,1.4-6.5
			c0.9-1.8,1.8-3.7,2.6-5.5h1c5.5,10.3,2.7,24.4,2.6,38.2h2.4c0.1-1.8,0.2-3.7,0.2-5.5h16.8c0.6,1.2,0.5,3.4,0.5,5.3
			c0.8,0.1,1.6,0.2,2.4,0.2c1.4-5.3-1-13.1-0.7-18.2c1.2-8.1,2.4-16.2,3.6-24.2c-0.6-0.7-1.4-0.7-2.4-1h-0.7
			c-1,6.7-2.1,13.4-3.1,20.2c-5.3,0.1-10.6,0.2-15.8,0.2c-1.6-6.2-0.9-13-1.9-18.7c-0.7-3.7-2.9-6.9-3.6-10.8
			c-0.6-3.1,2.4-3.9,1.4-7c0.3-1.2-0.7-1.8-1.4-2.6c-2.3-0.6-4.2-0.7-6.2,0.2c-1.1,3.1-0.1,5.2,0.2,8.9c0.6,0.1,1.3,0.2,1.9,0.2
			c0.1,0.4,0.2,0.8,0.2,1.2c-1.4,2.7-4.7,4.4-5.8,7c-1.2,3.7-2.4,7.4-3.6,11c-3.8,2.4-7.5,4.8-11.3,7.2
			c-5.8,6.6-11.5,13.1-17.3,19.7c-1.8-0.2-3.5-0.3-5.3-0.5C328.7,261.5,327.4,260.8,326.2,260.2z M383,249.4
			c5,0.1,10.1,0.2,15.1,0.2c1.6,1.7,1,9.5,1,12.5c-5.4,0.1-10.7,0.2-16.1,0.2C381.4,260.5,382.2,252.3,383,249.4z M138.2,272.9
			c-1,6.6-2.1,13.3-3.1,19.9c-0.9,0.5-3.4,0.8-4.6,0.2c-0.2-0.1-0.3-0.2-0.5-0.2c0-0.6,0.4-1-0.2-1.4c-1-0.2-2.1-0.3-3.1-0.5
			c-1.1-0.9-2.2-1.8-3.4-2.6c-2.6-5.7,1.4-19.8,2.2-25.2c0.8-0.1,1.6-0.2,2.4-0.2c1.9-4.3,1.1-13.7,0-17.3c0.1-4.6,0.2-9.3,0.2-13.9
			c-0.9-3.7-2.9-5.8-2.9-10.8c0.7-0.1,1.4-0.2,2.2-0.2c0.4-4.8,1.3-14.9-7.4-8.2c-0.7,2.5-0.6,5.6,1.4,6.7
			c-0.2,4.5-2.8,6.9-3.8,10.6c-0.4,1.5,1.4,10.2,1.9,12.7c0.4,2.1-1.8,4.1-2.2,6c0.2,4.7,0.5,9.4,0.7,14.2c0.8,0.2,1.6,0.3,2.4,0.5
			c0.6,3.3-1.1,5.3-1.7,8.2c-0.8,4,0.5,9,1,11.5c0.9,4.7-1.3,6.2-1.2,10.6c-0.4-0.1-0.8-0.2-1.2-0.2c-0.4,7.7-0.8,15.4-1.2,23h2.4
			c-0.1-0.7,0.1-4.6,1-5.3c5.4-0.1,10.7-0.2,16.1-0.2c0.6,1.2,0.5,3.6,0.5,5.5h2.6c-0.1-13.2-1.3-29.5,2.6-42.5
			C140.6,273.2,139.5,272.9,138.2,272.9z M119.3,309.1c0.2-4.2,0.3-8.5,0.5-12.7h15.4c0.2,4.2,0.5,8.3,0.7,12.5
			C130.3,309,124.8,309.1,119.3,309.1z M98.6,273.1c-1-0.1-1.9-0.2-2.9-0.2c-1.9,5.5-2.9,13-3.1,19.4c-0.2,0.2-0.5,0.5-0.7,0.7h-4.6
			c0.1-0.4,0.2-0.8,0.2-1.2c-2.2-1.1-4.6-2.2-6.5-3.1c-3.4-5.1,1-15.5,0-21.8c-4.3-2.4-12.1-0.2-16.1,1h-1c0.4-4.6,0.8-9.1,1.2-13.7
			c-0.7-3.4-2.1-5.8-1.9-10.1c0.6-0.6,0.9-0.7,2.2-0.7c0.6-2.2,2.1-5.9,1.2-7.9c-0.5-1.3-1.8-2.3-3.1-1.9c-1.6-0.4-2.9,0.1-4.3,0.5
			c-1.9,3-0.1,5.2,0.5,8.6c-3,6-7.3,13.5-3.8,22.6c-0.6,2.9-3.3,4.9-4.1,8.2c-0.8,3.4,0.7,7.4-0.5,11c0.6,0.2,1.3,0.3,1.9,0.5v5.5
			c-6.4,4.1-6.4,10.9-10.6,17.3c-1.1,1.7-2.5,2.3-3.4,4.6c1.4,2.7,8.1,4.6,10.8,3.1c0.2-0.1,0.5-0.2,0.7-0.2v-0.7
			c-1.5-0.5-3-1-4.6-1.4c-2.1-11.8,14.5-21,16.8-32.9c2.5-0.9,5-1.8,7.4-2.6c0.1-0.6,0.2-1.3,0.2-1.9c1.3-0.8,2.6-1.6,3.8-2.4h1
			c0.4,4.9,0.8,9.8,1.2,14.6c-1.1,1.9-1.3,2.3-1,5.3h-1.2c-0.4,7.6-0.8,15.2-1.2,22.8c0.7,0.1,1.4,0.2,2.2,0.2
			c0.2-1.7,0.5-3.4,0.7-5c1.4-1.8,12.6,0.1,15.8-0.7c1.4,1.1,1.5,3.3,1.4,5.8H96c0-6.5-1.2-15.4-1-20.9
			C96.2,287.9,97.4,280.5,98.6,273.1z M93.1,308.4c-1.3,1.2-12.9,0.6-16.8,0.5c0.2-4.2,0.5-8.3,0.7-12.5c4.9-0.1,9.8-0.2,14.6-0.2
			C93.4,297.1,93.9,306.3,93.1,308.4z M221.5,286.1c0.9-0.1,1.8-0.2,2.6-0.2c1-5.3,1.4-13-0.2-17.3c0.1-4.3,0.2-8.6,0.2-13
			c-0.6-4.3-2.9-6.3-2.9-11.8c0.7-0.2,1.4-0.3,2.2-0.5c0.1-2.6,1.7-5.6,0.5-7.9c-0.4-0.4-0.8-0.8-1.2-1.2c-2.1-1.8-5.3-0.1-6.7,1
			c-0.7,2.5-0.6,5.6,1.4,6.7c-0.1,4.9-3.4,6.7-3.8,11c0.7,4.8,1.4,9.6,2.2,14.4c-2.4,0.5-3.2,14-1.4,18c0.5,0.5,0.8,0.5,1.9,0.5
			c1.6,3.5-1.6,6.2-1.7,10.1c0.3,2.9,0.6,5.8,1,8.6c0.1,2.2,0.2,4.3,0.2,6.5c-0.8,1.3-2.1,2-1,4.3c1,1.4,8.8,1,11,0.5
			c0.2-0.1,0.3-0.2,0.5-0.2v-1c-3.1-0.9-4.3-1.8-6.5-2.9C216.4,305.9,221.2,291.8,221.5,286.1z M449.5,275.3
			c-0.6-0.2-1.1-0.3-1.7-0.5h-1.7c-1,6.6-1.9,13.1-2.9,19.7c-3.6,1.6-11.5,0.5-16.1,0.5c-1.9-5.8,4.6-8.7,6.5-12.7
			c-1-5.7-9.2-5.2-11.8-11c0.5-2.4,3-4.4,1.4-7.4c-0.4-0.6-0.8-1.1-1.2-1.7c-2.4-0.6-4.6-0.3-6.5,0.5c-0.8,3.1,0.1,5.4,0.2,8.6
			c0.6,0.2,1.3,0.3,1.9,0.5c1.1,4.4-2.6,5.9-3.8,8.6c-0.6,4-1.3,8-1.9,12c-7.7,2-14.8-1.3-19.9,2.4c-7.8,5.7-3.4,21-18,14.2h-0.7
			c0.3,2.8,5.9,7.8,8.4,8.4c1.8-1.7,1.4-2.4,2.4-4.6c2.2-5,9.5-4.6,9.6-13.4c1.6,0.2,3.2,0.5,4.8,0.7c0.2,0.8,0.3,1.6,0.5,2.4
			c6.4,1.8,18.6,3.4,21.1-2.4c0,0,4.1-18,4.1-18.7c1.6,0.2,3.2,0.5,4.8,0.7c-1.7,4.1-3.4,8.2-5,12.2c0.3,2,0.6,4,1,6
			c-0.3,5.8-0.6,11.7-1,17.5h2.4c0.2-1.8,0.3-3.7,0.5-5.5h16.6c0.7,1.5,0.6,3.9,0.7,5.5h2.4C446.6,303,445.2,288.6,449.5,275.3z
			 M443.5,310.3c-1.8,1.3-13.1,0.5-16.3,0.5c0.2-4.2,0.3-8.5,0.5-12.7c5.1,0.1,10.2,0.2,15.4,0.2
			C444.2,299.5,444.3,309.4,443.5,310.3z M267.8,271.2c-0.1,0.3-0.2,0.6-0.2,1c-10,3.8-19.6,7.6-19.9,19.4c-0.1,2.1-1.1,3.3,0.2,5.3
			c2.2,3.4,10.1,3.6,13.9,1.4c1.4-0.8,2.2-2.4,3.8-2.9c-0.3,1.7-4.5,15.5-5.5,15.8c-0.7,1.4-0.6,2.5-0.5,4.6
			c2.5,1.2,7.9,0.7,11.3,0.2c0.2-0.4,0.3-0.8,0.5-1.2c-0.2-0.1-0.5-0.2-0.7-0.2c-2.5-1.3-3.6-1.4-5.5-2.9c-0.2-0.2-0.5-0.3-0.7-0.5
			c-1.2-6.7,11-14.4,9.1-21.6c-1.3-2.6-8.2-2.5-12-2.4v-0.2c1.8-1.3,3.5-2.6,5.3-3.8c1.1-1.2,1-2.7,2.4-3.6
			c9.6-2.6,20.4-1.4,29.5-3.1c0.1-0.2,0.2-0.3,0.2-0.5c-9.2-0.6-18.4-1.3-27.6-1.9v-1.2h2.2c0.8-2.2,2.2-5.5,1.2-7.2
			c0.2,0.1,0.5,0.2,0.7,0.2c-0.2-1.7-0.7-1.9-1.4-2.9c-1.6-0.4-3.5-1-5-0.2C264.9,264.8,268.1,268.6,267.8,271.2z M258,288.5
			c-0.4,0.1-0.8,0.2-1.2,0.2c0.1-0.2,0.2-0.3,0.2-0.5h1V288.5z M574.6,311.8c-3.1,0.3-7.2-1-11.3-1c0.1-2.8,1-11.7,3.4-11.5h1.7
			c0.1,0.7,0.2,1.4,0.2,2.2c2.3,0.9,4.6,1.4,7.4,1.7c0.7-0.6,1.4-1.3,2.2-1.9c0.5-1.9,0.7-4-0.5-5.3c-2.2-3.7-5.1,0.2-8.4-0.5
			c-3.2-0.7-6.3-3.5-10.8-2.9c-3.9,0.5-6,3.2-9.4,4.1c-3.2,0.9-5.8-1.1-7.9-1c-5,0.3-7.6,3-13.4,3.4v2.2c-3.3,1.6-5.5-0.5-9.6,0.2
			c-4,1.2-8,2.4-12,3.6c-1.4,0.1-3.5-1-5.5-1c-1.3,2.7-0.5,7.5,0,10.1c0.9,0.5,1.2,0.9,2.6,1c0.1-0.1,0.2-0.2,0.2-0.2
			c-0.2-1.3-0.3-2.6-0.5-3.8c0.7-0.9,1.4-1.8,2.2-2.6c7.7-0.2,16.2-3.6,23.3-1.9c0.3,1,0.6,1.9,1,2.9c11.7-1.4,18.5-4.6,29.3-6
			c-0.9,17.1,9.1,10.9,21.4,10.8c0.1-1.3,0.2-2.6,0.2-3.8C577.8,308.6,576.3,311.6,574.6,311.8z M544.1,297.9c0.1,0.3,0.2,0.6,0.2,1
			h-0.2V297.9z M544.3,300v-1c0.1,0.3,0.2,0.6,0.2,1H544.3z M544.8,302.7v-0.7h0.2C545,302.2,544.9,302.4,544.8,302.7z M545.3,305.1
			v-0.7h0.2L545.3,305.1z M156,338.2v1.9c8.3,2.1,21.8-2.4,28.8,1.2c0.6-0.7,1.3-1.4,1.9-2.2c-0.7-0.7-1.4-1.4-2.2-2.2
			C182.1,339.5,160,338.1,156,338.2z M328.1,342c0.7-0.6,1.4-1.3,2.2-1.9v-1c-0.8-0.6-1.6-1.3-2.4-1.9v1c-9.4,0.1-18.7,0.2-28.1,0.2
			v2.2C306.1,340.5,327.2,339.8,328.1,342z M474.5,338.9h-26.2v2.2c4.1-0.1,27.3-0.5,28.1,1c1.3-0.4,1.8-1.1,2.6-1.9v-0.2
			c-0.7-0.7-1.4-1.4-2.2-2.2C476.4,337.7,476,338.8,474.5,338.9z M69.1,427.5c4.2-4.4,7-10.1,10.8-14.9c-0.6-1.2-0.4-1.8-1.9-2.2
			c-0.2,0.2-0.3,0.5-0.5,0.7c0.3-0.2,0.6-0.3,1-0.5v0.7c-1,0.1-0.5,0.1-1.2-0.2c-0.5,0.9-1,1.8-1.4,2.6c-0.9-0.3-0.5,0-1-0.7
			c-0.1,1.2-0.2,2.4-0.2,3.6c-1,2.5-3.6,4.1-5.3,6h-1.2c-3.6-3.3-7.1-9.1-7-16.1c0.6-0.2,1.3-0.3,1.9-0.5c1.1-3,1.3-6.3,0.2-9.1
			c-1.4-0.6-2.9-0.8-5-0.7c-1.1,0.7-1.9,1.1-2.6,2.2c-0.6,2.5,0,5.3,1.7,6.2C57,412.5,51.1,415,49,421c-2,5.6,0.2,11-1.4,17
			c-0.6,1.3-1.1,2.6-1.7,3.8h0.7c-0.5,0.8-0.1,0.5-1,0.2c0.4,1.1,0.8,1.1,0.5,2.4c0.7,0.3,0.3,0,0.7,0.5c1.4-0.7,1.7-2,1.9-3.8h1.4
			c-0.9-4.3-0.3-11.6,1.2-17c0.5-1.1,1.6-2.3,2.9-2.6c0.3,2.9,0.6,5.8,1,8.6c-0.5,2.2-1,4.5-1.4,6.7c0.4,5,4.9,11.4,7.7,14.6
			c-0.7,2.3-3.3,3-4.6,4.8c-1.8,4.7-3.7,9.4-5.5,14.2c-0.7,1.5-2.3,2.3-3.1,4.1v1.4c3.4,1.4,6.7,2.9,10.1,4.3l1-1
			c-2.1-2.4-4.1-3.4-5.3-7c4.4-7.9,13.7-15.7,13.2-26.9c2.3,0.2,2.9,0.2,4.8,0.7c-1.1,1.8-2.2,3.7-3.4,5.5c-0.8,4.5-1.6,9-2.4,13.4
			c-2.1,0.4-2.3,1.7-3.4,3.1v1.2c2.6,1.8,6.5,5,9.8,5.5H73c0.1-0.4,0.2-0.8,0.2-1.2c-1.6-2-3.7-3.2-4.1-6.5c0.6-1.8,1.1-3.7,1.7-5.5
			c3.3-10.8,9.2-17.7-1.2-25c-1.4-1-2.5-2.4-4.3-3.1c-1.6-2.6-1.3-5-1.2-8.4C65.8,426,67.4,426.7,69.1,427.5z M134.2,434.7
			c-2-4-7.8-1.8-11.5-3.1c-6.9-4.3,6.3-11.7,8.2-15.1c2.2-1.6,1.5-1.9,1-4.1c-0.3-0.1-0.6-0.2-1-0.2c-0.6,1.3-1.7,2.7-3.4,2.9v-1.4
			c-1.7,4.7-2.6,7.8-7.7,8.9v-4.8c-0.1-3.6-3-6.2-2.9-10.8c0.6-0.1,1.3-0.2,1.9-0.2c0.8-2.7,0.5-5.1,1.2-7.4c-0.2-0.5-0.5-1-0.7-1.4
			c-1.1-0.8-3.5-1.9-5.5-1c-1.2,0.4-1.7,0.8-2.2,1.9c-1.7,2,0.3,5.3,1.4,6.7c-0.6,4.2-3.1,6.2-3.8,10.1c-0.7,3.8,0.9,6.9,1.4,9.6
			c1,5.2-1.9,8.9-1.2,12.7c0.8,4.9,7,10.9,7.7,15.1c-4.6,6-3.1,11.5-5.8,19.4c-0.6,1.8-2.5,2.7-1.9,5.3v0.5
			c2.3,1.2,8.6,2.7,11.3,1.9c0.1-0.2,0.2-0.5,0.2-0.7c-1-0.4-1.9-0.8-2.9-1.2c-1.2-1.4-2.4-2.7-3.6-4.1c1-7.8,5.8-14.2,7.9-21.1
			c1.2-3.8,0.1-7.2,0-11.3h0.2c0.7,0.7,1,1.4,1.2,2.6c1.3-0.2,1.4,0.2,3.1,0c-0.2-0.9-0.5-1.8-0.7-2.6c0.5-0.4,0.5-0.4,1.4-0.5v-2.4
			c0.6-0.2,1.3-0.3,1.9-0.5c-0.6,4.7-1.5,10.6-1.4,17c-1.7,0.6-2,1.7-2.6,3.4c0.1,0.6,0.2,1.1,0.2,1.7c3.4,0.9,6.1,2.3,9.1,3.6h1.4
			c0.1-0.3,0.2-0.6,0.2-1c-1.1-0.8-2.2-1.6-3.4-2.4C127.7,454.1,136.4,443.1,134.2,434.7z M216.5,475.2c-2.9-6.4,1.8-18.5,1.9-25.2
			c1-0.1,1.9-0.2,2.9-0.2c0.2-4.4,0.5-8.8,0.7-13.2c-0.5-2.8-1-5-1-8.4v-10.3c-1.1-3.3-2.8-5.2-2.6-9.6c0.6-0.1,1.3-0.2,1.9-0.2
			c0.6-3,0.8-4.6,1-7.9c-0.5-0.6-1-1.1-1.4-1.7c-2.3-0.6-3.7-0.4-5.8,0.2c-2.2,3-1.6,5.5,0.5,8.2c-1,7.9-8.7,7.8-11.5,14.2
			c0.5,5.7,6.4,7.3,9.1,11c-2.9,4.1-1.3,10.8-1.2,17.5c0.7,0.2,1.4,0.3,2.2,0.5h0.5c0.1,3.6-1.3,5.4-1.9,8.6
			c0.4,5,0.8,10.1,1.2,15.1c-0.3,1.9-1.8,3-1.2,6c1.1,0.5,9.4,0.8,10.8,0c0.8-0.6,0.6-0.2,0.5-1.2
			C219.5,477.9,218.9,476.4,216.5,475.2z M211.9,428.2c-2.2-1-3.2-3.8-5-5.3v-0.5c1-0.8,2.1-1.6,3.1-2.4c1.8,0.9,1.8,6.1,2.2,7.7
			C212.1,427.9,212,428,211.9,428.2z M385,420c2.2,0.1,4.3,0.2,6.5,0.2c-4-3-7.4-0.9-7.4-8.2c4.9-1.5,6.8-4.6,12-4.1v1.9
			c2.4,1.5,4,1.2,6.7,2.2c4-0.1,3.9-4.5,2.9-7.4c-3.9-2.5-4.7,0.2-8.2-0.5c-3.7-0.7-15-7.5-19.4-1.9c-0.1,0.6-0.2,1.3-0.2,1.9
			c-3.6,0.1-5.4-0.8-8.2-1.2c-4.6,1-9.3,1.9-13.9,2.9c-0.8,0.7-0.6,0.7-0.5,2.2c-3.4,0.8-6.2-1.1-10.1-0.5c-3.7,1-7.4,1.9-11,2.9
			c-1.8,0.1-3.3-1.4-6-1c-0.2,0.1-0.3,0.2-0.5,0.2c-0.2,4.2-1.3,10.1,2.6,10.8h0.2c0.1-1.5,0.2-3,0.2-4.6c4.4-3.4,18-4.3,24.7-2.9
			c0.5,0.8,0.7,1,0.7,2.4c5.9,2.5,18.3-2.2,24.2-3.1C381.4,414.5,382.9,418.9,385,420z M438.7,477.9c-2.3-5.7,0.8-13.9,0-19.7
			c-0.6-4.6-2.4-8.7-2.4-12.5c2.2-1,4.9-1.5,7-2.2c0.8-1.2,1.3-1.8,1.2-4.1c-0.3-0.6-0.6-1.1-1-1.7c-3.7-1.3-6.7,0.1-7.9,3.4
			c-0.4,0.2-0.8,0.3-1.2,0.5c-1-0.6-2.1-1.3-3.1-1.9c-0.6-2.5-1.3-5-1.9-7.4c-1.8-5.1-3.5-10.2-5.3-15.4c-0.5-2.1,0.5-3.5,1-4.8
			c-1.4,0.2-1.8-0.8-1.7-2.6c-0.1,0.2-0.2,0.5-0.2,0.7h-0.7c0.4-0.8-0.1-0.3,0.7-0.7c-0.1-0.4-0.2-0.8-0.2-1.2
			c-0.4,0.1-0.8,0.2-1.2,0.2c-1.3,0.4,0.1,0.5-1.2,1c0.4,3,1.9,4.4,2.4,6.7c1.3,5.8,0.9,10,2.2,15.8c0.6,1.8,1.1,3.7,1.7,5.5
			c-1.7,8.4-14.9,9.4-21.1,13.2c-2.3,1.9-4.6,3.8-7,5.8c0.2,1,0.5,1.9,0.7,2.9c-8.5,4.7-19,11.2-25.4,18.2c-0.1,0.4-0.2,0.8-0.2,1.2
			c2.4,1.2,4.2,2.3,7.9,2.2c0.7-1.5,0.4-3.6,0.2-5.5c7.4-0.2,16.4-3.9,20.9-7.7c1.3,0.3,1.2,0.5,1.9,1.2c4.6-2.2,9.1-4.5,13.7-6.7
			c5.4-3.1,6.8-7.8,15.4-7.4c1.2,8.4,1.9,17.1,3.4,25.2c1.8,1.1,5.3,1.1,7.4,1.2l0.5-0.5C442.4,480.2,439.8,479.9,438.7,477.9z
			 M421.4,408.7h0.7C422,409.4,421.8,409.4,421.4,408.7z M283.2,448.6c-2.4-4-8.3-3.8-13.4-5v-13.2c-0.5-4.1-3-5.9-2.9-11
			c0.6-0.1,1.3-0.2,1.9-0.2c0.7-2.4,1.3-5.5,0.7-7.9c-1-2.3-3.4-2.2-6.2-1.9c-0.8,0.9-1.6,1.8-2.4,2.6c0.4,2.1,1.4,4.1,1.9,5.8
			c1.7,5.4-4.8,7.1-7.2,8.9c-1.8,1.3-2.7,3.5-4.1,5.3c0.4,5.3,6.1,8.2,9.1,11.3c-4.3,6.1,2.4,17.8,1.2,24.2
			c0.1,2.1-14.7,0.9-18.2,2.2c-0.3,0.2-0.6,0.5-1,0.7c0.3,2.7,1.3,8.8,3.4,9.8c1.1,0.1,2.2,0.2,3.4,0.2c0.2-0.2,0.5-0.5,0.7-0.7
			c-1-2.7-2.3-2.6-2.2-6.7c6.2,0.1,11.7,1.1,18.2,0.7c3.2-5,5-11,4.8-19.2c2.1-0.3,4.5,0.3,6-0.7h2.2c-0.8,5.8-2,12.8-0.2,19.4
			c-0.1,2.8-1.4,2.9-1.4,6.5c0.2,0.1,0.3,0.2,0.5,0.2c1,0.9,8.7,1.3,10.6,0.2c0.2-0.2,0.5-0.3,0.7-0.5v-0.7
			c-3.8-0.5-4.8-2.1-7.2-3.8C282.1,468.4,285.5,452.6,283.2,448.6z M255.4,433.5c1-0.8,2.1-1.6,3.1-2.4h0.7c0.4,3,1.2,4.7,1.2,8.2
			C258.7,438.2,256.1,435.4,255.4,433.5z M573.1,472.3c-2.2-1.4-4.3-2.9-6.5-4.3c-3.9-1-7.8-2.1-11.8-3.1c-2-1-1.3-2.6-2.4-3.8
			c-0.1-0.2-6-2.9-6.5-3.1c-1.8-0.3-3.7-0.6-5.5-1c-4.8-1.6-10.3-3.7-15.4-4.8c-2.4-0.6-4.1,0-6-0.7c-0.7,0.1-1.4,0.2-2.2,0.2
			c-1.8,1.7-3.4,3.8-5.3,5.3c-3.9-0.4-4.9-4-9.8-2.6c-0.5,0.3-1,0.6-1.4,1c-0.5,2-0.3,3.1,0.2,4.8c3.4,1.8,5.6,0.6,9.6,1.2
			c4.1,7.4-1.6,12.3-0.2,18l1,1c0.8,0.7,2.2,0.8,3.8,0.7c0.1-1.4,0.2-2.7,0.2-4.1c-0.6-0.1-1.3-0.2-1.9-0.2c0.7-2.7,2.4-4.2,2.6-7.7
			c0.4-0.2,0.8-0.3,1.2-0.5c2-0.9,7.5,0.6,9.8,1.2c3.7,1.8,7.4,3.7,11,5.5c3.4,0.9,6.9,1.8,10.3,2.6c0.2-0.5,0.5-1,0.7-1.4
			c7.2-1.1,13,3.6,20.2,1.7c4.9,0,4.8,2.3,8.4,3.1c0.7-2.7,1.4-5.4,2.2-8.2C577.8,471.2,575.5,473.4,573.1,472.3z M536.2,457.9
			c-0.1,0.2-0.2,0.5-0.2,0.7c-2.7-0.6-6.7-0.4-9.1-1.7c-0.7-0.5-0.4,0-0.7-1c0.7-0.1,1.4-0.2,2.2-0.2c2.6,0.6,5.3,1.3,7.9,1.9V457.9
			z M550.3,470.7c0.2-0.7,0.3-1.4,0.5-2.2c8.5,1.1,16.1,5,24,7.2C572.1,476.6,554.7,471.1,550.3,470.7z M183.4,500.4
			c-3,1.4-24,1.3-27.8,0.2c-0.1,0.7-0.2,1.4-0.2,2.2c6.9,1.8,24.1-2.2,28.6,1.4c0.8-0.9,1.5-1.1,1.9-2.4c-0.8-0.7-1.6-1.4-2.4-2.2
			V500.4z M298.8,501.4v1.9c9.2,0.1,18.4,0.2,27.6,0.2c0.3,0.4,0.6,0.8,1,1.2c0.6-0.6,1.3-1.1,1.9-1.7c0.1-0.2,0.2-0.3,0.2-0.5
			c-0.6-0.8-1.3-1.6-1.9-2.4C321.2,503.2,306.6,501.2,298.8,501.4z M475.9,500.7c-2.6,2.4-23.3,1.2-28.6,1.2v1.9
			c8.3,2.1,21.8-2.4,28.8,1.2c0.5-0.6,1-1.1,1.4-1.7C478.1,502.3,477,501.4,475.9,500.7z"/>
	</g>
	<g>
		<path fill="none" stroke="#1A1818" stroke-width="3" stroke-miterlimit="10" d="M115,127.5c0.6-1.3,1.3-2.6,1.9-3.8h0.2
			c0.6,1.1,1.3,2.2,1.9,3.4c0.8,0.3,1.9-0.1,2.9,0.5c1.4,0.8,12.7,18.8,13.4,20.9c-0.1,1.8-0.2,3.5-0.2,5.3c0.6,1,2.2,0.8,3.8,0.7
			c0.1-0.3,0.2-0.6,0.2-1c0.6-2.8-2.8-8.3-3.6-11.3c-1.6-5.7-4.8-9-6.7-13.7c-0.2-1.4-0.3-2.9-0.5-4.3c-1.2-4-3.2-8.8-4.6-12.7
			c-3.7-11,5.3-18.5,7-25.9c1.8-8.1-6.6-14-8.2-20.6c-1.1,0.5-0.5,0.3-1.4-0.5c-0.7,0.6-0.9,0.6-1.7,0.7c0.2,0.4,0.5,0.8,0.7,1.2
			c0.4,0.3,0,0.1,0.5,0c0.4,0.5,0.4,1.5,0.5,2.9h-1.4c1.2,0.6,2.4,1.1,3.6,1.7c1.6,3.4,3.2,6.7,4.8,10.1c-1.2,3.3-2.4,6.6-3.6,9.8
			c-2.3,0.6-3.4-0.1-5-1.2c0.5-3.5,2.3-6,0-9.4c-8.6-2.4-4.8,5.7-4.1,9.4c-1.4,0.9-3.1,2.2-5,1.2c-0.5-0.4-4-9-3.8-9.8
			c0.8-3.7,4.7-10.8,8.9-11.5c-0.6-0.2-1.1-0.3-1.7-0.5c0.6-1.3,1.3-2.6,1.9-3.8c-0.8-0.4-0.3,0.1-0.7-0.7h-2.2
			c-2.4,6.6-7.7,10.7-8.9,18c-1,6.6,4.5,11.7,6.2,16.1c1,2.5,0.3,11.1-0.2,13.7c-1.6,4.7-3.2,9.4-4.8,14.2c0.2,0.5,0.5,1,0.7,1.4
			c-2.2,3.8-4.5,7.7-6.7,11.5c-0.6,2.6-1.3,5.3-1.9,7.9c-1,2.5-3.1,3.1-3.1,7h4.1c0.2-2,0.5-4,0.7-6c1-1.3,2.1-2.6,3.1-3.8
			C104.4,140.4,109.7,126.4,115,127.5z M51.6,115.9v-0.5h1v1.9c0.1-2,0.2-4,0.2-6c1.2-4.4,3.8-11,4.3-15.8h0.7
			c0.1,9.4-1.4,16.3-2.9,25c-0.4,2.7,0.9,3.5,1.2,4.8c-0.4,3.5-0.8,7-1.2,10.6c0.3,3.1,0.6,6.2,1,9.4c0.5,3.4-3.1,5.5-1.9,8.6
			c0.7,0.7,2.5,0.6,3.8,0.5c1.8-8.4,0.8-17.9,2.9-26.9c0.9-3.7,3.3-4,3.4-9.1h0.2c0.9,1.3,0.2,3.7,1,5.3c0.7,0.4,1.4,0.8,2.2,1.2
			c0.2,2.1,0.5,4.2,0.7,6.2c1.5,7.4,1.8,14.8,1.7,23c1.4,0.1,2.7,0.2,4.1,0.2c0.6-2.6-1.2-4.9-1.2-7.9c0.4-2.6,0.8-5.3,1.2-7.9
			c-0.5-4.5-1-9-1.4-13.4c0.7-0.5,0.5-0.4,1.2-0.5c1.6-6.1-1.9-14-3.1-19c-0.9-3.7,0.1-7.6,0.2-11.5c2.2,1,5.4,18.4,5.3,22.8
			c0.2,0.1,0.3,0.2,0.5,0.2v-1.4h1c0.1,1.4,0.2,2.9,0.2,4.3c1.6-3.3-2.7-25.5-3.6-28.1c-0.6-1.9-0.2-4.1-1.2-5.5
			c-2.1-1.2-4.2-2.4-6.2-3.6c0.1-3.5,3.2-6.6,0.7-9.6c-0.8-1.4-2.3-1.6-4.6-1.4l-1.4,1.4c-0.8,4.3,1.1,5.5,1.2,9.6
			c-2.2,1.2-4.3,2.4-6.5,3.6c-2.1,3-0.9,8.9-2.2,13c-1.7,5.4-3.2,13.4-3.1,21.1C51.1,119,51.4,117.5,51.6,115.9z M514.8,104.7
			c14.8-0.1,16.7,1.4,23.3-9.4c-0.4-0.5-0.8-1-1.2-1.4c0.5-1.9,1.9-2.7,2.9-4.1h0.7c3.7,2.9,7.1,7.9,12,9.4c-0.2,2-0.8,3.3-0.5,5.5
			c2.3,1.1,8.1,0.9,11.3,0.2c0.2-0.2,0.3-0.5,0.5-0.7c-0.1-0.2-0.2-0.3-0.2-0.5c-9.1-1.8-17.9-20.4-24-20.4
			c-7.7,0-10.7,8.5-16.6,10.8c-2.5,1-5.8,0.3-8.6,0.2c2.1-8.7,13.7-11.2,16.3-19.4h-0.5c-3.4,2.6-6.9,5.3-10.3,7.9
			c-4.4,3.4-13.1,13-18.5,14.4c-0.6-0.2-1.1-0.5-1.7-0.7c-0.1-0.8-0.2-1.6-0.2-2.4c-2.9-1.3-4.9-3.4-8.9-2.6
			c-0.7,1.4-1.4,2.7-2.2,4.1c0.2,0.7,0.5,1.4,0.7,2.2c1.9,4,5.3,0.6,8.4,2.2c2.3,1.2,3.7,3.9,6.5,4.8H514.8z M343.2,114.5
			c0.9,0.5,2.4,0.2,3.1-0.2c0.2-0.2,0.5-0.3,0.7-0.5c-1.4-1.6-2.9-1.9-3.1-4.8c6.2-3.4,15.3-6.3,23.5-7c0.3,0.7,0.6,1.4,1,2.2
			c4.2-0.7,26-9.8,27.6-11.8h0.7c0.9,5.1-3.6,17.3-0.5,21.4c0.8,1.1,5.3,1.6,6.7,1c0.2-0.1,0.3-0.2,0.5-0.2c-2-0.7-4-1.4-6-2.2
			c-1.1-5.5,3.3-13.6,4.6-18.2c0.5-2,0.1-6.1,1.4-7.4c1.6-1.5,2.5-0.7,3.6,0.5c2.9-0.2,5.3-2.1,7-1.7c0.8-0.7,1.1-1.1,1.2-2.4
			c0.6-1.9-1.4-3.9-2.4-5c-1-0.2-1.9-0.3-2.9-0.5c-2,1.2-2.8,2.6-4.6,3.8c-4,0.3-8,0.6-12,1c-2.7,1.9-5.4,3.8-8.2,5.8
			c-2.8,1.1-5.5-0.1-7.7,0.5c-4.3,2.2-8.6,4.3-13,6.5c0.2,0.6,0.5,1.1,0.7,1.7V97c-2.4,1.4-5,0.6-8.2,1.4c-4.8,1.3-8.5,4.8-12.7,6.7
			c-1.9,0.9-4,0-5.8,1.2c-0.4,0.6-0.8,1.3-1.2,1.9C338.5,110.3,341.4,113.3,343.2,114.5z M249.4,127.5c0.2-0.1,0.3-0.2,0.5-0.2h2.2
			c-0.6,1.9-1.1,3.8-1.7,5.8c-0.9,4.8,0.5,8.8,1,12.7c0.5,3.9-2.7,5.2-1,8.4c0.5,0.6,9.4,1.1,10.8,0.2l0.7-0.7l-7.2-3.8
			c-2.7-9.7,7.2-24.2-2.6-29c-2.7-1.3-6.7-3-10.3-2.4c0.1-2.7,0.2-5.4,0.2-8.2c1,0.4,1.9,0.8,2.9,1.2c1.1-0.5,1.7-0.8,2.4-1.7
			c0.1-0.6,0.2-1.3,0.2-1.9c-3.9-3.4-8.6-6.5-8.2-13.9c0.6-0.1,1.1-0.2,1.7-0.2c1.3-2.6,1-5.9,1.2-8.2c-0.5-0.4-1-0.8-1.4-1.2
			c-0.9-0.7-2.4-0.8-4.1-0.7c-0.8,0.4-1.6,0.8-2.4,1.2c-1.1,2.4-1,6,1.2,7.2c-0.3,4.6-3.1,6.2-3.8,10.6c0.5,4.1,1,8.2,1.4,12.2
			c-0.6,4.1-2.8,10.2,0.7,13c2.6,2,11,1,15.4,1C249.2,128.3,249.3,127.9,249.4,127.5z M576.2,138.3c-1.4-1.4-2.2-3.4-4.3-4.1
			c-6.9-2.3-13.5,8.8-17.8,10.6c-2.9,1.2-8.1-1.2-8.6-3.4c2.9-3.4,9-8.9,12.7-11.3c1.2-0.3,2.4-0.6,3.6-1c1.6-1.8,3.2-3.5,4.8-5.3
			h-0.5c-7.7,4.3-15.4,8.6-23,13c-2.5,1.2-5.8,4.1-8.6,2.4c0.3-1.3,0.6-1.3,1.2-2.2c-1-2.2-2.3-4-2.9-6.2c-1.1-0.7-2-1-4.1-1
			c-1.2,1.2-2.4,1.8-3.4,3.4c-0.2,3.9,1.6,5.8,4.8,6.2c0.6,2.2,1.3,4.3,1.9,6.5c3.2,4.8,18.4,13,27.4,9.6c4.1-1.6,7.5-5.7,9.6-9.4
			c-0.3-0.8-0.6-1.6-1-2.4c1-1.2,1.9-2.4,2.9-3.6h0.5c3.8,3.3,7.1,7.5,12,9.6c0.2,1.5-1.1,3.4-0.2,5.3c0.8,1.1,8.9,1.3,10.8,0.5
			c0.7-0.5,0.4,0,0.7-1v-0.2C586.4,152,581.6,143.7,576.2,138.3z M413.8,138.7c-2.7,1-5-0.1-7-0.7c-2.2-0.7-12.9,1.6-15.4,2.6
			c-0.4,0.4-0.3,0.9-0.2,2.2c-3.2,0.8-5.5-0.9-9.1-0.5c-4.2,0.4-7.8,2.2-11.5,2.9c-2.3,0.4-3.9-1.3-6.7-1c-1.1,3.8-0.4,8.6,1.4,11
			h1.2V151c0.6-0.7,1.3-1.4,1.9-2.2c7.5-0.2,15-0.5,22.6-0.7c1.2-0.2,1.4,1.2,1.4,2.6c5.4-0.1,11.2-1.7,16.3-1.9v-1.7
			c0.1,0.4,0.2,0.8,0.2,1.2c8.7-1.1,8-0.9,11,6.2c2.4,0.2,4.8,0.5,7.2,0.7v-0.2c-1.4-1.1-5-2.1-6.5-2.6c-0.2-1.8-0.5-3.7-0.7-5.5
			c3.3-1,7.1-4.7,10.1-4.1h1.7c0.1,0.7,0.2,1.4,0.2,2.2c2.4,1.3,5.1,2.1,7.9,2.2c2-1.8,2.3-3.5,2.2-6.5c-4-4.5-4.2-0.9-8.6-1.4
			c-1.2-0.7-2.4-1.4-3.6-2.2c-4.3-2-11.1-2.1-15.4-0.7C414.2,137.1,414,137.9,413.8,138.7z M407.8,141.1v-1c0.1,0.3,0.2,0.6,0.2,1
			H407.8z M408.2,143.8h0.2c-0.1,0.2-0.2,0.5-0.2,0.7V143.8z M408.5,146.2v-0.7h0.2C408.6,145.7,408.6,145.9,408.5,146.2z
			 M185,174.7H157v1.7c3.4,2.9,24.1-2.1,28.6,1.9c0.7-0.8,1.4-1.6,2.2-2.4c-0.9-0.7-1.8-1.4-2.6-2.2V174.7z M329,178.6
			c0.5-0.6,1-1.1,1.4-1.7c0.2-0.2,0.5-0.5,0.7-0.7c-0.6-0.6-1.3-1.1-1.9-1.7c-0.2-0.2-0.3-0.3-0.5-0.5c-0.1,0.4-0.2,0.8-0.2,1.2
			h-28.1v2.2C305.7,177.3,327.1,176.3,329,178.6z M477.1,175.2c-3.8,1.7-22.1,0.5-27.8,0.5c-0.1,0.6-0.2,1.3-0.2,1.9
			c0.2,0.1,0.3,0.2,0.5,0.2c5.6-0.1,25.7-1.2,28.1,1.2c0.7-0.8,1.4-1.6,2.2-2.4c-0.8-0.7-1.6-1.4-2.4-2.2
			C477.3,174.7,477.2,175,477.1,175.2z M326.2,260.2c-0.1,0.3-0.2,0.6-0.2,1l7.7,7.7c3.6-0.9,2.3-3.4,4.3-5.5
			c4.1-4.1,10.8-3.9,11.8-11.3c2-0.6,4-1.3,6-1.9c1,0.7,1.2,1.5,2.4,1.9c3.8-2.1,11.6-5,13.7-8.9c0.5-2.2,1-4.3,1.4-6.5
			c0.9-1.8,1.8-3.7,2.6-5.5h1c5.5,10.3,2.7,24.4,2.6,38.2h2.4c0.1-1.8,0.2-3.7,0.2-5.5h16.8c0.6,1.2,0.5,3.4,0.5,5.3
			c0.8,0.1,1.6,0.2,2.4,0.2c1.4-5.3-1-13.1-0.7-18.2c1.2-8.1,2.4-16.2,3.6-24.2c-0.6-0.7-1.4-0.7-2.4-1h-0.7
			c-1,6.7-2.1,13.4-3.1,20.2c-5.3,0.1-10.6,0.2-15.8,0.2c-1.6-6.2-0.9-13-1.9-18.7c-0.7-3.7-2.9-6.9-3.6-10.8
			c-0.6-3.1,2.4-3.9,1.4-7c0.3-1.2-0.7-1.8-1.4-2.6c-2.3-0.6-4.2-0.7-6.2,0.2c-1.1,3.1-0.1,5.2,0.2,8.9c0.6,0.1,1.3,0.2,1.9,0.2
			c0.1,0.4,0.2,0.8,0.2,1.2c-1.4,2.7-4.7,4.4-5.8,7c-1.2,3.7-2.4,7.4-3.6,11c-3.8,2.4-7.5,4.8-11.3,7.2
			c-5.8,6.6-11.5,13.1-17.3,19.7c-1.8-0.2-3.5-0.3-5.3-0.5C328.7,261.5,327.4,260.8,326.2,260.2z M383,249.4
			c5,0.1,10.1,0.2,15.1,0.2c1.6,1.7,1,9.5,1,12.5c-5.4,0.1-10.7,0.2-16.1,0.2C381.4,260.5,382.2,252.3,383,249.4z M138.2,272.9
			c-1,6.6-2.1,13.3-3.1,19.9c-0.9,0.5-3.4,0.8-4.6,0.2c-0.2-0.1-0.3-0.2-0.5-0.2c0-0.6,0.4-1-0.2-1.4c-1-0.2-2.1-0.3-3.1-0.5
			c-1.1-0.9-2.2-1.8-3.4-2.6c-2.6-5.7,1.4-19.8,2.2-25.2c0.8-0.1,1.6-0.2,2.4-0.2c1.9-4.3,1.1-13.7,0-17.3c0.1-4.6,0.2-9.3,0.2-13.9
			c-0.9-3.7-2.9-5.8-2.9-10.8c0.7-0.1,1.4-0.2,2.2-0.2c0.4-4.8,1.3-14.9-7.4-8.2c-0.7,2.5-0.6,5.6,1.4,6.7
			c-0.2,4.5-2.8,6.9-3.8,10.6c-0.4,1.5,1.4,10.2,1.9,12.7c0.4,2.1-1.8,4.1-2.2,6c0.2,4.7,0.5,9.4,0.7,14.2c0.8,0.2,1.6,0.3,2.4,0.5
			c0.6,3.3-1.1,5.3-1.7,8.2c-0.8,4,0.5,9,1,11.5c0.9,4.7-1.3,6.2-1.2,10.6c-0.4-0.1-0.8-0.2-1.2-0.2c-0.4,7.7-0.8,15.4-1.2,23h2.4
			c-0.1-0.7,0.1-4.6,1-5.3c5.4-0.1,10.7-0.2,16.1-0.2c0.6,1.2,0.5,3.6,0.5,5.5h2.6c-0.1-13.2-1.3-29.5,2.6-42.5
			C140.6,273.2,139.5,272.9,138.2,272.9z M119.3,309.1c0.2-4.2,0.3-8.5,0.5-12.7h15.4c0.2,4.2,0.5,8.3,0.7,12.5
			C130.3,309,124.8,309.1,119.3,309.1z M98.6,273.1c-1-0.1-1.9-0.2-2.9-0.2c-1.9,5.5-2.9,13-3.1,19.4c-0.2,0.2-0.5,0.5-0.7,0.7h-4.6
			c0.1-0.4,0.2-0.8,0.2-1.2c-2.2-1.1-4.6-2.2-6.5-3.1c-3.4-5.1,1-15.5,0-21.8c-4.3-2.4-12.1-0.2-16.1,1h-1c0.4-4.6,0.8-9.1,1.2-13.7
			c-0.7-3.4-2.1-5.8-1.9-10.1c0.6-0.6,0.9-0.7,2.2-0.7c0.6-2.2,2.1-5.9,1.2-7.9c-0.5-1.3-1.8-2.3-3.1-1.9c-1.6-0.4-2.9,0.1-4.3,0.5
			c-1.9,3-0.1,5.2,0.5,8.6c-3,6-7.3,13.5-3.8,22.6c-0.6,2.9-3.3,4.9-4.1,8.2c-0.8,3.4,0.7,7.4-0.5,11c0.6,0.2,1.3,0.3,1.9,0.5v5.5
			c-6.4,4.1-6.4,10.9-10.6,17.3c-1.1,1.7-2.5,2.3-3.4,4.6c1.4,2.7,8.1,4.6,10.8,3.1c0.2-0.1,0.5-0.2,0.7-0.2v-0.7
			c-1.5-0.5-3-1-4.6-1.4c-2.1-11.8,14.5-21,16.8-32.9c2.5-0.9,5-1.8,7.4-2.6c0.1-0.6,0.2-1.3,0.2-1.9c1.3-0.8,2.6-1.6,3.8-2.4h1
			c0.4,4.9,0.8,9.8,1.2,14.6c-1.1,1.9-1.3,2.3-1,5.3h-1.2c-0.4,7.6-0.8,15.2-1.2,22.8c0.7,0.1,1.4,0.2,2.2,0.2
			c0.2-1.7,0.5-3.4,0.7-5c1.4-1.8,12.6,0.1,15.8-0.7c1.4,1.1,1.5,3.3,1.4,5.8H96c0-6.5-1.2-15.4-1-20.9
			C96.2,287.9,97.4,280.5,98.6,273.1z M93.1,308.4c-1.3,1.2-12.9,0.6-16.8,0.5c0.2-4.2,0.5-8.3,0.7-12.5c4.9-0.1,9.8-0.2,14.6-0.2
			C93.4,297.1,93.9,306.3,93.1,308.4z M221.5,286.1c0.9-0.1,1.8-0.2,2.6-0.2c1-5.3,1.4-13-0.2-17.3c0.1-4.3,0.2-8.6,0.2-13
			c-0.6-4.3-2.9-6.3-2.9-11.8c0.7-0.2,1.4-0.3,2.2-0.5c0.1-2.6,1.7-5.6,0.5-7.9c-0.4-0.4-0.8-0.8-1.2-1.2c-2.1-1.8-5.3-0.1-6.7,1
			c-0.7,2.5-0.6,5.6,1.4,6.7c-0.1,4.9-3.4,6.7-3.8,11c0.7,4.8,1.4,9.6,2.2,14.4c-2.4,0.5-3.2,14-1.4,18c0.5,0.5,0.8,0.5,1.9,0.5
			c1.6,3.5-1.6,6.2-1.7,10.1c0.3,2.9,0.6,5.8,1,8.6c0.1,2.2,0.2,4.3,0.2,6.5c-0.8,1.3-2.1,2-1,4.3c1,1.4,8.8,1,11,0.5
			c0.2-0.1,0.3-0.2,0.5-0.2v-1c-3.1-0.9-4.3-1.8-6.5-2.9C216.4,305.9,221.2,291.8,221.5,286.1z M449.5,275.3
			c-0.6-0.2-1.1-0.3-1.7-0.5h-1.7c-1,6.6-1.9,13.1-2.9,19.7c-3.6,1.6-11.5,0.5-16.1,0.5c-1.9-5.8,4.6-8.7,6.5-12.7
			c-1-5.7-9.2-5.2-11.8-11c0.5-2.4,3-4.4,1.4-7.4c-0.4-0.6-0.8-1.1-1.2-1.7c-2.4-0.6-4.6-0.3-6.5,0.5c-0.8,3.1,0.1,5.4,0.2,8.6
			c0.6,0.2,1.3,0.3,1.9,0.5c1.1,4.4-2.6,5.9-3.8,8.6c-0.6,4-1.3,8-1.9,12c-7.7,2-14.8-1.3-19.9,2.4c-7.8,5.7-3.4,21-18,14.2h-0.7
			c0.3,2.8,5.9,7.8,8.4,8.4c1.8-1.7,1.4-2.4,2.4-4.6c2.2-5,9.5-4.6,9.6-13.4c1.6,0.2,3.2,0.5,4.8,0.7c0.2,0.8,0.3,1.6,0.5,2.4
			c6.4,1.8,18.6,3.4,21.1-2.4c0,0,4.1-18,4.1-18.7c1.6,0.2,3.2,0.5,4.8,0.7c-1.7,4.1-3.4,8.2-5,12.2c0.3,2,0.6,4,1,6
			c-0.3,5.8-0.6,11.7-1,17.5h2.4c0.2-1.8,0.3-3.7,0.5-5.5h16.6c0.7,1.5,0.6,3.9,0.7,5.5h2.4C446.6,303,445.2,288.6,449.5,275.3z
			 M443.5,310.3c-1.8,1.3-13.1,0.5-16.3,0.5c0.2-4.2,0.3-8.5,0.5-12.7c5.1,0.1,10.2,0.2,15.4,0.2
			C444.2,299.5,444.3,309.4,443.5,310.3z M267.8,271.2c-0.1,0.3-0.2,0.6-0.2,1c-10,3.8-19.6,7.6-19.9,19.4c-0.1,2.1-1.1,3.3,0.2,5.3
			c2.2,3.4,10.1,3.6,13.9,1.4c1.4-0.8,2.2-2.4,3.8-2.9c-0.3,1.7-4.5,15.5-5.5,15.8c-0.7,1.4-0.6,2.5-0.5,4.6
			c2.5,1.2,7.9,0.7,11.3,0.2c0.2-0.4,0.3-0.8,0.5-1.2c-0.2-0.1-0.5-0.2-0.7-0.2c-2.5-1.3-3.6-1.4-5.5-2.9c-0.2-0.2-0.5-0.3-0.7-0.5
			c-1.2-6.7,11-14.4,9.1-21.6c-1.3-2.6-8.2-2.5-12-2.4v-0.2c1.8-1.3,3.5-2.6,5.3-3.8c1.1-1.2,1-2.7,2.4-3.6
			c9.6-2.6,20.4-1.4,29.5-3.1c0.1-0.2,0.2-0.3,0.2-0.5c-9.2-0.6-18.4-1.3-27.6-1.9v-1.2h2.2c0.8-2.2,2.2-5.5,1.2-7.2
			c0.2,0.1,0.5,0.2,0.7,0.2c-0.2-1.7-0.7-1.9-1.4-2.9c-1.6-0.4-3.5-1-5-0.2C264.9,264.8,268.1,268.6,267.8,271.2z M258,288.5
			c-0.4,0.1-0.8,0.2-1.2,0.2c0.1-0.2,0.2-0.3,0.2-0.5h1V288.5z M574.6,311.8c-3.1,0.3-7.2-1-11.3-1c0.1-2.8,1-11.7,3.4-11.5h1.7
			c0.1,0.7,0.2,1.4,0.2,2.2c2.3,0.9,4.6,1.4,7.4,1.7c0.7-0.6,1.4-1.3,2.2-1.9c0.5-1.9,0.7-4-0.5-5.3c-2.2-3.7-5.1,0.2-8.4-0.5
			c-3.2-0.7-6.3-3.5-10.8-2.9c-3.9,0.5-6,3.2-9.4,4.1c-3.2,0.9-5.8-1.1-7.9-1c-5,0.3-7.6,3-13.4,3.4v2.2c-3.3,1.6-5.5-0.5-9.6,0.2
			c-4,1.2-8,2.4-12,3.6c-1.4,0.1-3.5-1-5.5-1c-1.3,2.7-0.5,7.5,0,10.1c0.9,0.5,1.2,0.9,2.6,1c0.1-0.1,0.2-0.2,0.2-0.2
			c-0.2-1.3-0.3-2.6-0.5-3.8c0.7-0.9,1.4-1.8,2.2-2.6c7.7-0.2,16.2-3.6,23.3-1.9c0.3,1,0.6,1.9,1,2.9c11.7-1.4,18.5-4.6,29.3-6
			c-0.9,17.1,9.1,10.9,21.4,10.8c0.1-1.3,0.2-2.6,0.2-3.8C577.8,308.6,576.3,311.6,574.6,311.8z M544.1,297.9c0.1,0.3,0.2,0.6,0.2,1
			h-0.2V297.9z M544.3,300v-1c0.1,0.3,0.2,0.6,0.2,1H544.3z M544.8,302.7v-0.7h0.2C545,302.2,544.9,302.4,544.8,302.7z M545.3,305.1
			v-0.7h0.2L545.3,305.1z M156,338.2v1.9c8.3,2.1,21.8-2.4,28.8,1.2c0.6-0.7,1.3-1.4,1.9-2.2c-0.7-0.7-1.4-1.4-2.2-2.2
			C182.1,339.5,160,338.1,156,338.2z M328.1,342c0.7-0.6,1.4-1.3,2.2-1.9v-1c-0.8-0.6-1.6-1.3-2.4-1.9v1c-9.4,0.1-18.7,0.2-28.1,0.2
			v2.2C306.1,340.5,327.2,339.8,328.1,342z M474.5,338.9h-26.2v2.2c4.1-0.1,27.3-0.5,28.1,1c1.3-0.4,1.8-1.1,2.6-1.9v-0.2
			c-0.7-0.7-1.4-1.4-2.2-2.2C476.4,337.7,476,338.8,474.5,338.9z M69.1,427.5c4.2-4.4,7-10.1,10.8-14.9c-0.6-1.2-0.4-1.8-1.9-2.2
			c-0.2,0.2-0.3,0.5-0.5,0.7c0.3-0.2,0.6-0.3,1-0.5v0.7c-1,0.1-0.5,0.1-1.2-0.2c-0.5,0.9-1,1.8-1.4,2.6c-0.9-0.3-0.5,0-1-0.7
			c-0.1,1.2-0.2,2.4-0.2,3.6c-1,2.5-3.6,4.1-5.3,6h-1.2c-3.6-3.3-7.1-9.1-7-16.1c0.6-0.2,1.3-0.3,1.9-0.5c1.1-3,1.3-6.3,0.2-9.1
			c-1.4-0.6-2.9-0.8-5-0.7c-1.1,0.7-1.9,1.1-2.6,2.2c-0.6,2.5,0,5.3,1.7,6.2C57,412.5,51.1,415,49,421c-2,5.6,0.2,11-1.4,17
			c-0.6,1.3-1.1,2.6-1.7,3.8h0.7c-0.5,0.8-0.1,0.5-1,0.2c0.4,1.1,0.8,1.1,0.5,2.4c0.7,0.3,0.3,0,0.7,0.5c1.4-0.7,1.7-2,1.9-3.8h1.4
			c-0.9-4.3-0.3-11.6,1.2-17c0.5-1.1,1.6-2.3,2.9-2.6c0.3,2.9,0.6,5.8,1,8.6c-0.5,2.2-1,4.5-1.4,6.7c0.4,5,4.9,11.4,7.7,14.6
			c-0.7,2.3-3.3,3-4.6,4.8c-1.8,4.7-3.7,9.4-5.5,14.2c-0.7,1.5-2.3,2.3-3.1,4.1v1.4c3.4,1.4,6.7,2.9,10.1,4.3l1-1
			c-2.1-2.4-4.1-3.4-5.3-7c4.4-7.9,13.7-15.7,13.2-26.9c2.3,0.2,2.9,0.2,4.8,0.7c-1.1,1.8-2.2,3.7-3.4,5.5c-0.8,4.5-1.6,9-2.4,13.4
			c-2.1,0.4-2.3,1.7-3.4,3.1v1.2c2.6,1.8,6.5,5,9.8,5.5H73c0.1-0.4,0.2-0.8,0.2-1.2c-1.6-2-3.7-3.2-4.1-6.5c0.6-1.8,1.1-3.7,1.7-5.5
			c3.3-10.8,9.2-17.7-1.2-25c-1.4-1-2.5-2.4-4.3-3.1c-1.6-2.6-1.3-5-1.2-8.4C65.8,426,67.4,426.7,69.1,427.5z M134.2,434.7
			c-2-4-7.8-1.8-11.5-3.1c-6.9-4.3,6.3-11.7,8.2-15.1c2.2-1.6,1.5-1.9,1-4.1c-0.3-0.1-0.6-0.2-1-0.2c-0.6,1.3-1.7,2.7-3.4,2.9v-1.4
			c-1.7,4.7-2.6,7.8-7.7,8.9v-4.8c-0.1-3.6-3-6.2-2.9-10.8c0.6-0.1,1.3-0.2,1.9-0.2c0.8-2.7,0.5-5.1,1.2-7.4c-0.2-0.5-0.5-1-0.7-1.4
			c-1.1-0.8-3.5-1.9-5.5-1c-1.2,0.4-1.7,0.8-2.2,1.9c-1.7,2,0.3,5.3,1.4,6.7c-0.6,4.2-3.1,6.2-3.8,10.1c-0.7,3.8,0.9,6.9,1.4,9.6
			c1,5.2-1.9,8.9-1.2,12.7c0.8,4.9,7,10.9,7.7,15.1c-4.6,6-3.1,11.5-5.8,19.4c-0.6,1.8-2.5,2.7-1.9,5.3v0.5
			c2.3,1.2,8.6,2.7,11.3,1.9c0.1-0.2,0.2-0.5,0.2-0.7c-1-0.4-1.9-0.8-2.9-1.2c-1.2-1.4-2.4-2.7-3.6-4.1c1-7.8,5.8-14.2,7.9-21.1
			c1.2-3.8,0.1-7.2,0-11.3h0.2c0.7,0.7,1,1.4,1.2,2.6c1.3-0.2,1.4,0.2,3.1,0c-0.2-0.9-0.5-1.8-0.7-2.6c0.5-0.4,0.5-0.4,1.4-0.5v-2.4
			c0.6-0.2,1.3-0.3,1.9-0.5c-0.6,4.7-1.5,10.6-1.4,17c-1.7,0.6-2,1.7-2.6,3.4c0.1,0.6,0.2,1.1,0.2,1.7c3.4,0.9,6.1,2.3,9.1,3.6h1.4
			c0.1-0.3,0.2-0.6,0.2-1c-1.1-0.8-2.2-1.6-3.4-2.4C127.7,454.1,136.4,443.1,134.2,434.7z M216.5,475.2c-2.9-6.4,1.8-18.5,1.9-25.2
			c1-0.1,1.9-0.2,2.9-0.2c0.2-4.4,0.5-8.8,0.7-13.2c-0.5-2.8-1-5-1-8.4v-10.3c-1.1-3.3-2.8-5.2-2.6-9.6c0.6-0.1,1.3-0.2,1.9-0.2
			c0.6-3,0.8-4.6,1-7.9c-0.5-0.6-1-1.1-1.4-1.7c-2.3-0.6-3.7-0.4-5.8,0.2c-2.2,3-1.6,5.5,0.5,8.2c-1,7.9-8.7,7.8-11.5,14.2
			c0.5,5.7,6.4,7.3,9.1,11c-2.9,4.1-1.3,10.8-1.2,17.5c0.7,0.2,1.4,0.3,2.2,0.5h0.5c0.1,3.6-1.3,5.4-1.9,8.6
			c0.4,5,0.8,10.1,1.2,15.1c-0.3,1.9-1.8,3-1.2,6c1.1,0.5,9.4,0.8,10.8,0c0.8-0.6,0.6-0.2,0.5-1.2
			C219.5,477.9,218.9,476.4,216.5,475.2z M211.9,428.2c-2.2-1-3.2-3.8-5-5.3v-0.5c1-0.8,2.1-1.6,3.1-2.4c1.8,0.9,1.8,6.1,2.2,7.7
			C212.1,427.9,212,428,211.9,428.2z M385,420c2.2,0.1,4.3,0.2,6.5,0.2c-4-3-7.4-0.9-7.4-8.2c4.9-1.5,6.8-4.6,12-4.1v1.9
			c2.4,1.5,4,1.2,6.7,2.2c4-0.1,3.9-4.5,2.9-7.4c-3.9-2.5-4.7,0.2-8.2-0.5c-3.7-0.7-15-7.5-19.4-1.9c-0.1,0.6-0.2,1.3-0.2,1.9
			c-3.6,0.1-5.4-0.8-8.2-1.2c-4.6,1-9.3,1.9-13.9,2.9c-0.8,0.7-0.6,0.7-0.5,2.2c-3.4,0.8-6.2-1.1-10.1-0.5c-3.7,1-7.4,1.9-11,2.9
			c-1.8,0.1-3.3-1.4-6-1c-0.2,0.1-0.3,0.2-0.5,0.2c-0.2,4.2-1.3,10.1,2.6,10.8h0.2c0.1-1.5,0.2-3,0.2-4.6c4.4-3.4,18-4.3,24.7-2.9
			c0.5,0.8,0.7,1,0.7,2.4c5.9,2.5,18.3-2.2,24.2-3.1C381.4,414.5,382.9,418.9,385,420z M438.7,477.9c-2.3-5.7,0.8-13.9,0-19.7
			c-0.6-4.6-2.4-8.7-2.4-12.5c2.2-1,4.9-1.5,7-2.2c0.8-1.2,1.3-1.8,1.2-4.1c-0.3-0.6-0.6-1.1-1-1.7c-3.7-1.3-6.7,0.1-7.9,3.4
			c-0.4,0.2-0.8,0.3-1.2,0.5c-1-0.6-2.1-1.3-3.1-1.9c-0.6-2.5-1.3-5-1.9-7.4c-1.8-5.1-3.5-10.2-5.3-15.4c-0.5-2.1,0.5-3.5,1-4.8
			c-1.4,0.2-1.8-0.8-1.7-2.6c-0.1,0.2-0.2,0.5-0.2,0.7h-0.7c0.4-0.8-0.1-0.3,0.7-0.7c-0.1-0.4-0.2-0.8-0.2-1.2
			c-0.4,0.1-0.8,0.2-1.2,0.2c-1.3,0.4,0.1,0.5-1.2,1c0.4,3,1.9,4.4,2.4,6.7c1.3,5.8,0.9,10,2.2,15.8c0.6,1.8,1.1,3.7,1.7,5.5
			c-1.7,8.4-14.9,9.4-21.1,13.2c-2.3,1.9-4.6,3.8-7,5.8c0.2,1,0.5,1.9,0.7,2.9c-8.5,4.7-19,11.2-25.4,18.2c-0.1,0.4-0.2,0.8-0.2,1.2
			c2.4,1.2,4.2,2.3,7.9,2.2c0.7-1.5,0.4-3.6,0.2-5.5c7.4-0.2,16.4-3.9,20.9-7.7c1.3,0.3,1.2,0.5,1.9,1.2c4.6-2.2,9.1-4.5,13.7-6.7
			c5.4-3.1,6.8-7.8,15.4-7.4c1.2,8.4,1.9,17.1,3.4,25.2c1.8,1.1,5.3,1.1,7.4,1.2l0.5-0.5C442.4,480.2,439.8,479.9,438.7,477.9z
			 M421.4,408.7h0.7C422,409.4,421.8,409.4,421.4,408.7z M283.2,448.6c-2.4-4-8.3-3.8-13.4-5v-13.2c-0.5-4.1-3-5.9-2.9-11
			c0.6-0.1,1.3-0.2,1.9-0.2c0.7-2.4,1.3-5.5,0.7-7.9c-1-2.3-3.4-2.2-6.2-1.9c-0.8,0.9-1.6,1.8-2.4,2.6c0.4,2.1,1.4,4.1,1.9,5.8
			c1.7,5.4-4.8,7.1-7.2,8.9c-1.8,1.3-2.7,3.5-4.1,5.3c0.4,5.3,6.1,8.2,9.1,11.3c-4.3,6.1,2.4,17.8,1.2,24.2
			c0.1,2.1-14.7,0.9-18.2,2.2c-0.3,0.2-0.6,0.5-1,0.7c0.3,2.7,1.3,8.8,3.4,9.8c1.1,0.1,2.2,0.2,3.4,0.2c0.2-0.2,0.5-0.5,0.7-0.7
			c-1-2.7-2.3-2.6-2.2-6.7c6.2,0.1,11.7,1.1,18.2,0.7c3.2-5,5-11,4.8-19.2c2.1-0.3,4.5,0.3,6-0.7h2.2c-0.8,5.8-2,12.8-0.2,19.4
			c-0.1,2.8-1.4,2.9-1.4,6.5c0.2,0.1,0.3,0.2,0.5,0.2c1,0.9,8.7,1.3,10.6,0.2c0.2-0.2,0.5-0.3,0.7-0.5v-0.7
			c-3.8-0.5-4.8-2.1-7.2-3.8C282.1,468.4,285.5,452.6,283.2,448.6z M255.4,433.5c1-0.8,2.1-1.6,3.1-2.4h0.7c0.4,3,1.2,4.7,1.2,8.2
			C258.7,438.2,256.1,435.4,255.4,433.5z M573.1,472.3c-2.2-1.4-4.3-2.9-6.5-4.3c-3.9-1-7.8-2.1-11.8-3.1c-2-1-1.3-2.6-2.4-3.8
			c-0.1-0.2-6-2.9-6.5-3.1c-1.8-0.3-3.7-0.6-5.5-1c-4.8-1.6-10.3-3.7-15.4-4.8c-2.4-0.6-4.1,0-6-0.7c-0.7,0.1-1.4,0.2-2.2,0.2
			c-1.8,1.7-3.4,3.8-5.3,5.3c-3.9-0.4-4.9-4-9.8-2.6c-0.5,0.3-1,0.6-1.4,1c-0.5,2-0.3,3.1,0.2,4.8c3.4,1.8,5.6,0.6,9.6,1.2
			c4.1,7.4-1.6,12.3-0.2,18l1,1c0.8,0.7,2.2,0.8,3.8,0.7c0.1-1.4,0.2-2.7,0.2-4.1c-0.6-0.1-1.3-0.2-1.9-0.2c0.7-2.7,2.4-4.2,2.6-7.7
			c0.4-0.2,0.8-0.3,1.2-0.5c2-0.9,7.5,0.6,9.8,1.2c3.7,1.8,7.4,3.7,11,5.5c3.4,0.9,6.9,1.8,10.3,2.6c0.2-0.5,0.5-1,0.7-1.4
			c7.2-1.1,13,3.6,20.2,1.7c4.9,0,4.8,2.3,8.4,3.1c0.7-2.7,1.4-5.4,2.2-8.2C577.8,471.2,575.5,473.4,573.1,472.3z M536.2,457.9
			c-0.1,0.2-0.2,0.5-0.2,0.7c-2.7-0.6-6.7-0.4-9.1-1.7c-0.7-0.5-0.4,0-0.7-1c0.7-0.1,1.4-0.2,2.2-0.2c2.6,0.6,5.3,1.3,7.9,1.9V457.9
			z M550.3,470.7c0.2-0.7,0.3-1.4,0.5-2.2c8.5,1.1,16.1,5,24,7.2C572.1,476.6,554.7,471.1,550.3,470.7z M183.4,500.4
			c-3,1.4-24,1.3-27.8,0.2c-0.1,0.7-0.2,1.4-0.2,2.2c6.9,1.8,24.1-2.2,28.6,1.4c0.8-0.9,1.5-1.1,1.9-2.4c-0.8-0.7-1.6-1.4-2.4-2.2
			V500.4z M298.8,501.4v1.9c9.2,0.1,18.4,0.2,27.6,0.2c0.3,0.4,0.6,0.8,1,1.2c0.6-0.6,1.3-1.1,1.9-1.7c0.1-0.2,0.2-0.3,0.2-0.5
			c-0.6-0.8-1.3-1.6-1.9-2.4C321.2,503.2,306.6,501.2,298.8,501.4z M475.9,500.7c-2.6,2.4-23.3,1.2-28.6,1.2v1.9
			c8.3,2.1,21.8-2.4,28.8,1.2c0.5-0.6,1-1.1,1.4-1.7C478.1,502.3,477,501.4,475.9,500.7z"/>
	</g>
</g>
<rect x="31.7" y="28.5" fill-rule="evenodd" fill="#1A1818" stroke="#1A1818" stroke-miterlimit="10" width="67.3" height="10"/>
<line fill="none" stroke="#1A1818" stroke-miterlimit="10" x1="30.7" y1="42.5" x2="598.7" y2="42.5"/>
<rect x="66.2" y="168.5" fill="#1A1818" width="53" height="10.5"/>
<rect x="223.1" y="168.5" fill="#1A1818" width="37.3" height="10.5"/>
<rect x="370.1" y="168.5" fill="#1A1818" width="37.3" height="10.5"/>
<rect x="508.2" y="168.5" fill="#1A1818" width="67.3" height="10.5"/>
<rect x="56.8" y="331.7" fill="#1A1818" width="72" height="10.5"/>
<rect x="223.1" y="331.7" fill="#1A1818" width="37.3" height="10.5"/>
<rect x="370.1" y="333.4" fill="#1A1818" width="37.3" height="17"/>
<rect x="508.2" y="331.7" fill="#1A1818" width="67.3" height="10.5"/>
<rect x="56.8" y="497.4" fill="#1A1818" width="72" height="17.2"/>
<rect x="223.1" y="495.6" fill="#1A1818" width="37.3" height="10.5"/>
<rect x="363.3" y="496.6" fill="#1A1818" width="54.3" height="15.5"/>
<rect x="508.2" y="495.6" fill="#1A1818" width="67.3" height="10.5"/>
<rect x="27.3" y="539.9" width="47.5" height="27.5"/>
<rect x="27.3" y="564.9" width="117.7" height="27.5"/>
<rect x="27.3" y="589.9" width="100.8" height="27.5"/>
<rect x="27.3" y="615.9" width="109.3" height="27.5"/>
<rect x="28.5" y="650.9" width="67.8" height="13.5"/>
<rect x="28.5" y="662.4" width="89.5" height="17.3"/>
<rect x="28.9" y="692.9" width="101" height="10.5"/>
<line fill="none" stroke="#000000" stroke-miterlimit="10" x1="28.8" y1="687.9" x2="137.3" y2="687.9"/>
<line fill="none" stroke="#000000" stroke-miterlimit="10" x1="168.6" y1="542.6" x2="168.6" y2="743.4"/>
<line fill="none" stroke="#000000" stroke-miterlimit="10" x1="28.8" y1="706.9" x2="137.3" y2="706.9"/>
<rect x="473.8" y="760.4" width="124.5" height="10"/>
<rect x="173.3" y="540.9" width="424" height="207"/>
<rect x="25.3" y="764.9" width="14" height="13"/>
</svg>
