<?xml version="1.0" encoding="utf-8"?>
<!-- Generator: Adobe Illustrator 18.0.0, SVG Export Plug-In . SVG Version: 6.00 Build 0)  -->
<?xml-stylesheet type="text/css" href="css/svg.css" ?>

<svg version="1.2" baseProfile="tiny" id="scan_3_xA0_Image_1_"
	 xmlns="http://www.w3.org/2000/svg" xmlns:xlink="http://www.w3.org/1999/xlink" x="0px" y="0px" viewBox="0 0 1237.2 779.5"
	 xml:space="preserve">
<g>
	<path d="M289.1,21.8H14.6v12v0.7v8.8v3.2v8.8V56v10.8V68v11.5h9.9v10.3h-9.9v12v0.7v10.3v1.7v10.3v0.7v12h9.9v8.3h-9.9v10.5v2.2
		v9.8v0.7v10.3v1.7v10.3v0.7v9.3v2.7v10h11.1v12h271.6v-12.7h-172V204h172v-12v-0.7V181v-1.7V169v-0.7v-9.8v-2.2v-9.8v-0.7v-12h-185
		v-8.3h185v-11v-1.7v-10.3v-0.7V91.5v-1.7v-11h-45.1V68h45.1V56v-0.7v-8.8v-3.2v-8.8v-0.7v-3.7l3.9,4l-0.9,89.9l0.8,0.8l0.2-90.6
		l54.1,55.3h-14.1v31h44.5l4.4,4.5h-48.9v31h79.2l3.9,4h-83.1v6L301,124.8L300.2,452h198.3l62.5,63.8H319.9v220.7h295.3V515.8h-32
		V452h33.5l1-2.5l-34.5-35.4v-91.9l34.5,35.2l2-358H267.2L289.1,21.8z M464.5,201l89.4,91.4l-89.9-0.4l-63.9-65.5h64.3V201z
		 M459.1,195.5H370l-4.4-4.5h89.1L459.1,195.5z"/>
	<polygon points="15.2,633 0.3,617.5 0,779.1 156.4,779.5 115,736.5 315.2,736.5 315.2,515.2 15.2,515.2 	"/>
	<rect x="621.9" y="519.8" width="308.7" height="219.3"/>
	<polygon points="252.5,363 297.2,363 297.2,351 297.2,350.3 297.2,342 297.2,338.3 297.2,330 297.2,329.3 297.2,319 297.2,317.3 
		297.2,307 297.2,306.3 297.2,296 297.2,294.3 297.2,284 297.2,283.3 297.2,272.5 297.2,271.3 297.2,259.8 216.9,259.8 216.9,251 
		297.2,251 297.2,239 297.2,238.3 297.2,226.3 14.6,226.3 14.6,238.3 14.6,239 14.6,247.8 14.6,251 14.6,260.5 25.2,260.5 
		25.2,271.3 14.6,271.3 14.6,283.3 14.6,284 14.6,294.3 14.6,296 14.6,306.3 14.6,307 14.6,317.3 14.6,319 14.6,329.3 14.6,330 
		14.6,338.3 14.6,342 14.6,350.3 14.6,351 14.6,360.8 14.6,363 14.6,373.5 252.5,373.5 	"/>
	<polygon points="297.2,442 297.2,441.3 297.2,430.5 297.2,429.3 297.2,418.5 297.2,417.8 297.2,408.5 297.2,405.8 297.2,396.5 
		297.2,395.8 297.2,383.8 14.6,383.8 14.6,395.8 14.6,396.5 14.6,405.8 14.6,408.5 14.6,417.8 14.6,418.5 14.6,429.3 14.6,430.5 
		14.6,441.3 14.6,442 14.6,454 297.2,454 	"/>
	<polygon points="652,37.8 652,38.5 652,47.3 652,50.5 652,59.3 652,60 652,70.8 652,72 652,83.5 662.2,83.5 662.2,93.8 652,93.8 
		652,105.8 652,106.5 652,116.8 652,118.5 652,129.5 934.7,129.5 934.7,118.5 934.7,116.8 934.7,106.5 934.7,105.8 934.7,95.5 
		934.7,93.8 934.7,82.8 854,82.8 854,72 934.7,72 934.7,60 934.7,59.3 934.7,50.5 934.7,47.3 934.7,38.5 934.7,37.8 934.7,25.8 
		652,25.8 	"/>
	<polygon points="784.7,129.8 652,129.8 652,142.5 661.7,142.5 661.7,150.8 652,150.8 652,161.3 652,163.5 652,173.3 652,174 
		652,184.3 652,186 652,196.3 652,197 652,206.3 652,209 652,218.3 652,219 652,231 829.2,231 829.2,219 934.7,219 934.7,209 
		934.7,206.3 934.7,197 934.7,196.3 934.7,186 934.7,184.3 934.7,174 934.7,173.3 934.7,163.5 934.7,161.3 934.7,151.5 934.7,150.8 
		934.7,138.8 784.7,138.8 	"/>
	<polygon points="663.8,243.3 652,243.3 652,252.8 652,256 652,264.8 652,265.5 652,276.3 652,277.5 652,288.3 652,289 652,301 
		661.7,301 661.7,311.3 652,311.3 652,324 661.7,324 661.7,334.3 652,334.3 652,343.3 652,347 652,355.3 652,356 652,365.8 652,368 
		652,378.5 661.7,378.5 661.7,388.8 652,388.8 652,400.8 652,401.5 652,413.5 659.9,413.5 659.9,422.8 652,422.8 652,434.3 
		652,435.5 652,446.3 652,447 652,459 830.5,459 830.5,447 934.7,447 934.7,435.5 934.7,434.3 934.7,423.5 934.7,422.8 934.7,410.8 
		852.6,410.8 852.6,401.5 934.7,401.5 934.7,389.9 934.7,388.8 934.7,377.2 851.9,377.2 851.9,368 934.7,368 934.7,356 934.7,355.3 
		934.7,347 934.7,343.3 934.7,335 934.7,334.3 934.7,322.3 871.5,322.3 871.5,312 934.7,312 934.7,299.3 739.1,299.3 739.1,289 
		934.7,289 934.7,277.5 934.7,276.3 934.7,265.5 934.7,264.8 934.7,256 934.7,252.8 934.7,244 934.7,243.3 934.7,231.3 663.8,231.3 
			"/>
	<rect x="665.4" y="503" width="269.3" height="12.7"/>
	<path d="M1145.7-0.5l25.4,26.3H952.7v12h-10.2v9.5v3.2v8.8V60v10.8V72v9.7h0v0.6H942V96h0.5v0.2h9.5v9.2h-10.2V131h12v6.8h-11.3v12
		v0.7v9.8v2.2v9.8v0.7v10.3v1.7v10.3v0.7v9.3v2.7v9.3v0.7v12h158.5v-12h124.1v-10v-2.7V196v-0.7V185v-1.7V173v-0.7v-9.8v-2.2v-9.8
		v-0.7v-8.3v-3.7v-9H1013v-10.3h212.2v-12v-0.7v-12h-160.5V83.5h160.5V82l13,13.5l0.2-95.8L1145.7-0.5z M942.5,95.5h-0.2V83.2h0.2
		V95.5z"/>
	<polygon points="952,242.3 942.5,242.3 942.5,251.8 942.5,255 942.5,263.8 942.5,264.5 942.5,276.5 952.6,276.5 952.6,287.3 
		942.5,287.3 942.5,298.3 942.5,300 942.5,310.3 942.5,311 942.5,321.3 942.5,323 942.5,333.3 942.5,334 942.5,342.3 942.5,346 
		942.5,354.3 942.5,355 942.5,367 951.8,367 951.8,376.8 942.5,376.8 942.5,387.8 942.5,389.5 942.5,399.8 942.5,400.5 942.5,409.8 
		942.5,412.5 942.5,421.8 942.5,422.5 942.5,433.8 942.5,434.5 942.5,446.5 1225.2,446.5 1225.2,434.5 1225.2,433.8 1225.2,422.5 
		1225.2,421.8 1225.2,412.5 1225.2,409.8 1225.2,400.5 1225.2,399.8 1225.2,389.5 1225.2,387.8 1225.2,377.5 1225.2,376.8 
		1225.2,364.8 1209.2,364.8 1209.2,355 1225.2,355 1225.2,346 1225.2,342.3 1225.2,334 1225.2,333.3 1225.2,323 1225.2,321.3 
		1225.2,311 1225.2,310.3 1225.2,300 1225.2,298.3 1225.2,288 1225.2,287.3 1225.2,275.3 1132.9,275.3 1132.9,264.5 1225.2,264.5 
		1225.2,255 1225.2,251.8 1225.2,243 1225.2,242.3 1225.2,230.3 952,230.3 	"/>
	<polygon points="942.5,560.7 1189.5,560.7 1189.5,548.7 1225.2,548.7 1225.2,538.7 1225.2,536 1225.2,526.7 1225.2,526 
		1225.2,515.7 1225.2,514 1225.2,503.7 1225.2,503 1225.2,493.2 1225.2,491 1225.2,481.2 1225.2,480.5 1225.2,472.2 1225.2,468.5 
		1225.2,459.5 1040.6,459.5 1040.6,468.5 1040.6,472.2 1040.6,480.5 1040.6,481.2 1040.6,491 1040.6,493.2 1040.6,503 1040.6,503.7 
		1040.6,514 1040.6,515.7 1040.6,526 1040.6,526.7 1040.6,536 1040.6,538.7 1040.6,548 942.5,548 	"/>
	<polygon points="1164.6,561 942.5,561 942.5,573 942.5,573.7 942.5,582.5 942.5,585.7 942.5,594.5 942.5,595.2 942.5,606 
		942.5,607.2 942.5,618 942.5,618.7 942.5,629 942.5,630.7 942.5,641 942.5,641.7 942.5,652 942.5,653.7 942.5,664 942.5,664.7 
		942.5,673 942.5,676.7 942.5,685 942.5,685.7 942.5,695.5 942.5,697.7 942.5,707.5 942.5,708.2 942.5,718.5 942.5,720.2 
		942.5,730.5 942.5,731.2 942.5,743.2 1142.5,743.2 1142.5,731.2 1225.2,731.2 1225.2,720.2 1225.2,718.5 1225.2,708.2 
		1225.2,707.5 1225.2,697.7 1225.2,695.5 1225.2,685.7 1225.2,685 1225.2,673 1138.3,673 1138.3,664.7 1225.2,664.7 1225.2,653.7 
		1225.2,652 1225.2,641.7 1225.2,641 1225.2,630.7 1225.2,629 1225.2,618.7 1225.2,618 1225.2,606 1185.2,606 1185.2,595.2 
		1225.2,595.2 1225.2,585.7 1225.2,582.5 1225.2,573 1164.6,573 	"/>
	<rect x="1089.6" y="764.5" width="135.6" height="12.7"/>
	<rect x="977.2" y="467.8" width="31.3" height="56.7"/>
	<rect x="937.3" y="24.1" width="1" height="720"/>
</g>
</svg>
