<?xml version="1.0" encoding="utf-8"?>
<!-- Generator: Adobe Illustrator 18.1.0, SVG Export Plug-In . SVG Version: 6.00 Build 0)  -->
<!DOCTYPE svg PUBLIC "-//W3C//DTD SVG 1.1//EN" "http://www.w3.org/Graphics/SVG/1.1/DTD/svg11.dtd">
<?xml-stylesheet type="text/css" href="css/svg.css" ?>

<svg version="1.1" id="scan_6_xA0_Image_1_" xmlns="http://www.w3.org/2000/svg" xmlns:xlink="http://www.w3.org/1999/xlink"
	 x="0px" y="0px" viewBox="0 0 638.2 787.9" enable-background="new 0 0 638.2 787.9" xml:space="preserve">
<g>
	<rect x="335.9" y="376" width="132.7" height="252.2"/>
	<polygon points="333.9,223 333.9,368.7 487.8,368.7 487.8,357.2 599.1,357.2 599.1,337.5 582.5,337.5 582.5,328.2 600.7,328.2 
		600.7,308.5 586,308.5 586,294 559.1,294 559.1,284.2 588.9,284.2 588.9,264.5 562.4,264.5 562.4,256.7 595.2,256.7 595.2,237 
		588.9,237 588.9,223 	"/>
	<rect x="474.9" y="376" width="132.7" height="252.2"/>
	<rect x="37.2" y="22.1" width="43" height="11.7"/>
	<rect x="36.6" y="123.5" width="83" height="11.7"/>
	<rect x="499.9" y="72.8" width="81" height="15"/>
	<rect x="37.2" y="248.8" width="81.7" height="19.7"/>
	<rect x="335.9" y="633.5" width="269.7" height="21.7"/>
	<polygon points="590.5,668.5 606.9,668.5 606.9,656.1 335.9,656.1 335.9,676.5 590.5,676.5 	"/>
	<rect x="471.7" y="762.4" width="136.5" height="11"/>
	<rect x="32.4" y="753.8" width="136.5" height="11"/>
	<rect x="3.6" y="620.5" width="10.7" height="119.7"/>
	<polygon points="37.2,285.8 51.3,285.8 51.3,294 54.6,294 54.6,298.2 44.2,298.2 44.2,308.5 59.7,308.5 59.7,316.5 120.9,316.5 
		120.9,275.5 37.2,275.5 	"/>
	<polygon points="52.1,321 52.1,329.2 37.2,329.2 37.2,339.5 43.8,339.5 43.8,343.7 37.2,343.7 37.2,354 44.5,354 44.5,358.7 
		39.9,358.7 39.9,369 45.4,369 45.4,374.5 40.9,374.5 40.9,384.8 53.4,384.8 53.4,389.5 43.5,389.5 43.5,399.8 54.8,399.8 
		54.8,404.2 37.2,404.2 37.2,414.5 57.4,414.5 57.4,418.7 48.8,418.7 48.8,426.7 37.2,426.7 37.2,437 95.4,437 95.4,444.8 
		136.3,444.8 136.3,437 137.3,437 137.3,429 137.4,429 137.4,418.7 136.3,418.7 136.3,414.5 137.2,414.5 137.2,404.2 136.1,404.2 
		136.1,399.8 136.5,399.8 136.5,389.5 134.6,389.5 134.6,381.5 132.8,381.5 132.8,374.5 131.4,374.5 131.4,367 129.6,367 
		129.6,358.7 127.4,358.7 127.4,351.7 126,351.7 126,343.7 124.8,343.7 124.8,329.2 123,329.2 123,321 	"/>
	<polygon points="135.4,486.5 38.5,486.5 38.5,496.8 46.2,496.8 46.2,502.2 36.8,502.2 36.8,512.5 51.7,512.5 51.7,517.2 
		46.2,517.2 46.2,524.2 41.6,524.2 41.6,534.5 51.7,534.5 51.7,540 38,540 38,550.3 51.7,550.3 51.7,555 37,555 37,565.3 
		51.7,565.3 51.7,569.7 34.4,569.7 34.4,580 135.4,580 	"/>
	<polygon points="43,714 35.4,714 35.4,724.3 45.3,724.3 45.3,728.7 41.4,728.7 41.4,739 108.3,739 108.3,730.8 108.4,730.8 
		108.4,721 108.3,720.5 108.3,706 107.6,706 107.6,701.8 108.5,701.8 108.5,691.5 107.4,691.5 107.4,686.5 108.6,686.5 108.6,678.8 
		111.7,678.8 111.7,670.8 116.2,670.8 116.2,662.8 120.9,662.8 120.9,648 127.1,648 127.1,640 129.1,640 129.1,633 131.2,633 
		131.2,625.5 131.9,625.5 131.9,617.3 132.3,617.3 132.3,610.3 133.2,610.3 133.2,602.5 133.3,602.5 133.3,594.5 133.5,594.5 
		133.5,584.2 37.2,584.2 37.2,594.5 62,594.5 62,600 42.1,600 42.1,610.3 56.2,610.3 56.2,615.2 42.7,615.2 42.7,625.5 59.8,625.5 
		59.8,629.7 41.6,629.7 41.6,640 55.6,640 55.6,644.2 37.2,644.2 37.2,652.5 34.2,652.5 34.2,662.8 44.2,662.8 44.2,668.5 
		34.9,668.5 34.9,678.8 55,678.8 55,683.2 39.2,683.2 39.2,693.5 62.5,693.5 62.5,699 33,699 33,709.3 43,709.3 	"/>
	<polygon points="135.2,482 135.2,474 135.8,474 135.8,463.7 135.7,463.7 135.7,456.7 135.5,456.7 135.5,449.2 50.7,449.2 
		50.7,459.5 61.1,459.5 61.1,463.7 37.2,463.7 37.2,474 71.7,474 71.7,482 	"/>
	<path d="M61.9,54.8l1.4-0.1l0.4-1.3c0.5-1.6,0.4-2.7,0.3-4L63.9,47H39.8l-0.5,6.4l3.8,2.7c1.2,1.7,1.9,7.9,2.4,11.7
		c0.3,2.4,0.5,4.8,0.9,6.3l7.5,41.7l11.3,0.3l4.6-24.8l5.6,24.7l11,0.3L94,69c0.3-1.6,0.5-3.2,0.7-4.7c0.7-5.4,1.2-8.5,4.7-9.6
		l1.4-0.5v-0.4c0.3,0.2,0.4,0.4,0.6,0.7l-0.2,44c-0.1,1.4-0.1,2.7-0.1,3.9c0,3.9-0.2,4.9-2,5.6l-1.3,0.5v5.6l0.6,0.6
		c1.2,1.2,3.5,1.6,8.2,1.6c2.3,0,4.7-0.1,6.9-0.2c1.2-0.1,2.4-0.1,3.3-0.1l0.7,0l16.8,0.3l0.6-0.6c1.5-1.5,1.4-3.7,1.3-5.4l-0.1-1
		l-0.9-0.5c-3.5-2.2-3.1-11.3-2.7-19.3c0.3-6,0.6-11.7-0.5-15.8c-1.4-5.3-5.1-8.8-9.4-8.8c-1.7,0-3.4,0.5-5.1,1.6l-0.2,0.1l-2,2.1
		c-0.3-7.2,0.3-21.7,0.7-24.8l0.2-2.2h-2.2c-0.6,0-14.6,2.3-15.9,4.6L98,46.8V47h-17v7l1.3,0.5c0.3,0.1,0.6,0.2,0.9,0.3
		c1.1,0.4,2.7,0.9,2.9,1.6c0.8,2.4-0.2,6.4-0.9,9.3c-0.3,1-0.5,1.9-0.6,2.6l0,0.1l-1.3,11l-7.4-31.4l-0.4-0.4c-1-1-2.4-1.1-3.4-1.1
		c-0.4,0-0.8,0-1.2,0l-1.6,0.1l-5.8,31.7c-0.1-0.5-0.2-1-0.3-1.5c-1.4-6.8-2.9-13.9-2.9-21C60.8,55,61,54.9,61.9,54.8z M115.4,86.2
		c0.1-2.5,0.2-4.8,0.2-6.7c0.6-0.5,1.3-0.8,1.9-0.8c0.1,0,0.2,0,0.3,0c0.5,0.5,0.6,1.5,0.5,3.7c0,0.9-0.1,1.8,0,2.7v22.2
		c-0.2,0.5-0.3,0.9-0.5,1.3l-2.3-1.9C114.9,103.9,115.2,92.5,115.4,86.2z"/>
	<path d="M138.6,112.1c2.7,3.3,6.3,5.1,10.2,5.1c0,0,0,0,0,0c1,0,1.9-0.1,2.9-0.3c10.8-2.3,16-17.9,14.7-31.1
		c-1.3-12.7-8.2-20.6-18.1-20.6l-0.9,0l-0.4,0.2c-8.4,4.3-11.6,9-13.8,20.1C131.7,93.6,133,105.4,138.6,112.1z M149.6,75.2
		c1.6,6.7,2.6,23.9,0.2,31.2c-0.1,0.3-0.2,0.6-0.3,0.8C146.9,100.8,147.5,83.4,149.6,75.2z"/>
	<path d="M628.6,715.9l-0.5-2.5l-3.8-1.9c-1.4-1.9-2-4.7-2.7-7.5c-0.9-3.6-1.8-7.4-4.3-10l-0.2-0.3l-2.4-1.2
		c-0.7-0.7-1.3-1.7-1.9-2.7c-1.7-2.8-3.9-6.2-8.8-6.2c-1,0-2.1,0.2-3.3,0.5l-0.1,0l-0.1,0.1c-2.6,1.1-4.1,4.2-5.2,6.4
		c-0.1,0.3-0.3,0.5-0.4,0.8l-0.4,0.8l0.3,1c0.5,1.4,1.2,3.5,0.9,4.7c-0.1,0.1-0.1,0.1-0.2,0.2c-0.6,0.6-1.9,1.8-1.3,4.1l0.1,0.2
		l1.3,2.7v6.6l0.1,0.3c0.5,1.5,1.5,2.6,2.4,3.6c0.8,0.9,1.6,1.7,1.9,2.6c0.1,0.4,0.1,0.8,0.1,1.2c0,0.8,0,1.9,1,3.1
		c1.8,2.3,6.5,6.1,10.2,6.9c1.5,0.4,3,0.5,4.5,0.6c2.1,0.1,4,0.3,5,1.2c0.9,0.8,1.9,1.9,3,3.2c2.9,3.3,6.5,7.5,11.5,7.6l2.1,0.1
		v-20.4L628.6,715.9z"/>
	<path d="M441.9,718.4c-0.5-0.9-1-1.9-1.7-2.8l-0.1-0.1l-5.4-5v-3.3l-0.1-0.3c-0.4-1.3-1.1-2.4-1.7-3.5c-0.8-1.3-1.6-2.5-1.8-4.2
		l-0.3-1.7h-2.8c-0.6-0.7-1.2-1.3-1.7-1.8c-3.5-3.7-5.2-5.6-8.4-5.6c-1.9,0-4,0.7-7.6,1.8c-1.1,0.3-2.4,0.7-3.8,1.2l-0.7,0.2
		l-0.4,0.7c-1.5,2.5-2.5,6.9,1.5,13.1c1.1,1.7,2.4,4.1,3.7,6.6c4.9,9.1,11.1,20.3,18.8,22.6c0.5,0.2,1.1,0.2,1.8,0.2c0,0,0,0,0,0
		c4,0,10.1-2.9,15.5-5.5c3-1.4,5.8-2.8,7.2-3.1l1-0.2l1.8-4.4l-13-2.5C442.8,720.2,442.4,719.4,441.9,718.4z"/>
	<path d="M584.9,730.4c-3.8-7.4-7.4-8.7-12.8-14c-4-3.9-8.5-8.8-11.9-13c-6.7-8.2,4.1,0.4-6-6.7c-0.2-0.1-7.7-3.7-7.2-3.7
		c-3.9,0.2-5.1,5.6-9.7,4.4c-2.3,9,10.4,20.9,16.4,27.2c5.6,5.9,11.8,16.1,20.7,16.6C581.3,741.6,589.5,737.2,584.9,730.4
		C584.3,729.3,584.9,730.5,584.9,730.4z"/>
	<path d="M460.4,78.8c1.8-1.8,3.7-3.7,5-6.2c3-5.9,2.7-13.3-0.7-18.8c-2.8-4.5-7.2-7.2-12.2-7.2l-0.6,0l-5.1,2.2l-0.2,0.1
		c-2.5,1.9-6.1,8.6-5.6,13.7c0.2,1.7,0.8,3.1,1.8,4.2l-6-0.2l0.2-12.5h-6.6l-7,12.3l-3.8,0.3l-0.4,6.7c-0.6-1.5-1.5-2.9-2.7-4.1
		c-2.5-2.5-5.9-3.7-10.7-3.7l-0.4,0l-0.3,0.1c-0.8,0.3-1.7,0.5-2.6,0.7c-1.8,0.4-3.6,0.9-5.2,2.3c-2.8,2.4-5.3,7.6-4.7,12.1
		c0.4,2.9,1.9,5,4.4,6.3l0.4,0.2h0.5c2.1,0,3.2-0.3,4.4-0.7l1-0.3l0.4-0.7c1.3-2.3,0.5-4.8-0.1-6.8c-0.8-2.6-0.9-3.5,0.4-4.3
		l1.3,0.2c1.2,2.4,2.6,8.4,1.5,11.8c-0.3,0.1-0.8,0.2-1.3,0.3c-0.6,0.1-1.4,0.3-2.1,0.5c-6,2.3-10.4,6.6-12,11.8
		c-0.5,1.7-0.8,3.4-0.8,5c-0.6-3.5-0.3-8.3,0.1-13c0.6-7.7,1.2-15.6-2-21c-1.7-2.8-4.5-4.4-7.9-4.4c-2.9,0-5.7,1.2-7.8,3.1
		c-0.3-7.4,0.3-21.8,0.7-23.8l0.4-1.4l-1.2-0.8c-0.6-0.4-1.4-0.6-2.4-0.6c-2.4,0-6.1,1.1-9.3,2.1c-1.6,0.5-3.1,0.9-3.8,1.1l-1.5,0.3
		l-0.1,1.9l-37.4-0.2L318,69l6.5,0.5l0.5-1.4c0.5-1.5,0.9-2.9,1.2-4.3c0.9-4,1.5-6,4.6-6.5l0.2,11.1l-0.5,30.9
		c-0.1,1.1,0,2.2,0.1,3.2c0.1,1.5,0.2,3.1-0.1,3.9c-0.4,0.8-1.6,1.5-3.5,2l-1.5,0.4v7.4h25.6v-6.8l-1.1-0.6c-3.8-2-4.8-2.9-4.2-10.3
		l0-0.1l0.2-41.4c0.1,0,0.2,0,0.3,0c3.6,0,4.8,5.7,5.4,10.6l0.2,1.8h6.9V54.8l0.3,0.3v38c0,1.3,0,2.6,0.1,3.9
		c0.2,5,0.4,10.2-2.3,11.6l-1,0.5l-0.4,7.1h21.3l16.4,0.3l0.6-1.1c0.3-0.5,0.4-1.1,0.6-1.8c2.1,2.5,5,4,7.9,4c0,0,0,0,0,0
		c2.6,0,4.9-1.2,6.6-3.4c2.1,2.1,3.9,3.4,7.1,3.4c1.8,0,4-0.4,7-1.1l1.5-0.3l0.2-2.5c0.4,0.6,0.8,1.2,1.2,1.7
		c1.6,1.7,3.7,2.6,6.2,2.6c0,0,0,0,0,0c1.9,0,4.1-0.5,6.6-1.5l0.2-0.1l5.7-4c1.1,3.3,3.7,5.4,6.9,5.4c0.3,0,0.6,0,0.9-0.1
		c4.5-0.5,7.7-4.6,7.6-10c0-5.4-3.3-9.6-7.9-10l-0.5,0l-0.4,0.2c-4.1,1.6-6.4,5.1-7,8.8l-0.2-1.4l-2.1,0.4c-1.2,0.2-2.3,0.5-3.5,0.5
		c-0.3,0-0.6,0-0.9,0c-1.7-5.5-1.2-16-0.8-23.7c0.1-2.1,0.2-4.2,0.3-6c0.5,0,1,0,1.4,0c1.4,0,2.4-0.2,3.3-0.6l0.3-0.1l2.5-2.5v-5
		c0.2,0.1,0.4,0.2,0.6,0.3c0.6,0.3,1.2,0.4,1.9,0.4c1,0,1.9-0.3,2.6-0.5l0.9-0.3l1.8-2.7l-0.1-0.8c-0.1-0.6-0.3-1.3-0.4-2
		c-0.4-1.8-1-4.1-0.2-5.5c0.1-0.2,0.1-0.3,0.4-0.4l0.4,0.1c3.5,6.3,0.5,11-2.5,16c-1.3,2.2-2.6,4.2-3.3,6.4
		c-1.6,4.8,0.1,9.2,1.6,12.7c0.5,1.3,1,2.5,1.3,3.5l0.3,1.2l1.2,0.3c0.4,0.1,0.8,0.1,1.2,0.1c1.5,0,2.5-0.8,3.1-1.4l0.1-0.1l0.1-0.1
		c1-1.2,1-3.2,0.9-6.2c-0.1-1.5-0.1-3.6,0.2-4.4C456.7,82.5,458.5,80.7,460.4,78.8z M376.6,92.3c-0.1,2.3-0.3,4.9-0.3,7.7v7.6
		c-0.2,0.5-0.3,0.9-0.5,1.3c-0.4-0.5-0.8-0.9-1.1-1.2c-0.7-0.6-1.1-1.1-1.3-1.6l0.5-26.3c0.6-0.4,1.2-0.5,2.1-0.6l0.1,0.1
		C377.1,83.8,376.9,87.6,376.6,92.3z M406.6,103.3c-0.3-1.3-0.3-2.7,0-4.1V103.3z M420.9,99.8c0.1-1.6,0.2-3.2,0.2-5
		c0-1.1,0-2.2,0-3.3c0-6.4,0.1-12.1-1.4-16.7l2.6,0.2l0,12.7c-0.1,1.3-0.1,2.6-0.2,4.1c-0.3,5.7-0.7,11.9,0.3,16.8
		C420.7,107.5,420.6,104.9,420.9,99.8z M453.9,52.1c0.2,0,0.4,0,0.6,0c0,0.2,0.1,0.3,0.1,0.5C454.3,52.4,454.1,52.2,453.9,52.1z"/>
	<path d="M499.1,737c6.4,2.5,27.1,7.9,33,1.6c5.1-5.4,2.5-14.9-4-17.9c-3.7-1.8-12.4,0.7-16.5-0.5c-8.6-2.5-17.3-11.5-23.6-17.6
		c-3.5-3.4-4.4-4.7-6.5-8.6c-1.8-3.2-2,0.9-2.9-4.9c-0.4-2.4,0.7-5.8,1-8.3c-5.9,2.2-13.4-2.9-16.8,4.5c-3.5,7.7,3.5,5.9,7.7,8.4
		c5.5,3.3,3.1,6.6,1.9,11.6c-1,4.4-2.6,0.5-1.5,6.3C472.6,721.8,490.3,733.6,499.1,737C502,738.1,490.6,733.7,499.1,737z"/>
	<path d="M390.3,717.7l-2.1-1l-2.8,0.6c-2.6-2.3-5.4-4.4-8.1-6.5c-3.9-3-7.8-6.1-11.2-9.5c-1.1-1.1-1.9-2.4-2.7-3.8
		c-1.4-2.4-3-5.1-6.3-6.6l-0.1,0l-0.1,0c-0.6-0.2-1.2-0.3-1.9-0.3c-5.3,0-16.9,6.4-18.6,9.7l-0.3,0.6l0.6,3.2
		c-0.6,0-1.2,0.1-1.7,0.1c-1.5,0.1-2.9,0.2-4.2,0.2c-1.1,0-2.1-0.1-2.8-0.2c-0.4-3.2-0.3-6.2-0.2-9.4c0.1-1.7,0.2-3.4,0.2-5.3
		c0-6.8,0.1-14,0.2-20.9c0.1-6.7,0.2-13.1,0.2-19.2v-43.7c0-2-0.1-4-0.1-6.1c-0.1-5.6-0.3-11.4,0.5-15.9l0-0.2l1.4-251V230.3
		l-7.4-12.5l-0.2-0.2c-2.7-2.4-18.2-6.5-25-7.3c-0.2-6.9-1.3-13.2-2.4-18.6l-2.9-25.3l-0.2-26h316.8v-1H292.3l-0.2-18h317v-1h-13.3
		l0.7-0.9c5-6.7,20.5-30.6,11.3-58.9c-1.5-4.6-3.7-8.5-5.9-12.2c-1.4-2.4-2.7-4.8-3.8-7.2l-0.4-0.9l-3.9-1.1l-2.5,3.1l0.4,1
		c5,14.2,6.3,40,3.1,57.5l-3.4,15.6l-0.1,0.8l0.7,1.4l2.3,1.8H489.2l1-1c2-2,1.4-7.1-0.7-17.5c-0.3-1.2-0.5-2.3-0.6-3.2
		c-2.2-11.9-2.1-29.6,0.2-41l3.6-16.3l-0.7-0.9c-0.6-0.8-1.1-1.4-2.6-1.8l-1.4-0.4l-0.8,1.1c-5.9,8.3-18.9,30.3-11.8,55.9
		c1.4,5.1,3.2,11,6,15.6l5,7.6l2.3,1.7H292.1l0-5.3l0.5-0.4c3.1,1.5,5.9,2.2,8.5,2.2c5.9,0,10.4-3.7,13.9-11.2l0.4-0.9l-0.5-0.9
		c-0.5-0.9-1-1.8-2.3-2.6c-0.6-0.5-1-0.6-1.8-0.8l-1.4-0.2l-0.7,0.9c-1.3,1.7-2.2,2.4-5.3,2.4c0,0,0,0,0,0c-2.2-2.1-3.6-4.7-3.6-9.7
		l0.6-0.6c0.2-0.1,1-0.6,4.4-0.6c1.7,0,3.6,0.1,5.2,0.2c1,0.1,2,0.1,2.7,0.1l2,0l0.1-3.8c0.2-10.7,0.4-21.8-11.5-23.7
		c-0.7-0.1-1.4-0.2-2.2-0.2c-1,0-3.5,0.1-5.5,1.1c-1.9,0.9-3.1,2.6-4.3,4.1c0,0,0,0,0,0c0-1.6,0-3.3,0.1-5.1
		c0.2-10.1,0.3-20.6-1.2-29.2h319.1v-1H289.8c-0.1-0.4-0.1-0.9-0.2-1.3c-0.5-2.3-1.4-5-2.4-8.3c-2.5-7.6-5.9-18.1-4.1-24.6l0.2-0.6
		L282.4-2h-17.5l-0.3,1.7c-0.6,3.5-1,10.3-1,15.5l0.2,7.2l-2.5,13.1H40.1v1h221l-0.4,2.2l0.5,28.5c-0.7,0.8-1.4,1.5-2.2,2.2
		c-1.9,1.8-3.8,3.6-5.1,6.6c-0.8,1.9-1.4,4.2-1.9,6.7c-0.1-5.2-1-10-4.1-13.3c-2.5-2.6-6.2-3.9-11.1-3.9l-0.4,0l-0.3,0.1
		c-0.8,0.3-1.6,0.5-2.5,0.7c-1.4,0.3-2.8,0.6-4.1,1.4c-2.9,1.8-5,5-5.7,8.7c-0.6,3.6,0.2,7.2,2.3,9.8l0.4,0.5l0.7,0.2
		c0.9,0.2,1.7,0.3,2.5,0.3c1.5,0,2.7-0.4,4.2-0.9l0.8-0.3l0.4-0.8c1.2-2.5,0.4-4.7-0.3-6.5c-0.5-1.4-0.8-2.3-0.7-3.4l0.8-1
		c0.2-0.1,0.5-0.1,0.6-0.1c0.1,0,0.2,0,0.4,0.1l0.1,0.1c1.6,0.7,2.4,7.5,1.6,11.9c-5.7,1.5-12.5,5.8-15.2,12.1
		c-1.2,2.8-1.5,5.8-0.8,8.7l-0.8-0.3c-0.8-1.9-0.7-4.8-0.7-7.9c0.1-2.4,0.1-5-0.2-7.4c-0.5-3.4-2.2-31.9-1.1-34.9
		c0.1-0.2,1-1,3.8-1.8l1.5-0.4v-7.1l-19-0.3l-6.5,29.6l-6.6-29.6h-18l-1.5,1.5l0.4,5.8l4,1.4c1.2,2.2,0.9,6,0.7,9.7
		c-0.1,1.6-0.2,3.2-0.2,4.6l-1.4,36.4l-5.1,3.1v6.2h19.6v-4.2l0.9,4.3l7.3,0.4l6.7-29.2c0.2,6.5,0,13.5-0.3,19.1
		c-1,0.8-1.8,1.4-3.1,1.7l-0.9,0.2l-0.4,0.8c-0.7,1.4-0.8,3.3-0.4,4.8l0.1,0.4l0.3,0.3c0.7,0.7,1.2,1.3,11,1.3
		c3.5,0,7.2-0.1,9.7-0.1c0.8,0,1.5,0,2,0l1.9,0l0.1-1.9c1.9,1.7,4.5,2.7,7.3,2.7h0c2.8,0,5.2-1.1,6.7-2.9c2.1,2.6,5.1,2.9,7.4,2.9
		c1.6,0,3.3-0.2,5-0.4c0.5-0.1,1-0.1,1.5-0.2l1.1-0.1l0.5-1c0.5-1,0.7-2.2,0.7-3.8c1.8,2.8,4.1,4.7,6.7,5.4c0.4,1,0.7,2.3,0.9,3.7
		H40.1v1H263c0.3,3.7,0.1,8.2-0.1,12.1c-0.1,2.1-0.2,4.1-0.2,5.9H40.1v1h222.5v26.4l-5.7,34.1c-6.2-0.1-27.1-3.4-31.2-4.2
		c-7.8-1.6-14.5-2.4-20-2.4c-3.4,0-6.4,0.3-8.8,0.9c-0.4,0.1-0.8,0.1-1.2,0.1c-1.2,0-2.5-0.3-4-0.7c-1.7-0.4-3.4-0.8-5.2-0.8
		c-1,0-1.8,0.1-2.7,0.4c-7.1,2-15.5,4-24.3,5.7c-2,0.4-5.1,0.7-8.3,1c-10.5,1-18.1,2-20.9,5.2c-4.7,5.5-4.3,26.1-2.6,35
		c1.9,9.8,2.1,20.6,2.3,31c0.2,10.7,0.4,21.8,2.4,32.2l1,23.5l0,0.1c0.8,4.2,1.4,8.1,2,11.8c0.8,5.1,1.5,10,2.8,15.6
		c1,4.5,2.3,9.1,3.6,14.1c1.6,6.1,3.4,12.5,4.6,18.5c1.9,9.6,1.3,21,0.6,32c-0.3,5.5-0.7,11.2-0.7,16.6c0,3.9-0.1,7.9-0.2,11.8
		c-0.1,3.6-0.2,7.1-0.2,10.3c0,1.5,0,3.2,0.1,4.8c0.1,4.6,0.2,9.4-0.5,13l0,0.2l0,14.3l-0.5,26.7c0,1.7,0,3.4,0.1,5.2
		c0.1,5,0.2,10.2-0.5,14.1l0,0.2v18.4l-1,62.9c-3,15.3-9.5,28.3-15.8,40.9c-1.6,3.3-3.3,6.7-4.9,10c-0.5,1-1,2-1.5,3
		c-3.5,7.1-7.9,16-6.2,25.9l-0.5,20.7l0.1,0.3c0.7,2.5,2.4,5,4,7.4c1.3,1.9,2.5,3.7,3.1,5.3c0.1,0.3,0.1,0.4,0,0.8
		c-0.1,0.6-0.2,1.7,0.6,2.9c1.3,2.1,5.8,3.2,15.3,4.9c1.7,0.3,3.1,0.6,3.9,0.8c2.5,0.6,5.2,1.3,8,2c11.6,3,26,6.8,40,6.8
		c4.4,0,8.6-0.4,12.4-1.1c3.5-0.7,7.2-0.9,11-1.1c4.1-0.2,8.3-0.4,12.6-1.3l0.1,0c2.2-0.5,6-1.2,9.4-1.2c1.2,0,2.3,0.1,3.2,0.3
		l0.7,0.1c4.2,0.8,10.5,2.1,16.3,2.1c2.7,0,5-0.3,7-0.8c4.5-1.3,9.9-2.2,15.1-3.1c5.2-0.9,10.6-1.8,15.3-3.1h8.1l6.8-1.3
		c11.3-2.2,23-4.5,33.7-6.9l9.3-1.2l8.5-3.4c0.5-0.1,1-0.2,1.5-0.2c1.6,0,3.1,0.7,4.7,1.6c1.9,1,4,2,6.6,2c0.7,0,1.4-0.1,2-0.2
		c2.9-0.6,5.4-1.9,7.8-3.1c3.2-1.6,6.3-3.1,10.3-3.1l0.1,0l0.2-4l-1.7-0.1L390.3,717.7z M189,108.5c-1.5-0.6-2.6-1.2-3.7-1.9
		c-0.4-3-0.7-8.3,0.1-17.5l4.2,19.7L189,108.5z M237.4,103c-0.3-1.4-0.2-2.6,0-3.7V103z M251.6,99.5c0.4,3.1,1.1,6,2.1,8.5
		C252.3,106,251.7,102.9,251.6,99.5z"/>
</g>
</svg>
