<?xml version="1.0" encoding="utf-8"?>
<!-- Generator: Adobe Illustrator 18.0.0, SVG Export Plug-In . SVG Version: 6.00 Build 0)  -->
<?xml-stylesheet type="text/css" href="css/svg.css" ?>

<svg version="1.2" baseProfile="tiny" id="People_x5F_contents_x5F_1_xA0_Image_1_"
	 xmlns="http://www.w3.org/2000/svg" xmlns:xlink="http://www.w3.org/1999/xlink" x="0px" y="0px" viewBox="0 0 563 745.3"
	 xml:space="preserve">
<g>
	<rect x="214.3" y="676.7" width="307" height="36"/>
	<rect x="440.3" y="725.3" width="91.7" height="9.7"/>
	<rect x="352" y="18" width="171.3" height="12.7"/>
	<polygon points="141.9,663 139.2,663 139.2,674.9 142.1,674.9 142.1,684.9 145.4,684.9 145.4,693.7 143.2,693.7 143.2,705.6 
		149.6,705.6 149.6,714.2 183.8,714.2 183.8,705.6 190.1,705.6 190.1,693.7 187.9,693.7 187.9,684.9 191.3,684.9 191.3,674.9 
		194.2,674.9 194.2,663 192.1,663 192.1,655.6 195.3,655.6 195.3,643.7 137.3,643.7 137.3,655.6 141.9,655.6 	"/>
	<path d="M200.5,745.7c1.1,1,5.7,0.6,7.7,0.5C206.9,745.2,202.7,745.6,200.5,745.7z"/>
	<path d="M252.4,53.8c-1.7,0.2-3.4,0.5-5,0.7c-3.8,1.4-8.5,7.1-10.1,10.8c-7.5,17.9,7.2,35.7,27.4,29.8c9.8-2.9,18.6-15.5,13-29.3
		C273.8,56.6,265.8,53.5,252.4,53.8z M258.6,85c-8.4,1.9-11.1-11-7.7-16.8c1.2-2,3.1-2.7,5.3-3.8C267.5,64.1,267.4,83,258.6,85z"/>
	<path d="M393,72.5c0-12.6-8.8-21.4-24-18.2c-7.1,1.5-9,6-13.7,9.4c-0.2-0.1-0.3-0.2-0.5-0.2c-0.1-2.8-0.2-5.6-0.2-8.4
		c-3.7-0.1-7.4-0.2-11-0.2c-0.1-4.2-0.2-8.5-0.2-12.7c-4.7-1.2-9.4,4.3-13,5.8c-0.8,1.5-0.1,5-1,6.7c-2.2,2.2-4.3,4.5-6.5,6.7
		c-0.4,0.1-0.8,0.2-1.2,0.2c-5.4-13.6-18.1-6.3-25.9-1.4c-0.2,0.2-0.3,0.3-0.5,0.5c-0.1-2-0.2-4-0.2-6c-4.6-0.1-9.1-0.2-13.7-0.2
		c-0.1,4.2-0.2,8.3-0.2,12.5c-1.4,8.8,0,18.7,0,28.1c4.6,0.1,9.1,0.2,13.7,0.2c0.1-7.9,0.2-15.8,0.2-23.8c1.8-2.6,10-9.1,12.7-3.1
		c0.1,9,0.2,18.1,0.2,27.1c4.7,0.1,9.4,0.2,14.2,0.2c0.1-9.8,0.2-19.7,0.2-29.5c2.1-0.1,4.2-0.2,6.2-0.2c2.8,4.3-0.1,13.5,1,19.4
		c1.5,8.2,6.2,11.2,16.3,10.8c2.2-0.5,4.5-1,6.7-1.4c0.2-0.2,0.5-0.3,0.7-0.5c-0.1-1.5-2.2-9.5-2.9-9.8c-1.8-1-3.7,0.5-5-0.5
		c-3.3-1.9-2.1-12.9-1.9-18c2.7-0.1,7.8-0.7,9.6,0.5c0.2,0.2,0.3,0.3,0.5,0.5c1,2.9-1.6,10.7,0,15.8c4.3,13.5,20,16.2,36,11.5
		c1.3-2.7-0.1-7.1-0.7-9.6c-6.4-2.7-17.5,5.1-21.1-3.1c-0.1-0.6-0.2-1.1-0.2-1.7h25C393.2,77.9,393,75,393,72.5z M380.8,71.3h-13.7
		c0.3-4.1,3.1-5,6-6.5c4.8,0,6.2,2.3,7.7,5.5V71.3z"/>
	<path d="M468.4,55c-3.5-0.1-7-0.2-10.6-0.2V41.3c-2.3,0.1-13.2,5.7-14.2,7c-0.1,2.1-0.2,4.2-0.2,6.2c-2.2,2.2-4.5,4.5-6.7,6.7
		c-0.2,0.2-0.3,0.3-0.5,0.5c-6.1-12.9-17.7-7.1-25.9-1.4c-1.2-1-1.1-3-1-5.3c-4.6-0.1-9.1-0.2-13.7-0.2c-0.1,13.5-0.2,27-0.2,40.6
		c4.7,0.1,9.4,0.2,14.2,0.2c0.1-2.9,0.2-5.8,0.2-8.6c0-2.4,0.6-3.9,1-5.8c0.6-3.3-0.9-6-1-9.8c1.4-2.2,6.4-7,10.6-4.6
		c3.8,1.9,2.5,22.2,2.4,28.8h13.7c0.1-9.8,0.2-19.5,0.2-29.3h6.7c-0.3,21.1-0.4,35.1,23.3,28.6c0-13.7-6.2-7.3-8.6-12.5
		c-0.1-5.4-0.2-10.7-0.2-16.1h10.3C468.2,62.5,468.3,58.8,468.4,55z"/>
	<path d="M550,288c0,0.3-0.1,0.6-0.1,0.9c-10.1,10.2-18.2,22.3-23.9,35.7c-4.3,7.3-5.8,16.8-9.3,24.7c-6.8-1.5-9-9.2-12.7-13.9
		c-1.3-1.6-3.2-2.3-4.3-4.1c-2.1-3.5-2.4-6.9-5.5-9.4v-1.2c0.8-1.1,1.9-2.4,3.1-3.5c2.9-0.8,5.8-1.8,8.6-2.9c0.9,0,1.8-0.1,2.7-0.1
		c3.8-1.9,7.5-3.8,11.3-5.8c2.1-1.2,5.7-3.6,9.3-6.2c30.6-20.5,50.7-55.4,50.7-95c0-22-6.2-42.5-17-59.9v-4.2
		c-1-0.1-1.9-0.1-2.9-0.2c-10.3-15-24-27.5-40-36.2h-5.9c0,0-0.1,0-0.1-0.1c-3.7-1.5-8.3-0.8-12.5,0.1h-63.4c-0.1,0-0.2,0-0.2-0.1
		h-26.2c-0.1,0-0.1,0.1-0.2,0.1h-0.6c-0.7,0.4-1.4,0.8-2.1,1.2c-0.9,0.5-1.9,1-2.9,1.7c-13.6,8.3-25.4,19.4-34.5,32.5
		c-17.7,7.2-33,18.3-37.5,38.5c-1.5,6.8,3.5,13.6,2.6,16.6c-1.4,4.7-9,7.7-7.9,14.4c0.1,0.2,0.2,0.3,0.2,0.5
		c2.8,0.3,4.4-0.6,7.2-0.7c2.9,2.6,5.4,11,4.3,16.3c-1.7,4.3-10.4,6.6-12.5,11.5c-1,2.5-0.5,5.1,0.1,7.8
		c-14.7-21.5-36.6-37.8-62.1-45.4c30.8-20.4,51.2-55.2,51.6-94.8H184.7v29.3c-2-4.6-5.9-9.1-8.1-12.8c-0.3-1.4-0.6-2.7-1-4.1
		c-0.6-0.2-1.1-0.5-1.7-0.7V44.7h-35.1c-0.6-3.1-1.5-6.1-2.6-9.4c-0.2-0.3-0.4-0.5-0.7-0.8h71c-8.5,4.5-15.2,7.2-19.2,16.4
		c-9.7,22.7,6.1,41.5,24,44.6c10.4,1.8,18.4-2,24.7-4.1c1.9-2.8-0.8-10.8-2.9-13c-3.4,1.1-6.7,2.2-10.1,3.4
		c-10.3,2.8-19.2-3.5-21.6-9.8c-5.1-13.6,3.7-23.5,13.9-25.4c6.1-1.2,11.8,2,15.8,3.6c3.3-0.2,5.8-8.8,5-12.2c-3.2-2-7.3-3-11.9-3.5
		h296.9v-1H134.8c-0.2-0.2-0.3-0.4-0.5-0.6v-3.4c-0.5-2.7-2.4-6.6-4.1-8.4c-14.5-16.3-37.8-4-43,12.3H30.7V34h-0.5v264.5
		c-1.4,4.3-2.5,8.2-3.2,11.2c-0.7,3-1.9,13.2-0.5,15.1c0.4,0.6,1.7,1.4,3.6,2.4v125.5c-4.6,15.5-9.3,32-13.5,47.6
		c-1.4,5.3-0.9,10.6-2.4,16.3c-1.5,3.5-3,7-4.6,10.6c-0.1,2.5-0.2,5-0.2,7.4c-1.4,6.1-1.7,11.9-3.4,18.5c-1.5,3.4-3,6.7-4.6,10.1
		c-2.8,8.5-3.3,18.1-3.1,29.5c0.2,0.2,0.5,0.3,0.7,0.5c3.8,1.5,8.9-3,11-4.6c2.3-1.3,4.6-2.6,7-3.8c5.2-3.9,7.1-17.7,8.2-25.4
		c2.3-0.5,3,1.1,4.8,1.3V614c-4.2,0.1-8,0.5-10.8,1.6c-0.8,0.3-1.5,0.9-2,1.6v-0.6h-22v93h22v-64.9c1.5,16.1,3.1,32.2,4.6,48.4
		c1.1,12.2,2.2,24.3,3.4,36.5c1.1,6.4-0.6,14.2,3.8,17.3v1.9H184c0.7-2.9-0.8-4.5-1.2-6.7c-0.8-6.8-1.7-13.6-2.5-20.4h22.4v-49.8
		c5.1,0.1,10.3,0.1,15.4,0.2c12.3,2,27.6,0.5,40.8,0.5c40.1,0,80.7,0.5,120,0.5c5.5-3.8,10.3-8.7,14.2-14.2
		c3.3-4.7,8.9-8.2,12.5-12.7c5.5-7,9.7-14.7,14.4-22.6c3.3-5.5,8.9-13.6,9.6-20.9c1.2-0.3,2.9,0.5,3.6,1.4c1.8,4.6-1.4,9.2-0.5,13.9
		c2.1,11.3-0.4,22.8-0.2,34.6c0.1,5.5-0.4,18.6,2.6,20.2h127.2c1.4-1.7,0.5-8.5,0.5-11.3V504.8c-4.1-1.1-12.6,0-16.8,0.7
		c-2.8-3.7-4.1-13.1-6-17.8c-2.2-5.3-5.5-11.1-8.9-15.6c-1.6-1.8-3.2-3.5-4.8-5.3c-1.3-2.6,2.2-8.6,3.4-10.3h1
		c1.6,4.3,5.5,7.6,8.2,11c2.1,3.4,4.2,6.9,6.2,10.3c0.9,0.5,1.8,1,2.6,1.4c2.4,1.7,4.2,5.1,6.2,7.2c2.5,2.5,4.8,7.6,8.9,8.2v-33.8
		c0.7,0.5,1.4,1.1,2.1,1.6V276.1c-1.5,1.1-3,2.2-4.4,3.4C556.4,281.4,551.4,284.5,550,288z M184.2,184.4h0.5v22.8v1.8
		c-0.2,0-0.3-0.1-0.5-0.1c-2.2,1.4-2.8,4.2-4.3,6.2c-0.6,0.9-3,3.3-6,6v-49.2C178.8,174.3,181.4,180.3,184.2,184.4z M31.2,34.5h55.8
		c-1,3.5-1.3,6.9-1.3,10.2H41.3v122.1c-0.2,1.2-0.4,2.3-0.6,3.5c-1.8,8.6-3.5,17.3-5.3,25.9c-1.5,7.3-3.5,17.9-1.2,24.7
		c1.4,4,4.8,8.6,7,12c0.1,0.1,0.1,0.2,0.2,0.3v41.7c-3.7,4-7.4,12.6-10.2,20.7V34.5z M31.2,327.6c2.9,1.3,6.6,2.8,10.2,4.2v56.5
		c-1.5,4.4-3.6,8.9-2.8,14.2c1.2,0.4,2.1,0.7,2.8,1v7.9c-0.1,0.9-0.1,1.9-0.2,2.8c-1.2,3.2-0.2,3.6-0.7,6.5
		c-0.5,2.6-3.1,3.8-3.8,5.8c-0.1,1.7-0.2,3.4-0.2,5c-1.1,5-3.1,10.8-4.8,16.3c-0.1,0.5-0.3,0.9-0.4,1.4V327.6z M53.7,613.7
		c-6.3,1-14.9,0.2-22.5,0.3v-53.6c0.1,0,0.1,0,0.2,0c6.4-3,3.2-10.9,4.6-19.2c0.9-5.6,4-12.2,1.4-18.5c-1-1.4-1.9-2.9-2.9-4.3
		c-0.9-1.6,1.2-2.3,1.7-3.8c-0.2-1.5-0.3-3-0.5-4.6c2.2-2.7,4-6,5.7-9.6V599h132.6V402c1.9-0.2,4.3-0.2,5.3-1.2
		c1.2-6.4-0.6-14.9-1.7-20.9c-0.5-6.3-1-12.6-1.4-19c-0.7-10.2-1.4-20.3-2.2-30.5v-83c4.1-2.4,8.7-5.6,10.8-7.6v149.4
		c-0.7,6.1-0.1,13.8,0,20.3v7.3c0,0,0,0,0,0v49c-0.2,56.8-0.3,113.6-0.5,170.5h-15.3c0.7-7.5-2.2-24.9-4.6-26.7
		c-4.4-3.3-28.7,0.2-36.7,0.2C102.9,611.2,78.3,612.4,53.7,613.7z M156.1,721.7c-0.8,0.1-1.4,0.1-1.8,0h2.1
		C156.3,721.7,156.2,721.7,156.1,721.7z M197.7,716.7h-62.3v-75.3h62.3V716.7z"/>
	<path d="M472.7,81.2c-2.6,1.5-4.9,7.4-4.1,10.8c6.4,3.9,18.2,6.3,26.6,2.6c2.4-1.6,4.8-3.2,7.2-4.8c2.8-10-1.7-15.8-9.4-18.7
		c-3.3-1.3-8-0.9-9.6-3.8c-0.2-0.2-0.3-0.3-0.5-0.5c0.3-0.5,0.6-1,1-1.4c5.9-1.3,10.1,1.5,14.4,2.9c1.9-1.6,3.8-7.4,3.1-10.6
		c-4.6-2.8-10.5-3.5-18.2-3.4c-7.2,3.1-13.1,4-13,14.4c0.1,3.7,1.5,6.3,3.6,7.9c4.1,3.1,11.6,2.8,15.4,6.2c-0.1,1.3-0.8,1.6-1.7,2.6
		C480.3,85.5,477.4,83.2,472.7,81.2z"/>
</g>
</svg>
