<?xml version="1.0" encoding="utf-8"?>
<!-- Generator: Adobe Illustrator 18.0.0, SVG Export Plug-In . SVG Version: 6.00 Build 0)  -->
<?xml-stylesheet type="text/css" href="css/svg.css" ?>
<svg version="1.2" baseProfile="tiny" id="People_x5F_contents_x5F_1_xA0_Image_1_"
	 xmlns="http://www.w3.org/2000/svg" xmlns:xlink="http://www.w3.org/1999/xlink" x="0px" y="0px" viewBox="227.5 0 563 768"
	 xml:space="preserve">
<g>
	<rect x="448.8" y="697.3" width="316.4" height="37.1"/>
	<polygon points="374.1,683.2 371.4,683.2 371.4,695.5 374.4,695.5 374.4,705.8 377.8,705.8 377.8,714.8 375.5,714.8 375.5,727.1 
		382.1,727.1 382.1,736 417.3,736 417.3,727.1 423.8,727.1 423.8,714.8 421.5,714.8 421.5,705.8 425.1,705.8 425.1,695.5 428,695.5 
		428,683.2 425.9,683.2 425.9,675.6 429.2,675.6 429.2,663.3 369.4,663.3 369.4,675.6 374.1,675.6 	"/>
	<rect x="681.6" y="747.4" width="94.5" height="10"/>
	<rect x="590.6" y="18.5" width="176.5" height="13.1"/>
	<path d="M434.5,768.4c1.1,1,5.9,0.6,7.9,0.5C441.1,767.9,436.8,768.3,434.5,768.4z"/>
	<path d="M730.3,88c-7.4,0.1-10.4-2.3-15.3-4.3c-2.7,1.5-5,7.6-4.2,11.1c6.6,4,18.8,6.5,27.4,2.7c2.5-1.6,4.9-3.3,7.4-4.9
		c2.9-10.3-1.8-16.3-9.7-19.3c-3.4-1.3-8.2-0.9-9.9-3.9c-0.2-0.2-0.3-0.3-0.5-0.5c0.3-0.5,0.6-1,1-1.4c6.1-1.3,10.4,1.5,14.8,3
		c2-1.6,3.9-7.6,3.2-10.9c-4.7-2.9-10.8-3.6-18.8-3.5c-7.4,3.2-13.5,4.1-13.4,14.8c0.1,3.8,1.5,6.5,3.7,8.1c4.2,3.2,12,2.9,15.9,6.4
		C731.9,86.7,731.2,87,730.3,88z"/>
	<path d="M633,74.7c0-13-9.1-22.1-24.7-18.8c-7.3,1.5-9.3,6.2-14.1,9.7c-0.2-0.1-0.3-0.2-0.5-0.2c-0.1-2.9-0.2-5.8-0.2-8.7
		c-3.8-0.1-7.6-0.2-11.3-0.2c-0.1-4.3-0.2-8.8-0.2-13.1c-4.8-1.2-9.7,4.4-13.4,6c-0.8,1.5-0.1,5.2-1,6.9c-2.3,2.3-4.4,4.6-6.7,6.9
		c-0.4,0.1-0.8,0.2-1.2,0.2c-5.6-14-18.7-6.5-26.7-1.4c-0.2,0.2-0.3,0.3-0.5,0.5c-0.1-2.1-0.2-4.1-0.2-6.2
		c-4.7-0.1-9.4-0.2-14.1-0.2c-0.1,4.3-0.2,8.6-0.2,12.9c-1.4,9.1,0,19.3,0,29c4.5-0.2,9.3-0.1,14,0c0.1-8.1,0.2-16.3,0.2-24.5
		c1.9-2.7,10.3-9.4,13.1-3.2c0.1,9.3,0.2,18.7,0.2,27.9c4.8,0.1,9.7,0.2,14.6,0.2c0.1-10.1,0.2-20.3,0.2-30.4
		c2.2-0.1,4.3-0.2,6.4-0.2c2.9,4.4-0.1,13.9,1,20c1.5,8.4,6.4,11.5,16.8,11.1c2.3-0.5,4.6-1,6.9-1.4c0.2-0.2,0.5-0.3,0.7-0.5
		c-0.1-1.5-2.3-9.8-3-10.1c-1.9-1-3.8,0.5-5.2-0.5c-3.4-2-2.2-13.3-2-18.5c2.8-0.1,8-0.7,9.9,0.5c0.2,0.2,0.3,0.3,0.5,0.5
		c1,3-1.6,11,0,16.3c4.4,13.9,20.6,16.7,37.1,11.9c1.3-2.8-0.1-7.3-0.7-9.9c-6.6-2.8-18,5.3-21.7-3.2c-0.1-0.6-0.2-1.1-0.2-1.8h25.8
		C633.2,80.3,633,77.3,633,74.7z M620.3,73.5h-14.1c0.3-4.2,3.2-5.2,6.2-6.7c4.9,0,6.4,2.4,7.9,5.7V73.5z"/>
	<path d="M488,55.4c-1.8,0.2-3.5,0.5-5.2,0.7c-3.9,1.4-8.8,7.3-10.4,11.1c-7.7,18.4,7.4,36.8,28.1,30.7c10.1-3,19.2-16,13.4-30.2
		C510.2,58.3,501.9,55.1,488,55.4z M494.4,87.6c-8.7,2-11.4-11.3-7.9-17.3c1.2-2.1,3.2-2.8,5.5-3.9
		C503.6,66.1,503.5,85.6,494.4,87.6z"/>
	<path d="M710.6,56.6c-3.6-0.1-7.2-0.2-10.9-0.2V42.6c-2.4,0.1-13.6,5.9-14.6,7.2c-0.1,2.2-0.2,4.3-0.2,6.4
		c-2.3,2.3-4.6,4.6-6.9,6.9c-0.2,0.2-0.3,0.3-0.5,0.5c-6.3-13.3-18.2-7.3-26.7-1.4c-1.2-1-1.1-3.1-1-5.5c-4.7-0.1-9.4-0.2-14.1-0.2
		c-0.1,13.9-0.2,27.8-0.2,41.8c4.8,0.1,9.7,0.2,14.6,0.2c0.1-3,0.1-6,0.2-9c0-2.5,0.6-4,1-6c0.6-3.4-0.9-6.2-1-10.1
		c1.4-2.3,6.6-7.2,10.9-4.7c3.9,2,2.6,22.9,2.5,29.7h14.1c0.1-10.1,0.2-20.1,0.2-30.2h6.9c-0.3,21.7-0.4,36.2,24,29.5
		c0-14.1-6.4-7.5-8.9-12.9c-0.1-5.6-0.2-11-0.2-16.6h10.6C710.5,64.3,710.6,60.5,710.6,56.6z"/>
	<path d="M807.8,520.2c-4.2-1.1-13,0-17.3,0.7c-2.9-3.8-4.2-13.5-6.2-18.3c-2.3-5.5-5.7-11.4-9.2-16.1c-1.6-1.9-3.3-3.6-4.9-5.5
		c-1.3-2.7,2.3-8.9,3.5-10.6h1c1.6,4.4,5.7,7.8,8.4,11.3c2.2,3.5,4.3,7.1,6.4,10.6c0.9,0.5,1.9,1,2.7,1.4c2.5,1.8,4.3,5.3,6.4,7.4
		c2.6,2.6,4.9,7.8,9.2,8.4v-33.4c0.1,0.1,0.2,0.2,0.3,0.2v-192c-24.5,17.5-42,44.1-47.6,74.9c-0.1,0.2-0.2,0.4-0.2,0.6
		c-7-1.5-9.3-9.5-13.1-14.3c-1.3-1.6-3.3-2.4-4.4-4.2c-2.2-3.6-2.5-7.1-5.7-9.7v-1.2c0.8-1.1,1.9-2.4,3.2-3.6c3-0.9,5.9-1.8,8.8-2.9
		c1,0,1.9,0,2.9,0c3.9-2,7.7-3.9,11.6-6c2.4-1.4,6.8-4.3,10.9-7.3c30.7-21.3,50.9-56.8,50.9-97c0-22.7-6.4-43.9-17.5-61.8v-4.3
		c-1-0.1-1.9-0.2-2.9-0.2c-10.6-15.5-24.7-28.4-41.3-37.3h-6.2c0,0-0.1-0.1-0.1-0.1c-3.9-1.7-8.7-0.8-13.1,0.1h-64.9
		c-0.1,0-0.2-0.1-0.3-0.1h-27c-0.1,0-0.2,0.1-0.3,0.1h-0.4c-0.4,0.2-0.8,0.4-1.2,0.7c-1.6,0.7-3.4,1.8-5.4,3.2
		c-13.4,8.5-25,19.6-34.1,32.6c-18.3,7.4-34.1,18.9-38.7,39.6c-1.5,7,3.6,14,2.7,17.1c-1.4,4.8-9.3,7.9-8.1,14.8
		c0.1,0.2,0.2,0.3,0.2,0.5c2.9,0.3,4.5-0.6,7.4-0.7c3,2.7,5.6,11.3,4.4,16.8c-1.8,4.4-10.7,6.8-12.9,11.9c-1.1,2.5-0.5,5.2,0.1,7.9
		c-15.2-22.1-37.6-38.8-63.9-46.6c31.7-21,52.7-56.9,53.1-97.7H418.3v30.3c-2.1-4.8-6.1-9.5-8.4-13.4c-0.3-1.4-0.6-2.8-1-4.2
		c-0.6-0.3-1.1-0.5-1.6-0.7V46.1h-36.2c-0.6-3.2-1.5-6.4-2.7-9.8c-0.2-0.2-0.4-0.5-0.6-0.7H441c-9,4.8-16,7.5-20.1,17.1
		c-9.9,23.2,6.4,42.6,24.8,45.9c10.7,1.9,19-2.1,25.5-4.2c2-2.9-0.8-11.1-3-13.4c-3.5,1.1-6.9,2.3-10.4,3.5
		c-10.6,2.9-19.8-3.6-22.3-10.1c-5.3-14,3.8-24.2,14.3-26.2c6.3-1.2,12.2,2.1,16.3,3.7c3.4-0.2,6-9.1,5.2-12.6
		c-3.8-2.3-8.6-3.3-14-3.7h307.9v-1H366.9c-0.2-0.2-0.4-0.5-0.6-0.7v-3.5c-0.5-2.8-2.5-6.8-4.2-8.7c-15-16.8-39.1-4.1-44.4,12.9
		h-58.2V35h-0.5v272c-1.4,4.5-2.6,8.7-3.3,11.7c-0.7,3.1-2,13.6-0.5,15.6c0.4,0.6,1.8,1.5,3.8,2.5v129.8
		c-4.7,15.9-9.5,32.8-13.8,48.7c-1.4,5.5-0.9,10.9-2.5,16.8c-1.5,3.6-3.1,7.2-4.7,10.9c-0.1,2.6-0.2,5.2-0.2,7.6
		c-1.4,6.3-1.8,12.3-3.5,19.1c-1.5,3.5-3.1,6.9-4.7,10.4c-2.9,8.8-3.4,18.7-3.2,30.4c0.2,0.2,0.5,0.3,0.7,0.5
		c3.9,1.5,9.2-3.1,11.3-4.7c2.4-1.3,4.7-2.7,7.2-3.9c5.4-4,7.3-18.2,8.3-26.2c2.5-0.5,3.1,1.2,5.1,1.3v55.1
		c-4.3,0.1-8.2,0.5-11.1,1.6c-0.9,0.4-1.6,1-2.2,1.8v-0.5h-22.7v95.8h22.7v-68.2c1.6,17,3.2,34,4.9,51c1.1,12.6,2.3,25,3.5,37.6
		c1.1,6.6-0.6,14.6,3.9,17.8v2h159.4c0.7-3-0.8-4.6-1.2-6.9c-0.9-6.9-1.8-14-2.6-21h23.1v-51.5c5.2,0.1,10.5,0.2,15.8,0.2
		c12.7,2.1,28.4,0.5,42,0.5c41.3,0,83.2,0.5,123.7,0.5c5.7-3.9,10.6-9,14.6-14.6c3.4-4.8,9.2-8.4,12.9-13.1
		c5.7-7.2,10-15.1,14.8-23.3c3.4-5.7,9.2-14,9.9-21.5c1.2-0.3,3,0.5,3.7,1.4c1.9,4.7-1.4,9.5-0.5,14.3c2.2,11.6-0.4,23.5-0.2,35.7
		c0.1,5.7-0.4,19.2,2.7,20.8h131.1c1.5-1.4,0.5-8.6,0.5-11.3V520.2z M417.6,189.9h0.6v23.5v1.9c-0.2,0-0.4-0.1-0.6-0.1
		c-2.3,1.4-2.9,4.3-4.4,6.4c-0.6,0.9-3.1,3.3-6.1,6.1v-50.6C412.1,179.7,414.7,185.8,417.6,189.9z M260.1,35.5h57.4
		c-1,3.6-1.3,7.1-1.3,10.5h-45.3v121.9c-0.4,2.4-0.8,4.8-1.2,7.2c-1.9,8.9-3.6,17.8-5.5,26.7c-1.5,7.5-3.6,18.4-1.2,25.5
		c1.4,4.1,4.9,8.9,7.2,12.4c0.2,0.4,0.5,0.8,0.7,1.2v41.5c-4,3.9-7.9,13-10.8,21.6V35.5z M260.1,337.2c3.1,1.4,7.1,3,10.8,4.4v57.2
		c-1.6,4.9-4.1,9.9-3.3,15.9c1.5,0.5,2.6,0.9,3.3,1.3v5.4c-0.1,0.3-0.2,0.6-0.3,0.9c-0.1,1.4-0.2,3-0.2,4.4
		c-1.2,3.3-0.2,3.7-0.7,6.7c-0.5,2.7-3.2,3.9-3.9,6c-0.1,1.8-0.2,3.5-0.2,5.2c-1.1,5.2-3.2,11.1-4.9,16.8c-0.2,0.6-0.4,1.2-0.5,1.8
		V337.2z M283.3,632.3c-6.5,1-15.4,0.2-23.2,0.3v-55.1c0,0,0.1,0,0.1,0c6.6-3.1,3.3-11.2,4.7-19.8c0.9-5.8,4.1-12.6,1.4-19.1
		c-1-1.4-2-3-3-4.4c-0.9-1.6,1.2-2.4,1.8-3.9c-0.2-1.5-0.3-3.1-0.5-4.7c2.4-3,4.5-6.8,6.3-10.9v100.4h136.2V414.3
		c1.9-0.2,4.3-0.2,5.3-1.2c1.2-6.6-0.6-15.4-1.8-21.5c-0.5-6.5-1-13-1.4-19.6c-0.7-9.8-1.4-19.6-2.1-29.3V255
		c4.3-2.5,9.1-5.9,11.1-7.9v153.4c-0.9,7.1,0,16.5,0,23.7v5.4c0,0,0,0,0,0v50.3c-0.2,58.6-0.3,117.2-0.5,175.8H402
		c0.7-7.7-2.3-25.6-4.8-27.5c-4.5-3.4-29.6,0.2-37.8,0.2C334.1,629.7,308.6,631.1,283.3,632.3z M388.8,743.7
		c-0.9,0.1-1.6,0.1-2.1-0.1h2.7C389.2,743.6,389,743.6,388.8,743.7z M431.6,738.4h-64.2v-77.6h64.2V738.4z"/>
</g>
</svg>
