<?xml version="1.0" encoding="utf-8"?>
<!-- Generator: Adobe Illustrator 18.0.0, SVG Export Plug-In . SVG Version: 6.00 Build 0)  -->
<!DOCTYPE svg PUBLIC "-//W3C//DTD SVG 1.1//EN" "http://www.w3.org/Graphics/SVG/1.1/DTD/svg11.dtd">
<svg version="1.1" id="scan_23_xA0_Image_1_" xmlns="http://www.w3.org/2000/svg" xmlns:xlink="http://www.w3.org/1999/xlink"
	 x="0px" y="0px" viewBox="0 0 626.9 783.8" enable-background="new 0 0 626.9 783.8" xml:space="preserve">
<g>
	<rect x="255.6" y="43.8" width="61" height="15"/>
	<rect x="322.3" y="37.8" width="45.3" height="21"/>
	<polygon points="366.8,60.1 319.9,60.1 319.9,43.9 318.9,43.9 318.9,60.1 254.8,60.1 254.8,61.1 366.8,61.1 	"/>
	<rect x="74.9" y="96.1" width="34.3" height="11"/>
	<rect x="48.3" y="111.4" width="19.7" height="11"/>
	<polygon points="128.5,131.4 144.7,131.4 144.7,120.4 143.1,120.4 143.1,111.4 74.9,111.4 74.9,120.4 74.9,122.4 74.9,129.8 
		74.9,131.4 74.9,140.8 128.5,140.8 	"/>
	<polygon points="126.1,217.4 178.4,217.4 178.4,206.4 164.3,206.4 164.3,199.4 175.8,199.4 175.8,188.4 143.1,188.4 143.1,179.4 
		74.9,179.4 74.9,188.4 74.9,190.4 74.9,197.8 74.9,199.4 74.9,206.4 74.9,208.8 74.9,215.8 74.9,217.4 74.9,226.8 126.1,226.8 	"/>
	<rect x="48.3" y="178.8" width="19.7" height="11"/>
	<rect x="74.9" y="155.1" width="66.7" height="19.3"/>
	<rect x="70.3" y="98.9" width="1" height="125"/>
	<rect x="48.3" y="276.4" width="19.7" height="11"/>
	<polygon points="74.9,276.4 74.9,285.4 74.9,287.4 74.9,294.8 74.9,296.4 74.9,303.9 74.9,305.8 74.9,314.9 167.7,314.9 
		167.7,303.9 156,303.9 156,296.4 174.9,296.4 174.9,285.4 150.1,285.4 150.1,276.4 	"/>
	<polygon points="74.9,328.7 74.9,330.7 74.9,338 74.9,339.7 74.9,346.7 74.9,349 74.9,357.7 171.7,357.7 171.7,346.7 164.3,346.7 
		164.3,338 158.7,338 158.7,330.7 174.4,330.7 174.4,319.7 74.9,319.7 	"/>
	<polygon points="74.9,370.7 74.9,372.7 74.9,380 74.9,381.7 74.9,391 151.1,391 151.1,381.7 169.6,381.7 169.6,370.7 139.4,370.7 
		139.4,361.7 74.9,361.7 	"/>
	<polygon points="166.9,395.7 74.9,395.7 74.9,404.7 74.9,406.7 74.9,414 74.9,415.7 74.9,422.7 74.9,425 74.9,433.7 165.9,433.7 
		165.9,425 170.9,425 170.9,415.7 183.1,415.7 183.1,404.7 166.9,404.7 	"/>
	<polygon points="172.7,535.7 123.1,535.7 123.1,526.7 74.9,526.7 74.9,535.7 74.9,537.7 74.9,546.7 172.7,546.7 	"/>
	<polygon points="192.9,502 168.6,502 168.6,492.7 154.9,492.7 154.9,483.7 74.9,483.7 74.9,492.7 74.9,494.7 74.9,502 74.9,503.7 
		74.9,510.7 74.9,513 74.9,521.7 159.7,521.7 159.7,513 192.9,513 	"/>
	<rect x="48.3" y="394.8" width="19.7" height="11"/>
	<rect x="48.3" y="483.3" width="19.7" height="11"/>
	<rect x="48.3" y="525.6" width="19.7" height="11"/>
	<rect x="48.3" y="360.8" width="19.7" height="11"/>
	<rect x="48.3" y="318.8" width="19.7" height="11"/>
	<rect x="70.3" y="277.9" width="1" height="266"/>
	<rect x="226.6" y="533.4" width="19.7" height="11"/>
	<polygon points="349.2,553.4 353.2,553.4 353.2,542.4 328.4,542.4 328.4,533.4 253.3,533.4 253.3,542.4 253.3,544.4 253.3,551.8 
		253.3,553.4 253.3,560.9 253.3,562.8 253.3,571.9 354.5,571.9 354.5,560.9 349.2,560.9 	"/>
	<polygon points="253.3,576.7 253.3,585.7 253.3,587.7 253.3,596.7 304.9,596.7 304.9,585.7 293.2,585.7 293.2,576.7 	"/>
	<polygon points="302.1,611.7 313.5,611.7 313.5,600.7 253.3,600.7 253.3,609.7 253.3,611.7 253.3,619 253.3,620.7 253.3,630 
		352.3,630 352.3,619 302.1,619 	"/>
	<polygon points="281.6,676.3 253.3,676.3 253.3,685.3 253.3,687.3 253.3,694.7 253.3,696.3 253.3,705.7 328.7,705.7 328.7,696.3 
		333.3,696.3 333.3,685.3 281.6,685.3 	"/>
	<rect x="253.3" y="648.7" width="67.5" height="11"/>
	<rect x="226.6" y="647.8" width="19.7" height="11"/>
	<rect x="253.3" y="709.4" width="53.9" height="11"/>
	<rect x="226.6" y="709.4" width="19.7" height="11"/>
	<rect x="226.6" y="676.4" width="19.7" height="11"/>
	<rect x="253.3" y="634.3" width="70.4" height="11"/>
	<rect x="226.6" y="633.4" width="19.7" height="11"/>
	<rect x="226.6" y="599.8" width="19.7" height="11"/>
	<rect x="226.6" y="575.8" width="19.7" height="11"/>
	<rect x="248.6" y="534.9" width="1" height="183.7"/>
	<rect x="226.9" y="88.4" width="302" height="392"/>
	<rect x="46.9" y="247.4" width="68" height="19"/>
	<rect x="73.5" y="457.4" width="35.1" height="16"/>
	<path d="M50.9,476.4c7.2,0,13-5.8,13-13s-5.8-13-13-13s-13,5.8-13,13S43.8,476.4,50.9,476.4z"/>
	<path d="M188.3,588.8c0,0-0.1,0-0.1,0c-1.1,0-2.1,0.3-3,0.8l0.3-24.7l-129-1.7c-4.2-4-8.6-5.1-8.9-5.2l-0.1,0.5h0l0,0l-0.1,0.5
		c0,0,0.6,0.1,1.4,0.5l5,3.7l-1.2,0l-0.5,0l-1.5,116.4c-3.4,1.5-7.7,3.6-11.2,6.2L24,693c-0.2-0.1-0.3-0.1-0.3-0.2l-0.5,0.9
		c0,0,2.1,1.2,4.9,1.2c2.4,0,5.3-0.9,7.8-4.3c2.9-4.1,9.7-7.6,14.6-9.8l-0.2,16.8l133,1.7l0.5,0l1.3-97.1l11.4-6.6c0,0,0,0,0,0
		l0.4-0.3l0,0l0.4-0.3C197,594.7,193.1,588.9,188.3,588.8z"/>
	<rect x="55.3" y="699.8" width="14.3" height="10"/>
	<rect x="395.3" y="499.8" width="176" height="222.3"/>
	<rect x="19.3" y="754.8" width="94.7" height="7.3"/>
	<rect x="3.6" y="750.8" width="13.7" height="11.7"/>
</g>
</svg>
