<?xml version="1.0" encoding="utf-8"?>
<!-- Generator: Adobe Illustrator 18.1.1, SVG Export Plug-In . SVG Version: 6.00 Build 0)  -->
<!DOCTYPE svg PUBLIC "-//W3C//DTD SVG 1.1//EN" "http://www.w3.org/Graphics/SVG/1.1/DTD/svg11.dtd">
<svg version="1.1" id="Layer_1" xmlns="http://www.w3.org/2000/svg" xmlns:xlink="http://www.w3.org/1999/xlink" x="0px" y="0px"
	 viewBox="0 0 551 754.5" enable-background="new 0 0 551 754.5" xml:space="preserve">
<g>
	<rect x="201.5" width="349.5" height="132.5"/>
	<rect x="39" y="40.9" width="150" height="29.6"/>
	<rect x="38.5" y="125.5" width="152" height="9"/>
	<polygon points="508.8,173 502.8,173 502.8,160.5 456,160.5 456,149.5 320.5,149.5 320.5,160.5 320.5,164.5 320.5,173 320.5,175.5 
		320.5,188 508.8,188 	"/>
	<rect x="320.5" y="190.6" width="184.8" height="8.4"/>
	<rect x="320.5" y="202.1" width="135.5" height="8.4"/>
	<polygon points="39.5,116.5 194,116.5 194,140 39,140 39,141 509.5,141 509.5,140 195,140 195,42.5 194,42.5 194,115.5 39.5,115.5 
			"/>
	<polygon points="435,534.5 435,707.2 436,707.2 436,534.5 509.5,534.5 509.5,533.5 311.8,533.5 311.8,220.5 384,220.5 384,256 
		396,256 396,332 486.5,332 486.5,256 509.5,256 509.5,220.5 509.5,216.5 311.8,216.5 311.8,150.2 310.8,150.2 310.8,533.5 
		39,533.5 39,534.5 111.7,534.5 111.7,707.2 112.7,707.2 112.7,534.5 191.7,534.5 191.7,707.2 192.7,707.2 192.7,534.5 272.3,534.5 
		272.3,707.2 273.3,707.2 273.3,534.5 353.7,534.5 353.7,707.2 354.7,707.2 354.7,534.5 	"/>
	<rect x="384" y="335" width="126" height="129"/>
	<rect x="321.1" y="335" width="56.9" height="58.2"/>
	<rect x="319.7" y="487.8" width="175.7" height="16.9"/>
	<rect x="319.7" y="508.7" width="191.7" height="18.2"/>
	<rect y="537.8" width="13.3" height="172"/>
	<rect x="370" y="727.2" width="123.3" height="10.7"/>
	<rect x="503.3" y="727.2" width="6.7" height="9.3"/>
	<rect x="134.7" y="537.8" width="35.3" height="35.3"/>
	<rect x="215.3" y="537.8" width="35.3" height="35.3"/>
	<rect x="295.3" y="537.8" width="35.3" height="35.3"/>
	<rect x="376.7" y="537.8" width="35.3" height="35.3"/>
	<rect x="456.7" y="537.8" width="35.3" height="35.3"/>
	<rect x="36.7" y="725.2" width="148.7" height="29.3"/>
	<polygon points="181,691.2 186.4,691.2 186.4,679.2 171,679.2 171,670.5 173.7,670.5 173.7,659.8 180.2,659.8 180.2,647.8 
		178.1,647.8 178.1,639.2 178.1,637.8 178.1,629.2 183.9,629.2 183.9,617.2 179.5,617.2 179.5,606.5 158.9,606.5 158.9,597.8 
		169.1,597.8 169.1,587.2 176,587.2 176,575.2 117.3,575.2 117.3,585.8 117.3,587.2 117.3,595.8 117.3,597.8 117.3,606.5 
		117.3,607.8 117.3,617.2 117.3,618.5 117.3,627.2 117.3,629.2 117.3,637.8 117.3,639.2 117.3,647.8 117.3,649.8 117.3,658.5 
		117.3,659.8 117.3,668.5 117.3,670.5 117.3,679.2 117.3,680.5 117.3,688.5 117.3,691.2 117.3,699.2 117.3,700.5 117.3,708.8 
		187.2,708.8 187.2,699.2 181,699.2 	"/>
	<polygon points="259.7,658.5 257.2,658.5 257.2,649.8 261.6,649.8 261.6,637.8 257.4,637.8 257.4,627.2 253.1,627.2 253.1,618.5 
		261.1,618.5 261.1,606.5 261,606.5 261,595.8 254.2,595.8 254.2,587.2 256.2,587.2 256.2,575.2 199,575.2 199,585.8 199,587.2 
		199,595.8 199,597.8 199,606.5 199,607.8 199,617.2 199,618.5 199,627.2 199,629.2 199,637.8 199,639.2 199,647.8 199,649.8 
		199,658.5 199,659.8 199,668.5 199,670.5 199,679.2 199,680.5 199,688.5 199,691.2 199,699.2 199,700.5 199,708.8 260.2,708.8 
		260.2,699.2 242.2,699.2 242.2,691.2 261.5,691.2 261.5,680.5 261.7,680.5 261.7,668.5 259.7,668.5 	"/>
	<polygon points="340.1,595.8 330.8,595.8 330.8,587.2 339.8,587.2 339.8,575.2 279,575.2 279,585.8 279,587.2 279,595.8 279,597.8 
		279,606.5 279,607.8 279,617.2 279,618.5 279,627.2 279,629.2 279,637.8 279,639.2 279,647.8 279,649.8 279,658.5 279,659.8 
		279,668.5 279,670.5 279,679.2 279,680.5 279,688.5 279,691.2 279,699.2 279,700.5 279,708.8 341.3,708.8 341.3,699.2 338.4,699.2 
		338.4,691.2 341.5,691.2 341.5,680.5 347.1,680.5 347.1,668.5 340.1,668.5 340.1,658.5 332.8,658.5 332.8,647.8 330.5,647.8 
		330.5,637.8 325.6,637.8 325.6,629.2 335.6,629.2 335.6,618.5 347.8,618.5 347.8,606.5 340.1,606.5 	"/>
	<polygon points="426.4,699.2 414.5,699.2 414.5,691.2 423.9,691.2 423.9,679.2 419.7,679.2 419.7,668.5 413.6,668.5 413.6,659.8 
		422.5,659.8 422.5,647.8 410.5,647.8 410.5,639.2 420.4,639.2 420.4,629.2 429.5,629.2 429.5,617.2 421.8,617.2 421.8,607.8 
		423.5,607.8 423.5,595.8 397.6,595.8 397.6,585.8 386.4,585.8 386.4,575.2 359.7,575.2 359.7,585.8 359.7,587.2 359.7,595.8 
		359.7,597.8 359.7,606.5 359.7,607.8 359.7,617.2 359.7,618.5 359.7,627.2 359.7,629.2 359.7,637.8 359.7,639.2 359.7,647.8 
		359.7,649.8 359.7,658.5 359.7,659.8 359.7,668.5 359.7,670.5 359.7,679.2 359.7,680.5 359.7,688.5 359.7,691.2 359.7,699.2 
		359.7,700.5 359.7,708.8 426.4,708.8 	"/>
	<polygon points="500,575.2 441.3,575.2 441.3,585.8 441.3,587.2 441.3,595.8 441.3,597.8 441.3,606.5 441.3,607.8 441.3,617.2 
		441.3,618.5 441.3,627.2 441.3,629.2 441.3,637.8 441.3,639.2 441.3,647.8 441.3,649.8 441.3,658.5 441.3,659.8 441.3,668.5 
		441.3,670.5 441.3,679.2 441.3,680.5 441.3,688.5 441.3,691.2 441.3,699.2 441.3,700.5 441.3,708.8 495.3,708.8 495.3,699.2 
		487.8,699.2 487.8,688.5 482,688.5 482,680.5 503.9,680.5 503.9,670.5 509.3,670.5 509.3,658.5 492.8,658.5 492.8,649.8 
		502.1,649.8 502.1,637.8 495.2,637.8 495.2,629.2 510.4,629.2 510.4,617.2 492.7,617.2 492.7,607.8 496.2,607.8 496.2,597.8 
		510.6,597.8 510.6,585.8 500,585.8 	"/>
	<rect x="38" y="149.5" width="265" height="376"/>
</g>
</svg>
