<?xml version="1.0" encoding="utf-8"?>
<!-- Generator: Adobe Illustrator 18.1.1, SVG Export Plug-In . SVG Version: 6.00 Build 0)  -->
<!DOCTYPE svg PUBLIC "-//W3C//DTD SVG 1.1//EN" "http://www.w3.org/Graphics/SVG/1.1/DTD/svg11.dtd">
<svg version="1.1" id="Layer_1" xmlns="http://www.w3.org/2000/svg" xmlns:xlink="http://www.w3.org/1999/xlink" x="0px" y="0px"
	 viewBox="0 0 569.8 758.4" enable-background="new 0 0 569.8 758.4" xml:space="preserve">
<g>
	<rect x="33.8" y="418.8" width="102.2" height="10.3"/>
	<rect x="13.7" y="62.3" width="79" height="22"/>
	<polygon points="334.7,85.3 539.7,85.3 539.7,71.3 503.7,71.3 503.7,32.3 307.7,32.3 307.7,73.3 334.7,73.3 	"/>
	<polygon points="539.7,98.3 539.7,88.3 13.7,88.3 13.7,98.3 159.7,98.3 159.4,176.8 14.7,176.8 14.7,178.8 159.4,178.8 
		157.8,656.8 13.7,656.8 13.7,658.8 157.8,658.8 157.7,700.3 159.7,700.3 161.7,98.3 	"/>
	<rect x="169.7" y="109.3" width="368" height="331"/>
	<rect x="169.7" y="451" width="179" height="249.8"/>
	<polygon points="359.2,480.3 359.2,495.8 427.1,495.8 427.1,480.3 459.6,480.3 459.6,465 359.2,465 359.2,476 	"/>
	<rect x="371" y="726.1" width="176.5" height="7.8"/>
	<polygon points="149.4,147.2 149.4,126.5 65.8,126.5 65.8,147.2 32.4,147.2 32.4,168 149.4,168 149.4,147.3 	"/>
	<polygon points="381.7,662.5 379.2,662.5 379.2,670.5 379.2,684.9 379.2,692.9 434.4,692.9 434.4,684.9 473.5,684.9 473.5,662.5 
		383.7,662.5 388.2,647 474.5,647 474.5,617.4 481.2,623.1 481.2,671.1 535.3,671.1 535.3,616 481.2,616 481.2,620.4 474.5,614.8 
		474.5,526.5 481.2,524.9 481.2,589.5 535.3,589.5 535.3,519.5 481.2,519.5 481.2,522.8 474.5,524.5 474.5,499 359.2,499 359.2,647 
		386.1,647 	"/>
	<polygon points="33,667.6 33,674.6 33,675.4 33,681.1 33,683.4 33,691.5 79.2,691.5 79.2,683.4 107.7,683.4 107.7,674.6 
		96.4,674.6 96.4,667.6 	"/>
	<rect x="33" y="694.1" width="82.2" height="8.8"/>
	<rect x="33.8" y="574.1" width="49.9" height="15.6"/>
	<rect x="33.8" y="341.4" width="56.2" height="15.6"/>
	<rect x="15.7" y="512.5" width="12.2" height="9.7"/>
	<polygon points="33.8,543.2 33.8,544 33.8,564 144.2,564 144.2,543.2 119.5,543.2 119.5,512.5 33.8,512.5 	"/>
	<rect x="15.7" y="362.1" width="12.2" height="9.7"/>
	<rect x="33.8" y="362.1" width="95.4" height="51.7"/>
	<rect x="15.7" y="595.5" width="12.2" height="9.7"/>
	<rect x="33.8" y="595.5" width="78.6" height="8.9"/>
	<polygon points="33.8,638.3 33.8,639.5 33.8,647.3 112.4,647.3 112.4,639.5 130.4,639.5 130.4,606.8 33.8,606.8 	"/>
	<rect x="15.7" y="465.8" width="12.2" height="9.7"/>
	<rect x="33.8" y="465.8" width="84.6" height="10.3"/>
	<rect x="33.8" y="477.2" width="112" height="29.2"/>
	<rect x="15.7" y="309.5" width="13.2" height="9.7"/>
	<rect x="33.8" y="309.5" width="84.6" height="10.3"/>
	<rect x="15.7" y="273.1" width="13.2" height="9.7"/>
	<rect x="33.8" y="273.1" width="105.6" height="31.2"/>
	<rect x="15.7" y="226.1" width="13.2" height="9.7"/>
	<polygon points="33.8,246.8 33.8,247.1 33.8,267.7 143.2,267.7 143.2,246.8 121.9,246.8 121.9,226.1 33.8,226.1 	"/>
	<rect x="15.7" y="190.1" width="13.2" height="9.7"/>
	<polygon points="33.8,190.1 33.8,199.1 33.8,211.1 33.8,220.1 119,220.1 119,199.1 78.3,199.1 78.3,190.1 	"/>
	<rect x="33.8" y="320.8" width="71.5" height="9.5"/>
	<rect x="15.7" y="418.8" width="12.2" height="9.7"/>
	<polygon points="33.8,449.8 33.8,450.9 33.8,459.5 145.7,459.5 145.7,449.8 126.5,449.8 126.5,430.3 33.8,430.3 	"/>
</g>
</svg>
