<?xml version="1.0" encoding="utf-8"?>
<!-- Generator: Adobe Illustrator 18.0.0, SVG Export Plug-In . SVG Version: 6.00 Build 0)  -->
<?xml-stylesheet type="text/css" href="css/svg.css" ?>
<svg version="1.2" baseProfile="tiny" id="US_x5F_contents_x5F_1_xA0_Image_1_"
	 xmlns="http://www.w3.org/2000/svg" xmlns:xlink="http://www.w3.org/1999/xlink" x="0px" y="0px" viewBox="0 0 532 742"
	 xml:space="preserve">
<g>
	<path d="M109,1c0.3,0.1,0.6,0.2,1,0.2c0-0.1,0-0.2,0-0.2C109.7,1,109.4,1,109,1z"/>
	<path d="M144.6,1c-0.2,0.2-0.5,0.3-0.7,0.5c0.5,0,1,0,1.4,0c0-0.1,0-0.2,0-0.2C145,1.2,144.8,1.1,144.6,1z"/>
	<path d="M153.4,1.2c0.3,0.1,0.6,0.2,1,0.2c0-0.1,0-0.2,0-0.2C154.1,1.2,153.8,1.2,153.4,1.2z"/>
	<path d="M130.6,13c-0.3,0-0.6,0-1,0c0.3,0.1,0.6,0.2,1,0.2C130.6,13.2,130.6,13.1,130.6,13z"/>
	<path d="M187.3,13.5c-0.2-0.2-0.3-0.3-0.5-0.5c-0.1,0.2-0.2,0.3-0.2,0.5C186.8,13.5,187,13.5,187.3,13.5z"/>
	<path d="M192.3,31.2c0,4.3,0,8.6,0,13c-0.8,13.8-0.9,27.2,12.2,30.7c3.4,0.9,8.8,1.2,12.2,0.2c2-0.7,4-1.4,6-2.2
		c6.7,1,16.1,5.1,22.8,0.2c1.9-1.4,2.7-3.5,3.4-6.2c2.4-10.2-8.3-12.9-15.4-14.4c-0.4-0.8-0.5-1.3-0.2-2.4c5-0.7,9.1,0.8,13,2.4
		c0.8-2.8,1.6-5.6,2.4-8.4c-3.9-3.5-12.9-2.8-18.5-1.9c0-3.6,0-7.2,0-10.8c-5.4-0.1-9.8-0.9-12.5,0.2c1.3,7.8,0.8,22.7-1.4,31.2
		c-15.7,11.1-12.2-20-12-31.7C200.3,31.2,196.3,31.2,192.3,31.2z"/>
	<path d="M88.9,66.5c-0.8,2.3-1.6,4.6-2.4,7c8.2,2.5,29.7,5.1,26.4-9.4c-2.2-9.6-12.5-6.5-17.3-12.2c-0.1-0.4-0.2-0.8-0.2-1.2
		c0.1-0.2,0.2-0.5,0.2-0.7c3.6-2.2,9.4-0.7,13.4,0c0.7-2.3,1.4-4.6,2.2-7c-3.8-1-7.9-1.8-13-1.7c-2.7,1-5.4,0.9-7.4,2.4
		c-1.9,1.3-2.6,3.3-3.1,6C85.3,61.1,99.9,60.6,105,65.6c-0.2,0.7-0.5,1.4-0.7,2.2C99.7,69.2,92.9,68.3,88.9,66.5z"/>
	<path d="M63.4,58.4c5.9,1.9,12.6,14.1,18.5,17c0.5,0,1,0,1.4,0c0.2,0.1,0.5,0.2,0.7,0.2c0-11.3,0-22.6,0-33.8c-2.5,0-5,0-7.4,0
		c-0.1,5.4-0.2,10.9-0.2,16.3C74.1,57.4,60.7,44,58.9,41.6c-1,0-2.1,0-3.1,0c0,11.2,0,22.4,0,33.6c2.6,0,5.1,0,7.7,0
		C63.4,69.6,63.4,64,63.4,58.4z"/>
	<path d="M50,61.5c0.1-6.5,0.2-13,0.2-19.4c-2.7-0.1-5.4-0.2-8.2-0.2c0,11.1,0,22.2,0,33.4c2.5,0.1,5,0.2,7.4,0.2
		C50.9,73.4,50,65.4,50,61.5z"/>
	<path d="M123.4,75.4c0.1-11.1,0.2-22.2,0.2-33.4c-2.6-0.1-5.3-0.2-7.9-0.2c-0.1,11.1-0.2,22.2-0.2,33.4
		C118.2,75.2,120.8,75.3,123.4,75.4z"/>
	<path d="M128,41.8c-0.1,11.2-0.2,22.4-0.2,33.6c11.1,0.2,20.4-0.5,24.7-7c1.7-2.4,2.9-7.2,2.4-10.8C153.1,43.8,142.9,41.6,128,41.8
		z"/>
	<path d="M180.3,42c-7.4,0-14.9,0-22.3,0c0,11.1,0,22.2,0,33.4c7.3,0.1,14.6,0.2,21.8,0.2c0.4-1.2,0.8-3.7,0.2-5.5
		c0.3-2.7-10.7-1.8-14.2-1.7c0-2,0-4,0-6c3.8,0,7.5,0,11.3,0c0-2.4,0-4.8,0-7.2c-3.7,0-7.4,0-11,0c-0.1-1.8-0.2-3.7-0.2-5.5
		c4.8-0.1,9.6-0.2,14.4-0.2C180.3,47,180.3,44.5,180.3,42z"/>
	<path d="M138.8,95.8c0.1-1.3,0.2-2.6,0.2-3.8c-39.3-0.2-78.6-0.3-117.8-0.5c-0.6,1.2-0.3,2.2-0.2,3.8
		C60.2,95.5,99.5,95.6,138.8,95.8z"/>
	<path d="M23.4,99.6c-0.6,0-1.3,0-1.9,0c-0.1,0-0.2,0-0.2,0c-0.1,4.2-0.2,8.5-0.2,12.7c1,0,1.9,0,2.9,0c0-1.7,0-3.4,0-5
		c1.5,0,3,0,4.6,0c0.1,1.6,0.2,3.2,0.2,4.8c1,0.1,1.9,0.2,2.9,0.2c0-4.2,0-8.3,0-12.5c-1,0-1.9,0-2.9,0c0,1.5,0,3,0,4.6
		c-1.6,0-3.2,0-4.8,0c0-1.5,0-3,0-4.6C23.7,99.8,23.5,99.7,23.4,99.6z"/>
	<path d="M55.8,104.7c-0.1-1.6-0.2-3.2-0.2-4.8c-1,0-1.9,0-2.9,0c-0.1,4-0.2,8-0.2,12c0.1,0.2,0.2,0.3,0.2,0.5c1,0,1.9,0,2.9,0
		c0-1.7,0-3.4,0-5c1.5,0,3,0,4.6,0c0.1,1.7,0.2,3.4,0.2,5c1,0,1.9,0,2.9,0c0-4.2,0-8.3,0-12.5c-1,0-1.9,0-2.9,0c0,1.5,0,3,0,4.6
		C58.8,104.5,57.3,104.6,55.8,104.7z"/>
	<path d="M76.9,112.6c0-4.2,0-8.5,0-12.7c-0.9,0-1.8,0-2.6,0c0,4.2,0,8.3,0,12.5C75.1,112.4,76,112.5,76.9,112.6z"/>
	<path d="M78.3,112.4c0.6,0,1.1,0,1.7,0c2,0.1,1.3-9.6,1.2-12.5c-0.9,0-1.8,0-2.6,0C78.5,104,78.4,108.2,78.3,112.4z"/>
	<path d="M122.2,110.7c0.5,0.6,1,1.1,1.4,1.7c2.2,0.1,4.3,0.2,6.5,0.2c0-4.2,0-8.5,0-12.7c-1,0.1-1.9,0.2-2.9,0.2c0,1.3,0,2.6,0,3.8
		C124.7,105.7,119.7,103.7,122.2,110.7z"/>
	<path d="M47.8,105.9c0-0.5,0-1,0-1.4c-0.5-0.4-0.8-0.5-1.9-0.5c-0.1-0.9-0.2-1.8-0.2-2.6c-0.9,0-1.8,0-2.6,0c0,0.6,0,1.3,0,1.9
		c-0.6,0.6-0.2,0.5-1.4,0.7c0,0.8,0,1.6,0,2.4c0.4,0,0.8,0,1.2,0c0,2.1,0.1,3.9,1,5.5c1,0.3,2.4,0.8,3.6,0.2c0.2,0,0.3,0,0.5,0
		c-0.1-0.6-0.2-1.1-0.2-1.7c-0.5-0.5-0.4-0.4-1.4-0.5c-0.4-0.8-0.5-1.9-0.5-3.4C46.4,106.4,47.1,106.1,47.8,105.9z"/>
	<path d="M33.7,105.6c-3.7,3.8,1.9,7.5,6.2,6c1.6-2.2,1.7-3.7,0.7-6.5c-1.4-0.7-2.1-1.4-4.3-1.4C35.1,104.4,34.3,104.4,33.7,105.6z"
		/>
	<path d="M66.1,104.9c-2.7,1.7-1.5,5.1,0,7c1.7,0.5,2.8,0.8,4.6,0.2c1.6-0.7,2.1-1.6,2.6-3.4c-0.1-3.4-1.8-4.3-4.6-5
		C67.8,104.1,67,104.5,66.1,104.9z"/>
	<path d="M103.5,110c1.7,2,2.7,2.8,6.2,2.4c1.9-1.9,2.6-3.1,1.9-6.5c-1.5-1.1-2.3-2-5-1.9C104.2,105.5,103.2,106.2,103.5,110z"/>
	<path d="M112.6,106.8c0,1.1,0,2.2,0,3.4c1.9,1.8,3.3,2.8,6.7,1.9c0.6-1,1.3-1.9,1.9-2.9c0-2.5-0.7-3.2-1.7-4.6
		c-1.2-0.2-2.4-0.5-3.6-0.7C114.3,104.9,113.5,105.1,112.6,106.8z"/>
	<path d="M138.8,224c-39.4-0.1-78.7-0.2-118.1-0.2c0,1.2,0,2.4,0,3.6c39.4,0.2,78.7,0.3,118.1,0.5
		C138.8,226.5,138.8,225.2,138.8,224z"/>
	<path d="M31.3,244.4c0-4.2,0-8.3,0-12.5c-1,0-1.9,0-2.9,0c0,1.5,0,3,0,4.6c-1.5,0.1-3,0.2-4.6,0.2c-0.1-1.5-0.2-3-0.2-4.6
		c-1-0.1-1.9-0.2-2.9-0.2c0,4.2,0,8.3,0,12.5c1,0,1.9,0,2.9,0c0-1.6,0-3.2,0-4.8c1.4-0.1,2.9-0.2,4.3-0.2c0.7,0.9,0.6,3.4,0.5,5
		C29.4,244.4,30.3,244.4,31.3,244.4z"/>
	<path d="M61.3,234c-2.1-1.6-5-2.2-8.9-2.2c-0.1,4-0.2,8-0.2,12c0.1,0.2,0.2,0.3,0.2,0.5c0.6,0.1,1.3,0.2,1.9,0.2
		c1-0.8,1.1-1.2,1-3.1c1.5-0.4,3.7-0.7,5.3-1.2C61.9,238.3,62.1,236.6,61.3,234z"/>
	<path d="M63.7,232.1c-0.4,0.6-0.8,1.1-1.2,1.7c0.5,1.2,0.6,1.5,2.2,1.7c0.4-0.3,0.8-0.6,1.2-1C65.8,232.7,65.4,232.3,63.7,232.1z"
		/>
	<path d="M42.8,233.6c0,0.7,0,1.4,0,2.2c-0.5,0.4-0.5,0.4-1.4,0.5c0,0.7,0,1.4,0,2.2c0.4,0.1,0.8,0.2,1.2,0.2
		c0.2,2.4-0.2,4.4,1.7,5.8c1,0,1.9,0,2.9,0c0.2,0,0.3,0,0.5,0c-0.1-0.6-0.2-1.1-0.2-1.7c-0.6-0.3-1.3-0.6-1.9-1c0-1,0-2.1,0-3.1
		c0.6,0,1.3,0,1.9,0c0.1-0.1,0.2-0.2,0.2-0.2c-0.1-0.5-0.2-1-0.2-1.4c0.1-0.2,0.2-0.5,0.2-0.7c-0.7,0-1.4,0-2.2,0c0-0.9,0-1.8,0-2.6
		C44.6,233.6,43.7,233.6,42.8,233.6z"/>
	<path d="M40.4,237.4c-1.4-0.9-2.3-1.5-4.8-1.4c-1.7,1.1-2.3,1.4-3.1,3.4C32.2,247.1,43.2,245,40.4,237.4z"/>
	<path d="M72.3,238.8c0.2-0.7,0.5-1.4,0.7-2.2c0-0.1,0-0.2,0-0.2c-0.9-0.2-1.8-0.3-2.6-0.5c-0.7,0.2-1.4,0.5-2.2,0.7
		c-1,1.3-2.2,2.8-1.4,5.3c0.4,0.6,0.8,1.3,1.2,1.9c1.6,0.5,2.8,0.7,4.8,0.5c0.1-0.1,0.2-0.2,0.2-0.2c0-0.1,0-0.2,0-0.2
		c-0.8-1.4-0.6-1.7-2.9-1.7c-0.5-0.8-1-1.5-0.5-2.6C70.4,238.5,70.9,238.7,72.3,238.8z"/>
	<path d="M74,242.2c-0.2,0.6-0.3,1.1-0.5,1.7c0,0.1,0,0.2,0,0.2c2.6,0.6,5.1,0.4,7.2-0.5c0.9-3.2-0.6-4.3-3.8-4.6
		c-0.1-0.1-0.2-0.2-0.2-0.2c0-0.1,0-0.2,0-0.2c1.2,0,2.4,0,3.6,0c0.2-0.7,0.3-1.4,0.5-2.2c-1.3-0.2-2.6-0.3-3.8-0.5
		c-1.6,0.8-2.3,0.9-3.1,2.4c0.2,0.8,0.5,1.6,0.7,2.4c1.4,0.4,2.7,0.8,4.1,1.2c0,0.1,0,0.2,0,0.2C77,242.2,75.5,242.2,74,242.2z"/>
	<path d="M62.7,243.6c0.6,1,1.1,1.1,2.9,1c0-2.8,0-5.6,0-8.4c-1,0.1-1.9,0.2-2.9,0.2C62.7,238.8,62.7,241.2,62.7,243.6z"/>
	<path d="M269.1,284.4c-39.4-0.2-78.7-0.3-118.1-0.5c-0.1,1.1-0.2,2.2-0.2,3.4c3.5,1.9,30,0.5,36.2,0.5c27.3,0.2,54.6,0.3,81.8,0.5
		C269,287,269,285.7,269.1,284.4z"/>
	<path d="M153.9,298.6c2.2,2.1,4.3,4.2,6.5,6.2c0.1,0,0.2,0,0.2,0c0.2,0,0.5,0,0.7,0c0.1-3.9,0.2-7.8,0.2-11.8
		c-0.7-0.6-1.3-0.7-2.4-1c-0.2,0.1-0.3,0.2-0.5,0.2c-0.1,2-0.2,4-0.2,6c-2.2-2.1-4.3-4.2-6.5-6.2c-0.3,0-0.6,0-1,0
		c0,4.2,0,8.5,0,12.7c0.9,0,1.8,0,2.6,0c0-1.9,0-3.8,0-5.8C153.8,298.9,153.8,298.8,153.9,298.6z"/>
	<path d="M166.2,296.2c-0.5,0.2-1,0.3-1.4,0.5c-1.1,1.4-2.9,3.4-1.4,6c0.8,1.9,3.3,2.8,6,1.9c0.2,0,0.5,0,0.7,0
		c-0.1-0.7-0.2-1.4-0.2-2.2c-1.1-0.1-2.2-0.2-3.4-0.2c-0.2-0.2-0.5-0.3-0.7-0.5c1.6-0.1,3.2-0.2,4.8-0.2c0.5-1.8-0.8-3.6-1.7-4.8
		C167.9,296.5,167,296.4,166.2,296.2z"/>
	<path d="M189.7,298.8c0.2-0.7,0.3-1.4,0.5-2.2c-1.3-0.2-2.6-0.3-3.8-0.5c-1.6,0.9-2.1,1-3.1,2.4c0.2,0.7,0.3,1.4,0.5,2.2
		c1.4,0.6,2.9,1.1,4.3,1.7c0,0.1,0,0.2,0,0.2c-1.5,0-3,0-4.6,0c-0.2,0.5-0.3,1-0.5,1.4c0.1,0.2,0.2,0.3,0.2,0.5
		c2.6,0.5,6.1,0.9,7.2-1.4c0.4-0.8,0.2-1.6-0.2-2.2c-0.7-1.2-2.3-1.6-4.1-1.7C186.7,298.2,188.3,298.6,189.7,298.8z"/>
	<path d="M179.4,299.8c-0.1,0-0.2,0-0.2,0c-0.5-1-1-2.1-1.4-3.1c-0.4-0.1-0.8-0.2-1.2-0.2c-0.4,1-0.8,1.9-1.2,2.9
		c-0.2,0.2-0.5,0.3-0.7,0.5c-0.5-1.1-1-2.2-1.4-3.4c-1,0-1.9,0-2.9,0c1.1,2.7,2.2,5.4,3.4,8.2c0.4,0.1,0.8,0.2,1.2,0.2
		c0.6-1.2,1.1-2.4,1.7-3.6c0.1,0,0.2,0,0.2,0c0.6,1.2,1.3,2.4,1.9,3.6c0.2,0.1,0.3,0.2,0.5,0.2c2-1.5,3.1-6.2,4.1-8.6
		C180.2,296.3,179.9,297.6,179.4,299.8z"/>
	<path d="M138.8,311.3c0-0.9,0-1.8,0-2.6c-0.1-0.2-0.2-0.5-0.2-0.7c-39.4-0.1-78.7-0.2-118.1-0.2c0,2.1,0.1,1.9,0,3.6
		c39.4,0.2,78.7,0.3,118.1,0.5C138.6,311.6,138.7,311.5,138.8,311.3z"/>
	<path d="M28.9,318.5c0-1.3-0.1-2-0.5-2.6c-2.6,0-5.1,0-7.7,0c-0.1,4.2-0.2,8.3-0.2,12.5c0.1,0.1,0.2,0.2,0.2,0.2c0.9,0,1.8,0,2.6,0
		c0.1-1.4,0.2-2.9,0.2-4.3c1.4,0,2.9,0,4.3,0c0-0.9,0-1.8,0-2.6c-1.4,0-2.7,0-4.1,0c-0.1-1-0.2-1.9-0.2-2.9c1.7,0.1,3.4,0.2,5,0.2
		C28.7,318.8,28.8,318.7,28.9,318.5z"/>
	<path d="M51.2,322.6c0-0.4,0-0.8,0-1.2c0.1-0.4,0.2-0.8,0.2-1.2c-0.6,0-1.3,0-1.9,0c-0.1-0.8-0.2-1.6-0.2-2.4
		c-0.9-0.1-1.8-0.2-2.6-0.2c0,0.6,0,1.3,0,1.9c-0.5,0.6-0.7,0.6-1.4,1c0,0.7,0,1.4,0,2.2c0.4,0,0.8,0,1.2,0c0.2,3.5-0.4,6.3,4.8,6
		c0.1-0.7,0.2-1.4,0.2-2.2c-0.6-0.1-1.1-0.2-1.7-0.2c-0.4-0.9-0.5-2.1-0.5-3.6C49.9,322.6,50.6,322.6,51.2,322.6z"/>
	<path d="M36.6,325.2c0.1-2.7-0.6-4-2.2-5c-2.1-0.4-3.2,0.2-4.6,1c-0.7,1.8-1.1,3.3-0.5,5.5c1.9,1.6,3.1,2,6.5,1.7
		c0-0.8,0-1.6,0-2.4c-1.4,0.1-2.7,0.5-3.6-0.2c-0.2-0.1-0.3-0.2-0.5-0.2c1.5-0.1,3-0.2,4.6-0.2C36.4,325.2,36.5,325.2,36.6,325.2z"
		/>
	<path d="M37,325.5c0,0.6,0,1.1,0,1.7c0.3,0.4,0.6,0.8,1,1.2c2.7,0.5,4,0.2,6.7,0.2c0.1-3.3,0.4-6.7-1.4-8.2c-1.7,0-3.4,0-5,0
		c0,0.7,0,1.4,0,2.2c1.2,0,2.4,0,3.6,0C40.9,324,38.2,324,37,325.5z"/>
	<path d="M60.3,328.6c0-2.8,0-5.6,0-8.4c-0.9,0-1.8,0-2.6,0c0,1.9,0,3.8,0,5.8c-1.4,0-1.4,0.1-2.4-0.2c-0.1-1.8-0.2-3.7-0.2-5.5
		c-0.9,0-1.8,0-2.6,0c0,2.7,0,5.4,0.5,7.4C54.7,328.8,57.5,328.7,60.3,328.6z"/>
	<path d="M64.6,328.6c0-1.6,0-3.2,0-4.8c0.6-0.6,1.3-0.8,2.4-1c0-0.9,0-1.8,0-2.6c-2.5,0.3-2.3,0-5.3,0c0.1,2.6,0.2,5.3,0.2,7.9
		c-0.1,0.2-0.2,0.3-0.2,0.5C62.7,328.6,63.7,328.6,64.6,328.6z"/>
	<path d="M75.2,325.2c0-2.1-0.4-2.8-1-4.1c-1.2-0.7-3-1.4-4.6-0.5c-2.8,1.2-2.5,4.6-1.2,7c2.1,0.8,3.4,1.1,6.2,0.7
		c-0.1-0.7-0.2-1.4-0.2-2.2c-1.1-0.2-2.7,0.1-4.1-0.2C71,324.9,73.5,325.1,75.2,325.2z"/>
	<path d="M76.2,326.4c-0.2,0.5-0.3,1-0.5,1.4c0.1,0.2,0.2,0.3,0.2,0.5c3.1,0.8,8.4,1.1,7.2-3.8c-1.4-0.5-2.9-1-4.3-1.4
		c-0.1-0.1-0.2-0.2-0.2-0.2c0-0.1,0-0.2,0-0.2c1.3,0,2.6,0,3.8,0c0.2-0.6,0.3-1.1,0.5-1.7c-0.3-0.2-0.6-0.5-1-0.7
		c-1.2,0-2.4,0-3.6,0c-0.3,0.1-0.6,0.2-1,0.2c-0.5,0.6-1,1.3-1.4,1.9c0.1,0.5,0.2,1,0.2,1.4c0.8,1.6,2.6,1.8,4.6,2.2
		c0,0.1,0,0.2,0,0.2C79.4,326.9,77.9,326.1,76.2,326.4z"/>
	<path d="M150.6,601c0.1,0.1,0.2,0.2,0.2,0.2c39.3,0.1,78.6,0.2,117.8,0.2c0-1.3,0-2.6,0-3.8c-39.3-0.2-78.6-0.3-117.8-0.5
		C150.7,598.4,150.6,599.7,150.6,601z"/>
	<path d="M150.8,605.6c0,4.2,0,8.5,0,12.7c1,0,1.9,0,2.9,0c0-4.2,0-8.3,0-12.5C152.7,605.7,151.8,605.6,150.8,605.6z"/>
	<path d="M176.7,608.7c0-1,0-1.9,0-2.9c-2.7,0-5.4,0-8.2,0c0,4.2,0,8.3,0,12.5c2.7,0.1,5.4,0.2,8.2,0.2c0-1,0-1.9,0-2.9
		c-1.8,0-3.5,0-5.3,0c-0.1-0.5-0.2-1-0.2-1.4c1-1.1,2-0.8,4.3-0.7c0.1-0.8,0.2-1.6,0.2-2.4c0-0.1,0-0.2,0-0.2
		c-1-0.1-1.9-0.2-2.9-0.2c-0.5,0-1,0-1.4,0c0-0.6,0-1.3,0-1.9C173.2,608.7,175,608.7,176.7,608.7z"/>
	<path d="M216.1,606c-1-0.1-2.1-0.2-3.1-0.2c0,4.2,0,8.5,0,12.7c1,0,2.1,0,3.1,0c0-3.4,0-6.9,0-10.3
		C216.1,607.5,216.1,606.8,216.1,606z"/>
	<path d="M163.5,618.3c0.1-2.3,0.3-5.4-0.5-7c-0.4-0.4-0.8-0.8-1.2-1.2c-1.7-0.7-4.1-0.3-6.2-0.2c-0.1,2.5-0.2,5-0.2,7.4
		c0.1,0.3,0.2,0.6,0.2,1c0.9,0,1.8,0,2.6,0c0-1.8,0-3.7,0-5.5c0.6,0,1.3,0,1.9,0c1,1,0.8,3.7,0.7,5.5
		C161.8,618.3,162.6,618.3,163.5,618.3z"/>
	<path d="M181.8,613.2c-0.2,0.1-0.3,0.2-0.5,0.2c-0.5-1.2-1-2.4-1.4-3.6c-1,0-1.9,0-2.9,0c1.2,2.9,2.4,5.8,3.6,8.6
		c0.4,0,0.8,0,1.2,0c1.4-2.8,2.7-5.6,4.1-8.4c-0.8-0.1-1.6-0.2-2.4-0.2C182.9,611,182.3,612.1,181.8,613.2z"/>
	<path d="M192.3,610.8c-1.1-0.6-1.9-1-3.8-1c-1.1,0.7-1.8,1.3-2.6,2.2c-0.5,2.2-0.2,3.3,0.5,5c1.3,1,3.9,2.3,6,1c0.2,0,0.3,0,0.5,0
		c-0.2-0.8-0.3-1.6-0.5-2.4c-0.9,0.3-2.1,0.7-3.1,0.2c-0.2-0.2-0.5-0.3-0.7-0.5c1.5-0.1,3-0.2,4.6-0.2
		C193.5,613.4,192.8,612.2,192.3,610.8z"/>
	<path d="M208.6,610.4c-0.9-0.1-1.8-0.2-2.6-0.2c-0.5,1.3-1,2.6-1.4,3.8c-0.2,0.1-0.3,0.2-0.5,0.2c-0.5-1.4-1-2.7-1.4-4.1
		c-3.9-0.1-4.7-0.2-8.4-0.2c0,2.9,0,5.8,0,8.6c0.9,0,1.8,0,2.6,0c0-1.8,0-3.5,0-5.3c0.9-0.2,1.8-0.5,2.6-0.7
		c-0.1-0.7-0.2-1.4-0.2-2.2c0.1,0,0.2,0,0.2,0c2.1,2.3,3.5,7.5,2.2,10.5H147v1h56.6c0.2,0,0.3,0,0.5,0c0,0,0,0,0,0H265v-1h-60.5
		C205.9,617.3,207.3,613.9,208.6,610.4z"/>
	<path d="M217.8,616.1c-0.2,0.6-0.3,1.1-0.5,1.7c0.1,0.2,0.2,0.3,0.2,0.5c2.5,0.4,6.1,1.1,7.2-1.4c0.1-0.6,0.2-1.3,0.2-1.9
		c-1.1-1.1-2.2-1.8-4.3-1.9c-0.1-0.2-0.2-0.3-0.2-0.5c1.2,0,2.4,0,3.6,0c0.2-0.5,0.3-1,0.5-1.4c0-0.2,0-0.5,0-0.7
		c-1.3-0.2-2.6-0.3-3.8-0.5c-1.2,0.6-2.1,0.7-2.9,1.7c-0.7,3.5,1.8,3.7,4.6,4.3c0,0.1,0,0.2,0,0.2
		C220.8,616.1,219.3,616.1,217.8,616.1z"/>
	<path d="M225.9,615.9c-0.2,0.8-0.3,1.6-0.5,2.4c3,0.4,5.9,0.8,7.4-1.2c0.7-3.4-1.9-3.7-4.6-4.3c0-0.1,0-0.2,0-0.2
		c1.3,0,2.6,0,3.8,0c0.2-0.7,0.3-1.4,0.5-2.2c-1.4-0.2-2.7-0.3-4.1-0.5c-1.5,0.8-2.1,0.9-2.9,2.4c0,0.5,0,1,0,1.4
		c1.2,1.2,3.2,1.3,4.6,2.4c0,0.1,0,0.2,0,0.2C228.8,616.2,227.4,616,225.9,615.9z"/>
	<path d="M233.8,610.6c1.7,8.2-1.6,7,7.4,8.2c1.3-1.2,0.8-6,0.7-8.4c-1-0.1-1.9-0.2-2.9-0.2c0,1.9,0,3.8,0,5.8
		c-0.6,0.1-1.1,0.2-1.7,0.2c-0.1,0-0.2,0-0.2,0c-0.6-1.3-0.5-4-0.5-6C235.4,610.1,234.5,610.2,233.8,610.6z"/>
	<path d="M250.9,615.2c-0.8-2.5-0.7-5.1-4.8-5c-0.9,0.6-1.8,1.1-2.6,1.7c-0.2,1.4-0.3,2.9-0.5,4.3c1.8,2.1,3.1,2.9,7,2.4
		c0-0.6,0-1.3,0-1.9c-1.3-0.6-3.4,0.3-4.1-1.4c1.4,0,2.7,0,4.1,0C250.2,615.2,250.6,615.2,250.9,615.2z"/>
	<path d="M528.8,636c-82.6,0-165.3,0-247.9,0c0,1.4,0,2.7,0,4.1c2.3,0,4.6,0,7,0c-0.1,3.3-0.2,6.6-0.2,9.8c0.1,0.6,0.2,1.1,0.2,1.7
		c25.6,0.1,51.2,0.2,76.8,0.2c0-3.8,0-7.7,0-11.5c53.6-0.1,107.2-0.2,160.8-0.2c0,25,0,50.1,0,75.1c0.9-0.1,1.8-0.2,2.6-0.2
		c1.5-1.7,0.2-13.5,0.5-16.1C528.6,678,528.7,657,528.8,636z"/>
	<path d="M156.6,640.4c0.3,0.3,0.6,0.6,1,1c0.2,0,0.5,0,0.7,0c0.1-0.2,0.2-0.5,0.2-0.7c-0.3,0-0.6,0-1,0c0.7-0.7,1.3-2.4,0-3.1
		C157.5,638.9,157.8,639.7,156.6,640.4z"/>
	<path d="M154.9,640.6c0.2,0.1,0.5,0.2,0.7,0.2c0.2-0.2,0.3-0.3,0.5-0.5c-0.3-0.2-0.6-0.3-1-0.5C155,640.1,155,640.4,154.9,640.6z"
		/>
	<path d="M152.7,648.5c0.2,0.2,0.3,0.3,0.5,0.5c0.1,0,0.2,0,0.2,0c0-0.3,0-0.6,0-1c-0.2,0-0.5,0-0.7,0
		C152.7,648.2,152.7,648.4,152.7,648.5z"/>
	<path d="M156.1,649.7c0.1,0,0.2,0,0.2,0c0.2-0.2,0.3-0.5,0.5-0.7c-0.2,0-0.5,0-0.7,0C156.1,649.2,156.1,649.5,156.1,649.7z"/>
	<path d="M153.2,651.4c0.2,0,0.5,0,0.7,0c0-0.6,0-1.1,0-1.7c-0.2,0-0.5,0-0.7,0C153.2,650.3,153.2,650.8,153.2,651.4z"/>
	<path d="M155.8,650.2c-0.2,0.4-0.3,0.8-0.5,1.2c0.2,0.1,0.3,0.2,0.5,0.2c0.3-0.3,0.6-0.6,1-1C156.5,650.5,156.2,650.4,155.8,650.2z
		"/>
	<path d="M158,651.4c0.2,0,0.5,0,0.7,0c0-0.2,0-0.5,0-0.7c-0.5-0.1-1-0.2-1.4-0.2C157.6,651.2,157.4,650.9,158,651.4z"/>
	<path d="M155.6,653.6c0.3,0.2,0.6,0.5,1,0.7c0.5,0,1,0,1.4,0c-0.4-0.7-1.9-1.6-2.6-1.9C155.4,652.8,155.5,653.2,155.6,653.6z"/>
	<path d="M158.7,660c-0.8,0-1.6,0-2.4,0c-0.2,0.2-0.5,0.3-0.7,0.5c0.5,0.3,1.3,0.4,1.7,0.7c-0.2,0.4-0.3,0.8-0.5,1.2
		c0.6,0.4,1.3,0.8,1.9,1.2c-0.3-1-0.3-0.9-1-1.4c0.3-0.6,0.6-1.3,1-1.9C158.7,660.2,158.7,660.1,158.7,660z"/>
	<path d="M151.3,663.9c0.7-0.6,1.4-1.3,2.2-1.9c0,1.1,0,2.2,0,3.4c1-0.7,0.7-3.5,0.7-5c-0.2,0-0.5,0-0.7,0c-0.7,1.1-1.4,2.2-2.2,3.4
		C151.3,663.7,151.3,663.8,151.3,663.9z"/>
	<path d="M152.5,665.1c0.1,0,0.2,0,0.2,0c0.1-0.2,0.2-0.3,0.2-0.5c-0.6-0.2-1.3-0.3-1.9-0.5C151.5,665,151.4,664.9,152.5,665.1z"/>
	<path d="M158,665.1c1-0.4,0.6,0,1-1c-0.2,0-0.5,0-0.7,0C158.2,664.4,158.1,664.8,158,665.1z"/>
	<path d="M158,666c-0.2-0.9,0-0.5-0.5-1c-0.6,0.2-1.1,0.3-1.7,0.5c0,0.2,0,0.5,0,0.7c0.6-0.1,1.1-0.2,1.7-0.2
		C157.7,666,157.8,666,158,666z"/>
	<path d="M156.8,673.5c-0.2,0-0.5,0-0.7,0c0,0.7,0,1.4,0,2.2c0.5-0.2,1-0.5,1.4-0.7C157.1,674.2,157.1,674.5,156.8,673.5z"/>
	<path d="M151.3,674c-0.1,1.7,2.1,0.5,2.6,2.6c0.9-0.5,0.4,0.1,0.7-1C153.7,674.4,152.8,674.3,151.3,674z"/>
	<path d="M157.8,674.4c0.4,1,0.2,0.8,1.4,1C158.7,674.6,158.8,674.7,157.8,674.4z"/>
	<path d="M150.8,676.6c0.2,0,0.3,0,0.5,0c-0.3-0.7,0-0.3-0.5-0.7C150.8,676.1,150.8,676.4,150.8,676.6z"/>
	<path d="M159,675.9c-0.2,0.3-0.3,0.6-0.5,1c0.3,0,0.6,0,1,0C159.2,676,159.5,676.4,159,675.9z"/>
	<path d="M155.8,676.1c0,0.4,0,0.8,0,1.2c0.1,0.2,0.2,0.3,0.2,0.5c0.3,0.2,0.6,0.3,1,0.5C156.8,677.3,156.6,676.6,155.8,676.1z"/>
	<path d="M151.5,677.3c0,0.2,0,0.5,0,0.7c0.5,0.2,1,0.3,1.4,0.5c0.5-0.3,1-0.6,1.4-1c0.1-0.2,0.2-0.5,0.2-0.7c-0.2,0-0.5,0-0.7,0
		C153,677.9,152.9,677.6,151.5,677.3z"/>
	<path d="M157.8,678.3c0.2-0.1,0.5-0.2,0.7-0.2c0-0.1,0-0.2,0-0.2c-0.2,0-0.5,0-0.7,0C157.8,678,157.8,678.1,157.8,678.3z"/>
	<path d="M158.7,686.4c0.4-0.5,0.4-0.6,0.5-1.7c-0.2-0.2-0.5-0.3-0.7-0.5c-0.6-0.1-1.1-0.2-1.7-0.2c0.8,1.2,1.4,0.4,1.7,2.4
		C158.6,686.4,158.6,686.4,158.7,686.4z"/>
	<path d="M155.8,686c0.2,0.1,0.3,0.2,0.5,0.2c0.2-0.4,0.3-0.8,0.5-1.2c-0.3,0-0.6,0-1,0C155.8,685.3,155.8,685.6,155.8,686z"/>
	<path d="M151.3,685.7c-0.1,0.4-0.2,0.8-0.2,1.2c0.2,0,0.3,0,0.5,0c0.2-0.4,0.3-0.8,0.5-1.2C151.8,685.7,151.5,685.7,151.3,685.7z"
		/>
	<path d="M153.2,686.4c0.2,0.5,0.5,1,0.7,1.4c0.2,0,0.5,0,0.7,0C154.2,686.9,154.3,686.8,153.2,686.4z"/>
	<path d="M156.6,686.4c0,0.4,0,0.8,0,1.2c0.5-0.2,1-0.3,1.4-0.5C157.6,686.3,157.7,686.7,156.6,686.4z"/>
	<path d="M158.2,686.9c0.3,1.2,0.4,1.5,0.2,2.9c1.2-0.4,1.1-0.8,0.7-1.9C158.9,687.6,158.6,687.2,158.2,686.9z"/>
	<path d="M155.6,688.1c0.2,0,0.5,0,0.7,0c-0.1-0.2-0.2-0.5-0.2-0.7c-0.2,0.1-0.3,0.2-0.5,0.2C155.6,687.8,155.6,688,155.6,688.1z"/>
	<path d="M156.6,689.6c0-0.1,0-0.2,0-0.2c-0.5-0.6-0.1-0.4-1-0.7C156,689.6,155.6,689.2,156.6,689.6z"/>
	<path d="M153.4,689.3c-0.1,0.3-0.2,0.6-0.2,1c0.1,0,0.2,0,0.2,0c0.2-0.3,0.3-0.6,0.5-1C153.8,689.3,153.6,689.3,153.4,689.3z"/>
	<path d="M157.3,689.8c0.1,0.2,0.2,0.5,0.2,0.7c0.3-0.2,0.6-0.3,1-0.5C158.1,690,157.7,689.9,157.3,689.8z"/>
	<path d="M153.2,696.8c0,0.3,0,0.6,0,1c0.2,0.2,0.3,0.3,0.5,0.5c0.3-0.7,0.6-1.4,1-2.2c-0.2,0-0.5,0-0.7,0
		C153.7,696.3,153.4,696.5,153.2,696.8z"/>
	<path d="M156.1,697c0.2,0,0.3,0,0.5,0c0.2-0.3,0.3-0.6,0.5-1c-0.4,0-0.8,0-1.2,0C155.9,696.4,156,696.7,156.1,697z"/>
	<path d="M152.5,696.3c-0.2,0-0.5,0-0.7,0c0,0.2,0,0.5,0,0.7c0.2-0.1,0.5-0.2,0.7-0.2C152.5,696.6,152.5,696.4,152.5,696.3z"/>
	<path d="M157.8,696.3c0,0.2,0,0.5,0,0.7c0.2,0,0.5,0,0.7,0C158.2,696.8,158,696.5,157.8,696.3z"/>
	<path d="M152.5,700.6c1-0.4,1.3-0.6,0.5-1.4C152.8,699.6,152.6,700.1,152.5,700.6z"/>
	<path d="M157.3,700.6c-0.2,0-0.5,0-0.7,0c-0.2,0.6-0.5,1.1-0.7,1.7c0.7,0.1,1.4,0.2,2.2,0.2C157.5,701.3,157.4,701.9,157.3,700.6z"
		/>
	<path d="M157.3,708.8c0-0.2,0-0.5,0-0.7c-0.3,0-0.6,0-1,0C156.8,708.8,156.4,708.4,157.3,708.8z"/>
	<path d="M152.2,708.3c0,0.2,0,0.5,0,0.7c0.2,0,0.5,0,0.7,0C152.5,708.2,153.1,708.7,152.2,708.3z"/>
	<path d="M157.5,708.5c0.1,0.3,0.2,0.6,0.2,1c0.1,0,0.2,0,0.2,0c0.2-0.2,0.3-0.3,0.5-0.5C158.2,708.8,157.8,708.7,157.5,708.5z"/>
	<path d="M155.4,708.8c0,0.2,0,0.5,0,0.7c0.2,0,0.5,0,0.7,0C155.6,708.6,156.2,709.2,155.4,708.8z"/>
	<path d="M158.2,711.6c0,0.2,0,0.5,0,0.7c0.2,0,0.3,0,0.5,0C158.4,711.6,158.7,712.1,158.2,711.6z"/>
	<path d="M155.1,713.3c0.2,0,0.5,0,0.7,0c0-0.3,0-0.6,0-1c-0.2,0-0.5,0-0.7,0C155.1,712.7,155.1,713,155.1,713.3z"/>
	<rect x="280" y="4.3" width="248.1" height="350.7"/>
	<rect x="278.9" y="357.9" width="249.1" height="274.1"/>
	<rect x="93.3" y="17" width="102" height="10"/>
	<polygon points="105.2,200.9 138.5,200.9 138.5,186.5 123.8,186.5 123.8,176.9 134.6,176.9 134.6,163.5 138.5,163.5 138.5,151.2 
		18.2,151.2 18.2,162.5 18.2,163.5 18.2,174.5 18.2,176.9 18.2,186.5 18.2,188.9 18.2,198.5 18.2,200.9 18.2,212.9 105.2,212.9 	"/>
	<polygon points="96.4,139.2 108.2,139.2 108.2,125 18.2,125 18.2,136.3 18.2,139.2 18.2,150.5 96.4,150.5 	"/>
	<polygon points="72.1,416.9 119.8,416.9 119.8,404.9 136.1,404.9 136.1,390.5 121.8,390.5 121.8,379.5 130.7,379.5 130.7,367.2 
		18.2,367.2 18.2,378.5 18.2,379.5 18.2,390.5 18.2,392.9 18.2,402.5 18.2,404.9 18.2,414.5 18.2,416.9 18.2,428.9 72.1,428.9 	"/>
	<polygon points="18.2,352.3 18.2,355.2 18.2,366.5 102.4,366.5 102.4,355.2 140.4,355.2 140.4,341 18.2,341 	"/>
	<polygon points="106.1,538.2 128.5,538.2 128.5,523.8 126.1,523.8 126.1,511.8 125.8,511.8 125.8,502.2 136.1,502.2 136.1,487.8 
		127.7,487.8 127.7,475.8 125.1,475.8 125.1,464.5 18.2,464.5 18.2,475.8 18.2,476.8 18.2,487.8 18.2,490.2 18.2,499.8 18.2,502.2 
		18.2,511.8 18.2,514.2 18.2,523.8 18.2,526.2 18.2,535.8 18.2,538.2 18.2,550.2 106.1,550.2 	"/>
	<polygon points="102.4,449.7 95.8,449.7 95.8,438.3 18.2,438.3 18.2,449.7 18.2,452.5 18.2,463.8 102.4,463.8 	"/>
	<polygon points="137.3,692.2 121.8,692.2 121.8,682.6 133.3,682.6 133.3,668.2 116.7,668.2 116.7,656.8 18.2,656.8 18.2,668.2 
		18.2,669.2 18.2,680.2 18.2,682.6 18.2,692.2 18.2,694.6 18.2,704.2 18.2,706.6 18.2,718.6 139.5,718.6 139.5,704.2 137.3,704.2 	
		"/>
	<rect x="18.2" y="722.2" width="102" height="14.4"/>
	<polygon points="82.7,644.8 131.6,644.8 131.6,630.7 18.2,630.7 18.2,642 18.2,644.8 18.2,656.2 82.7,656.2 	"/>
	<polygon points="89.1,610.6 121,610.6 121,596.2 101,596.2 101,584.8 18.2,584.8 18.2,596.2 18.2,597.2 18.2,608.2 18.2,610.6 
		18.2,622.6 89.1,622.6 	"/>
	<polygon points="77.8,572.8 101.8,572.8 101.8,558.7 18.2,558.7 18.2,570 18.2,572.8 18.2,584.2 77.8,584.2 	"/>
	<polygon points="131.6,283.2 120.5,283.2 120.5,271.8 18.2,271.8 18.2,283.2 18.2,284.2 18.2,297.6 131.6,297.6 	"/>
	<rect x="18.2" y="257" width="117.6" height="14.2"/>
	<path d="M194.7,11.8H95.3v1h1.6c0.2,0.1,0,0.1,0.2,0h15c-0.1,0.1-0.1,0.3-0.2,0.4c0.2,0,0.5,0,0.7,0c-0.1-0.1-0.3-0.3-0.4-0.4h82.4
		V11.8z"/>
	<rect x="95.3" y="9.5" width="99.3" height="1"/>
	<rect x="95.3" y="6.5" width="99.3" height="1"/>
	<rect x="95.3" y="3.5" width="99.3" height="1"/>
	<rect x="95.3" y="-0.5" width="99.3" height="1"/>
	<polygon points="148.8,524.5 148.8,535.8 148.8,536.8 148.8,547.8 148.8,550.2 148.8,559.8 148.8,562.2 148.8,571.8 148.8,574.2 
		148.8,586.2 257.1,586.2 257.1,571.8 246.6,571.8 246.6,562.2 259.5,562.2 259.5,550.2 267.3,550.2 267.3,535.8 247.4,535.8 
		247.4,524.5 	"/>
	<polygon points="254.6,498.3 148.8,498.3 148.8,509.7 148.8,512.5 148.8,523.8 269.2,523.8 269.2,509.7 254.6,509.7 	"/>
	<polygon points="243.9,478.9 262.8,478.9 262.8,464.5 253.5,464.5 253.5,452.5 242.7,452.5 242.7,441.5 248.6,441.5 248.6,429.2 
		245.6,429.2 245.6,416.3 224,416.3 224,403 148.2,403 148.2,416.3 148.2,417.2 148.2,429.2 148.2,430.5 148.2,440.5 148.2,441.5 
		148.2,452.5 148.2,454.9 148.2,464.5 148.2,466.9 148.2,476.5 148.2,478.9 148.2,490.9 243.9,490.9 	"/>
	<polygon points="148.2,318 148.2,331.3 148.2,332.2 148.2,344.2 148.2,345.5 148.2,355.5 148.2,356.5 148.2,367.5 148.2,369.9 
		148.2,379.5 148.2,381.9 148.2,393.9 249.6,393.9 249.6,379.5 248.3,379.5 248.3,367.5 242.7,367.5 242.7,356.5 257,356.5 
		257,344.2 236,344.2 236,331.3 224,331.3 224,318 	"/>
	<polygon points="242.4,139.3 242.4,128 147.9,128 147.9,139.3 147.9,140.3 147.9,151.3 147.9,153.7 147.9,163.3 147.9,165.7 
		147.9,177.7 234.6,177.7 234.6,165.7 259,165.7 259,151.3 252.4,151.3 252.4,139.3 	"/>
	<polygon points="243.8,258.7 229.3,258.7 229.3,249.1 254.1,249.1 254.1,234.7 246,234.7 246,223.7 255.7,223.7 255.7,211.3 
		147.9,211.3 147.9,222.7 147.9,223.7 147.9,234.7 147.9,237.1 147.9,246.7 147.9,249.1 147.9,258.7 147.9,261.1 147.9,273.1 
		243.8,273.1 	"/>
	<polygon points="147.9,185.2 147.9,196.5 147.9,199.3 147.9,210.7 237.9,210.7 237.9,196.5 210.9,196.5 210.9,185.2 	"/>
	<polygon points="147.9,101.5 147.9,104.3 147.9,113.2 147.9,115.7 147.9,127.3 204.8,127.3 204.8,115.7 241,115.7 241,101.5 
		239.5,101.5 239.5,90.2 147.9,90.2 	"/>
	<path d="M138,114.8H86.6c1.3-3.5,2.7-6.9,4-10.4c0.1,0,0.2,0,0.2,0c1.1,2.6,2.2,5.3,3.4,7.9c0.4,0.1,0.8,0.2,1.2,0.2
		c0.6-1.1,1.1-2.2,1.7-3.4c0-0.2,0-0.3,0-0.5c0.7,1.3,1.4,2.6,2.2,3.8c0.3,0,0.6,0,1,0c1.2-2.8,2.4-5.6,3.6-8.4
		c-0.7-0.1-1.4-0.2-2.2-0.2c-0.7,0.9-1.2,1.7-1.4,3.1c-0.2,0.2-0.5,0.3-0.7,0.5c-0.5-1.1-1-2.2-1.4-3.4c-0.3,0-0.6,0-1,0
		c-0.5,1-1,2.1-1.4,3.1c-0.1,0-0.2,0-0.2,0c-0.8-0.7-1.2-1.8-1.4-3.1c-1.9,0-3.8,0-5.8,0c-0.5,1.2-1,2.4-1.4,3.6
		c-0.2,0.1-0.3,0.2-0.5,0.2c-0.5-1.2-1-2.4-1.4-3.6c-0.7-0.4-1.6-0.5-2.9-0.5c-0.7,3.8,3.4,6.2,1.8,10.9H20v1h118V114.8z"/>
	<rect x="20" y="246.2" width="118" height="1"/>
	<rect x="20" y="330.8" width="118" height="1"/>
	<rect x="149.7" y="306.8" width="118" height="1"/>
	<rect x="273.5" y="91.7" width="1" height="623.3"/>
	<polygon points="214.6,694 214.6,691.7 214.6,682.3 214.6,680 214.6,669.7 214.6,668.3 214.6,658 214.6,655.7 214.6,646.3 
		214.6,644 214.6,632.3 162.8,632.3 162.8,644 162.8,646.3 162.8,655.7 162.8,658 162.8,668.3 162.8,669.7 162.8,680 162.8,682.3 
		162.8,691.7 162.8,694 162.8,703.7 162.8,705.7 162.8,717.7 227.2,717.7 227.2,703.7 214.6,703.7 	"/>
	<polygon points="285.2,658.5 285.2,667.5 284.8,667.5 284.8,676.8 284.8,678.5 284.8,687.8 379.7,687.8 379.7,678.5 385.4,678.5 
		385.4,667.5 381.7,667.5 381.7,658.5 	"/>
	<polygon points="407.2,689.8 284.8,689.8 284.8,698.6 284.8,700.8 284.8,710.8 409,710.8 409,698.6 407.2,698.6 	"/>
	<path d="M468.7,674.8h28.9v-11H493v-7.7v-2.3v-8.7h-56.8v4.6c-0.5-0.3-1-0.5-1.4-0.8c0,1,0,1.9,0,2.9c0.5-0.2,1-0.4,1.4-0.7v2.6
		v2.3v2.6c-0.5-0.2-1-0.4-1.4-0.6c-0.1,0.8-0.2,1.6-0.2,2.4c0.6,0.1,1.2,0,1.7-0.3v3.6v1v2.8c-0.5-0.2-1-0.4-1.4-0.6
		c0,1,0,1.9,0,2.9c0.5-0.2,1-0.4,1.4-0.7v2.6v3v1.9c-0.5-0.2-1-0.4-1.4-0.6c0,0.9,0,1.8,0,2.6c0.5-0.2,1-0.5,1.4-0.7v3.1v1.7v3
		c-0.5-0.2-1-0.4-1.4-0.6c0,0.9,0,1.8,0,2.6c0.5-0.2,1-0.5,1.4-0.7v3.3v1.7v2.7c-0.5-0.3-1-0.5-1.4-0.8c0,1,0,1.9,0,2.9
		c0.5-0.2,1-0.4,1.4-0.7v2.2v3v2.4c-0.5-0.2-1-0.4-1.4-0.7c0,0.9,0,1.8,0,2.6c0.5-0.2,1-0.3,1.4-0.5v4.1h44.1v-11h-11.6v-6.3h44.7
		v-11h-44.7V674.8z"/>
</g>
<rect x="147.3" y="632.3" width="11.3" height="84.7"/>
<rect x="279.3" y="637.7" width="246.1" height="77.6"/>
</svg>
