<?xml version="1.0" encoding="utf-8"?>
<!-- Generator: Adobe Illustrator 18.1.1, SVG Export Plug-In . SVG Version: 6.00 Build 0)  -->
<!DOCTYPE svg PUBLIC "-//W3C//DTD SVG 1.1//EN" "http://www.w3.org/Graphics/SVG/1.1/DTD/svg11.dtd">
<svg version="1.1" id="WiredTOC_xA0_Image_1_" xmlns="http://www.w3.org/2000/svg" xmlns:xlink="http://www.w3.org/1999/xlink"
	 x="0px" y="0px" viewBox="0 0 559.2 790.6" enable-background="new 0 0 559.2 790.6" xml:space="preserve">
<g>
	<path d="M43.9,528.9l0.6,0.3c1.7,0.8,3.9,1.1,6.8,1.1c2.5,0,5.3-0.3,8.1-0.5c2.7-0.3,5.5-0.5,8-0.5c1.8,0,3.3,0.1,4.6,0.4l5.4,3.1
		l0.1,0.1c1.5,0.6,2.6,0.8,3.9,0.9c1.1,0.2,2.2,0.3,3.6,0.8c1,0.3,2.1,1,3.3,1.7c1.3,0.8,2.7,1.7,4.3,2.2l0.1,0.4
		c0.3,1.8-1.1,2.7-3.3,3.9c-1.1,0.6-2.2,1.2-2.8,2c-0.6,0.9-1,1.6-1.4,2.3c-0.5,0.9-0.8,1.6-1.6,2.3h0c-0.8-1.1-1.5-2.4-2.2-3.7
		c-1.5-2.7-3.1-5.6-5.4-7.4l-0.2-0.2l-2.2-0.4l-0.4,0.4c-1.1,1.2-0.8,2.2-0.5,3.1c0,0,0,0.1,0,0.1c-0.6,0-1.8-0.8-2.8-1.4
		c-0.7-0.5-1.4-0.9-2.1-1.2l-0.5-0.2l-0.5,0.3c-0.9,0.6-1.2,1.3-1.4,2.1l-5.1-0.5l-1,2.4l0.4,0.5c0.7,0.9,1.7,1.2,2.6,1.5
		c0.5,0.2,1.1,0.3,1.4,0.6c1.8,1.3,3.5,3,5.3,4.8c3.6,3.6,7.8,7.8,13.1,8.8l0.5,0.1l8.4-7.9c1.9,0.6,3.7,2.5,5.7,4.6
		c2.8,2.9,5.7,5.8,9.2,5.8c0.5,0,1.1-0.1,1.6-0.2l0.2-0.1c2.6-1.3,8.4-18.5,8.7-19.6l0-2.4l10.2-3.5l8,0.5l1-2.4L134,532
		c0.4-0.1,0.8-0.1,1.4-0.1c0.7,0,1.5,0,2.3-0.2l6.2-2.4h21.1l0.3-0.6c1.7-3.7,1-14.1,0.4-22.4c-0.2-2.8-0.3-5.3-0.4-6.8l-0.2-73.8
		l-0.5-0.3c-1.4-0.7-3.4-1.1-6.6-1.1c-1.4,0-2.8,0.1-4.2,0.1c-1.2,0.1-2.4,0.1-3.4,0.1h-32.4l-0.2,0.1c-1.1,0.5-3.6,0.8-7.4,0.8
		c-2.7,0-5.7-0.1-8.3-0.3c-2.1-0.1-3.9-0.2-5.3-0.2H44.3l-0.3,0.6c-1.4,3.1-1.2,12.5-0.8,23.7c0.1,2.8,0.2,5.2,0.2,6.8L43.9,528.9z
		 M100.6,542.2h6.9c0.2,1.8-0.3,4.2-0.7,6.2c-0.4-0.5-0.8-1.1-1.2-1.7c-1.1-1.7-2.4-3.6-5-4.1l-0.3,0L100.6,542.2z"/>
	<path d="M561.2,550.1l-0.1-0.2c-0.4-0.9-1-1.5-1.5-2c-0.6-0.6-1.1-1.1-1.4-2.1c2.8-2.9,3.4-6.1,1.8-10.1l-0.1-0.3l-0.3-0.2
		c-0.3-0.2-1.4-0.7-7.7-0.7c-6.4,0-15.8,0.6-18.3,1.4l-0.2,0.1l-2.5,2.1l-4.2,0.2l-0.5-25.2l-0.5-0.3c-0.5-0.3-1.1-0.5-1.8-0.7
		l-0.1-34.6h0.2v-1h-0.2l-0.5-219h0.4v-1h-0.4l-0.1-43.8l-1,0l0,0.3H510l0.2-0.3c2.5-4.7,2-17.8,1.6-28.3c-0.1-3.2-0.2-6.3-0.2-8.7
		c0-2.7-0.8-3.9-1.5-5c-0.4-0.5-0.7-1-0.9-1.6v-14l0-0.2c-1.2-6-2.1-12.2-3.1-18.3c-1-6.2-1.9-12.6-3.1-18.6l0.2-5.3l0-0.1
		c-0.4-1.9-1-4.2-1.5-6.4c-0.6-2.3-1.2-4.6-1.6-6.5c-0.2-1-0.2-2.2-0.2-3.3c0-1.1,0-2.2-0.2-3.2l0.1-0.2c2.2-0.5,4.8-0.5,7.4-0.5
		c1.9,0,3.7,0,5.3-0.2c1.7,1.9,2.6,5.7,3.3,9.2c0.4,1.6,0.7,3.2,1.1,4.5l0.9,2.7c3.1,9.7,6.5,20.6,10.4,29.7l0.2,0.5l2.9,0.4
		l0.8-1.2l0.1-0.2c0.6-1.8-1.6-11.3-2.2-12.9c-2.5-7.4-5.4-15.6-8.2-23.5c-0.9-2.5-1.8-5-2.6-7.4c-0.4-1-0.7-2.3-1-3.7
		c-0.9-3.8-2-8.1-4.4-9.7c-1.4-1-3.7-1.4-7.4-1.4c-1.5,0-3.1,0.1-4.6,0.1c-1,0-2,0.1-2.8,0.1c1-10.3,1.6-14.7,1.9-15.2
		c0.4-0.6,2-1.4,4-2l0.5-0.1l1-3l-2.8-0.5l-0.4,0.3c-2.6,1.9-15.4,2.9-38.1,2.9l-7.2,0c-1,0-2.1,0-3.3-0.1c-1.4,0-2.9-0.1-4.4-0.1
		c-4.5,0-9.3,0.4-10.8,3.1l-0.2,0.4l3.7,12.8c0.2,1.1,0,18-0.5,20.5c-1.5,7.8-2.4,15.9-3.2,23.8c-0.9,8.2-1.8,16.8-3.5,25.2
		c-0.6,2.8-3.2,17.1,0.3,25.1c-0.2,0-0.4-0.1-0.6-0.1c-0.6-0.1-1.2-0.2-1.7-0.2c-0.8,0-1.4,0.3-1.8,0.8l-0.2,0.2v10.4
		c0,1.9,0,3.9,0,5.8c-0.1,8.8-0.2,17.2,2,23.8h-35.5v16.7h123.9l0.1,26.8H398.3v1h123.9l0.3,109.7H397.9v1h124.6l0.3,108.3H398.6v1
		h124.2l0.1,34.4c-1.5-0.3-3.3-0.4-5.5-0.4c-2.4,0-4.9,0.1-7.1,0.3c-1.7,0.1-3.3,0.2-4.6,0.2l-0.6,0l-0.3,0.6
		c-0.1,0.2-0.2,0.4-0.2,0.7h-106v1h105.7c-0.5,2.2-0.3,5.1-0.2,8c0.1,1.3,0.1,2.6,0.1,3.7l0.2,33.3H398.6v1h105.9l0,0.1H523
		l0.1,41.7c-0.3,0-0.6,0-0.8,0c-0.2,0-0.5,0-0.7,0l-5.7,1.2l-0.2,0c-7.1,2.8-12.7,8.1-15.2,14.5c-2.4,6.1-2.4,12.8-0.1,19H399.9
		v16.7h120.7c0.9,0.1,1.7,0.2,2.6,0.2l0.2,64.5H399.3v4h124.1l0.1,22l1,0l-0.1-22h0.2v-4h-0.2l-0.2-64.5c1.2,0,2.3-0.1,3.5-0.3
		c15.4-2.7,22.4-16.1,21.4-28c-0.5-6.3-3.2-12-7.5-16.1c-4.5-4.3-10.5-6.7-17.5-7.1l-0.1-41.7h1l0.3-0.2c1.8-1.4,1.2-14,0.9-17.4
		c0.4-0.1,0.8-0.2,1.2-0.2c1.4,0,2.7,0.7,3.9,1.4c0.9,0.5,1.8,1,2.7,1.2c1.5,0.4,3,0.5,4.2,0.5c1,0.1,1.9,0.1,2.8,0.3
		c0.8,1.6,1.1,3.4,1.4,5.1c0.5,2.6,0.9,5.3,3,7.1c-0.2,0.1-0.4,0.1-0.6,0.2c-1.5,0.4-3.1,0.8-4.2,2.2l-0.2,0.2l0,0.2
		c-0.5,2.8,0.4,4.9,1.1,6.7c0.1,0.3,0.2,0.6,0.4,0.8l0.1,0.3l0.3,0.2c1.2,0.7,2.9,1.1,5.1,1.1c2.9,0,5.9-0.7,7-1l0.4-0.1l0.2-0.3
		c1.2-2,2.3-5.1,1.8-8l4.4-0.2V550.1z M483.9,182.5l0.2-0.1c2.7-0.7,8.4-2.1,11.5-2.1c0.9,0,1.3,0.1,1.5,0.2l0.3,12.8
		c-1.7-0.3-3.2-1-4.8-1.8c-1.4-0.6-2.7-1.3-4.3-1.7c-1.1-0.3-2-0.3-2.8-0.3c-0.7,0-1.2,0-1.8-0.2V182.5z M446.4,180.8
		c2,0.1,3.7,0.5,5.4,0.9c1.9,0.4,3.8,0.9,6.2,1c1,2.7-0.2,4.6-1.3,6.5c-0.3,0.6-0.7,1.1-0.9,1.6c-1.7,0.9-7.1,2.7-9,2.7
		c-0.2,0-0.2,0-0.2,0c0,0,0,0,0,0l-0.2-0.1C445.8,190.1,445.5,183.6,446.4,180.8z M446.1,212.9c0.1-0.4,0.1-0.8,0.2-1.2
		c0.1-1,0.2-2,0.7-3.2c1-1.9,5.8-3.3,8.9-4.3c1-0.3,1.8-0.6,2.5-0.8c0.9,0.2,1.3,0.5,1.7,1c0.4,0.4,0.9,1,1.9,1.3
		c2.6,1,5.9,1.6,9.1,1.6c5.8,0,10.5-1.7,12.8-4.6c3.7,0.5,7,1.9,10.3,3.3c1.1,0.5,2.1,0.9,3.2,1.3l0.2,5.6H446.1z"/>
	<path d="M416.8,409.9c-0.7,1.2-1.2,1.8-2,2.6c-0.2,0.2-0.5,0.5-0.7,0.8l-0.3,0.3l0.8,9.1c0.3,2.1,0.2,4.2,0,6.2
		c-0.1,1.8-0.2,3.5-0.1,5.1l-3.4,4.3l0.1,0.4c0.4,2.3,1.8,3.4,3,4.4c0.8,0.7,1.6,1.4,2.1,2.3c1.9,3.7,7.7,17.6,7.4,20.1L420,474v1.1
		l0.6,0.3c0.5,0.2,1.2,0.3,2.1,0.3c0,0,0,0,0,0c4.5,0,13.8-2.8,20-4.6c1.7-0.5,3.1-0.9,4-1.2c12.5-3.3,25.2-6.2,37.5-9
		c10.3-2.4,21-4.8,31.6-7.5l0.6-0.1l0.5-2l-0.3-0.4c-1.9-2.4-6-3.9-9.4-5.2c-0.1-0.1-0.3-0.1-0.4-0.2l1.8-1.4l1.5-24.9l-0.5-1.5
		l-0.6-0.1c-1-0.2-2-0.3-3-0.3c-1.9,0-3.5,0.3-4.9,0.6c-1.2,0.2-2.3,0.4-3.4,0.4c-1.3,0-3.1-0.2-5.5-2.2l-0.4-0.3l-0.5,0.1
		c-0.7,0.1-1.4,0.4-2,0.6c-1.2,0.4-2.3,0.8-3.5,0.6l-0.2-9.9l-0.3-0.3c-2.4-2.5-5.1-3-8.8-3c-0.6,0-1.1,0-1.8,0l-8,1.2l-0.2,0.1
		c-0.8,0.5-1.1,1.4-1.3,2.4l-1.3-1l-0.2,0c-2.8-0.7-5-0.1-6,1.6c-0.9-1.2-2.5-2-4.1-2c-1.4,0-2.5,0.7-3.1,1.9l-0.1,0.2
		c-0.3,1.4-0.1,2.9,0,4.4c0.2,1.8,0.4,3.5-0.4,4.3c-0.5,0.5-1.4,0.8-2.7,0.8l-1.3-5.2l0-0.1c-1.2-3-5.6-5.3-10-5.3
		c-1.3,0-2.6,0.2-3.7,0.6l-0.3,0.1l-2.9,3.3c-0.8,0.1-1.5-0.5-2.3-1.2c-0.6-0.6-1.2-1.1-1.9-1.3l-0.2,0l-7.9,0.8L416.8,409.9z"/>
	<path d="M197.3,645.8l0.5-23.1c1.3-7.2,1.4-23.6-0.3-29.9l-0.1-0.2c-1.7-3.6-6.9-4.5-11.4-5.2c-0.3-0.1-0.7-0.1-1-0.2
		c0.2,0,0.5,0,0.8,0.1c0.7,0.1,1.4,0.1,2.1,0.1c0.7,0,1.2-0.1,1.6-0.2l0.2-0.1c0.1-0.1,0.2-0.1,0.3-0.2c0.5-0.2,0.6-0.5,0.7-0.9
		c0-0.1,0.1-0.2,0.1-0.4l0.2-0.5l-0.5-0.7c-3.4-4.7-7-9.6-9.3-15.3c-1.8-4.6-2.2-34.7-0.5-38.7c0.6-0.9,2.1-1.1,3.7-1.4
		c1.1-0.2,2.3-0.4,3.3-0.8c3.9-1.7,8.5-6.3,10.3-10.3c3.5-7.5,3.2-20.3,1.7-29.8c-2-12.5-6-21.5-10.8-24.1c-1.3-0.7-2.7-0.8-3.8-0.8
		c-0.6,0-1.1,0-1.7,0.1c-0.5,0-1.1,0.1-1.6,0.1c-1,0-1.7-0.1-2.4-0.3c-1.7-0.6-5.5-2.3-6.7-3.2l-0.4-0.3l-3.1,0.8l-0.2-92.4
		c8.2,7.8,18.9,13.2,31.1,13.2c0,0,0,0,0,0c3.8,0,7.7-0.5,11.6-1.6c22.3-6.2,42.2-27.1,37.2-54.9c-1.2-6.9-2.3-12.8-5.6-18.3
		c-6.2-10.3-15.7-18.2-26-21.8c-2.1-0.7-4.3-0.9-6.4-1.1c-2.2-0.2-4.6-0.4-6.8-1.3c-0.6-0.2-1.1-1.1-1.5-1.9
		c-0.2-0.4-0.4-0.8-0.6-1.1c-3.3-4.8-6.9-7.6-15.6-7.6l-0.8,0l-0.2,0.1c-5,2.6-8.4,5.5-10.3,12.2l-1.6,6.9l-4.5,4l-0.1-62.7
		c0.7-0.1,1.4-0.1,2.1-0.3c15.9-2.8,23.2-16.4,22.2-28.3c-1.3-14.8-12.7-22-24.3-23l-0.2-115l-0.5,0H42.3v16.7h125.2l0.1,26.8H42.3
		v1h125.3l0,21H42.3v1h125.3l0.1,48.5c-0.6,0-1.2-0.1-1.8-0.1c-0.2,0-0.5,0-0.7,0l-4.6,1.1H42.3v16.7h101.5
		c-0.1,0.2-0.2,0.5-0.2,0.7c-2.3,7.5-0.7,16.1,4.4,23c1,1.4,2.2,2.7,3.4,3.8H42.3v1h110.2c4.3,3.5,9.4,5.5,14.6,5.5c0,0,0,0,0,0
		c0.2,0,0.4,0,0.6,0l0.1,63.5l-2.2,2c-0.5,0.5-0.9,0.9-1.3,1.4H42.3v1h121.2c-5.6,6.8-8.6,16.1-10.1,23c-1.5,6.8-0.5,16.2,1.2,22.1
		c1.1,3.7,2.8,7.5,5,11.2H42.3v1h118c2.2,3.5,4.8,6.8,7.8,9.8l0.4,227.2H43.3v1h125.2l0.1,26.3H44.3v1h124.3l0.1,26.3H44.3v1h124.3
		l0.1,27H44.3v1h124.4l0.1,34.3H44.3v1h124.4l0.1,30.8l1,0l-0.2-77.2l0.8,0c0,0,0,0,0,0C185.8,666.8,194.6,659.9,197.3,645.8z"/>
	<path d="M397.2,610.3l2.3,0.5l0.5-2.7l-0.3-0.4c-1.9-2.3-2.8-6.2-3.6-9.6l-0.1-0.4l-0.6-0.4c-0.5-0.3-1-0.6-1.6-0.8
		c0.8-2.3,0-4.5-0.9-6.6l1.1-1.1l0.9-2.7l-2.8-0.6l-2.7,2.5c-1.5-2.1-5-4-6.2-4.5l-0.6-0.2l-0.5,0.4c0,0,0,0-0.1,0.1l-0.2-106.4h0
		v-16.7h-0.1l-0.3-146.5h0v-1h0l0-1.5c0.1-0.2,0.2-0.5,0.3-0.8l0-0.1l-0.4-7.2l0-3.1c0.2-1.2,0.6-2.4,1-3.7c0.5-1.5,0.9-3,1.3-4.7
		c0.4-2.3,0.3-4.3,0.1-6.1c-0.1-1.7-0.3-3.1,0.1-4.7c0.3-1.1,0.5-2.2,0.7-3.3c0.8-4.2,1.4-7,3.9-8l0.2,2.7l2.4,0.5l2.6-1.9l0.1-0.4
		c1-4.6-0.7-10-2.5-15.7c-1.6-5.1-3.3-10.4-2.8-14.9c0.4-3.1,0.7-6.5-1-8.5c-0.7-0.9-1.8-1.4-3.1-1.6l-1.5-4.4l-1.7,2.9l0-4
		c0.8-1.3,1.5-2.6,1.5-5.4l0-0.4l-0.8-0.8c-0.2-0.2-0.5-0.5-0.7-0.7l0-3.9h0.2v-1h-0.2l-0.1-36.3h0.3v-1h-0.3l0-16.3h0.3v-1h-0.3
		l-0.1-49h0.4v-1h-0.4l0-19.3c17.1-11.6,34.8-36.9,28.1-66.4c-2-8.9-5.3-15.8-8.5-22.5L400.5-1H291.2l-0.2,0.7
		c-0.9,2.7-2,5.2-3.1,7.8c-1.8,4.3-3.7,8.8-4.8,13.9c-3.6,16.4-0.4,31,6,42.9h-34.1v16.7h46.7c4.5,4.5,9.4,8.2,14.3,11.1
		c7.3,4.4,16.1,5.8,26.2,7.5l0.3,0.1c1.8,0.3,3.7,0.5,5.6,0.5c0,0,0,0,0,0c10.9,0,20.8-4.9,27.4-8.2c1.6-0.8,3.2-1.7,4.8-2.7l0,18.7
		h-15.5v-5.3l4.4,4.2l0.7-0.7l-5.1-4.8l-0.6-0.7l0,0l0,0l-0.6,0.7l-5.1,4.8l0.7,0.7l4.7-4.5v5.5H256.3v1h107.5v10h1v-10h15.5l0.1,49
		h-124v1h124l0,16.3h-124v1h124.1l0.1,36.3H256.3v1h124.1l0,3c-1.3-1.2-3-2.1-5.5-2.1l-0.4,0l-0.3,0.2c-5.8,4.8-4.9,7.2-3.2,10
		c0.9,1.4,1.7,2.6,1,4.6c-0.4,0.3-1.4,0.4-2.2,0.6c-1.7,0.3-3.5,0.6-4.7,2c-1.6,2-1.3,4.5-0.9,6.9c0.1,0.4,0.1,0.8,0.2,1.2H256.3v1
		h108.4c0.1,0.7,0.1,1.5-0.1,2.2c-0.3,2.1-0.7,4.3-1.1,6.5c-1.2,7-2.5,14.2-2.5,21l0,0.4l0.3,0.3c0.2,0.2,0.3,0.3,0.5,0.4
		c0.6,0.6,1.2,1.2,2.7,1.5l0.5,0.1l0.4-0.4c0.5-0.5,0.8-1,1.1-1.5l0,0c0.8,1.2,1.2,3.1,1.5,5.1H256.3v1h111.8
		c0.1,0.7,0.2,1.5,0.3,2.2c0.2,1.5,0.3,3,0.6,4.2c0.3,1.3,0.2,3,0.2,4.9c0,2.1-0.1,4.2,0.3,6.2l2.6,11.5c0.4,2,0.3,4,0.2,6.1
		c0,0.2,0,0.4,0,0.6H256.3v1h115.8c-0.1,2.1-0.1,4.3,0.7,6.4l0.1,0.3l0.5,0.3c1.1,0.8,1.9,1.2,3.9,1.2l0.6,0l0.9-1.4l0.2-6.6
		c0-0.1,0.1-0.2,0.2-0.3h1.4l0.1,35H256.3v1h124.4l0.1,26.3H256.3v1h124.4l0.1,45.7H256.3v1h124.5l0.1,36.5H263.1
		c0.1-0.2,0.2-0.4,0.3-0.7c3-6.8,2.7-14.5-0.8-21.2h11.9v-12h-16.9v5.9c-4.1-3.1-10.1-4.5-18.1-4.3l-0.2,0l-0.2,0.1
		c-0.7,0.4-1.5,0.7-2.2,1.1c-6.5,3.2-12.2,5.9-14.6,13.7c-2.3,7.2-1,15.2,3.5,21.3c4.2,5.7,10.5,9,17.3,9c0,0,0,0,0,0
		c1.4,0,2.9-0.1,4.4-0.4c3.7-0.7,7-2.4,9.8-4.8v9.1h123.6l0.1,27.2H271.3v-22.5h-15.4v24.5h15.4v-1H381l0.1,35.7H256.8v-21.7h-55.9
		v63.7h55.9v-41.1H381l0.1,42.4c-0.3,0.2-0.6,0.5-0.9,0.7c-1.3,1-2.5,1.9-3.3,3.3c0-0.1,0-0.3,0-0.4l-0.1-0.5l-4-2.3l-0.7,0.7
		c-0.5,0.4-0.6,0.6-0.8,1.5l-0.2,0.6l1.9,1.9c-0.9,2.3-1.7,4.6-0.9,7c0,0-0.1,0-0.1,0c-0.8,0.4-1.5,0.7-2.3,1.3l-0.4,0.3l-0.1,0.6
		H258.9v1h110.3c-0.3,2.9-0.7,6.2-2.6,7.5l-0.4,0.3v2.1l1,1l1.8-0.7c0.4,0.6,0.5,1.3,0.6,2h-7.4v-8.7h-81.8v8.7v2.7v8.7h92.8
		l0.7,3.2l0,0.1c0,0,0,0.1,0,0.1H257.9v1h116.6c0.7,1.3,1.7,2.3,2.7,3.3c1.1,1.2,2.2,2.2,2.8,3.5l0.2,0.4l0.5,0.1
		c0.2,0.1,0.4,0.1,0.6,0.1l0,18.1H256.9v1h124.3l0.1,35.7H256.9v1h124.4l0.1,30.3H256.9v1h124.5l0,21.2l1,0l-0.2-89.2h0v-1h0l0-18
		c0.3,0,0.6,0.1,0.8,0.1c0.7,0,1.5-0.1,2.4-0.3l0.4-0.1l0.2-0.3c0.8-1.2,1.6-2.4,2.4-3.6c2.4-3.3,4.8-6.7,5.5-11.9l2.6,0.9l0.4-0.8
		c0.4-0.8,0.3-2.1,0.2-4.4C397.1,613.6,397,611.8,397.2,610.3z M380.4,226.4l0,0.4l-0.1-0.2C380.4,226.5,380.4,226.5,380.4,226.4z
		 M380.3,313.1c0.1-0.1,0.2-0.2,0.3-0.2l0,0.2H380.3z"/>
	<path d="M260.3,755.2l0.5-3.9l-1.8-2.1c-0.7-2.1-0.8-4.5-0.9-6.9c-0.1-2.3-0.2-4.4-0.8-6.4c-0.8-2.5-2.4-5.1-3.8-7.5
		c-1.2-1.9-2.3-3.7-2.7-5c-0.5-1.9,0-3.2,0.7-4.6c0.7-1.5,1.4-3.2,0.5-5.4c-0.4-0.9-1.3-1.3-2-1.6c-0.2-0.1-0.5-0.2-0.6-0.3
		l-0.5-3.6l-0.2-0.2c-0.5-0.7-1.5-1.2-2.5-1.7c-0.9-0.5-2-1-2.6-1.7l-0.3-0.4l-0.5,0c-1.9,0.1-2.7,0.6-3.5,1
		c-0.5,0.3-0.9,0.5-1.5,0.7l-0.4,0.1l-0.2,0.4c-0.9,1.8-1.5,3.9-2.1,5.9c-1-1.1-2-2.5-3-4.1c-2.5-3.8-5.4-8.2-10.6-8.2
		c-1.3,0-2.7,0.3-4.2,0.9l-0.5-0.3c-3.3-2.1-5.7-3.6-12.3-3.4l-0.2,0l-0.2,0.1c-0.8,0.4-1.6,0.8-2.3,1.2c-1.6,0.8-3.1,1.5-4.5,2.7
		c-1.9-0.3-3.7-0.6-5.4-0.6c-2.8,0-5,0.9-6.8,2.7L183,706c-0.4,0.1-0.8,0.2-1.3,0.2c-0.7,0-1.4,0-2.2,0.5c-4.1,2.4-8.1,10-5.5,16.8
		c0.5,1.3,8.5,10.7,10.3,11.2l6.4,0c1,0.3,1.8,0.7,2.7,1.1c1.8,0.8,3.9,1.8,7.4,1.8l0.1,0.1c0.2,1.2-0.2,1.7-0.7,2.5
		c-0.4,0.6-0.9,1.3-1.2,2.4l-0.1,0.3l0.5,1.4l0.3,0.2c0.9,0.5,1.4,0.7,2.4,0.7c0,0.2,0,0.4,0,0.5c0,0.8,0,1.8,0.5,2.9l0.2,0.5l3,0.4
		l1.5-2c0.4,0.7,0.7,1.4,0.8,2.4c-0.5,0.1-0.9,0.1-1.4,0.2c-3.8,0.6-6.8,1.1-9.2,3.9l-0.3,0.4l0.1,0.5c0.1,0.7,3.3,13.2,4,14.3
		c1.2,2.1,5.3,2.8,8.4,2.8c1.5,0,4.2-0.2,5.9-1.3l0.2-0.1l4-7.7l0.1-0.3c0.2-1.2-0.2-2-0.6-2.7c-0.4-0.7-0.6-1.2-0.4-2.1l1.6-3.2
		l-0.2-0.4c-1-1.9-2.2-2.8-3.7-3.7v-1c2-1,4.2-1.4,6.5-2c2.3-0.5,4.6-1,6.9-2.1c1.3-0.6,2.6-1.4,4-2.2c2.5-1.5,5-3.1,7.9-3.6
		l1.1,5.9c-2,0.4-4.7,0.7-7.5,0.7c-2.1,0-4-0.1-5.1-0.4l-0.4-0.1l-1.3,0.6l-0.1,0.5c-0.7,3.8,0.5,7.5,1.6,11
		c0.5,1.7,1.1,3.3,1.3,4.8l-6.1,0.5l-0.9,3.1l0.6,0.4c1.7,1.1,5.3,1.3,8.4,1.4c0.3,0,0.5,0,0.8,0v2.7l0.6,0.3
		c1.1,0.5,2.1,0.7,3.2,0.7c1.7,0,3.2-0.6,4.6-1.3c1.2-0.5,2.4-1,3.7-1.1l0.8,0l0.2-0.8c0.5-2.5,1.3-4.1,2.3-5.8
		c0.3-0.6,0.6-1.2,0.9-1.8l0.6,7.5l0.5,0.3c2,1.1,3.4,1.1,4.3,0c1-1.3,0.9-3.6,0.3-6.7c0.4,1.1,1.1,2,2.1,2.6l0.2,0.1l2.3,0.4
		l0.8-1.6l0-0.1c0.8-2.3-0.2-4.4-1.1-6C260.7,756.4,260.4,755.8,260.3,755.2z M217.5,736.5c0.8-0.5,2-0.6,3.6-0.7
		c0.7,0,1.4-0.1,2.1-0.2C221.1,736.1,219.2,736.4,217.5,736.5z M225.4,735c0.3-0.1,0.5-0.3,0.8-0.4c1.8-1.1,2.1-2.6,2.4-4.1
		c0.2-0.8,0.3-1.6,0.7-2.4l3.2-2.8l0.2-0.2c0.5-0.7,1.1-2.6,1.6-4.7c0.6,1.3,1.5,2.4,2.4,3.4c1,1.2,1.9,2.3,2.4,3.6
		C236.7,730.3,231.1,733.2,225.4,735z M238.5,766.5c1.1-2.2,0.7-4.5,0-6.7c1,1.8,2.1,3.9,2.8,5.4
		C240.6,765.9,239.6,766.3,238.5,766.5z M246.1,757.9c0,0.1-0.1,0.3-0.1,0.4l-0.2,0c-1.4-1.1-2.9-3.2-3.3-5.2l2.4,0.5l1.4,2.4
		C246.5,756.5,246.4,757,246.1,757.9z"/>
	<rect x="42.3" y="254.6" width="124.7" height="16.7"/>
	<rect x="200.3" y="97.9" width="46.7" height="63.3"/>
	<rect x="41.6" y="86.6" width="70.7" height="20.7"/>
	<rect x="255.6" y="84.6" width="42.7" height="20.7"/>
	<rect x="397.6" y="233.3" width="79.4" height="20.7"/>
	<rect x="41.6" y="201.9" width="66.5" height="20.7"/>
	<rect x="41.6" y="275.3" width="46" height="20.7"/>
	<rect x="399.3" y="656.9" width="118" height="20.7"/>
	<rect x="396.9" y="293.8" width="125.3" height="1"/>
	<rect x="396.9" y="330.4" width="125.3" height="1"/>
	<rect x="42.3" y="384.1" width="125.3" height="1"/>
	<rect x="42.3" y="420.1" width="125.3" height="1"/>
	<rect x="41.6" y="115.3" width="14.7" height="12"/>
	<rect x="64.9" y="115.9" width="86" height="11.3"/>
	<rect x="41.6" y="137.3" width="16.9" height="12"/>
	<polygon points="64.9,137.9 64.9,146.6 64.9,149.3 64.9,155.9 64.9,157.9 64.9,165.3 64.9,167.3 64.9,176.6 143.8,176.6 
		143.8,165.3 129.4,165.3 129.4,157.9 136.8,157.9 136.8,146.6 107.3,146.6 107.3,137.9 	"/>
	<rect x="41.6" y="302.3" width="16.9" height="12"/>
	<polygon points="135.4,314.3 135.4,302.9 64.9,302.9 64.9,311.6 64.9,314.3 64.9,320.9 64.9,322.9 64.9,330.3 64.9,332.3 
		64.9,341.6 117.6,341.6 117.6,332.3 148.4,332.3 148.4,320.9 132.6,320.9 132.6,314.3 	"/>
	<rect x="43" y="360.5" width="15.6" height="12"/>
	<polygon points="64.9,361.2 64.9,372.1 64.9,372.5 64.9,381.2 157.9,381.2 157.9,372.1 115.1,372.1 115.1,361.2 	"/>
	<rect x="42.6" y="388.3" width="16.9" height="12"/>
	<polygon points="66.9,388.9 66.9,397.6 66.9,400.3 66.9,406.9 66.9,408.9 66.9,418.3 147.6,418.3 147.6,408.9 158.9,408.9 
		158.9,397.6 101.1,397.6 101.1,388.9 	"/>
	<rect x="43.6" y="561.8" width="16.9" height="12"/>
	<polygon points="66.9,562.4 66.9,571.1 66.9,573.8 66.9,580.4 66.9,582.4 66.9,591.8 104,591.8 104,582.4 150.6,582.4 150.6,571.1 
		138.6,571.1 138.6,562.4 	"/>
	<rect x="43.6" y="598.5" width="16.9" height="12"/>
	<polygon points="138.6,610.5 138.6,599.2 66.9,599.2 66.9,607.9 66.9,610.5 66.9,619.2 122.1,619.2 122.1,610.5 	"/>
	<rect x="43.6" y="652.5" width="16.9" height="12"/>
	<polygon points="147.2,664.5 147.2,653.2 66.9,653.2 66.9,661.9 66.9,664.5 66.9,673.2 119.8,673.2 119.8,664.5 	"/>
	<rect x="43.6" y="625" width="16.9" height="12"/>
	<polygon points="157.9,637 157.9,625.7 66.9,625.7 66.9,634.4 66.9,637 66.9,645.7 157,645.7 157,637 	"/>
	<rect x="44.6" y="680.3" width="16.9" height="12"/>
	<polygon points="66.9,680.9 66.9,689.6 66.9,692.3 66.9,698.9 66.9,700.9 66.9,710.3 113.5,710.3 113.5,700.9 138.5,700.9 
		138.5,689.6 117.7,689.6 117.7,680.9 	"/>
	<rect x="44.6" y="717" width="16.9" height="12"/>
	<polygon points="111.8,717.7 66.9,717.7 66.9,726.4 66.9,729 66.9,735.7 66.9,737.7 66.9,747 97.9,747 97.9,737.7 147.8,737.7 
		147.8,726.4 111.8,726.4 	"/>
	<rect x="258.4" y="723.8" width="19.8" height="12"/>
	<polygon points="280.7,733.1 280.7,735.8 280.7,744.4 310,744.4 310,735.8 358,735.8 358,724.4 280.7,724.4 	"/>
	<rect x="258.4" y="693.5" width="16.7" height="12"/>
	<rect x="280.7" y="694.2" width="77.3" height="11.3"/>
	<rect x="64.9" y="345.1" width="74.3" height="7"/>
	<polygon points="128.6,240.8 153.8,240.8 153.8,229.4 41.6,229.4 41.6,238.8 41.6,240.8 41.6,250.1 128.6,250.1 	"/>
	<polygon points="117.1,365.8 133.5,365.8 129.2,370.2 130,370.9 134.8,365.8 135.5,365.2 135.4,365.2 135.5,365.1 134.8,364.5 
		130,359.4 129.2,360.1 133.7,364.8 117.1,364.8 	"/>
	<rect x="44.6" y="763.3" width="8.8" height="9.5"/>
	<rect x="57.6" y="763.3" width="8.8" height="9.5"/>
	<rect x="70.6" y="763.3" width="8.8" height="9.5"/>
	<rect x="83.6" y="764.4" width="36.7" height="7.1"/>
	<polygon points="277.9,712.3 261.5,712.3 265.7,707.9 265,707.2 260.1,712.2 259.5,712.9 259.5,712.9 259.5,712.9 260.1,713.6 
		265,718.6 265.7,717.9 261.3,713.3 277.9,713.3 	"/>
	<rect x="281.9" y="709.9" width="84.1" height="7"/>
	<rect x="399.3" y="726.5" width="63.9" height="7"/>
	<rect x="258.1" y="657.5" width="16.9" height="12"/>
	<polygon points="280.4,658.2 280.4,666.9 280.4,669.5 280.4,676.2 280.4,678.2 280.4,687.5 319,687.5 319,678.2 374.6,678.2 
		374.6,666.9 360.1,666.9 360.1,658.2 	"/>
	<rect x="258.1" y="630.5" width="16.9" height="12"/>
	<polygon points="280.4,631.2 280.4,639.9 280.4,642.5 280.4,651.2 374.6,651.2 374.6,639.9 353.8,639.9 353.8,631.2 	"/>
	<rect x="258.1" y="603" width="16.9" height="12"/>
	<polygon points="280.9,545.9 280.9,554.6 280.9,557.3 280.9,563.9 280.9,565.9 280.9,573.3 280.9,575.3 280.9,584.6 362.1,584.6 
		362.1,573.3 353.9,573.3 353.9,565.9 356.4,565.9 356.4,554.6 346.7,554.6 346.7,545.9 	"/>
	<rect x="280.9" y="587.9" width="78.9" height="7"/>
	<polygon points="422.9,562.9 422.9,571.6 422.9,574.3 422.9,581.9 422.9,582.9 422.9,590.6 422.9,593.3 422.9,599.9 422.9,601.9 
		422.9,609.3 422.9,611.3 422.9,620.6 487.7,620.6 487.7,611.3 502.2,611.3 502.2,599.9 487.8,599.9 487.8,593.3 496.4,593.3 
		496.4,581.9 481.4,581.9 481.4,571.6 477,571.6 477,562.9 	"/>
	<rect x="399.9" y="682.9" width="116.2" height="9.2"/>
	<rect x="399.9" y="734.9" width="110" height="9.2"/>
	<rect x="422.9" y="623.9" width="55.1" height="7"/>
	<rect x="257.6" y="508.5" width="16.9" height="12"/>
	<polygon points="352.4,529.2 352.4,520.5 362,520.5 362,509.2 279.9,509.2 279.9,517.9 279.9,520.5 279.9,527.2 279.9,529.2 
		279.9,538.5 326.6,538.5 326.6,529.2 	"/>
	<polygon points="342.2,447.4 342.2,438.8 347.4,438.8 347.4,427.4 279.9,427.4 279.9,436.1 279.9,438.8 279.9,445.4 279.9,447.4 
		279.9,456.8 319.4,456.8 319.4,447.4 	"/>
	<polygon points="278.9,379.9 278.9,388.6 278.9,391.3 278.9,397.9 278.9,399.9 278.9,407.3 278.9,409.3 278.9,418.6 339.6,418.6 
		339.6,409.3 359.5,409.3 359.5,397.9 354.4,397.9 354.4,388.6 344.7,388.6 344.7,379.9 	"/>
	<rect x="256.6" y="379.9" width="16.9" height="12"/>
	<polygon points="370.6,364.8 370.6,353.4 278.9,353.4 278.9,362.1 278.9,364.8 278.9,373.4 350.3,373.4 350.3,364.8 	"/>
	<rect x="255.6" y="353.4" width="16.9" height="12"/>
	<polygon points="278.9,316.9 278.9,325.6 278.9,328.3 278.9,334.9 278.9,336.9 278.9,346.3 351.8,346.3 351.8,336.9 354.4,336.9 
		354.4,325.6 350.4,325.6 350.4,316.9 	"/>
	<rect x="255.6" y="316.9" width="16.9" height="12"/>
	<polygon points="278.9,280.4 278.9,289.1 278.9,291.8 278.9,298.4 278.9,300.4 278.9,309.8 308.8,309.8 308.8,300.4 355.7,300.4 
		355.7,289.1 338.9,289.1 338.9,280.4 	"/>
	<rect x="255.6" y="280.4" width="16.9" height="12"/>
	<polygon points="278.9,243.7 278.9,252.4 278.9,255 278.9,261.7 278.9,263.7 278.9,273 342.7,273 342.7,263.7 350.8,263.7 
		350.8,252.4 341.6,252.4 341.6,243.7 	"/>
	<rect x="255.6" y="243.7" width="16.9" height="12"/>
	<polygon points="350,227.8 350,216.4 278.9,216.4 278.9,225.1 278.9,227.8 278.9,236.4 340.1,236.4 340.1,227.8 	"/>
	<rect x="255.6" y="216.4" width="16.9" height="12"/>
	<polygon points="278.9,180.2 278.9,188.9 278.9,191.5 278.9,198.2 278.9,200.2 278.9,209.5 367.5,209.5 367.5,198.2 365.1,198.2 
		365.1,188.9 349.2,188.9 349.2,180.2 	"/>
	<rect x="255.6" y="180.2" width="16.9" height="12"/>
	<rect x="278.9" y="161.2" width="49.7" height="11.3"/>
	<rect x="255.6" y="161.2" width="16.9" height="12"/>
	<polygon points="278.9,112.4 278.9,121.7 278.9,123.7 278.9,131 278.9,133 278.9,142.4 360.2,142.4 360.2,133 368.8,133 
		368.8,121.7 355.7,121.7 355.7,112.4 	"/>
	<rect x="278.9" y="145.9" width="63.3" height="7"/>
	<rect x="398.9" y="260.6" width="19.6" height="12"/>
	<polygon points="422.3,261.3 422.3,269.9 422.3,272.6 422.3,279.3 422.3,281.3 422.3,290.6 498.8,290.6 498.8,281.3 512.9,281.3 
		512.9,269.9 450,269.9 450,261.3 	"/>
	<rect x="398.9" y="297.3" width="19.6" height="12"/>
	<polygon points="422.3,297.9 422.3,306.6 422.3,309.3 422.3,315.9 422.3,317.9 422.3,327.3 484.2,327.3 484.2,317.9 498.8,317.9 
		498.8,306.6 461.7,306.6 461.7,297.9 	"/>
	<rect x="398.9" y="333.9" width="19.6" height="12"/>
	<polygon points="422.3,334.6 422.3,343.3 422.3,345.9 422.3,352.6 422.3,354.6 422.3,363.9 479.6,363.9 479.6,354.6 519.8,354.6 
		519.8,343.3 467.9,343.3 467.9,334.6 	"/>
	<rect x="398.9" y="369.9" width="19.6" height="12"/>
	<polygon points="422.3,370.6 422.3,379.3 422.3,381.9 422.3,388.6 422.3,390.6 422.3,399.9 518.9,399.9 518.9,388.6 508.2,388.6 
		508.2,379.3 475.6,379.3 475.6,370.6 	"/>
	<rect x="398.9" y="479.9" width="19.6" height="12"/>
	<polygon points="422.3,480.6 422.3,489.3 422.3,491.9 422.3,498.6 422.3,500.6 422.3,509.9 506.8,509.9 506.8,500.6 508.2,500.6 
		508.2,489.3 490,489.3 490,480.6 	"/>
	<rect x="398.9" y="516.6" width="19.6" height="12"/>
	<rect x="399.9" y="561.6" width="19.6" height="12"/>
	<polygon points="492.3,546.6 492.3,537.3 498.4,537.3 498.4,528.6 500,528.6 500,517.3 422.3,517.3 422.3,525.9 422.3,528.6 
		422.3,535.3 422.3,537.3 422.3,543.3 422.3,546.6 422.3,554.6 488,554.6 488,546.6 	"/>
</g>
</svg>
