<?xml version="1.0" encoding="utf-8"?>
<!-- Generator: Adobe Illustrator 18.1.0, SVG Export Plug-In . SVG Version: 6.00 Build 0)  -->
<!DOCTYPE svg PUBLIC "-//W3C//DTD SVG 1.1//EN" "http://www.w3.org/Graphics/SVG/1.1/DTD/svg11.dtd">
<?xml-stylesheet type="text/css" href="css/svg.css" ?>

<svg version="1.1" id="scan_8_xA0_Image_1_" xmlns="http://www.w3.org/2000/svg" xmlns:xlink="http://www.w3.org/1999/xlink"
	 x="0px" y="0px" viewBox="0 0 620 815" enable-background="new 0 0 620 815" xml:space="preserve">
<g>
	<path d="M628-10v-7H471v7H-13v842h650V-10H628z M24,78.5c0.2,2.4,1,4.8,2.5,6.7c-0.4-0.4-0.8-0.8-1.1-1.2
		C24.2,82,23.9,80.1,24,78.5z M24.3,104.1c-1.3,4,0,8,3.6,10.5l0.4,0.3l0.5,0.1c1,0.3,2.1,0.4,3.1,0.4c1,0,1.9-0.1,2.8-0.4
		c-1.7,1.8-4.9,3-8.4,3c-2.8,0-5.3-0.7-7.2-1.9c-2.7-1.8-3.2-5-3.2-6.8c-0.1-3.7,1.5-7.7,3.8-9.4c1.9-1.4,4-1.7,7.3-2.2
		c0.9-0.1,1.9-0.3,2.9-0.4l0.4-0.1C27.5,98.7,25.2,101.2,24.3,104.1z M613,67.4c-1.7-0.2-2.9-0.7-3.4-1.1l0.6-11.5l2.5-0.8l0.3-1.8
		c0.3-2.2-0.2-4.4-0.6-6.2c-0.2-0.7-0.3-1.4-0.4-2.1l1.2,0.5V67.4z M241.6,91.5l-1.2-0.5l-3.2,0c0-0.2-0.3-0.2-0.4,0l-3.7,8
		c-1.2,1.7-2.1,3.6-3.1,5.4c-3.2,6-5.6,9.8-10.7,10.3c-0.2-0.3-0.4-0.6-0.6-1.1c6.4-8.3,8.7-19.7,10.4-29.9
		c0.6-3.4,0.3-7.4-1.3-10.1h35.9c-3.1,5.4-3.8,12.3-4.5,19.7c0,0.4-0.1,0.8-0.1,1.2c-5.6,1.4-8.7,4.1-11,9.5c-0.4,0.9-0.8,1.9-1.1,3
		c-1.7,4.8-2.9,7-5.1,7c-0.3,0-0.6,0-1-0.1c-1-0.7-0.8-2.7-0.2-6.3c0.5-3.3,4-13.8,1.1-16C241.8,91.4,241.6,91.4,241.6,91.5z
		 M207.8,110.7c-0.2,0.1-0.5,0.3-0.7,0.4c0.7-5.9,0.6-13.5-5.9-16.3c-1.6-0.7-2.9-0.8-4-1c-0.8-0.1-1.4-0.2-2-0.4l-0.8-0.4l-0.9,0.1
		c-3.3,0.4-6.5,2.3-8.9,5.4c-2.7,3.4-4.1,7.8-3.9,12.1c-1.3,1.3-2.8,2.5-4.5,3.3c-0.4-0.7-0.7-1.5-1-2.4c-0.9-2.5-1.9-5.6-5.4-7.4
		l-0.7-0.4h-0.8c-2.4,0-4.6,0.8-6.5,2.4c1.1-2.5,2.8-5.2,4.5-7.9c4.5-7.2,9.6-13.4,7.2-22.6h41.1
		C208.3,83.3,207.6,100.6,207.8,110.7z M76.2,175.8c0,0-0.2,0.2-0.9,0.5c-0.7-0.9-1.6-3.7-1.7-6.3c0.1-0.1,0.1-0.2,0.2-0.3
		c0.4,1,0.8,1.9,1.2,2.7C75.5,173.4,76.3,175.3,76.2,175.8z M209.2,170.2c0.5-0.7,0.9-1.4,1.3-2c2.1,2.3,2.9,4.2,2.5,5l-0.1,0.1
		l-0.1,0.1c-0.2,0.4-0.4,0.7-1.2,0.7c-0.3,0-0.5,0-0.8-0.1l-0.3-2.1l-0.3-0.5C209.9,170.8,209.6,170.5,209.2,170.2z M89.1,114.4
		c0,0.1-0.3,0.5-1.2,1c-0.2,0-0.3,0-0.5-0.1c0-0.1-0.1-0.3-0.1-0.5c-0.1-0.5-0.3-1.2-0.6-1.9l-0.1-0.3l-1-1.5
		c0.3-0.5,0.6-0.9,0.9-1.4C87.4,111.1,89.3,113.6,89.1,114.4z M111.1,157.4c1.9,0.9,3.7,1.3,5.4,1.3c0.4,0,0.7,0,1.1-0.1
		c-1.1,3.4-1.6,7.4-1.6,10.8c0,0,0,0,0,0c-0.8,0.7-1.5,1.4-2.3,2c0.7-2.5,1.5-5.6,0.1-8.5c-1.4-2.8-3.5-3.8-4.8-4.5
		c-1.5-0.7-1.9-1-2-3.6l-0.1-1.6C107.9,155,109.3,156.5,111.1,157.4z M81,184.7l0.3-0.2l4-4.8c0.3,0,0.5,0,0.8,0.1
		c0.6,0,1.3,0.1,2,0.1c1.3,0,2.3-0.2,3.2-0.5c4.8-1.7,10.1-7.3,12.4-12.6c0.1,0,0.3,0.1,0.4,0.2l-1.1,6c-0.5,3.1,0.3,5.3,1,6.9
		c0.1,0.3,0.2,0.6,0.3,0.8l0.5,1.4l1.4,0.5c1.4,0.4,2.8,0.7,4.2,0.7c3.6,0,7.2-1.4,10-3.9c2.9,2.5,5.5,4.1,8.6,4.1
		c2.5,0,4.8-1,8.1-2.7c1.5,2.5,3.5,3.7,5.9,3.7c0,0,0,0,0,0c3.7,0,6.8-3.2,9.3-6.1l0.4,0.8l0.1,0.2c1.7,2.4,4.1,3.7,6.9,3.7
		c2.5,0,4.8-1,6.9-2.1c0.4,1.5,1,3,2.2,4.7H79.8C80.2,185.3,80.6,185,81,184.7z M324.5,493.5V251.4l24.8,5.8h-17.6v13v2.8v10.5v2.5
		v14.9v2.6v7.8v2.7v6.3v4.1v4.9v4.1v4.3v4.7v8.3h45.8v-13.1h-19v-4.3h14.1v-9h4.7v-13.1h-9.1v-7.8h23.5v10.5h48v-12.2h-0.2v-18.2
		h-57.9v-13.3h-10.8v-8.5c0,0,0.1,0,0.1,0c3,0,6.8,1,10,1.9c1.2,0.3,2.2,0.6,3.2,0.8c3.5,0.8,6.9,1.3,10.2,1.9
		c3,0.5,5.8,0.9,8.5,1.5l77.6,13.9c4.7,1.1,9.5,1.9,14.1,2.6c4,0.6,8.1,1.3,12.3,2.2l0.8,0.2c2.2,0.5,5.9,1.3,9.3,1.3
		c1.7,0,3.2-0.2,4.4-0.6c8-2.6,14.1-9.5,19.4-15.6c1.5-1.7,2.8-3.2,4.2-4.6c5.7-6,11.7-12,17.5-17.8c9.6-9.6,19.4-19.6,28.7-29.8
		c1.8-2,3.4-4.2,5-6.2c1.4-1.9,2.7-3.6,4.2-5.3c0.9-1.1,2-2.1,3.2-3.2c1.6-1.5,3.2-3.1,4.7-4.9c0.3-0.4,0.7-1,1.1-1.6
		c0.2-0.2,0.4-0.6,0.6-1l0.1,3.8h3.1v292.4H324.5z M450.8,16.2c-1,0.7-2,1.4-2.9,1.8h-3.1l-0.4,0.1c-2.7,0.9-3.5,2.9-3.9,4
		c0,0.1-0.1,0.2-0.1,0.3l-4.5,1.2l-0.3,0.2c-2.1,1.1-3.2,3-4.1,4.4c-0.5,0.8-0.9,1.4-1.3,1.9c-0.6-0.2-1.3-0.2-1.9-0.2
		c-3.6,0-6.2,2.5-8.3,4.5c-1,1-2,1.9-2.8,2.4c-1.1,0.6-2.5,1-4,1.4c-1.8,0.5-3.8,1-5.7,2c-2.6,1.3-3.6,3.5-4.2,4.9
		c-0.2,0.4-0.5,1-0.6,1.2c-0.5,0.4-1.4,0.6-2.4,0.8c-1.3,0.3-2.7,0.6-4.1,1.4l-0.1,0l-14.2,8.7l-0.2,1.3c-0.2,1.2-0.4,1.9-0.6,2.4
		c-4.5,1-7.8,2.4-11.1,3.9c-2.4,1.1-4.7,2.1-7.6,2.9c-1.1,0.3-2.6,0.6-4.2,0.8c-4.3,0.7-8.8,1.4-10.8,4.6l-0.5,0.8l0.6,7.7l0.4,0.6
		c0.4,0.6,0.9,1.3,1.4,2c1,1.4,2,2.8,2.5,4.2c0.3,0.9,0.3,1.2,0.3,1.2c0,0.1-0.1,0.1-0.1,0.2c-0.8,1.9-0.4,3.4,0.7,5
		c-0.9,2.4-0.6,4.1,0.9,5.9c0.3,0.4,0.3,0.4,0.3,0.6c0.1,1.1-0.7,4-1,5.3c-0.1,0.6-0.3,1.1-0.4,1.4c-0.7,3.2,1.6,17.7,1.7,17.8
		l0.1,0.3l0.1,0.3c0.5,1,1,1.8,1.8,2.4l0,0.1c-4.2,4.1-9.3,7.7-14.3,11.1c-1.8,1.2-3.5,2.4-5.3,3.7c-1,0.7-2,1.5-3,2.2
		c0.6-2,1.2-4.2,1.6-6.7c1-5.5,1.2-11,1.1-14.7c0.7-0.6,1.7-1.3,2.6-2c3.7-2.7,8.2-6,7.7-11.2l-0.2-1.5l-3.3-2l-1,0.1
		c-3.5,0.3-5.6,2.5-7.2,4.3c-0.2-1.3-0.3-2.7-0.4-4c-0.3-4.7-0.7-10.1-4.7-13.3l-1.1-0.9l-3.9,0.8l-0.7,1.1c-1.3,2.2-2.2,4.8-3,7.4
		c-1.7,5.2-2.9,8.2-5.3,9.2c-0.4-1.7-0.2-3.6,0-5.8c0.2-2.1,0.5-4.4,0.2-7l-0.2-1.5l-1.3-0.8c-0.9-0.5-1.9-1-3.4-1
		c-0.5,0-1,0-1.7,0.1l-1.4,0.2l-0.7,1.2c-1.8,3.2-2.4,8.5-2,12.7c-1.3,1.3-2.8,2.7-4.5,3.4c-1.3-2.6-0.8-6.3-0.4-9.8
		c0.2-1.4,0.3-2.6,0.4-3.9l0.1-1.3l-0.9-0.9c-2.1-2.3-4.7-3.4-7.5-3.4c-6.4,0-11.7,6.3-13.8,10l-0.1,0.2l-2.3,6.1
		c-0.9,1.1-2.7,1.9-4.4,2.8c-0.3,0.1-0.5,0.2-0.7,0.4c-0.3-0.2-0.6-0.6-0.8-1c-0.6-1-0.8-2.1-0.5-2.8l0.4-1.1
		c6.7-19.3,8.6-30.3,5.9-35.7h36.4v-25h-263v27H160c-4.6,5.8-6.8,11.9-8.3,18.5l0,0.2l-1.1,10.7c-0.3,0.4-0.9,1-1.4,1.5
		c-2.4,2.5-5.2,5.4-4.7,8.5c0.2,1.4,1,2.6,2.4,3.4c0.8,0.5,1.6,0.7,2.5,0.7c0.8,0,1.5-0.2,2.1-0.5c0.5,3.3,1.6,6.7,4.7,8.3l0.5,0.2
		l4.1,0.5l1-1c2.3-2.3,4.2-5.8,5.7-9.5c0,0,0,0.1,0.1,0.1c1.9,3.8,3.5,7.1,7.5,7.1c2.2,0,4.8-1.1,8.8-3.5l2,2.6l0.3,0.2
		c1.7,1.3,4,2,6.5,2c4,0,7.8-1.7,9.9-4.3c0.4,0,0.8,0,1.3,0.1c0.7,0.1,1.4,0.1,2.2,0.1c0.8,0,1.6-0.1,2.3-0.2l0.2,0l2.2-0.8
		c2.3,3.7,5.4,4.6,7.9,4.6c4.8,0,9.9-3.5,13.5-6.4l0.6,1.3l0.2,0.2c1.7,2.3,4.2,3.5,7.2,3.5c2.1,0,4.3-0.6,6.2-1.3
		c0.6,2.3,1.7,5.4,5.8,6.2c0.6,0.2,1.3,0.3,1.9,0.3c0,0,0,0,0,0c4.4,0,8.3-4.3,10.4-7.6c2,1.8,4.1,2.9,6.6,2.9c2,0,4.1-0.7,6.5-1.9
		l2,2.5l1.1,0.2c0.7,0.2,1.5,0.2,2.2,0.2c4.1,0,7.5-2.3,9.8-5.2c1.5,2.3,3.7,4.2,6.9,4.2c2.7,0,5.3-1.4,8.2-2.9
		c0.5-0.3,1-0.5,1.6-0.8c0,0,0,0,0,0c1.1,0.9,2.9,2.5,5.6,2.5c0.4,0,0.9,0,1.3-0.1c3.9-0.7,7.2-3.2,9.7-6.2c0,1.1,0,2.1,0,3
		c-1,1.1-2.1,2.1-3.1,3.1c-4.8,4.7-9.9,9.6-12.4,17.6c-2,6.5-0.4,14.9,5.6,17.4c0.5,0.2,1,0.4,1.5,0.5c-1.3,1-2.6,2-3.8,3.1
		c-4.7,3.8-9.6,7.7-14.5,11.4L281,188.1v-5.5h-6.7l-0.3,2.7c0,0.1,0,0.1,0,0.2h-94.7c2.1-1.3,3.9-3.1,5.1-5.2c0.9,1,2,1.9,3.6,2.4
		c0.9,0.3,1.9,0.4,2.9,0.4c3.9,0,7.7-2.2,10.7-4.7c1.4,2.6,4.4,4.5,8.1,5.3c0.9,0.2,1.8,0.3,2.9,0.3c5.6,0,13.8-2.7,18.5-6.8
		c0.2,1,0.5,1.8,0.9,2.3c0.7,1,2.2,2.3,4.9,2.3l1.2,0l0.9-0.8l0.4-0.3c1.6-1.4,2.8-2.7,2.8-6.3l0-0.9l-1.4-2.2c2-1.9,2.1-5,2.2-7.7
		c0-1,0.1-1.9,0.2-2.7l0.4-2.2c1.3-7.7,3.3-19.4,2-25.6l-0.4-1.6l-4.8-1.8l-1.3,0.8c-3.3,2.1-4.3,8.4-5.5,22.7
		c-0.3,3.3-0.5,6.4-0.9,8.1c-0.3,1.4-0.7,3.6-0.5,5.6l-0.9-0.7l-1.2,0.1c-2.8,0.3-5,1.8-6.9,3.3c-0.1-0.4-0.2-0.7-0.3-1
		c-1-2.9-3-4.9-4.8-6.6c-1.3-1.3-2.4-2.4-3-3.7c-0.2-0.4-0.2-1.4-0.3-2.1c-0.1-1.1-0.2-2.3-0.6-3.4l-0.7-1.6l-6.3-0.6l-1,1.6
		c-1.1,1.7-1.7,3.7-2.2,5.6c-0.3,1.2-0.7,2.2-1.1,3.2c-2.2,5-6.4,9.3-11.3,11.6c-0.8-0.9-1.3-1.8-1.5-2.9c-0.3-1.1,0.7-3.1,1.4-4.6
		c0.4-0.9,0.9-1.8,1.1-2.7l0-0.1l4.1-17.7c0.6-2.8,1.6-9.6-1.1-13.7c-1-1.5-2.4-2.4-4-2.8c-0.5-0.2-1.1-0.2-1.6-0.2
		c-1.1,0-2.8,0.4-4.5,2c-4.4,4.5-6,16.7-6.2,23.1c-5.7,1.8-9.1,4.3-11.6,11.1l0,0.1l-1.3,4.7c-1.1,1.1-2.6,1.9-4.2,2.8
		c-0.4,0.2-0.8,0.4-1.2,0.6c-1.5-4.1-0.6-9.3,0.2-12.3l0.3-1.1l-0.5-1c-1.6-3.1-4.4-4.8-7.9-4.8c-2.8,0-5.9,1.1-8.5,3
		c-3,2.2-4.3,5.2-5.4,7.9c-0.6,1.5-1.2,2.9-2.1,4.1c-1.4,2.1-4.9,4.5-7.7,4.5c-0.6,0-1.2-0.1-1.6-0.4c0.2-0.3,0.5-0.6,0.7-0.9
		c3.3-4.4,7-9.4,5.2-18l-0.2-1.1l-0.9-0.7c-1.6-1.2-3.2-2-4.7-2.2c3.4-7.7,4.3-18.7,4.3-25.3c0.8-0.8,1.9-1.6,3.1-2.4
		c3-2.2,6.5-4.8,7.4-8.9l0.2-0.8l-0.8-2.4l-0.8-0.6c-0.1-0.1-0.2-0.2-0.3-0.2c-1.1-0.8-2-1.2-4-1.3l-1.2,0l-4.3,3.8l0-0.3l-3.5-15.4
		l-1.3-0.6c-1-0.5-1.9-0.7-3-0.7c-0.6,0-1.2,0.1-1.9,0.2l-1.4,0.3l-0.6,1.3c-0.4,0.8-0.9,2.2-1.6,3.9c-3.7,9.9-5.8,12.6-6.8,13
		c-0.6-1.5,0-6.2,0.2-8.3c0.3-2.1,0.5-3.8,0.4-5.1l-0.1-1.5l-1.3-0.8c-1.2-0.8-2.2-1.2-4.2-1.2l-1.9,0l-0.9,1.3
		c-2.2,3.2-2.5,8.1-2.5,12.6c-0.7,0.6-1.3,1.1-2.1,1.6c-0.1-1.3-0.3-2.6-0.9-3.7c-1.1-2.1-2.4-3.5-3.5-4.8c-1.8-2.1-3.2-3.7-3.6-7.8
		l-0.2-1.4l-2.5-1.6l-4-0.5l-1,0.9c-2.1,1.8-2.8,4.5-3.5,6.9c-0.3,1.2-0.6,2.3-1.1,3.1c-2.6,4.9-6.5,8.8-10.9,11
		c-1.3-2.5-0.7-6.8-0.2-10.4c0.1-1.1,0.3-2.1,0.4-3l0.1-1.3l-0.9-1c-2.2-2.4-4.8-3.6-7.7-3.6c-5,0-10.2,3.8-13.6,9.9
		c-0.9-2.8-2.6-5-5-6.6c-1.8-1.2-3.8-1.7-5.9-1.7c-1.3,0-2.5,0.2-3.7,0.7l0.6-1c0.6-1,1-1.8,1-3.6l0-1.1l-0.6-0.9
		c-0.5-0.6-1-1.2-1.5-1.7c0.7,0.3,1.4,0.5,2.2,0.7c0.9,0.2,1.8,0.3,2.7,0.3c0,0,0,0,0,0c4.1,0,7.9-1.9,10.5-5.3
		c2.8-3.7,3.8-8.6,2.6-13.1c-2-7.4-7.9-11.6-16.4-11.6c-0.3,0-0.7,0-1,0l-0.4,0l-7.4,2.4l-0.3,0.2c-4.7,2.8-7.7,6.9-8.7,11.9
		c-1.1,5.1,0,10.8,3.1,16c-0.5,0.3-1.1,0.7-1.5,1c-2.2,1.4,0.8-1.1-1.3,1.3l0.8-74.5L450.8,16.2z M15.2,121.4
		c0.2,0.3,0.4,0.5,0.6,0.8c4,5.1,4.2,6.7,10.9,6.7c4.2,0,8.3-1.2,11.8-3.5c1.9-1.3,3.7-3.3,5.1-5.6c0.4,1.4,1.1,2.6,1.9,3.8l0.6,0.8
		l1,0.3c0.9,0.2,1.9,0.4,2.8,0.4c4,0,7.5-2.2,9.9-5c0.8,1.4,1.9,2.9,3.9,3.8c1.1,0.5,2.2,0.7,3.5,0.7c0,0,0,0,0,0
		c3.6,0,7.4-2.1,10.7-4.9c1.5,3.7,4.9,5.7,9.7,5.7c5.8,0,13-3,17.1-5.3c2.1,1.9,4.3,2.8,6.5,2.8h0c4.5,0,7.8-3.9,10.3-7.4
		c0.1,1,0.1,2,0.2,2.9c0,0.3,0,0.7,0,1c-6.2,5.7-12.7,11.5-15.6,21c-1.3,4.2-1.2,9.1,0.7,12.8l-4-2.3l-4.2,0.6l-0.7,1.3
		c-1.1,2-2,4.3-2.8,6.5c-2,5.2-3.5,8.8-6.7,10.2c0.3-3.6,0-7.4-3.3-9.9l-0.4-0.3l-0.5-0.2c-1.2-0.4-2.3-0.5-3.2-0.5
		c-0.1,0-0.1,0-0.2,0c6.2-11.8,7.7-21.5,4.3-28.8l-0.6-1.3l-5.8-1.3l-1.1,0.7c-8.3,5.7-10.8,17.8-13,28.5l-0.3,1.4l-0.7,8.7
		c-0.2,0.4-0.6,0.8-1.2,1.4c-1.1,1-2.6,2.5-3.1,4.9l-0.4,1.6l3.1,3.1l0.6,0.2c0.6,0.2,1.2,0.3,1.9,0.3c0.1,0,0.2,0,0.3,0
		c1.2,2.9,3.3,6.1,6.2,7.8H17.7v14v1.8v10.2v3.8v10.2v1.8v14h225.1v-15.8h-15.3v-10.2h28.1v-11.5l11.4,0.2c-3,9.2-3.3,24.3,2.3,31.3
		c4.2,5.3,12.2,6.7,19.9,8.1c2.5,0.4,4.8,0.8,6.9,1.4l20.5,4.8h-297v298h228L247,782l-234-0.7L15.2,121.4z"/>
	<rect x="17.5" y="19.5" width="41" height="21"/>
	<rect x="62.5" y="22.5" width="194" height="20"/>
	<polygon points="424,346.4 434.9,346.4 434.9,333.6 423,333.6 423,324.9 417.8,324.9 417.8,314.8 391.7,314.8 391.7,324.9 
		391.7,327.6 391.7,333.6 391.7,337.6 391.7,342.4 391.7,346.4 391.7,350.5 391.7,355.1 391.7,363.2 444.7,363.2 444.7,350.5 
		424,350.5 	"/>
	<polygon points="432.3,404.5 443.5,404.5 443.5,391.7 420.8,391.7 420.8,386.9 426.9,386.9 426.9,374.2 423.7,374.2 423.7,364.2 
		391.7,364.2 391.7,374.2 391.7,376.9 391.7,383 391.7,386.9 391.7,391.7 391.7,395.7 391.7,399.8 391.7,404.5 391.7,412.6 
		432.3,412.6 	"/>
	<polygon points="423.7,415.5 391.7,415.5 391.7,425.6 391.7,428.2 391.7,434.3 391.7,438.3 391.7,443.1 391.7,447 391.7,453.8 
		391.7,455.8 391.7,463.9 391.7,466.6 391.7,472.6 391.7,476.6 391.7,485.4 414.7,485.4 414.7,476.6 423.2,476.6 423.2,466.6 
		423.7,466.6 423.7,456.2 443.7,456.2 443.7,455.2 423.7,455.2 423.7,453.8 418.4,453.8 418.4,447 437.6,447 437.6,438.3 444,438.3 
		444,425.6 423.7,425.6 	"/>
	<polygon points="360.1,374.2 380.3,374.2 380.3,361.2 364.4,361.2 364.4,352.2 384.3,352.2 384.3,351.2 334,351.2 334,352.2 
		331.7,352.2 331.7,361.2 331.7,365.2 331.7,369.5 331.7,374.2 331.7,382.6 360.1,382.6 	"/>
	<polygon points="383,400.9 362.4,400.9 362.4,395.8 364.4,395.8 364.4,384.2 331.7,384.2 331.7,392.9 331.7,395.8 331.7,400.9 
		331.7,405.5 331.7,413.6 383,413.6 	"/>
	<polygon points="383,435.8 383.1,435.8 383.1,423.6 364.4,423.6 364.4,415.2 384.3,415.2 384.3,414.2 334,414.2 334,415.2 
		331.7,415.2 331.7,423.6 331.7,426.4 331.7,431.3 331.7,435.8 331.7,443.6 383,443.6 	"/>
	<polygon points="372.7,458.1 384.4,458.1 384.4,445.9 331.7,445.9 331.7,453.7 331.7,458.1 331.7,465.9 372.7,465.9 	"/>
	<polygon points="365.3,467.9 331.7,467.9 331.7,475.7 331.7,480.1 331.7,487.9 366.5,487.9 366.5,475.7 365.3,475.7 	"/>
	<rect x="448.3" y="294.2" width="155.9" height="149.4"/>
	<rect x="448.3" y="446.1" width="155.9" height="43.4"/>
	<rect x="18.3" y="681.5" width="221.7" height="97.4"/>
	<rect x="334" y="382.8" width="50.3" height="1"/>
	<rect x="393.3" y="413.8" width="50.3" height="1"/>
	<rect x="393.3" y="486.5" width="50.3" height="1"/>
	<rect x="333.3" y="443.8" width="50.3" height="1"/>
	<rect x="334.3" y="466.8" width="50.3" height="1"/>
	<polygon points="194.1,667.8 194.1,666.8 239,666.8 239,665.8 194.1,665.8 194.1,653.8 237.1,653.8 237.1,634.1 206.1,634.1 
		206.1,623.7 131.7,623.7 131.7,634.1 131.7,646.5 131.7,652.7 131.7,653.8 131.7,664.1 131.7,667.8 131.7,679.2 134.3,679.2 
		134.3,679.5 239,679.5 239,678.5 176.2,678.5 176.2,667.8 	"/>
	<polygon points="50.6,679.5 124.3,679.5 124.3,678.5 50.6,678.5 50.6,667.8 70,667.8 70,666.8 124.3,666.8 124.3,665.8 70,665.8 
		70,655.8 108.1,655.8 108.1,654.8 124.3,654.8 124.3,653.8 108.1,653.8 108.1,643.8 110.4,643.8 110.4,643.5 124.3,643.5 
		124.3,642.5 110.4,642.5 110.4,630.8 124.3,630.8 124.3,629.8 110.4,629.8 110.4,628.7 80,628.7 80,619.2 115.9,619.2 115.9,618.8 
		123.7,618.8 123.7,617.8 115.9,617.8 115.9,606.8 123.7,606.8 123.7,605.8 115.9,605.8 115.9,604.1 84.8,604.1 84.8,584.1 
		131.7,584.1 131.7,604.1 131.7,605.8 131.7,619.2 237.1,619.2 237.1,604.1 206.1,604.1 206.1,583.1 137.9,583.1 137.9,566.6 
		183.3,566.6 183.3,550.8 18.3,550.8 18.3,564.2 18.3,566.6 18.3,583.1 18.3,584.1 18.3,604.1 18.3,605.8 18.3,616.1 18.3,619.2 
		18.3,628.7 18.3,631.2 18.3,640.7 18.3,643.8 18.3,652.7 18.3,655.8 18.3,665.4 18.3,667.8 18.3,680.6 50.6,680.6 	"/>
</g>
</svg>
