<?xml version="1.0" encoding="utf-8"?>
<!-- Generator: Adobe Illustrator 18.0.0, SVG Export Plug-In . SVG Version: 6.00 Build 0)  -->
<?xml-stylesheet type="text/css" href="css/svg.css" ?>

<svg version="1.2" baseProfile="tiny" id="scan_5_xA0_Image_1_"
	 xmlns="http://www.w3.org/2000/svg" xmlns:xlink="http://www.w3.org/1999/xlink" x="0px" y="0px" viewBox="0 0 1238.4 815.8"
	 xml:space="preserve">
<g>
	<path d="M796.8,706.1c-1.3,0-2.7,0.1-3.9,0.4c-1.2-3-2.8-12.5-3.9-19.5l9.7-9.7h-11.2c-0.1-0.4-0.1-0.7-0.2-0.9
		c-2.3-11.1-5.5-19.5-9.5-28.7c-2.7-6.2-5.7-10.9-9.4-14.8c-2.8-3-2.2-3.7,0.2-6.8c0.8-1,1.7-2.1,2.5-3.4c6-9.2,4.9-16.2,3.4-25.8
		l-0.2-1.3c0-0.1,0-0.1,0-0.2l1.4,0.8l0.3,0.1c0.5,0.1,1,0.1,1.4,0.1c2.1,0,3.8-1,4.7-2.8c0.7-1.3,1-3,1-5c0-0.1-0.4-10.6-3.9-10.6
		c-2.7,0-5.4,0.7-7.9,2c-0.1-0.2-0.2-0.5-0.2-0.7c-0.9-2.5-1.1-3,1.2-6.4c2.7-4,4.6-8.5,6.5-12.8c3.8-8.7,3.4-17.3-1.1-24.2
		c-4.3-6.6-12-10.6-20.2-10.6c-8.1,0-15.7,3.9-21.4,11c-0.2,0.2-0.7,0.9-2.5,0.9c-3,0-7.5-1.7-11.7-3.3c-4-1.5-7.7-2.9-10.7-3.2
		c-1.6-0.1-2.7-0.3-3.6-0.4c-1.1-0.1-1.8-0.2-2.4-0.2c-1.3,0-2,0.4-3.1,1c-0.7,0.4-1.7,0.9-3.5,1.7c-2.8,1.2-12.4,4.7-17.3,4.7
		c-1.2,0-1.5-0.2-1.5-0.2c-4.3-4.1-7-6.6-13.7-8.3c-5-1.3-10.3-2-14.9-2c-8.5,0-14.6,2.3-17.7,6.8c-2.8,4.1-2.8,9.7-0.1,16.7
		c1.3,3.4,4.5,6.3,7.5,9c5.6,5,8.8,8.5,7,13.6l-0.6,1.9c-2.8,8.2-6.3,18.4-6.3,26.8c0,9.3,5.1,16.7,10.2,22.6
		c5,5.9,4.2,7.1,1.3,10.9c-1.3,1.8-3,4-4.4,7.2c-1.8,4-3.2,8.4-4.6,12.7c-2.1,6.4-4.3,13-7.6,18.5c-0.7,1.2-1.6,2.3-2.5,3.6
		c-2.8,3.8-5.9,8.2-5.9,13.3v0.3c0,6.1,0,13.5-1.9,19.2c-0.4,0.1-0.9,0.2-1.3,0.2c-6.7,1.2-14.2,2.6-18.9,9.4
		c-6.5,9.5-3,24.4,3,34.1c4.3,7,9.6,7.6,14.8,8.1c2.5,0.2,5,0.5,7.7,1.4c0.8,0.3,1.6,3.3,2.2,5.2c1.3,4.6,3,10.9,8.8,13.3
		c2.4,1,4.9,1.5,8,1.5c1.2,0,2.4-0.1,3.6-0.1c1.1-0.1,2.2-0.1,3.3-0.1c1.7,0,3.1,0.2,4.4,0.5c3,0.9,7.5,1.3,12.7,1.3
		c6.3,0,14.9-0.8,20-2.9c11.8-4.9,10.8-16.5,10-26.8c-0.3-3.5-0.5-6.9-0.3-9.8c1.2,0,2.5,0,3.8,0c5.3,0,10.7-0.2,16-0.4
		c-3.7,10.9-7.3,24.8-2.3,32.7c6.2,9.7,31.6,9.8,32.7,9.8c5.9,0,14.8-0.7,20.2-2.1c8.5-2.2,13.5-5.9,15.3-11.3
		c0.5-1.5,0.6-2.9,0.8-4.2c0.3-2.7,0.5-4.1,2.2-5c19.4-10.1,27-26.1,21.9-46.3C812.4,711.2,805.2,706.1,796.8,706.1z"/>
	<path d="M1243.3,567.5c0-15.2-0.4-30.7-0.8-45.6c-0.4-16.1-0.9-32.7-0.8-49c0-2-0.8-3.9-2.3-5.4c-4.1-4.1-13.7-6.1-29.5-6.1
		c-17.2,0-34.9,2.5-35.1,2.5c-2.8,0.4-6,0.6-9.9,0.6c-2.9,0-6-0.1-8.9-0.2c-3-0.1-6.1-0.2-9.2-0.2c-5.2,0-11.7,0.3-17.8,2.1
		c1.1-10.4,1.9-21,2.7-31.3c0.4-5,0.8-10.1,1.2-15.1c0.7-8.3,1.7-16.9,2.8-25.2c0.5-3.8,0.9-7.7,1.4-11.6l7.6,4.3l0.8-2.2
		c2.3-5.8,2.2-11.2-0.3-14.8c-1.5-2.2-3.7-3.4-6.1-3.4c-0.2,0-0.3,0-0.5,0c0.5-6.4,0.8-12.7,0.8-19c0-22.8-17.9-24-33.7-25
		c-2.1-0.1-4.3-0.3-6.3-0.5c-4.3-0.4-8.5-1.7-12.4-3c-4.1-1.3-8.4-2.7-12.9-3.1c-5.4-0.4-10.8-1.1-16.1-1.7
		c-9.3-1.1-18.9-2.2-28.5-2.2c-0.3,0-0.6,0-1,0c2.5-4,4.6-8.2,6.4-12.3c5.9,4.2,11.4,6,17.8,6c4.9,0,9.9-1.1,15.7-2.3
		c1.4-0.3,3-0.6,4.5-0.9c4.2-0.8,8.6-1.4,12.9-2c2.2-0.3,4.3-0.6,6.5-0.9c6.4-1,13-2.1,19.4-3.2c10.5-1.9,21.4-3.8,32-4.8
		c0.7-0.1,1.3-0.1,1.9-0.1c1.8,0,3,0.3,3.5,0.9c1,1.2,0.6,4.1,0.1,7.2c-0.3,2.2-0.7,4.7-0.6,7.3l0.4,26.5c0,1.4-0.2,3.4-0.4,5.7
		c-0.8,8.5-1.9,20.2,5.4,22.5c0.5,0.2,1.1,0.2,1.6,0.2c2.8,0,6.1-1.9,8.2-4.4c1.2,1.2,2.9,1.9,4.9,1.9c3,0,6.2-1.7,8.2-4.4
		c3.8-5.1,1-13.7-1.1-20.7c-0.8-2.4-1.5-4.6-1.8-6.3c-0.3-1.7-0.8-3.9-1.5-6.5c-2.3-9.3-6.1-24.9-1.9-30.6c1-1.3,2.3-1.9,4.1-2.1
		c7.4-0.4,14.9-1.4,22.1-2.4c3.2-0.4,6.6-0.9,9.8-1.3c6.6-0.8,11.9-2.9,17.6-5.1c2.2-0.9,4.4-1.7,6.7-2.6c-0.8,4-4.7,6.6-10.7,10
		c-5.2,3-10.6,6-12.4,11.4c-1,2.9-0.9,5.2,0.4,6.9c0.8,1.1,2.4,2.3,5.5,2.3c2.8,0,6.2-1,8.9-2.3c0.1,1.6,0.6,3.1,1.5,4.5
		c1.6,2.3,4.2,3.7,7,3.7c2,0,4-0.7,5.7-2l0.3-0.2l0.2-0.3c8-13.5,7.2-31.3,6.4-47c-0.2-4.6-0.4-8.9-0.4-12.9c-0.1-9.4,0-18.9,0-28.2
		c0-4.7,0-9.4,0-14.1v-68.3c0-13.2-0.3-20-7.4-31.8c-3.6-6-5.5-14.2-7.4-22.1c-0.8-3.6-1.6-7-2.6-10.1l-1.5-5.1
		c-5.7-19.1-11.6-38.8-16.4-58.5c-0.2-0.9-0.4-1.8-0.6-2.6c-1.2-5.2-2-8.6-4.2-11c-2.5-2.8-6.4-3.4-11.4-3.4c-0.8,0-1.6,0-2.6,0
		c-1.5,0.1-2.8,0.7-3.6,1.9c-2.5,3.6,0.1,11.5,2.9,19.2c0.4,1.1,0.7,2,0.9,2.5c2.2,8,4.3,16,5.8,22.1c0.5,2.1,0.6,4.5,0.8,7
		c0.2,4.1,0.4,8.3,2.4,11.9c3.6,6.3,5.5,13.1,7.6,20.3c0.5,1.7,1,3.4,1.5,5.1c1,3.4,2.2,6.9,3.4,10.6c3.4,10.1,6.9,20.5,7.2,30.2
		c-12.3,1.8-27.3,2.7-44.6,2.7c-9.9,0-20.7-0.3-32.3-0.9c-0.7,0-1.3-0.1-2-0.1c2.2-2.1,3.8-5.7,5.2-8.9c0.5-1.2,1-2.4,1.5-3.2
		l1.5-2.8l-3.1-0.2c-1-0.1-2.2-0.2-3.4-0.4c-2-0.3-4.2-0.6-6.3-0.6c-2.4,0-4.3,0.5-5.7,1.4c-2.1,1.4-3,3.5-2.7,6.1
		c0.4,3.2,2.8,6.7,5.3,8.6c-9.7,0.2-19.5,1.4-29,2.5c-10.6,1.2-21.5,2.5-32.2,2.5c-5.1,0-9.8-0.3-14.3-0.9c0.9-1.6,2.8-3.8,3.9-5.2
		c1.6-1.9,2.9-3.5,3.6-4.9c2.5-5.4,4.4-10.9,5.5-16l4.8-22.6c2.2-10.3,5.2-20.7,8.1-30.8c1.9-6.4,3.8-13.1,5.5-19.6
		c0.5-1.8,1.4-4.5,2.6-7.7c3.3-9.1,7.4-20.5,4.9-26l0-0.1l0-0.1c-2.3-4-13.6-4.8-17.8-4.8c-8.2,0-9.4,2.2-9.8,2.9
		c-3.1,5.3-4.7,11.5-6.2,17.6c-0.7,2.6-1.3,5.1-2.1,7.5c-3,9.6-6.5,19.3-9.9,28.7c-5.6,15.5-11.4,31.5-15.2,47.8
		c-2.3,9.6-3.6,17.1,0.1,25.9c1.1,2.6,0.4,4.7-0.5,7.3c-0.8,2.4-1.8,5.2-1.2,8.6c-0.2,4.7,0.6,10.3,1.2,15.3
		c0.2,1.2,0.3,2.3,0.5,3.4c0.3,2.1-0.6,4.8-1.5,7.6c-0.9,2.8-1.9,5.7-1.9,8.7c0,8-1.6,16.2-3.2,24.1c-0.5,2.7-1.1,5.5-1.6,8.2
		c-2,11.6-2.1,23.6-2.1,35.2c0,5.8,0,11.3-0.3,16.7c-0.1,2.1-0.8,4.3-1.5,6.7c-1.1,3.7-2.3,7.4-1.4,11.2c2.3,9.3-4.3,20.3-11.7,28.9
		c1.5-37.8-0.8-72.3-3.2-104.5c-0.2-2.2-0.3-4.5-0.5-6.8c-1-14.7-2-30.9-8.1-44l2.7,1.6l0.3,0.1c0.6,0.1,1.1,0.2,1.6,0.2
		c2.9,0,5.3-2,6.6-5.4c1.4-3.9,1.3-9.6-1.4-11.9c-1-0.8-2.2-1.3-3.6-1.3c-4.2,0-9.2,4-12.1,7.2c-4.9-5.7-12.4-8-19.6-10.1
		c-10.3-3.1-19.2-5.7-19.2-17.5c0-12-2.3-29.1-8.6-40.7c-1.6-2.9-3.5-5.2-5.4-7.4c-2.1-2.5-4.1-4.8-5.6-8
		c-5.6-13-14.1-32.6-33.1-35.8c-2.2-0.4-4.5-0.5-6.8-0.5c-16.3,0-33,8.7-40.5,21.1c-3.5,5.8-6,12-8.4,18.1
		c-1.5,3.9-3.1,7.8-4.9,11.6c-1.9,3.9-4.9,6.7-8,9.7c-2.7,2.5-5.4,5.2-7.6,8.6c-4.8,7.4-5.9,15.6-7,23.6c-0.5,3.7-1,7.5-1.9,11.2
		c-0.7,2.8-0.9,5.3-1.2,7.8c-0.4,3.7-0.8,7.2-2.5,11.1c-1.5,3.3-1.7,5.7-0.6,7.4c0.5,0.8,1.6,1.8,3.8,1.8c3.5,0,8.9-2.8,12-5.6
		c2.7,4.2,0.7,7.3-3.3,12.7c-2.2,3-4.8,6.4-6.1,10.5c-2.6,8.2-3.6,16.8-4.6,25.2c-0.4,3-0.7,6.2-1.2,9.2c-2.6,17.8-2.3,37.3,0.7,55
		c0.5,3.1,0.1,6-0.3,9.2c-0.5,4.1-1.1,8.4,0.4,13c0.5,1.5,0,3.2-0.5,5.2c-0.6,2.3-1.3,5-0.6,7.9c0.6,2.8-0.5,7.4-1.7,11.9
		c-0.9,3.6-1.8,7.3-1.9,10.3c-0.2,6.7-1,13.1-2.4,19.5c-2.6,12.1-3.2,24.8-3.7,37c-0.3,6.7-0.6,13.6-1.2,20.3
		c-0.1,0.6-0.2,1.5-0.4,2.5c-0.9,5.3-2.4,14.3,4.1,16c0.6,0.2,1,0.3,1.3,0.4c-0.6,1.2-1.7,3.3-0.3,6.1l0.1,0.2
		c3.3,6.7,9.4,19.3,16,22.6c6.1,3.1,10.6,4.5,14.1,4.5c4.9,0,7.8-2.7,9.6-6c3.4,11.3,5.6,22,6.9,33.4c0.5,4.5,1.9,8.8,3.2,12.9
		c1.4,4.6,2.8,8.9,3.2,13.6c0.2,2.6,0.7,5.5,1.3,8.6c0.9,5.1,1.8,10.4,1.3,14.1c-1.1,7.6-2,14.5-1.8,21.6
		c0.2,10.2,1.3,20.4,2.3,30.3c1,9.5,2,19.4,2.2,29.1c0.2,7.3,1.6,14.4,2.9,21.2c0.8,3.9,1.6,7.9,2.1,12l0.1,0.5l0.3,0.4
		c3,4.2,8.5,4.7,13.5,4.7c1,0,2.1,0,3.1,0c0.9,0,1.9,0,2.7,0c1.1,0,2.6,0.1,4.4,0.3c2.5,0.2,5.5,0.4,8.5,0.4c2.5,0,9,0,12.2-3.2
		c2.1,1.4,6.6,2.8,18.4,2.8c6.5,0,13.4-0.4,18.5-0.7c2.8-0.2,5-0.3,6.4-0.3c3.5,0,5.7-5.3,10.6-37.4c0.4-2.6,0.7-4.6,0.9-5.4
		c1.3-6.3,3.2-12.8,5.2-19.7c4-13.2,8.1-26.9,7-40c-0.7-9.5,0.7-19.3,2.1-28.7c0.9-5.9,1.7-12,2.1-18c0.3-4.4,0.6-9,0.9-13.4
		c0.9-12.4,1.9-25.3,1.5-37.8c-0.2-6.8,0.2-13.8,0.7-20.7c0.4-5.7,0.7-11.7,0.7-17.5c0-1.6-0.1-3.4-0.2-5.1
		c-0.2-4.8-0.5-9.8,1.2-13.8c2-4.9,4.3-7.9,7-11.4c1.9-2.5,3.8-5,5.8-8.4c1.5-2.4,3-3.9,4.3-5.2c2.7-2.6,5.1-4.9,4.4-12.4
		c-0.7-7.5-0.6-11,1.2-14.4c-0.4,3.5-0.4,7-0.5,10.1c-0.7,43.5-3.2,80.8-7.5,114.1c-0.2,1.2-0.3,2.4-0.5,3.7
		c-1.7,12.3-3.7,27.5,0.4,39.4c3.5,10.2,12,11.5,20,11.5c2.1,0,4.2-0.1,6.3-0.2c2.1-0.1,4-0.2,5.9-0.2c2.8,0,5,0.2,6.8,0.7
		c1.6,1.3,2.7,2.8,3.8,4.2c2.4,3.2,4.9,6.4,11.1,7c6.5,0.6,12.3,0.9,17.5,0.9c1.9,0,3.5-0.7,4.9-1.3c1.1-0.5,2.2-0.9,3.2-1l0.1,0
		l0.1,0c0.4-0.1,0.9-0.1,1.4-0.1c2,0,4.3,0.5,6.8,0.9c2.6,0.5,5.3,1,7.9,1.1c-5.4,16.5-18.9,45.5-36.4,52.3c-5.1,2-11.6,2.5-18.5,3
		c-11,0.8-22.4,1.7-28.6,9.1c-3.7,4.5-5,10.8-4,19.2c1.5,12.2,14.9,22.5,38.8,29.8c13.9,4.2,28.5,6.6,39.3,7.7l0,0.4l4,0.3l0.1-0.4
		c1.6,0.1,3,0.2,4.3,0.3l0.5,0.6l0.3-0.2c0.2-0.1,0.3-0.2,0.5-0.3c0,0,0.1,0,0.1,0h0.1l0.1,0l0,0h0.4l0.4,0.5l0.3-0.2
		c0.2-0.1,0.3-0.2,0.5-0.3h0.6h0.5l14.1,7l-2.5-7.4c8.7-0.5,17.4-1.3,25.8-2.1c9.4-0.9,19.2-1.9,28.8-2.3c0.4,0,0.8,0,1.3,0
		c3.5,0,8.1,0.5,12.9,1.1c5.7,0.6,12.2,1.4,18.2,1.4c13.4,0,21.4-3.9,24.4-11.8c4.4-11.6,9.4-24.1,15.8-39.4
		c3-7.1,2.8-13.9,2.6-21.2C1243.3,571.1,1243.3,569.3,1243.3,567.5z M913.5,628.9c0-0.2,0-0.4-0.1-0.6c-0.1-1.2-0.3-2.4-0.4-3.5
		l0-0.3c-0.7-13.9-1.3-28.3-0.7-42.2c0.2-4.8-0.1-10.2-0.4-15.5c-0.5-7.4-0.9-15.1,0.1-21.3c3.3-20,1.9-40.8,0.4-60.9
		c-1.2-16.3-2.4-33.1-1-49.5c8.3,24.3,11.6,48.4,13.8,69.2c0.3,2.5,0.6,5.2,1,8.1c1.6,11.5,3.5,25.9-0.4,34.2
		c-4.9,10.3-5.2,24.1-5.5,36.3c-0.1,2.8-0.1,5.4-0.2,7.9l-1.2,26.4c-0.1,1.9-2.6,6.4-4.6,10C914.1,627.9,913.8,628.4,913.5,628.9z"
		/>
	<path d="M604.7,676.7c0.8-6,1.5-11.2,5.9-14.8c2.1-1.7,4-4.5,5.8-7.1c2.3-3.3,4.8-7.1,7-7.1h1l0.6-0.8c0.4-0.5,0.9-0.9,1.6-1.4
		c1.8-1.5,4.4-3.5,4.7-8.1c0.3-3.5-1.4-6.1-2.9-8.4c-1.3-2-2.5-3.8-2.8-6.4c-0.4-4.7-2.4-9.1-4.3-13c5-5.9,4.6-21.8,4.1-25.8
		c-0.2-2.1-1.4-3.2-3.5-3.3c0-0.3,0.1-0.7,0.2-1.2c0.3-1.9,0.7-3.7,1.1-5.6c0.4-1.8,0.8-3.7,1.1-5.6c2-11,3.6-21.7,1.6-32.3
		l-0.1-0.4l-0.2-0.3c-2-3-4.2-4.1-7.8-5c-3.2-0.8-3.3-2.1-2.3-7.3c0.3-1.7,0.6-3.6,0.7-5.5c0.2-12.8,1-25.2,2.4-37.1
		c1.3-10.8,1.8-21.7,2.4-32.3c0.3-5.6,0.6-11.3,1-17c3-19.1,0.7-35.6-1.8-53.1c-1.1-8-2.3-16.2-2.9-24.7c0,0,0.1,0,0.1,0
		c2,0,13.3-0.5,20.1-2.3l-0.3,41.5c-0.1,14.7-1,30.2-2.6,47.3c-0.8,7.9-0.9,15.7-0.9,23.3c-0.1,8.7-0.2,17.7-1.3,26.6
		c-1.2,9.2-1.3,14.1,1.3,17.3c2.3,3,6.5,3.8,12.5,4.4c0.2,1.1,0.8,2,1.5,2.8c1.8,1.9,4.9,2.8,9.5,2.8c5.6,0,12.1-1.4,16-2.2
		c0,0,0.1,0,0.1,0c0,0.3,0,0.6,0,0.9l0,1.1l1,0.6c1.4,0.9,2.8,1.3,4.3,1.3c2.5,0,4.9-1.3,6.5-3.6c1.5,0.9,2.9,1.3,4.4,1.3
		c2.3,0,4.5-1.1,6.8-3.2c1.1,0.3,3,0.7,6,0.7c3.7,0,8.4-0.5,11.5-1.4c1,2.2,3.1,2.4,3.8,2.4c3.6,0,8.2-3.8,9.5-4.9
		c0.6-0.6,1-0.6,1.3-0.6c0.6,0,1.3,0.3,2.2,0.7c1.4,0.6,3.1,1.4,5.3,1.4l0.1,0c2.6,0,3.9-1.5,4.7-2.4c0.7-0.8,1-1.2,2.2-1.2
		c0.4,0,0.8,0,1.2,0.1c2,0.3,2.8,1,4,1.9c1,0.8,2.3,1.8,4.5,2.6l0.3,0.1l0.3,0c0.2,0,0.4,0,0.6,0c2.6,0,5.1-1.1,7.4-2.2
		c1.1,3.6,3.9,4,5.2,4c2.8,0,6-1.7,8.3-3c0.5-0.3,1-0.5,1.3-0.7c0.3-0.1,0.6-0.2,1.1-0.2c1.2,0,2.9,0.5,4.6,1
		c2.2,0.6,4.8,1.4,7.4,1.4c1,0,1.9-0.1,2.8-0.3l1.8-0.4l-2.1-11.6c4.6-4.7,7.1-29.9-1.7-156.1c-0.4-6-0.7-10.3-0.8-12.5
		c-0.6-10.2-1-20.5-1.5-30.5c-2.1-45.5-4.3-92.5-15-137.8c-1.8-7.4-3.7-15.2-6.8-22.9c-0.8-2.1-1-4.1-1.1-6.1
		c-0.1-2.1-0.3-4.2-1.1-6.5l-0.1-0.3l-0.2-0.2c-3.6-5.1-10.8-5.7-15.8-5.7c-2.9,0-5.9,0.2-8.5,0.4c-1.9,0.1-3.7,0.3-5.2,0.3
		l-4.5,0.1c-18.9,0.3-38.4,0.7-57.5,0.7c-10.9,0-12.3,8-13.6,15.1c-0.4,2.4-0.9,4.9-1.7,7.2c-5.9,17.8-12.3,38.9-14.9,61.2
		c-0.3,3-0.7,5.9-0.9,8.8c-0.2-2.7-0.4-5.4-0.6-8.1c-0.6-9-1.3-18.2-1.4-27.4c-0.2-11.5-0.3-25.9-6.1-37.8
		c-6.2-12.8-23.4-15.2-36-17l-1.3-0.2c-1.6-0.2-3.3-0.3-5-0.3c-3.8,0-7.4,0.6-11,1.5c0.5-1.2,0.8-2.6,0.8-3.9c0-2.5-0.9-4.8-2.4-6.6
		c1.7-1.7,3.3-4,4.9-7.1c4.6-8.8,8.9-24.2,5.4-29.2c-2.2-3.2-4.4-4.8-6.8-4.8c-1.5,0-3,0.7-4.2,2c-3.4,3.5-5.7,11.8-7.1,19.9
		c-1.6-1.8-4.5-3.4-9.6-4.2c-2-0.3-4.4-0.5-6.6-0.5c-3.7,0-9.1,0.5-13.2,2.7c-1.4-0.9-3.3-1.4-5.7-1.4c-4.5,0-7.2,1.9-8.8,4.6
		c-0.2-0.7-0.4-1.3-0.8-1.9c-1-1.6-2.8-2.6-5.2-2.8c-1.7-0.1-3.5-0.3-5.2-0.3c-2.2,0-7.9,0-11.2,4c-2.9-2.8-7-4.6-12.5-4.6h-1.5
		l-0.4,1.4c-0.1,0.3-0.2,0.6-0.2,0.9c-2,1.1-3.8,3-5.4,5.4c-1.9,1-3.5,2.3-5,4.4c0.5-4.6-0.6-8.9-5.9-11.5c-1.3-0.6-2.7-1-4.1-1
		c-2.3,0-4.2,0.8-6,1.5c-1.3,0.5-2.5,1-3.5,1c-0.6,0-1.1-0.2-1.6-0.6c-2.1-1.6-4.3-2-6.4-2.3l-0.9-0.1c-0.5-0.1-0.9-0.1-1.4-0.1
		c-1.3,0-2.6,0.3-3.6,0.5c-0.8,0.2-1.6,0.4-2.3,0.4c-0.2,0-0.3,0-0.4,0c-1.4-0.3-2.9-0.4-4.5-0.4c-2.2,0-4.4,0.2-6.4,0.5
		c-0.8,0.1-1.5,0.2-2.2,0.2c-1.1-0.8-2.8-1.2-5.1-1.2c-2.1,0-4.4,0.4-5.5,0.7c-1.5,0.5-2.3,0.7-2.7,0.7c-0.2,0-0.4-0.1-1.1-0.3
		c-0.7-0.2-1.6-0.6-3-1l-0.4-0.1l-0.4,0c-7.2,0.9-13.8,6.8-18,13.7c1.3-4.3,2.9-8.7,4.4-12.9c1.8-4.9,3.5-9.6,4.6-13.8l0.7-2.7
		l-2.8,0.2c-0.5,0-1.1,0-1.8,0c-1,0-2,0-3.1-0.1c-1.3,0-2.6-0.1-3.9-0.1c-1.3,0-3.2,0-5.1,0.2c3-7.5,4.3-16.3,5.2-23.1
		c0.1-0.4,0.1-0.9,0.2-1.3c0.4,0,0.7,0,1.1,0c3.3,0,7.4,0,7.4-6.9c0-0.3,0-0.6-0.1-1c1.9-0.4,3.7-1.3,5.2-2.7
		c-0.4,0.9-0.7,1.9-1.1,2.8c-0.8,2-1.6,3.9-2.2,5.8c-0.2,0.6-0.4,1.3-0.6,1.9c-2.2,6.9-5,15.4-1.3,20.6c2,2.7,5.5,4.1,10.4,4.1
		c4.2,0,9-2.1,11.4-5.1c3.1,3.5,7.4,5.4,12.1,5.4c6.9,0,12.7-3.7,14.9-9.5l0.6-1.7c2.9,6.9,9.9,11.2,18.8,11.3c0,0,0.1,0,0.1,0
		c1.6,0,2.5,0,2.9-0.2c3.2-0.4,5.9-1.5,8.1-3.2c-0.1,0.2-0.1,0.4-0.2,0.6c-0.6,2-1.8,2.9-3.2,4c-1.9,1.4-4.3,3.2-4.5,7.9l-0.1,1.9
		l14.6,1.2h0.1c0.6,0,1.9,0.1,3.3,0.2c2.3,0.2,5.2,0.5,7.6,0.5c2.9,0,4.5-0.4,5.4-1.3c1.5-1.4,1.4-4.1,0.8-6.1
		c-0.6-2.2-1.7-3.6-3.1-3.9c-0.8-0.2-1.5-0.3-2-0.4c-0.1,0-0.1,0-0.2,0c0-0.1,0.1-0.3,0.1-0.4c1.4,0.5,2.9,0.7,4.4,0.7c0,0,0,0,0,0
		c4.4,0,8.7-2,12.5-5.8c0.6-0.6,1.1-1.2,1.6-1.8c0.5,1.1,1,2.1,1.7,3c2.3,3,5.8,4.6,10.1,4.6c1.3,0,3-0.7,4.8-1.5
		c0.8-0.3,2-0.9,2.7-1.1c1.6,1.6,4,2.4,7.2,2.4c1.4,0,2.9-0.1,4.5-0.4c1-0.2,1.9-0.5,2.8-0.9h0.6c0.6,0,1.7,0.1,3,0.2
		c1.9,0.2,4.3,0.4,6.5,0.4c3.7,0,5.7-0.6,6.7-2c3.1-4,3.8-8.6,4.6-13c0.4-2.2,0.7-4.3,1.3-6.3c1.4,1.3,3.3,2,5.5,2c0,0,0,0,0,0
		c0.4,0,0.9,0,1.3-0.1c-0.3,3.1-0.2,6.4,0.8,9.4c1.2,3.6,3.5,6.3,6.6,7.8c1.6,0.8,3.4,1.2,5.4,1.2c1.7,0,3.6-0.3,5.4-1
		c1.4-0.5,2.4-0.7,3.2-0.7c0.8,0,1.2,0.2,2,0.6c1.3,0.6,3,1.5,6.5,1.5c3.7,0,7.8-0.3,10.3-2.9c1.4-1.4,2.1-3.4,2-5.9
		c-0.1-3.2-2.6-3.9-3.8-4.2c-0.3-0.1-0.6-0.2-0.8-0.2c0-0.2,0-0.9,0.6-2.6c2-5.3,3.3-10.8,4.6-16.2c0.5-2.2,1.1-4.5,1.7-6.8
		c0.4-1.5,0.9-2.9,1.3-4.3c1.3-4,2.5-7.5,0.7-10.1c-1.2-1.8-3.5-2.8-7.2-3c-1.1-0.1-2.5-0.1-3.9-0.1c-3.2,0-12.9,0-15.5,8.2
		l-0.8,2.7l2.8-0.1c0.2,0,0.3,0,0.5,0c1.8,0,3.1,0.3,3.5,0.9c0.6,0.8,0.1,2.9-0.4,4.5c-1.2-0.3-2.4-0.4-3.6-0.4
		c-4.7,0-9,1.9-12.4,4.7c-0.2-0.3-0.4-0.6-0.6-0.9c-2.2-2.7-6.6-4.1-13.3-4.1c-6.2,0-12.7,1.2-15.3,1.7c-1.3,0.2-2.3,0.5-3.2,0.9
		c-1.3-0.6-2.7-1-4.2-1c-1.7,0-3.3,0.4-4.9,0.8c-1.3,0.3-2.5,0.6-3.5,0.6c-0.7,0-1.2-0.1-1.7-0.4c-2.4-1.3-4.9-2-7.3-2
		c-5.5,0-10.5,3.5-14.1,8.5c-2.8-5-8.6-7.5-17.2-7.5c-1.1,0-2.2,0-3.5,0.1c-0.1,0-0.3,0-0.5,0c-0.7,0-1.7,0-2.8-0.1
		c-1.5-0.1-3.3-0.1-5-0.1c-4.2,0-6.3,0.4-7.5,1.5c-1.2,1.1-1.9,2.1-2.2,3.2c-3-3.4-7.3-5.6-12.8-5.6c-1.7,0-3.5,0.2-5.4,0.6l-0.2,0
		l-0.2,0.1c-3.6,1.5-6.5,3.4-8.8,5.5c-3.1-5.1-9.5-7-14.7-7c-0.6,0-1.2,0-1.8,0.1l-0.3,0l-1.2,0.5c-5.7,2.1-11.1,4.2-14.9,8.3
		c0.9-2.6,1.8-5.1,2.7-7.5c1.7-4.7,3.3-9.1,4.4-13.1l0.5-1.8l-1.8-0.6c-2.4-0.8-5-1.2-8-1.2c-2.6,0-5.3,0.3-7.8,0.6
		c-2.6,0.3-5,0.5-7.4,0.5c-0.2,0-0.4,0-0.6,0l-2,0l-0.1,2c0,0.3,0,0.5,0,0.7c-1.9-1-4-1.5-6.2-1.5c-4.4,0-9.4,1.9-13.4,5.1
		c-3.4,2.7-4.5,5.5-5.4,7.8c-1.1,2.8-1.6,4.1-5.7,4.5c-1.4,0.1-2.5,0.9-3.3,2.1c-2.9-2.2-6.7-3.4-11.2-3.4h-1.5l-0.4,1.4
		c-0.1,0.3-0.1,0.6-0.2,0.8c-2.4,0.8-4.7,2.9-6.7,6.1c-1.9,1.1-3.6,2.5-5.1,5c-3.5,5.7-3.2,13.5,0.4,18.1c1.1,4.4,3.9,6.9,7.9,7
		c0,0.1,0,0.3,0,0.4v2h2c0.5,0,0.9,0,1.4-0.1c-1.1,2.6-1,5.2,0.2,7.2c1.2,2.1,3.4,3.4,6.4,4.1c-0.4,0-0.7,0-0.9,0.1
		c-7.4,1-15,7.5-18.4,15.6c-1.7,4.1-2.2,8.1-1.4,11.8l-0.7-0.2c-3.4-1.2-6.7-1.3-9.2-1.4c0.3-3,1.4-6.2,2.5-9.2
		c0.5-1.4,1-2.7,1.4-4.1c0.4,0,0.9,0.1,1.4,0.1c0.6,0.1,1.3,0.1,1.9,0.1c0.6,0,2.3,0,3.2-1.4c2.3-3.8,2.9-6.7,1.8-8.7
		c-0.6-1-1.7-2.1-4.3-2.2c0.5-2.4,0.2-4.8-1-6.7c-1.5-2.4-4.1-3.8-7.1-3.8c-2.2,0-4.5,0.8-6.6,2.3c-2.6,1.6-3.2,4.2-3.7,6.1
		c-0.6,2.3-0.8,2.6-1.8,2.7l-0.2,0c-2.5,0.1-3.7,0.2-4.2,1.4c0,0,0,0.1-0.1,0.1c-0.1-0.1-0.3-0.2-0.4-0.3c-2.1-1.3-4.2-2-6.4-2
		c-2.3,0-4.4,0.7-6.6,1.7c-1.7-1.3-4.4-1.5-6.5-1.5c-2.5,0-5.3,0.3-7.9,0.6l-0.1-0.8l-1.9,0.1c-1.3,0.1-2.6,0.1-4.1,0.1
		c-1.3,0-2.5,0-3.7,0c-1.2,0-2.5,0-3.7,0c-6,0-11.1,0.6-16.1,3.5c-1-1.2-2.5-2.1-4.5-2.7l3.1-11.4l-3.4,1c-0.9,0.3-1.7,0.4-2.3,0.4
		c-0.3,0-0.8,0-0.9-0.3c-0.3-1,0.9-3.6,2.9-5.4c0.6,0.4,1.2,0.8,2,1.3c0.4,0.3,1,0.6,1.2,0.7c-0.4-0.3-0.9-1.1-0.5-2.1l1.3,0.5l0,0
		l-0.6,1.9l0,0c1.8,0.6,3.5,0.9,5.3,0.9c4.4,0,8.1-2.1,10-4.7c2.6,2.4,6.4,4,11.6,4c2.7,0,7-1.8,10.7-4.3c0.3,1,0.9,1.9,1.6,2.6
		l0.2,0.2l0.3,0.1c2.6,1.3,4.9,1.9,7,1.9c0,0,0,0,0,0c4.8,0,7.4-3.1,8.9-7.1c0.2,1,0.5,2,1.2,2.9c1.7,2.4,5,3.6,10.1,3.6
		c6.6,0,11.5-4.3,11.5-8.1c0-1.3-0.6-2.5-1.7-3.3c-0.8-0.6-1.9-1-3.3-1c0.4-2.1,1.3-4.1,2.2-6.2c1.7-3.9,3.7-8.3,2.4-13.5
		c-1.2-5-4.8-7.9-9.8-7.9c-1.5,0-3,0.3-4.3,0.6c1.7-6.3,2.7-10.4,0.5-13.3c-1.5-2-4.1-2.8-8.5-2.8c-1.2,0-2.6,0.1-4.2,0.2
		c-4,0.3-9.6,2.7-9.9,6.3c-0.2,2.2,1.5,3.9,5,5c-0.2,1.8-1.1,4.3-1.8,6.2c-0.3,1-0.7,1.9-0.9,2.7c-3.8-3.3-9.6-5.3-13.3-5.3
		c-0.3,0-0.5,0-0.7,0c-4.1,0.3-7.8,2-10.8,4.5c-0.1-0.7-0.3-1.3-0.7-1.9c-1.4-1.9-4-1.9-6.1-1.9l-1.7,0c-5,0-7.6,0.2-9.4,3
		c-0.4-2.8-3.3-3-4.6-3.1c-2.1-0.2-2.8-0.2-2.8-2.6c0-2,0.2-5.1,0.5-8.7c1.1-15.2,1.7-28.1-3.2-32.2L245.1-4l-0.3-0.1
		c-3.1-1.4-7.1-2.1-12.4-2.1c-3.7,0-7.5,0.3-11.2,0.6c-3.4,0.3-6.6,0.5-9.3,0.5h-217v825.8l247.6-0.2c2.1,0,2.2-1.8,2.3-5.4
		c0.1-2.2,0.2-5.3,0.3-8.9c0.4-12.1,1.1-37.2,3.3-40.7l1.7-2.7l-0.5-0.1l1.8,0l0.3-1.4c0.1,0,0.2,0,0.3,0c0.6,0,1.2-0.1,1.8-0.1
		c0,0.7,0,1.4,0.1,2.1l3.9,0.4l0.1-0.4c0.3-1.3,1.1-4.1,0.7-6.5l-0.8-4.5l-2.7,3.6c-0.3-0.7-0.5-1.3-0.8-2.1
		c-0.9-2.4-1.9-5.2-3.8-6.9c0.3-0.2,0.6-0.3,0.8-0.5c11.1,8.3,20.9,12.5,36.2,15.5c10,2,18.4,9.1,26.5,15.9c1.7,1.4,3.4,2.9,5.1,4.2
		c22.1,17.9,48.6,30.8,76.7,37.2c8.6,2,18.2,3,28,3c22.8,0,43.5-5.6,56.9-15.4c7-5.1,10.6-11.2,10.7-18.1
		c0.2-18.7-25.5-38.3-42.5-51.3c-3.2-2.5-6-4.6-8.1-6.4c-6-5-11.8-10.5-17.3-15.8l-2.9-2.7l-16.2-15.4c-0.7-0.6-0.6-1.5-0.4-3.5
		c0.1-0.8,0.2-1.6,0.2-2.4c3.1-0.1,6.3-0.2,9.3-0.3c5.1-0.2,10.3-0.4,15.4-0.4c4.6,0,8.7,0.1,12.5,0.4c1.6,0.1,3.7,0.5,6.1,0.8
		c4.5,0.7,10,1.6,15,1.6c7.5,0,12.2-2,14.2-6.1c2.2-4.3,7.4-8.3,12-11.7c0.7-0.5,1.4-1.1,2.1-1.6l6,3.7l0.3,0.1
		c0.5,0.1,1,0.2,1.5,0.2c1.3,0,2.4-0.4,3.5-1.2c-0.2,2,0.9,4.6,4.5,6l0.3,0.1l0.5,0c1.8,0,3.4-0.7,4.6-2c1-1.1,1.6-2.6,1.6-4.1
		c0-2.9-2-4.9-4.9-4.9c-1.5,0-2.7,0.3-3.7,0.8c0-0.1,0-0.1,0.1-0.2c1.3-3.5,1.3-8.4-0.4-11.1c4.6-4.5,9.4-9.7,14.8-15.8
		c3-3.3,5.9-6.8,8.8-10.1c4.2-4.9,8.4-9.9,12.9-14.7c-1.7,8.9-0.9,17.9,2.4,25.5c0.6,1.5,2.2,3.4,4.6,6.3c1.9,2.3,5.9,7,6.1,8.7
		c-6.3,3.8-5.4,8.3-4.6,12.3c0.3,1.3,0.5,2.5,0.6,3.9c-1.7,10.9-3.4,22.1-4.3,33.4c-0.2,2.1-0.4,4.2-0.6,6.2
		c-0.9,8.1-1.7,16.3,0.8,22.8l-9.5,17.9l3.2,0.1c0.9,0,2.1,0.2,3.4,0.3c1.9,0.2,4.1,0.5,6.2,0.5c3.3,0,5.6-0.7,7-2.1
		c1.4-1.4,1.9-3.3,1.5-5.4c0-0.2-0.1-0.3-0.1-0.5c1.1,0.4,2.3,0.8,3.7,1.1c1.3,0.3,2.6,0.7,4,1c3.5,0.9,7.2,1.9,10.6,1.9
		c5.2,0,8.8-2.3,11.1-7.1c6.7-13.9,9.6-30.3,12.5-46.3c1.2-6.7,2.3-13.1,3.7-19.2C604.2,680.6,604.5,678.6,604.7,676.7z M446.6,64.6
		c-0.4-0.1-0.9-0.1-1.4-0.2c-2.7-0.3-7.3-0.8-8.7-2.6c-0.1-0.1-0.2-0.2-0.2-0.4c3.2-0.4,7.5-1,11.2-2.4c0,1,0.1,2.1,0.3,3.1
		c0.2,0.9,0.4,1.8,0.8,2.7L446.6,64.6z M466.2,60.8c0.1-3.9,0.8-7.9,2.4-10.3C468.8,53.9,467.8,57.6,466.2,60.8z M290.7,60.6
		c-1.1,0.7-2,1.8-3.1,3c-1.1,1.2-2.8,3.2-3.7,3.2c0,0-0.1,0-0.3-0.1c-0.9-0.7-1.4-1.8-1.5-3.4c-0.2-2.3,0.5-5,1.5-7.2
		c0.4,0.7,0.8,1.2,1.2,1.7C286.2,59.3,288.3,60.3,290.7,60.6z M312.2,60.6c0.4-2.8,1-5.8,1.9-7C313.9,55.7,313,58.2,312.2,60.6z
		 M253.6,231.8c1.2,0.2,2.7,0.5,5,2c0.9,0.5,1.5,2.8,2,4.4c0.8,2.6,1.7,5.6,4.4,5.7c1.9,0.1,3.6,0.2,5.3,0.3
		c2.7,0.2,5.3,0.3,8.1,0.3c2.2,0,4.2-0.1,6.3-0.3c0.3,0,0.6,0,1,0c2.4,0,5.4-0.4,8.1-0.7c0.7-0.1,1.4-0.2,2-0.2
		c2.5-0.3,3.2-3.1,3.8-5.8c0.3-1.1,0.7-3,1.1-3.4c0.5-0.6,1.8-0.7,2.9-0.8c1.7-0.2,3.8-0.4,5-2.2c0.1-0.2,0.3-0.5,0.4-0.9
		c0.1,9.6,0.9,21.3,8.2,27c0.5,1.2,0.6,2,0.7,2.9c0.3,2.6,0.8,4.4,5.7,7.4c1.4,0.9,4.3,2.4,7.1,3.4c-2,0.9-3.6,2.1-4.8,3.3
		c-2,2.1-2.9,4.7-2.7,7.6c0.6,9.2,0.4,9.3-3.1,10c-2.3,0.5-5.3,1.2-9.5,3.6c-5.5,3.1-4.8,11.6-4.3,17.3c0.1,0.9,0.2,1.8,0.2,2.5
		c0,1.1,0,2.3,0,3.7c-0.1,4.5-0.3,9.5,2.3,12.6l0.2,0.2l0.2,0.1c7.6,5.6,17.6,5.6,26.4,5.7c3,0,5.9,0,8.6,0.3
		c4.3,0.3,8.9,0.5,14.5,0.5c3.9,0,7.8-0.1,11.6-0.2l2.6-0.1c21.2-0.4,41.6-1.9,58.9-3.4c-0.1,1-0.3,2-0.5,3.1
		c-0.9,5.7-2.2,13.5,5.3,15.3c5.7,1.4,12.3,2.2,18.4,2.2c3.8,0,7.3-0.3,10.4-0.9c-7.2,37.5-3.1,77.5,0.9,116.1
		c0.3,2.8,0.6,5.6,0.9,8.4c-1.3-0.9-3.2-1.3-6.3-1.6c-1.2-0.1-2.6-0.3-4.2-0.5c-2.1-2.2-2.5-6.3-2.9-10.3c-0.3-3.2-0.6-6.1-1.7-8.5
		c-2.3-5-4.6-9-6.8-13c-2.9-5.3-5.7-10.3-8.2-16.8c-1.7-4-3.6-7.9-5.5-11.7c-0.9-1.9-1.8-3.8-2.7-5.6c-1.1-2.4-2-3.5-4.4-4.1
		c0-0.4,0-0.8,0-1.3c0.1-2.9,0.1-5.8-1.1-8.8c-5.2-12.4-11.1-24-24.7-30.2c-4.4-2-9.4-2.8-14.2-3.6c-7.8-1.2-15.1-2.4-19.7-8.3
		c-4.8-6.1-11.4-13.1-20.3-13.1c-2.8,0-5.8,0.7-8.8,2.1c-2.6,1.2-5.5,1.8-9,1.8c-3.2,0-6.6-0.5-9.9-1c-2.4-0.4-5-0.7-7.5-0.9
		c-1.2-0.1-2.9-0.6-4.7-1c-2.5-0.7-5.4-1.5-8.1-1.5c-3.7,0-6.4,1.5-8.2,4.4c-1.2,2-2.8,4.3-4.5,6.8c-1.4,2.1-2.9,4.3-4.3,6.4
		c-0.9,1.5-4.8,2.1-7.9,2.6c-2.5,0.4-4.8,0.7-6.5,1.6c-1.4,0.5-2,1.6-2.3,2.5c-1-0.5-2.2-0.7-3.6-0.7c-3.6,0-8,1.7-11.3,3L247.8,216
		c0.1,0.9,0.2,1.8,0.3,2.6c0.3,1.9,0.5,3.6,0.6,5.1C249.2,229.4,249.9,231.1,253.6,231.8z M573,572c-0.5,1.9-1.7,3.5-2.8,5
		c-2.2,3.1-4.8,6.8-1.2,11.9c-1.2,0.6-2.3,1.1-3.5,1.6c-2,0.9-4.1,1.8-6.2,3c-0.4-7.4-10-12.8-16.7-16.5c-2.6-1.5-5.1-2.9-6.6-4.1
		c-10.4-8.4-21.6-17.5-33.6-26.4c0.1,0,0.1,0,0.2,0c1.3,0,2.5,0,3.7,0c2.1,0,4.1-0.2,5.8-0.3c1.4-0.1,2.7-0.2,3.9-0.2
		c1.2,0,2.1,0.1,2.9,0.3c1,0.3,1.8,0.4,2.7,0.4c2.9,0,4.6-1.6,5.9-2.7c1.1-1,1.6-1.5,2.5-1.5c1.6,0,3.1,1,4.9,2.2
		c2.2,1.4,4.6,3,7.7,3l14.5-0.2c3,0,6-0.1,9.2-0.3c4.1-0.1,8.3-0.3,12.6-0.3c0.4,0,0.9,0,1.3,0L573,572z M476,540.8
		c5.4,5.2,14.4,5.7,20.4,5.8c-4.6,2.3-8.9,8.9-13.5,15.8c-3.6,5.5-8.5,12.9-11.1,12.9h0c-0.3,0-0.6-0.2-0.9-0.5
		C476.9,569.9,476.9,556.1,476,540.8z M478.8,125.8c0.4,0.7,0.8,1.4,1.3,1.9c-1,0.2-2.1,0.5-3.3,0.7
		C477.6,127.7,478.3,126.8,478.8,125.8z M521.9,113.1c-0.3,1.2-0.6,2.2-1.1,2.9C521.2,115.1,521.5,114.1,521.9,113.1z M513.1,132.1
		c2.9,0,5.7-0.8,8.2-2.2c2,1.7,4.3,2.6,7.1,2.6c0.2,0,0.4,0,0.5,0c2.7,0,5.2-0.8,7.3-2c1.4,1.1,3.5,1.6,6.1,1.6
		c9.9,0,10.9-7.2,11.7-13.6c0.4-2.8,0.8-5.6,1.8-8.1c1.2,1.1,2.8,1.6,4.5,1.6c0,0,0,0,0,0c2.6,0,5.2-1.2,7.3-3.1
		c-0.4,3.7-0.6,6.4-0.5,6.9l0,1l0.5,0.4c0.1,0.3,0.2,0.7,0.3,1c-3.1,2.3-3.4,5.3-0.7,8.7c0,0,0.1,0,0.1,0c0,0.5,0.1,1,0.1,1.5
		c0,0.5,0.1,0.9,0.1,1.3c-0.3,0.1-0.7,0.2-1,0.4c-6.7,2.4-13.6,4.8-20.6,5.1c-2.8,0.1-5.5,0.2-8,0.2c-10.7,0-20.1-1.2-27.7-3.5
		c-1.7-0.5-3.6-1.2-5.5-1.9c-1.6-0.6-3.1-1.1-4.7-1.7c0.9-0.7,1.8-1.5,2.6-2.4c0.1,0.3,0.1,0.6,0.2,0.9l0.1,0.3l0.2,0.2
		C505.1,130.5,508.7,132.1,513.1,132.1z M475.1,114.9c0-0.1,0.1-0.2,0.1-0.3c0.1,2.3,0.6,4.5,1.7,6.4c-0.6-0.1-1.3-0.4-1.9-0.6
		c-0.5-0.2-1-0.4-1.6-0.5C473.7,118.4,474.4,116.7,475.1,114.9z M368.6,91.6c4.1-0.6,7.4-2.3,10.1-4.8c0.6,0.3,0.9,0.6,1,0.7
		c0.8,1.2,0.6,3.4,0,6.1C377.3,92.5,372.5,91.9,368.6,91.6z M340.4,121.4l0.1-0.3c0.2,0.6,0.4,1.1,0.7,1.6c-0.9,0.3-1.7,0.7-2.3,1.1
		C339.5,123.1,340,122.3,340.4,121.4z M314.7,128.7c1.9,1.6,4.6,2.4,8.1,2.4c5.5,0,10.3-1.6,13.7-4.6c-0.7,1.3-0.7,2.5-0.6,3.3
		c0.6,6.1,9.9,13.5,17,13.5c11.4,0,16.8-7.4,20.2-15.9c0,0.1,0.1,0.2,0.1,0.2c1.7,2.5,4.8,3.7,9,3.7c4.1,0,7.6-0.5,10.6-2.4
		c2.4,1.8,5.6,2.7,9.5,2.7h0l0,0c2.6-0.1,4.9-0.8,7-2.2c1.8,1.2,3.9,1.8,6.2,1.8c0.1,0,0.3,0,0.4,0c3.4,0,5.6-0.2,7.1-0.6
		c0.7,0,1.5,0.1,2.3,0.2c1.3,0.1,2.8,0.2,4.2,0.2c1.6,0,6.3,0,8.5-3.8c0.7,2.3,1.8,3.8,4.9,3.8c0.5,0,1.2,0,2-0.1
		c1.1-0.1,2.4-0.2,4-0.2c3.5,0,5.5-1.9,6.8-4.5c0.2,0.5,0.5,1,0.9,1.5c1.8,2.4,5,3.6,9.7,3.6c0.1,0,0.2,0,0.2,0
		c-6.4,2.4-12.6,5.7-16.1,10.4c-10.2,13.6-9.4,37.1-8.7,56c0.1,4.2,0.3,8.2,0.3,11.7c0,16.3-2.4,33.2-4.7,49.6
		c-0.7,5-1.4,10.2-2.1,15.2c-15.3-2.5-30-3.7-45.6-5c-3.8-0.3-7.6-0.6-11.4-0.9c-3.7-0.6-12.3-1.6-22-1.6c-3.6,0-6.8,0.1-9.8,0.4
		c4.4-3.4,8.4-7.9,9.5-10.8c2.2-5.8,1.1-13.3,0.1-19.4c-0.1-0.8-0.2-1.6-0.3-2.3l-0.1-0.5c-1-6.8-2.1-14.6-8.8-19.1
		c-2-1.4-4.5-3.1-4.9-3.9c-0.2-0.4,0.5-1.8,1.3-3.3c0.2-0.4,0.4-0.9,0.7-1.4c5-10,13.4-26.8,7.7-38c-2.6-5-7.7-8.2-15.3-9.5l-0.2,0
		l-0.4,0c-5.5,0-9.6,1.8-12.2,5.2c-5.2,6.9-3.1,18.9-0.6,28c-4.1,1.3-7,3.8-8.1,7.1c-0.8,2.3-1,5.8,2.2,10.1c-2.5,2.7-5,5.6-6.5,8.5
		c0.4-5.1-0.1-17.6-1-19.3c-2.7-5.2-10.9-14.3-18.5-15.3c1.8-3.7,3.2-7.8-1.7-12.7c-3.7-3.7-3.7-5.6-3.5-11.2c0-0.7,0-1.4,0.1-2.1
		c0-0.2-0.3-18.6-5-23.4c-1.1-1.1-2.3-1.4-3-1.4c-2.9,0-5,3.2-6.4,5.6c-0.3,0.6-0.6,1.3-0.8,2.1c-2.1-0.6-4.7-1-8.1-1.2l-2.1-0.1
		v14.2l0.1,0.3c0.7,2.2,2.5,3.4,5,3.4c1.7,0,3.4-0.5,4.9-1.2c0.1,1,0.2,2,0.3,3c0.3,2.8,0.5,5.4,0.5,7.1c0,3.1-0.8,4.4-2.5,7.1
		c-0.3,0.4-0.5,0.8-0.8,1.3c-1.7,2.8-0.9,5.8,0.1,8.3c-0.2,0-0.5,0-0.7,0c-2.9,0-4.8,1.8-6.6,3.5l-0.9,0.8l-0.1,0.6
		c-0.8,3.8-2.9,4.9-5.4,6.3c-2.1,1.1-4.4,2.4-5.7,5.4c-0.3,0.7-0.5,1.3-0.7,2.1c0-1.2,0-2.3,0-3.5l0-6.4c0-5.7,0.6-12,1.2-18.1
		c0.7-6.9,1.3-13.3,1.1-19c-0.1-2.6-0.5-5.7-1-9c-0.6-4.1-1.3-8.4-1.2-12.2c0-2,0.5-3.2,1.2-4.4c2.3,2,5.2,3.1,8.4,3.1
		c1.2,0,2.4-0.1,3.5-0.4c1.8-0.5,3.1-0.7,4-0.7c0.8,0,1.2,0.1,2,0.4c1.2,0.4,2.9,0.9,6.4,0.9c1.6,0,3.1-0.3,4.5-0.8
		c0.6,0,1.3,0.1,2,0.1c1.6,0.1,3.2,0.2,4.8,0.2c2.2,0,5.4-0.2,7.6-1.9l0.2-0.1l0.1-0.2c0.7-0.9,1.3-2.6,2-5.3c0.1,1.5,0.6,2.8,1.4,4
		c1.8,2.4,5.1,3.6,10.2,3.6c0,0,0.1,0,0.1,0c1.9,0,2.6,0,3.1-0.3C311.6,130.7,313.3,129.9,314.7,128.7z M254,79l0.5-1.6c0,0,0,0,0,0
		L254,79z M254.6,77.4C254.6,77.4,254.6,77.4,254.6,77.4L254.6,77.4L254.6,77.4L254.6,77.4z"/>
</g>
<rect x="237.3" y="137" width="30" height="49.5"/>
<rect x="375.3" y="149" width="70.9" height="16.5"/>
<rect x="250.7" y="271" width="74.1" height="16.5"/>
<rect x="250.7" y="278.3" width="57.4" height="16.5"/>
<rect x="250.7" y="289.6" width="46.9" height="16.5"/>
<rect x="250.7" y="303" width="62.4" height="16.5"/>
<rect x="250.7" y="311.6" width="62.4" height="16.5"/>
<rect x="250.7" y="326.3" width="46.9" height="16.5"/>
<rect x="365.2" y="161" width="81" height="16.5"/>
<rect x="365.4" y="173" width="70.6" height="16.5"/>
<rect x="382.8" y="184.3" width="53.2" height="16.5"/>
<rect x="382.7" y="194.3" width="53.3" height="16.5"/>
<rect x="382.7" y="210.3" width="53.3" height="16.5"/>
<rect x="371.4" y="218.3" width="64.6" height="16.5"/>
<rect x="392.5" y="225.7" width="43.6" height="16.5"/>
<rect x="241.2" y="757.9" width="35.3" height="20.7"/>
<rect x="479.2" y="663.2" width="67.3" height="34.3"/>
<rect x="459.2" y="695.2" width="47.3" height="13.3"/>
<rect x="459.2" y="701.9" width="85.3" height="38"/>
<rect x="459.2" y="736.5" width="32" height="13.3"/>
<rect x="542.5" y="778.5" width="43.3" height="10"/>
<rect x="542.5" y="771.5" width="61.7" height="10"/>
<rect x="542.5" y="763" width="54.6" height="10"/>
<rect x="542" y="756" width="44.7" height="10"/>
<rect x="779.2" y="634.5" width="460.3" height="168.7"/>
<rect x="778.5" y="801.2" width="198.7" height="18"/>
<rect x="1114.5" y="749.2" width="126.7" height="70"/>
<rect x="757.9" y="115.2" width="53.3" height="124"/>
<rect x="641.2" y="33.9" width="191.8" height="22"/>
<rect x="641.2" y="51.2" width="172.6" height="22"/>
<rect x="641.2" y="68.5" width="178.5" height="22"/>
<rect x="641.2" y="84.5" width="93.9" height="22"/>
<rect x="939.3" y="35" width="91.2" height="16.5"/>
<rect x="937.5" y="47" width="93" height="16.5"/>
<rect x="936.3" y="59" width="99.5" height="16.5"/>
<rect x="942.7" y="70.3" width="77.7" height="16.5"/>
<rect x="946.8" y="80.3" width="73.6" height="16.5"/>
<rect x="950.2" y="96.3" width="70.2" height="16.5"/>
<rect x="955.8" y="104.3" width="81.9" height="16.5"/>
<rect x="956.2" y="111.7" width="77.3" height="16.5"/>
<rect x="956.2" y="125.7" width="77.3" height="16.5"/>
<rect x="1091.5" y="91.7" width="90.2" height="16.5"/>
<rect x="1109.3" y="101" width="54.6" height="16.5"/>
<rect x="1141.9" y="369.3" width="70" height="16.5"/>
<rect x="1141.9" y="381.3" width="57.9" height="16.5"/>
<rect x="1141.9" y="394.4" width="66.2" height="15.4"/>
<rect x="1141.9" y="404.6" width="77.7" height="16.5"/>
<rect x="1141.9" y="414.6" width="80.7" height="16.5"/>
<rect x="1141.9" y="425.6" width="46.3" height="16.5"/>
<rect x="779.9" y="514.3" width="54.1" height="16.5"/>
<rect x="779.9" y="526.3" width="57.9" height="16.5"/>
<rect x="779.9" y="535.4" width="88.1" height="15.4"/>
<rect x="779.9" y="549.7" width="74" height="16.5"/>
<rect x="779.9" y="559.7" width="68.9" height="16.5"/>
<rect x="779.9" y="616.3" width="54.7" height="16.5"/>
<rect x="779.9" y="570.7" width="70.3" height="52.6"/>
<rect x="985.9" y="530" width="97.4" height="62.3"/>
</svg>
